<svg xmlns="http://www.w3.org/2000/svg" xmlns:xlink="http://www.w3.org/1999/xlink" version="1.1" class="marks" width="426" height="636" viewBox="0 0 426 636"><rect width="426" height="636" fill="white"/><g fill="none" stroke-miterlimit="10" transform="translate(80,5)"><g class="mark-group role-frame root" role="graphics-object" aria-roledescription="group mark container"><g transform="translate(0,0)"><path class="background" aria-hidden="true" d="M0.5,0.5h220v580h-220Z" stroke="#ddd"/><g><g class="mark-rect role-mark marks" role="graphics-object" aria-roledescription="rect mark container"><path aria-label="Days: MTW; Hours: 3; Count of Records: 5" role="graphics-symbol" aria-roledescription="rect mark" d="M40,340h20v20h-20Z" fill="rgb(40, 138, 189)"/><path aria-label="Days: Th; Hours: 4; Count of Records: 1" role="graphics-symbol" aria-roledescription="rect mark" d="M140,400h20v20h-20Z" fill="rgb(211, 238, 206)"/><path aria-label="Days: MTW; Hours: 12; Count of Records: 4" role="graphics-symbol" aria-roledescription="rect mark" d="M40,240h20v20h-20Z" fill="rgb(81, 178, 205)"/><path aria-label="Days: MTW; Hours: 4; Count of Records: 1" role="graphics-symbol" aria-roledescription="rect mark" d="M40,400h20v20h-20Z" fill="rgb(211, 238, 206)"/><path aria-label="Days: ThF; Hours: 10:30-12; Count of Records: 4" role="graphics-symbol" aria-roledescription="rect mark" d="M160,160h20v20h-20Z" fill="rgb(81, 178, 205)"/><path aria-label="Days: ThF; Hours: 1-2:15; Count of Records: 2" role="graphics-symbol" aria-roledescription="rect mark" d="M160,20h20v20h-20Z" fill="rgb(177, 225, 187)"/><path aria-label="Days: MTW; Hours: 9; Count of Records: 6" role="graphics-symbol" aria-roledescription="rect mark" d="M40,560h20v20h-20Z" fill="rgb(11, 96, 161)"/><path aria-label="Days: MW; Hours: 1-2:30; Count of Records: 1" role="graphics-symbol" aria-roledescription="rect mark" d="M60,40h20v20h-20Z" fill="rgb(211, 238, 206)"/><path aria-label="Days: MTW; Hours: 1; Count of Records: 6" role="graphics-symbol" aria-roledescription="rect mark" d="M40,0h20v20h-20Z" fill="rgb(11, 96, 161)"/><path aria-label="Days: W; Hours: 4-6:20; Count of Records: 1" role="graphics-symbol" aria-roledescription="rect mark" d="M200,460h20v20h-20Z" fill="rgb(211, 238, 206)"/><path aria-label="Days: ThF; Hours: 2:30-4; Count of Records: 2" role="graphics-symbol" aria-roledescription="rect mark" d="M160,320h20v20h-20Z" fill="rgb(177, 225, 187)"/><path aria-label="Days: MTW; Hours: 8; Count of Records: 2" role="graphics-symbol" aria-roledescription="rect mark" d="M40,520h20v20h-20Z" fill="rgb(177, 225, 187)"/><path aria-label="Days: M; Hours: 3; Count of Records: 2" role="graphics-symbol" aria-roledescription="rect mark" d="M0,340h20v20h-20Z" fill="rgb(177, 225, 187)"/><path aria-label="Days: MTW; Hours: 2; Count of Records: 4" role="graphics-symbol" aria-roledescription="rect mark" d="M40,260h20v20h-20Z" fill="rgb(81, 178, 205)"/><path aria-label="Days: M; Hours: 1; Count of Records: 1" role="graphics-symbol" aria-roledescription="rect mark" d="M0,0h20v20h-20Z" fill="rgb(211, 238, 206)"/><path aria-label="Days: M; Hours: 4-5:30; Count of Records: 1" role="graphics-symbol" aria-roledescription="rect mark" d="M0,440h20v20h-20Z" fill="rgb(211, 238, 206)"/><path aria-label="Days: Th; Hours: 2; Count of Records: 1" role="graphics-symbol" aria-roledescription="rect mark" d="M140,260h20v20h-20Z" fill="rgb(211, 238, 206)"/><path aria-label="Days: MTW; Hours: 11; Count of Records: 5" role="graphics-symbol" aria-roledescription="rect mark" d="M40,180h20v20h-20Z" fill="rgb(40, 138, 189)"/><path aria-label="Days: T; Hours: 6:15-8:45; Count of Records: 1" role="graphics-symbol" aria-roledescription="rect mark" d="M80,500h20v20h-20Z" fill="rgb(211, 238, 206)"/><path aria-label="Days: Th; Hours: 6:15-8:45; Count of Records: 1" role="graphics-symbol" aria-roledescription="rect mark" d="M140,500h20v20h-20Z" fill="rgb(211, 238, 206)"/><path aria-label="Days: W; Hours: 6:15-8:45; Count of Records: 1" role="graphics-symbol" aria-roledescription="rect mark" d="M200,500h20v20h-20Z" fill="rgb(211, 238, 206)"/><path aria-label="Days: M; Hours: 6:15-8:45; Count of Records: 1" role="graphics-symbol" aria-roledescription="rect mark" d="M0,500h20v20h-20Z" fill="rgb(211, 238, 206)"/><path aria-label="Days: MTW; Hours: 10; Count of Records: 4" role="graphics-symbol" aria-roledescription="rect mark" d="M40,120h20v20h-20Z" fill="rgb(81, 178, 205)"/><path aria-label="Days: MW; Hours: 3-4:30; Count of Records: 1" role="graphics-symbol" aria-roledescription="rect mark" d="M60,360h20v20h-20Z" fill="rgb(211, 238, 206)"/><path aria-label="Days: MT; Hours: 4:30-6; Count of Records: 1" role="graphics-symbol" aria-roledescription="rect mark" d="M20,480h20v20h-20Z" fill="rgb(211, 238, 206)"/><path aria-label="Days: W; Hours: 2; Count of Records: 1" role="graphics-symbol" aria-roledescription="rect mark" d="M200,260h20v20h-20Z" fill="rgb(211, 238, 206)"/><path aria-label="Days: Th; Hours: 8; Count of Records: 1" role="graphics-symbol" aria-roledescription="rect mark" d="M140,520h20v20h-20Z" fill="rgb(211, 238, 206)"/><path aria-label="Days: MT; Hours: 4-5:15; Count of Records: 1" role="graphics-symbol" aria-roledescription="rect mark" d="M20,420h20v20h-20Z" fill="rgb(211, 238, 206)"/><path aria-label="Days: TTh; Hours: 8:30-10; Count of Records: 1" role="graphics-symbol" aria-roledescription="rect mark" d="M100,540h20v20h-20Z" fill="rgb(211, 238, 206)"/><path aria-label="Days: TW; Hours: 2-3:30; Count of Records: 1" role="graphics-symbol" aria-roledescription="rect mark" d="M120,300h20v20h-20Z" fill="rgb(211, 238, 206)"/><path aria-label="Days: Th; Hours: 1-4:30; Count of Records: 1" role="graphics-symbol" aria-roledescription="rect mark" d="M140,100h20v20h-20Z" fill="rgb(211, 238, 206)"/><path aria-label="Days: Tu; Hours: 1-4; Count of Records: 1" role="graphics-symbol" aria-roledescription="rect mark" d="M180,80h20v20h-20Z" fill="rgb(211, 238, 206)"/><path aria-label="Days: Th; Hours: 1-4; Count of Records: 1" role="graphics-symbol" aria-roledescription="rect mark" d="M140,80h20v20h-20Z" fill="rgb(211, 238, 206)"/><path aria-label="Days: MW; Hours: 2-3:15; Count of Records: 1" role="graphics-symbol" aria-roledescription="rect mark" d="M60,280h20v20h-20Z" fill="rgb(211, 238, 206)"/><path aria-label="Days: MT; Hours: 3:30-4:45; Count of Records: 1" role="graphics-symbol" aria-roledescription="rect mark" d="M20,380h20v20h-20Z" fill="rgb(211, 238, 206)"/><path aria-label="Days: T; Hours: 10-12; Count of Records: 1" role="graphics-symbol" aria-roledescription="rect mark" d="M80,140h20v20h-20Z" fill="rgb(211, 238, 206)"/><path aria-label="Days: MW; Hours: 11:30; Count of Records: 1" role="graphics-symbol" aria-roledescription="rect mark" d="M60,200h20v20h-20Z" fill="rgb(211, 238, 206)"/><path aria-label="Days: T; Hours: 1-3; Count of Records: 1" role="graphics-symbol" aria-roledescription="rect mark" d="M80,60h20v20h-20Z" fill="rgb(211, 238, 206)"/><path aria-label="Days: W; Hours: 1-3; Count of Records: 2" role="graphics-symbol" aria-roledescription="rect mark" d="M200,60h20v20h-20Z" fill="rgb(177, 225, 187)"/><path aria-label="Days: MW; Hours: 11:30-12:45; Count of Records: 1" role="graphics-symbol" aria-roledescription="rect mark" d="M60,220h20v20h-20Z" fill="rgb(211, 238, 206)"/><path aria-label="Days: M; Hours: 1-4; Count of Records: 1" role="graphics-symbol" aria-roledescription="rect mark" d="M0,80h20v20h-20Z" fill="rgb(211, 238, 206)"/></g><g class="mark-group role-legend" role="graphics-symbol" aria-roledescription="legend" aria-label="Gradient legend titled 'Number of Courses' for fill color with values from 1 to 6"><g transform="translate(238,0)"><path class="background" aria-hidden="true" d="M0,0h103v216h-103Z" pointer-events="none"/><g><g class="mark-group role-legend-entry"><g transform="translate(0,16)"><path class="background" aria-hidden="true" d="M0,0h0v0h0Z" pointer-events="none"/><g><g class="mark-rect role-legend-gradient" pointer-events="none"><path d="M0,0h16v200h-16Z" fill="url(#gradient_29)" stroke="#ddd" stroke-width="0" opacity="1"/></g><g class="mark-text role-legend-label" pointer-events="none"><text text-anchor="start" transform="translate(18,198)" font-family="sans-serif" font-size="10px" fill="#000" opacity="1">1</text><text text-anchor="start" transform="translate(18,163)" font-family="sans-serif" font-size="10px" fill="#000" opacity="1">2</text><text text-anchor="start" transform="translate(18,123)" font-family="sans-serif" font-size="10px" fill="#000" opacity="1">3</text><text text-anchor="start" transform="translate(18,83)" font-family="sans-serif" font-size="10px" fill="#000" opacity="1">4</text><text text-anchor="start" transform="translate(18,42.99999999999999)" font-family="sans-serif" font-size="10px" fill="#000" opacity="1">5</text><text text-anchor="start" transform="translate(18,8)" font-family="sans-serif" font-size="10px" fill="#000" opacity="1">6</text></g></g><path class="foreground" aria-hidden="true" d="" pointer-events="none" display="none"/></g></g><g class="mark-text role-legend-title" pointer-events="none"><text text-anchor="start" transform="translate(0,9)" font-family="sans-serif" font-size="11px" font-weight="bold" fill="#000" opacity="1">Number of Courses</text></g></g><path class="foreground" aria-hidden="true" d="" pointer-events="none" display="none"/></g></g><g class="mark-group role-axis" role="graphics-symbol" aria-roledescription="axis" aria-label="X-axis titled 'Days of the Week' for a discrete scale with 11 values: M, MT, MTW, MW, T, ending with W"><g transform="translate(0.5,580.5)"><path class="background" aria-hidden="true" d="M0,0h0v0h0Z" pointer-events="none"/><g><g class="mark-rule role-axis-tick" pointer-events="none"><line transform="translate(10,0)" x2="0" y2="5" stroke="#888" stroke-width="1" opacity="1"/><line transform="translate(30,0)" x2="0" y2="5" stroke="#888" stroke-width="1" opacity="1"/><line transform="translate(50,0)" x2="0" y2="5" stroke="#888" stroke-width="1" opacity="1"/><line transform="translate(70,0)" x2="0" y2="5" stroke="#888" stroke-width="1" opacity="1"/><line transform="translate(90,0)" x2="0" y2="5" stroke="#888" stroke-width="1" opacity="1"/><line transform="translate(110,0)" x2="0" y2="5" stroke="#888" stroke-width="1" opacity="1"/><line transform="translate(130,0)" x2="0" y2="5" stroke="#888" stroke-width="1" opacity="1"/><line transform="translate(150,0)" x2="0" y2="5" stroke="#888" stroke-width="1" opacity="1"/><line transform="translate(170,0)" x2="0" y2="5" stroke="#888" stroke-width="1" opacity="1"/><line transform="translate(190,0)" x2="0" y2="5" stroke="#888" stroke-width="1" opacity="1"/><line transform="translate(210,0)" x2="0" y2="5" stroke="#888" stroke-width="1" opacity="1"/></g><g class="mark-text role-axis-label" pointer-events="none"><text text-anchor="end" transform="translate(9.5,7) rotate(270) translate(0,3)" font-family="sans-serif" font-size="10px" fill="#000" opacity="1">M</text><text text-anchor="end" transform="translate(29.5,7) rotate(270) translate(0,3)" font-family="sans-serif" font-size="10px" fill="#000" opacity="1">MT</text><text text-anchor="end" transform="translate(49.5,7) rotate(270) translate(0,3)" font-family="sans-serif" font-size="10px" fill="#000" opacity="1">MTW</text><text text-anchor="end" transform="translate(69.5,7) rotate(270) translate(0,3)" font-family="sans-serif" font-size="10px" fill="#000" opacity="1">MW</text><text text-anchor="end" transform="translate(89.5,7) rotate(270) translate(0,3)" font-family="sans-serif" font-size="10px" fill="#000" opacity="1">T</text><text text-anchor="end" transform="translate(109.5,7) rotate(270) translate(0,3)" font-family="sans-serif" font-size="10px" fill="#000" opacity="1">TTh</text><text text-anchor="end" transform="translate(129.5,7) rotate(270) translate(0,3)" font-family="sans-serif" font-size="10px" fill="#000" opacity="1">TW</text><text text-anchor="end" transform="translate(149.5,7) rotate(270) translate(0,3)" font-family="sans-serif" font-size="10px" fill="#000" opacity="1">Th</text><text text-anchor="end" transform="translate(169.5,7) rotate(270) translate(0,3)" font-family="sans-serif" font-size="10px" fill="#000" opacity="1">ThF</text><text text-anchor="end" transform="translate(189.5,7) rotate(270) translate(0,3)" font-family="sans-serif" font-size="10px" fill="#000" opacity="1">Tu</text><text text-anchor="end" transform="translate(209.5,7) rotate(270) translate(0,3)" font-family="sans-serif" font-size="10px" fill="#000" opacity="1">W</text></g><g class="mark-rule role-axis-domain" pointer-events="none"><line transform="translate(0,0)" x2="220" y2="0" stroke="#888" stroke-width="1" opacity="1"/></g><g class="mark-text role-axis-title" pointer-events="none"><text text-anchor="middle" transform="translate(110,43.876953125)" font-family="sans-serif" font-size="11px" font-weight="bold" fill="#000" opacity="1">Days of the Week</text></g></g><path class="foreground" aria-hidden="true" d="" pointer-events="none" display="none"/></g></g><g class="mark-group role-axis" role="graphics-symbol" aria-roledescription="axis" aria-label="Y-axis titled 'Time of Day' for a discrete scale with 29 values: 1, 1-2:15, 1-2:30, 1-3, 1-4, ending with 9"><g transform="translate(0.5,0.5)"><path class="background" aria-hidden="true" d="M0,0h0v0h0Z" pointer-events="none"/><g><g class="mark-rule role-axis-tick" pointer-events="none"><line transform="translate(0,10)" x2="-5" y2="0" stroke="#888" stroke-width="1" opacity="1"/><line transform="translate(0,30)" x2="-5" y2="0" stroke="#888" stroke-width="1" opacity="1"/><line transform="translate(0,50)" x2="-5" y2="0" stroke="#888" stroke-width="1" opacity="1"/><line transform="translate(0,70)" x2="-5" y2="0" stroke="#888" stroke-width="1" opacity="1"/><line transform="translate(0,90)" x2="-5" y2="0" stroke="#888" stroke-width="1" opacity="1"/><line transform="translate(0,110)" x2="-5" y2="0" stroke="#888" stroke-width="1" opacity="1"/><line transform="translate(0,130)" x2="-5" y2="0" stroke="#888" stroke-width="1" opacity="1"/><line transform="translate(0,150)" x2="-5" y2="0" stroke="#888" stroke-width="1" opacity="1"/><line transform="translate(0,170)" x2="-5" y2="0" stroke="#888" stroke-width="1" opacity="1"/><line transform="translate(0,190)" x2="-5" y2="0" stroke="#888" stroke-width="1" opacity="1"/><line transform="translate(0,210)" x2="-5" y2="0" stroke="#888" stroke-width="1" opacity="1"/><line transform="translate(0,230)" x2="-5" y2="0" stroke="#888" stroke-width="1" opacity="1"/><line transform="translate(0,250)" x2="-5" y2="0" stroke="#888" stroke-width="1" opacity="1"/><line transform="translate(0,270)" x2="-5" y2="0" stroke="#888" stroke-width="1" opacity="1"/><line transform="translate(0,290)" x2="-5" y2="0" stroke="#888" stroke-width="1" opacity="1"/><line transform="translate(0,310)" x2="-5" y2="0" stroke="#888" stroke-width="1" opacity="1"/><line transform="translate(0,330)" x2="-5" y2="0" stroke="#888" stroke-width="1" opacity="1"/><line transform="translate(0,350)" x2="-5" y2="0" stroke="#888" stroke-width="1" opacity="1"/><line transform="translate(0,370)" x2="-5" y2="0" stroke="#888" stroke-width="1" opacity="1"/><line transform="translate(0,390)" x2="-5" y2="0" stroke="#888" stroke-width="1" opacity="1"/><line transform="translate(0,410)" x2="-5" y2="0" stroke="#888" stroke-width="1" opacity="1"/><line transform="translate(0,430)" x2="-5" y2="0" stroke="#888" stroke-width="1" opacity="1"/><line transform="translate(0,450)" x2="-5" y2="0" stroke="#888" stroke-width="1" opacity="1"/><line transform="translate(0,470)" x2="-5" y2="0" stroke="#888" stroke-width="1" opacity="1"/><line transform="translate(0,490)" x2="-5" y2="0" stroke="#888" stroke-width="1" opacity="1"/><line transform="translate(0,510)" x2="-5" y2="0" stroke="#888" stroke-width="1" opacity="1"/><line transform="translate(0,530)" x2="-5" y2="0" stroke="#888" stroke-width="1" opacity="1"/><line transform="translate(0,550)" x2="-5" y2="0" stroke="#888" stroke-width="1" opacity="1"/><line transform="translate(0,570)" x2="-5" y2="0" stroke="#888" stroke-width="1" opacity="1"/></g><g class="mark-text role-axis-label" pointer-events="none"><text text-anchor="end" transform="translate(-7,12.5)" font-family="sans-serif" font-size="10px" fill="#000" opacity="1">1</text><text text-anchor="end" transform="translate(-7,32.5)" font-family="sans-serif" font-size="10px" fill="#000" opacity="1">1-2:15</text><text text-anchor="end" transform="translate(-7,52.5)" font-family="sans-serif" font-size="10px" fill="#000" opacity="1">1-2:30</text><text text-anchor="end" transform="translate(-7,72.5)" font-family="sans-serif" font-size="10px" fill="#000" opacity="1">1-3</text><text text-anchor="end" transform="translate(-7,92.5)" font-family="sans-serif" font-size="10px" fill="#000" opacity="1">1-4</text><text text-anchor="end" transform="translate(-7,112.5)" font-family="sans-serif" font-size="10px" fill="#000" opacity="1">1-4:30</text><text text-anchor="end" transform="translate(-7,132.5)" font-family="sans-serif" font-size="10px" fill="#000" opacity="1">10</text><text text-anchor="end" transform="translate(-7,152.5)" font-family="sans-serif" font-size="10px" fill="#000" opacity="1">10-12</text><text text-anchor="end" transform="translate(-7,172.5)" font-family="sans-serif" font-size="10px" fill="#000" opacity="1">10:30-12</text><text text-anchor="end" transform="translate(-7,192.5)" font-family="sans-serif" font-size="10px" fill="#000" opacity="1">11</text><text text-anchor="end" transform="translate(-7,212.5)" font-family="sans-serif" font-size="10px" fill="#000" opacity="1">11:30</text><text text-anchor="end" transform="translate(-7,232.5)" font-family="sans-serif" font-size="10px" fill="#000" opacity="1">11:30-12:45</text><text text-anchor="end" transform="translate(-7,252.5)" font-family="sans-serif" font-size="10px" fill="#000" opacity="1">12</text><text text-anchor="end" transform="translate(-7,272.5)" font-family="sans-serif" font-size="10px" fill="#000" opacity="1">2</text><text text-anchor="end" transform="translate(-7,292.5)" font-family="sans-serif" font-size="10px" fill="#000" opacity="1">2-3:15</text><text text-anchor="end" transform="translate(-7,312.5)" font-family="sans-serif" font-size="10px" fill="#000" opacity="1">2-3:30</text><text text-anchor="end" transform="translate(-7,332.5)" font-family="sans-serif" font-size="10px" fill="#000" opacity="1">2:30-4</text><text text-anchor="end" transform="translate(-7,352.5)" font-family="sans-serif" font-size="10px" fill="#000" opacity="1">3</text><text text-anchor="end" transform="translate(-7,372.5)" font-family="sans-serif" font-size="10px" fill="#000" opacity="1">3-4:30</text><text text-anchor="end" transform="translate(-7,392.5)" font-family="sans-serif" font-size="10px" fill="#000" opacity="1">3:30-4:45</text><text text-anchor="end" transform="translate(-7,412.5)" font-family="sans-serif" font-size="10px" fill="#000" opacity="1">4</text><text text-anchor="end" transform="translate(-7,432.5)" font-family="sans-serif" font-size="10px" fill="#000" opacity="1">4-5:15</text><text text-anchor="end" transform="translate(-7,452.5)" font-family="sans-serif" font-size="10px" fill="#000" opacity="1">4-5:30</text><text text-anchor="end" transform="translate(-7,472.5)" font-family="sans-serif" font-size="10px" fill="#000" opacity="1">4-6:20</text><text text-anchor="end" transform="translate(-7,492.5)" font-family="sans-serif" font-size="10px" fill="#000" opacity="1">4:30-6</text><text text-anchor="end" transform="translate(-7,512.5)" font-family="sans-serif" font-size="10px" fill="#000" opacity="1">6:15-8:45</text><text text-anchor="end" transform="translate(-7,532.5)" font-family="sans-serif" font-size="10px" fill="#000" opacity="1">8</text><text text-anchor="end" transform="translate(-7,552.5)" font-family="sans-serif" font-size="10px" fill="#000" opacity="1">8:30-10</text><text text-anchor="end" transform="translate(-7,572.5)" font-family="sans-serif" font-size="10px" fill="#000" opacity="1">9</text></g><g class="mark-rule role-axis-domain" pointer-events="none"><line transform="translate(0,0)" x2="0" y2="580" stroke="#888" stroke-width="1" opacity="1"/></g><g class="mark-text role-axis-title" pointer-events="none"><text text-anchor="middle" transform="translate(-63.63671875,290) rotate(-90) translate(0,-2)" font-family="sans-serif" font-size="11px" font-weight="bold" fill="#000" opacity="1">Time of Day</text></g></g><path class="foreground" aria-hidden="true" d="" pointer-events="none" display="none"/></g></g></g><path class="foreground" aria-hidden="true" d="" display="none"/></g></g></g><defs><linearGradient id="gradient_29" x1="0" x2="0" y1="1" y2="0"><stop offset="0" stop-color="rgb(211, 238, 206)"/><stop offset="0.1" stop-color="rgb(197, 232, 195)"/><stop offset="0.2" stop-color="rgb(177, 225, 187)"/><stop offset="0.3" stop-color="rgb(155, 216, 187)"/><stop offset="0.4" stop-color="rgb(130, 206, 194)"/><stop offset="0.5" stop-color="rgb(105, 194, 202)"/><stop offset="0.6" stop-color="rgb(81, 178, 205)"/><stop offset="0.7" stop-color="rgb(60, 159, 199)"/><stop offset="0.8" stop-color="rgb(40, 138, 189)"/><stop offset="0.9" stop-color="rgb(22, 117, 177)"/><stop offset="1" stop-color="rgb(11, 96, 161)"/></linearGradient></defs></svg>