<svg xmlns="http://www.w3.org/2000/svg" xmlns:xlink="http://www.w3.org/1999/xlink" version="1.1" class="marks" width="351" height="347" viewBox="0 0 351 347"><rect width="351" height="347" fill="white"/><g fill="none" stroke-miterlimit="10" transform="translate(39,10)"><g class="mark-group role-frame root" role="graphics-object" aria-roledescription="group mark container"><g transform="translate(0,0)"><path class="background" aria-hidden="true" d="M0.5,0.5h300v300h-300Z" stroke="#ddd"/><g><g class="mark-group role-axis" aria-hidden="true"><g transform="translate(0.5,300.5)"><path class="background" aria-hidden="true" d="M0,0h0v0h0Z" pointer-events="none"/><g><g class="mark-rule role-axis-grid" pointer-events="none"><line transform="translate(31,-300)" x2="0" y2="300" stroke="#ddd" stroke-width="1" opacity="1"/><line transform="translate(64,-300)" x2="0" y2="300" stroke="#ddd" stroke-width="1" opacity="1"/><line transform="translate(97,-300)" x2="0" y2="300" stroke="#ddd" stroke-width="1" opacity="1"/><line transform="translate(130,-300)" x2="0" y2="300" stroke="#ddd" stroke-width="1" opacity="1"/><line transform="translate(163,-300)" x2="0" y2="300" stroke="#ddd" stroke-width="1" opacity="1"/><line transform="translate(196,-300)" x2="0" y2="300" stroke="#ddd" stroke-width="1" opacity="1"/><line transform="translate(229,-300)" x2="0" y2="300" stroke="#ddd" stroke-width="1" opacity="1"/><line transform="translate(262,-300)" x2="0" y2="300" stroke="#ddd" stroke-width="1" opacity="1"/><line transform="translate(295,-300)" x2="0" y2="300" stroke="#ddd" stroke-width="1" opacity="1"/></g></g><path class="foreground" aria-hidden="true" d="" pointer-events="none" display="none"/></g></g><g class="mark-group role-axis" aria-hidden="true"><g transform="translate(0.5,0.5)"><path class="background" aria-hidden="true" d="M0,0h0v0h0Z" pointer-events="none"/><g><g class="mark-rule role-axis-grid" pointer-events="none"><line transform="translate(0,300)" x2="300" y2="0" stroke="#ddd" stroke-width="1" opacity="1"/><line transform="translate(0,263)" x2="300" y2="0" stroke="#ddd" stroke-width="1" opacity="1"/><line transform="translate(0,225)" x2="300" y2="0" stroke="#ddd" stroke-width="1" opacity="1"/><line transform="translate(0,188)" x2="300" y2="0" stroke="#ddd" stroke-width="1" opacity="1"/><line transform="translate(0,150)" x2="300" y2="0" stroke="#ddd" stroke-width="1" opacity="1"/><line transform="translate(0,113)" x2="300" y2="0" stroke="#ddd" stroke-width="1" opacity="1"/><line transform="translate(0,75)" x2="300" y2="0" stroke="#ddd" stroke-width="1" opacity="1"/><line transform="translate(0,38)" x2="300" y2="0" stroke="#ddd" stroke-width="1" opacity="1"/><line transform="translate(0,0)" x2="300" y2="0" stroke="#ddd" stroke-width="1" opacity="1"/></g></g><path class="foreground" aria-hidden="true" d="" pointer-events="none" display="none"/></g></g><g class="mark-group role-axis" role="graphics-symbol" aria-roledescription="axis" aria-label="X-axis titled 'date_of_birth (year)' for a time scale with values from Sunday, 29 March 1970, 9:55:51 PM to Monday, 05 October 2015, 2:04:08 AM"><g transform="translate(0.5,300.5)"><path class="background" aria-hidden="true" d="M0,0h0v0h0Z" pointer-events="none"/><g><g class="mark-rule role-axis-tick" pointer-events="none"><line transform="translate(31,0)" x2="0" y2="5" stroke="#888" stroke-width="1" opacity="1"/><line transform="translate(64,0)" x2="0" y2="5" stroke="#888" stroke-width="1" opacity="1"/><line transform="translate(97,0)" x2="0" y2="5" stroke="#888" stroke-width="1" opacity="1"/><line transform="translate(130,0)" x2="0" y2="5" stroke="#888" stroke-width="1" opacity="1"/><line transform="translate(163,0)" x2="0" y2="5" stroke="#888" stroke-width="1" opacity="1"/><line transform="translate(196,0)" x2="0" y2="5" stroke="#888" stroke-width="1" opacity="1"/><line transform="translate(229,0)" x2="0" y2="5" stroke="#888" stroke-width="1" opacity="1"/><line transform="translate(262,0)" x2="0" y2="5" stroke="#888" stroke-width="1" opacity="1"/><line transform="translate(295,0)" x2="0" y2="5" stroke="#888" stroke-width="1" opacity="1"/></g><g class="mark-text role-axis-label" pointer-events="none"><text text-anchor="middle" transform="translate(31.363636363680985,15)" font-family="sans-serif" font-size="10px" fill="#000" opacity="1">1975</text><text text-anchor="middle" transform="translate(64.31367058683243,15)" font-family="sans-serif" font-size="10px" fill="#000" opacity="1">1980</text><text text-anchor="middle" transform="translate(97.28174973562635,15)" font-family="sans-serif" font-size="10px" fill="#000" opacity="1">1985</text><text text-anchor="middle" transform="translate(130.2317839587778,15)" font-family="sans-serif" font-size="10px" fill="#000" opacity="1">1990</text><text text-anchor="middle" transform="translate(163.18181818192926,15)" font-family="sans-serif" font-size="10px" fill="#000" opacity="1">1995</text><text text-anchor="middle" transform="translate(196.1318524050807,15)" font-family="sans-serif" font-size="10px" fill="#000" opacity="1">2000</text><text text-anchor="middle" transform="translate(229.09993155387463,15)" font-family="sans-serif" font-size="10px" fill="#000" opacity="1">2005</text><text text-anchor="middle" transform="translate(262.04996577702605,15)" font-family="sans-serif" font-size="10px" fill="#000" opacity="1">2010</text><text text-anchor="middle" transform="translate(295.0000000001775,15)" font-family="sans-serif" font-size="10px" fill="#000" opacity="1">2015</text></g><g class="mark-rule role-axis-domain" pointer-events="none"><line transform="translate(0,0)" x2="300" y2="0" stroke="#888" stroke-width="1" opacity="1"/></g><g class="mark-text role-axis-title" pointer-events="none"><text text-anchor="middle" transform="translate(150,30)" font-family="sans-serif" font-size="11px" font-weight="bold" fill="#000" opacity="1">date_of_birth (year)</text></g></g><path class="foreground" aria-hidden="true" d="" pointer-events="none" display="none"/></g></g><g class="mark-group role-axis" role="graphics-symbol" aria-roledescription="axis" aria-label="Y-axis titled 'guest_id' for a linear scale with values from 0 to 16"><g transform="translate(0.5,0.5)"><path class="background" aria-hidden="true" d="M0,0h0v0h0Z" pointer-events="none"/><g><g class="mark-rule role-axis-tick" pointer-events="none"><line transform="translate(0,300)" x2="-5" y2="0" stroke="#888" stroke-width="1" opacity="1"/><line transform="translate(0,263)" x2="-5" y2="0" stroke="#888" stroke-width="1" opacity="1"/><line transform="translate(0,225)" x2="-5" y2="0" stroke="#888" stroke-width="1" opacity="1"/><line transform="translate(0,188)" x2="-5" y2="0" stroke="#888" stroke-width="1" opacity="1"/><line transform="translate(0,150)" x2="-5" y2="0" stroke="#888" stroke-width="1" opacity="1"/><line transform="translate(0,113)" x2="-5" y2="0" stroke="#888" stroke-width="1" opacity="1"/><line transform="translate(0,75)" x2="-5" y2="0" stroke="#888" stroke-width="1" opacity="1"/><line transform="translate(0,38)" x2="-5" y2="0" stroke="#888" stroke-width="1" opacity="1"/><line transform="translate(0,0)" x2="-5" y2="0" stroke="#888" stroke-width="1" opacity="1"/></g><g class="mark-text role-axis-label" pointer-events="none"><text text-anchor="end" transform="translate(-7,303)" font-family="sans-serif" font-size="10px" fill="#000" opacity="1">0</text><text text-anchor="end" transform="translate(-7,265.5)" font-family="sans-serif" font-size="10px" fill="#000" opacity="1">2</text><text text-anchor="end" transform="translate(-7,228)" font-family="sans-serif" font-size="10px" fill="#000" opacity="1">4</text><text text-anchor="end" transform="translate(-7,190.5)" font-family="sans-serif" font-size="10px" fill="#000" opacity="1">6</text><text text-anchor="end" transform="translate(-7,153)" font-family="sans-serif" font-size="10px" fill="#000" opacity="1">8</text><text text-anchor="end" transform="translate(-7,115.5)" font-family="sans-serif" font-size="10px" fill="#000" opacity="1">10</text><text text-anchor="end" transform="translate(-7,78)" font-family="sans-serif" font-size="10px" fill="#000" opacity="1">12</text><text text-anchor="end" transform="translate(-7,40.5)" font-family="sans-serif" font-size="10px" fill="#000" opacity="1">14</text><text text-anchor="end" transform="translate(-7,3)" font-family="sans-serif" font-size="10px" fill="#000" opacity="1">16</text></g><g class="mark-rule role-axis-domain" pointer-events="none"><line transform="translate(0,300)" x2="0" y2="-300" stroke="#888" stroke-width="1" opacity="1"/></g><g class="mark-text role-axis-title" pointer-events="none"><text text-anchor="middle" transform="translate(-22.123046875,150) rotate(-90) translate(0,-2)" font-family="sans-serif" font-size="11px" font-weight="bold" fill="#000" opacity="1">guest_id</text></g></g><path class="foreground" aria-hidden="true" d="" pointer-events="none" display="none"/></g></g><g class="mark-symbol role-mark layer_0_layer_0_marks" role="graphics-symbol" aria-roledescription="symbol mark container"/><g class="mark-rule role-mark layer_0_layer_1_layer_0_marks" aria-hidden="true"><line transform="translate(163.18181818192926,281.25)" x2="0" y2="0" stroke="black"/><line transform="translate(24.777238504179184,262.5)" x2="0" y2="-4.6875" stroke="black"/><line transform="translate(242.27272727287823,225)" x2="0" y2="0" stroke="black"/><line transform="translate(176.3726588265753,206.25)" x2="0" y2="-9.375" stroke="black"/><line transform="translate(51.140874867828835,187.5)" x2="0" y2="0" stroke="black"/><line transform="translate(202.73629519022495,150)" x2="0" y2="0" stroke="black"/><line transform="translate(5.000000000031328,131.25)" x2="0" y2="-18.75" stroke="black"/><line transform="translate(64.31367058683243,112.5)" x2="0" y2="0" stroke="black"/><line transform="translate(295.0000000001775,93.75)" x2="0" y2="0" stroke="black"/><line transform="translate(84.09090909098029,75)" x2="0" y2="0" stroke="black"/><line transform="translate(215.90909090922858,37.5)" x2="0" y2="0" stroke="black"/><line transform="translate(281.8272042811739,18.75)" x2="0" y2="0" stroke="black"/></g><g class="mark-rule role-mark layer_0_layer_1_layer_1_marks" aria-hidden="true"><line transform="translate(163.18181818192926,281.25)" x2="0" y2="0" stroke="black"/><line transform="translate(24.777238504179184,248.4375)" x2="0" y2="-4.6875" stroke="black"/><line transform="translate(242.27272727287823,225)" x2="0" y2="0" stroke="black"/><line transform="translate(176.3726588265753,178.125)" x2="0" y2="-9.375" stroke="black"/><line transform="translate(51.140874867828835,187.5)" x2="0" y2="0" stroke="black"/><line transform="translate(202.73629519022495,150)" x2="0" y2="0" stroke="black"/><line transform="translate(5.000000000031328,75)" x2="0" y2="-18.75" stroke="black"/><line transform="translate(64.31367058683243,112.5)" x2="0" y2="0" stroke="black"/><line transform="translate(295.0000000001775,93.75)" x2="0" y2="0" stroke="black"/><line transform="translate(84.09090909098029,75)" x2="0" y2="0" stroke="black"/><line transform="translate(215.90909090922858,37.5)" x2="0" y2="0" stroke="black"/><line transform="translate(281.8272042811739,18.75)" x2="0" y2="0" stroke="black"/></g><g class="mark-rect role-mark layer_1_layer_0_marks" role="graphics-object" aria-roledescription="rect mark container"><path aria-label="date_of_birth (year): Jan 01, 1995; guest_id: 1; upper_box_guest_id: 1; Max of guest_id: 1; Q3 of guest_id: 1; Median of guest_id: 1; Q1 of guest_id: 1; Min of guest_id: 1" role="graphics-symbol" aria-roledescription="box" d="M156.18181818192926,281.25h14v0h-14Z" fill="#4c78a8"/><path aria-label="date_of_birth (year): Jan 01, 1974; guest_id: 2.25; upper_box_guest_id: 2.75; Max of guest_id: 3; Q3 of guest_id: 2.75; Median of guest_id: 2.5; Q1 of guest_id: 2.25; Min of guest_id: 2" role="graphics-symbol" aria-roledescription="box" d="M17.777238504179184,248.4375h14v9.375h-14Z" fill="#4c78a8"/><path aria-label="date_of_birth (year): Jan 01, 2007; guest_id: 4; upper_box_guest_id: 4; Max of guest_id: 4; Q3 of guest_id: 4; Median of guest_id: 4; Q1 of guest_id: 4; Min of guest_id: 4" role="graphics-symbol" aria-roledescription="box" d="M235.27272727287823,225h14v0h-14Z" fill="#4c78a8"/><path aria-label="date_of_birth (year): Jan 01, 1997; guest_id: 5.5; upper_box_guest_id: 6.5; Max of guest_id: 7; Q3 of guest_id: 6.5; Median of guest_id: 6; Q1 of guest_id: 5.5; Min of guest_id: 5" role="graphics-symbol" aria-roledescription="box" d="M169.3726588265753,178.125h14v18.75h-14Z" fill="#4c78a8"/><path aria-label="date_of_birth (year): Jan 01, 1978; guest_id: 6; upper_box_guest_id: 6; Max of guest_id: 6; Q3 of guest_id: 6; Median of guest_id: 6; Q1 of guest_id: 6; Min of guest_id: 6" role="graphics-symbol" aria-roledescription="box" d="M44.140874867828835,187.5h14v0h-14Z" fill="#4c78a8"/><path aria-label="date_of_birth (year): Jan 01, 2001; guest_id: 8; upper_box_guest_id: 8; Max of guest_id: 8; Q3 of guest_id: 8; Median of guest_id: 8; Q1 of guest_id: 8; Min of guest_id: 8" role="graphics-symbol" aria-roledescription="box" d="M195.73629519022495,150h14v0h-14Z" fill="#4c78a8"/><path aria-label="date_of_birth (year): Jan 01, 1971; guest_id: 10; upper_box_guest_id: 12; Max of guest_id: 13; Q3 of guest_id: 12; Median of guest_id: 11; Q1 of guest_id: 10; Min of guest_id: 9" role="graphics-symbol" aria-roledescription="box" d="M-1.9999999999686722,75h14v37.5h-14Z" fill="#4c78a8"/><path aria-label="date_of_birth (year): Jan 01, 1980; guest_id: 10; upper_box_guest_id: 10; Max of guest_id: 10; Q3 of guest_id: 10; Median of guest_id: 10; Q1 of guest_id: 10; Min of guest_id: 10" role="graphics-symbol" aria-roledescription="box" d="M57.31367058683243,112.5h14v0h-14Z" fill="#4c78a8"/><path aria-label="date_of_birth (year): Jan 01, 2015; guest_id: 11; upper_box_guest_id: 11; Max of guest_id: 11; Q3 of guest_id: 11; Median of guest_id: 11; Q1 of guest_id: 11; Min of guest_id: 11" role="graphics-symbol" aria-roledescription="box" d="M288.0000000001775,93.75h14v0h-14Z" fill="#4c78a8"/><path aria-label="date_of_birth (year): Jan 01, 1983; guest_id: 12; upper_box_guest_id: 12; Max of guest_id: 12; Q3 of guest_id: 12; Median of guest_id: 12; Q1 of guest_id: 12; Min of guest_id: 12" role="graphics-symbol" aria-roledescription="box" d="M77.09090909098029,75h14v0h-14Z" fill="#4c78a8"/><path aria-label="date_of_birth (year): Jan 01, 2003; guest_id: 14; upper_box_guest_id: 14; Max of guest_id: 14; Q3 of guest_id: 14; Median of guest_id: 14; Q1 of guest_id: 14; Min of guest_id: 14" role="graphics-symbol" aria-roledescription="box" d="M208.90909090922858,37.5h14v0h-14Z" fill="#4c78a8"/><path aria-label="date_of_birth (year): Jan 01, 2013; guest_id: 15; upper_box_guest_id: 15; Max of guest_id: 15; Q3 of guest_id: 15; Median of guest_id: 15; Q1 of guest_id: 15; Min of guest_id: 15" role="graphics-symbol" aria-roledescription="box" d="M274.8272042811739,18.75h14v0h-14Z" fill="#4c78a8"/></g><g class="mark-rect role-mark layer_1_layer_1_marks" aria-hidden="true"><path d="M156.18181818192926,280.75h14v1h-14Z" fill="white" opacity="0.7"/><path d="M17.777238504179184,252.625h14v1h-14Z" fill="white" opacity="0.7"/><path d="M235.27272727287823,224.5h14v1h-14Z" fill="white" opacity="0.7"/><path d="M169.3726588265753,187h14v1h-14Z" fill="white" opacity="0.7"/><path d="M44.140874867828835,187h14v1h-14Z" fill="white" opacity="0.7"/><path d="M195.73629519022495,149.5h14v1h-14Z" fill="white" opacity="0.7"/><path d="M-1.9999999999686722,93.25h14v1h-14Z" fill="white" opacity="0.7"/><path d="M57.31367058683243,112h14v1h-14Z" fill="white" opacity="0.7"/><path d="M288.0000000001775,93.25h14v1h-14Z" fill="white" opacity="0.7"/><path d="M77.09090909098029,74.5h14v1h-14Z" fill="white" opacity="0.7"/><path d="M208.90909090922858,37h14v1h-14Z" fill="white" opacity="0.7"/><path d="M274.8272042811739,18.25h14v1h-14Z" fill="white" opacity="0.7"/></g></g><path class="foreground" aria-hidden="true" d="" display="none"/></g></g></g></svg>