<svg xmlns="http://www.w3.org/2000/svg" xmlns:xlink="http://www.w3.org/1999/xlink" version="1.1" class="marks" width="144" height="398" viewBox="0 0 144 398"><rect width="144" height="398" fill="white"/><g fill="none" stroke-miterlimit="10" transform="translate(39,5)"><g class="mark-group role-frame root" role="graphics-object" aria-roledescription="group mark container"><g transform="translate(0,0)"><path class="background" aria-hidden="true" d="M0.5,0.5h100v300h-100Z" stroke="#ddd"/><g><g class="mark-group role-axis" aria-hidden="true"><g transform="translate(0.5,0.5)"><path class="background" aria-hidden="true" d="M0,0h0v0h0Z" pointer-events="none"/><g><g class="mark-rule role-axis-grid" pointer-events="none"><line transform="translate(0,300)" x2="100" y2="0" stroke="#ddd" stroke-width="1" opacity="1"/><line transform="translate(0,246)" x2="100" y2="0" stroke="#ddd" stroke-width="1" opacity="1"/><line transform="translate(0,193)" x2="100" y2="0" stroke="#ddd" stroke-width="1" opacity="1"/><line transform="translate(0,139)" x2="100" y2="0" stroke="#ddd" stroke-width="1" opacity="1"/><line transform="translate(0,86)" x2="100" y2="0" stroke="#ddd" stroke-width="1" opacity="1"/><line transform="translate(0,32)" x2="100" y2="0" stroke="#ddd" stroke-width="1" opacity="1"/></g></g><path class="foreground" aria-hidden="true" d="" pointer-events="none" display="none"/></g></g><g class="mark-group role-axis" role="graphics-symbol" aria-roledescription="axis" aria-label="X-axis titled 'city' for a discrete scale with 5 values: Mountain View, Palo Alto, Redwood City, San Francisco, San Jose"><g transform="translate(0.5,300.5)"><path class="background" aria-hidden="true" d="M0,0h0v0h0Z" pointer-events="none"/><g><g class="mark-rule role-axis-tick" pointer-events="none"><line transform="translate(10,0)" x2="0" y2="5" stroke="#888" stroke-width="1" opacity="1"/><line transform="translate(30,0)" x2="0" y2="5" stroke="#888" stroke-width="1" opacity="1"/><line transform="translate(50,0)" x2="0" y2="5" stroke="#888" stroke-width="1" opacity="1"/><line transform="translate(70,0)" x2="0" y2="5" stroke="#888" stroke-width="1" opacity="1"/><line transform="translate(90,0)" x2="0" y2="5" stroke="#888" stroke-width="1" opacity="1"/></g><g class="mark-text role-axis-label" pointer-events="none"><text text-anchor="end" transform="translate(9.5,7) rotate(270) translate(0,3)" font-family="sans-serif" font-size="10px" fill="#000" opacity="1">Mountain View</text><text text-anchor="end" transform="translate(29.5,7) rotate(270) translate(0,3)" font-family="sans-serif" font-size="10px" fill="#000" opacity="1">Palo Alto</text><text text-anchor="end" transform="translate(49.5,7) rotate(270) translate(0,3)" font-family="sans-serif" font-size="10px" fill="#000" opacity="1">Redwood City</text><text text-anchor="end" transform="translate(69.5,7) rotate(270) translate(0,3)" font-family="sans-serif" font-size="10px" fill="#000" opacity="1">San Francisco</text><text text-anchor="end" transform="translate(89.5,7) rotate(270) translate(0,3)" font-family="sans-serif" font-size="10px" fill="#000" opacity="1">San Jose</text></g><g class="mark-rule role-axis-domain" pointer-events="none"><line transform="translate(0,0)" x2="100" y2="0" stroke="#888" stroke-width="1" opacity="1"/></g><g class="mark-text role-axis-title" pointer-events="none"><text text-anchor="middle" transform="translate(50,85.41015625)" font-family="sans-serif" font-size="11px" font-weight="bold" fill="#000" opacity="1">city</text></g></g><path class="foreground" aria-hidden="true" d="" pointer-events="none" display="none"/></g></g><g class="mark-group role-axis" role="graphics-symbol" aria-roledescription="axis" aria-label="Y-axis titled 'dock_count' for a linear scale with values from 0 to 28"><g transform="translate(0.5,0.5)"><path class="background" aria-hidden="true" d="M0,0h0v0h0Z" pointer-events="none"/><g><g class="mark-rule role-axis-tick" pointer-events="none"><line transform="translate(0,300)" x2="-5" y2="0" stroke="#888" stroke-width="1" opacity="1"/><line transform="translate(0,246)" x2="-5" y2="0" stroke="#888" stroke-width="1" opacity="1"/><line transform="translate(0,193)" x2="-5" y2="0" stroke="#888" stroke-width="1" opacity="1"/><line transform="translate(0,139)" x2="-5" y2="0" stroke="#888" stroke-width="1" opacity="1"/><line transform="translate(0,86)" x2="-5" y2="0" stroke="#888" stroke-width="1" opacity="1"/><line transform="translate(0,32)" x2="-5" y2="0" stroke="#888" stroke-width="1" opacity="1"/></g><g class="mark-text role-axis-label" pointer-events="none"><text text-anchor="end" transform="translate(-7,303)" font-family="sans-serif" font-size="10px" fill="#000" opacity="1">0</text><text text-anchor="end" transform="translate(-7,249.42857142857142)" font-family="sans-serif" font-size="10px" fill="#000" opacity="1">5</text><text text-anchor="end" transform="translate(-7,195.85714285714283)" font-family="sans-serif" font-size="10px" fill="#000" opacity="1">10</text><text text-anchor="end" transform="translate(-7,142.28571428571428)" font-family="sans-serif" font-size="10px" fill="#000" opacity="1">15</text><text text-anchor="end" transform="translate(-7,88.71428571428571)" font-family="sans-serif" font-size="10px" fill="#000" opacity="1">20</text><text text-anchor="end" transform="translate(-7,35.14285714285713)" font-family="sans-serif" font-size="10px" fill="#000" opacity="1">25</text></g><g class="mark-rule role-axis-domain" pointer-events="none"><line transform="translate(0,300)" x2="0" y2="-300" stroke="#888" stroke-width="1" opacity="1"/></g><g class="mark-text role-axis-title" pointer-events="none"><text text-anchor="middle" transform="translate(-22.123046875,150) rotate(-90) translate(0,-2)" font-family="sans-serif" font-size="11px" font-weight="bold" fill="#000" opacity="1">dock_count</text></g></g><path class="foreground" aria-hidden="true" d="" pointer-events="none" display="none"/></g></g><g class="mark-symbol role-mark layer_0_layer_0_marks" role="graphics-object" aria-roledescription="symbol mark container"><path aria-label="city: San Jose; dock_count: 27" role="graphics-symbol" aria-roledescription="point" transform="translate(90,10.71428571428571)" d="M2.739,0A2.739,2.739,0,1,1,-2.739,0A2.739,2.739,0,1,1,2.739,0" stroke="#4c78a8" stroke-width="2" opacity="0.7"/><path aria-label="city: Redwood City; dock_count: 25" role="graphics-symbol" aria-roledescription="point" transform="translate(50,32.14285714285713)" d="M2.739,0A2.739,2.739,0,1,1,-2.739,0A2.739,2.739,0,1,1,2.739,0" stroke="#4c78a8" stroke-width="2" opacity="0.7"/><path aria-label="city: Palo Alto; dock_count: 23" role="graphics-symbol" aria-roledescription="point" transform="translate(30,53.571428571428584)" d="M2.739,0A2.739,2.739,0,1,1,-2.739,0A2.739,2.739,0,1,1,2.739,0" stroke="#4c78a8" stroke-width="2" opacity="0.7"/></g><g class="mark-rule role-mark layer_0_layer_1_layer_0_marks" aria-hidden="true"><line transform="translate(90,182.14285714285717)" x2="0" y2="-42.85714285714289" stroke="black"/><line transform="translate(50,139.28571428571428)" x2="0" y2="0" stroke="black"/><line transform="translate(10,182.14285714285717)" x2="0" y2="-42.85714285714289" stroke="black"/><line transform="translate(30,182.14285714285717)" x2="0" y2="0" stroke="black"/><line transform="translate(70,139.28571428571428)" x2="0" y2="0" stroke="black"/></g><g class="mark-rule role-mark layer_0_layer_1_layer_1_marks" aria-hidden="true"><line transform="translate(90,96.42857142857142)" x2="0" y2="0" stroke="black"/><line transform="translate(50,139.28571428571428)" x2="0" y2="0" stroke="black"/><line transform="translate(10,96.42857142857142)" x2="0" y2="-42.85714285714283" stroke="black"/><line transform="translate(30,139.28571428571428)" x2="0" y2="0" stroke="black"/><line transform="translate(70,75)" x2="0" y2="-64.28571428571429" stroke="black"/></g><g class="mark-rect role-mark layer_1_layer_0_marks" role="graphics-object" aria-roledescription="rect mark container"><path aria-label="city: San Jose; dock_count: 15; upper_box_dock_count: 19; Max of dock_count: 27; Q3 of dock_count: 19; Median of dock_count: 15; Q1 of dock_count: 15; Min of dock_count: 11" role="graphics-symbol" aria-roledescription="box" d="M83,96.42857142857142h14v42.85714285714286h-14Z" fill="#4c78a8"/><path aria-label="city: Redwood City; dock_count: 15; upper_box_dock_count: 15; Max of dock_count: 25; Q3 of dock_count: 15; Median of dock_count: 15; Q1 of dock_count: 15; Min of dock_count: 15" role="graphics-symbol" aria-roledescription="box" d="M43,139.28571428571428h14v0h-14Z" fill="#4c78a8"/><path aria-label="city: Mountain View; dock_count: 15; upper_box_dock_count: 19; Max of dock_count: 23; Q3 of dock_count: 19; Median of dock_count: 15; Q1 of dock_count: 15; Min of dock_count: 11" role="graphics-symbol" aria-roledescription="box" d="M3,96.42857142857142h14v42.85714285714286h-14Z" fill="#4c78a8"/><path aria-label="city: Palo Alto; dock_count: 11; upper_box_dock_count: 15; Max of dock_count: 23; Q3 of dock_count: 15; Median of dock_count: 15; Q1 of dock_count: 11; Min of dock_count: 11" role="graphics-symbol" aria-roledescription="box" d="M23,139.28571428571428h14v42.85714285714289h-14Z" fill="#4c78a8"/><path aria-label="city: San Francisco; dock_count: 15; upper_box_dock_count: 21; Max of dock_count: 27; Q3 of dock_count: 21; Median of dock_count: 19; Q1 of dock_count: 15; Min of dock_count: 15" role="graphics-symbol" aria-roledescription="box" d="M63,75h14v64.28571428571428h-14Z" fill="#4c78a8"/></g><g class="mark-rect role-mark layer_1_layer_1_marks" aria-hidden="true"><path d="M83,138.78571428571428h14v1h-14Z" fill="white" opacity="0.7"/><path d="M43,138.78571428571428h14v1h-14Z" fill="white" opacity="0.7"/><path d="M3,138.78571428571428h14v1h-14Z" fill="white" opacity="0.7"/><path d="M23,138.78571428571428h14v1h-14Z" fill="white" opacity="0.7"/><path d="M63,95.92857142857142h14v1h-14Z" fill="white" opacity="0.7"/></g></g><path class="foreground" aria-hidden="true" d="" display="none"/></g></g></g></svg>