<svg xmlns="http://www.w3.org/2000/svg" xmlns:xlink="http://www.w3.org/1999/xlink" version="1.1" class="marks" width="183" height="413" viewBox="0 0 183 413"><rect width="183" height="413" fill="white"/><g fill="none" stroke-miterlimit="10" transform="translate(78,6)"><g class="mark-group role-frame root" role="graphics-object" aria-roledescription="group mark container"><g transform="translate(0,0)"><path class="background" aria-hidden="true" d="M0.5,0.5h100v300h-100Z" stroke="#ddd"/><g><g class="mark-group role-axis" aria-hidden="true"><g transform="translate(0.5,0.5)"><path class="background" aria-hidden="true" d="M0,0h0v0h0Z" pointer-events="none"/><g><g class="mark-rule role-axis-grid" pointer-events="none"><line transform="translate(0,300)" x2="100" y2="0" stroke="#ddd" stroke-width="1" opacity="1"/><line transform="translate(0,254)" x2="100" y2="0" stroke="#ddd" stroke-width="1" opacity="1"/><line transform="translate(0,208)" x2="100" y2="0" stroke="#ddd" stroke-width="1" opacity="1"/><line transform="translate(0,162)" x2="100" y2="0" stroke="#ddd" stroke-width="1" opacity="1"/><line transform="translate(0,115)" x2="100" y2="0" stroke="#ddd" stroke-width="1" opacity="1"/><line transform="translate(0,69)" x2="100" y2="0" stroke="#ddd" stroke-width="1" opacity="1"/><line transform="translate(0,23)" x2="100" y2="0" stroke="#ddd" stroke-width="1" opacity="1"/></g></g><path class="foreground" aria-hidden="true" d="" pointer-events="none" display="none"/></g></g><g class="mark-group role-axis" role="graphics-symbol" aria-roledescription="axis" aria-label="X-axis titled 'Publisher' for a discrete scale with 5 values: Bertelsmann, Pearson, Springer Nature, Thomson Reuters, Wiley"><g transform="translate(0.5,300.5)"><path class="background" aria-hidden="true" d="M0,0h0v0h0Z" pointer-events="none"/><g><g class="mark-rule role-axis-tick" pointer-events="none"><line transform="translate(10,0)" x2="0" y2="5" stroke="#888" stroke-width="1" opacity="1"/><line transform="translate(30,0)" x2="0" y2="5" stroke="#888" stroke-width="1" opacity="1"/><line transform="translate(50,0)" x2="0" y2="5" stroke="#888" stroke-width="1" opacity="1"/><line transform="translate(70,0)" x2="0" y2="5" stroke="#888" stroke-width="1" opacity="1"/><line transform="translate(90,0)" x2="0" y2="5" stroke="#888" stroke-width="1" opacity="1"/></g><g class="mark-text role-axis-label" pointer-events="none"><text text-anchor="end" transform="translate(9.5,7) rotate(270) translate(0,3)" font-family="sans-serif" font-size="10px" fill="#000" opacity="1">Bertelsmann</text><text text-anchor="end" transform="translate(29.5,7) rotate(270) translate(0,3)" font-family="sans-serif" font-size="10px" fill="#000" opacity="1">Pearson</text><text text-anchor="end" transform="translate(49.5,7) rotate(270) translate(0,3)" font-family="sans-serif" font-size="10px" fill="#000" opacity="1">Springer Nature</text><text text-anchor="end" transform="translate(69.5,7) rotate(270) translate(0,3)" font-family="sans-serif" font-size="10px" fill="#000" opacity="1">Thomson Reuters</text><text text-anchor="end" transform="translate(89.5,7) rotate(270) translate(0,3)" font-family="sans-serif" font-size="10px" fill="#000" opacity="1">Wiley</text></g><g class="mark-rule role-axis-domain" pointer-events="none"><line transform="translate(0,0)" x2="100" y2="0" stroke="#888" stroke-width="1" opacity="1"/></g><g class="mark-text role-axis-title" pointer-events="none"><text text-anchor="middle" transform="translate(50,99.4775390625)" font-family="sans-serif" font-size="11px" font-weight="bold" fill="#000" opacity="1">Publisher</text></g></g><path class="foreground" aria-hidden="true" d="" pointer-events="none" display="none"/></g></g><g class="mark-group role-axis" role="graphics-symbol" aria-roledescription="axis" aria-label="Y-axis titled 'Price' for a linear scale with values from 2,000,000 to 15,000,000"><g transform="translate(0.5,0.5)"><path class="background" aria-hidden="true" d="M0,0h0v0h0Z" pointer-events="none"/><g><g class="mark-rule role-axis-tick" pointer-events="none"><line transform="translate(0,300)" x2="-5" y2="0" stroke="#888" stroke-width="1" opacity="1"/><line transform="translate(0,254)" x2="-5" y2="0" stroke="#888" stroke-width="1" opacity="1"/><line transform="translate(0,208)" x2="-5" y2="0" stroke="#888" stroke-width="1" opacity="1"/><line transform="translate(0,162)" x2="-5" y2="0" stroke="#888" stroke-width="1" opacity="1"/><line transform="translate(0,115)" x2="-5" y2="0" stroke="#888" stroke-width="1" opacity="1"/><line transform="translate(0,69)" x2="-5" y2="0" stroke="#888" stroke-width="1" opacity="1"/><line transform="translate(0,23)" x2="-5" y2="0" stroke="#888" stroke-width="1" opacity="1"/></g><g class="mark-text role-axis-label" pointer-events="none"><text text-anchor="end" transform="translate(-7,303)" font-family="sans-serif" font-size="10px" fill="#000" opacity="1">2,000,000</text><text text-anchor="end" transform="translate(-7,256.8461538461538)" font-family="sans-serif" font-size="10px" fill="#000" opacity="1">4,000,000</text><text text-anchor="end" transform="translate(-7,210.69230769230768)" font-family="sans-serif" font-size="10px" fill="#000" opacity="1">6,000,000</text><text text-anchor="end" transform="translate(-7,164.53846153846152)" font-family="sans-serif" font-size="10px" fill="#000" opacity="1">8,000,000</text><text text-anchor="end" transform="translate(-7,118.38461538461537)" font-family="sans-serif" font-size="10px" fill="#000" opacity="1">10,000,000</text><text text-anchor="end" transform="translate(-7,72.23076923076921)" font-family="sans-serif" font-size="10px" fill="#000" opacity="1">12,000,000</text><text text-anchor="end" transform="translate(-7,26.076923076923062)" font-family="sans-serif" font-size="10px" fill="#000" opacity="1">14,000,000</text></g><g class="mark-rule role-axis-domain" pointer-events="none"><line transform="translate(0,300)" x2="0" y2="-300" stroke="#888" stroke-width="1" opacity="1"/></g><g class="mark-text role-axis-title" pointer-events="none"><text text-anchor="middle" transform="translate(-61.048828125,150) rotate(-90) translate(0,-2)" font-family="sans-serif" font-size="11px" font-weight="bold" fill="#000" opacity="1">Price</text></g></g><path class="foreground" aria-hidden="true" d="" pointer-events="none" display="none"/></g></g><g class="mark-symbol role-mark layer_0_layer_0_marks" role="graphics-symbol" aria-roledescription="symbol mark container"/><g class="mark-rule role-mark layer_0_layer_1_layer_0_marks" aria-hidden="true"><line transform="translate(30,300)" x2="0" y2="-75" stroke="black"/><line transform="translate(70,207.69230769230768)" x2="0" y2="0" stroke="black"/><line transform="translate(90,276.92307692307696)" x2="0" y2="-6.346153846153868" stroke="black"/><line transform="translate(50,276.92307692307696)" x2="0" y2="0" stroke="black"/><line transform="translate(10,300)" x2="0" y2="0" stroke="black"/></g><g class="mark-rule role-mark layer_0_layer_1_layer_1_marks" aria-hidden="true"><line transform="translate(30,75)" x2="0" y2="-75" stroke="black"/><line transform="translate(70,207.69230769230768)" x2="0" y2="0" stroke="black"/><line transform="translate(90,257.8846153846154)" x2="0" y2="-6.346153846153868" stroke="black"/><line transform="translate(50,276.92307692307696)" x2="0" y2="0" stroke="black"/><line transform="translate(10,300)" x2="0" y2="0" stroke="black"/></g><g class="mark-rect role-mark layer_1_layer_0_marks" role="graphics-object" aria-roledescription="rect mark container"><path aria-label="Publisher: Pearson; Price: 5250000; upper_box_Price: 11750000; Max of Price: 15000000; Q3 of Price: 11750000; Median of Price: 8500000; Q1 of Price: 5250000; Min of Price: 2000000" role="graphics-symbol" aria-roledescription="box" d="M23,75h14v150h-14Z" fill="#4c78a8"/><path aria-label="Publisher: Thomson Reuters; Price: 6000000; upper_box_Price: 6000000; Max of Price: 6000000; Q3 of Price: 6000000; Median of Price: 6000000; Q1 of Price: 6000000; Min of Price: 6000000" role="graphics-symbol" aria-roledescription="box" d="M63,207.69230769230768h14v0h-14Z" fill="#4c78a8"/><path aria-label="Publisher: Wiley; Price: 3275000; upper_box_Price: 3825000; Max of Price: 4100000; Q3 of Price: 3825000; Median of Price: 3550000; Q1 of Price: 3275000; Min of Price: 3000000" role="graphics-symbol" aria-roledescription="box" d="M83,257.8846153846154h14v12.69230769230768h-14Z" fill="#4c78a8"/><path aria-label="Publisher: Springer Nature; Price: 3000000; upper_box_Price: 3000000; Max of Price: 3000000; Q3 of Price: 3000000; Median of Price: 3000000; Q1 of Price: 3000000; Min of Price: 3000000" role="graphics-symbol" aria-roledescription="box" d="M43,276.92307692307696h14v0h-14Z" fill="#4c78a8"/><path aria-label="Publisher: Bertelsmann; Price: 2000000; upper_box_Price: 2000000; Max of Price: 2000000; Q3 of Price: 2000000; Median of Price: 2000000; Q1 of Price: 2000000; Min of Price: 2000000" role="graphics-symbol" aria-roledescription="box" d="M3,300h14v0h-14Z" fill="#4c78a8"/></g><g class="mark-rect role-mark layer_1_layer_1_marks" aria-hidden="true"><path d="M23,149.5h14v1h-14Z" fill="white" opacity="0.7"/><path d="M63,207.19230769230768h14v1h-14Z" fill="white" opacity="0.7"/><path d="M83,263.7307692307692h14v1h-14Z" fill="white" opacity="0.7"/><path d="M43,276.42307692307696h14v1h-14Z" fill="white" opacity="0.7"/><path d="M3,299.5h14v1h-14Z" fill="white" opacity="0.7"/></g></g><path class="foreground" aria-hidden="true" d="" display="none"/></g></g></g></svg>