<svg xmlns="http://www.w3.org/2000/svg" xmlns:xlink="http://www.w3.org/1999/xlink" version="1.1" class="marks" width="204" height="425" viewBox="0 0 204 425"><rect width="204" height="425" fill="white"/><g fill="none" stroke-miterlimit="10" transform="translate(39,10)"><g class="mark-group role-frame root" role="graphics-object" aria-roledescription="group mark container"><g transform="translate(0,0)"><path class="background" aria-hidden="true" d="M0.5,0.5h160v300h-160Z" stroke="#ddd"/><g><g class="mark-group role-axis" aria-hidden="true"><g transform="translate(0.5,0.5)"><path class="background" aria-hidden="true" d="M0,0h0v0h0Z" pointer-events="none"/><g><g class="mark-rule role-axis-grid" pointer-events="none"><line transform="translate(0,300)" x2="160" y2="0" stroke="#ddd" stroke-width="1" opacity="1"/><line transform="translate(0,250)" x2="160" y2="0" stroke="#ddd" stroke-width="1" opacity="1"/><line transform="translate(0,200)" x2="160" y2="0" stroke="#ddd" stroke-width="1" opacity="1"/><line transform="translate(0,150)" x2="160" y2="0" stroke="#ddd" stroke-width="1" opacity="1"/><line transform="translate(0,100)" x2="160" y2="0" stroke="#ddd" stroke-width="1" opacity="1"/><line transform="translate(0,50)" x2="160" y2="0" stroke="#ddd" stroke-width="1" opacity="1"/><line transform="translate(0,0)" x2="160" y2="0" stroke="#ddd" stroke-width="1" opacity="1"/></g></g><path class="foreground" aria-hidden="true" d="" pointer-events="none" display="none"/></g></g><g class="mark-group role-axis" role="graphics-symbol" aria-roledescription="axis" aria-label="X-axis titled 'Writer' for a discrete scale with 8 values: Christopher Hinz, Christopher Moeller, Dave Gibbons, Elaine Lee, Garth Ennis, ending with Timothy Truman"><g transform="translate(0.5,300.5)"><path class="background" aria-hidden="true" d="M0,0h0v0h0Z" pointer-events="none"/><g><g class="mark-rule role-axis-tick" pointer-events="none"><line transform="translate(10,0)" x2="0" y2="5" stroke="#888" stroke-width="1" opacity="1"/><line transform="translate(30,0)" x2="0" y2="5" stroke="#888" stroke-width="1" opacity="1"/><line transform="translate(50,0)" x2="0" y2="5" stroke="#888" stroke-width="1" opacity="1"/><line transform="translate(70,0)" x2="0" y2="5" stroke="#888" stroke-width="1" opacity="1"/><line transform="translate(90,0)" x2="0" y2="5" stroke="#888" stroke-width="1" opacity="1"/><line transform="translate(110,0)" x2="0" y2="5" stroke="#888" stroke-width="1" opacity="1"/><line transform="translate(130,0)" x2="0" y2="5" stroke="#888" stroke-width="1" opacity="1"/><line transform="translate(150,0)" x2="0" y2="5" stroke="#888" stroke-width="1" opacity="1"/></g><g class="mark-text role-axis-label" pointer-events="none"><text text-anchor="end" transform="translate(9.5,7) rotate(270) translate(0,3)" font-family="sans-serif" font-size="10px" fill="#000" opacity="1">Christopher Hinz</text><text text-anchor="end" transform="translate(29.5,7) rotate(270) translate(0,3)" font-family="sans-serif" font-size="10px" fill="#000" opacity="1">Christopher Moeller</text><text text-anchor="end" transform="translate(49.5,7) rotate(270) translate(0,3)" font-family="sans-serif" font-size="10px" fill="#000" opacity="1">Dave Gibbons</text><text text-anchor="end" transform="translate(69.5,7) rotate(270) translate(0,3)" font-family="sans-serif" font-size="10px" fill="#000" opacity="1">Elaine Lee</text><text text-anchor="end" transform="translate(89.5,7) rotate(270) translate(0,3)" font-family="sans-serif" font-size="10px" fill="#000" opacity="1">Garth Ennis</text><text text-anchor="end" transform="translate(109.5,7) rotate(270) translate(0,3)" font-family="sans-serif" font-size="10px" fill="#000" opacity="1">Howard Chaykin</text><text text-anchor="end" transform="translate(129.5,7) rotate(270) translate(0,3)" font-family="sans-serif" font-size="10px" fill="#000" opacity="1">Michael Moorcock</text><text text-anchor="end" transform="translate(149.5,7) rotate(270) translate(0,3)" font-family="sans-serif" font-size="10px" fill="#000" opacity="1">Timothy Truman</text></g><g class="mark-rule role-axis-domain" pointer-events="none"><line transform="translate(0,0)" x2="160" y2="0" stroke="#888" stroke-width="1" opacity="1"/></g><g class="mark-text role-axis-title" pointer-events="none"><text text-anchor="middle" transform="translate(80,107.255859375)" font-family="sans-serif" font-size="11px" font-weight="bold" fill="#000" opacity="1">Writer</text></g></g><path class="foreground" aria-hidden="true" d="" pointer-events="none" display="none"/></g></g><g class="mark-group role-axis" role="graphics-symbol" aria-roledescription="axis" aria-label="Y-axis titled 'Issues' for a linear scale with values from 0 to 12"><g transform="translate(0.5,0.5)"><path class="background" aria-hidden="true" d="M0,0h0v0h0Z" pointer-events="none"/><g><g class="mark-rule role-axis-tick" pointer-events="none"><line transform="translate(0,300)" x2="-5" y2="0" stroke="#888" stroke-width="1" opacity="1"/><line transform="translate(0,250)" x2="-5" y2="0" stroke="#888" stroke-width="1" opacity="1"/><line transform="translate(0,200)" x2="-5" y2="0" stroke="#888" stroke-width="1" opacity="1"/><line transform="translate(0,150)" x2="-5" y2="0" stroke="#888" stroke-width="1" opacity="1"/><line transform="translate(0,100)" x2="-5" y2="0" stroke="#888" stroke-width="1" opacity="1"/><line transform="translate(0,50)" x2="-5" y2="0" stroke="#888" stroke-width="1" opacity="1"/><line transform="translate(0,0)" x2="-5" y2="0" stroke="#888" stroke-width="1" opacity="1"/></g><g class="mark-text role-axis-label" pointer-events="none"><text text-anchor="end" transform="translate(-7,303)" font-family="sans-serif" font-size="10px" fill="#000" opacity="1">0</text><text text-anchor="end" transform="translate(-7,253)" font-family="sans-serif" font-size="10px" fill="#000" opacity="1">2</text><text text-anchor="end" transform="translate(-7,203.00000000000003)" font-family="sans-serif" font-size="10px" fill="#000" opacity="1">4</text><text text-anchor="end" transform="translate(-7,153)" font-family="sans-serif" font-size="10px" fill="#000" opacity="1">6</text><text text-anchor="end" transform="translate(-7,103.00000000000001)" font-family="sans-serif" font-size="10px" fill="#000" opacity="1">8</text><text text-anchor="end" transform="translate(-7,52.999999999999986)" font-family="sans-serif" font-size="10px" fill="#000" opacity="1">10</text><text text-anchor="end" transform="translate(-7,3)" font-family="sans-serif" font-size="10px" fill="#000" opacity="1">12</text></g><g class="mark-rule role-axis-domain" pointer-events="none"><line transform="translate(0,300)" x2="0" y2="-300" stroke="#888" stroke-width="1" opacity="1"/></g><g class="mark-text role-axis-title" pointer-events="none"><text text-anchor="middle" transform="translate(-22.123046875,150) rotate(-90) translate(0,-2)" font-family="sans-serif" font-size="11px" font-weight="bold" fill="#000" opacity="1">Issues</text></g></g><path class="foreground" aria-hidden="true" d="" pointer-events="none" display="none"/></g></g><g class="mark-symbol role-mark layer_0_layer_0_marks" role="graphics-symbol" aria-roledescription="symbol mark container"/><g class="mark-rule role-mark layer_0_layer_1_layer_0_marks" aria-hidden="true"><line transform="translate(150,150)" x2="0" y2="0" stroke="black"/><line transform="translate(90,200.00000000000003)" x2="0" y2="0" stroke="black"/><line transform="translate(70,150)" x2="0" y2="0" stroke="black"/><line transform="translate(110,0)" x2="0" y2="0" stroke="black"/><line transform="translate(10,200.00000000000003)" x2="0" y2="-31.25000000000003" stroke="black"/><line transform="translate(50,275)" x2="0" y2="0" stroke="black"/><line transform="translate(130,0)" x2="0" y2="0" stroke="black"/><line transform="translate(30,174.99999999999997)" x2="0" y2="0" stroke="black"/></g><g class="mark-rule role-mark layer_0_layer_1_layer_1_marks" aria-hidden="true"><line transform="translate(150,150)" x2="0" y2="0" stroke="black"/><line transform="translate(90,200.00000000000003)" x2="0" y2="0" stroke="black"/><line transform="translate(70,150)" x2="0" y2="0" stroke="black"/><line transform="translate(110,0)" x2="0" y2="0" stroke="black"/><line transform="translate(10,106.24999999999999)" x2="0" y2="-31.249999999999986" stroke="black"/><line transform="translate(50,275)" x2="0" y2="0" stroke="black"/><line transform="translate(130,0)" x2="0" y2="0" stroke="black"/><line transform="translate(30,174.99999999999997)" x2="0" y2="0" stroke="black"/></g><g class="mark-rect role-mark layer_1_layer_0_marks" role="graphics-object" aria-roledescription="rect mark container"><path aria-label="Writer: Timothy Truman; Issues: 6; upper_box_Issues: 6; Max of Issues: 6; Q3 of Issues: 6; Median of Issues: 6; Q1 of Issues: 6; Min of Issues: 6" role="graphics-symbol" aria-roledescription="box" d="M143,150h14v0h-14Z" fill="#4c78a8"/><path aria-label="Writer: Garth Ennis; Issues: 4; upper_box_Issues: 4; Max of Issues: 4; Q3 of Issues: 4; Median of Issues: 4; Q1 of Issues: 4; Min of Issues: 4" role="graphics-symbol" aria-roledescription="box" d="M83,200.00000000000003h14v0h-14Z" fill="#4c78a8"/><path aria-label="Writer: Elaine Lee; Issues: 6; upper_box_Issues: 6; Max of Issues: 6; Q3 of Issues: 6; Median of Issues: 6; Q1 of Issues: 6; Min of Issues: 6" role="graphics-symbol" aria-roledescription="box" d="M63,150h14v0h-14Z" fill="#4c78a8"/><path aria-label="Writer: Howard Chaykin; Issues: 12; upper_box_Issues: 12; Max of Issues: 12; Q3 of Issues: 12; Median of Issues: 12; Q1 of Issues: 12; Min of Issues: 12" role="graphics-symbol" aria-roledescription="box" d="M103,0h14v0h-14Z" fill="#4c78a8"/><path aria-label="Writer: Christopher Hinz; Issues: 5.25; upper_box_Issues: 7.75; Max of Issues: 9; Q3 of Issues: 7.75; Median of Issues: 6.5; Q1 of Issues: 5.25; Min of Issues: 4" role="graphics-symbol" aria-roledescription="box" d="M3,106.24999999999999h14v62.500000000000014h-14Z" fill="#4c78a8"/><path aria-label="Writer: Dave Gibbons; Issues: 1; upper_box_Issues: 1; Max of Issues: 1; Q3 of Issues: 1; Median of Issues: 1; Q1 of Issues: 1; Min of Issues: 1" role="graphics-symbol" aria-roledescription="box" d="M43,275h14v0h-14Z" fill="#4c78a8"/><path aria-label="Writer: Michael Moorcock; Issues: 12; upper_box_Issues: 12; Max of Issues: 12; Q3 of Issues: 12; Median of Issues: 12; Q1 of Issues: 12; Min of Issues: 12" role="graphics-symbol" aria-roledescription="box" d="M123,0h14v0h-14Z" fill="#4c78a8"/><path aria-label="Writer: Christopher Moeller; Issues: 5; upper_box_Issues: 5; Max of Issues: 5; Q3 of Issues: 5; Median of Issues: 5; Q1 of Issues: 5; Min of Issues: 5" role="graphics-symbol" aria-roledescription="box" d="M23,174.99999999999997h14v0h-14Z" fill="#4c78a8"/></g><g class="mark-rect role-mark layer_1_layer_1_marks" aria-hidden="true"><path d="M143,149.5h14v1h-14Z" fill="white" opacity="0.7"/><path d="M83,199.50000000000003h14v1h-14Z" fill="white" opacity="0.7"/><path d="M63,149.5h14v1h-14Z" fill="white" opacity="0.7"/><path d="M103,-0.5h14v1h-14Z" fill="white" opacity="0.7"/><path d="M3,137h14v1h-14Z" fill="white" opacity="0.7"/><path d="M43,274.5h14v1h-14Z" fill="white" opacity="0.7"/><path d="M123,-0.5h14v1h-14Z" fill="white" opacity="0.7"/><path d="M23,174.49999999999997h14v1h-14Z" fill="white" opacity="0.7"/></g></g><path class="foreground" aria-hidden="true" d="" display="none"/></g></g></g></svg>