<svg xmlns="http://www.w3.org/2000/svg" xmlns:xlink="http://www.w3.org/1999/xlink" version="1.1" class="marks" width="144" height="339" viewBox="0 0 144 339"><rect width="144" height="339" fill="white"/><g fill="none" stroke-miterlimit="10" transform="translate(39,6)"><g class="mark-group role-frame root" role="graphics-object" aria-roledescription="group mark container"><g transform="translate(0,0)"><path class="background" aria-hidden="true" d="M0.5,0.5h100v300h-100Z" stroke="#ddd"/><g><g class="mark-group role-axis" aria-hidden="true"><g transform="translate(0.5,0.5)"><path class="background" aria-hidden="true" d="M0,0h0v0h0Z" pointer-events="none"/><g><g class="mark-rule role-axis-grid" pointer-events="none"><line transform="translate(0,279)" x2="100" y2="0" stroke="#ddd" stroke-width="1" opacity="1"/><line transform="translate(0,236)" x2="100" y2="0" stroke="#ddd" stroke-width="1" opacity="1"/><line transform="translate(0,193)" x2="100" y2="0" stroke="#ddd" stroke-width="1" opacity="1"/><line transform="translate(0,150)" x2="100" y2="0" stroke="#ddd" stroke-width="1" opacity="1"/><line transform="translate(0,107)" x2="100" y2="0" stroke="#ddd" stroke-width="1" opacity="1"/><line transform="translate(0,64)" x2="100" y2="0" stroke="#ddd" stroke-width="1" opacity="1"/><line transform="translate(0,21)" x2="100" y2="0" stroke="#ddd" stroke-width="1" opacity="1"/></g></g><path class="foreground" aria-hidden="true" d="" pointer-events="none" display="none"/></g></g><g class="mark-group role-axis" role="graphics-symbol" aria-roledescription="axis" aria-label="X-axis titled 'Mountain_ID' for a discrete scale with 5 values: 1, 2, 3, 5, 7"><g transform="translate(0.5,300.5)"><path class="background" aria-hidden="true" d="M0,0h0v0h0Z" pointer-events="none"/><g><g class="mark-rule role-axis-tick" pointer-events="none"><line transform="translate(10,0)" x2="0" y2="5" stroke="#888" stroke-width="1" opacity="1"/><line transform="translate(30,0)" x2="0" y2="5" stroke="#888" stroke-width="1" opacity="1"/><line transform="translate(50,0)" x2="0" y2="5" stroke="#888" stroke-width="1" opacity="1"/><line transform="translate(70,0)" x2="0" y2="5" stroke="#888" stroke-width="1" opacity="1"/><line transform="translate(90,0)" x2="0" y2="5" stroke="#888" stroke-width="1" opacity="1"/></g><g class="mark-text role-axis-label" pointer-events="none"><text text-anchor="end" transform="translate(9.5,7) rotate(270) translate(0,3)" font-family="sans-serif" font-size="10px" fill="#000" opacity="1">1</text><text text-anchor="end" transform="translate(29.5,7) rotate(270) translate(0,3)" font-family="sans-serif" font-size="10px" fill="#000" opacity="1">2</text><text text-anchor="end" transform="translate(49.5,7) rotate(270) translate(0,3)" font-family="sans-serif" font-size="10px" fill="#000" opacity="1">3</text><text text-anchor="end" transform="translate(69.5,7) rotate(270) translate(0,3)" font-family="sans-serif" font-size="10px" fill="#000" opacity="1">5</text><text text-anchor="end" transform="translate(89.5,7) rotate(270) translate(0,3)" font-family="sans-serif" font-size="10px" fill="#000" opacity="1">7</text></g><g class="mark-rule role-axis-domain" pointer-events="none"><line transform="translate(0,0)" x2="100" y2="0" stroke="#888" stroke-width="1" opacity="1"/></g><g class="mark-text role-axis-title" pointer-events="none"><text text-anchor="middle" transform="translate(50,25.5615234375)" font-family="sans-serif" font-size="11px" font-weight="bold" fill="#000" opacity="1">Mountain_ID</text></g></g><path class="foreground" aria-hidden="true" d="" pointer-events="none" display="none"/></g></g><g class="mark-group role-axis" role="graphics-symbol" aria-roledescription="axis" aria-label="Y-axis titled 'Points' for a linear scale with values from 1 to 15"><g transform="translate(0.5,0.5)"><path class="background" aria-hidden="true" d="M0,0h0v0h0Z" pointer-events="none"/><g><g class="mark-rule role-axis-tick" pointer-events="none"><line transform="translate(0,279)" x2="-5" y2="0" stroke="#888" stroke-width="1" opacity="1"/><line transform="translate(0,236)" x2="-5" y2="0" stroke="#888" stroke-width="1" opacity="1"/><line transform="translate(0,193)" x2="-5" y2="0" stroke="#888" stroke-width="1" opacity="1"/><line transform="translate(0,150)" x2="-5" y2="0" stroke="#888" stroke-width="1" opacity="1"/><line transform="translate(0,107)" x2="-5" y2="0" stroke="#888" stroke-width="1" opacity="1"/><line transform="translate(0,64)" x2="-5" y2="0" stroke="#888" stroke-width="1" opacity="1"/><line transform="translate(0,21)" x2="-5" y2="0" stroke="#888" stroke-width="1" opacity="1"/></g><g class="mark-text role-axis-label" pointer-events="none"><text text-anchor="end" transform="translate(-7,281.57142857142856)" font-family="sans-serif" font-size="10px" fill="#000" opacity="1">2</text><text text-anchor="end" transform="translate(-7,238.71428571428572)" font-family="sans-serif" font-size="10px" fill="#000" opacity="1">4</text><text text-anchor="end" transform="translate(-7,195.85714285714283)" font-family="sans-serif" font-size="10px" fill="#000" opacity="1">6</text><text text-anchor="end" transform="translate(-7,153)" font-family="sans-serif" font-size="10px" fill="#000" opacity="1">8</text><text text-anchor="end" transform="translate(-7,110.14285714285712)" font-family="sans-serif" font-size="10px" fill="#000" opacity="1">10</text><text text-anchor="end" transform="translate(-7,67.28571428571429)" font-family="sans-serif" font-size="10px" fill="#000" opacity="1">12</text><text text-anchor="end" transform="translate(-7,24.42857142857142)" font-family="sans-serif" font-size="10px" fill="#000" opacity="1">14</text></g><g class="mark-rule role-axis-domain" pointer-events="none"><line transform="translate(0,300)" x2="0" y2="-300" stroke="#888" stroke-width="1" opacity="1"/></g><g class="mark-text role-axis-title" pointer-events="none"><text text-anchor="middle" transform="translate(-22.123046875,150) rotate(-90) translate(0,-2)" font-family="sans-serif" font-size="11px" font-weight="bold" fill="#000" opacity="1">Points</text></g></g><path class="foreground" aria-hidden="true" d="" pointer-events="none" display="none"/></g></g><g class="mark-symbol role-mark layer_0_layer_0_marks" role="graphics-symbol" aria-roledescription="symbol mark container"/><g class="mark-rule role-mark layer_0_layer_1_layer_0_marks" aria-hidden="true"><line transform="translate(10,64.28571428571429)" x2="0" y2="-16.071428571428584" stroke="black"/><line transform="translate(30,192.85714285714283)" x2="0" y2="-21.428571428571416" stroke="black"/><line transform="translate(50,214.28571428571428)" x2="0" y2="0" stroke="black"/><line transform="translate(70,257.14285714285717)" x2="0" y2="-5.35714285714289" stroke="black"/><line transform="translate(90,300)" x2="0" y2="-5.35714285714289" stroke="black"/></g><g class="mark-rule role-mark layer_0_layer_1_layer_1_marks" aria-hidden="true"><line transform="translate(10,16.07142857142858)" x2="0" y2="-16.07142857142858" stroke="black"/><line transform="translate(30,128.57142857142858)" x2="0" y2="-21.42857142857146" stroke="black"/><line transform="translate(50,214.28571428571428)" x2="0" y2="0" stroke="black"/><line transform="translate(70,241.07142857142858)" x2="0" y2="-5.357142857142861" stroke="black"/><line transform="translate(90,283.92857142857144)" x2="0" y2="-5.35714285714289" stroke="black"/></g><g class="mark-rect role-mark layer_1_layer_0_marks" role="graphics-object" aria-roledescription="rect mark container"><path aria-label="Mountain_ID: 1; Points: 12.75; upper_box_Points: 14.25; Max of Points: 15; Q3 of Points: 14.25; Median of Points: 13.5; Q1 of Points: 12.75; Min of Points: 12" role="graphics-symbol" aria-roledescription="box" d="M3,16.07142857142858h14v32.142857142857125h-14Z" fill="#4c78a8"/><path aria-label="Mountain_ID: 2; Points: 7; upper_box_Points: 9; Max of Points: 10; Q3 of Points: 9; Median of Points: 8; Q1 of Points: 7; Min of Points: 6" role="graphics-symbol" aria-roledescription="box" d="M23,128.57142857142858h14v42.85714285714283h-14Z" fill="#4c78a8"/><path aria-label="Mountain_ID: 3; Points: 5; upper_box_Points: 5; Max of Points: 5; Q3 of Points: 5; Median of Points: 5; Q1 of Points: 5; Min of Points: 5" role="graphics-symbol" aria-roledescription="box" d="M43,214.28571428571428h14v0h-14Z" fill="#4c78a8"/><path aria-label="Mountain_ID: 5; Points: 3.25; upper_box_Points: 3.75; Max of Points: 4; Q3 of Points: 3.75; Median of Points: 3.5; Q1 of Points: 3.25; Min of Points: 3" role="graphics-symbol" aria-roledescription="box" d="M63,241.07142857142858h14v10.714285714285694h-14Z" fill="#4c78a8"/><path aria-label="Mountain_ID: 7; Points: 1.25; upper_box_Points: 1.75; Max of Points: 2; Q3 of Points: 1.75; Median of Points: 1.5; Q1 of Points: 1.25; Min of Points: 1" role="graphics-symbol" aria-roledescription="box" d="M83,283.92857142857144h14v10.714285714285666h-14Z" fill="#4c78a8"/></g><g class="mark-rect role-mark layer_1_layer_1_marks" aria-hidden="true"><path d="M3,31.64285714285713h14v1h-14Z" fill="white" opacity="0.7"/><path d="M23,149.5h14v1h-14Z" fill="white" opacity="0.7"/><path d="M43,213.78571428571428h14v1h-14Z" fill="white" opacity="0.7"/><path d="M63,245.92857142857142h14v1h-14Z" fill="white" opacity="0.7"/><path d="M83,288.7857142857143h14v1h-14Z" fill="white" opacity="0.7"/></g></g><path class="foreground" aria-hidden="true" d="" display="none"/></g></g></g></svg>