<svg xmlns="http://www.w3.org/2000/svg" xmlns:xlink="http://www.w3.org/1999/xlink" version="1.1" class="marks" width="134" height="356" viewBox="0 0 134 356"><rect width="134" height="356" fill="white"/><g fill="none" stroke-miterlimit="10" transform="translate(47,11)"><g class="mark-group role-frame root" role="graphics-object" aria-roledescription="group mark container"><g transform="translate(0,0)"><path class="background" aria-hidden="true" d="M0.5,0.5h80v300h-80Z" stroke="#ddd"/><g><g class="mark-group role-axis" aria-hidden="true"><g transform="translate(0.5,0.5)"><path class="background" aria-hidden="true" d="M0,0h0v0h0Z" pointer-events="none"/><g><g class="mark-rule role-axis-grid" pointer-events="none"><line transform="translate(0,300)" x2="80" y2="0" stroke="#ddd" stroke-width="1" opacity="1"/><line transform="translate(0,263)" x2="80" y2="0" stroke="#ddd" stroke-width="1" opacity="1"/><line transform="translate(0,225)" x2="80" y2="0" stroke="#ddd" stroke-width="1" opacity="1"/><line transform="translate(0,188)" x2="80" y2="0" stroke="#ddd" stroke-width="1" opacity="1"/><line transform="translate(0,150)" x2="80" y2="0" stroke="#ddd" stroke-width="1" opacity="1"/><line transform="translate(0,113)" x2="80" y2="0" stroke="#ddd" stroke-width="1" opacity="1"/><line transform="translate(0,75)" x2="80" y2="0" stroke="#ddd" stroke-width="1" opacity="1"/><line transform="translate(0,38)" x2="80" y2="0" stroke="#ddd" stroke-width="1" opacity="1"/><line transform="translate(0,0)" x2="80" y2="0" stroke="#ddd" stroke-width="1" opacity="1"/></g></g><path class="foreground" aria-hidden="true" d="" pointer-events="none" display="none"/></g></g><g class="mark-group role-axis" role="graphics-symbol" aria-roledescription="axis" aria-label="X-axis titled 'STU_CLASS' for a discrete scale with 4 values: Fr, Jr, So, Sr"><g transform="translate(0.5,300.5)"><path class="background" aria-hidden="true" d="M0,0h0v0h0Z" pointer-events="none"/><g><g class="mark-rule role-axis-tick" pointer-events="none"><line transform="translate(10,0)" x2="0" y2="5" stroke="#888" stroke-width="1" opacity="1"/><line transform="translate(30,0)" x2="0" y2="5" stroke="#888" stroke-width="1" opacity="1"/><line transform="translate(50,0)" x2="0" y2="5" stroke="#888" stroke-width="1" opacity="1"/><line transform="translate(70,0)" x2="0" y2="5" stroke="#888" stroke-width="1" opacity="1"/></g><g class="mark-text role-axis-label" pointer-events="none"><text text-anchor="end" transform="translate(9.5,7) rotate(270) translate(0,4)" font-family="sans-serif" font-size="12px" fill="#000" opacity="1">Fr</text><text text-anchor="end" transform="translate(29.5,7) rotate(270) translate(0,4)" font-family="sans-serif" font-size="12px" fill="#000" opacity="1">Jr</text><text text-anchor="end" transform="translate(49.5,7) rotate(270) translate(0,4)" font-family="sans-serif" font-size="12px" fill="#000" opacity="1">So</text><text text-anchor="end" transform="translate(69.5,7) rotate(270) translate(0,4)" font-family="sans-serif" font-size="12px" fill="#000" opacity="1">Sr</text></g><g class="mark-rule role-axis-domain" pointer-events="none"><line transform="translate(0,0)" x2="80" y2="0" stroke="#888" stroke-width="1" opacity="1"/></g><g class="mark-text role-axis-title" pointer-events="none"><text text-anchor="middle" transform="translate(40,36.677734375)" font-family="sans-serif" font-size="14px" font-weight="bold" fill="#000" opacity="1">STU_CLASS</text></g></g><path class="foreground" aria-hidden="true" d="" pointer-events="none" display="none"/></g></g><g class="mark-group role-axis" role="graphics-symbol" aria-roledescription="axis" aria-label="Y-axis titled 'STU_GPA' for a linear scale with values from 0 to 4"><g transform="translate(0.5,0.5)"><path class="background" aria-hidden="true" d="M0,0h0v0h0Z" pointer-events="none"/><g><g class="mark-rule role-axis-tick" pointer-events="none"><line transform="translate(0,300)" x2="-5" y2="0" stroke="#888" stroke-width="1" opacity="1"/><line transform="translate(0,263)" x2="-5" y2="0" stroke="#888" stroke-width="1" opacity="1"/><line transform="translate(0,225)" x2="-5" y2="0" stroke="#888" stroke-width="1" opacity="1"/><line transform="translate(0,188)" x2="-5" y2="0" stroke="#888" stroke-width="1" opacity="1"/><line transform="translate(0,150)" x2="-5" y2="0" stroke="#888" stroke-width="1" opacity="1"/><line transform="translate(0,113)" x2="-5" y2="0" stroke="#888" stroke-width="1" opacity="1"/><line transform="translate(0,75)" x2="-5" y2="0" stroke="#888" stroke-width="1" opacity="1"/><line transform="translate(0,38)" x2="-5" y2="0" stroke="#888" stroke-width="1" opacity="1"/><line transform="translate(0,0)" x2="-5" y2="0" stroke="#888" stroke-width="1" opacity="1"/></g><g class="mark-text role-axis-label" pointer-events="none"><text text-anchor="end" transform="translate(-7,304)" font-family="sans-serif" font-size="12px" fill="#000" opacity="1">0.0</text><text text-anchor="end" transform="translate(-7,266.5)" font-family="sans-serif" font-size="12px" fill="#000" opacity="1">0.5</text><text text-anchor="end" transform="translate(-7,229)" font-family="sans-serif" font-size="12px" fill="#000" opacity="1">1.0</text><text text-anchor="end" transform="translate(-7,191.5)" font-family="sans-serif" font-size="12px" fill="#000" opacity="1">1.5</text><text text-anchor="end" transform="translate(-7,154)" font-family="sans-serif" font-size="12px" fill="#000" opacity="1">2.0</text><text text-anchor="end" transform="translate(-7,116.5)" font-family="sans-serif" font-size="12px" fill="#000" opacity="1">2.5</text><text text-anchor="end" transform="translate(-7,79)" font-family="sans-serif" font-size="12px" fill="#000" opacity="1">3.0</text><text text-anchor="end" transform="translate(-7,41.5)" font-family="sans-serif" font-size="12px" fill="#000" opacity="1">3.5</text><text text-anchor="end" transform="translate(-7,4)" font-family="sans-serif" font-size="12px" fill="#000" opacity="1">4.0</text></g><g class="mark-rule role-axis-domain" pointer-events="none"><line transform="translate(0,300)" x2="0" y2="-300" stroke="#888" stroke-width="1" opacity="1"/></g><g class="mark-text role-axis-title" pointer-events="none"><text text-anchor="middle" transform="translate(-27.681640625,150) rotate(-90) translate(0,-3)" font-family="sans-serif" font-size="14px" font-weight="bold" fill="#000" opacity="1">STU_GPA</text></g></g><path class="foreground" aria-hidden="true" d="" pointer-events="none" display="none"/></g></g><g class="mark-symbol role-mark layer_0_layer_0_marks" role="graphics-symbol" aria-roledescription="symbol mark container"/><g class="mark-rule role-mark layer_0_layer_1_layer_0_marks" aria-hidden="true"><line transform="translate(50,130.50000000000003)" x2="0" y2="-10.875000000000014" stroke="black"/><line transform="translate(30,68.25000000000001)" x2="0" y2="-3.375" stroke="black"/><line transform="translate(70,141.75)" x2="0" y2="-38.999999999999986" stroke="black"/><line transform="translate(10,81)" x2="0" y2="0" stroke="black"/></g><g class="mark-rule role-mark layer_0_layer_1_layer_1_marks" aria-hidden="true"><line transform="translate(50,97.87500000000001)" x2="0" y2="-10.875" stroke="black"/><line transform="translate(30,58.12499999999999)" x2="0" y2="-3.374999999999993" stroke="black"/><line transform="translate(70,36.750000000000014)" x2="0" y2="-27.00000000000002" stroke="black"/><line transform="translate(10,81)" x2="0" y2="0" stroke="black"/></g><g class="mark-rect role-mark layer_1_layer_0_marks" role="graphics-object" aria-roledescription="rect mark container"><path aria-label="STU_CLASS: So; STU_GPA: 2.405; upper_box_STU_GPA: 2.695; Max of STU_GPA: 2.84; Q3 of STU_GPA: 2.695; Median of STU_GPA: 2.55; Q1 of STU_GPA: 2.405; Min of STU_GPA: 2.26" role="graphics-symbol" aria-roledescription="box" d="M43,97.87500000000001h14v21.75h-14Z" fill="#4c78a8"/><path aria-label="STU_CLASS: Jr; STU_GPA: 3.135; upper_box_STU_GPA: 3.225; Max of STU_GPA: 3.27; Q3 of STU_GPA: 3.225; Median of STU_GPA: 3.18; Q1 of STU_GPA: 3.135; Min of STU_GPA: 3.09" role="graphics-symbol" aria-roledescription="box" d="M23,58.12499999999999h14v6.750000000000021h-14Z" fill="#4c78a8"/><path aria-label="STU_CLASS: Sr; STU_GPA: 2.63; upper_box_STU_GPA: 3.51; Max of STU_GPA: 3.87; Q3 of STU_GPA: 3.51; Median of STU_GPA: 3.15; Q1 of STU_GPA: 2.63; Min of STU_GPA: 2.11" role="graphics-symbol" aria-roledescription="box" d="M63,36.750000000000014h14v66h-14Z" fill="#4c78a8"/><path aria-label="STU_CLASS: Fr; STU_GPA: 2.92; upper_box_STU_GPA: 2.92; Max of STU_GPA: 2.92; Q3 of STU_GPA: 2.92; Median of STU_GPA: 2.92; Q1 of STU_GPA: 2.92; Min of STU_GPA: 2.92" role="graphics-symbol" aria-roledescription="box" d="M3,81h14v0h-14Z" fill="#4c78a8"/></g><g class="mark-rect role-mark layer_1_layer_1_marks" aria-hidden="true"><path d="M43,108.25000000000001h14v1h-14Z" fill="white" opacity="0.7"/><path d="M23,61.00000000000002h14v1h-14Z" fill="white" opacity="0.7"/><path d="M63,63.25000000000001h14v1h-14Z" fill="white" opacity="0.7"/><path d="M3,80.5h14v1h-14Z" fill="white" opacity="0.7"/></g></g><path class="foreground" aria-hidden="true" d="" display="none"/></g></g></g></svg>