<svg xmlns="http://www.w3.org/2000/svg" xmlns:xlink="http://www.w3.org/1999/xlink" version="1.1" class="marks" width="195" height="339" viewBox="0 0 195 339"><rect width="195" height="339" fill="white"/><g fill="none" stroke-miterlimit="10" transform="translate(50,6)"><g class="mark-group role-frame root" role="graphics-object" aria-roledescription="group mark container"><g transform="translate(0,0)"><path class="background" aria-hidden="true" d="M0.5,0.5h140v300h-140Z" stroke="#ddd"/><g><g class="mark-group role-axis" aria-hidden="true"><g transform="translate(0.5,0.5)"><path class="background" aria-hidden="true" d="M0,0h0v0h0Z" pointer-events="none"/><g><g class="mark-rule role-axis-grid" pointer-events="none"><line transform="translate(0,282)" x2="140" y2="0" stroke="#ddd" stroke-width="1" opacity="1"/><line transform="translate(0,248)" x2="140" y2="0" stroke="#ddd" stroke-width="1" opacity="1"/><line transform="translate(0,215)" x2="140" y2="0" stroke="#ddd" stroke-width="1" opacity="1"/><line transform="translate(0,181)" x2="140" y2="0" stroke="#ddd" stroke-width="1" opacity="1"/><line transform="translate(0,148)" x2="140" y2="0" stroke="#ddd" stroke-width="1" opacity="1"/><line transform="translate(0,114)" x2="140" y2="0" stroke="#ddd" stroke-width="1" opacity="1"/><line transform="translate(0,81)" x2="140" y2="0" stroke="#ddd" stroke-width="1" opacity="1"/><line transform="translate(0,47)" x2="140" y2="0" stroke="#ddd" stroke-width="1" opacity="1"/><line transform="translate(0,14)" x2="140" y2="0" stroke="#ddd" stroke-width="1" opacity="1"/></g></g><path class="foreground" aria-hidden="true" d="" pointer-events="none" display="none"/></g></g><g class="mark-group role-axis" role="graphics-symbol" aria-roledescription="axis" aria-label="X-axis titled 'Day_Number' for a discrete scale with 7 values: 1, 2, 3, 5, 7, 8, 9"><g transform="translate(0.5,300.5)"><path class="background" aria-hidden="true" d="M0,0h0v0h0Z" pointer-events="none"/><g><g class="mark-rule role-axis-tick" pointer-events="none"><line transform="translate(10,0)" x2="0" y2="5" stroke="#888" stroke-width="1" opacity="1"/><line transform="translate(30,0)" x2="0" y2="5" stroke="#888" stroke-width="1" opacity="1"/><line transform="translate(50,0)" x2="0" y2="5" stroke="#888" stroke-width="1" opacity="1"/><line transform="translate(70,0)" x2="0" y2="5" stroke="#888" stroke-width="1" opacity="1"/><line transform="translate(90,0)" x2="0" y2="5" stroke="#888" stroke-width="1" opacity="1"/><line transform="translate(110,0)" x2="0" y2="5" stroke="#888" stroke-width="1" opacity="1"/><line transform="translate(130,0)" x2="0" y2="5" stroke="#888" stroke-width="1" opacity="1"/></g><g class="mark-text role-axis-label" pointer-events="none"><text text-anchor="end" transform="translate(9.5,7) rotate(270) translate(0,3)" font-family="sans-serif" font-size="10px" fill="#000" opacity="1">1</text><text text-anchor="end" transform="translate(29.5,7) rotate(270) translate(0,3)" font-family="sans-serif" font-size="10px" fill="#000" opacity="1">2</text><text text-anchor="end" transform="translate(49.5,7) rotate(270) translate(0,3)" font-family="sans-serif" font-size="10px" fill="#000" opacity="1">3</text><text text-anchor="end" transform="translate(69.5,7) rotate(270) translate(0,3)" font-family="sans-serif" font-size="10px" fill="#000" opacity="1">5</text><text text-anchor="end" transform="translate(89.5,7) rotate(270) translate(0,3)" font-family="sans-serif" font-size="10px" fill="#000" opacity="1">7</text><text text-anchor="end" transform="translate(109.5,7) rotate(270) translate(0,3)" font-family="sans-serif" font-size="10px" fill="#000" opacity="1">8</text><text text-anchor="end" transform="translate(129.5,7) rotate(270) translate(0,3)" font-family="sans-serif" font-size="10px" fill="#000" opacity="1">9</text></g><g class="mark-rule role-axis-domain" pointer-events="none"><line transform="translate(0,0)" x2="140" y2="0" stroke="#888" stroke-width="1" opacity="1"/></g><g class="mark-text role-axis-title" pointer-events="none"><text text-anchor="middle" transform="translate(70,25.5615234375)" font-family="sans-serif" font-size="11px" font-weight="bold" fill="#000" opacity="1">Day_Number</text></g></g><path class="foreground" aria-hidden="true" d="" pointer-events="none" display="none"/></g></g><g class="mark-group role-axis" role="graphics-symbol" aria-roledescription="axis" aria-label="Y-axis titled 'Calendar_Date' for a time scale with values from Friday, 31 March 1972, 9:47:22 AM to Friday, 06 January 2017, 11:17:22 PM"><g transform="translate(0.5,0.5)"><path class="background" aria-hidden="true" d="M0,0h0v0h0Z" pointer-events="none"/><g><g class="mark-rule role-axis-tick" pointer-events="none"><line transform="translate(0,282)" x2="-5" y2="0" stroke="#888" stroke-width="1" opacity="1"/><line transform="translate(0,248)" x2="-5" y2="0" stroke="#888" stroke-width="1" opacity="1"/><line transform="translate(0,215)" x2="-5" y2="0" stroke="#888" stroke-width="1" opacity="1"/><line transform="translate(0,181)" x2="-5" y2="0" stroke="#888" stroke-width="1" opacity="1"/><line transform="translate(0,148)" x2="-5" y2="0" stroke="#888" stroke-width="1" opacity="1"/><line transform="translate(0,114)" x2="-5" y2="0" stroke="#888" stroke-width="1" opacity="1"/><line transform="translate(0,81)" x2="-5" y2="0" stroke="#888" stroke-width="1" opacity="1"/><line transform="translate(0,47)" x2="-5" y2="0" stroke="#888" stroke-width="1" opacity="1"/><line transform="translate(0,14)" x2="-5" y2="0" stroke="#888" stroke-width="1" opacity="1"/></g><g class="mark-text role-axis-label" pointer-events="none"><text text-anchor="end" transform="translate(-7,284.5516600566765)" font-family="sans-serif" font-size="10px" fill="#000" opacity="1">1975</text><text text-anchor="end" transform="translate(-7,251.05232317904643)" font-family="sans-serif" font-size="10px" fill="#000" opacity="1">1980</text><text text-anchor="end" transform="translate(-7,217.53464055285255)" font-family="sans-serif" font-size="10px" fill="#000" opacity="1">1985</text><text text-anchor="end" transform="translate(-7,184.0353036752225)" font-family="sans-serif" font-size="10px" fill="#000" opacity="1">1990</text><text text-anchor="end" transform="translate(-7,150.53596679759247)" font-family="sans-serif" font-size="10px" fill="#000" opacity="1">1995</text><text text-anchor="end" transform="translate(-7,117.03662991996242)" font-family="sans-serif" font-size="10px" fill="#000" opacity="1">2000</text><text text-anchor="end" transform="translate(-7,83.5189472937685)" font-family="sans-serif" font-size="10px" fill="#000" opacity="1">2005</text><text text-anchor="end" transform="translate(-7,50.01961041613848)" font-family="sans-serif" font-size="10px" fill="#000" opacity="1">2010</text><text text-anchor="end" transform="translate(-7,16.520273538508455)" font-family="sans-serif" font-size="10px" fill="#000" opacity="1">2015</text></g><g class="mark-rule role-axis-domain" pointer-events="none"><line transform="translate(0,300)" x2="0" y2="-300" stroke="#888" stroke-width="1" opacity="1"/></g><g class="mark-text role-axis-title" pointer-events="none"><text text-anchor="middle" transform="translate(-33.24609375,150) rotate(-90) translate(0,-2)" font-family="sans-serif" font-size="11px" font-weight="bold" fill="#000" opacity="1">Calendar_Date</text></g></g><path class="foreground" aria-hidden="true" d="" pointer-events="none" display="none"/></g></g><g class="mark-symbol role-mark layer_0_layer_0_marks" role="graphics-symbol" aria-roledescription="symbol mark container"/><g class="mark-rule role-mark layer_0_layer_1_layer_0_marks" aria-hidden="true"><line transform="translate(70,300)" x2="0" y2="0" stroke="black"/><line transform="translate(90,271.8072634725529)" x2="0" y2="-59.70368579678089" stroke="black"/><line transform="translate(10,202.57787982600416)" x2="0" y2="-13.761217767008134" stroke="black"/><line transform="translate(50,195.48702229390656)" x2="0" y2="-34.495849486722506" stroke="black"/><line transform="translate(110,193.86609259761784)" x2="0" y2="-72.1770623785178" stroke="black"/><line transform="translate(130,148.39528803037578)" x2="0" y2="0" stroke="black"/><line transform="translate(30,64.41712838923902)" x2="0" y2="0" stroke="black"/></g><g class="mark-rule role-mark layer_0_layer_1_layer_1_marks" aria-hidden="true"><line transform="translate(70,300)" x2="0" y2="0" stroke="black"/><line transform="translate(90,40.969044521989204)" x2="0" y2="-10.724949241305634" stroke="black"/><line transform="translate(10,161.29422652497976)" x2="0" y2="-13.76121776700819" stroke="black"/><line transform="translate(50,91.9994738337391)" x2="0" y2="-34.49584948672247" stroke="black"/><line transform="translate(110,24.755983920291115)" x2="0" y2="-24.755983920291115" stroke="black"/><line transform="translate(130,148.39528803037578)" x2="0" y2="0" stroke="black"/><line transform="translate(30,64.41712838923902)" x2="0" y2="0" stroke="black"/></g><g class="mark-rect role-mark layer_1_layer_0_marks" role="graphics-object" aria-roledescription="rect mark container"><path aria-label="Day_Number: 5; Calendar_Date: Mar 31, 1972; upper_box_Calendar_Date: Mar 31, 1972; Max of Calendar_Date: Mar 31, 1972; Q3 of Calendar_Date: Mar 31, 1972; Median of Calendar_Date: Mar 31, 1972; Q1 of Calendar_Date: Mar 31, 1972; Min of Calendar_Date: Mar 31, 1972" role="graphics-symbol" aria-roledescription="box" d="M63,300h14v0h-14Z" fill="#4c78a8"/><path aria-label="Day_Number: 7; Calendar_Date: May 13, 1985; upper_box_Calendar_Date: Nov 26, 2010; Max of Calendar_Date: Jul 03, 2012; Q3 of Calendar_Date: Nov 26, 2010; Median of Calendar_Date: Mar 10, 1997; Q1 of Calendar_Date: May 13, 1985; Min of Calendar_Date: Jun 15, 1976" role="graphics-symbol" aria-roledescription="box" d="M83,40.969044521989204h14v171.1345331537828h-14Z" fill="#4c78a8"/><path aria-label="Day_Number: 1; Calendar_Date: Nov 02, 1988; upper_box_Calendar_Date: Dec 12, 1992; Max of Calendar_Date: Jan 01, 1995; Q3 of Calendar_Date: Dec 12, 1992; Median of Calendar_Date: Nov 22, 1990; Q1 of Calendar_Date: Nov 02, 1988; Min of Calendar_Date: Oct 14, 1986" role="graphics-symbol" aria-roledescription="box" d="M3,161.29422652497976h14v27.522435534016267h-14Z" fill="#4c78a8"/><path aria-label="Day_Number: 3; Calendar_Date: Dec 28, 1992; upper_box_Calendar_Date: Apr 16, 2003; Max of Calendar_Date: Jun 08, 2008; Q3 of Calendar_Date: Apr 16, 2003; Median of Calendar_Date: Feb 20, 1998; Q1 of Calendar_Date: Dec 28, 1992; Min of Calendar_Date: Nov 05, 1987" role="graphics-symbol" aria-roledescription="box" d="M43,91.9994738337391h14v68.99169897344495h-14Z" fill="#4c78a8"/><path aria-label="Day_Number: 8; Calendar_Date: Nov 09, 1998; upper_box_Calendar_Date: Apr 28, 2013; Max of Calendar_Date: Jan 06, 2017; Q3 of Calendar_Date: Apr 28, 2013; Median of Calendar_Date: Aug 18, 2009; Q1 of Calendar_Date: Nov 09, 1998; Min of Calendar_Date: Feb 01, 1988" role="graphics-symbol" aria-roledescription="box" d="M103,24.755983920291115h14v96.93304629880892h-14Z" fill="#4c78a8"/><path aria-label="Day_Number: 9; Calendar_Date: Nov 15, 1994; upper_box_Calendar_Date: Nov 15, 1994; Max of Calendar_Date: Nov 15, 1994; Q3 of Calendar_Date: Nov 15, 1994; Median of Calendar_Date: Nov 15, 1994; Q1 of Calendar_Date: Nov 15, 1994; Min of Calendar_Date: Nov 15, 1994" role="graphics-symbol" aria-roledescription="box" d="M123,148.39528803037578h14v0h-14Z" fill="#4c78a8"/><path aria-label="Day_Number: 2; Calendar_Date: May 28, 2007; upper_box_Calendar_Date: May 28, 2007; Max of Calendar_Date: May 28, 2007; Q3 of Calendar_Date: May 28, 2007; Median of Calendar_Date: May 28, 2007; Q1 of Calendar_Date: May 28, 2007; Min of Calendar_Date: May 28, 2007" role="graphics-symbol" aria-roledescription="box" d="M23,64.41712838923902h14v0h-14Z" fill="#4c78a8"/></g><g class="mark-rect role-mark layer_1_layer_1_marks" aria-hidden="true"><path d="M63,299.5h14v1h-14Z" fill="white" opacity="0.7"/><path d="M83,132.36594183973037h14v1h-14Z" fill="white" opacity="0.7"/><path d="M3,174.55544429198787h14v1h-14Z" fill="white" opacity="0.7"/><path d="M43,125.9953233204616h14v1h-14Z" fill="white" opacity="0.7"/><path d="M103,49.01196784058223h14v1h-14Z" fill="white" opacity="0.7"/><path d="M123,147.89528803037578h14v1h-14Z" fill="white" opacity="0.7"/><path d="M23,63.917128389239025h14v1h-14Z" fill="white" opacity="0.7"/></g></g><path class="foreground" aria-hidden="true" d="" display="none"/></g></g></g></svg>