<svg xmlns="http://www.w3.org/2000/svg" xmlns:xlink="http://www.w3.org/1999/xlink" version="1.1" class="marks" width="178" height="343" viewBox="0 0 178 343"><rect width="178" height="343" fill="white"/><g fill="none" stroke-miterlimit="10" transform="translate(53,10)"><g class="mark-group role-frame root" role="graphics-object" aria-roledescription="group mark container"><g transform="translate(0,0)"><path class="background" aria-hidden="true" d="M0.5,0.5h120v300h-120Z" stroke="#ddd"/><g><g class="mark-group role-axis" aria-hidden="true"><g transform="translate(0.5,0.5)"><path class="background" aria-hidden="true" d="M0,0h0v0h0Z" pointer-events="none"/><g><g class="mark-rule role-axis-grid" pointer-events="none"><line transform="translate(0,300)" x2="120" y2="0" stroke="#ddd" stroke-width="1" opacity="1"/><line transform="translate(0,257)" x2="120" y2="0" stroke="#ddd" stroke-width="1" opacity="1"/><line transform="translate(0,214)" x2="120" y2="0" stroke="#ddd" stroke-width="1" opacity="1"/><line transform="translate(0,171)" x2="120" y2="0" stroke="#ddd" stroke-width="1" opacity="1"/><line transform="translate(0,129)" x2="120" y2="0" stroke="#ddd" stroke-width="1" opacity="1"/><line transform="translate(0,86)" x2="120" y2="0" stroke="#ddd" stroke-width="1" opacity="1"/><line transform="translate(0,43)" x2="120" y2="0" stroke="#ddd" stroke-width="1" opacity="1"/><line transform="translate(0,0)" x2="120" y2="0" stroke="#ddd" stroke-width="1" opacity="1"/></g></g><path class="foreground" aria-hidden="true" d="" pointer-events="none" display="none"/></g></g><g class="mark-group role-axis" role="graphics-symbol" aria-roledescription="axis" aria-label="X-axis titled 'GameID' for a discrete scale with 6 values: 1, 2, 3, 4, 5, 6"><g transform="translate(0.5,300.5)"><path class="background" aria-hidden="true" d="M0,0h0v0h0Z" pointer-events="none"/><g><g class="mark-rule role-axis-tick" pointer-events="none"><line transform="translate(10,0)" x2="0" y2="5" stroke="#888" stroke-width="1" opacity="1"/><line transform="translate(30,0)" x2="0" y2="5" stroke="#888" stroke-width="1" opacity="1"/><line transform="translate(50,0)" x2="0" y2="5" stroke="#888" stroke-width="1" opacity="1"/><line transform="translate(70,0)" x2="0" y2="5" stroke="#888" stroke-width="1" opacity="1"/><line transform="translate(90,0)" x2="0" y2="5" stroke="#888" stroke-width="1" opacity="1"/><line transform="translate(110,0)" x2="0" y2="5" stroke="#888" stroke-width="1" opacity="1"/></g><g class="mark-text role-axis-label" pointer-events="none"><text text-anchor="end" transform="translate(9.5,7) rotate(270) translate(0,3)" font-family="sans-serif" font-size="10px" fill="#000" opacity="1">1</text><text text-anchor="end" transform="translate(29.5,7) rotate(270) translate(0,3)" font-family="sans-serif" font-size="10px" fill="#000" opacity="1">2</text><text text-anchor="end" transform="translate(49.5,7) rotate(270) translate(0,3)" font-family="sans-serif" font-size="10px" fill="#000" opacity="1">3</text><text text-anchor="end" transform="translate(69.5,7) rotate(270) translate(0,3)" font-family="sans-serif" font-size="10px" fill="#000" opacity="1">4</text><text text-anchor="end" transform="translate(89.5,7) rotate(270) translate(0,3)" font-family="sans-serif" font-size="10px" fill="#000" opacity="1">5</text><text text-anchor="end" transform="translate(109.5,7) rotate(270) translate(0,3)" font-family="sans-serif" font-size="10px" fill="#000" opacity="1">6</text></g><g class="mark-rule role-axis-domain" pointer-events="none"><line transform="translate(0,0)" x2="120" y2="0" stroke="#888" stroke-width="1" opacity="1"/></g><g class="mark-text role-axis-title" pointer-events="none"><text text-anchor="middle" transform="translate(60,25.5615234375)" font-family="sans-serif" font-size="11px" font-weight="bold" fill="#000" opacity="1">GameID</text></g></g><path class="foreground" aria-hidden="true" d="" pointer-events="none" display="none"/></g></g><g class="mark-group role-axis" role="graphics-symbol" aria-roledescription="axis" aria-label="Y-axis titled 'Hours_Played' for a linear scale with values from 0 to 1,400"><g transform="translate(0.5,0.5)"><path class="background" aria-hidden="true" d="M0,0h0v0h0Z" pointer-events="none"/><g><g class="mark-rule role-axis-tick" pointer-events="none"><line transform="translate(0,300)" x2="-5" y2="0" stroke="#888" stroke-width="1" opacity="1"/><line transform="translate(0,257)" x2="-5" y2="0" stroke="#888" stroke-width="1" opacity="1"/><line transform="translate(0,214)" x2="-5" y2="0" stroke="#888" stroke-width="1" opacity="1"/><line transform="translate(0,171)" x2="-5" y2="0" stroke="#888" stroke-width="1" opacity="1"/><line transform="translate(0,129)" x2="-5" y2="0" stroke="#888" stroke-width="1" opacity="1"/><line transform="translate(0,86)" x2="-5" y2="0" stroke="#888" stroke-width="1" opacity="1"/><line transform="translate(0,43)" x2="-5" y2="0" stroke="#888" stroke-width="1" opacity="1"/><line transform="translate(0,0)" x2="-5" y2="0" stroke="#888" stroke-width="1" opacity="1"/></g><g class="mark-text role-axis-label" pointer-events="none"><text text-anchor="end" transform="translate(-7,303)" font-family="sans-serif" font-size="10px" fill="#000" opacity="1">0</text><text text-anchor="end" transform="translate(-7,260.14285714285717)" font-family="sans-serif" font-size="10px" fill="#000" opacity="1">200</text><text text-anchor="end" transform="translate(-7,217.28571428571428)" font-family="sans-serif" font-size="10px" fill="#000" opacity="1">400</text><text text-anchor="end" transform="translate(-7,174.42857142857142)" font-family="sans-serif" font-size="10px" fill="#000" opacity="1">600</text><text text-anchor="end" transform="translate(-7,131.57142857142858)" font-family="sans-serif" font-size="10px" fill="#000" opacity="1">800</text><text text-anchor="end" transform="translate(-7,88.71428571428571)" font-family="sans-serif" font-size="10px" fill="#000" opacity="1">1,000</text><text text-anchor="end" transform="translate(-7,45.85714285714287)" font-family="sans-serif" font-size="10px" fill="#000" opacity="1">1,200</text><text text-anchor="end" transform="translate(-7,3)" font-family="sans-serif" font-size="10px" fill="#000" opacity="1">1,400</text></g><g class="mark-rule role-axis-domain" pointer-events="none"><line transform="translate(0,300)" x2="0" y2="-300" stroke="#888" stroke-width="1" opacity="1"/></g><g class="mark-text role-axis-title" pointer-events="none"><text text-anchor="middle" transform="translate(-36.0244140625,150) rotate(-90) translate(0,-2)" font-family="sans-serif" font-size="11px" font-weight="bold" fill="#000" opacity="1">Hours_Played</text></g></g><path class="foreground" aria-hidden="true" d="" pointer-events="none" display="none"/></g></g><g class="mark-symbol role-mark layer_0_layer_0_marks" role="graphics-symbol" aria-roledescription="symbol mark container"/><g class="mark-rule role-mark layer_0_layer_1_layer_0_marks" aria-hidden="true"><line transform="translate(10,292.5)" x2="0" y2="-0.6428571428571672" stroke="black"/><line transform="translate(30,297.8571428571429)" x2="0" y2="-0.2678571428571672" stroke="black"/><line transform="translate(90,299.7857142857143)" x2="0" y2="-2.625" stroke="black"/><line transform="translate(70,85.71428571428571)" x2="0" y2="0" stroke="black"/><line transform="translate(50,289.2857142857143)" x2="0" y2="-2.678571428571388" stroke="black"/><line transform="translate(110,13.500000000000012)" x2="0" y2="0" stroke="black"/></g><g class="mark-rule role-mark layer_0_layer_1_layer_1_marks" aria-hidden="true"><line transform="translate(10,290.57142857142856)" x2="0" y2="-0.6428571428571104" stroke="black"/><line transform="translate(30,297.05357142857144)" x2="0" y2="-0.2678571428571672" stroke="black"/><line transform="translate(90,291.9107142857143)" x2="0" y2="-2.625" stroke="black"/><line transform="translate(70,85.71428571428571)" x2="0" y2="0" stroke="black"/><line transform="translate(50,281.25)" x2="0" y2="-2.678571428571445" stroke="black"/><line transform="translate(110,13.500000000000012)" x2="0" y2="0" stroke="black"/></g><g class="mark-rect role-mark layer_1_layer_0_marks" role="graphics-object" aria-roledescription="rect mark container"><path aria-label="GameID: 1; Hours_Played: 38; upper_box_Hours_Played: 44; Max of Hours_Played: 47; Q3 of Hours_Played: 44; Median of Hours_Played: 41; Q1 of Hours_Played: 38; Min of Hours_Played: 35" role="graphics-symbol" aria-roledescription="box" d="M3,290.57142857142856h14v1.2857142857142776h-14Z" fill="#4c78a8"/><path aria-label="GameID: 2; Hours_Played: 11.25; upper_box_Hours_Played: 13.75; Max of Hours_Played: 15; Q3 of Hours_Played: 13.75; Median of Hours_Played: 12.5; Q1 of Hours_Played: 11.25; Min of Hours_Played: 10" role="graphics-symbol" aria-roledescription="box" d="M23,297.05357142857144h14v0.5357142857142776h-14Z" fill="#4c78a8"/><path aria-label="GameID: 5; Hours_Played: 13.25; upper_box_Hours_Played: 37.75; Max of Hours_Played: 50; Q3 of Hours_Played: 37.75; Median of Hours_Played: 25.5; Q1 of Hours_Played: 13.25; Min of Hours_Played: 1" role="graphics-symbol" aria-roledescription="box" d="M83,291.9107142857143h14v5.25h-14Z" fill="#4c78a8"/><path aria-label="GameID: 4; Hours_Played: 1000; upper_box_Hours_Played: 1000; Max of Hours_Played: 1000; Q3 of Hours_Played: 1000; Median of Hours_Played: 1000; Q1 of Hours_Played: 1000; Min of Hours_Played: 1000" role="graphics-symbol" aria-roledescription="box" d="M63,85.71428571428571h14v0h-14Z" fill="#4c78a8"/><path aria-label="GameID: 3; Hours_Played: 62.5; upper_box_Hours_Played: 87.5; Max of Hours_Played: 100; Q3 of Hours_Played: 87.5; Median of Hours_Played: 75; Q1 of Hours_Played: 62.5; Min of Hours_Played: 50" role="graphics-symbol" aria-roledescription="box" d="M43,281.25h14v5.35714285714289h-14Z" fill="#4c78a8"/><path aria-label="GameID: 6; Hours_Played: 1337; upper_box_Hours_Played: 1337; Max of Hours_Played: 1337; Q3 of Hours_Played: 1337; Median of Hours_Played: 1337; Q1 of Hours_Played: 1337; Min of Hours_Played: 1337" role="graphics-symbol" aria-roledescription="box" d="M103,13.500000000000012h14v0h-14Z" fill="#4c78a8"/></g><g class="mark-rect role-mark layer_1_layer_1_marks" aria-hidden="true"><path d="M3,290.7142857142857h14v1h-14Z" fill="white" opacity="0.7"/><path d="M23,296.82142857142856h14v1h-14Z" fill="white" opacity="0.7"/><path d="M83,294.0357142857143h14v1h-14Z" fill="white" opacity="0.7"/><path d="M63,85.21428571428571h14v1h-14Z" fill="white" opacity="0.7"/><path d="M43,283.42857142857144h14v1h-14Z" fill="white" opacity="0.7"/><path d="M103,13.000000000000012h14v1h-14Z" fill="white" opacity="0.7"/></g></g><path class="foreground" aria-hidden="true" d="" display="none"/></g></g></g></svg>