<svg xmlns="http://www.w3.org/2000/svg" xmlns:xlink="http://www.w3.org/1999/xlink" version="1.1" class="marks" width="443" height="406" viewBox="0 0 443 406"><rect width="443" height="406" fill="white"/><g fill="none" stroke-miterlimit="10" transform="translate(58,10)"><g class="mark-group role-frame root" role="graphics-object" aria-roledescription="group mark container"><g transform="translate(0,0)"><path class="background" aria-hidden="true" d="M0.5,0.5h380v300h-380Z" stroke="#ddd"/><g><g class="mark-group role-axis" aria-hidden="true"><g transform="translate(0.5,0.5)"><path class="background" aria-hidden="true" d="M0,0h0v0h0Z" pointer-events="none"/><g><g class="mark-rule role-axis-grid" pointer-events="none"><line transform="translate(0,300)" x2="380" y2="0" stroke="#ddd" stroke-width="1" opacity="1"/><line transform="translate(0,275)" x2="380" y2="0" stroke="#ddd" stroke-width="1" opacity="1"/><line transform="translate(0,250)" x2="380" y2="0" stroke="#ddd" stroke-width="1" opacity="1"/><line transform="translate(0,225)" x2="380" y2="0" stroke="#ddd" stroke-width="1" opacity="1"/><line transform="translate(0,200)" x2="380" y2="0" stroke="#ddd" stroke-width="1" opacity="1"/><line transform="translate(0,175)" x2="380" y2="0" stroke="#ddd" stroke-width="1" opacity="1"/><line transform="translate(0,150)" x2="380" y2="0" stroke="#ddd" stroke-width="1" opacity="1"/><line transform="translate(0,125)" x2="380" y2="0" stroke="#ddd" stroke-width="1" opacity="1"/><line transform="translate(0,100)" x2="380" y2="0" stroke="#ddd" stroke-width="1" opacity="1"/><line transform="translate(0,75)" x2="380" y2="0" stroke="#ddd" stroke-width="1" opacity="1"/><line transform="translate(0,50)" x2="380" y2="0" stroke="#ddd" stroke-width="1" opacity="1"/><line transform="translate(0,25)" x2="380" y2="0" stroke="#ddd" stroke-width="1" opacity="1"/><line transform="translate(0,0)" x2="380" y2="0" stroke="#ddd" stroke-width="1" opacity="1"/></g></g><path class="foreground" aria-hidden="true" d="" pointer-events="none" display="none"/></g></g><g class="mark-group role-axis" role="graphics-symbol" aria-roledescription="axis" aria-label="X-axis titled 'JOB_ID' for a discrete scale with 19 values: AC_ACCOUNT, AC_MGR, AD_ASST, AD_PRES, AD_VP, ending with ST_MAN"><g transform="translate(0.5,300.5)"><path class="background" aria-hidden="true" d="M0,0h0v0h0Z" pointer-events="none"/><g><g class="mark-rule role-axis-tick" pointer-events="none"><line transform="translate(10,0)" x2="0" y2="5" stroke="#888" stroke-width="1" opacity="1"/><line transform="translate(30,0)" x2="0" y2="5" stroke="#888" stroke-width="1" opacity="1"/><line transform="translate(50,0)" x2="0" y2="5" stroke="#888" stroke-width="1" opacity="1"/><line transform="translate(70,0)" x2="0" y2="5" stroke="#888" stroke-width="1" opacity="1"/><line transform="translate(90,0)" x2="0" y2="5" stroke="#888" stroke-width="1" opacity="1"/><line transform="translate(110,0)" x2="0" y2="5" stroke="#888" stroke-width="1" opacity="1"/><line transform="translate(130,0)" x2="0" y2="5" stroke="#888" stroke-width="1" opacity="1"/><line transform="translate(150,0)" x2="0" y2="5" stroke="#888" stroke-width="1" opacity="1"/><line transform="translate(170,0)" x2="0" y2="5" stroke="#888" stroke-width="1" opacity="1"/><line transform="translate(190,0)" x2="0" y2="5" stroke="#888" stroke-width="1" opacity="1"/><line transform="translate(210,0)" x2="0" y2="5" stroke="#888" stroke-width="1" opacity="1"/><line transform="translate(230,0)" x2="0" y2="5" stroke="#888" stroke-width="1" opacity="1"/><line transform="translate(250,0)" x2="0" y2="5" stroke="#888" stroke-width="1" opacity="1"/><line transform="translate(270,0)" x2="0" y2="5" stroke="#888" stroke-width="1" opacity="1"/><line transform="translate(290,0)" x2="0" y2="5" stroke="#888" stroke-width="1" opacity="1"/><line transform="translate(310,0)" x2="0" y2="5" stroke="#888" stroke-width="1" opacity="1"/><line transform="translate(330,0)" x2="0" y2="5" stroke="#888" stroke-width="1" opacity="1"/><line transform="translate(350,0)" x2="0" y2="5" stroke="#888" stroke-width="1" opacity="1"/><line transform="translate(370,0)" x2="0" y2="5" stroke="#888" stroke-width="1" opacity="1"/></g><g class="mark-text role-axis-label" pointer-events="none"><text text-anchor="end" transform="translate(9.5,7) rotate(270) translate(0,3)" font-family="sans-serif" font-size="10px" fill="#000" opacity="1">AC_ACCOUNT</text><text text-anchor="end" transform="translate(29.5,7) rotate(270) translate(0,3)" font-family="sans-serif" font-size="10px" fill="#000" opacity="1">AC_MGR</text><text text-anchor="end" transform="translate(49.5,7) rotate(270) translate(0,3)" font-family="sans-serif" font-size="10px" fill="#000" opacity="1">AD_ASST</text><text text-anchor="end" transform="translate(69.5,7) rotate(270) translate(0,3)" font-family="sans-serif" font-size="10px" fill="#000" opacity="1">AD_PRES</text><text text-anchor="end" transform="translate(89.5,7) rotate(270) translate(0,3)" font-family="sans-serif" font-size="10px" fill="#000" opacity="1">AD_VP</text><text text-anchor="end" transform="translate(109.5,7) rotate(270) translate(0,3)" font-family="sans-serif" font-size="10px" fill="#000" opacity="1">FI_ACCOUNT</text><text text-anchor="end" transform="translate(129.5,7) rotate(270) translate(0,3)" font-family="sans-serif" font-size="10px" fill="#000" opacity="1">FI_MGR</text><text text-anchor="end" transform="translate(149.5,7) rotate(270) translate(0,3)" font-family="sans-serif" font-size="10px" fill="#000" opacity="1">HR_REP</text><text text-anchor="end" transform="translate(169.5,7) rotate(270) translate(0,3)" font-family="sans-serif" font-size="10px" fill="#000" opacity="1">IT_PROG</text><text text-anchor="end" transform="translate(189.5,7) rotate(270) translate(0,3)" font-family="sans-serif" font-size="10px" fill="#000" opacity="1">MK_MAN</text><text text-anchor="end" transform="translate(209.5,7) rotate(270) translate(0,3)" font-family="sans-serif" font-size="10px" fill="#000" opacity="1">MK_REP</text><text text-anchor="end" transform="translate(229.5,7) rotate(270) translate(0,3)" font-family="sans-serif" font-size="10px" fill="#000" opacity="1">PR_REP</text><text text-anchor="end" transform="translate(249.5,7) rotate(270) translate(0,3)" font-family="sans-serif" font-size="10px" fill="#000" opacity="1">PU_CLERK</text><text text-anchor="end" transform="translate(269.5,7) rotate(270) translate(0,3)" font-family="sans-serif" font-size="10px" fill="#000" opacity="1">PU_MAN</text><text text-anchor="end" transform="translate(289.5,7) rotate(270) translate(0,3)" font-family="sans-serif" font-size="10px" fill="#000" opacity="1">SA_MAN</text><text text-anchor="end" transform="translate(309.5,7) rotate(270) translate(0,3)" font-family="sans-serif" font-size="10px" fill="#000" opacity="1">SA_REP</text><text text-anchor="end" transform="translate(329.5,7) rotate(270) translate(0,3)" font-family="sans-serif" font-size="10px" fill="#000" opacity="1">SH_CLERK</text><text text-anchor="end" transform="translate(349.5,7) rotate(270) translate(0,3)" font-family="sans-serif" font-size="10px" fill="#000" opacity="1">ST_CLERK</text><text text-anchor="end" transform="translate(369.5,7) rotate(270) translate(0,3)" font-family="sans-serif" font-size="10px" fill="#000" opacity="1">ST_MAN</text></g><g class="mark-rule role-axis-domain" pointer-events="none"><line transform="translate(0,0)" x2="380" y2="0" stroke="#888" stroke-width="1" opacity="1"/></g><g class="mark-text role-axis-title" pointer-events="none"><text text-anchor="middle" transform="translate(190,88.896484375)" font-family="sans-serif" font-size="11px" font-weight="bold" fill="#000" opacity="1">JOB_ID</text></g></g><path class="foreground" aria-hidden="true" d="" pointer-events="none" display="none"/></g></g><g class="mark-group role-axis" role="graphics-symbol" aria-roledescription="axis" aria-label="Y-axis titled 'SALARY' for a linear scale with values from 0 to 24,000"><g transform="translate(0.5,0.5)"><path class="background" aria-hidden="true" d="M0,0h0v0h0Z" pointer-events="none"/><g><g class="mark-rule role-axis-tick" pointer-events="none"><line transform="translate(0,300)" x2="-5" y2="0" stroke="#888" stroke-width="1" opacity="1"/><line transform="translate(0,275)" x2="-5" y2="0" stroke="#888" stroke-width="1" opacity="1"/><line transform="translate(0,250)" x2="-5" y2="0" stroke="#888" stroke-width="1" opacity="1"/><line transform="translate(0,225)" x2="-5" y2="0" stroke="#888" stroke-width="1" opacity="1"/><line transform="translate(0,200)" x2="-5" y2="0" stroke="#888" stroke-width="1" opacity="1"/><line transform="translate(0,175)" x2="-5" y2="0" stroke="#888" stroke-width="1" opacity="1"/><line transform="translate(0,150)" x2="-5" y2="0" stroke="#888" stroke-width="1" opacity="1"/><line transform="translate(0,125)" x2="-5" y2="0" stroke="#888" stroke-width="1" opacity="1"/><line transform="translate(0,100)" x2="-5" y2="0" stroke="#888" stroke-width="1" opacity="1"/><line transform="translate(0,75)" x2="-5" y2="0" stroke="#888" stroke-width="1" opacity="1"/><line transform="translate(0,50)" x2="-5" y2="0" stroke="#888" stroke-width="1" opacity="1"/><line transform="translate(0,25)" x2="-5" y2="0" stroke="#888" stroke-width="1" opacity="1"/><line transform="translate(0,0)" x2="-5" y2="0" stroke="#888" stroke-width="1" opacity="1"/></g><g class="mark-text role-axis-label" pointer-events="none"><text text-anchor="end" transform="translate(-7,303)" font-family="sans-serif" font-size="10px" fill="#000" opacity="1">0</text><text text-anchor="end" transform="translate(-7,278)" font-family="sans-serif" font-size="10px" fill="#000" opacity="1">2,000</text><text text-anchor="end" transform="translate(-7,253)" font-family="sans-serif" font-size="10px" fill="#000" opacity="1">4,000</text><text text-anchor="end" transform="translate(-7,228)" font-family="sans-serif" font-size="10px" fill="#000" opacity="1">6,000</text><text text-anchor="end" transform="translate(-7,203.00000000000003)" font-family="sans-serif" font-size="10px" fill="#000" opacity="1">8,000</text><text text-anchor="end" transform="translate(-7,177.99999999999997)" font-family="sans-serif" font-size="10px" fill="#000" opacity="1">10,000</text><text text-anchor="end" transform="translate(-7,153)" font-family="sans-serif" font-size="10px" fill="#000" opacity="1">12,000</text><text text-anchor="end" transform="translate(-7,127.99999999999999)" font-family="sans-serif" font-size="10px" fill="#000" opacity="1">14,000</text><text text-anchor="end" transform="translate(-7,103.00000000000001)" font-family="sans-serif" font-size="10px" fill="#000" opacity="1">16,000</text><text text-anchor="end" transform="translate(-7,78)" font-family="sans-serif" font-size="10px" fill="#000" opacity="1">18,000</text><text text-anchor="end" transform="translate(-7,52.999999999999986)" font-family="sans-serif" font-size="10px" fill="#000" opacity="1">20,000</text><text text-anchor="end" transform="translate(-7,28.00000000000001)" font-family="sans-serif" font-size="10px" fill="#000" opacity="1">22,000</text><text text-anchor="end" transform="translate(-7,3)" font-family="sans-serif" font-size="10px" fill="#000" opacity="1">24,000</text></g><g class="mark-rule role-axis-domain" pointer-events="none"><line transform="translate(0,300)" x2="0" y2="-300" stroke="#888" stroke-width="1" opacity="1"/></g><g class="mark-text role-axis-title" pointer-events="none"><text text-anchor="middle" transform="translate(-41.5859375,150) rotate(-90) translate(0,-2)" font-family="sans-serif" font-size="11px" font-weight="bold" fill="#000" opacity="1">SALARY</text></g></g><path class="foreground" aria-hidden="true" d="" pointer-events="none" display="none"/></g></g><g class="mark-symbol role-mark layer_0_layer_0_marks" role="graphics-object" aria-roledescription="symbol mark container"><path aria-label="JOB_ID: IT_PROG; SALARY: 9000" role="graphics-symbol" aria-roledescription="point" transform="translate(170,187.5)" d="M2.739,0A2.739,2.739,0,1,1,-2.739,0A2.739,2.739,0,1,1,2.739,0" stroke="#4c78a8" stroke-width="2" opacity="0.7"/><path aria-label="JOB_ID: FI_ACCOUNT; SALARY: 9000" role="graphics-symbol" aria-roledescription="point" transform="translate(110,187.5)" d="M2.739,0A2.739,2.739,0,1,1,-2.739,0A2.739,2.739,0,1,1,2.739,0" stroke="#4c78a8" stroke-width="2" opacity="0.7"/><path aria-label="JOB_ID: FI_ACCOUNT; SALARY: 6900" role="graphics-symbol" aria-roledescription="point" transform="translate(110,213.75)" d="M2.739,0A2.739,2.739,0,1,1,-2.739,0A2.739,2.739,0,1,1,2.739,0" stroke="#4c78a8" stroke-width="2" opacity="0.7"/></g><g class="mark-rule role-mark layer_0_layer_1_layer_0_marks" aria-hidden="true"><line transform="translate(70,0)" x2="0" y2="0" stroke="black"/><line transform="translate(90,87.49999999999999)" x2="0" y2="0" stroke="black"/><line transform="translate(170,247.5)" x2="0" y2="-7.5" stroke="black"/><line transform="translate(130,150)" x2="0" y2="0" stroke="black"/><line transform="translate(110,203.75)" x2="0" y2="0" stroke="black"/><line transform="translate(270,162.50000000000003)" x2="0" y2="0" stroke="black"/><line transform="translate(250,268.75)" x2="0" y2="-1.25" stroke="black"/><line transform="translate(370,227.5)" x2="0" y2="-8.749999999999972" stroke="black"/><line transform="translate(350,273.75)" x2="0" y2="-4.6875" stroke="black"/><line transform="translate(290,168.75)" x2="0" y2="-6.249999999999972" stroke="black"/><line transform="translate(310,223.75)" x2="0" y2="-11.875" stroke="black"/><line transform="translate(330,268.75)" x2="0" y2="-3.75" stroke="black"/><line transform="translate(50,245)" x2="0" y2="0" stroke="black"/><line transform="translate(190,137.5)" x2="0" y2="0" stroke="black"/><line transform="translate(210,225)" x2="0" y2="0" stroke="black"/><line transform="translate(150,218.75000000000003)" x2="0" y2="0" stroke="black"/><line transform="translate(230,174.99999999999997)" x2="0" y2="0" stroke="black"/><line transform="translate(30,150)" x2="0" y2="0" stroke="black"/><line transform="translate(10,196.25)" x2="0" y2="0" stroke="black"/></g><g class="mark-rule role-mark layer_0_layer_1_layer_1_marks" aria-hidden="true"><line transform="translate(70,0)" x2="0" y2="0" stroke="black"/><line transform="translate(90,87.49999999999999)" x2="0" y2="0" stroke="black"/><line transform="translate(170,225)" x2="0" y2="0" stroke="black"/><line transform="translate(130,150)" x2="0" y2="0" stroke="black"/><line transform="translate(110,197.5)" x2="0" y2="0" stroke="black"/><line transform="translate(270,162.50000000000003)" x2="0" y2="0" stroke="black"/><line transform="translate(250,263.75)" x2="0" y2="-2.5" stroke="black"/><line transform="translate(370,200.00000000000003)" x2="0" y2="-2.5000000000000284" stroke="black"/><line transform="translate(350,260)" x2="0" y2="-5" stroke="black"/><line transform="translate(290,131.25)" x2="0" y2="-6.250000000000014" stroke="black"/><line transform="translate(310,181.25000000000003)" x2="0" y2="-25.000000000000057" stroke="black"/><line transform="translate(330,254.375)" x2="0" y2="-6.875" stroke="black"/><line transform="translate(50,245)" x2="0" y2="0" stroke="black"/><line transform="translate(190,137.5)" x2="0" y2="0" stroke="black"/><line transform="translate(210,225)" x2="0" y2="0" stroke="black"/><line transform="translate(150,218.75000000000003)" x2="0" y2="0" stroke="black"/><line transform="translate(230,174.99999999999997)" x2="0" y2="0" stroke="black"/><line transform="translate(30,150)" x2="0" y2="0" stroke="black"/><line transform="translate(10,196.25)" x2="0" y2="0" stroke="black"/></g><g class="mark-rect role-mark layer_1_layer_0_marks" role="graphics-object" aria-roledescription="rect mark container"><path aria-label="JOB_ID: AD_PRES; SALARY: 24000; upper_box_SALARY: 24000; Max of SALARY: 24000; Q3 of SALARY: 24000; Median of SALARY: 24000; Q1 of SALARY: 24000; Min of SALARY: 24000" role="graphics-symbol" aria-roledescription="box" d="M63,0h14v0h-14Z" fill="#4c78a8"/><path aria-label="JOB_ID: AD_VP; SALARY: 17000; upper_box_SALARY: 17000; Max of SALARY: 17000; Q3 of SALARY: 17000; Median of SALARY: 17000; Q1 of SALARY: 17000; Min of SALARY: 17000" role="graphics-symbol" aria-roledescription="box" d="M83,87.49999999999999h14v0h-14Z" fill="#4c78a8"/><path aria-label="JOB_ID: IT_PROG; SALARY: 4800; upper_box_SALARY: 6000; Max of SALARY: 9000; Q3 of SALARY: 6000; Median of SALARY: 4800; Q1 of SALARY: 4800; Min of SALARY: 4200" role="graphics-symbol" aria-roledescription="box" d="M163,225h14v15h-14Z" fill="#4c78a8"/><path aria-label="JOB_ID: FI_MGR; SALARY: 12000; upper_box_SALARY: 12000; Max of SALARY: 12000; Q3 of SALARY: 12000; Median of SALARY: 12000; Q1 of SALARY: 12000; Min of SALARY: 12000" role="graphics-symbol" aria-roledescription="box" d="M123,150h14v0h-14Z" fill="#4c78a8"/><path aria-label="JOB_ID: FI_ACCOUNT; SALARY: 7700; upper_box_SALARY: 8200; Max of SALARY: 9000; Q3 of SALARY: 8200; Median of SALARY: 7800; Q1 of SALARY: 7700; Min of SALARY: 6900" role="graphics-symbol" aria-roledescription="box" d="M103,197.5h14v6.25h-14Z" fill="#4c78a8"/><path aria-label="JOB_ID: PU_MAN; SALARY: 11000; upper_box_SALARY: 11000; Max of SALARY: 11000; Q3 of SALARY: 11000; Median of SALARY: 11000; Q1 of SALARY: 11000; Min of SALARY: 11000" role="graphics-symbol" aria-roledescription="box" d="M263,162.50000000000003h14v0h-14Z" fill="#4c78a8"/><path aria-label="JOB_ID: PU_CLERK; SALARY: 2600; upper_box_SALARY: 2900; Max of SALARY: 3100; Q3 of SALARY: 2900; Median of SALARY: 2800; Q1 of SALARY: 2600; Min of SALARY: 2500" role="graphics-symbol" aria-roledescription="box" d="M243,263.75h14v3.75h-14Z" fill="#4c78a8"/><path aria-label="JOB_ID: ST_MAN; SALARY: 6500; upper_box_SALARY: 8000; Max of SALARY: 8200; Q3 of SALARY: 8000; Median of SALARY: 7900; Q1 of SALARY: 6500; Min of SALARY: 5800" role="graphics-symbol" aria-roledescription="box" d="M363,200.00000000000003h14v18.75h-14Z" fill="#4c78a8"/><path aria-label="JOB_ID: ST_CLERK; SALARY: 2475; upper_box_SALARY: 3200; Max of SALARY: 3600; Q3 of SALARY: 3200; Median of SALARY: 2700; Q1 of SALARY: 2475; Min of SALARY: 2100" role="graphics-symbol" aria-roledescription="box" d="M343,260h14v9.0625h-14Z" fill="#4c78a8"/><path aria-label="JOB_ID: SA_MAN; SALARY: 11000; upper_box_SALARY: 13500; Max of SALARY: 14000; Q3 of SALARY: 13500; Median of SALARY: 12000; Q1 of SALARY: 11000; Min of SALARY: 10500" role="graphics-symbol" aria-roledescription="box" d="M283,131.25h14v31.25000000000003h-14Z" fill="#4c78a8"/><path aria-label="JOB_ID: SA_REP; SALARY: 7050; upper_box_SALARY: 9500; Max of SALARY: 11500; Q3 of SALARY: 9500; Median of SALARY: 8200; Q1 of SALARY: 7050; Min of SALARY: 6100" role="graphics-symbol" aria-roledescription="box" d="M303,181.25000000000003h14v30.62499999999997h-14Z" fill="#4c78a8"/><path aria-label="JOB_ID: SH_CLERK; SALARY: 2800; upper_box_SALARY: 3650; Max of SALARY: 4200; Q3 of SALARY: 3650; Median of SALARY: 3100; Q1 of SALARY: 2800; Min of SALARY: 2500" role="graphics-symbol" aria-roledescription="box" d="M323,254.375h14v10.625h-14Z" fill="#4c78a8"/><path aria-label="JOB_ID: AD_ASST; SALARY: 4400; upper_box_SALARY: 4400; Max of SALARY: 4400; Q3 of SALARY: 4400; Median of SALARY: 4400; Q1 of SALARY: 4400; Min of SALARY: 4400" role="graphics-symbol" aria-roledescription="box" d="M43,245h14v0h-14Z" fill="#4c78a8"/><path aria-label="JOB_ID: MK_MAN; SALARY: 13000; upper_box_SALARY: 13000; Max of SALARY: 13000; Q3 of SALARY: 13000; Median of SALARY: 13000; Q1 of SALARY: 13000; Min of SALARY: 13000" role="graphics-symbol" aria-roledescription="box" d="M183,137.5h14v0h-14Z" fill="#4c78a8"/><path aria-label="JOB_ID: MK_REP; SALARY: 6000; upper_box_SALARY: 6000; Max of SALARY: 6000; Q3 of SALARY: 6000; Median of SALARY: 6000; Q1 of SALARY: 6000; Min of SALARY: 6000" role="graphics-symbol" aria-roledescription="box" d="M203,225h14v0h-14Z" fill="#4c78a8"/><path aria-label="JOB_ID: HR_REP; SALARY: 6500; upper_box_SALARY: 6500; Max of SALARY: 6500; Q3 of SALARY: 6500; Median of SALARY: 6500; Q1 of SALARY: 6500; Min of SALARY: 6500" role="graphics-symbol" aria-roledescription="box" d="M143,218.75000000000003h14v0h-14Z" fill="#4c78a8"/><path aria-label="JOB_ID: PR_REP; SALARY: 10000; upper_box_SALARY: 10000; Max of SALARY: 10000; Q3 of SALARY: 10000; Median of SALARY: 10000; Q1 of SALARY: 10000; Min of SALARY: 10000" role="graphics-symbol" aria-roledescription="box" d="M223,174.99999999999997h14v0h-14Z" fill="#4c78a8"/><path aria-label="JOB_ID: AC_MGR; SALARY: 12000; upper_box_SALARY: 12000; Max of SALARY: 12000; Q3 of SALARY: 12000; Median of SALARY: 12000; Q1 of SALARY: 12000; Min of SALARY: 12000" role="graphics-symbol" aria-roledescription="box" d="M23,150h14v0h-14Z" fill="#4c78a8"/><path aria-label="JOB_ID: AC_ACCOUNT; SALARY: 8300; upper_box_SALARY: 8300; Max of SALARY: 8300; Q3 of SALARY: 8300; Median of SALARY: 8300; Q1 of SALARY: 8300; Min of SALARY: 8300" role="graphics-symbol" aria-roledescription="box" d="M3,196.25h14v0h-14Z" fill="#4c78a8"/></g><g class="mark-rect role-mark layer_1_layer_1_marks" aria-hidden="true"><path d="M63,-0.5h14v1h-14Z" fill="white" opacity="0.7"/><path d="M83,86.99999999999999h14v1h-14Z" fill="white" opacity="0.7"/><path d="M163,239.5h14v1h-14Z" fill="white" opacity="0.7"/><path d="M123,149.5h14v1h-14Z" fill="white" opacity="0.7"/><path d="M103,202h14v1h-14Z" fill="white" opacity="0.7"/><path d="M263,162.00000000000003h14v1h-14Z" fill="white" opacity="0.7"/><path d="M243,264.5h14v1h-14Z" fill="white" opacity="0.7"/><path d="M363,200.75000000000003h14v1h-14Z" fill="white" opacity="0.7"/><path d="M343,265.75h14v1h-14Z" fill="white" opacity="0.7"/><path d="M283,149.5h14v1h-14Z" fill="white" opacity="0.7"/><path d="M303,197h14v1h-14Z" fill="white" opacity="0.7"/><path d="M323,260.75h14v1h-14Z" fill="white" opacity="0.7"/><path d="M43,244.5h14v1h-14Z" fill="white" opacity="0.7"/><path d="M183,137h14v1h-14Z" fill="white" opacity="0.7"/><path d="M203,224.5h14v1h-14Z" fill="white" opacity="0.7"/><path d="M143,218.25000000000003h14v1h-14Z" fill="white" opacity="0.7"/><path d="M223,174.49999999999997h14v1h-14Z" fill="white" opacity="0.7"/><path d="M23,149.5h14v1h-14Z" fill="white" opacity="0.7"/><path d="M3,195.75h14v1h-14Z" fill="white" opacity="0.7"/></g></g><path class="foreground" aria-hidden="true" d="" display="none"/></g></g></g></svg>