<svg xmlns="http://www.w3.org/2000/svg" xmlns:xlink="http://www.w3.org/1999/xlink" version="1.1" class="marks" width="129" height="369" viewBox="0 0 129 369"><rect width="129" height="369" fill="white"/><g fill="none" stroke-miterlimit="10" transform="translate(53,10)"><g class="mark-group role-frame root" role="graphics-object" aria-roledescription="group mark container"><g transform="translate(0,0)"><path class="background" aria-hidden="true" d="M0.5,0.5h60v300h-60Z" stroke="#ddd"/><g><g class="mark-group role-axis" aria-hidden="true"><g transform="translate(0.5,0.5)"><path class="background" aria-hidden="true" d="M0,0h0v0h0Z" pointer-events="none"/><g><g class="mark-rule role-axis-grid" pointer-events="none"><line transform="translate(0,300)" x2="60" y2="0" stroke="#ddd" stroke-width="1" opacity="1"/><line transform="translate(0,257)" x2="60" y2="0" stroke="#ddd" stroke-width="1" opacity="1"/><line transform="translate(0,214)" x2="60" y2="0" stroke="#ddd" stroke-width="1" opacity="1"/><line transform="translate(0,171)" x2="60" y2="0" stroke="#ddd" stroke-width="1" opacity="1"/><line transform="translate(0,129)" x2="60" y2="0" stroke="#ddd" stroke-width="1" opacity="1"/><line transform="translate(0,86)" x2="60" y2="0" stroke="#ddd" stroke-width="1" opacity="1"/><line transform="translate(0,43)" x2="60" y2="0" stroke="#ddd" stroke-width="1" opacity="1"/><line transform="translate(0,0)" x2="60" y2="0" stroke="#ddd" stroke-width="1" opacity="1"/></g></g><path class="foreground" aria-hidden="true" d="" pointer-events="none" display="none"/></g></g><g class="mark-group role-axis" role="graphics-symbol" aria-roledescription="axis" aria-label="X-axis titled 'Institution Type' for a discrete scale with 3 values: Private, Public, Tribal"><g transform="translate(0.5,300.5)"><path class="background" aria-hidden="true" d="M0,0h0v0h0Z" pointer-events="none"/><g><g class="mark-rule role-axis-tick" pointer-events="none"><line transform="translate(10,0)" x2="0" y2="5" stroke="#888" stroke-width="1" opacity="1"/><line transform="translate(30,0)" x2="0" y2="5" stroke="#888" stroke-width="1" opacity="1"/><line transform="translate(50,0)" x2="0" y2="5" stroke="#888" stroke-width="1" opacity="1"/></g><g class="mark-text role-axis-label" pointer-events="none"><text text-anchor="end" transform="translate(9.5,7) rotate(270) translate(0,3)" font-family="sans-serif" font-size="10px" fill="#000" opacity="1">Private</text><text text-anchor="end" transform="translate(29.5,7) rotate(270) translate(0,3)" font-family="sans-serif" font-size="10px" fill="#000" opacity="1">Public</text><text text-anchor="end" transform="translate(49.5,7) rotate(270) translate(0,3)" font-family="sans-serif" font-size="10px" fill="#000" opacity="1">Tribal</text></g><g class="mark-rule role-axis-domain" pointer-events="none"><line transform="translate(0,0)" x2="60" y2="0" stroke="#888" stroke-width="1" opacity="1"/></g><g class="mark-text role-axis-title" pointer-events="none"><text text-anchor="middle" transform="translate(30,51.123046875)" font-family="sans-serif" font-size="11px" font-weight="bold" fill="#000" opacity="1">Institution Type</text></g></g><path class="foreground" aria-hidden="true" d="" pointer-events="none" display="none"/></g></g><g class="mark-group role-axis" role="graphics-symbol" aria-roledescription="axis" aria-label="Y-axis titled 'Enrollment' for a linear scale with values from 0 to 3,500"><g transform="translate(0.5,0.5)"><path class="background" aria-hidden="true" d="M0,0h0v0h0Z" pointer-events="none"/><g><g class="mark-rule role-axis-tick" pointer-events="none"><line transform="translate(0,300)" x2="-5" y2="0" stroke="#888" stroke-width="1" opacity="1"/><line transform="translate(0,257)" x2="-5" y2="0" stroke="#888" stroke-width="1" opacity="1"/><line transform="translate(0,214)" x2="-5" y2="0" stroke="#888" stroke-width="1" opacity="1"/><line transform="translate(0,171)" x2="-5" y2="0" stroke="#888" stroke-width="1" opacity="1"/><line transform="translate(0,129)" x2="-5" y2="0" stroke="#888" stroke-width="1" opacity="1"/><line transform="translate(0,86)" x2="-5" y2="0" stroke="#888" stroke-width="1" opacity="1"/><line transform="translate(0,43)" x2="-5" y2="0" stroke="#888" stroke-width="1" opacity="1"/><line transform="translate(0,0)" x2="-5" y2="0" stroke="#888" stroke-width="1" opacity="1"/></g><g class="mark-text role-axis-label" pointer-events="none"><text text-anchor="end" transform="translate(-7,303)" font-family="sans-serif" font-size="10px" fill="#000" opacity="1">0</text><text text-anchor="end" transform="translate(-7,260.14285714285717)" font-family="sans-serif" font-size="10px" fill="#000" opacity="1">500</text><text text-anchor="end" transform="translate(-7,217.28571428571428)" font-family="sans-serif" font-size="10px" fill="#000" opacity="1">1,000</text><text text-anchor="end" transform="translate(-7,174.42857142857142)" font-family="sans-serif" font-size="10px" fill="#000" opacity="1">1,500</text><text text-anchor="end" transform="translate(-7,131.57142857142858)" font-family="sans-serif" font-size="10px" fill="#000" opacity="1">2,000</text><text text-anchor="end" transform="translate(-7,88.71428571428571)" font-family="sans-serif" font-size="10px" fill="#000" opacity="1">2,500</text><text text-anchor="end" transform="translate(-7,45.85714285714287)" font-family="sans-serif" font-size="10px" fill="#000" opacity="1">3,000</text><text text-anchor="end" transform="translate(-7,3)" font-family="sans-serif" font-size="10px" fill="#000" opacity="1">3,500</text></g><g class="mark-rule role-axis-domain" pointer-events="none"><line transform="translate(0,300)" x2="0" y2="-300" stroke="#888" stroke-width="1" opacity="1"/></g><g class="mark-text role-axis-title" pointer-events="none"><text text-anchor="middle" transform="translate(-36.0244140625,150) rotate(-90) translate(0,-2)" font-family="sans-serif" font-size="11px" font-weight="bold" fill="#000" opacity="1">Enrollment</text></g></g><path class="foreground" aria-hidden="true" d="" pointer-events="none" display="none"/></g></g><g class="mark-symbol role-mark layer_0_layer_0_marks" role="graphics-object" aria-roledescription="symbol mark container"><path aria-label="Type: Private; Enrollment: 2600" role="graphics-symbol" aria-roledescription="point" transform="translate(10,77.14285714285714)" d="M2.739,0A2.739,2.739,0,1,1,-2.739,0A2.739,2.739,0,1,1,2.739,0" stroke="#4c78a8" stroke-width="2" opacity="0.7"/></g><g class="mark-rule role-mark layer_0_layer_1_layer_0_marks" aria-hidden="true"><line transform="translate(10,247.20000000000002)" x2="0" y2="-9.342857142857184" stroke="black"/><line transform="translate(30,229.28571428571428)" x2="0" y2="-22.071428571428555" stroke="black"/><line transform="translate(50,214.28571428571428)" x2="0" y2="0" stroke="black"/></g><g class="mark-rule role-mark layer_0_layer_1_layer_1_marks" aria-hidden="true"><line transform="translate(10,204.21428571428572)" x2="0" y2="-7.071428571428584" stroke="black"/><line transform="translate(30,109.62857142857143)" x2="0" y2="-75.5142857142857" stroke="black"/><line transform="translate(50,214.28571428571428)" x2="0" y2="0" stroke="black"/></g><g class="mark-rect role-mark layer_1_layer_0_marks" role="graphics-object" aria-roledescription="rect mark container"><path aria-label="Type: Private; Enrollment: 725; upper_box_Enrollment: 1117.5; Max of Enrollment: 2600; Q3 of Enrollment: 1117.5; Median of Enrollment: 967; Q1 of Enrollment: 725; Min of Enrollment: 616" role="graphics-symbol" aria-roledescription="box" d="M3,204.21428571428572h14v33.64285714285711h-14Z" fill="#4c78a8"/><path aria-label="Type: Public; Enrollment: 1082.5; upper_box_Enrollment: 2221; Max of Enrollment: 3102; Q3 of Enrollment: 2221; Median of Enrollment: 1340; Q1 of Enrollment: 1082.5; Min of Enrollment: 825" role="graphics-symbol" aria-roledescription="box" d="M23,109.62857142857143h14v97.58571428571429h-14Z" fill="#4c78a8"/><path aria-label="Type: Tribal; Enrollment: 1000; upper_box_Enrollment: 1000; Max of Enrollment: 1000; Q3 of Enrollment: 1000; Median of Enrollment: 1000; Q1 of Enrollment: 1000; Min of Enrollment: 1000" role="graphics-symbol" aria-roledescription="box" d="M43,214.28571428571428h14v0h-14Z" fill="#4c78a8"/></g><g class="mark-rect role-mark layer_1_layer_1_marks" aria-hidden="true"><path d="M3,216.61428571428573h14v1h-14Z" fill="white" opacity="0.7"/><path d="M23,184.64285714285717h14v1h-14Z" fill="white" opacity="0.7"/><path d="M43,213.78571428571428h14v1h-14Z" fill="white" opacity="0.7"/></g></g><path class="foreground" aria-hidden="true" d="" display="none"/></g></g></g></svg>