<svg xmlns="http://www.w3.org/2000/svg" xmlns:xlink="http://www.w3.org/1999/xlink" version="1.1" class="marks" width="204" height="343" viewBox="0 0 204 343"><rect width="204" height="343" fill="white"/><g fill="none" stroke-miterlimit="10" transform="translate(39,10)"><g class="mark-group role-frame root" role="graphics-object" aria-roledescription="group mark container"><g transform="translate(0,0)"><path class="background" aria-hidden="true" d="M0.5,0.5h160v300h-160Z" stroke="#ddd"/><g><g class="mark-group role-axis" aria-hidden="true"><g transform="translate(0.5,0.5)"><path class="background" aria-hidden="true" d="M0,0h0v0h0Z" pointer-events="none"/><g><g class="mark-rule role-axis-grid" pointer-events="none"><line transform="translate(0,300)" x2="160" y2="0" stroke="#ddd" stroke-width="1" opacity="1"/><line transform="translate(0,270)" x2="160" y2="0" stroke="#ddd" stroke-width="1" opacity="1"/><line transform="translate(0,240)" x2="160" y2="0" stroke="#ddd" stroke-width="1" opacity="1"/><line transform="translate(0,210)" x2="160" y2="0" stroke="#ddd" stroke-width="1" opacity="1"/><line transform="translate(0,180)" x2="160" y2="0" stroke="#ddd" stroke-width="1" opacity="1"/><line transform="translate(0,150)" x2="160" y2="0" stroke="#ddd" stroke-width="1" opacity="1"/><line transform="translate(0,120)" x2="160" y2="0" stroke="#ddd" stroke-width="1" opacity="1"/><line transform="translate(0,90)" x2="160" y2="0" stroke="#ddd" stroke-width="1" opacity="1"/><line transform="translate(0,60)" x2="160" y2="0" stroke="#ddd" stroke-width="1" opacity="1"/><line transform="translate(0,30)" x2="160" y2="0" stroke="#ddd" stroke-width="1" opacity="1"/><line transform="translate(0,0)" x2="160" y2="0" stroke="#ddd" stroke-width="1" opacity="1"/></g></g><path class="foreground" aria-hidden="true" d="" pointer-events="none" display="none"/></g></g><g class="mark-group role-axis" role="graphics-symbol" aria-roledescription="axis" aria-label="X-axis titled 'School_id' for a discrete scale with 8 values: 1, 2, 3, 4, 5, ending with 8"><g transform="translate(0.5,300.5)"><path class="background" aria-hidden="true" d="M0,0h0v0h0Z" pointer-events="none"/><g><g class="mark-rule role-axis-tick" pointer-events="none"><line transform="translate(10,0)" x2="0" y2="5" stroke="#888" stroke-width="1" opacity="1"/><line transform="translate(30,0)" x2="0" y2="5" stroke="#888" stroke-width="1" opacity="1"/><line transform="translate(50,0)" x2="0" y2="5" stroke="#888" stroke-width="1" opacity="1"/><line transform="translate(70,0)" x2="0" y2="5" stroke="#888" stroke-width="1" opacity="1"/><line transform="translate(90,0)" x2="0" y2="5" stroke="#888" stroke-width="1" opacity="1"/><line transform="translate(110,0)" x2="0" y2="5" stroke="#888" stroke-width="1" opacity="1"/><line transform="translate(130,0)" x2="0" y2="5" stroke="#888" stroke-width="1" opacity="1"/><line transform="translate(150,0)" x2="0" y2="5" stroke="#888" stroke-width="1" opacity="1"/></g><g class="mark-text role-axis-label" pointer-events="none"><text text-anchor="end" transform="translate(9.5,7) rotate(270) translate(0,3)" font-family="sans-serif" font-size="10px" fill="#000" opacity="1">1</text><text text-anchor="end" transform="translate(29.5,7) rotate(270) translate(0,3)" font-family="sans-serif" font-size="10px" fill="#000" opacity="1">2</text><text text-anchor="end" transform="translate(49.5,7) rotate(270) translate(0,3)" font-family="sans-serif" font-size="10px" fill="#000" opacity="1">3</text><text text-anchor="end" transform="translate(69.5,7) rotate(270) translate(0,3)" font-family="sans-serif" font-size="10px" fill="#000" opacity="1">4</text><text text-anchor="end" transform="translate(89.5,7) rotate(270) translate(0,3)" font-family="sans-serif" font-size="10px" fill="#000" opacity="1">5</text><text text-anchor="end" transform="translate(109.5,7) rotate(270) translate(0,3)" font-family="sans-serif" font-size="10px" fill="#000" opacity="1">6</text><text text-anchor="end" transform="translate(129.5,7) rotate(270) translate(0,3)" font-family="sans-serif" font-size="10px" fill="#000" opacity="1">7</text><text text-anchor="end" transform="translate(149.5,7) rotate(270) translate(0,3)" font-family="sans-serif" font-size="10px" fill="#000" opacity="1">8</text></g><g class="mark-rule role-axis-domain" pointer-events="none"><line transform="translate(0,0)" x2="160" y2="0" stroke="#888" stroke-width="1" opacity="1"/></g><g class="mark-text role-axis-title" pointer-events="none"><text text-anchor="middle" transform="translate(80,25.5615234375)" font-family="sans-serif" font-size="11px" font-weight="bold" fill="#000" opacity="1">School_id</text></g></g><path class="foreground" aria-hidden="true" d="" pointer-events="none" display="none"/></g></g><g class="mark-group role-axis" role="graphics-symbol" aria-roledescription="axis" aria-label="Y-axis titled 'amount' for a linear scale with values from 0 to 10"><g transform="translate(0.5,0.5)"><path class="background" aria-hidden="true" d="M0,0h0v0h0Z" pointer-events="none"/><g><g class="mark-rule role-axis-tick" pointer-events="none"><line transform="translate(0,300)" x2="-5" y2="0" stroke="#888" stroke-width="1" opacity="1"/><line transform="translate(0,270)" x2="-5" y2="0" stroke="#888" stroke-width="1" opacity="1"/><line transform="translate(0,240)" x2="-5" y2="0" stroke="#888" stroke-width="1" opacity="1"/><line transform="translate(0,210)" x2="-5" y2="0" stroke="#888" stroke-width="1" opacity="1"/><line transform="translate(0,180)" x2="-5" y2="0" stroke="#888" stroke-width="1" opacity="1"/><line transform="translate(0,150)" x2="-5" y2="0" stroke="#888" stroke-width="1" opacity="1"/><line transform="translate(0,120)" x2="-5" y2="0" stroke="#888" stroke-width="1" opacity="1"/><line transform="translate(0,90)" x2="-5" y2="0" stroke="#888" stroke-width="1" opacity="1"/><line transform="translate(0,60)" x2="-5" y2="0" stroke="#888" stroke-width="1" opacity="1"/><line transform="translate(0,30)" x2="-5" y2="0" stroke="#888" stroke-width="1" opacity="1"/><line transform="translate(0,0)" x2="-5" y2="0" stroke="#888" stroke-width="1" opacity="1"/></g><g class="mark-text role-axis-label" pointer-events="none"><text text-anchor="end" transform="translate(-7,303)" font-family="sans-serif" font-size="10px" fill="#000" opacity="1">0</text><text text-anchor="end" transform="translate(-7,273)" font-family="sans-serif" font-size="10px" fill="#000" opacity="1">1</text><text text-anchor="end" transform="translate(-7,243)" font-family="sans-serif" font-size="10px" fill="#000" opacity="1">2</text><text text-anchor="end" transform="translate(-7,213)" font-family="sans-serif" font-size="10px" fill="#000" opacity="1">3</text><text text-anchor="end" transform="translate(-7,183)" font-family="sans-serif" font-size="10px" fill="#000" opacity="1">4</text><text text-anchor="end" transform="translate(-7,153)" font-family="sans-serif" font-size="10px" fill="#000" opacity="1">5</text><text text-anchor="end" transform="translate(-7,123)" font-family="sans-serif" font-size="10px" fill="#000" opacity="1">6</text><text text-anchor="end" transform="translate(-7,93.00000000000001)" font-family="sans-serif" font-size="10px" fill="#000" opacity="1">7</text><text text-anchor="end" transform="translate(-7,62.999999999999986)" font-family="sans-serif" font-size="10px" fill="#000" opacity="1">8</text><text text-anchor="end" transform="translate(-7,32.99999999999999)" font-family="sans-serif" font-size="10px" fill="#000" opacity="1">9</text><text text-anchor="end" transform="translate(-7,3)" font-family="sans-serif" font-size="10px" fill="#000" opacity="1">10</text></g><g class="mark-rule role-axis-domain" pointer-events="none"><line transform="translate(0,300)" x2="0" y2="-300" stroke="#888" stroke-width="1" opacity="1"/></g><g class="mark-text role-axis-title" pointer-events="none"><text text-anchor="middle" transform="translate(-22.123046875,150) rotate(-90) translate(0,-2)" font-family="sans-serif" font-size="11px" font-weight="bold" fill="#000" opacity="1">amount</text></g></g><path class="foreground" aria-hidden="true" d="" pointer-events="none" display="none"/></g></g><g class="mark-symbol role-mark layer_0_layer_0_marks" role="graphics-symbol" aria-roledescription="symbol mark container"/><g class="mark-rule role-mark layer_0_layer_1_layer_0_marks" aria-hidden="true"><line transform="translate(10,14.700000000000014)" x2="0" y2="0" stroke="black"/><line transform="translate(30,5.100000000000005)" x2="0" y2="0" stroke="black"/><line transform="translate(50,28.499999999999993)" x2="0" y2="-7.500000000000007" stroke="black"/><line transform="translate(70,34.5)" x2="0" y2="-1.04999999999999" stroke="black"/><line transform="translate(90,44.10000000000001)" x2="0" y2="0" stroke="black"/><line transform="translate(110,47.10000000000001)" x2="0" y2="0" stroke="black"/><line transform="translate(130,35.4)" x2="0" y2="0" stroke="black"/><line transform="translate(150,50.10000000000001)" x2="0" y2="0" stroke="black"/></g><g class="mark-rule role-mark layer_0_layer_1_layer_1_marks" aria-hidden="true"><line transform="translate(10,14.700000000000014)" x2="0" y2="0" stroke="black"/><line transform="translate(30,5.100000000000005)" x2="0" y2="0" stroke="black"/><line transform="translate(50,10.799999999999976)" x2="0" y2="-2.700000000000003" stroke="black"/><line transform="translate(70,31.350000000000012)" x2="0" y2="-1.0500000000000185" stroke="black"/><line transform="translate(90,44.10000000000001)" x2="0" y2="0" stroke="black"/><line transform="translate(110,47.10000000000001)" x2="0" y2="0" stroke="black"/><line transform="translate(130,35.4)" x2="0" y2="0" stroke="black"/><line transform="translate(150,50.10000000000001)" x2="0" y2="0" stroke="black"/></g><g class="mark-rect role-mark layer_1_layer_0_marks" role="graphics-object" aria-roledescription="rect mark container"><path aria-label="School_id: 1; amount: 9.51; upper_box_amount: 9.51; Max of amount: 9.51; Q3 of amount: 9.51; Median of amount: 9.51; Q1 of amount: 9.51; Min of amount: 9.51" role="graphics-symbol" aria-roledescription="box" d="M3,14.700000000000014h14v0h-14Z" fill="#4c78a8"/><path aria-label="School_id: 2; amount: 9.83; upper_box_amount: 9.83; Max of amount: 9.83; Q3 of amount: 9.83; Median of amount: 9.83; Q1 of amount: 9.83; Min of amount: 9.83" role="graphics-symbol" aria-roledescription="box" d="M23,5.100000000000005h14v0h-14Z" fill="#4c78a8"/><path aria-label="School_id: 3; amount: 9.3; upper_box_amount: 9.64; Max of amount: 9.73; Q3 of amount: 9.64; Median of amount: 9.55; Q1 of amount: 9.3; Min of amount: 9.05" role="graphics-symbol" aria-roledescription="box" d="M43,10.799999999999976h14v10.20000000000001h-14Z" fill="#4c78a8"/><path aria-label="School_id: 4; amount: 8.885; upper_box_amount: 8.955; Max of amount: 8.99; Q3 of amount: 8.955; Median of amount: 8.92; Q1 of amount: 8.885; Min of amount: 8.85" role="graphics-symbol" aria-roledescription="box" d="M63,31.350000000000012h14v2.099999999999998h-14Z" fill="#4c78a8"/><path aria-label="School_id: 5; amount: 8.53; upper_box_amount: 8.53; Max of amount: 8.53; Q3 of amount: 8.53; Median of amount: 8.53; Q1 of amount: 8.53; Min of amount: 8.53" role="graphics-symbol" aria-roledescription="box" d="M83,44.10000000000001h14v0h-14Z" fill="#4c78a8"/><path aria-label="School_id: 6; amount: 8.43; upper_box_amount: 8.43; Max of amount: 8.43; Q3 of amount: 8.43; Median of amount: 8.43; Q1 of amount: 8.43; Min of amount: 8.43" role="graphics-symbol" aria-roledescription="box" d="M103,47.10000000000001h14v0h-14Z" fill="#4c78a8"/><path aria-label="School_id: 7; amount: 8.82; upper_box_amount: 8.82; Max of amount: 8.82; Q3 of amount: 8.82; Median of amount: 8.82; Q1 of amount: 8.82; Min of amount: 8.82" role="graphics-symbol" aria-roledescription="box" d="M123,35.4h14v0h-14Z" fill="#4c78a8"/><path aria-label="School_id: 8; amount: 8.33; upper_box_amount: 8.33; Max of amount: 8.33; Q3 of amount: 8.33; Median of amount: 8.33; Q1 of amount: 8.33; Min of amount: 8.33" role="graphics-symbol" aria-roledescription="box" d="M143,50.10000000000001h14v0h-14Z" fill="#4c78a8"/></g><g class="mark-rect role-mark layer_1_layer_1_marks" aria-hidden="true"><path d="M3,14.200000000000014h14v1h-14Z" fill="white" opacity="0.7"/><path d="M23,4.600000000000005h14v1h-14Z" fill="white" opacity="0.7"/><path d="M43,12.999999999999979h14v1h-14Z" fill="white" opacity="0.7"/><path d="M63,31.9h14v1h-14Z" fill="white" opacity="0.7"/><path d="M83,43.60000000000001h14v1h-14Z" fill="white" opacity="0.7"/><path d="M103,46.60000000000001h14v1h-14Z" fill="white" opacity="0.7"/><path d="M123,34.9h14v1h-14Z" fill="white" opacity="0.7"/><path d="M143,49.60000000000001h14v1h-14Z" fill="white" opacity="0.7"/></g></g><path class="foreground" aria-hidden="true" d="" display="none"/></g></g></g></svg>