<svg xmlns="http://www.w3.org/2000/svg" xmlns:xlink="http://www.w3.org/1999/xlink" version="1.1" class="marks" width="389" height="434" viewBox="0 0 389 434"><rect width="389" height="434" fill="white"/><g fill="none" stroke-miterlimit="10" transform="translate(44,10)"><g class="mark-group role-frame root" role="graphics-object" aria-roledescription="group mark container"><g transform="translate(0,0)"><path class="background" aria-hidden="true" d="M0.5,0.5h340v300h-340Z" stroke="#ddd"/><g><g class="mark-group role-axis" aria-hidden="true"><g transform="translate(0.5,0.5)"><path class="background" aria-hidden="true" d="M0,0h0v0h0Z" pointer-events="none"/><g><g class="mark-rule role-axis-grid" pointer-events="none"><line transform="translate(0,300)" x2="340" y2="0" stroke="#ddd" stroke-width="1" opacity="1"/><line transform="translate(0,270)" x2="340" y2="0" stroke="#ddd" stroke-width="1" opacity="1"/><line transform="translate(0,240)" x2="340" y2="0" stroke="#ddd" stroke-width="1" opacity="1"/><line transform="translate(0,210)" x2="340" y2="0" stroke="#ddd" stroke-width="1" opacity="1"/><line transform="translate(0,180)" x2="340" y2="0" stroke="#ddd" stroke-width="1" opacity="1"/><line transform="translate(0,150)" x2="340" y2="0" stroke="#ddd" stroke-width="1" opacity="1"/><line transform="translate(0,120)" x2="340" y2="0" stroke="#ddd" stroke-width="1" opacity="1"/><line transform="translate(0,90)" x2="340" y2="0" stroke="#ddd" stroke-width="1" opacity="1"/><line transform="translate(0,60)" x2="340" y2="0" stroke="#ddd" stroke-width="1" opacity="1"/><line transform="translate(0,30)" x2="340" y2="0" stroke="#ddd" stroke-width="1" opacity="1"/><line transform="translate(0,0)" x2="340" y2="0" stroke="#ddd" stroke-width="1" opacity="1"/></g></g><path class="foreground" aria-hidden="true" d="" pointer-events="none" display="none"/></g></g><g class="mark-group role-axis" role="graphics-symbol" aria-roledescription="axis" aria-label="X-axis titled 'Grape' for a discrete scale with 17 values: Barbera, Cabernet Franc, Cabernet Sauvingnon, Chardonnay, Grenache, ending with Zinfandel"><g transform="translate(0.5,300.5)"><path class="background" aria-hidden="true" d="M0,0h0v0h0Z" pointer-events="none"/><g><g class="mark-rule role-axis-tick" pointer-events="none"><line transform="translate(10,0)" x2="0" y2="5" stroke="#888" stroke-width="1" opacity="1"/><line transform="translate(30,0)" x2="0" y2="5" stroke="#888" stroke-width="1" opacity="1"/><line transform="translate(50,0)" x2="0" y2="5" stroke="#888" stroke-width="1" opacity="1"/><line transform="translate(70,0)" x2="0" y2="5" stroke="#888" stroke-width="1" opacity="1"/><line transform="translate(90,0)" x2="0" y2="5" stroke="#888" stroke-width="1" opacity="1"/><line transform="translate(110,0)" x2="0" y2="5" stroke="#888" stroke-width="1" opacity="1"/><line transform="translate(130,0)" x2="0" y2="5" stroke="#888" stroke-width="1" opacity="1"/><line transform="translate(150,0)" x2="0" y2="5" stroke="#888" stroke-width="1" opacity="1"/><line transform="translate(170,0)" x2="0" y2="5" stroke="#888" stroke-width="1" opacity="1"/><line transform="translate(190,0)" x2="0" y2="5" stroke="#888" stroke-width="1" opacity="1"/><line transform="translate(210,0)" x2="0" y2="5" stroke="#888" stroke-width="1" opacity="1"/><line transform="translate(230,0)" x2="0" y2="5" stroke="#888" stroke-width="1" opacity="1"/><line transform="translate(250,0)" x2="0" y2="5" stroke="#888" stroke-width="1" opacity="1"/><line transform="translate(270,0)" x2="0" y2="5" stroke="#888" stroke-width="1" opacity="1"/><line transform="translate(290,0)" x2="0" y2="5" stroke="#888" stroke-width="1" opacity="1"/><line transform="translate(310,0)" x2="0" y2="5" stroke="#888" stroke-width="1" opacity="1"/><line transform="translate(330,0)" x2="0" y2="5" stroke="#888" stroke-width="1" opacity="1"/></g><g class="mark-text role-axis-label" pointer-events="none"><text text-anchor="end" transform="translate(9.5,7) rotate(270) translate(0,3)" font-family="sans-serif" font-size="10px" fill="#000" opacity="1">Barbera</text><text text-anchor="end" transform="translate(29.5,7) rotate(270) translate(0,3)" font-family="sans-serif" font-size="10px" fill="#000" opacity="1">Cabernet Franc</text><text text-anchor="end" transform="translate(49.5,7) rotate(270) translate(0,3)" font-family="sans-serif" font-size="10px" fill="#000" opacity="1">Cabernet Sauvingnon</text><text text-anchor="end" transform="translate(69.5,7) rotate(270) translate(0,3)" font-family="sans-serif" font-size="10px" fill="#000" opacity="1">Chardonnay</text><text text-anchor="end" transform="translate(89.5,7) rotate(270) translate(0,3)" font-family="sans-serif" font-size="10px" fill="#000" opacity="1">Grenache</text><text text-anchor="end" transform="translate(109.5,7) rotate(270) translate(0,3)" font-family="sans-serif" font-size="10px" fill="#000" opacity="1">Malbec</text><text text-anchor="end" transform="translate(129.5,7) rotate(270) translate(0,3)" font-family="sans-serif" font-size="10px" fill="#000" opacity="1">Marsanne</text><text text-anchor="end" transform="translate(149.5,7) rotate(270) translate(0,3)" font-family="sans-serif" font-size="10px" fill="#000" opacity="1">Merlot</text><text text-anchor="end" transform="translate(169.5,7) rotate(270) translate(0,3)" font-family="sans-serif" font-size="10px" fill="#000" opacity="1">Petite Sirah</text><text text-anchor="end" transform="translate(189.5,7) rotate(270) translate(0,3)" font-family="sans-serif" font-size="10px" fill="#000" opacity="1">Pinot Noir</text><text text-anchor="end" transform="translate(209.5,7) rotate(270) translate(0,3)" font-family="sans-serif" font-size="10px" fill="#000" opacity="1">Roussanne</text><text text-anchor="end" transform="translate(229.5,7) rotate(270) translate(0,3)" font-family="sans-serif" font-size="10px" fill="#000" opacity="1">Sangiovese</text><text text-anchor="end" transform="translate(249.5,7) rotate(270) translate(0,3)" font-family="sans-serif" font-size="10px" fill="#000" opacity="1">Sauvignon Blanc</text><text text-anchor="end" transform="translate(269.5,7) rotate(270) translate(0,3)" font-family="sans-serif" font-size="10px" fill="#000" opacity="1">Syrah</text><text text-anchor="end" transform="translate(289.5,7) rotate(270) translate(0,3)" font-family="sans-serif" font-size="10px" fill="#000" opacity="1">Tempranillo</text><text text-anchor="end" transform="translate(309.5,7) rotate(270) translate(0,3)" font-family="sans-serif" font-size="10px" fill="#000" opacity="1">Viognier</text><text text-anchor="end" transform="translate(329.5,7) rotate(270) translate(0,3)" font-family="sans-serif" font-size="10px" fill="#000" opacity="1">Zinfandel</text></g><g class="mark-rule role-axis-domain" pointer-events="none"><line transform="translate(0,0)" x2="340" y2="0" stroke="#888" stroke-width="1" opacity="1"/></g><g class="mark-text role-axis-title" pointer-events="none"><text text-anchor="middle" transform="translate(170,116.73828125)" font-family="sans-serif" font-size="11px" font-weight="bold" fill="#000" opacity="1">Grape</text></g></g><path class="foreground" aria-hidden="true" d="" pointer-events="none" display="none"/></g></g><g class="mark-group role-axis" role="graphics-symbol" aria-roledescription="axis" aria-label="Y-axis titled 'Score' for a linear scale with values from 0 to 100"><g transform="translate(0.5,0.5)"><path class="background" aria-hidden="true" d="M0,0h0v0h0Z" pointer-events="none"/><g><g class="mark-rule role-axis-tick" pointer-events="none"><line transform="translate(0,300)" x2="-5" y2="0" stroke="#888" stroke-width="1" opacity="1"/><line transform="translate(0,270)" x2="-5" y2="0" stroke="#888" stroke-width="1" opacity="1"/><line transform="translate(0,240)" x2="-5" y2="0" stroke="#888" stroke-width="1" opacity="1"/><line transform="translate(0,210)" x2="-5" y2="0" stroke="#888" stroke-width="1" opacity="1"/><line transform="translate(0,180)" x2="-5" y2="0" stroke="#888" stroke-width="1" opacity="1"/><line transform="translate(0,150)" x2="-5" y2="0" stroke="#888" stroke-width="1" opacity="1"/><line transform="translate(0,120)" x2="-5" y2="0" stroke="#888" stroke-width="1" opacity="1"/><line transform="translate(0,90)" x2="-5" y2="0" stroke="#888" stroke-width="1" opacity="1"/><line transform="translate(0,60)" x2="-5" y2="0" stroke="#888" stroke-width="1" opacity="1"/><line transform="translate(0,30)" x2="-5" y2="0" stroke="#888" stroke-width="1" opacity="1"/><line transform="translate(0,0)" x2="-5" y2="0" stroke="#888" stroke-width="1" opacity="1"/></g><g class="mark-text role-axis-label" pointer-events="none"><text text-anchor="end" transform="translate(-7,303)" font-family="sans-serif" font-size="10px" fill="#000" opacity="1">0</text><text text-anchor="end" transform="translate(-7,273)" font-family="sans-serif" font-size="10px" fill="#000" opacity="1">10</text><text text-anchor="end" transform="translate(-7,243)" font-family="sans-serif" font-size="10px" fill="#000" opacity="1">20</text><text text-anchor="end" transform="translate(-7,213)" font-family="sans-serif" font-size="10px" fill="#000" opacity="1">30</text><text text-anchor="end" transform="translate(-7,183)" font-family="sans-serif" font-size="10px" fill="#000" opacity="1">40</text><text text-anchor="end" transform="translate(-7,153)" font-family="sans-serif" font-size="10px" fill="#000" opacity="1">50</text><text text-anchor="end" transform="translate(-7,123)" font-family="sans-serif" font-size="10px" fill="#000" opacity="1">60</text><text text-anchor="end" transform="translate(-7,93.00000000000001)" font-family="sans-serif" font-size="10px" fill="#000" opacity="1">70</text><text text-anchor="end" transform="translate(-7,62.999999999999986)" font-family="sans-serif" font-size="10px" fill="#000" opacity="1">80</text><text text-anchor="end" transform="translate(-7,32.99999999999999)" font-family="sans-serif" font-size="10px" fill="#000" opacity="1">90</text><text text-anchor="end" transform="translate(-7,3)" font-family="sans-serif" font-size="10px" fill="#000" opacity="1">100</text></g><g class="mark-rule role-axis-domain" pointer-events="none"><line transform="translate(0,300)" x2="0" y2="-300" stroke="#888" stroke-width="1" opacity="1"/></g><g class="mark-text role-axis-title" pointer-events="none"><text text-anchor="middle" transform="translate(-27.6845703125,150) rotate(-90) translate(0,-2)" font-family="sans-serif" font-size="11px" font-weight="bold" fill="#000" opacity="1">Score</text></g></g><path class="foreground" aria-hidden="true" d="" pointer-events="none" display="none"/></g></g><g class="mark-symbol role-mark layer_0_layer_0_marks" role="graphics-object" aria-roledescription="symbol mark container"><path aria-label="Grape: Petite Sirah; Score: 85" role="graphics-symbol" aria-roledescription="point" transform="translate(170,45.00000000000001)" d="M2.739,0A2.739,2.739,0,1,1,-2.739,0A2.739,2.739,0,1,1,2.739,0" stroke="#4c78a8" stroke-width="2" opacity="0.7"/><path aria-label="Grape: Chardonnay; Score: 86" role="graphics-symbol" aria-roledescription="point" transform="translate(70,42.00000000000001)" d="M2.739,0A2.739,2.739,0,1,1,-2.739,0A2.739,2.739,0,1,1,2.739,0" stroke="#4c78a8" stroke-width="2" opacity="0.7"/><path aria-label="Grape: Chardonnay; Score: 86" role="graphics-symbol" aria-roledescription="point" transform="translate(70,42.00000000000001)" d="M2.739,0A2.739,2.739,0,1,1,-2.739,0A2.739,2.739,0,1,1,2.739,0" stroke="#4c78a8" stroke-width="2" opacity="0.7"/><path aria-label="Grape: Zinfandel; Score: 95" role="graphics-symbol" aria-roledescription="point" transform="translate(330,15.000000000000014)" d="M2.739,0A2.739,2.739,0,1,1,-2.739,0A2.739,2.739,0,1,1,2.739,0" stroke="#4c78a8" stroke-width="2" opacity="0.7"/><path aria-label="Grape: Zinfandel; Score: 94" role="graphics-symbol" aria-roledescription="point" transform="translate(330,18.000000000000014)" d="M2.739,0A2.739,2.739,0,1,1,-2.739,0A2.739,2.739,0,1,1,2.739,0" stroke="#4c78a8" stroke-width="2" opacity="0.7"/><path aria-label="Grape: Zinfandel; Score: 82" role="graphics-symbol" aria-roledescription="point" transform="translate(330,54.000000000000014)" d="M2.739,0A2.739,2.739,0,1,1,-2.739,0A2.739,2.739,0,1,1,2.739,0" stroke="#4c78a8" stroke-width="2" opacity="0.7"/><path aria-label="Grape: Zinfandel; Score: 82" role="graphics-symbol" aria-roledescription="point" transform="translate(330,54.000000000000014)" d="M2.739,0A2.739,2.739,0,1,1,-2.739,0A2.739,2.739,0,1,1,2.739,0" stroke="#4c78a8" stroke-width="2" opacity="0.7"/><path aria-label="Grape: Zinfandel; Score: 78" role="graphics-symbol" aria-roledescription="point" transform="translate(330,65.99999999999999)" d="M2.739,0A2.739,2.739,0,1,1,-2.739,0A2.739,2.739,0,1,1,2.739,0" stroke="#4c78a8" stroke-width="2" opacity="0.7"/><path aria-label="Grape: Cabernet Sauvingnon; Score: 80" role="graphics-symbol" aria-roledescription="point" transform="translate(50,59.999999999999986)" d="M2.739,0A2.739,2.739,0,1,1,-2.739,0A2.739,2.739,0,1,1,2.739,0" stroke="#4c78a8" stroke-width="2" opacity="0.7"/><path aria-label="Grape: Sauvignon Blanc; Score: 93" role="graphics-symbol" aria-roledescription="point" transform="translate(250,20.999999999999986)" d="M2.739,0A2.739,2.739,0,1,1,-2.739,0A2.739,2.739,0,1,1,2.739,0" stroke="#4c78a8" stroke-width="2" opacity="0.7"/><path aria-label="Grape: Chardonnay; Score: 81" role="graphics-symbol" aria-roledescription="point" transform="translate(70,56.999999999999986)" d="M2.739,0A2.739,2.739,0,1,1,-2.739,0A2.739,2.739,0,1,1,2.739,0" stroke="#4c78a8" stroke-width="2" opacity="0.7"/></g><g class="mark-rule role-mark layer_0_layer_1_layer_0_marks" aria-hidden="true"><line transform="translate(330,51.000000000000014)" x2="0" y2="-12.000000000000014" stroke="black"/><line transform="translate(250,45.00000000000001)" x2="0" y2="-6.000000000000007" stroke="black"/><line transform="translate(50,42.00000000000001)" x2="0" y2="-6.000000000000007" stroke="black"/><line transform="translate(190,48.00000000000001)" x2="0" y2="-12.000000000000007" stroke="black"/><line transform="translate(270,51.000000000000014)" x2="0" y2="-15.000000000000014" stroke="black"/><line transform="translate(150,51.000000000000014)" x2="0" y2="-9.000000000000007" stroke="black"/><line transform="translate(110,42.00000000000001)" x2="0" y2="0" stroke="black"/><line transform="translate(90,39)" x2="0" y2="-0.7500000000000142" stroke="black"/><line transform="translate(170,32.99999999999999)" x2="0" y2="-0.7499999999999787" stroke="black"/><line transform="translate(70,39)" x2="0" y2="-9.000000000000007" stroke="black"/><line transform="translate(290,36)" x2="0" y2="0" stroke="black"/><line transform="translate(310,29.999999999999993)" x2="0" y2="0" stroke="black"/><line transform="translate(130,29.999999999999993)" x2="0" y2="0" stroke="black"/><line transform="translate(30,23.99999999999999)" x2="0" y2="0" stroke="black"/><line transform="translate(210,26.99999999999999)" x2="0" y2="0" stroke="black"/><line transform="translate(230,36)" x2="0" y2="0" stroke="black"/><line transform="translate(10,39)" x2="0" y2="0" stroke="black"/></g><g class="mark-rule role-mark layer_0_layer_1_layer_1_marks" aria-hidden="true"><line transform="translate(330,30.75000000000001)" x2="0" y2="-9.750000000000025" stroke="black"/><line transform="translate(250,32.99999999999999)" x2="0" y2="-9.000000000000004" stroke="black"/><line transform="translate(50,20.999999999999986)" x2="0" y2="-11.999999999999979" stroke="black"/><line transform="translate(190,20.999999999999986)" x2="0" y2="-5.999999999999972" stroke="black"/><line transform="translate(270,20.999999999999986)" x2="0" y2="-14.99999999999998" stroke="black"/><line transform="translate(150,36)" x2="0" y2="-3.000000000000007" stroke="black"/><line transform="translate(110,42.00000000000001)" x2="0" y2="0" stroke="black"/><line transform="translate(90,22.499999999999986)" x2="0" y2="-13.499999999999979" stroke="black"/><line transform="translate(170,27.750000000000007)" x2="0" y2="-0.7500000000000178" stroke="black"/><line transform="translate(70,23.99999999999999)" x2="0" y2="-8.999999999999975" stroke="black"/><line transform="translate(290,36)" x2="0" y2="0" stroke="black"/><line transform="translate(310,29.999999999999993)" x2="0" y2="0" stroke="black"/><line transform="translate(130,29.999999999999993)" x2="0" y2="0" stroke="black"/><line transform="translate(30,23.99999999999999)" x2="0" y2="0" stroke="black"/><line transform="translate(210,26.99999999999999)" x2="0" y2="0" stroke="black"/><line transform="translate(230,36)" x2="0" y2="0" stroke="black"/><line transform="translate(10,39)" x2="0" y2="0" stroke="black"/></g><g class="mark-rect role-mark layer_1_layer_0_marks" role="graphics-object" aria-roledescription="rect mark container"><path aria-label="Grape: Zinfandel; Score: 87; upper_box_Score: 89.75; Max of Score: 95; Q3 of Score: 89.75; Median of Score: 88; Q1 of Score: 87; Min of Score: 78" role="graphics-symbol" aria-roledescription="box" d="M323,30.75000000000001h14v8.24999999999999h-14Z" fill="#4c78a8"/><path aria-label="Grape: Sauvignon Blanc; Score: 87; upper_box_Score: 89; Max of Score: 93; Q3 of Score: 89; Median of Score: 88; Q1 of Score: 87; Min of Score: 85" role="graphics-symbol" aria-roledescription="box" d="M243,32.99999999999999h14v6.000000000000007h-14Z" fill="#4c78a8"/><path aria-label="Grape: Cabernet Sauvingnon; Score: 88; upper_box_Score: 93; Max of Score: 97; Q3 of Score: 93; Median of Score: 92; Q1 of Score: 88; Min of Score: 80" role="graphics-symbol" aria-roledescription="box" d="M43,20.999999999999986h14v15.000000000000014h-14Z" fill="#4c78a8"/><path aria-label="Grape: Pinot Noir; Score: 88; upper_box_Score: 93; Max of Score: 95; Q3 of Score: 93; Median of Score: 91; Q1 of Score: 88; Min of Score: 84" role="graphics-symbol" aria-roledescription="box" d="M183,20.999999999999986h14v15.000000000000014h-14Z" fill="#4c78a8"/><path aria-label="Grape: Syrah; Score: 88; upper_box_Score: 93; Max of Score: 98; Q3 of Score: 93; Median of Score: 91; Q1 of Score: 88; Min of Score: 83" role="graphics-symbol" aria-roledescription="box" d="M263,20.999999999999986h14v15.000000000000014h-14Z" fill="#4c78a8"/><path aria-label="Grape: Merlot; Score: 86; upper_box_Score: 88; Max of Score: 89; Q3 of Score: 88; Median of Score: 87.5; Q1 of Score: 86; Min of Score: 83" role="graphics-symbol" aria-roledescription="box" d="M143,36h14v6.000000000000007h-14Z" fill="#4c78a8"/><path aria-label="Grape: Malbec; Score: 86; upper_box_Score: 86; Max of Score: 86; Q3 of Score: 86; Median of Score: 86; Q1 of Score: 86; Min of Score: 86" role="graphics-symbol" aria-roledescription="box" d="M103,42.00000000000001h14v0h-14Z" fill="#4c78a8"/><path aria-label="Grape: Grenache; Score: 87.25; upper_box_Score: 92.5; Max of Score: 97; Q3 of Score: 92.5; Median of Score: 90.5; Q1 of Score: 87.25; Min of Score: 87" role="graphics-symbol" aria-roledescription="box" d="M83,22.499999999999986h14v15.75h-14Z" fill="#4c78a8"/><path aria-label="Grape: Petite Sirah; Score: 89.25; upper_box_Score: 90.75; Max of Score: 91; Q3 of Score: 90.75; Median of Score: 90; Q1 of Score: 89.25; Min of Score: 85" role="graphics-symbol" aria-roledescription="box" d="M163,27.750000000000007h14v4.500000000000007h-14Z" fill="#4c78a8"/><path aria-label="Grape: Chardonnay; Score: 90; upper_box_Score: 92; Max of Score: 95; Q3 of Score: 92; Median of Score: 91; Q1 of Score: 90; Min of Score: 81" role="graphics-symbol" aria-roledescription="box" d="M63,23.99999999999999h14v6.0000000000000036h-14Z" fill="#4c78a8"/><path aria-label="Grape: Tempranillo; Score: 88; upper_box_Score: 88; Max of Score: 88; Q3 of Score: 88; Median of Score: 88; Q1 of Score: 88; Min of Score: 88" role="graphics-symbol" aria-roledescription="box" d="M283,36h14v0h-14Z" fill="#4c78a8"/><path aria-label="Grape: Viognier; Score: 90; upper_box_Score: 90; Max of Score: 90; Q3 of Score: 90; Median of Score: 90; Q1 of Score: 90; Min of Score: 90" role="graphics-symbol" aria-roledescription="box" d="M303,29.999999999999993h14v0h-14Z" fill="#4c78a8"/><path aria-label="Grape: Marsanne; Score: 90; upper_box_Score: 90; Max of Score: 90; Q3 of Score: 90; Median of Score: 90; Q1 of Score: 90; Min of Score: 90" role="graphics-symbol" aria-roledescription="box" d="M123,29.999999999999993h14v0h-14Z" fill="#4c78a8"/><path aria-label="Grape: Cabernet Franc; Score: 92; upper_box_Score: 92; Max of Score: 92; Q3 of Score: 92; Median of Score: 92; Q1 of Score: 92; Min of Score: 92" role="graphics-symbol" aria-roledescription="box" d="M23,23.99999999999999h14v0h-14Z" fill="#4c78a8"/><path aria-label="Grape: Roussanne; Score: 91; upper_box_Score: 91; Max of Score: 91; Q3 of Score: 91; Median of Score: 91; Q1 of Score: 91; Min of Score: 91" role="graphics-symbol" aria-roledescription="box" d="M203,26.99999999999999h14v0h-14Z" fill="#4c78a8"/><path aria-label="Grape: Sangiovese; Score: 88; upper_box_Score: 88; Max of Score: 88; Q3 of Score: 88; Median of Score: 88; Q1 of Score: 88; Min of Score: 88" role="graphics-symbol" aria-roledescription="box" d="M223,36h14v0h-14Z" fill="#4c78a8"/><path aria-label="Grape: Barbera; Score: 87; upper_box_Score: 87; Max of Score: 87; Q3 of Score: 87; Median of Score: 87; Q1 of Score: 87; Min of Score: 87" role="graphics-symbol" aria-roledescription="box" d="M3,39h14v0h-14Z" fill="#4c78a8"/></g><g class="mark-rect role-mark layer_1_layer_1_marks" aria-hidden="true"><path d="M323,35.5h14v1h-14Z" fill="white" opacity="0.7"/><path d="M243,35.5h14v1h-14Z" fill="white" opacity="0.7"/><path d="M43,23.49999999999999h14v1h-14Z" fill="white" opacity="0.7"/><path d="M183,26.49999999999999h14v1h-14Z" fill="white" opacity="0.7"/><path d="M263,26.49999999999999h14v1h-14Z" fill="white" opacity="0.7"/><path d="M143,37h14v1h-14Z" fill="white" opacity="0.7"/><path d="M103,41.50000000000001h14v1h-14Z" fill="white" opacity="0.7"/><path d="M83,27.999999999999993h14v1h-14Z" fill="white" opacity="0.7"/><path d="M163,29.499999999999993h14v1h-14Z" fill="white" opacity="0.7"/><path d="M63,26.49999999999999h14v1h-14Z" fill="white" opacity="0.7"/><path d="M283,35.5h14v1h-14Z" fill="white" opacity="0.7"/><path d="M303,29.499999999999993h14v1h-14Z" fill="white" opacity="0.7"/><path d="M123,29.499999999999993h14v1h-14Z" fill="white" opacity="0.7"/><path d="M23,23.49999999999999h14v1h-14Z" fill="white" opacity="0.7"/><path d="M203,26.49999999999999h14v1h-14Z" fill="white" opacity="0.7"/><path d="M223,35.5h14v1h-14Z" fill="white" opacity="0.7"/><path d="M3,38.5h14v1h-14Z" fill="white" opacity="0.7"/></g></g><path class="foreground" aria-hidden="true" d="" display="none"/></g></g></g></svg>