<svg xmlns="http://www.w3.org/2000/svg" xmlns:xlink="http://www.w3.org/1999/xlink" version="1.1" class="marks" width="549" height="125" viewBox="0 0 549 125"><rect width="549" height="125" fill="white"/><g fill="none" stroke-miterlimit="10" transform="translate(33,5)"><g class="mark-group role-frame root" role="graphics-object" aria-roledescription="group mark container"><g transform="translate(0,0)"><path class="background" aria-hidden="true" d="M0.5,0.5h400v40h-400Z" stroke="#ddd"/><g><g class="mark-rect role-mark marks" role="graphics-object" aria-roledescription="rect mark container"><path aria-label="dept_name: Mech. Eng.; credits: 4; Count of Records: 4" role="graphics-symbol" aria-roledescription="rect mark" d="M300,20h20v20h-20Z" fill="rgb(169, 221, 183)"/><path aria-label="dept_name: Mech. Eng.; credits: 3; Count of Records: 8" role="graphics-symbol" aria-roledescription="rect mark" d="M300,0h20v20h-20Z" fill="rgb(48, 162, 192)"/><path aria-label="dept_name: Comp. Sci.; credits: 3; Count of Records: 3" role="graphics-symbol" aria-roledescription="rect mark" d="M100,0h20v20h-20Z" fill="rgb(199, 233, 181)"/><path aria-label="dept_name: Statistics; credits: 4; Count of Records: 3" role="graphics-symbol" aria-roledescription="rect mark" d="M380,20h20v20h-20Z" fill="rgb(199, 233, 181)"/><path aria-label="dept_name: Psychology; credits: 4; Count of Records: 5" role="graphics-symbol" aria-roledescription="rect mark" d="M360,20h20v20h-20Z" fill="rgb(134, 208, 187)"/><path aria-label="dept_name: Biology; credits: 3; Count of Records: 5" role="graphics-symbol" aria-roledescription="rect mark" d="M60,0h20v20h-20Z" fill="rgb(134, 208, 187)"/><path aria-label="dept_name: Elec. Eng.; credits: 3; Count of Records: 4" role="graphics-symbol" aria-roledescription="rect mark" d="M140,0h20v20h-20Z" fill="rgb(169, 221, 183)"/><path aria-label="dept_name: Physics; credits: 3; Count of Records: 2" role="graphics-symbol" aria-roledescription="rect mark" d="M320,0h20v20h-20Z" fill="rgb(222, 242, 182)"/><path aria-label="dept_name: Cybernetics; credits: 3; Count of Records: 13" role="graphics-symbol" aria-roledescription="rect mark" d="M120,0h20v20h-20Z" fill="rgb(28, 49, 133)"/><path aria-label="dept_name: Marketing; credits: 3; Count of Records: 4" role="graphics-symbol" aria-roledescription="rect mark" d="M260,0h20v20h-20Z" fill="rgb(169, 221, 183)"/><path aria-label="dept_name: History; credits: 3; Count of Records: 7" role="graphics-symbol" aria-roledescription="rect mark" d="M220,0h20v20h-20Z" fill="rgb(69, 180, 194)"/><path aria-label="dept_name: Geology; credits: 3; Count of Records: 7" role="graphics-symbol" aria-roledescription="rect mark" d="M200,0h20v20h-20Z" fill="rgb(69, 180, 194)"/><path aria-label="dept_name: Psychology; credits: 3; Count of Records: 8" role="graphics-symbol" aria-roledescription="rect mark" d="M360,0h20v20h-20Z" fill="rgb(48, 162, 192)"/><path aria-label="dept_name: Accounting; credits: 3; Count of Records: 8" role="graphics-symbol" aria-roledescription="rect mark" d="M0,0h20v20h-20Z" fill="rgb(48, 162, 192)"/><path aria-label="dept_name: History; credits: 4; Count of Records: 2" role="graphics-symbol" aria-roledescription="rect mark" d="M220,20h20v20h-20Z" fill="rgb(222, 242, 182)"/><path aria-label="dept_name: Pol. Sci.; credits: 4; Count of Records: 5" role="graphics-symbol" aria-roledescription="rect mark" d="M340,20h20v20h-20Z" fill="rgb(134, 208, 187)"/><path aria-label="dept_name: Math; credits: 4; Count of Records: 4" role="graphics-symbol" aria-roledescription="rect mark" d="M280,20h20v20h-20Z" fill="rgb(169, 221, 183)"/><path aria-label="dept_name: Math; credits: 3; Count of Records: 6" role="graphics-symbol" aria-roledescription="rect mark" d="M280,0h20v20h-20Z" fill="rgb(99, 194, 191)"/><path aria-label="dept_name: Geology; credits: 4; Count of Records: 3" role="graphics-symbol" aria-roledescription="rect mark" d="M200,20h20v20h-20Z" fill="rgb(199, 233, 181)"/><path aria-label="dept_name: Cybernetics; credits: 4; Count of Records: 7" role="graphics-symbol" aria-roledescription="rect mark" d="M120,20h20v20h-20Z" fill="rgb(69, 180, 194)"/><path aria-label="dept_name: Finance; credits: 4; Count of Records: 7" role="graphics-symbol" aria-roledescription="rect mark" d="M180,20h20v20h-20Z" fill="rgb(69, 180, 194)"/><path aria-label="dept_name: Civil Eng.; credits: 3; Count of Records: 6" role="graphics-symbol" aria-roledescription="rect mark" d="M80,0h20v20h-20Z" fill="rgb(99, 194, 191)"/><path aria-label="dept_name: Comp. Sci.; credits: 4; Count of Records: 7" role="graphics-symbol" aria-roledescription="rect mark" d="M100,20h20v20h-20Z" fill="rgb(69, 180, 194)"/><path aria-label="dept_name: Finance; credits: 3; Count of Records: 7" role="graphics-symbol" aria-roledescription="rect mark" d="M180,0h20v20h-20Z" fill="rgb(69, 180, 194)"/><path aria-label="dept_name: Athletics; credits: 4; Count of Records: 3" role="graphics-symbol" aria-roledescription="rect mark" d="M40,20h20v20h-20Z" fill="rgb(199, 233, 181)"/><path aria-label="dept_name: English; credits: 4; Count of Records: 4" role="graphics-symbol" aria-roledescription="rect mark" d="M160,20h20v20h-20Z" fill="rgb(169, 221, 183)"/><path aria-label="dept_name: Elec. Eng.; credits: 4; Count of Records: 4" role="graphics-symbol" aria-roledescription="rect mark" d="M140,20h20v20h-20Z" fill="rgb(169, 221, 183)"/><path aria-label="dept_name: Languages; credits: 4; Count of Records: 7" role="graphics-symbol" aria-roledescription="rect mark" d="M240,20h20v20h-20Z" fill="rgb(69, 180, 194)"/><path aria-label="dept_name: English; credits: 3; Count of Records: 4" role="graphics-symbol" aria-roledescription="rect mark" d="M160,0h20v20h-20Z" fill="rgb(169, 221, 183)"/><path aria-label="dept_name: Physics; credits: 4; Count of Records: 8" role="graphics-symbol" aria-roledescription="rect mark" d="M320,20h20v20h-20Z" fill="rgb(48, 162, 192)"/><path aria-label="dept_name: Astronomy; credits: 4; Count of Records: 7" role="graphics-symbol" aria-roledescription="rect mark" d="M20,20h20v20h-20Z" fill="rgb(69, 180, 194)"/><path aria-label="dept_name: Astronomy; credits: 3; Count of Records: 3" role="graphics-symbol" aria-roledescription="rect mark" d="M20,0h20v20h-20Z" fill="rgb(199, 233, 181)"/><path aria-label="dept_name: Civil Eng.; credits: 4; Count of Records: 4" role="graphics-symbol" aria-roledescription="rect mark" d="M80,20h20v20h-20Z" fill="rgb(169, 221, 183)"/><path aria-label="dept_name: Athletics; credits: 3; Count of Records: 6" role="graphics-symbol" aria-roledescription="rect mark" d="M40,0h20v20h-20Z" fill="rgb(99, 194, 191)"/><path aria-label="dept_name: Statistics; credits: 3; Count of Records: 3" role="graphics-symbol" aria-roledescription="rect mark" d="M380,0h20v20h-20Z" fill="rgb(199, 233, 181)"/><path aria-label="dept_name: Accounting; credits: 4; Count of Records: 4" role="graphics-symbol" aria-roledescription="rect mark" d="M0,20h20v20h-20Z" fill="rgb(169, 221, 183)"/><path aria-label="dept_name: Biology; credits: 4; Count of Records: 2" role="graphics-symbol" aria-roledescription="rect mark" d="M60,20h20v20h-20Z" fill="rgb(222, 242, 182)"/><path aria-label="dept_name: Marketing; credits: 4; Count of Records: 2" role="graphics-symbol" aria-roledescription="rect mark" d="M260,20h20v20h-20Z" fill="rgb(222, 242, 182)"/><path aria-label="dept_name: Languages; credits: 3; Count of Records: 3" role="graphics-symbol" aria-roledescription="rect mark" d="M240,0h20v20h-20Z" fill="rgb(199, 233, 181)"/><path aria-label="dept_name: Pol. Sci.; credits: 3; Count of Records: 1" role="graphics-symbol" aria-roledescription="rect mark" d="M340,0h20v20h-20Z" fill="rgb(239, 249, 189)"/></g><g class="mark-group role-legend" role="graphics-symbol" aria-roledescription="legend" aria-label="Gradient legend titled 'Count of Records' for fill color with values from 1 to 13"><g transform="translate(418,0)"><path class="background" aria-hidden="true" d="M0,0h93v80h-93Z" pointer-events="none"/><g><g class="mark-group role-legend-entry"><g transform="translate(0,16)"><path class="background" aria-hidden="true" d="M0,0h0v0h0Z" pointer-events="none"/><g><g class="mark-rect role-legend-gradient" pointer-events="none"><path d="M0,0h16v64h-16Z" fill="url(#gradient_27)" stroke="#ddd" stroke-width="0" opacity="1"/></g><g class="mark-text role-legend-label" pointer-events="none"><text text-anchor="start" transform="translate(18,62)" font-family="sans-serif" font-size="10px" fill="#000" opacity="1">1</text><text text-anchor="start" transform="translate(18,8)" font-family="sans-serif" font-size="10px" fill="#000" opacity="1">13</text></g></g><path class="foreground" aria-hidden="true" d="" pointer-events="none" display="none"/></g></g><g class="mark-text role-legend-title" pointer-events="none"><text text-anchor="start" transform="translate(0,9)" font-family="sans-serif" font-size="11px" font-weight="bold" fill="#000" opacity="1">Count of Records</text></g></g><path class="foreground" aria-hidden="true" d="" pointer-events="none" display="none"/></g></g><g class="mark-group role-axis" role="graphics-symbol" aria-roledescription="axis" aria-label="X-axis titled 'dept_name' for a discrete scale with 20 values: Accounting, Astronomy, Athletics, Biology, Civil Eng., ending with Statistics"><g transform="translate(0.5,40.5)"><path class="background" aria-hidden="true" d="M0,0h0v0h0Z" pointer-events="none"/><g><g class="mark-rule role-axis-tick" pointer-events="none"><line transform="translate(10,0)" x2="0" y2="5" stroke="#888" stroke-width="1" opacity="1"/><line transform="translate(30,0)" x2="0" y2="5" stroke="#888" stroke-width="1" opacity="1"/><line transform="translate(50,0)" x2="0" y2="5" stroke="#888" stroke-width="1" opacity="1"/><line transform="translate(70,0)" x2="0" y2="5" stroke="#888" stroke-width="1" opacity="1"/><line transform="translate(90,0)" x2="0" y2="5" stroke="#888" stroke-width="1" opacity="1"/><line transform="translate(110,0)" x2="0" y2="5" stroke="#888" stroke-width="1" opacity="1"/><line transform="translate(130,0)" x2="0" y2="5" stroke="#888" stroke-width="1" opacity="1"/><line transform="translate(150,0)" x2="0" y2="5" stroke="#888" stroke-width="1" opacity="1"/><line transform="translate(170,0)" x2="0" y2="5" stroke="#888" stroke-width="1" opacity="1"/><line transform="translate(190,0)" x2="0" y2="5" stroke="#888" stroke-width="1" opacity="1"/><line transform="translate(210,0)" x2="0" y2="5" stroke="#888" stroke-width="1" opacity="1"/><line transform="translate(230,0)" x2="0" y2="5" stroke="#888" stroke-width="1" opacity="1"/><line transform="translate(250,0)" x2="0" y2="5" stroke="#888" stroke-width="1" opacity="1"/><line transform="translate(270,0)" x2="0" y2="5" stroke="#888" stroke-width="1" opacity="1"/><line transform="translate(290,0)" x2="0" y2="5" stroke="#888" stroke-width="1" opacity="1"/><line transform="translate(310,0)" x2="0" y2="5" stroke="#888" stroke-width="1" opacity="1"/><line transform="translate(330,0)" x2="0" y2="5" stroke="#888" stroke-width="1" opacity="1"/><line transform="translate(350,0)" x2="0" y2="5" stroke="#888" stroke-width="1" opacity="1"/><line transform="translate(370,0)" x2="0" y2="5" stroke="#888" stroke-width="1" opacity="1"/><line transform="translate(390,0)" x2="0" y2="5" stroke="#888" stroke-width="1" opacity="1"/></g><g class="mark-text role-axis-label" pointer-events="none"><text text-anchor="end" transform="translate(9.5,7) rotate(270) translate(0,3)" font-family="sans-serif" font-size="10px" fill="#000" opacity="1">Accounting</text><text text-anchor="end" transform="translate(29.5,7) rotate(270) translate(0,3)" font-family="sans-serif" font-size="10px" fill="#000" opacity="1">Astronomy</text><text text-anchor="end" transform="translate(49.5,7) rotate(270) translate(0,3)" font-family="sans-serif" font-size="10px" fill="#000" opacity="1">Athletics</text><text text-anchor="end" transform="translate(69.5,7) rotate(270) translate(0,3)" font-family="sans-serif" font-size="10px" fill="#000" opacity="1">Biology</text><text text-anchor="end" transform="translate(89.5,7) rotate(270) translate(0,3)" font-family="sans-serif" font-size="10px" fill="#000" opacity="1">Civil Eng.</text><text text-anchor="end" transform="translate(109.5,7) rotate(270) translate(0,3)" font-family="sans-serif" font-size="10px" fill="#000" opacity="1">Comp. Sci.</text><text text-anchor="end" transform="translate(129.5,7) rotate(270) translate(0,3)" font-family="sans-serif" font-size="10px" fill="#000" opacity="1">Cybernetics</text><text text-anchor="end" transform="translate(149.5,7) rotate(270) translate(0,3)" font-family="sans-serif" font-size="10px" fill="#000" opacity="1">Elec. Eng.</text><text text-anchor="end" transform="translate(169.5,7) rotate(270) translate(0,3)" font-family="sans-serif" font-size="10px" fill="#000" opacity="1">English</text><text text-anchor="end" transform="translate(189.5,7) rotate(270) translate(0,3)" font-family="sans-serif" font-size="10px" fill="#000" opacity="1">Finance</text><text text-anchor="end" transform="translate(209.5,7) rotate(270) translate(0,3)" font-family="sans-serif" font-size="10px" fill="#000" opacity="1">Geology</text><text text-anchor="end" transform="translate(229.5,7) rotate(270) translate(0,3)" font-family="sans-serif" font-size="10px" fill="#000" opacity="1">History</text><text text-anchor="end" transform="translate(249.5,7) rotate(270) translate(0,3)" font-family="sans-serif" font-size="10px" fill="#000" opacity="1">Languages</text><text text-anchor="end" transform="translate(269.5,7) rotate(270) translate(0,3)" font-family="sans-serif" font-size="10px" fill="#000" opacity="1">Marketing</text><text text-anchor="end" transform="translate(289.5,7) rotate(270) translate(0,3)" font-family="sans-serif" font-size="10px" fill="#000" opacity="1">Math</text><text text-anchor="end" transform="translate(309.5,7) rotate(270) translate(0,3)" font-family="sans-serif" font-size="10px" fill="#000" opacity="1">Mech. Eng.</text><text text-anchor="end" transform="translate(329.5,7) rotate(270) translate(0,3)" font-family="sans-serif" font-size="10px" fill="#000" opacity="1">Physics</text><text text-anchor="end" transform="translate(349.5,7) rotate(270) translate(0,3)" font-family="sans-serif" font-size="10px" fill="#000" opacity="1">Pol. Sci.</text><text text-anchor="end" transform="translate(369.5,7) rotate(270) translate(0,3)" font-family="sans-serif" font-size="10px" fill="#000" opacity="1">Psychology</text><text text-anchor="end" transform="translate(389.5,7) rotate(270) translate(0,3)" font-family="sans-serif" font-size="10px" fill="#000" opacity="1">Statistics</text></g><g class="mark-rule role-axis-domain" pointer-events="none"><line transform="translate(0,0)" x2="400" y2="0" stroke="#888" stroke-width="1" opacity="1"/></g><g class="mark-text role-axis-title" pointer-events="none"><text text-anchor="middle" transform="translate(200,72.7978515625)" font-family="sans-serif" font-size="11px" font-weight="bold" fill="#000" opacity="1">dept_name</text></g></g><path class="foreground" aria-hidden="true" d="" pointer-events="none" display="none"/></g></g><g class="mark-group role-axis" role="graphics-symbol" aria-roledescription="axis" aria-label="Y-axis titled 'credits' for a discrete scale with 2 values: 3, 4"><g transform="translate(0.5,0.5)"><path class="background" aria-hidden="true" d="M0,0h0v0h0Z" pointer-events="none"/><g><g class="mark-rule role-axis-tick" pointer-events="none"><line transform="translate(0,10)" x2="-5" y2="0" stroke="#888" stroke-width="1" opacity="1"/><line transform="translate(0,30)" x2="-5" y2="0" stroke="#888" stroke-width="1" opacity="1"/></g><g class="mark-text role-axis-label" pointer-events="none"><text text-anchor="end" transform="translate(-7,12.5)" font-family="sans-serif" font-size="10px" fill="#000" opacity="1">3</text><text text-anchor="end" transform="translate(-7,32.5)" font-family="sans-serif" font-size="10px" fill="#000" opacity="1">4</text></g><g class="mark-rule role-axis-domain" pointer-events="none"><line transform="translate(0,0)" x2="0" y2="40" stroke="#888" stroke-width="1" opacity="1"/></g><g class="mark-text role-axis-title" pointer-events="none"><text text-anchor="middle" transform="translate(-16.5615234375,20) rotate(-90) translate(0,-2)" font-family="sans-serif" font-size="11px" font-weight="bold" fill="#000" opacity="1">credits</text></g></g><path class="foreground" aria-hidden="true" d="" pointer-events="none" display="none"/></g></g></g><path class="foreground" aria-hidden="true" d="" display="none"/></g></g></g><defs><linearGradient id="gradient_27" x1="0" x2="0" y1="1" y2="0"><stop offset="0" stop-color="rgb(239, 249, 189)"/><stop offset="0.08333333333333333" stop-color="rgb(222, 242, 182)"/><stop offset="0.16666666666666666" stop-color="rgb(199, 233, 181)"/><stop offset="0.25" stop-color="rgb(169, 221, 183)"/><stop offset="0.3333333333333333" stop-color="rgb(134, 208, 187)"/><stop offset="0.4166666666666667" stop-color="rgb(99, 194, 191)"/><stop offset="0.5" stop-color="rgb(69, 180, 194)"/><stop offset="0.5833333333333334" stop-color="rgb(48, 162, 192)"/><stop offset="0.6666666666666666" stop-color="rgb(37, 139, 187)"/><stop offset="0.75" stop-color="rgb(33, 115, 177)"/><stop offset="0.8333333333333334" stop-color="rgb(34, 90, 165)"/><stop offset="0.9166666666666666" stop-color="rgb(34, 67, 152)"/><stop offset="1" stop-color="rgb(28, 49, 133)"/></linearGradient></defs></svg>