<svg xmlns="http://www.w3.org/2000/svg" xmlns:xlink="http://www.w3.org/1999/xlink" version="1.1" class="marks" width="476" height="605" viewBox="0 0 476 605"><rect width="476" height="605" fill="white"/><g fill="none" stroke-miterlimit="10" transform="translate(86,19)"><g class="mark-group role-frame root" role="graphics-object" aria-roledescription="group mark container"><g transform="translate(0,0)"><path class="background" aria-hidden="true" d="M0.5,0.5h300v300h-300Z" stroke="#ddd"/><g><g class="mark-group role-axis" aria-hidden="true"><g transform="translate(0.5,300.5)"><path class="background" aria-hidden="true" d="M0,0h0v0h0Z" pointer-events="none"/><g><g class="mark-rule role-axis-grid" pointer-events="none"><line transform="translate(16,-300)" x2="0" y2="300" stroke="#ddd" stroke-width="1" opacity="1"/><line transform="translate(48,-300)" x2="0" y2="300" stroke="#ddd" stroke-width="1" opacity="1"/><line transform="translate(80,-300)" x2="0" y2="300" stroke="#ddd" stroke-width="1" opacity="1"/><line transform="translate(112,-300)" x2="0" y2="300" stroke="#ddd" stroke-width="1" opacity="1"/><line transform="translate(145,-300)" x2="0" y2="300" stroke="#ddd" stroke-width="1" opacity="1"/><line transform="translate(176,-300)" x2="0" y2="300" stroke="#ddd" stroke-width="1" opacity="1"/><line transform="translate(209,-300)" x2="0" y2="300" stroke="#ddd" stroke-width="1" opacity="1"/><line transform="translate(240,-300)" x2="0" y2="300" stroke="#ddd" stroke-width="1" opacity="1"/><line transform="translate(273,-300)" x2="0" y2="300" stroke="#ddd" stroke-width="1" opacity="1"/></g></g><path class="foreground" aria-hidden="true" d="" pointer-events="none" display="none"/></g></g><g class="mark-group role-axis" aria-hidden="true"><g transform="translate(0.5,0.5)"><path class="background" aria-hidden="true" d="M0,0h0v0h0Z" pointer-events="none"/><g><g class="mark-rule role-axis-grid" pointer-events="none"><line transform="translate(0,300)" x2="300" y2="0" stroke="#ddd" stroke-width="1" opacity="1"/><line transform="translate(0,274)" x2="300" y2="0" stroke="#ddd" stroke-width="1" opacity="1"/><line transform="translate(0,248)" x2="300" y2="0" stroke="#ddd" stroke-width="1" opacity="1"/><line transform="translate(0,222)" x2="300" y2="0" stroke="#ddd" stroke-width="1" opacity="1"/><line transform="translate(0,196)" x2="300" y2="0" stroke="#ddd" stroke-width="1" opacity="1"/><line transform="translate(0,170)" x2="300" y2="0" stroke="#ddd" stroke-width="1" opacity="1"/><line transform="translate(0,143)" x2="300" y2="0" stroke="#ddd" stroke-width="1" opacity="1"/><line transform="translate(0,117)" x2="300" y2="0" stroke="#ddd" stroke-width="1" opacity="1"/><line transform="translate(0,91)" x2="300" y2="0" stroke="#ddd" stroke-width="1" opacity="1"/><line transform="translate(0,65)" x2="300" y2="0" stroke="#ddd" stroke-width="1" opacity="1"/><line transform="translate(0,39)" x2="300" y2="0" stroke="#ddd" stroke-width="1" opacity="1"/><line transform="translate(0,13)" x2="300" y2="0" stroke="#ddd" stroke-width="1" opacity="1"/></g></g><path class="foreground" aria-hidden="true" d="" pointer-events="none" display="none"/></g></g><g class="mark-group role-axis" role="graphics-symbol" aria-roledescription="axis" aria-label="X-axis titled 'asset_acquired_date (year-month-date)' for a time scale with values from April 16, 2017 to January 27, 2018"><g transform="translate(0.5,300.5)"><path class="background" aria-hidden="true" d="M0,0h0v0h0Z" pointer-events="none"/><g><g class="mark-rule role-axis-tick" pointer-events="none"><line transform="translate(16,0)" x2="0" y2="5" stroke="#888" stroke-width="1" opacity="1"/><line transform="translate(48,0)" x2="0" y2="5" stroke="#888" stroke-width="1" opacity="1"/><line transform="translate(80,0)" x2="0" y2="5" stroke="#888" stroke-width="1" opacity="1"/><line transform="translate(112,0)" x2="0" y2="5" stroke="#888" stroke-width="1" opacity="1"/><line transform="translate(145,0)" x2="0" y2="5" stroke="#888" stroke-width="1" opacity="1"/><line transform="translate(176,0)" x2="0" y2="5" stroke="#888" stroke-width="1" opacity="1"/><line transform="translate(209,0)" x2="0" y2="5" stroke="#888" stroke-width="1" opacity="1"/><line transform="translate(240,0)" x2="0" y2="5" stroke="#888" stroke-width="1" opacity="1"/><line transform="translate(273,0)" x2="0" y2="5" stroke="#888" stroke-width="1" opacity="1"/></g><g class="mark-text role-axis-label" pointer-events="none"><text text-anchor="middle" transform="translate(15.734265734265735,15)" font-family="sans-serif" font-size="10px" fill="#000" opacity="1">May 01, 2017</text><text text-anchor="middle" transform="translate(48.25174825174825,15)" font-family="sans-serif" font-size="10px" fill="#000" opacity="0">Jun 01, 2017</text><text text-anchor="middle" transform="translate(79.72027972027972,15)" font-family="sans-serif" font-size="10px" fill="#000" opacity="1">Jul 01, 2017</text><text text-anchor="middle" transform="translate(112.23776223776224,15)" font-family="sans-serif" font-size="10px" fill="#000" opacity="0">Aug 01, 2017</text><text text-anchor="middle" transform="translate(144.75524475524475,15)" font-family="sans-serif" font-size="10px" fill="#000" opacity="1">Sep 01, 2017</text><text text-anchor="middle" transform="translate(176.2237762237762,15)" font-family="sans-serif" font-size="10px" fill="#000" opacity="0">Oct 01, 2017</text><text text-anchor="middle" transform="translate(208.74125874125875,15)" font-family="sans-serif" font-size="10px" fill="#000" opacity="1">Nov 01, 2017</text><text text-anchor="middle" transform="translate(240.2097902097902,15)" font-family="sans-serif" font-size="10px" fill="#000" opacity="0">Dec 01, 2017</text><text text-anchor="middle" transform="translate(272.7272727272727,15)" font-family="sans-serif" font-size="10px" fill="#000" opacity="1">Jan 01, 2018</text></g><g class="mark-rule role-axis-domain" pointer-events="none"><line transform="translate(0,0)" x2="300" y2="0" stroke="#888" stroke-width="1" opacity="1"/></g><g class="mark-text role-axis-title" pointer-events="none"><text text-anchor="middle" transform="translate(150,30)" font-family="sans-serif" font-size="11px" font-weight="bold" fill="#000" opacity="1">asset_acquired_date (year-month-date)</text></g></g><path class="foreground" aria-hidden="true" d="" pointer-events="none" display="none"/></g></g><g class="mark-group role-axis" role="graphics-symbol" aria-roledescription="axis" aria-label="Y-axis titled 'asset_disposed_date (year-month-date)' for a time scale with values from February 27, 2018 to March 22, 2018"><g transform="translate(0.5,0.5)"><path class="background" aria-hidden="true" d="M0,0h0v0h0Z" pointer-events="none"/><g><g class="mark-rule role-axis-tick" pointer-events="none"><line transform="translate(0,300)" x2="-5" y2="0" stroke="#888" stroke-width="1" opacity="1"/><line transform="translate(0,274)" x2="-5" y2="0" stroke="#888" stroke-width="1" opacity="1"/><line transform="translate(0,248)" x2="-5" y2="0" stroke="#888" stroke-width="1" opacity="1"/><line transform="translate(0,222)" x2="-5" y2="0" stroke="#888" stroke-width="1" opacity="1"/><line transform="translate(0,196)" x2="-5" y2="0" stroke="#888" stroke-width="1" opacity="1"/><line transform="translate(0,170)" x2="-5" y2="0" stroke="#888" stroke-width="1" opacity="1"/><line transform="translate(0,143)" x2="-5" y2="0" stroke="#888" stroke-width="1" opacity="1"/><line transform="translate(0,117)" x2="-5" y2="0" stroke="#888" stroke-width="1" opacity="1"/><line transform="translate(0,91)" x2="-5" y2="0" stroke="#888" stroke-width="1" opacity="1"/><line transform="translate(0,65)" x2="-5" y2="0" stroke="#888" stroke-width="1" opacity="1"/><line transform="translate(0,39)" x2="-5" y2="0" stroke="#888" stroke-width="1" opacity="1"/><line transform="translate(0,13)" x2="-5" y2="0" stroke="#888" stroke-width="1" opacity="1"/></g><g class="mark-text role-axis-label" pointer-events="none"><text text-anchor="end" transform="translate(-7,303)" font-family="sans-serif" font-size="10px" fill="#000" opacity="1">Feb 27, 2018</text><text text-anchor="end" transform="translate(-7,276.9130434782609)" font-family="sans-serif" font-size="10px" fill="#000" opacity="1">Mar 01, 2018</text><text text-anchor="end" transform="translate(-7,250.82608695652175)" font-family="sans-serif" font-size="10px" fill="#000" opacity="1">Mar 03, 2018</text><text text-anchor="end" transform="translate(-7,224.7391304347826)" font-family="sans-serif" font-size="10px" fill="#000" opacity="1">Mar 05, 2018</text><text text-anchor="end" transform="translate(-7,198.65217391304347)" font-family="sans-serif" font-size="10px" fill="#000" opacity="1">Mar 07, 2018</text><text text-anchor="end" transform="translate(-7,172.56521739130437)" font-family="sans-serif" font-size="10px" fill="#000" opacity="1">Mar 09, 2018</text><text text-anchor="end" transform="translate(-7,146.47826086956522)" font-family="sans-serif" font-size="10px" fill="#000" opacity="1">Mar 11, 2018</text><text text-anchor="end" transform="translate(-7,120.39130434782608)" font-family="sans-serif" font-size="10px" fill="#000" opacity="1">Mar 13, 2018</text><text text-anchor="end" transform="translate(-7,94.30434782608697)" font-family="sans-serif" font-size="10px" fill="#000" opacity="1">Mar 15, 2018</text><text text-anchor="end" transform="translate(-7,68.21739130434781)" font-family="sans-serif" font-size="10px" fill="#000" opacity="1">Mar 17, 2018</text><text text-anchor="end" transform="translate(-7,42.1304347826087)" font-family="sans-serif" font-size="10px" fill="#000" opacity="1">Mar 19, 2018</text><text text-anchor="end" transform="translate(-7,16.043478260869556)" font-family="sans-serif" font-size="10px" fill="#000" opacity="1">Mar 21, 2018</text></g><g class="mark-rule role-axis-domain" pointer-events="none"><line transform="translate(0,300)" x2="0" y2="-300" stroke="#888" stroke-width="1" opacity="1"/></g><g class="mark-text role-axis-title" pointer-events="none"><text text-anchor="middle" transform="translate(-69.935546875,150) rotate(-90) translate(0,-2)" font-family="sans-serif" font-size="11px" font-weight="bold" fill="#000" opacity="1">asset_disposed_date (year-month-date)</text></g></g><path class="foreground" aria-hidden="true" d="" pointer-events="none" display="none"/></g></g><g class="mark-symbol role-mark marks" role="graphics-object" aria-roledescription="symbol mark container"><path aria-label="asset_acquired_date (year-month-date): Dec 25, 2017; asset_disposed_date (year-month-date): Mar 14, 2018; asset_make: PT; asset_model: 58 ub" role="graphics-symbol" aria-roledescription="circle" transform="translate(265.38461538461536,104.34782608695652)" d="M11.726,0A11.726,11.726,0,1,1,-11.726,0A11.726,11.726,0,1,1,11.726,0" fill="#ff9da6" stroke-width="2" opacity="0.7"/><path aria-label="asset_acquired_date (year-month-date): Jan 27, 2018; asset_disposed_date (year-month-date): Mar 20, 2018; asset_make: IN; asset_model: 35 xt" role="graphics-symbol" aria-roledescription="circle" transform="translate(300,26.086956521739147)" d="M11.019,0A11.019,11.019,0,1,1,-11.019,0A11.019,11.019,0,1,1,11.019,0" fill="#eeca3b" stroke-width="2" opacity="0.7"/><path aria-label="asset_acquired_date (year-month-date): Sep 07, 2017; asset_disposed_date (year-month-date): Mar 08, 2018; asset_make: IT; asset_model: 63 ok" role="graphics-symbol" aria-roledescription="circle" transform="translate(151.04895104895107,182.60869565217394)" d="M12.392,0A12.392,12.392,0,1,1,-12.392,0A12.392,12.392,0,1,1,12.392,0" fill="#b279a2" stroke-width="2" opacity="0.7"/><path aria-label="asset_acquired_date (year-month-date): Jun 12, 2017; asset_disposed_date (year-month-date): Mar 16, 2018; asset_make: RU; asset_model: 69 uv" role="graphics-symbol" aria-roledescription="circle" transform="translate(59.790209790209786,78.2608695652174)" d="M13.628,0A13.628,13.628,0,1,1,-13.628,0A13.628,13.628,0,1,1,13.628,0" fill="#9d755d" stroke-width="2" opacity="0.7"/><path aria-label="asset_acquired_date (year-month-date): Jul 21, 2017; asset_disposed_date (year-month-date): Feb 27, 2018; asset_make: DE; asset_model: 90 oq" role="graphics-symbol" aria-roledescription="circle" transform="translate(100.69930069930071,300)" d="M14.205,0A14.205,14.205,0,1,1,-14.205,0A14.205,14.205,0,1,1,14.205,0" fill="#f58518" stroke-width="2" opacity="0.7"/><path aria-label="asset_acquired_date (year-month-date): Apr 22, 2017; asset_disposed_date (year-month-date): Mar 10, 2018; asset_make: CN; asset_model: 91 ub" role="graphics-symbol" aria-roledescription="circle" transform="translate(6.293706293706294,156.52173913043478)" d="M14.76,0A14.76,14.76,0,1,1,-14.76,0A14.76,14.76,0,1,1,14.76,0" fill="#4c78a8" stroke-width="2" opacity="0.7"/><path aria-label="asset_acquired_date (year-month-date): Jul 18, 2017; asset_disposed_date (year-month-date): Mar 20, 2018; asset_make: CN; asset_model: 27 du" role="graphics-symbol" aria-roledescription="circle" transform="translate(97.55244755244755,26.086956521739147)" d="M10.264,0A10.264,10.264,0,1,1,-10.264,0A10.264,10.264,0,1,1,10.264,0" fill="#4c78a8" stroke-width="2" opacity="0.7"/><path aria-label="asset_acquired_date (year-month-date): Oct 24, 2017; asset_disposed_date (year-month-date): Feb 28, 2018; asset_make: GB; asset_model: 94 kg" role="graphics-symbol" aria-roledescription="circle" transform="translate(200.34965034965035,286.95652173913044)" d="M15.295,0A15.295,15.295,0,1,1,-15.295,0A15.295,15.295,0,1,1,15.295,0" fill="#72b7b2" stroke-width="2" opacity="0.7"/><path aria-label="asset_acquired_date (year-month-date): Apr 16, 2017; asset_disposed_date (year-month-date): Mar 08, 2018; asset_make: RU; asset_model: 07 yt" role="graphics-symbol" aria-roledescription="circle" transform="translate(0,182.60869565217394)" d="M5,0A5,5,0,1,1,-5,0A5,5,0,1,1,5,0" fill="#9d755d" stroke-width="2" opacity="0.7"/><path aria-label="asset_acquired_date (year-month-date): Sep 19, 2017; asset_disposed_date (year-month-date): Mar 06, 2018; asset_make: FR; asset_model: 20 tl" role="graphics-symbol" aria-roledescription="circle" transform="translate(163.63636363636363,208.69565217391303)" d="M8.557,0A8.557,8.557,0,1,1,-8.557,0A8.557,8.557,0,1,1,8.557,0" fill="#e45756" stroke-width="2" opacity="0.7"/><path aria-label="asset_acquired_date (year-month-date): Nov 25, 2017; asset_disposed_date (year-month-date): Mar 17, 2018; asset_make: FR; asset_model: 11 wi" role="graphics-symbol" aria-roledescription="circle" transform="translate(233.9160839160839,65.21739130434781)" d="M7.559,0A7.559,7.559,0,1,1,-7.559,0A7.559,7.559,0,1,1,7.559,0" fill="#e45756" stroke-width="2" opacity="0.7"/><path aria-label="asset_acquired_date (year-month-date): Sep 26, 2017; asset_disposed_date (year-month-date): Feb 27, 2018; asset_make: RU; asset_model: 95 vn" role="graphics-symbol" aria-roledescription="circle" transform="translate(170.97902097902096,300)" d="M15.811,0A15.811,15.811,0,1,1,-15.811,0A15.811,15.811,0,1,1,15.811,0" fill="#9d755d" stroke-width="2" opacity="0.7"/><path aria-label="asset_acquired_date (year-month-date): Dec 20, 2017; asset_disposed_date (year-month-date): Mar 07, 2018; asset_make: DE; asset_model: 08 yy" role="graphics-symbol" aria-roledescription="circle" transform="translate(260.1398601398601,195.65217391304347)" d="M6.409,0A6.409,6.409,0,1,1,-6.409,0A6.409,6.409,0,1,1,6.409,0" fill="#f58518" stroke-width="2" opacity="0.7"/><path aria-label="asset_acquired_date (year-month-date): Oct 19, 2017; asset_disposed_date (year-month-date): Mar 22, 2018; asset_make: IN; asset_model: 66 xm" role="graphics-symbol" aria-roledescription="circle" transform="translate(195.1048951048951,0)" d="M13.025,0A13.025,13.025,0,1,1,-13.025,0A13.025,13.025,0,1,1,13.025,0" fill="#eeca3b" stroke-width="2" opacity="0.7"/><path aria-label="asset_acquired_date (year-month-date): Dec 18, 2017; asset_disposed_date (year-month-date): Feb 27, 2018; asset_make: IE; asset_model: 24 ak" role="graphics-symbol" aria-roledescription="circle" transform="translate(258.041958041958,300)" d="M9.449,0A9.449,9.449,0,1,1,-9.449,0A9.449,9.449,0,1,1,9.449,0" fill="#54a24b" stroke-width="2" opacity="0.7"/></g><g class="mark-group role-legend" role="graphics-symbol" aria-roledescription="legend" aria-label="Symbol legend titled 'asset_make' for fill color with 9 values: CN, DE, FR, GB, IE, ending with RU"><g transform="translate(318,0)"><path class="background" aria-hidden="true" d="M0,0h63v131h-63Z" pointer-events="none"/><g><g class="mark-group role-legend-entry"><g transform="translate(0,16)"><path class="background" aria-hidden="true" d="M0,0h0v0h0Z" pointer-events="none"/><g><g class="mark-group role-scope" role="graphics-object" aria-roledescription="group mark container"><g transform="translate(0,0)"><path class="background" aria-hidden="true" d="M0,0h30.4482421875v11h-30.4482421875Z" pointer-events="none" opacity="1"/><g><g class="mark-symbol role-legend-symbol" pointer-events="none"><path transform="translate(6,6)" d="M5,0A5,5,0,1,1,-5,0A5,5,0,1,1,5,0" fill="#4c78a8" stroke-width="1.5" opacity="0.7"/></g><g class="mark-text role-legend-label" pointer-events="none"><text text-anchor="start" transform="translate(16,9)" font-family="sans-serif" font-size="10px" fill="#000" opacity="1">CN</text></g></g><path class="foreground" aria-hidden="true" d="" pointer-events="none" display="none"/></g><g transform="translate(0,13)"><path class="background" aria-hidden="true" d="M0,0h30.4482421875v11h-30.4482421875Z" pointer-events="none" opacity="1"/><g><g class="mark-symbol role-legend-symbol" pointer-events="none"><path transform="translate(6,6)" d="M5,0A5,5,0,1,1,-5,0A5,5,0,1,1,5,0" fill="#f58518" stroke-width="1.5" opacity="0.7"/></g><g class="mark-text role-legend-label" pointer-events="none"><text text-anchor="start" transform="translate(16,9)" font-family="sans-serif" font-size="10px" fill="#000" opacity="1">DE</text></g></g><path class="foreground" aria-hidden="true" d="" pointer-events="none" display="none"/></g><g transform="translate(0,26)"><path class="background" aria-hidden="true" d="M0,0h30.4482421875v11h-30.4482421875Z" pointer-events="none" opacity="1"/><g><g class="mark-symbol role-legend-symbol" pointer-events="none"><path transform="translate(6,6)" d="M5,0A5,5,0,1,1,-5,0A5,5,0,1,1,5,0" fill="#e45756" stroke-width="1.5" opacity="0.7"/></g><g class="mark-text role-legend-label" pointer-events="none"><text text-anchor="start" transform="translate(16,9)" font-family="sans-serif" font-size="10px" fill="#000" opacity="1">FR</text></g></g><path class="foreground" aria-hidden="true" d="" pointer-events="none" display="none"/></g><g transform="translate(0,39)"><path class="background" aria-hidden="true" d="M0,0h30.4482421875v11h-30.4482421875Z" pointer-events="none" opacity="1"/><g><g class="mark-symbol role-legend-symbol" pointer-events="none"><path transform="translate(6,6)" d="M5,0A5,5,0,1,1,-5,0A5,5,0,1,1,5,0" fill="#72b7b2" stroke-width="1.5" opacity="0.7"/></g><g class="mark-text role-legend-label" pointer-events="none"><text text-anchor="start" transform="translate(16,9)" font-family="sans-serif" font-size="10px" fill="#000" opacity="1">GB</text></g></g><path class="foreground" aria-hidden="true" d="" pointer-events="none" display="none"/></g><g transform="translate(0,52)"><path class="background" aria-hidden="true" d="M0,0h30.4482421875v11h-30.4482421875Z" pointer-events="none" opacity="1"/><g><g class="mark-symbol role-legend-symbol" pointer-events="none"><path transform="translate(6,6)" d="M5,0A5,5,0,1,1,-5,0A5,5,0,1,1,5,0" fill="#54a24b" stroke-width="1.5" opacity="0.7"/></g><g class="mark-text role-legend-label" pointer-events="none"><text text-anchor="start" transform="translate(16,9)" font-family="sans-serif" font-size="10px" fill="#000" opacity="1">IE</text></g></g><path class="foreground" aria-hidden="true" d="" pointer-events="none" display="none"/></g><g transform="translate(0,65)"><path class="background" aria-hidden="true" d="M0,0h30.4482421875v11h-30.4482421875Z" pointer-events="none" opacity="1"/><g><g class="mark-symbol role-legend-symbol" pointer-events="none"><path transform="translate(6,6)" d="M5,0A5,5,0,1,1,-5,0A5,5,0,1,1,5,0" fill="#eeca3b" stroke-width="1.5" opacity="0.7"/></g><g class="mark-text role-legend-label" pointer-events="none"><text text-anchor="start" transform="translate(16,9)" font-family="sans-serif" font-size="10px" fill="#000" opacity="1">IN</text></g></g><path class="foreground" aria-hidden="true" d="" pointer-events="none" display="none"/></g><g transform="translate(0,78)"><path class="background" aria-hidden="true" d="M0,0h30.4482421875v11h-30.4482421875Z" pointer-events="none" opacity="1"/><g><g class="mark-symbol role-legend-symbol" pointer-events="none"><path transform="translate(6,6)" d="M5,0A5,5,0,1,1,-5,0A5,5,0,1,1,5,0" fill="#b279a2" stroke-width="1.5" opacity="0.7"/></g><g class="mark-text role-legend-label" pointer-events="none"><text text-anchor="start" transform="translate(16,9)" font-family="sans-serif" font-size="10px" fill="#000" opacity="1">IT</text></g></g><path class="foreground" aria-hidden="true" d="" pointer-events="none" display="none"/></g><g transform="translate(0,91)"><path class="background" aria-hidden="true" d="M0,0h30.4482421875v11h-30.4482421875Z" pointer-events="none" opacity="1"/><g><g class="mark-symbol role-legend-symbol" pointer-events="none"><path transform="translate(6,6)" d="M5,0A5,5,0,1,1,-5,0A5,5,0,1,1,5,0" fill="#ff9da6" stroke-width="1.5" opacity="0.7"/></g><g class="mark-text role-legend-label" pointer-events="none"><text text-anchor="start" transform="translate(16,9)" font-family="sans-serif" font-size="10px" fill="#000" opacity="1">PT</text></g></g><path class="foreground" aria-hidden="true" d="" pointer-events="none" display="none"/></g><g transform="translate(0,104)"><path class="background" aria-hidden="true" d="M0,0h30.4482421875v11h-30.4482421875Z" pointer-events="none" opacity="1"/><g><g class="mark-symbol role-legend-symbol" pointer-events="none"><path transform="translate(6,6)" d="M5,0A5,5,0,1,1,-5,0A5,5,0,1,1,5,0" fill="#9d755d" stroke-width="1.5" opacity="0.7"/></g><g class="mark-text role-legend-label" pointer-events="none"><text text-anchor="start" transform="translate(16,9)" font-family="sans-serif" font-size="10px" fill="#000" opacity="1">RU</text></g></g><path class="foreground" aria-hidden="true" d="" pointer-events="none" display="none"/></g></g></g><path class="foreground" aria-hidden="true" d="" pointer-events="none" display="none"/></g></g><g class="mark-text role-legend-title" pointer-events="none"><text text-anchor="start" transform="translate(0,9)" font-family="sans-serif" font-size="11px" font-weight="bold" fill="#000" opacity="1">asset_make</text></g></g><path class="foreground" aria-hidden="true" d="" pointer-events="none" display="none"/></g></g><g class="mark-group role-legend" role="graphics-symbol" aria-roledescription="legend" aria-label="Symbol legend titled 'asset_model' for size with 15 values: 07 yt, 08 yy, 11 wi, 20 tl, 24 ak, ending with 95 vn"><g transform="translate(318,139)"><path class="background" aria-hidden="true" d="M0,0h67v442h-67Z" pointer-events="none"/><g><g class="mark-group role-legend-entry"><g transform="translate(0,16)"><path class="background" aria-hidden="true" d="M0,0h0v0h0Z" pointer-events="none"/><g><g class="mark-group role-scope" role="graphics-object" aria-roledescription="group mark container"><g transform="translate(0,0)"><path class="background" aria-hidden="true" d="M0,0h65.2314453125v12.499999999999998h-65.2314453125Z" pointer-events="none" opacity="1"/><g><g class="mark-symbol role-legend-symbol" pointer-events="none"><path transform="translate(17,6)" d="M5,0A5,5,0,1,1,-5,0A5,5,0,1,1,5,0" fill="black" fill-opacity="0.7" stroke-width="1.5" opacity="0.7"/></g><g class="mark-text role-legend-label" pointer-events="none"><text text-anchor="start" transform="translate(38,9)" font-family="sans-serif" font-size="10px" fill="#000" opacity="1">07 yt</text></g></g><path class="foreground" aria-hidden="true" d="" pointer-events="none" display="none"/></g><g transform="translate(0,16)"><path class="background" aria-hidden="true" d="M0,0h65.2314453125v15.408699444616555h-65.2314453125Z" pointer-events="none" opacity="1"/><g><g class="mark-symbol role-legend-symbol" pointer-events="none"><path transform="translate(17,7.5)" d="M6.409,0A6.409,6.409,0,1,1,-6.409,0A6.409,6.409,0,1,1,6.409,0" fill="black" fill-opacity="0.7" stroke-width="1.5" opacity="0.7"/></g><g class="mark-text role-legend-label" pointer-events="none"><text text-anchor="start" transform="translate(38,10.5)" font-family="sans-serif" font-size="10px" fill="#000" opacity="1">08 yy</text></g></g><path class="foreground" aria-hidden="true" d="" pointer-events="none" display="none"/></g><g transform="translate(0,35)"><path class="background" aria-hidden="true" d="M0,0h65.2314453125v17.559289460184544h-65.2314453125Z" pointer-events="none" opacity="1"/><g><g class="mark-symbol role-legend-symbol" pointer-events="none"><path transform="translate(17,8.5)" d="M7.559,0A7.559,7.559,0,1,1,-7.559,0A7.559,7.559,0,1,1,7.559,0" fill="black" fill-opacity="0.7" stroke-width="1.5" opacity="0.7"/></g><g class="mark-text role-legend-label" pointer-events="none"><text text-anchor="start" transform="translate(38,11.5)" font-family="sans-serif" font-size="10px" fill="#000" opacity="1">11 wi</text></g></g><path class="foreground" aria-hidden="true" d="" pointer-events="none" display="none"/></g><g transform="translate(0,56)"><path class="background" aria-hidden="true" d="M0,0h65.2314453125v19.55653467907925h-65.2314453125Z" pointer-events="none" opacity="1"/><g><g class="mark-symbol role-legend-symbol" pointer-events="none"><path transform="translate(17,9.5)" d="M8.557,0A8.557,8.557,0,1,1,-8.557,0A8.557,8.557,0,1,1,8.557,0" fill="black" fill-opacity="0.7" stroke-width="1.5" opacity="0.7"/></g><g class="mark-text role-legend-label" pointer-events="none"><text text-anchor="start" transform="translate(38,12.5)" font-family="sans-serif" font-size="10px" fill="#000" opacity="1">20 tl</text></g></g><path class="foreground" aria-hidden="true" d="" pointer-events="none" display="none"/></g><g transform="translate(0,79)"><path class="background" aria-hidden="true" d="M0,0h65.2314453125v21.449111825230688h-65.2314453125Z" pointer-events="none" opacity="1"/><g><g class="mark-symbol role-legend-symbol" pointer-events="none"><path transform="translate(17,10.5)" d="M9.449,0A9.449,9.449,0,1,1,-9.449,0A9.449,9.449,0,1,1,9.449,0" fill="black" fill-opacity="0.7" stroke-width="1.5" opacity="0.7"/></g><g class="mark-text role-legend-label" pointer-events="none"><text text-anchor="start" transform="translate(38,13.5)" font-family="sans-serif" font-size="10px" fill="#000" opacity="1">24 ak</text></g></g><path class="foreground" aria-hidden="true" d="" pointer-events="none" display="none"/></g><g transform="translate(0,104)"><path class="background" aria-hidden="true" d="M0,0h65.2314453125v23.264362759428508h-65.2314453125Z" pointer-events="none" opacity="1"/><g><g class="mark-symbol role-legend-symbol" pointer-events="none"><path transform="translate(17,11.5)" d="M10.264,0A10.264,10.264,0,1,1,-10.264,0A10.264,10.264,0,1,1,10.264,0" fill="black" fill-opacity="0.7" stroke-width="1.5" opacity="0.7"/></g><g class="mark-text role-legend-label" pointer-events="none"><text text-anchor="start" transform="translate(38,14.5)" font-family="sans-serif" font-size="10px" fill="#000" opacity="1">27 du</text></g></g><path class="foreground" aria-hidden="true" d="" pointer-events="none" display="none"/></g><g transform="translate(0,131)"><path class="background" aria-hidden="true" d="M0,0h65.2314453125v24.519463300386803h-65.2314453125Z" pointer-events="none" opacity="1"/><g><g class="mark-symbol role-legend-symbol" pointer-events="none"><path transform="translate(17,12)" d="M11.019,0A11.019,11.019,0,1,1,-11.019,0A11.019,11.019,0,1,1,11.019,0" fill="black" fill-opacity="0.7" stroke-width="1.5" opacity="0.7"/></g><g class="mark-text role-legend-label" pointer-events="none"><text text-anchor="start" transform="translate(38,15)" font-family="sans-serif" font-size="10px" fill="#000" opacity="1">35 xt</text></g></g><path class="foreground" aria-hidden="true" d="" pointer-events="none" display="none"/></g><g transform="translate(0,159)"><path class="background" aria-hidden="true" d="M0,0h65.2314453125v25.726039399558573h-65.2314453125Z" pointer-events="none" opacity="1"/><g><g class="mark-symbol role-legend-symbol" pointer-events="none"><path transform="translate(17,12.5)" d="M11.726,0A11.726,11.726,0,1,1,-11.726,0A11.726,11.726,0,1,1,11.726,0" fill="black" fill-opacity="0.7" stroke-width="1.5" opacity="0.7"/></g><g class="mark-text role-legend-label" pointer-events="none"><text text-anchor="start" transform="translate(38,15.5)" font-family="sans-serif" font-size="10px" fill="#000" opacity="1">58 ub</text></g></g><path class="foreground" aria-hidden="true" d="" pointer-events="none" display="none"/></g><g transform="translate(0,188)"><path class="background" aria-hidden="true" d="M0,0h65.2314453125v27.39239398064106h-65.2314453125Z" pointer-events="none" opacity="1"/><g><g class="mark-symbol role-legend-symbol" pointer-events="none"><path transform="translate(17,13.5)" d="M12.392,0A12.392,12.392,0,1,1,-12.392,0A12.392,12.392,0,1,1,12.392,0" fill="black" fill-opacity="0.7" stroke-width="1.5" opacity="0.7"/></g><g class="mark-text role-legend-label" pointer-events="none"><text text-anchor="start" transform="translate(38,16.5)" font-family="sans-serif" font-size="10px" fill="#000" opacity="1">63 ok</text></g></g><path class="foreground" aria-hidden="true" d="" pointer-events="none" display="none"/></g><g transform="translate(0,219)"><path class="background" aria-hidden="true" d="M0,0h65.2314453125v28.524701806293194h-65.2314453125Z" pointer-events="none" opacity="1"/><g><g class="mark-symbol role-legend-symbol" pointer-events="none"><path transform="translate(17,14)" d="M13.025,0A13.025,13.025,0,1,1,-13.025,0A13.025,13.025,0,1,1,13.025,0" fill="black" fill-opacity="0.7" stroke-width="1.5" opacity="0.7"/></g><g class="mark-text role-legend-label" pointer-events="none"><text text-anchor="start" transform="translate(38,17)" font-family="sans-serif" font-size="10px" fill="#000" opacity="1">66 xm</text></g></g><path class="foreground" aria-hidden="true" d="" pointer-events="none" display="none"/></g><g transform="translate(0,251)"><path class="background" aria-hidden="true" d="M0,0h65.2314453125v29.627702877384934h-65.2314453125Z" pointer-events="none" opacity="1"/><g><g class="mark-symbol role-legend-symbol" pointer-events="none"><path transform="translate(17,14.5)" d="M13.628,0A13.628,13.628,0,1,1,-13.628,0A13.628,13.628,0,1,1,13.628,0" fill="black" fill-opacity="0.7" stroke-width="1.5" opacity="0.7"/></g><g class="mark-text role-legend-label" pointer-events="none"><text text-anchor="start" transform="translate(38,17.5)" font-family="sans-serif" font-size="10px" fill="#000" opacity="1">69 uv</text></g></g><path class="foreground" aria-hidden="true" d="" pointer-events="none" display="none"/></g><g transform="translate(0,284)"><path class="background" aria-hidden="true" d="M0,0h65.2314453125v30.70512985810808h-65.2314453125Z" pointer-events="none" opacity="1"/><g><g class="mark-symbol role-legend-symbol" pointer-events="none"><path transform="translate(17,15)" d="M14.205,0A14.205,14.205,0,1,1,-14.205,0A14.205,14.205,0,1,1,14.205,0" fill="black" fill-opacity="0.7" stroke-width="1.5" opacity="0.7"/></g><g class="mark-text role-legend-label" pointer-events="none"><text text-anchor="start" transform="translate(38,18)" font-family="sans-serif" font-size="10px" fill="#000" opacity="1">90 oq</text></g></g><path class="foreground" aria-hidden="true" d="" pointer-events="none" display="none"/></g><g transform="translate(0,318)"><path class="background" aria-hidden="true" d="M0,0h65.2314453125v32.25998451412272h-65.2314453125Z" pointer-events="none" opacity="1"/><g><g class="mark-symbol role-legend-symbol" pointer-events="none"><path transform="translate(17,16)" d="M14.76,0A14.76,14.76,0,1,1,-14.76,0A14.76,14.76,0,1,1,14.76,0" fill="black" fill-opacity="0.7" stroke-width="1.5" opacity="0.7"/></g><g class="mark-text role-legend-label" pointer-events="none"><text text-anchor="start" transform="translate(38,19)" font-family="sans-serif" font-size="10px" fill="#000" opacity="1">91 ub</text></g></g><path class="foreground" aria-hidden="true" d="" pointer-events="none" display="none"/></g><g transform="translate(0,354)"><path class="background" aria-hidden="true" d="M0,0h65.2314453125v33.29472364668845h-65.2314453125Z" pointer-events="none" opacity="1"/><g><g class="mark-symbol role-legend-symbol" pointer-events="none"><path transform="translate(17,16.5)" d="M15.295,0A15.295,15.295,0,1,1,-15.295,0A15.295,15.295,0,1,1,15.295,0" fill="black" fill-opacity="0.7" stroke-width="1.5" opacity="0.7"/></g><g class="mark-text role-legend-label" pointer-events="none"><text text-anchor="start" transform="translate(38,19.5)" font-family="sans-serif" font-size="10px" fill="#000" opacity="1">94 kg</text></g></g><path class="foreground" aria-hidden="true" d="" pointer-events="none" display="none"/></g><g transform="translate(0,391)"><path class="background" aria-hidden="true" d="M0,0h65.2314453125v34.311388300841884h-65.2314453125Z" pointer-events="none" opacity="1"/><g><g class="mark-symbol role-legend-symbol" pointer-events="none"><path transform="translate(17,17)" d="M15.811,0A15.811,15.811,0,1,1,-15.811,0A15.811,15.811,0,1,1,15.811,0" fill="black" fill-opacity="0.7" stroke-width="1.5" opacity="0.7"/></g><g class="mark-text role-legend-label" pointer-events="none"><text text-anchor="start" transform="translate(38,20)" font-family="sans-serif" font-size="10px" fill="#000" opacity="1">95 vn</text></g></g><path class="foreground" aria-hidden="true" d="" pointer-events="none" display="none"/></g></g></g><path class="foreground" aria-hidden="true" d="" pointer-events="none" display="none"/></g></g><g class="mark-text role-legend-title" pointer-events="none"><text text-anchor="start" transform="translate(0,9)" font-family="sans-serif" font-size="11px" font-weight="bold" fill="#000" opacity="1">asset_model</text></g></g><path class="foreground" aria-hidden="true" d="" pointer-events="none" display="none"/></g></g></g><path class="foreground" aria-hidden="true" d="" display="none"/></g></g></g></svg>