<svg xmlns="http://www.w3.org/2000/svg" xmlns:xlink="http://www.w3.org/1999/xlink" version="1.1" class="marks" width="435" height="351" viewBox="0 0 435 351"><rect width="435" height="351" fill="white"/><g fill="none" stroke-miterlimit="10" transform="translate(53,14)"><g class="mark-group role-frame root" role="graphics-object" aria-roledescription="group mark container"><g transform="translate(0,0)"><path class="background" aria-hidden="true" d="M0.5,0.5h280v300h-280Z" stroke="#ddd"/><g><g class="mark-group role-axis" aria-hidden="true"><g transform="translate(0.5,0.5)"><path class="background" aria-hidden="true" d="M0,0h0v0h0Z" pointer-events="none"/><g><g class="mark-rule role-axis-grid" pointer-events="none"><line transform="translate(0,300)" x2="280" y2="0" stroke="#ddd" stroke-width="1" opacity="1"/><line transform="translate(0,254)" x2="280" y2="0" stroke="#ddd" stroke-width="1" opacity="1"/><line transform="translate(0,208)" x2="280" y2="0" stroke="#ddd" stroke-width="1" opacity="1"/><line transform="translate(0,162)" x2="280" y2="0" stroke="#ddd" stroke-width="1" opacity="1"/><line transform="translate(0,115)" x2="280" y2="0" stroke="#ddd" stroke-width="1" opacity="1"/><line transform="translate(0,69)" x2="280" y2="0" stroke="#ddd" stroke-width="1" opacity="1"/><line transform="translate(0,23)" x2="280" y2="0" stroke="#ddd" stroke-width="1" opacity="1"/></g></g><path class="foreground" aria-hidden="true" d="" pointer-events="none" display="none"/></g></g><g class="mark-group role-axis" role="graphics-symbol" aria-roledescription="axis" aria-label="X-axis titled 'student_id' for a discrete scale with 14 values: 1, 2, 3, 4, 5, ending with 15"><g transform="translate(0.5,300.5)"><path class="background" aria-hidden="true" d="M0,0h0v0h0Z" pointer-events="none"/><g><g class="mark-rule role-axis-tick" pointer-events="none"><line transform="translate(10,0)" x2="0" y2="5" stroke="#888" stroke-width="1" opacity="1"/><line transform="translate(30,0)" x2="0" y2="5" stroke="#888" stroke-width="1" opacity="1"/><line transform="translate(50,0)" x2="0" y2="5" stroke="#888" stroke-width="1" opacity="1"/><line transform="translate(70,0)" x2="0" y2="5" stroke="#888" stroke-width="1" opacity="1"/><line transform="translate(90,0)" x2="0" y2="5" stroke="#888" stroke-width="1" opacity="1"/><line transform="translate(110,0)" x2="0" y2="5" stroke="#888" stroke-width="1" opacity="1"/><line transform="translate(130,0)" x2="0" y2="5" stroke="#888" stroke-width="1" opacity="1"/><line transform="translate(150,0)" x2="0" y2="5" stroke="#888" stroke-width="1" opacity="1"/><line transform="translate(170,0)" x2="0" y2="5" stroke="#888" stroke-width="1" opacity="1"/><line transform="translate(190,0)" x2="0" y2="5" stroke="#888" stroke-width="1" opacity="1"/><line transform="translate(210,0)" x2="0" y2="5" stroke="#888" stroke-width="1" opacity="1"/><line transform="translate(230,0)" x2="0" y2="5" stroke="#888" stroke-width="1" opacity="1"/><line transform="translate(250,0)" x2="0" y2="5" stroke="#888" stroke-width="1" opacity="1"/><line transform="translate(270,0)" x2="0" y2="5" stroke="#888" stroke-width="1" opacity="1"/></g><g class="mark-text role-axis-label" pointer-events="none"><text text-anchor="middle" transform="translate(10,15)" font-family="sans-serif" font-size="10px" fill="#000" opacity="1">1</text><text text-anchor="middle" transform="translate(30,15)" font-family="sans-serif" font-size="10px" fill="#000" opacity="1">2</text><text text-anchor="middle" transform="translate(50,15)" font-family="sans-serif" font-size="10px" fill="#000" opacity="1">3</text><text text-anchor="middle" transform="translate(70,15)" font-family="sans-serif" font-size="10px" fill="#000" opacity="1">4</text><text text-anchor="middle" transform="translate(90,15)" font-family="sans-serif" font-size="10px" fill="#000" opacity="1">5</text><text text-anchor="middle" transform="translate(110,15)" font-family="sans-serif" font-size="10px" fill="#000" opacity="1">6</text><text text-anchor="middle" transform="translate(130,15)" font-family="sans-serif" font-size="10px" fill="#000" opacity="1">7</text><text text-anchor="middle" transform="translate(150,15)" font-family="sans-serif" font-size="10px" fill="#000" opacity="1">8</text><text text-anchor="middle" transform="translate(170,15)" font-family="sans-serif" font-size="10px" fill="#000" opacity="1">9</text><text text-anchor="middle" transform="translate(190,15)" font-family="sans-serif" font-size="10px" fill="#000" opacity="1">10</text><text text-anchor="middle" transform="translate(210,15)" font-family="sans-serif" font-size="10px" fill="#000" opacity="1">11</text><text text-anchor="middle" transform="translate(230,15)" font-family="sans-serif" font-size="10px" fill="#000" opacity="1">12</text><text text-anchor="middle" transform="translate(250,15)" font-family="sans-serif" font-size="10px" fill="#000" opacity="1">13</text><text text-anchor="middle" transform="translate(270,15)" font-family="sans-serif" font-size="10px" fill="#000" opacity="1">15</text></g><g class="mark-rule role-axis-domain" pointer-events="none"><line transform="translate(0,0)" x2="280" y2="0" stroke="#888" stroke-width="1" opacity="1"/></g><g class="mark-text role-axis-title" pointer-events="none"><text text-anchor="middle" transform="translate(140,30)" font-family="sans-serif" font-size="11px" font-weight="bold" fill="#000" opacity="1">student_id</text></g></g><path class="foreground" aria-hidden="true" d="" pointer-events="none" display="none"/></g></g><g class="mark-group role-axis" role="graphics-symbol" aria-roledescription="axis" aria-label="Y-axis titled 'monthly_rental' for a linear scale with values from 0 to 1,300"><g transform="translate(0.5,0.5)"><path class="background" aria-hidden="true" d="M0,0h0v0h0Z" pointer-events="none"/><g><g class="mark-rule role-axis-tick" pointer-events="none"><line transform="translate(0,300)" x2="-5" y2="0" stroke="#888" stroke-width="1" opacity="1"/><line transform="translate(0,254)" x2="-5" y2="0" stroke="#888" stroke-width="1" opacity="1"/><line transform="translate(0,208)" x2="-5" y2="0" stroke="#888" stroke-width="1" opacity="1"/><line transform="translate(0,162)" x2="-5" y2="0" stroke="#888" stroke-width="1" opacity="1"/><line transform="translate(0,115)" x2="-5" y2="0" stroke="#888" stroke-width="1" opacity="1"/><line transform="translate(0,69)" x2="-5" y2="0" stroke="#888" stroke-width="1" opacity="1"/><line transform="translate(0,23)" x2="-5" y2="0" stroke="#888" stroke-width="1" opacity="1"/></g><g class="mark-text role-axis-label" pointer-events="none"><text text-anchor="end" transform="translate(-7,303)" font-family="sans-serif" font-size="10px" fill="#000" opacity="1">0</text><text text-anchor="end" transform="translate(-7,256.8461538461538)" font-family="sans-serif" font-size="10px" fill="#000" opacity="1">200</text><text text-anchor="end" transform="translate(-7,210.69230769230768)" font-family="sans-serif" font-size="10px" fill="#000" opacity="1">400</text><text text-anchor="end" transform="translate(-7,164.53846153846152)" font-family="sans-serif" font-size="10px" fill="#000" opacity="1">600</text><text text-anchor="end" transform="translate(-7,118.38461538461537)" font-family="sans-serif" font-size="10px" fill="#000" opacity="1">800</text><text text-anchor="end" transform="translate(-7,72.23076923076921)" font-family="sans-serif" font-size="10px" fill="#000" opacity="1">1,000</text><text text-anchor="end" transform="translate(-7,26.076923076923062)" font-family="sans-serif" font-size="10px" fill="#000" opacity="1">1,200</text></g><g class="mark-rule role-axis-domain" pointer-events="none"><line transform="translate(0,300)" x2="0" y2="-300" stroke="#888" stroke-width="1" opacity="1"/></g><g class="mark-text role-axis-title" pointer-events="none"><text text-anchor="middle" transform="translate(-36.0244140625,150) rotate(-90) translate(0,-2)" font-family="sans-serif" font-size="11px" font-weight="bold" fill="#000" opacity="1">monthly_rental</text></g></g><path class="foreground" aria-hidden="true" d="" pointer-events="none" display="none"/></g></g><g class="mark-symbol role-mark marks" role="graphics-object" aria-roledescription="symbol mark container"><path aria-label="student_id: 6; monthly_rental: 826.4319; other_details: house" role="graphics-symbol" aria-roledescription="circle" transform="translate(110,109.28494615384615)" d="M7.581,0A7.581,7.581,0,1,1,-7.581,0A7.581,7.581,0,1,1,7.581,0" fill="#f58518" stroke-width="2" opacity="0.7"/><path aria-label="student_id: 3; monthly_rental: 1113.0996; other_details: house" role="graphics-symbol" aria-roledescription="circle" transform="translate(50,43.13086153846155)" d="M8.798,0A8.798,8.798,0,1,1,-8.798,0A8.798,8.798,0,1,1,8.798,0" fill="#f58518" stroke-width="2" opacity="0.7"/><path aria-label="student_id: 8; monthly_rental: 1297.3186; other_details: apartment" role="graphics-symbol" aria-roledescription="circle" transform="translate(150,0.6187846153846155)" d="M9.498,0A9.498,9.498,0,1,1,-9.498,0A9.498,9.498,0,1,1,9.498,0" fill="#4c78a8" stroke-width="2" opacity="0.7"/><path aria-label="student_id: 7; monthly_rental: 894.0958; other_details: house" role="graphics-symbol" aria-roledescription="circle" transform="translate(130,93.67020000000001)" d="M7.885,0A7.885,7.885,0,1,1,-7.885,0A7.885,7.885,0,1,1,7.885,0" fill="#f58518" stroke-width="2" opacity="0.7"/><path aria-label="student_id: 13; monthly_rental: 1297.807; other_details: apartment" role="graphics-symbol" aria-roledescription="circle" transform="translate(250,0.5060769230769258)" d="M9.5,0A9.5,9.5,0,1,1,-9.5,0A9.5,9.5,0,1,1,9.5,0" fill="#4c78a8" stroke-width="2" opacity="0.7"/><path aria-label="student_id: 11; monthly_rental: 747.5312; other_details: house" role="graphics-symbol" aria-roledescription="circle" transform="translate(210,127.4928)" d="M7.21,0A7.21,7.21,0,1,1,-7.21,0A7.21,7.21,0,1,1,7.21,0" fill="#f58518" stroke-width="2" opacity="0.7"/><path aria-label="student_id: 4; monthly_rental: 756.6745; other_details: house" role="graphics-symbol" aria-roledescription="circle" transform="translate(70,125.3828076923077)" d="M7.254,0A7.254,7.254,0,1,1,-7.254,0A7.254,7.254,0,1,1,7.254,0" fill="#f58518" stroke-width="2" opacity="0.7"/><path aria-label="student_id: 2; monthly_rental: 1287.5604; other_details: house" role="graphics-symbol" aria-roledescription="circle" transform="translate(30,2.870676923076909)" d="M9.462,0A9.462,9.462,0,1,1,-9.462,0A9.462,9.462,0,1,1,9.462,0" fill="#f58518" stroke-width="2" opacity="0.7"/><path aria-label="student_id: 7; monthly_rental: 1067.8383; other_details: house" role="graphics-symbol" aria-roledescription="circle" transform="translate(130,53.57577692307694)" d="M8.617,0A8.617,8.617,0,1,1,-8.617,0A8.617,8.617,0,1,1,8.617,0" fill="#f58518" stroke-width="2" opacity="0.7"/><path aria-label="student_id: 4; monthly_rental: 1132.742; other_details: house" role="graphics-symbol" aria-roledescription="circle" transform="translate(70,38.598)" d="M8.875,0A8.875,8.875,0,1,1,-8.875,0A8.875,8.875,0,1,1,8.875,0" fill="#f58518" stroke-width="2" opacity="0.7"/><path aria-label="student_id: 8; monthly_rental: 683.0735; other_details: house" role="graphics-symbol" aria-roledescription="circle" transform="translate(150,142.36765384615384)" d="M6.892,0A6.892,6.892,0,1,1,-6.892,0A6.892,6.892,0,1,1,6.892,0" fill="#f58518" stroke-width="2" opacity="0.7"/><path aria-label="student_id: 5; monthly_rental: 1036.8462; other_details: apartment" role="graphics-symbol" aria-roledescription="circle" transform="translate(90,60.7278)" d="M8.491,0A8.491,8.491,0,1,1,-8.491,0A8.491,8.491,0,1,1,8.491,0" fill="#4c78a8" stroke-width="2" opacity="0.7"/><path aria-label="student_id: 2; monthly_rental: 800.1214; other_details: house" role="graphics-symbol" aria-roledescription="circle" transform="translate(30,115.35660000000001)" d="M7.459,0A7.459,7.459,0,1,1,-7.459,0A7.459,7.459,0,1,1,7.459,0" fill="#f58518" stroke-width="2" opacity="0.7"/><path aria-label="student_id: 2; monthly_rental: 865.2615; other_details: house" role="graphics-symbol" aria-roledescription="circle" transform="translate(30,100.32426923076925)" d="M7.757,0A7.757,7.757,0,1,1,-7.757,0A7.757,7.757,0,1,1,7.757,0" fill="#f58518" stroke-width="2" opacity="0.7"/><path aria-label="student_id: 9; monthly_rental: 679.2988; other_details: house" role="graphics-symbol" aria-roledescription="circle" transform="translate(170,143.23873846153845)" d="M6.873,0A6.873,6.873,0,1,1,-6.873,0A6.873,6.873,0,1,1,6.873,0" fill="#f58518" stroke-width="2" opacity="0.7"/><path aria-label="student_id: 13; monthly_rental: 644.9306; other_details: apartment" role="graphics-symbol" aria-roledescription="circle" transform="translate(250,151.16986153846153)" d="M6.697,0A6.697,6.697,0,1,1,-6.697,0A6.697,6.697,0,1,1,6.697,0" fill="#4c78a8" stroke-width="2" opacity="0.7"/><path aria-label="student_id: 15; monthly_rental: 1032.8717; other_details: apartment" role="graphics-symbol" aria-roledescription="circle" transform="translate(270,61.64499230769231)" d="M8.475,0A8.475,8.475,0,1,1,-8.475,0A8.475,8.475,0,1,1,8.475,0" fill="#4c78a8" stroke-width="2" opacity="0.7"/><path aria-label="student_id: 12; monthly_rental: 1032.9782; other_details: apartment" role="graphics-symbol" aria-roledescription="circle" transform="translate(230,61.62041538461538)" d="M8.475,0A8.475,8.475,0,1,1,-8.475,0A8.475,8.475,0,1,1,8.475,0" fill="#4c78a8" stroke-width="2" opacity="0.7"/><path aria-label="student_id: 1; monthly_rental: 1007.2597; other_details: apartment" role="graphics-symbol" aria-roledescription="circle" transform="translate(10,67.55545384615385)" d="M8.369,0A8.369,8.369,0,1,1,-8.369,0A8.369,8.369,0,1,1,8.369,0" fill="#4c78a8" stroke-width="2" opacity="0.7"/><path aria-label="student_id: 10; monthly_rental: 620.2801; other_details: house" role="graphics-symbol" aria-roledescription="circle" transform="translate(190,156.85843846153847)" d="M6.568,0A6.568,6.568,0,1,1,-6.568,0A6.568,6.568,0,1,1,6.568,0" fill="#f58518" stroke-width="2" opacity="0.7"/></g><g class="mark-group role-legend" role="graphics-symbol" aria-roledescription="legend" aria-label="Symbol legend titled 'other_details' for fill color with 2 values: apartment, house"><g transform="translate(298,0)"><path class="background" aria-hidden="true" d="M0,0h69v40h-69Z" pointer-events="none"/><g><g class="mark-group role-legend-entry"><g transform="translate(0,16)"><path class="background" aria-hidden="true" d="M0,0h0v0h0Z" pointer-events="none"/><g><g class="mark-group role-scope" role="graphics-object" aria-roledescription="group mark container"><g transform="translate(0,0)"><path class="background" aria-hidden="true" d="M0,0h61.0244140625v11h-61.0244140625Z" pointer-events="none" opacity="1"/><g><g class="mark-symbol role-legend-symbol" pointer-events="none"><path transform="translate(6,6)" d="M5,0A5,5,0,1,1,-5,0A5,5,0,1,1,5,0" fill="#4c78a8" stroke-width="1.5" opacity="0.7"/></g><g class="mark-text role-legend-label" pointer-events="none"><text text-anchor="start" transform="translate(16,9)" font-family="sans-serif" font-size="10px" fill="#000" opacity="1">apartment</text></g></g><path class="foreground" aria-hidden="true" d="" pointer-events="none" display="none"/></g><g transform="translate(0,13)"><path class="background" aria-hidden="true" d="M0,0h61.0244140625v11h-61.0244140625Z" pointer-events="none" opacity="1"/><g><g class="mark-symbol role-legend-symbol" pointer-events="none"><path transform="translate(6,6)" d="M5,0A5,5,0,1,1,-5,0A5,5,0,1,1,5,0" fill="#f58518" stroke-width="1.5" opacity="0.7"/></g><g class="mark-text role-legend-label" pointer-events="none"><text text-anchor="start" transform="translate(16,9)" font-family="sans-serif" font-size="10px" fill="#000" opacity="1">house</text></g></g><path class="foreground" aria-hidden="true" d="" pointer-events="none" display="none"/></g></g></g><path class="foreground" aria-hidden="true" d="" pointer-events="none" display="none"/></g></g><g class="mark-text role-legend-title" pointer-events="none"><text text-anchor="start" transform="translate(0,9)" font-family="sans-serif" font-size="11px" font-weight="bold" fill="#000" opacity="1">other_details</text></g></g><path class="foreground" aria-hidden="true" d="" pointer-events="none" display="none"/></g></g><g class="mark-group role-legend" role="graphics-symbol" aria-roledescription="legend" aria-label="Symbol legend titled 'monthly_rental' for size with values from 0 to 1,298"><g transform="translate(298,48)"><path class="background" aria-hidden="true" d="M0,0h79v131h-79Z" pointer-events="none"/><g><g class="mark-group role-legend-entry"><g transform="translate(0,16)"><path class="background" aria-hidden="true" d="M0,0h0v0h0Z" pointer-events="none"/><g><g class="mark-group role-scope" role="graphics-object" aria-roledescription="group mark container"><g transform="translate(0,0)"><path class="background" aria-hidden="true" d="M0,0h49.0244140625v10.229353461535789h-49.0244140625Z" pointer-events="none" opacity="1"/><g><g class="mark-symbol role-legend-symbol" pointer-events="none"><path transform="translate(10,5)" d="M3.729,0A3.729,3.729,0,1,1,-3.729,0A3.729,3.729,0,1,1,3.729,0" fill="black" fill-opacity="0.7" stroke-width="1.5" opacity="0.7"/></g><g class="mark-text role-legend-label" pointer-events="none"><text text-anchor="start" transform="translate(24,8)" font-family="sans-serif" font-size="10px" fill="#000" opacity="1">200</text></g></g><path class="foreground" aria-hidden="true" d="" pointer-events="none" display="none"/></g><g transform="translate(0,14)"><path class="background" aria-hidden="true" d="M0,0h49.0244140625v13.274102244186963h-49.0244140625Z" pointer-events="none" opacity="1"/><g><g class="mark-symbol role-legend-symbol" pointer-events="none"><path transform="translate(10,6.5)" d="M5.274,0A5.274,5.274,0,1,1,-5.274,0A5.274,5.274,0,1,1,5.274,0" fill="black" fill-opacity="0.7" stroke-width="1.5" opacity="0.7"/></g><g class="mark-text role-legend-label" pointer-events="none"><text text-anchor="start" transform="translate(24,9.5)" font-family="sans-serif" font-size="10px" fill="#000" opacity="1">400</text></g></g><path class="foreground" aria-hidden="true" d="" pointer-events="none" display="none"/></g><g transform="translate(0,31)"><path class="background" aria-hidden="true" d="M0,0h49.0244140625v15.459429674762852h-49.0244140625Z" pointer-events="none" opacity="1"/><g><g class="mark-symbol role-legend-symbol" pointer-events="none"><path transform="translate(10,7.5)" d="M6.459,0A6.459,6.459,0,1,1,-6.459,0A6.459,6.459,0,1,1,6.459,0" fill="black" fill-opacity="0.7" stroke-width="1.5" opacity="0.7"/></g><g class="mark-text role-legend-label" pointer-events="none"><text text-anchor="start" transform="translate(24,10.5)" font-family="sans-serif" font-size="10px" fill="#000" opacity="1">600</text></g></g><path class="foreground" aria-hidden="true" d="" pointer-events="none" display="none"/></g><g transform="translate(0,50)"><path class="background" aria-hidden="true" d="M0,0h49.0244140625v17.458706923071574h-49.0244140625Z" pointer-events="none" opacity="1"/><g><g class="mark-symbol role-legend-symbol" pointer-events="none"><path transform="translate(10,8.5)" d="M7.459,0A7.459,7.459,0,1,1,-7.459,0A7.459,7.459,0,1,1,7.459,0" fill="black" fill-opacity="0.7" stroke-width="1.5" opacity="0.7"/></g><g class="mark-text role-legend-label" pointer-events="none"><text text-anchor="start" transform="translate(24,11.5)" font-family="sans-serif" font-size="10px" fill="#000" opacity="1">800</text></g></g><path class="foreground" aria-hidden="true" d="" pointer-events="none" display="none"/></g><g transform="translate(0,71)"><path class="background" aria-hidden="true" d="M0,0h49.0244140625v19.33908785211817h-49.0244140625Z" pointer-events="none" opacity="1"/><g><g class="mark-symbol role-legend-symbol" pointer-events="none"><path transform="translate(10,9.5)" d="M8.339,0A8.339,8.339,0,1,1,-8.339,0A8.339,8.339,0,1,1,8.339,0" fill="black" fill-opacity="0.7" stroke-width="1.5" opacity="0.7"/></g><g class="mark-text role-legend-label" pointer-events="none"><text text-anchor="start" transform="translate(24,12.5)" font-family="sans-serif" font-size="10px" fill="#000" opacity="1">1,000</text></g></g><path class="foreground" aria-hidden="true" d="" pointer-events="none" display="none"/></g><g transform="translate(0,94)"><path class="background" aria-hidden="true" d="M0,0h49.0244140625v20.635013051244854h-49.0244140625Z" pointer-events="none" opacity="1"/><g><g class="mark-symbol role-legend-symbol" pointer-events="none"><path transform="translate(10,10)" d="M9.135,0A9.135,9.135,0,1,1,-9.135,0A9.135,9.135,0,1,1,9.135,0" fill="black" fill-opacity="0.7" stroke-width="1.5" opacity="0.7"/></g><g class="mark-text role-legend-label" pointer-events="none"><text text-anchor="start" transform="translate(24,13)" font-family="sans-serif" font-size="10px" fill="#000" opacity="1">1,200</text></g></g><path class="foreground" aria-hidden="true" d="" pointer-events="none" display="none"/></g></g></g><path class="foreground" aria-hidden="true" d="" pointer-events="none" display="none"/></g></g><g class="mark-text role-legend-title" pointer-events="none"><text text-anchor="start" transform="translate(0,9)" font-family="sans-serif" font-size="11px" font-weight="bold" fill="#000" opacity="1">monthly_rental</text></g></g><path class="foreground" aria-hidden="true" d="" pointer-events="none" display="none"/></g></g></g><path class="foreground" aria-hidden="true" d="" display="none"/></g></g></g></svg>