<svg xmlns="http://www.w3.org/2000/svg" xmlns:xlink="http://www.w3.org/1999/xlink" version="1.1" class="marks" width="415" height="84" viewBox="0 0 415 84"><rect width="415" height="84" fill="white"/><g fill="none" stroke-miterlimit="10" transform="translate(33,5)"><g class="mark-group role-frame root" role="graphics-object" aria-roledescription="group mark container"><g transform="translate(0,0)"><path class="background" aria-hidden="true" d="M0.5,0.5h300v40h-300Z" stroke="#ddd"/><g><g class="mark-group role-axis" role="graphics-symbol" aria-roledescription="axis" aria-label="X-axis titled 'teacher_id' for a discrete scale with 15 values: 1, 2, 3, 4, 5, ending with 15"><g transform="translate(0.5,40.5)"><path class="background" aria-hidden="true" d="M0,0h0v0h0Z" pointer-events="none"/><g><g class="mark-rule role-axis-tick" pointer-events="none"><line transform="translate(10,0)" x2="0" y2="5" stroke="#888" stroke-width="1" opacity="1"/><line transform="translate(30,0)" x2="0" y2="5" stroke="#888" stroke-width="1" opacity="1"/><line transform="translate(50,0)" x2="0" y2="5" stroke="#888" stroke-width="1" opacity="1"/><line transform="translate(70,0)" x2="0" y2="5" stroke="#888" stroke-width="1" opacity="1"/><line transform="translate(90,0)" x2="0" y2="5" stroke="#888" stroke-width="1" opacity="1"/><line transform="translate(110,0)" x2="0" y2="5" stroke="#888" stroke-width="1" opacity="1"/><line transform="translate(130,0)" x2="0" y2="5" stroke="#888" stroke-width="1" opacity="1"/><line transform="translate(150,0)" x2="0" y2="5" stroke="#888" stroke-width="1" opacity="1"/><line transform="translate(170,0)" x2="0" y2="5" stroke="#888" stroke-width="1" opacity="1"/><line transform="translate(190,0)" x2="0" y2="5" stroke="#888" stroke-width="1" opacity="1"/><line transform="translate(210,0)" x2="0" y2="5" stroke="#888" stroke-width="1" opacity="1"/><line transform="translate(230,0)" x2="0" y2="5" stroke="#888" stroke-width="1" opacity="1"/><line transform="translate(250,0)" x2="0" y2="5" stroke="#888" stroke-width="1" opacity="1"/><line transform="translate(270,0)" x2="0" y2="5" stroke="#888" stroke-width="1" opacity="1"/><line transform="translate(290,0)" x2="0" y2="5" stroke="#888" stroke-width="1" opacity="1"/></g><g class="mark-text role-axis-label" pointer-events="none"><text text-anchor="end" transform="translate(10,7) rotate(270) translate(0,3)" font-family="sans-serif" font-size="10px" fill="#000" opacity="1">1</text><text text-anchor="end" transform="translate(30,7) rotate(270) translate(0,3)" font-family="sans-serif" font-size="10px" fill="#000" opacity="1">2</text><text text-anchor="end" transform="translate(50,7) rotate(270) translate(0,3)" font-family="sans-serif" font-size="10px" fill="#000" opacity="1">3</text><text text-anchor="end" transform="translate(70,7) rotate(270) translate(0,3)" font-family="sans-serif" font-size="10px" fill="#000" opacity="1">4</text><text text-anchor="end" transform="translate(90,7) rotate(270) translate(0,3)" font-family="sans-serif" font-size="10px" fill="#000" opacity="1">5</text><text text-anchor="end" transform="translate(110,7) rotate(270) translate(0,3)" font-family="sans-serif" font-size="10px" fill="#000" opacity="1">6</text><text text-anchor="end" transform="translate(130,7) rotate(270) translate(0,3)" font-family="sans-serif" font-size="10px" fill="#000" opacity="1">7</text><text text-anchor="end" transform="translate(150,7) rotate(270) translate(0,3)" font-family="sans-serif" font-size="10px" fill="#000" opacity="1">8</text><text text-anchor="end" transform="translate(170,7) rotate(270) translate(0,3)" font-family="sans-serif" font-size="10px" fill="#000" opacity="1">9</text><text text-anchor="end" transform="translate(190,7) rotate(270) translate(0,3)" font-family="sans-serif" font-size="10px" fill="#000" opacity="1">10</text><text text-anchor="end" transform="translate(210,7) rotate(270) translate(0,3)" font-family="sans-serif" font-size="10px" fill="#000" opacity="1">11</text><text text-anchor="end" transform="translate(230,7) rotate(270) translate(0,3)" font-family="sans-serif" font-size="10px" fill="#000" opacity="1">12</text><text text-anchor="end" transform="translate(250,7) rotate(270) translate(0,3)" font-family="sans-serif" font-size="10px" fill="#000" opacity="1">13</text><text text-anchor="end" transform="translate(270,7) rotate(270) translate(0,3)" font-family="sans-serif" font-size="10px" fill="#000" opacity="1">14</text><text text-anchor="end" transform="translate(290,7) rotate(270) translate(0,3)" font-family="sans-serif" font-size="10px" fill="#000" opacity="1">15</text></g><g class="mark-rule role-axis-domain" pointer-events="none"><line transform="translate(0,0)" x2="300" y2="0" stroke="#888" stroke-width="1" opacity="1"/></g><g class="mark-text role-axis-title" pointer-events="none"><text text-anchor="middle" transform="translate(150,31.123046875)" font-family="sans-serif" font-size="11px" font-weight="bold" fill="#000" opacity="1">teacher_id</text></g></g><path class="foreground" aria-hidden="true" d="" pointer-events="none" display="none"/></g></g><g class="mark-group role-axis" role="graphics-symbol" aria-roledescription="axis" aria-label="Y-axis titled 'gender' for a discrete scale with 2 values: 0, 1"><g transform="translate(0.5,0.5)"><path class="background" aria-hidden="true" d="M0,0h0v0h0Z" pointer-events="none"/><g><g class="mark-rule role-axis-tick" pointer-events="none"><line transform="translate(0,10)" x2="-5" y2="0" stroke="#888" stroke-width="1" opacity="1"/><line transform="translate(0,30)" x2="-5" y2="0" stroke="#888" stroke-width="1" opacity="1"/></g><g class="mark-text role-axis-label" pointer-events="none"><text text-anchor="end" transform="translate(-7,13)" font-family="sans-serif" font-size="10px" fill="#000" opacity="1">0</text><text text-anchor="end" transform="translate(-7,33)" font-family="sans-serif" font-size="10px" fill="#000" opacity="1">1</text></g><g class="mark-rule role-axis-domain" pointer-events="none"><line transform="translate(0,0)" x2="0" y2="40" stroke="#888" stroke-width="1" opacity="1"/></g><g class="mark-text role-axis-title" pointer-events="none"><text text-anchor="middle" transform="translate(-16.5615234375,20) rotate(-90) translate(0,-2)" font-family="sans-serif" font-size="11px" font-weight="bold" fill="#000" opacity="1">gender</text></g></g><path class="foreground" aria-hidden="true" d="" pointer-events="none" display="none"/></g></g><g class="mark-symbol role-mark marks" role="graphics-object" aria-roledescription="symbol mark container"><path aria-label="teacher_id: 1; gender: 1; address_id: 15" role="graphics-symbol" aria-roledescription="circle" transform="translate(10,30)" d="M8.441,0A8.441,8.441,0,1,1,-8.441,0A8.441,8.441,0,1,1,8.441,0" fill="#4c78a8" stroke-width="2" opacity="0.7"/><path aria-label="teacher_id: 2; gender: 1; address_id: 7" role="graphics-symbol" aria-roledescription="circle" transform="translate(30,30)" d="M5.766,0A5.766,5.766,0,1,1,-5.766,0A5.766,5.766,0,1,1,5.766,0" fill="#4c78a8" stroke-width="2" opacity="0.7"/><path aria-label="teacher_id: 3; gender: 1; address_id: 8" role="graphics-symbol" aria-roledescription="circle" transform="translate(50,30)" d="M6.164,0A6.164,6.164,0,1,1,-6.164,0A6.164,6.164,0,1,1,6.164,0" fill="#4c78a8" stroke-width="2" opacity="0.7"/><path aria-label="teacher_id: 4; gender: 1; address_id: 7" role="graphics-symbol" aria-roledescription="circle" transform="translate(70,30)" d="M5.766,0A5.766,5.766,0,1,1,-5.766,0A5.766,5.766,0,1,1,5.766,0" fill="#4c78a8" stroke-width="2" opacity="0.7"/><path aria-label="teacher_id: 5; gender: 1; address_id: 15" role="graphics-symbol" aria-roledescription="circle" transform="translate(90,30)" d="M8.441,0A8.441,8.441,0,1,1,-8.441,0A8.441,8.441,0,1,1,8.441,0" fill="#4c78a8" stroke-width="2" opacity="0.7"/><path aria-label="teacher_id: 6; gender: 1; address_id: 16" role="graphics-symbol" aria-roledescription="circle" transform="translate(110,30)" d="M8.718,0A8.718,8.718,0,1,1,-8.718,0A8.718,8.718,0,1,1,8.718,0" fill="#4c78a8" stroke-width="2" opacity="0.7"/><path aria-label="teacher_id: 7; gender: 1; address_id: 3" role="graphics-symbol" aria-roledescription="circle" transform="translate(130,30)" d="M3.775,0A3.775,3.775,0,1,1,-3.775,0A3.775,3.775,0,1,1,3.775,0" fill="#4c78a8" stroke-width="2" opacity="0.7"/><path aria-label="teacher_id: 8; gender: 0; address_id: 13" role="graphics-symbol" aria-roledescription="circle" transform="translate(150,10)" d="M7.858,0A7.858,7.858,0,1,1,-7.858,0A7.858,7.858,0,1,1,7.858,0" fill="#4c78a8" stroke-width="2" opacity="0.7"/><path aria-label="teacher_id: 9; gender: 1; address_id: 2" role="graphics-symbol" aria-roledescription="circle" transform="translate(170,30)" d="M3.082,0A3.082,3.082,0,1,1,-3.082,0A3.082,3.082,0,1,1,3.082,0" fill="#4c78a8" stroke-width="2" opacity="0.7"/><path aria-label="teacher_id: 10; gender: 0; address_id: 8" role="graphics-symbol" aria-roledescription="circle" transform="translate(190,10)" d="M6.164,0A6.164,6.164,0,1,1,-6.164,0A6.164,6.164,0,1,1,6.164,0" fill="#4c78a8" stroke-width="2" opacity="0.7"/><path aria-label="teacher_id: 11; gender: 0; address_id: 12" role="graphics-symbol" aria-roledescription="circle" transform="translate(210,10)" d="M7.55,0A7.55,7.55,0,1,1,-7.55,0A7.55,7.55,0,1,1,7.55,0" fill="#4c78a8" stroke-width="2" opacity="0.7"/><path aria-label="teacher_id: 12; gender: 1; address_id: 10" role="graphics-symbol" aria-roledescription="circle" transform="translate(230,30)" d="M6.892,0A6.892,6.892,0,1,1,-6.892,0A6.892,6.892,0,1,1,6.892,0" fill="#4c78a8" stroke-width="2" opacity="0.7"/><path aria-label="teacher_id: 13; gender: 0; address_id: 19" role="graphics-symbol" aria-roledescription="circle" transform="translate(250,10)" d="M9.5,0A9.5,9.5,0,1,1,-9.5,0A9.5,9.5,0,1,1,9.5,0" fill="#4c78a8" stroke-width="2" opacity="0.7"/><path aria-label="teacher_id: 14; gender: 0; address_id: 14" role="graphics-symbol" aria-roledescription="circle" transform="translate(270,10)" d="M8.155,0A8.155,8.155,0,1,1,-8.155,0A8.155,8.155,0,1,1,8.155,0" fill="#4c78a8" stroke-width="2" opacity="0.7"/><path aria-label="teacher_id: 15; gender: 1; address_id: 10" role="graphics-symbol" aria-roledescription="circle" transform="translate(290,30)" d="M6.892,0A6.892,6.892,0,1,1,-6.892,0A6.892,6.892,0,1,1,6.892,0" fill="#4c78a8" stroke-width="2" opacity="0.7"/></g><g class="mark-group role-legend" role="graphics-symbol" aria-roledescription="legend" aria-label="Symbol legend titled 'address_id' for size with values from 0 to 19"><g transform="translate(318,0)"><path class="background" aria-hidden="true" d="M0,0h59v72h-59Z" pointer-events="none"/><g><g class="mark-group role-legend-entry"><g transform="translate(0,16)"><path class="background" aria-hidden="true" d="M0,0h0v0h0Z" pointer-events="none"/><g><g class="mark-group role-scope" role="graphics-object" aria-roledescription="group mark container"><g transform="translate(0,0)"><path class="background" aria-hidden="true" d="M0,0h34.123046875v12.37339717240448h-34.123046875Z" pointer-events="none" opacity="1"/><g><g class="mark-symbol role-legend-symbol" pointer-events="none"><path transform="translate(9.5,6)" d="M4.873,0A4.873,4.873,0,1,1,-4.873,0A4.873,4.873,0,1,1,4.873,0" fill="#4c78a8" stroke-width="1.5" opacity="0.7"/></g><g class="mark-text role-legend-label" pointer-events="none"><text text-anchor="start" transform="translate(23,9)" font-family="sans-serif" font-size="10px" fill="#000" opacity="1">5</text></g></g><path class="foreground" aria-hidden="true" d="" pointer-events="none" display="none"/></g><g transform="translate(0,16)"><path class="background" aria-hidden="true" d="M0,0h34.123046875v16.392024376045114h-34.123046875Z" pointer-events="none" opacity="1"/><g><g class="mark-symbol role-legend-symbol" pointer-events="none"><path transform="translate(9.5,8)" d="M6.892,0A6.892,6.892,0,1,1,-6.892,0A6.892,6.892,0,1,1,6.892,0" fill="#4c78a8" stroke-width="1.5" opacity="0.7"/></g><g class="mark-text role-legend-label" pointer-events="none"><text text-anchor="start" transform="translate(23,11)" font-family="sans-serif" font-size="10px" fill="#000" opacity="1">10</text></g></g><path class="foreground" aria-hidden="true" d="" pointer-events="none" display="none"/></g><g transform="translate(0,36)"><path class="background" aria-hidden="true" d="M0,0h34.123046875v19.440971508067065h-34.123046875Z" pointer-events="none" opacity="1"/><g><g class="mark-symbol role-legend-symbol" pointer-events="none"><path transform="translate(9.5,9.5)" d="M8.441,0A8.441,8.441,0,1,1,-8.441,0A8.441,8.441,0,1,1,8.441,0" fill="#4c78a8" stroke-width="1.5" opacity="0.7"/></g><g class="mark-text role-legend-label" pointer-events="none"><text text-anchor="start" transform="translate(23,12.5)" font-family="sans-serif" font-size="10px" fill="#000" opacity="1">15</text></g></g><path class="foreground" aria-hidden="true" d="" pointer-events="none" display="none"/></g></g></g><path class="foreground" aria-hidden="true" d="" pointer-events="none" display="none"/></g></g><g class="mark-text role-legend-title" pointer-events="none"><text text-anchor="start" transform="translate(0,9)" font-family="sans-serif" font-size="11px" font-weight="bold" fill="#000" opacity="1">address_id</text></g></g><path class="foreground" aria-hidden="true" d="" pointer-events="none" display="none"/></g></g></g><path class="foreground" aria-hidden="true" d="" display="none"/></g></g></g></svg>