<svg xmlns="http://www.w3.org/2000/svg" xmlns:xlink="http://www.w3.org/1999/xlink" version="1.1" class="marks" width="1586" height="104" viewBox="0 0 1586 104"><rect width="1586" height="104" fill="white"/><g fill="none" stroke-miterlimit="10" transform="translate(5,5)"><g class="mark-group role-frame root" role="graphics-object" aria-roledescription="group mark container"><g transform="translate(0,0)"><path class="background" aria-hidden="true" d="M0.5,0.5h1520v20h-1520Z" stroke="#ddd"/><g><g class="mark-group role-axis" role="graphics-symbol" aria-roledescription="axis" aria-label="X-axis titled 'CID' for a discrete scale with 76 values: 050.102, 050.109, 050.203, 050.325, 050.370, ending with 600.787"><g transform="translate(0.5,20.5)"><path class="background" aria-hidden="true" d="M0,0h0v0h0Z" pointer-events="none"/><g><g class="mark-rule role-axis-tick" pointer-events="none"><line transform="translate(10,0)" x2="0" y2="5" stroke="#888" stroke-width="1" opacity="1"/><line transform="translate(30,0)" x2="0" y2="5" stroke="#888" stroke-width="1" opacity="1"/><line transform="translate(50,0)" x2="0" y2="5" stroke="#888" stroke-width="1" opacity="1"/><line transform="translate(70,0)" x2="0" y2="5" stroke="#888" stroke-width="1" opacity="1"/><line transform="translate(90,0)" x2="0" y2="5" stroke="#888" stroke-width="1" opacity="1"/><line transform="translate(110,0)" x2="0" y2="5" stroke="#888" stroke-width="1" opacity="1"/><line transform="translate(130,0)" x2="0" y2="5" stroke="#888" stroke-width="1" opacity="1"/><line transform="translate(150,0)" x2="0" y2="5" stroke="#888" stroke-width="1" opacity="1"/><line transform="translate(170,0)" x2="0" y2="5" stroke="#888" stroke-width="1" opacity="1"/><line transform="translate(190,0)" x2="0" y2="5" stroke="#888" stroke-width="1" opacity="1"/><line transform="translate(210,0)" x2="0" y2="5" stroke="#888" stroke-width="1" opacity="1"/><line transform="translate(230,0)" x2="0" y2="5" stroke="#888" stroke-width="1" opacity="1"/><line transform="translate(250,0)" x2="0" y2="5" stroke="#888" stroke-width="1" opacity="1"/><line transform="translate(270,0)" x2="0" y2="5" stroke="#888" stroke-width="1" opacity="1"/><line transform="translate(290,0)" x2="0" y2="5" stroke="#888" stroke-width="1" opacity="1"/><line transform="translate(310,0)" x2="0" y2="5" stroke="#888" stroke-width="1" opacity="1"/><line transform="translate(330,0)" x2="0" y2="5" stroke="#888" stroke-width="1" opacity="1"/><line transform="translate(350,0)" x2="0" y2="5" stroke="#888" stroke-width="1" opacity="1"/><line transform="translate(370,0)" x2="0" y2="5" stroke="#888" stroke-width="1" opacity="1"/><line transform="translate(390,0)" x2="0" y2="5" stroke="#888" stroke-width="1" opacity="1"/><line transform="translate(410,0)" x2="0" y2="5" stroke="#888" stroke-width="1" opacity="1"/><line transform="translate(430,0)" x2="0" y2="5" stroke="#888" stroke-width="1" opacity="1"/><line transform="translate(450,0)" x2="0" y2="5" stroke="#888" stroke-width="1" opacity="1"/><line transform="translate(470,0)" x2="0" y2="5" stroke="#888" stroke-width="1" opacity="1"/><line transform="translate(490,0)" x2="0" y2="5" stroke="#888" stroke-width="1" opacity="1"/><line transform="translate(510,0)" x2="0" y2="5" stroke="#888" stroke-width="1" opacity="1"/><line transform="translate(530,0)" x2="0" y2="5" stroke="#888" stroke-width="1" opacity="1"/><line transform="translate(550,0)" x2="0" y2="5" stroke="#888" stroke-width="1" opacity="1"/><line transform="translate(570,0)" x2="0" y2="5" stroke="#888" stroke-width="1" opacity="1"/><line transform="translate(590,0)" x2="0" y2="5" stroke="#888" stroke-width="1" opacity="1"/><line transform="translate(610,0)" x2="0" y2="5" stroke="#888" stroke-width="1" opacity="1"/><line transform="translate(630,0)" x2="0" y2="5" stroke="#888" stroke-width="1" opacity="1"/><line transform="translate(650,0)" x2="0" y2="5" stroke="#888" stroke-width="1" opacity="1"/><line transform="translate(670,0)" x2="0" y2="5" stroke="#888" stroke-width="1" opacity="1"/><line transform="translate(690,0)" x2="0" y2="5" stroke="#888" stroke-width="1" opacity="1"/><line transform="translate(710,0)" x2="0" y2="5" stroke="#888" stroke-width="1" opacity="1"/><line transform="translate(730,0)" x2="0" y2="5" stroke="#888" stroke-width="1" opacity="1"/><line transform="translate(750,0)" x2="0" y2="5" stroke="#888" stroke-width="1" opacity="1"/><line transform="translate(770,0)" x2="0" y2="5" stroke="#888" stroke-width="1" opacity="1"/><line transform="translate(790,0)" x2="0" y2="5" stroke="#888" stroke-width="1" opacity="1"/><line transform="translate(810,0)" x2="0" y2="5" stroke="#888" stroke-width="1" opacity="1"/><line transform="translate(830,0)" x2="0" y2="5" stroke="#888" stroke-width="1" opacity="1"/><line transform="translate(850,0)" x2="0" y2="5" stroke="#888" stroke-width="1" opacity="1"/><line transform="translate(870,0)" x2="0" y2="5" stroke="#888" stroke-width="1" opacity="1"/><line transform="translate(890,0)" x2="0" y2="5" stroke="#888" stroke-width="1" opacity="1"/><line transform="translate(910,0)" x2="0" y2="5" stroke="#888" stroke-width="1" opacity="1"/><line transform="translate(930,0)" x2="0" y2="5" stroke="#888" stroke-width="1" opacity="1"/><line transform="translate(950,0)" x2="0" y2="5" stroke="#888" stroke-width="1" opacity="1"/><line transform="translate(970,0)" x2="0" y2="5" stroke="#888" stroke-width="1" opacity="1"/><line transform="translate(990,0)" x2="0" y2="5" stroke="#888" stroke-width="1" opacity="1"/><line transform="translate(1010,0)" x2="0" y2="5" stroke="#888" stroke-width="1" opacity="1"/><line transform="translate(1030,0)" x2="0" y2="5" stroke="#888" stroke-width="1" opacity="1"/><line transform="translate(1050,0)" x2="0" y2="5" stroke="#888" stroke-width="1" opacity="1"/><line transform="translate(1070,0)" x2="0" y2="5" stroke="#888" stroke-width="1" opacity="1"/><line transform="translate(1090,0)" x2="0" y2="5" stroke="#888" stroke-width="1" opacity="1"/><line transform="translate(1110,0)" x2="0" y2="5" stroke="#888" stroke-width="1" opacity="1"/><line transform="translate(1130,0)" x2="0" y2="5" stroke="#888" stroke-width="1" opacity="1"/><line transform="translate(1150,0)" x2="0" y2="5" stroke="#888" stroke-width="1" opacity="1"/><line transform="translate(1170,0)" x2="0" y2="5" stroke="#888" stroke-width="1" opacity="1"/><line transform="translate(1190,0)" x2="0" y2="5" stroke="#888" stroke-width="1" opacity="1"/><line transform="translate(1210,0)" x2="0" y2="5" stroke="#888" stroke-width="1" opacity="1"/><line transform="translate(1230,0)" x2="0" y2="5" stroke="#888" stroke-width="1" opacity="1"/><line transform="translate(1250,0)" x2="0" y2="5" stroke="#888" stroke-width="1" opacity="1"/><line transform="translate(1270,0)" x2="0" y2="5" stroke="#888" stroke-width="1" opacity="1"/><line transform="translate(1290,0)" x2="0" y2="5" stroke="#888" stroke-width="1" opacity="1"/><line transform="translate(1310,0)" x2="0" y2="5" stroke="#888" stroke-width="1" opacity="1"/><line transform="translate(1330,0)" x2="0" y2="5" stroke="#888" stroke-width="1" opacity="1"/><line transform="translate(1350,0)" x2="0" y2="5" stroke="#888" stroke-width="1" opacity="1"/><line transform="translate(1370,0)" x2="0" y2="5" stroke="#888" stroke-width="1" opacity="1"/><line transform="translate(1390,0)" x2="0" y2="5" stroke="#888" stroke-width="1" opacity="1"/><line transform="translate(1410,0)" x2="0" y2="5" stroke="#888" stroke-width="1" opacity="1"/><line transform="translate(1430,0)" x2="0" y2="5" stroke="#888" stroke-width="1" opacity="1"/><line transform="translate(1450,0)" x2="0" y2="5" stroke="#888" stroke-width="1" opacity="1"/><line transform="translate(1470,0)" x2="0" y2="5" stroke="#888" stroke-width="1" opacity="1"/><line transform="translate(1490,0)" x2="0" y2="5" stroke="#888" stroke-width="1" opacity="1"/><line transform="translate(1510,0)" x2="0" y2="5" stroke="#888" stroke-width="1" opacity="1"/></g><g class="mark-text role-axis-label" pointer-events="none"><text text-anchor="end" transform="translate(10,7) rotate(270) translate(0,3)" font-family="sans-serif" font-size="10px" fill="#000" opacity="1">050.102</text><text text-anchor="end" transform="translate(30,7) rotate(270) translate(0,3)" font-family="sans-serif" font-size="10px" fill="#000" opacity="1">050.109</text><text text-anchor="end" transform="translate(50,7) rotate(270) translate(0,3)" font-family="sans-serif" font-size="10px" fill="#000" opacity="1">050.203</text><text text-anchor="end" transform="translate(70,7) rotate(270) translate(0,3)" font-family="sans-serif" font-size="10px" fill="#000" opacity="1">050.325</text><text text-anchor="end" transform="translate(90,7) rotate(270) translate(0,3)" font-family="sans-serif" font-size="10px" fill="#000" opacity="1">050.370</text><text text-anchor="end" transform="translate(110,7) rotate(270) translate(0,3)" font-family="sans-serif" font-size="10px" fill="#000" opacity="1">050.381</text><text text-anchor="end" transform="translate(130,7) rotate(270) translate(0,3)" font-family="sans-serif" font-size="10px" fill="#000" opacity="1">050.427</text><text text-anchor="end" transform="translate(150,7) rotate(270) translate(0,3)" font-family="sans-serif" font-size="10px" fill="#000" opacity="1">050.670</text><text text-anchor="end" transform="translate(170,7) rotate(270) translate(0,3)" font-family="sans-serif" font-size="10px" fill="#000" opacity="1">050.802</text><text text-anchor="end" transform="translate(190,7) rotate(270) translate(0,3)" font-family="sans-serif" font-size="10px" fill="#000" opacity="1">050.821</text><text text-anchor="end" transform="translate(210,7) rotate(270) translate(0,3)" font-family="sans-serif" font-size="10px" fill="#000" opacity="1">500.203</text><text text-anchor="end" transform="translate(230,7) rotate(270) translate(0,3)" font-family="sans-serif" font-size="10px" fill="#000" opacity="1">500.204</text><text text-anchor="end" transform="translate(250,7) rotate(270) translate(0,3)" font-family="sans-serif" font-size="10px" fill="#000" opacity="1">500.205</text><text text-anchor="end" transform="translate(270,7) rotate(270) translate(0,3)" font-family="sans-serif" font-size="10px" fill="#000" opacity="1">500.206</text><text text-anchor="end" transform="translate(290,7) rotate(270) translate(0,3)" font-family="sans-serif" font-size="10px" fill="#000" opacity="1">520.137</text><text text-anchor="end" transform="translate(310,7) rotate(270) translate(0,3)" font-family="sans-serif" font-size="10px" fill="#000" opacity="1">520.213</text><text text-anchor="end" transform="translate(330,7) rotate(270) translate(0,3)" font-family="sans-serif" font-size="10px" fill="#000" opacity="1">520.219</text><text text-anchor="end" transform="translate(350,7) rotate(270) translate(0,3)" font-family="sans-serif" font-size="10px" fill="#000" opacity="1">520.325</text><text text-anchor="end" transform="translate(370,7) rotate(270) translate(0,3)" font-family="sans-serif" font-size="10px" fill="#000" opacity="1">520.345</text><text text-anchor="end" transform="translate(390,7) rotate(270) translate(0,3)" font-family="sans-serif" font-size="10px" fill="#000" opacity="1">520.349</text><text text-anchor="end" transform="translate(410,7) rotate(270) translate(0,3)" font-family="sans-serif" font-size="10px" fill="#000" opacity="1">520.353</text><text text-anchor="end" transform="translate(430,7) rotate(270) translate(0,3)" font-family="sans-serif" font-size="10px" fill="#000" opacity="1">520.401</text><text text-anchor="end" transform="translate(450,7) rotate(270) translate(0,3)" font-family="sans-serif" font-size="10px" fill="#000" opacity="1">520.410</text><text text-anchor="end" transform="translate(470,7) rotate(270) translate(0,3)" font-family="sans-serif" font-size="10px" fill="#000" opacity="1">520.419</text><text text-anchor="end" transform="translate(490,7) rotate(270) translate(0,3)" font-family="sans-serif" font-size="10px" fill="#000" opacity="1">520.421</text><text text-anchor="end" transform="translate(510,7) rotate(270) translate(0,3)" font-family="sans-serif" font-size="10px" fill="#000" opacity="1">520.432</text><text text-anchor="end" transform="translate(530,7) rotate(270) translate(0,3)" font-family="sans-serif" font-size="10px" fill="#000" opacity="1">520.435</text><text text-anchor="end" transform="translate(550,7) rotate(270) translate(0,3)" font-family="sans-serif" font-size="10px" fill="#000" opacity="1">520.475</text><text text-anchor="end" transform="translate(570,7) rotate(270) translate(0,3)" font-family="sans-serif" font-size="10px" fill="#000" opacity="1">520.490</text><text text-anchor="end" transform="translate(590,7) rotate(270) translate(0,3)" font-family="sans-serif" font-size="10px" fill="#000" opacity="1">520.603</text><text text-anchor="end" transform="translate(610,7) rotate(270) translate(0,3)" font-family="sans-serif" font-size="10px" fill="#000" opacity="1">520.605</text><text text-anchor="end" transform="translate(630,7) rotate(270) translate(0,3)" font-family="sans-serif" font-size="10px" fill="#000" opacity="1">520.609</text><text text-anchor="end" transform="translate(650,7) rotate(270) translate(0,3)" font-family="sans-serif" font-size="10px" fill="#000" opacity="1">520.651</text><text text-anchor="end" transform="translate(670,7) rotate(270) translate(0,3)" font-family="sans-serif" font-size="10px" fill="#000" opacity="1">550.111</text><text text-anchor="end" transform="translate(690,7) rotate(270) translate(0,3)" font-family="sans-serif" font-size="10px" fill="#000" opacity="1">550.171</text><text text-anchor="end" transform="translate(710,7) rotate(270) translate(0,3)" font-family="sans-serif" font-size="10px" fill="#000" opacity="1">550.291</text><text text-anchor="end" transform="translate(730,7) rotate(270) translate(0,3)" font-family="sans-serif" font-size="10px" fill="#000" opacity="1">550.310</text><text text-anchor="end" transform="translate(750,7) rotate(270) translate(0,3)" font-family="sans-serif" font-size="10px" fill="#000" opacity="1">550.361</text><text text-anchor="end" transform="translate(770,7) rotate(270) translate(0,3)" font-family="sans-serif" font-size="10px" fill="#000" opacity="1">550.413</text><text text-anchor="end" transform="translate(790,7) rotate(270) translate(0,3)" font-family="sans-serif" font-size="10px" fill="#000" opacity="1">550.420</text><text text-anchor="end" transform="translate(810,7) rotate(270) translate(0,3)" font-family="sans-serif" font-size="10px" fill="#000" opacity="1">550.471</text><text text-anchor="end" transform="translate(830,7) rotate(270) translate(0,3)" font-family="sans-serif" font-size="10px" fill="#000" opacity="1">550.620</text><text text-anchor="end" transform="translate(850,7) rotate(270) translate(0,3)" font-family="sans-serif" font-size="10px" fill="#000" opacity="1">550.626</text><text text-anchor="end" transform="translate(870,7) rotate(270) translate(0,3)" font-family="sans-serif" font-size="10px" fill="#000" opacity="1">550.631</text><text text-anchor="end" transform="translate(890,7) rotate(270) translate(0,3)" font-family="sans-serif" font-size="10px" fill="#000" opacity="1">550.661</text><text text-anchor="end" transform="translate(910,7) rotate(270) translate(0,3)" font-family="sans-serif" font-size="10px" fill="#000" opacity="1">550.671</text><text text-anchor="end" transform="translate(930,7) rotate(270) translate(0,3)" font-family="sans-serif" font-size="10px" fill="#000" opacity="1">550.681</text><text text-anchor="end" transform="translate(950,7) rotate(270) translate(0,3)" font-family="sans-serif" font-size="10px" fill="#000" opacity="1">550.721</text><text text-anchor="end" transform="translate(970,7) rotate(270) translate(0,3)" font-family="sans-serif" font-size="10px" fill="#000" opacity="1">550.750</text><text text-anchor="end" transform="translate(990,7) rotate(270) translate(0,3)" font-family="sans-serif" font-size="10px" fill="#000" opacity="1">550.790</text><text text-anchor="end" transform="translate(1010,7) rotate(270) translate(0,3)" font-family="sans-serif" font-size="10px" fill="#000" opacity="1">600.101</text><text text-anchor="end" transform="translate(1030,7) rotate(270) translate(0,3)" font-family="sans-serif" font-size="10px" fill="#000" opacity="1">600.103</text><text text-anchor="end" transform="translate(1050,7) rotate(270) translate(0,3)" font-family="sans-serif" font-size="10px" fill="#000" opacity="1">600.107</text><text text-anchor="end" transform="translate(1070,7) rotate(270) translate(0,3)" font-family="sans-serif" font-size="10px" fill="#000" opacity="1">600.109</text><text text-anchor="end" transform="translate(1090,7) rotate(270) translate(0,3)" font-family="sans-serif" font-size="10px" fill="#000" opacity="1">600.113</text><text text-anchor="end" transform="translate(1110,7) rotate(270) translate(0,3)" font-family="sans-serif" font-size="10px" fill="#000" opacity="1">600.121</text><text text-anchor="end" transform="translate(1130,7) rotate(270) translate(0,3)" font-family="sans-serif" font-size="10px" fill="#000" opacity="1">600.211</text><text text-anchor="end" transform="translate(1150,7) rotate(270) translate(0,3)" font-family="sans-serif" font-size="10px" fill="#000" opacity="1">600.227</text><text text-anchor="end" transform="translate(1170,7) rotate(270) translate(0,3)" font-family="sans-serif" font-size="10px" fill="#000" opacity="1">600.232</text><text text-anchor="end" transform="translate(1190,7) rotate(270) translate(0,3)" font-family="sans-serif" font-size="10px" fill="#000" opacity="1">600.271</text><text text-anchor="end" transform="translate(1210,7) rotate(270) translate(0,3)" font-family="sans-serif" font-size="10px" fill="#000" opacity="1">600.303</text><text text-anchor="end" transform="translate(1230,7) rotate(270) translate(0,3)" font-family="sans-serif" font-size="10px" fill="#000" opacity="1">600.315</text><text text-anchor="end" transform="translate(1250,7) rotate(270) translate(0,3)" font-family="sans-serif" font-size="10px" fill="#000" opacity="1">600.333</text><text text-anchor="end" transform="translate(1270,7) rotate(270) translate(0,3)" font-family="sans-serif" font-size="10px" fill="#000" opacity="1">600.337</text><text text-anchor="end" transform="translate(1290,7) rotate(270) translate(0,3)" font-family="sans-serif" font-size="10px" fill="#000" opacity="1">600.363</text><text text-anchor="end" transform="translate(1310,7) rotate(270) translate(0,3)" font-family="sans-serif" font-size="10px" fill="#000" opacity="1">600.415</text><text text-anchor="end" transform="translate(1330,7) rotate(270) translate(0,3)" font-family="sans-serif" font-size="10px" fill="#000" opacity="1">600.433</text><text text-anchor="end" transform="translate(1350,7) rotate(270) translate(0,3)" font-family="sans-serif" font-size="10px" fill="#000" opacity="1">600.437</text><text text-anchor="end" transform="translate(1370,7) rotate(270) translate(0,3)" font-family="sans-serif" font-size="10px" fill="#000" opacity="1">600.445</text><text text-anchor="end" transform="translate(1390,7) rotate(270) translate(0,3)" font-family="sans-serif" font-size="10px" fill="#000" opacity="1">600.461</text><text text-anchor="end" transform="translate(1410,7) rotate(270) translate(0,3)" font-family="sans-serif" font-size="10px" fill="#000" opacity="1">600.463</text><text text-anchor="end" transform="translate(1430,7) rotate(270) translate(0,3)" font-family="sans-serif" font-size="10px" fill="#000" opacity="1">600.465</text><text text-anchor="end" transform="translate(1450,7) rotate(270) translate(0,3)" font-family="sans-serif" font-size="10px" fill="#000" opacity="1">600.509</text><text text-anchor="end" transform="translate(1470,7) rotate(270) translate(0,3)" font-family="sans-serif" font-size="10px" fill="#000" opacity="1">600.601</text><text text-anchor="end" transform="translate(1490,7) rotate(270) translate(0,3)" font-family="sans-serif" font-size="10px" fill="#000" opacity="1">600.657</text><text text-anchor="end" transform="translate(1510,7) rotate(270) translate(0,3)" font-family="sans-serif" font-size="10px" fill="#000" opacity="1">600.787</text></g><g class="mark-rule role-axis-domain" pointer-events="none"><line transform="translate(0,0)" x2="1520" y2="0" stroke="#888" stroke-width="1" opacity="1"/></g><g class="mark-text role-axis-title" pointer-events="none"><text text-anchor="middle" transform="translate(760,56.1474609375)" font-family="sans-serif" font-size="11px" font-weight="bold" fill="#000" opacity="1">CID</text></g></g><path class="foreground" aria-hidden="true" d="" pointer-events="none" display="none"/></g></g><g class="mark-symbol role-mark marks" role="graphics-object" aria-roledescription="symbol mark container"><path aria-label="CID: 600.101; Credits: 3; CName: COMPUTER LITERACY" role="graphics-symbol" aria-roledescription="circle" transform="translate(1010,10)" d="M8.227,0A8.227,8.227,0,1,1,-8.227,0A8.227,8.227,0,1,1,8.227,0" fill="#4c78a8" stroke-width="2" opacity="0.7"/><path aria-label="CID: 600.103; Credits: 1; CName: INTRODUCTION TO COMPUTER SCIENCE" role="graphics-symbol" aria-roledescription="circle" transform="translate(1030,10)" d="M4.75,0A4.75,4.75,0,1,1,-4.75,0A4.75,4.75,0,1,1,4.75,0" fill="#4c78a8" stroke-width="2" opacity="0.7"/><path aria-label="CID: 600.107; Credits: 3; CName: INTRO TO PROGRAMMING IN JAVA" role="graphics-symbol" aria-roledescription="circle" transform="translate(1050,10)" d="M8.227,0A8.227,8.227,0,1,1,-8.227,0A8.227,8.227,0,1,1,8.227,0" fill="#4c78a8" stroke-width="2" opacity="0.7"/><path aria-label="CID: 600.109; Credits: 3; CName: INTRO TO PROGRAMMING IN C/C++" role="graphics-symbol" aria-roledescription="circle" transform="translate(1070,10)" d="M8.227,0A8.227,8.227,0,1,1,-8.227,0A8.227,8.227,0,1,1,8.227,0" fill="#4c78a8" stroke-width="2" opacity="0.7"/><path aria-label="CID: 600.113; Credits: 3; CName: EXPLORING THE INTERNET" role="graphics-symbol" aria-roledescription="circle" transform="translate(1090,10)" d="M8.227,0A8.227,8.227,0,1,1,-8.227,0A8.227,8.227,0,1,1,8.227,0" fill="#4c78a8" stroke-width="2" opacity="0.7"/><path aria-label="CID: 600.121; Credits: 3; CName: JAVA PROGRAMMING" role="graphics-symbol" aria-roledescription="circle" transform="translate(1110,10)" d="M8.227,0A8.227,8.227,0,1,1,-8.227,0A8.227,8.227,0,1,1,8.227,0" fill="#4c78a8" stroke-width="2" opacity="0.7"/><path aria-label="CID: 600.211; Credits: 3; CName: UNIX SYSTEMS PROGRAMMING" role="graphics-symbol" aria-roledescription="circle" transform="translate(1130,10)" d="M8.227,0A8.227,8.227,0,1,1,-8.227,0A8.227,8.227,0,1,1,8.227,0" fill="#4c78a8" stroke-width="2" opacity="0.7"/><path aria-label="CID: 600.227; Credits: 3; CName: DATA STRUCTURES in JAVA" role="graphics-symbol" aria-roledescription="circle" transform="translate(1150,10)" d="M8.227,0A8.227,8.227,0,1,1,-8.227,0A8.227,8.227,0,1,1,8.227,0" fill="#4c78a8" stroke-width="2" opacity="0.7"/><path aria-label="CID: 600.232; Credits: 3; CName: MULTIMEDIA COMPUTING" role="graphics-symbol" aria-roledescription="circle" transform="translate(1170,10)" d="M8.227,0A8.227,8.227,0,1,1,-8.227,0A8.227,8.227,0,1,1,8.227,0" fill="#4c78a8" stroke-width="2" opacity="0.7"/><path aria-label="CID: 600.271; Credits: 3; CName: COMPUTATIONAL MODELS" role="graphics-symbol" aria-roledescription="circle" transform="translate(1190,10)" d="M8.227,0A8.227,8.227,0,1,1,-8.227,0A8.227,8.227,0,1,1,8.227,0" fill="#4c78a8" stroke-width="2" opacity="0.7"/><path aria-label="CID: 600.303; Credits: 1; CName: SUPERCOMPUTING" role="graphics-symbol" aria-roledescription="circle" transform="translate(1210,10)" d="M4.75,0A4.75,4.75,0,1,1,-4.75,0A4.75,4.75,0,1,1,4.75,0" fill="#4c78a8" stroke-width="2" opacity="0.7"/><path aria-label="CID: 600.315; Credits: 3; CName: DATABASE SYSTEMS" role="graphics-symbol" aria-roledescription="circle" transform="translate(1230,10)" d="M8.227,0A8.227,8.227,0,1,1,-8.227,0A8.227,8.227,0,1,1,8.227,0" fill="#4c78a8" stroke-width="2" opacity="0.7"/><path aria-label="CID: 600.333; Credits: 3; CName: COMPUTER SYSTEM FUNDAMENTALS" role="graphics-symbol" aria-roledescription="circle" transform="translate(1250,10)" d="M8.227,0A8.227,8.227,0,1,1,-8.227,0A8.227,8.227,0,1,1,8.227,0" fill="#4c78a8" stroke-width="2" opacity="0.7"/><path aria-label="CID: 600.337; Credits: 3; CName: DISTRIBUTED SYSTEMS" role="graphics-symbol" aria-roledescription="circle" transform="translate(1270,10)" d="M8.227,0A8.227,8.227,0,1,1,-8.227,0A8.227,8.227,0,1,1,8.227,0" fill="#4c78a8" stroke-width="2" opacity="0.7"/><path aria-label="CID: 600.363; Credits: 3; CName: INTRODUCTION TO ALGORITHMS" role="graphics-symbol" aria-roledescription="circle" transform="translate(1290,10)" d="M8.227,0A8.227,8.227,0,1,1,-8.227,0A8.227,8.227,0,1,1,8.227,0" fill="#4c78a8" stroke-width="2" opacity="0.7"/><path aria-label="CID: 600.415; Credits: 3; CName: DATABASE SYSTEMS" role="graphics-symbol" aria-roledescription="circle" transform="translate(1310,10)" d="M8.227,0A8.227,8.227,0,1,1,-8.227,0A8.227,8.227,0,1,1,8.227,0" fill="#4c78a8" stroke-width="2" opacity="0.7"/><path aria-label="CID: 600.433; Credits: 3; CName: COMPUTER SYSTEMS" role="graphics-symbol" aria-roledescription="circle" transform="translate(1330,10)" d="M8.227,0A8.227,8.227,0,1,1,-8.227,0A8.227,8.227,0,1,1,8.227,0" fill="#4c78a8" stroke-width="2" opacity="0.7"/><path aria-label="CID: 600.437; Credits: 3; CName: DISTRIBUTED SYSTEMS" role="graphics-symbol" aria-roledescription="circle" transform="translate(1350,10)" d="M8.227,0A8.227,8.227,0,1,1,-8.227,0A8.227,8.227,0,1,1,8.227,0" fill="#4c78a8" stroke-width="2" opacity="0.7"/><path aria-label="CID: 600.445; Credits: 3; CName: QUANTITATIVE MEDICAL COMPUTING" role="graphics-symbol" aria-roledescription="circle" transform="translate(1370,10)" d="M8.227,0A8.227,8.227,0,1,1,-8.227,0A8.227,8.227,0,1,1,8.227,0" fill="#4c78a8" stroke-width="2" opacity="0.7"/><path aria-label="CID: 600.461; Credits: 3; CName: COMPUTER VISION" role="graphics-symbol" aria-roledescription="circle" transform="translate(1390,10)" d="M8.227,0A8.227,8.227,0,1,1,-8.227,0A8.227,8.227,0,1,1,8.227,0" fill="#4c78a8" stroke-width="2" opacity="0.7"/><path aria-label="CID: 600.463; Credits: 3; CName: ALGORITHMS I" role="graphics-symbol" aria-roledescription="circle" transform="translate(1410,10)" d="M8.227,0A8.227,8.227,0,1,1,-8.227,0A8.227,8.227,0,1,1,8.227,0" fill="#4c78a8" stroke-width="2" opacity="0.7"/><path aria-label="CID: 600.465; Credits: 3; CName: INTRO TO NATURAL LANGUAGE PROCESSING" role="graphics-symbol" aria-roledescription="circle" transform="translate(1430,10)" d="M8.227,0A8.227,8.227,0,1,1,-8.227,0A8.227,8.227,0,1,1,8.227,0" fill="#4c78a8" stroke-width="2" opacity="0.7"/><path aria-label="CID: 600.509; Credits: 3; CName: COMPUTER SCIENCE INTERNSHIP" role="graphics-symbol" aria-roledescription="circle" transform="translate(1450,10)" d="M8.227,0A8.227,8.227,0,1,1,-8.227,0A8.227,8.227,0,1,1,8.227,0" fill="#4c78a8" stroke-width="2" opacity="0.7"/><path aria-label="CID: 600.601; Credits: 1; CName: COMPUTER SCIENCE SEMINAR" role="graphics-symbol" aria-roledescription="circle" transform="translate(1470,10)" d="M4.75,0A4.75,4.75,0,1,1,-4.75,0A4.75,4.75,0,1,1,4.75,0" fill="#4c78a8" stroke-width="2" opacity="0.7"/><path aria-label="CID: 600.657; Credits: 3; CName: HIGH PERFORMANCE GRAPHICS AND MODELING" role="graphics-symbol" aria-roledescription="circle" transform="translate(1490,10)" d="M8.227,0A8.227,8.227,0,1,1,-8.227,0A8.227,8.227,0,1,1,8.227,0" fill="#4c78a8" stroke-width="2" opacity="0.7"/><path aria-label="CID: 600.787; Credits: 3; CName: SEMINAR ON COMPUTATIONAL GEOMETRY" role="graphics-symbol" aria-roledescription="circle" transform="translate(1510,10)" d="M8.227,0A8.227,8.227,0,1,1,-8.227,0A8.227,8.227,0,1,1,8.227,0" fill="#4c78a8" stroke-width="2" opacity="0.7"/><path aria-label="CID: 550.111; Credits: 4; CName: STATISTICAL ANALYSIS" role="graphics-symbol" aria-roledescription="circle" transform="translate(670,10)" d="M9.5,0A9.5,9.5,0,1,1,-9.5,0A9.5,9.5,0,1,1,9.5,0" fill="#4c78a8" stroke-width="2" opacity="0.7"/><path aria-label="CID: 550.171; Credits: 4; CName: DISCRETE MATHEMATICS" role="graphics-symbol" aria-roledescription="circle" transform="translate(690,10)" d="M9.5,0A9.5,9.5,0,1,1,-9.5,0A9.5,9.5,0,1,1,9.5,0" fill="#4c78a8" stroke-width="2" opacity="0.7"/><path aria-label="CID: 500.203; Credits: 3; CName: ACCOUNTING I" role="graphics-symbol" aria-roledescription="circle" transform="translate(210,10)" d="M8.227,0A8.227,8.227,0,1,1,-8.227,0A8.227,8.227,0,1,1,8.227,0" fill="#4c78a8" stroke-width="2" opacity="0.7"/><path aria-label="CID: 500.204; Credits: 3; CName: ACCOUNTING II" role="graphics-symbol" aria-roledescription="circle" transform="translate(230,10)" d="M8.227,0A8.227,8.227,0,1,1,-8.227,0A8.227,8.227,0,1,1,8.227,0" fill="#4c78a8" stroke-width="2" opacity="0.7"/><path aria-label="CID: 500.205; Credits: 3; CName: BUSINESS LAW I" role="graphics-symbol" aria-roledescription="circle" transform="translate(250,10)" d="M8.227,0A8.227,8.227,0,1,1,-8.227,0A8.227,8.227,0,1,1,8.227,0" fill="#4c78a8" stroke-width="2" opacity="0.7"/><path aria-label="CID: 500.206; Credits: 3; CName: BUSINESS LAW II" role="graphics-symbol" aria-roledescription="circle" transform="translate(270,10)" d="M8.227,0A8.227,8.227,0,1,1,-8.227,0A8.227,8.227,0,1,1,8.227,0" fill="#4c78a8" stroke-width="2" opacity="0.7"/><path aria-label="CID: 550.291; Credits: 4; CName: LINEAR ALGEBRA AND DIFFERENTIAL EQNS" role="graphics-symbol" aria-roledescription="circle" transform="translate(710,10)" d="M9.5,0A9.5,9.5,0,1,1,-9.5,0A9.5,9.5,0,1,1,9.5,0" fill="#4c78a8" stroke-width="2" opacity="0.7"/><path aria-label="CID: 550.310; Credits: 4; CName: PROBABILITY AND STATISTICS" role="graphics-symbol" aria-roledescription="circle" transform="translate(730,10)" d="M9.5,0A9.5,9.5,0,1,1,-9.5,0A9.5,9.5,0,1,1,9.5,0" fill="#4c78a8" stroke-width="2" opacity="0.7"/><path aria-label="CID: 550.361; Credits: 4; CName: INTRODUCTION TO OPTIMIZATION" role="graphics-symbol" aria-roledescription="circle" transform="translate(750,10)" d="M9.5,0A9.5,9.5,0,1,1,-9.5,0A9.5,9.5,0,1,1,9.5,0" fill="#4c78a8" stroke-width="2" opacity="0.7"/><path aria-label="CID: 550.413; Credits: 4; CName: APPLIED STATISTICS AND DATA ANALYSIS" role="graphics-symbol" aria-roledescription="circle" transform="translate(770,10)" d="M9.5,0A9.5,9.5,0,1,1,-9.5,0A9.5,9.5,0,1,1,9.5,0" fill="#4c78a8" stroke-width="2" opacity="0.7"/><path aria-label="CID: 550.420; Credits: 4; CName: INTRODUCTION TO PROBABILITY" role="graphics-symbol" aria-roledescription="circle" transform="translate(790,10)" d="M9.5,0A9.5,9.5,0,1,1,-9.5,0A9.5,9.5,0,1,1,9.5,0" fill="#4c78a8" stroke-width="2" opacity="0.7"/><path aria-label="CID: 550.471; Credits: 4; CName: COMBINATORIAL ANALYSIS" role="graphics-symbol" aria-roledescription="circle" transform="translate(810,10)" d="M9.5,0A9.5,9.5,0,1,1,-9.5,0A9.5,9.5,0,1,1,9.5,0" fill="#4c78a8" stroke-width="2" opacity="0.7"/><path aria-label="CID: 550.620; Credits: 3; CName: PROBABILITY THEORY I" role="graphics-symbol" aria-roledescription="circle" transform="translate(830,10)" d="M8.227,0A8.227,8.227,0,1,1,-8.227,0A8.227,8.227,0,1,1,8.227,0" fill="#4c78a8" stroke-width="2" opacity="0.7"/><path aria-label="CID: 550.626; Credits: 3; CName: STOCHASTIC PROCESSES II" role="graphics-symbol" aria-roledescription="circle" transform="translate(850,10)" d="M8.227,0A8.227,8.227,0,1,1,-8.227,0A8.227,8.227,0,1,1,8.227,0" fill="#4c78a8" stroke-width="2" opacity="0.7"/><path aria-label="CID: 550.631; Credits: 3; CName: STATISTICAL INFERENCE" role="graphics-symbol" aria-roledescription="circle" transform="translate(870,10)" d="M8.227,0A8.227,8.227,0,1,1,-8.227,0A8.227,8.227,0,1,1,8.227,0" fill="#4c78a8" stroke-width="2" opacity="0.7"/><path aria-label="CID: 550.661; Credits: 3; CName: FOUNDATIONS OF OPTIMIZATION" role="graphics-symbol" aria-roledescription="circle" transform="translate(890,10)" d="M8.227,0A8.227,8.227,0,1,1,-8.227,0A8.227,8.227,0,1,1,8.227,0" fill="#4c78a8" stroke-width="2" opacity="0.7"/><path aria-label="CID: 550.671; Credits: 3; CName: COMBINATORIAL ANALYSIS" role="graphics-symbol" aria-roledescription="circle" transform="translate(910,10)" d="M8.227,0A8.227,8.227,0,1,1,-8.227,0A8.227,8.227,0,1,1,8.227,0" fill="#4c78a8" stroke-width="2" opacity="0.7"/><path aria-label="CID: 550.681; Credits: 3; CName: NUMERICAL ANALYSIS" role="graphics-symbol" aria-roledescription="circle" transform="translate(930,10)" d="M8.227,0A8.227,8.227,0,1,1,-8.227,0A8.227,8.227,0,1,1,8.227,0" fill="#4c78a8" stroke-width="2" opacity="0.7"/><path aria-label="CID: 550.721; Credits: 3; CName: PERCOLATION THEORY" role="graphics-symbol" aria-roledescription="circle" transform="translate(950,10)" d="M8.227,0A8.227,8.227,0,1,1,-8.227,0A8.227,8.227,0,1,1,8.227,0" fill="#4c78a8" stroke-width="2" opacity="0.7"/><path aria-label="CID: 550.750; Credits: 3; CName: TOPICS IN OPERATIONS RESEARCH" role="graphics-symbol" aria-roledescription="circle" transform="translate(970,10)" d="M8.227,0A8.227,8.227,0,1,1,-8.227,0A8.227,8.227,0,1,1,8.227,0" fill="#4c78a8" stroke-width="2" opacity="0.7"/><path aria-label="CID: 550.790; Credits: 2; CName: TOPICS IN APPLIED MATH" role="graphics-symbol" aria-roledescription="circle" transform="translate(990,10)" d="M6.718,0A6.718,6.718,0,1,1,-6.718,0A6.718,6.718,0,1,1,6.718,0" fill="#4c78a8" stroke-width="2" opacity="0.7"/><path aria-label="CID: 520.137; Credits: 3; CName: INTRODUCTION TO ECE" role="graphics-symbol" aria-roledescription="circle" transform="translate(290,10)" d="M8.227,0A8.227,8.227,0,1,1,-8.227,0A8.227,8.227,0,1,1,8.227,0" fill="#4c78a8" stroke-width="2" opacity="0.7"/><path aria-label="CID: 520.213; Credits: 4; CName: CIRCUITS" role="graphics-symbol" aria-roledescription="circle" transform="translate(310,10)" d="M9.5,0A9.5,9.5,0,1,1,-9.5,0A9.5,9.5,0,1,1,9.5,0" fill="#4c78a8" stroke-width="2" opacity="0.7"/><path aria-label="CID: 520.219; Credits: 3; CName: FIELDS, MATTER AND WAVES" role="graphics-symbol" aria-roledescription="circle" transform="translate(330,10)" d="M8.227,0A8.227,8.227,0,1,1,-8.227,0A8.227,8.227,0,1,1,8.227,0" fill="#4c78a8" stroke-width="2" opacity="0.7"/><path aria-label="CID: 520.325; Credits: 3; CName: INTEGRATED ELECTRONICS" role="graphics-symbol" aria-roledescription="circle" transform="translate(350,10)" d="M8.227,0A8.227,8.227,0,1,1,-8.227,0A8.227,8.227,0,1,1,8.227,0" fill="#4c78a8" stroke-width="2" opacity="0.7"/><path aria-label="CID: 520.345; Credits: 3; CName: ECE LABORATORY" role="graphics-symbol" aria-roledescription="circle" transform="translate(370,10)" d="M8.227,0A8.227,8.227,0,1,1,-8.227,0A8.227,8.227,0,1,1,8.227,0" fill="#4c78a8" stroke-width="2" opacity="0.7"/><path aria-label="CID: 520.349; Credits: 3; CName: MICROPROCESSOR LAB I" role="graphics-symbol" aria-roledescription="circle" transform="translate(390,10)" d="M8.227,0A8.227,8.227,0,1,1,-8.227,0A8.227,8.227,0,1,1,8.227,0" fill="#4c78a8" stroke-width="2" opacity="0.7"/><path aria-label="CID: 520.353; Credits: 3; CName: CONTROL SYSTEMS" role="graphics-symbol" aria-roledescription="circle" transform="translate(410,10)" d="M8.227,0A8.227,8.227,0,1,1,-8.227,0A8.227,8.227,0,1,1,8.227,0" fill="#4c78a8" stroke-width="2" opacity="0.7"/><path aria-label="CID: 520.401; Credits: 3; CName: BASIC COMMUNICATIONS" role="graphics-symbol" aria-roledescription="circle" transform="translate(430,10)" d="M8.227,0A8.227,8.227,0,1,1,-8.227,0A8.227,8.227,0,1,1,8.227,0" fill="#4c78a8" stroke-width="2" opacity="0.7"/><path aria-label="CID: 520.410; Credits: 3; CName: FIBER OPTICS AND PHOTONICS" role="graphics-symbol" aria-roledescription="circle" transform="translate(450,10)" d="M8.227,0A8.227,8.227,0,1,1,-8.227,0A8.227,8.227,0,1,1,8.227,0" fill="#4c78a8" stroke-width="2" opacity="0.7"/><path aria-label="CID: 520.419; Credits: 3; CName: ITERATIVE ALGORITHMS" role="graphics-symbol" aria-roledescription="circle" transform="translate(470,10)" d="M8.227,0A8.227,8.227,0,1,1,-8.227,0A8.227,8.227,0,1,1,8.227,0" fill="#4c78a8" stroke-width="2" opacity="0.7"/><path aria-label="CID: 520.421; Credits: 3; CName: INTRODUCTION TO NON-LINEAR SYSTEMS" role="graphics-symbol" aria-roledescription="circle" transform="translate(490,10)" d="M8.227,0A8.227,8.227,0,1,1,-8.227,0A8.227,8.227,0,1,1,8.227,0" fill="#4c78a8" stroke-width="2" opacity="0.7"/><path aria-label="CID: 520.432; Credits: 3; CName: TOPICS IN MEDICAL IMAGING SYSTEMS" role="graphics-symbol" aria-roledescription="circle" transform="translate(510,10)" d="M8.227,0A8.227,8.227,0,1,1,-8.227,0A8.227,8.227,0,1,1,8.227,0" fill="#4c78a8" stroke-width="2" opacity="0.7"/><path aria-label="CID: 520.435; Credits: 4; CName: DIGITAL SIGNAL PROCESSING" role="graphics-symbol" aria-roledescription="circle" transform="translate(530,10)" d="M9.5,0A9.5,9.5,0,1,1,-9.5,0A9.5,9.5,0,1,1,9.5,0" fill="#4c78a8" stroke-width="2" opacity="0.7"/><path aria-label="CID: 520.475; Credits: 3; CName: PROCESSING AND RECOGNITION OF SPEECH" role="graphics-symbol" aria-roledescription="circle" transform="translate(550,10)" d="M8.227,0A8.227,8.227,0,1,1,-8.227,0A8.227,8.227,0,1,1,8.227,0" fill="#4c78a8" stroke-width="2" opacity="0.7"/><path aria-label="CID: 520.490; Credits: 3; CName: ANALOG AND DIGITAL VLSI SYSTEMS" role="graphics-symbol" aria-roledescription="circle" transform="translate(570,10)" d="M8.227,0A8.227,8.227,0,1,1,-8.227,0A8.227,8.227,0,1,1,8.227,0" fill="#4c78a8" stroke-width="2" opacity="0.7"/><path aria-label="CID: 520.603; Credits: 4; CName: ELECTROMAGNETIC WAVES" role="graphics-symbol" aria-roledescription="circle" transform="translate(590,10)" d="M9.5,0A9.5,9.5,0,1,1,-9.5,0A9.5,9.5,0,1,1,9.5,0" fill="#4c78a8" stroke-width="2" opacity="0.7"/><path aria-label="CID: 520.605; Credits: 3; CName: SOLID STATE PHYSICS" role="graphics-symbol" aria-roledescription="circle" transform="translate(610,10)" d="M8.227,0A8.227,8.227,0,1,1,-8.227,0A8.227,8.227,0,1,1,8.227,0" fill="#4c78a8" stroke-width="2" opacity="0.7"/><path aria-label="CID: 520.609; Credits: 3; CName: NONLINEAR TECHNICAL IMAGE PROCESSING" role="graphics-symbol" aria-roledescription="circle" transform="translate(630,10)" d="M8.227,0A8.227,8.227,0,1,1,-8.227,0A8.227,8.227,0,1,1,8.227,0" fill="#4c78a8" stroke-width="2" opacity="0.7"/><path aria-label="CID: 520.651; Credits: 3; CName: RANDOM SIGNAL ANALYSIS" role="graphics-symbol" aria-roledescription="circle" transform="translate(650,10)" d="M8.227,0A8.227,8.227,0,1,1,-8.227,0A8.227,8.227,0,1,1,8.227,0" fill="#4c78a8" stroke-width="2" opacity="0.7"/><path aria-label="CID: 050.102; Credits: 3; CName: LANGUAGE AND MIND" role="graphics-symbol" aria-roledescription="circle" transform="translate(10,10)" d="M8.227,0A8.227,8.227,0,1,1,-8.227,0A8.227,8.227,0,1,1,8.227,0" fill="#4c78a8" stroke-width="2" opacity="0.7"/><path aria-label="CID: 050.109; Credits: 3; CName: MIND, BRAIN, COMPUTERS" role="graphics-symbol" aria-roledescription="circle" transform="translate(30,10)" d="M8.227,0A8.227,8.227,0,1,1,-8.227,0A8.227,8.227,0,1,1,8.227,0" fill="#4c78a8" stroke-width="2" opacity="0.7"/><path aria-label="CID: 050.203; Credits: 4; CName: COGNITIVE NEUROSCIENCE" role="graphics-symbol" aria-roledescription="circle" transform="translate(50,10)" d="M9.5,0A9.5,9.5,0,1,1,-9.5,0A9.5,9.5,0,1,1,9.5,0" fill="#4c78a8" stroke-width="2" opacity="0.7"/><path aria-label="CID: 050.325; Credits: 3; CName: SOUND STRUCTURES IN NATURAL LANGUAGE" role="graphics-symbol" aria-roledescription="circle" transform="translate(70,10)" d="M8.227,0A8.227,8.227,0,1,1,-8.227,0A8.227,8.227,0,1,1,8.227,0" fill="#4c78a8" stroke-width="2" opacity="0.7"/><path aria-label="CID: 050.370; Credits: 3; CName: FORMAL METHODS IN COGNITIVE SCIENCE" role="graphics-symbol" aria-roledescription="circle" transform="translate(90,10)" d="M8.227,0A8.227,8.227,0,1,1,-8.227,0A8.227,8.227,0,1,1,8.227,0" fill="#4c78a8" stroke-width="2" opacity="0.7"/><path aria-label="CID: 050.381; Credits: 3; CName: LANGUAGE DEVELOPMENT" role="graphics-symbol" aria-roledescription="circle" transform="translate(110,10)" d="M8.227,0A8.227,8.227,0,1,1,-8.227,0A8.227,8.227,0,1,1,8.227,0" fill="#4c78a8" stroke-width="2" opacity="0.7"/><path aria-label="CID: 050.427; Credits: 3; CName: THE HISTORY OF ROMANCE LANGUAGES" role="graphics-symbol" aria-roledescription="circle" transform="translate(130,10)" d="M8.227,0A8.227,8.227,0,1,1,-8.227,0A8.227,8.227,0,1,1,8.227,0" fill="#4c78a8" stroke-width="2" opacity="0.7"/><path aria-label="CID: 050.670; Credits: 3; CName: FORMAL METHODS IN COGNITIVE SCIENCE" role="graphics-symbol" aria-roledescription="circle" transform="translate(150,10)" d="M8.227,0A8.227,8.227,0,1,1,-8.227,0A8.227,8.227,0,1,1,8.227,0" fill="#4c78a8" stroke-width="2" opacity="0.7"/><path aria-label="CID: 050.802; Credits: 1; CName: RESEARCH SEMINAR IN COGNITIVE PROCESSES" role="graphics-symbol" aria-roledescription="circle" transform="translate(170,10)" d="M4.75,0A4.75,4.75,0,1,1,-4.75,0A4.75,4.75,0,1,1,4.75,0" fill="#4c78a8" stroke-width="2" opacity="0.7"/><path aria-label="CID: 050.821; Credits: 3; CName: COMP. MODELS OF SENTENCE PROCESSING" role="graphics-symbol" aria-roledescription="circle" transform="translate(190,10)" d="M8.227,0A8.227,8.227,0,1,1,-8.227,0A8.227,8.227,0,1,1,8.227,0" fill="#4c78a8" stroke-width="2" opacity="0.7"/></g><g class="mark-group role-legend" role="graphics-symbol" aria-roledescription="legend" aria-label="Symbol legend titled 'Credits' for size with values from 0 to 4"><g transform="translate(1538,0)"><path class="background" aria-hidden="true" d="M0,0h38v94h-38Z" pointer-events="none"/><g><g class="mark-group role-legend-entry"><g transform="translate(0,16)"><path class="background" aria-hidden="true" d="M0,0h0v0h0Z" pointer-events="none"/><g><g class="mark-group role-scope" role="graphics-object" aria-roledescription="group mark container"><g transform="translate(0,0)"><path class="background" aria-hidden="true" d="M0,0h30.5615234375v11.75h-30.5615234375Z" pointer-events="none" opacity="1"/><g><g class="mark-symbol role-legend-symbol" pointer-events="none"><path transform="translate(10.5,5.5)" d="M4.75,0A4.75,4.75,0,1,1,-4.75,0A4.75,4.75,0,1,1,4.75,0" fill="#4c78a8" stroke-width="1.5" opacity="0.7"/></g><g class="mark-text role-legend-label" pointer-events="none"><text text-anchor="start" transform="translate(25,8.5)" font-family="sans-serif" font-size="10px" fill="#000" opacity="1">1</text></g></g><path class="foreground" aria-hidden="true" d="" pointer-events="none" display="none"/></g><g transform="translate(0,15)"><path class="background" aria-hidden="true" d="M0,0h30.5615234375v15.717514421272202h-30.5615234375Z" pointer-events="none" opacity="1"/><g><g class="mark-symbol role-legend-symbol" pointer-events="none"><path transform="translate(10.5,7.5)" d="M6.718,0A6.718,6.718,0,1,1,-6.718,0A6.718,6.718,0,1,1,6.718,0" fill="#4c78a8" stroke-width="1.5" opacity="0.7"/></g><g class="mark-text role-legend-label" pointer-events="none"><text text-anchor="start" transform="translate(25,10.5)" font-family="sans-serif" font-size="10px" fill="#000" opacity="1">2</text></g></g><path class="foreground" aria-hidden="true" d="" pointer-events="none" display="none"/></g><g transform="translate(0,34)"><path class="background" aria-hidden="true" d="M0,0h30.5615234375v18.727241335952165h-30.5615234375Z" pointer-events="none" opacity="1"/><g><g class="mark-symbol role-legend-symbol" pointer-events="none"><path transform="translate(10.5,9)" d="M8.227,0A8.227,8.227,0,1,1,-8.227,0A8.227,8.227,0,1,1,8.227,0" fill="#4c78a8" stroke-width="1.5" opacity="0.7"/></g><g class="mark-text role-legend-label" pointer-events="none"><text text-anchor="start" transform="translate(25,12)" font-family="sans-serif" font-size="10px" fill="#000" opacity="1">3</text></g></g><path class="foreground" aria-hidden="true" d="" pointer-events="none" display="none"/></g><g transform="translate(0,56)"><path class="background" aria-hidden="true" d="M0,0h30.5615234375v21.5h-30.5615234375Z" pointer-events="none" opacity="1"/><g><g class="mark-symbol role-legend-symbol" pointer-events="none"><path transform="translate(10.5,10.5)" d="M9.5,0A9.5,9.5,0,1,1,-9.5,0A9.5,9.5,0,1,1,9.5,0" fill="#4c78a8" stroke-width="1.5" opacity="0.7"/></g><g class="mark-text role-legend-label" pointer-events="none"><text text-anchor="start" transform="translate(25,13.5)" font-family="sans-serif" font-size="10px" fill="#000" opacity="1">4</text></g></g><path class="foreground" aria-hidden="true" d="" pointer-events="none" display="none"/></g></g></g><path class="foreground" aria-hidden="true" d="" pointer-events="none" display="none"/></g></g><g class="mark-text role-legend-title" pointer-events="none"><text text-anchor="start" transform="translate(0,9)" font-family="sans-serif" font-size="11px" font-weight="bold" fill="#000" opacity="1">Credits</text></g></g><path class="foreground" aria-hidden="true" d="" pointer-events="none" display="none"/></g></g></g><path class="foreground" aria-hidden="true" d="" display="none"/></g></g></g></svg>