<svg xmlns="http://www.w3.org/2000/svg" xmlns:xlink="http://www.w3.org/1999/xlink" version="1.1" class="marks" width="252" height="156" viewBox="0 0 252 156"><rect width="252" height="156" fill="white"/><g fill="none" stroke-miterlimit="10" transform="translate(33,22)"><g class="mark-group role-frame root" role="graphics-object" aria-roledescription="group mark container"><g transform="translate(0,0)"><path class="background" aria-hidden="true" d="M0.5,0.5h120v60h-120Z" stroke="#ddd"/><g><g class="mark-group role-axis" role="graphics-symbol" aria-roledescription="axis" aria-label="X-axis titled 'CRS_CODE' for a discrete scale with 6 values: ACCT-211, ACCT-212, CIS-220, CIS-420, QM-261, QM-362"><g transform="translate(0.5,60.5)"><path class="background" aria-hidden="true" d="M0,0h0v0h0Z" pointer-events="none"/><g><g class="mark-rule role-axis-tick" pointer-events="none"><line transform="translate(10,0)" x2="0" y2="5" stroke="#888" stroke-width="1" opacity="1"/><line transform="translate(30,0)" x2="0" y2="5" stroke="#888" stroke-width="1" opacity="1"/><line transform="translate(50,0)" x2="0" y2="5" stroke="#888" stroke-width="1" opacity="1"/><line transform="translate(70,0)" x2="0" y2="5" stroke="#888" stroke-width="1" opacity="1"/><line transform="translate(90,0)" x2="0" y2="5" stroke="#888" stroke-width="1" opacity="1"/><line transform="translate(110,0)" x2="0" y2="5" stroke="#888" stroke-width="1" opacity="1"/></g><g class="mark-text role-axis-label" pointer-events="none"><text text-anchor="end" transform="translate(10,7) rotate(270) translate(0,3)" font-family="sans-serif" font-size="10px" fill="#000" opacity="1">ACCT-211</text><text text-anchor="end" transform="translate(30,7) rotate(270) translate(0,3)" font-family="sans-serif" font-size="10px" fill="#000" opacity="1">ACCT-212</text><text text-anchor="end" transform="translate(50,7) rotate(270) translate(0,3)" font-family="sans-serif" font-size="10px" fill="#000" opacity="1">CIS-220</text><text text-anchor="end" transform="translate(70,7) rotate(270) translate(0,3)" font-family="sans-serif" font-size="10px" fill="#000" opacity="1">CIS-420</text><text text-anchor="end" transform="translate(90,7) rotate(270) translate(0,3)" font-family="sans-serif" font-size="10px" fill="#000" opacity="1">QM-261</text><text text-anchor="end" transform="translate(110,7) rotate(270) translate(0,3)" font-family="sans-serif" font-size="10px" fill="#000" opacity="1">QM-362</text></g><g class="mark-rule role-axis-domain" pointer-events="none"><line transform="translate(0,0)" x2="120" y2="0" stroke="#888" stroke-width="1" opacity="1"/></g><g class="mark-text role-axis-title" pointer-events="none"><text text-anchor="middle" transform="translate(60,66.6845703125)" font-family="sans-serif" font-size="11px" font-weight="bold" fill="#000" opacity="1">CRS_CODE</text></g></g><path class="foreground" aria-hidden="true" d="" pointer-events="none" display="none"/></g></g><g class="mark-group role-axis" role="graphics-symbol" aria-roledescription="axis" aria-label="Y-axis titled 'CLASS_SECTION' for a discrete scale with 3 values: 1, 2, 3"><g transform="translate(0.5,0.5)"><path class="background" aria-hidden="true" d="M0,0h0v0h0Z" pointer-events="none"/><g><g class="mark-rule role-axis-tick" pointer-events="none"><line transform="translate(0,10)" x2="-5" y2="0" stroke="#888" stroke-width="1" opacity="1"/><line transform="translate(0,30)" x2="-5" y2="0" stroke="#888" stroke-width="1" opacity="1"/><line transform="translate(0,50)" x2="-5" y2="0" stroke="#888" stroke-width="1" opacity="1"/></g><g class="mark-text role-axis-label" pointer-events="none"><text text-anchor="end" transform="translate(-7,13)" font-family="sans-serif" font-size="10px" fill="#000" opacity="1">1</text><text text-anchor="end" transform="translate(-7,33)" font-family="sans-serif" font-size="10px" fill="#000" opacity="1">2</text><text text-anchor="end" transform="translate(-7,53)" font-family="sans-serif" font-size="10px" fill="#000" opacity="1">3</text></g><g class="mark-rule role-axis-domain" pointer-events="none"><line transform="translate(0,0)" x2="0" y2="60" stroke="#888" stroke-width="1" opacity="1"/></g><g class="mark-text role-axis-title" pointer-events="none"><text text-anchor="middle" transform="translate(-16.5615234375,30) rotate(-90) translate(0,-2)" font-family="sans-serif" font-size="11px" font-weight="bold" fill="#000" opacity="1">CLASS_SECTION</text></g></g><path class="foreground" aria-hidden="true" d="" pointer-events="none" display="none"/></g></g><g class="mark-symbol role-mark marks" role="graphics-object" aria-roledescription="symbol mark container"><path aria-label="CRS_CODE: ACCT-211; CLASS_SECTION: 1; CLASS_CODE: 10012" role="graphics-symbol" aria-roledescription="circle" transform="translate(10,10)" d="M9.494,0A9.494,9.494,0,1,1,-9.494,0A9.494,9.494,0,1,1,9.494,0" fill="#4c78a8" stroke-width="2" opacity="0.7"/><path aria-label="CRS_CODE: ACCT-211; CLASS_SECTION: 2; CLASS_CODE: 10013" role="graphics-symbol" aria-roledescription="circle" transform="translate(10,30)" d="M9.495,0A9.495,9.495,0,1,1,-9.495,0A9.495,9.495,0,1,1,9.495,0" fill="#4c78a8" stroke-width="2" opacity="0.7"/><path aria-label="CRS_CODE: ACCT-211; CLASS_SECTION: 3; CLASS_CODE: 10014" role="graphics-symbol" aria-roledescription="circle" transform="translate(10,50)" d="M9.495,0A9.495,9.495,0,1,1,-9.495,0A9.495,9.495,0,1,1,9.495,0" fill="#4c78a8" stroke-width="2" opacity="0.7"/><path aria-label="CRS_CODE: ACCT-212; CLASS_SECTION: 1; CLASS_CODE: 10015" role="graphics-symbol" aria-roledescription="circle" transform="translate(30,10)" d="M9.496,0A9.496,9.496,0,1,1,-9.496,0A9.496,9.496,0,1,1,9.496,0" fill="#4c78a8" stroke-width="2" opacity="0.7"/><path aria-label="CRS_CODE: ACCT-212; CLASS_SECTION: 2; CLASS_CODE: 10016" role="graphics-symbol" aria-roledescription="circle" transform="translate(30,30)" d="M9.496,0A9.496,9.496,0,1,1,-9.496,0A9.496,9.496,0,1,1,9.496,0" fill="#4c78a8" stroke-width="2" opacity="0.7"/><path aria-label="CRS_CODE: CIS-220; CLASS_SECTION: 1; CLASS_CODE: 10017" role="graphics-symbol" aria-roledescription="circle" transform="translate(50,10)" d="M9.497,0A9.497,9.497,0,1,1,-9.497,0A9.497,9.497,0,1,1,9.497,0" fill="#4c78a8" stroke-width="2" opacity="0.7"/><path aria-label="CRS_CODE: CIS-220; CLASS_SECTION: 2; CLASS_CODE: 10018" role="graphics-symbol" aria-roledescription="circle" transform="translate(50,30)" d="M9.497,0A9.497,9.497,0,1,1,-9.497,0A9.497,9.497,0,1,1,9.497,0" fill="#4c78a8" stroke-width="2" opacity="0.7"/><path aria-label="CRS_CODE: CIS-220; CLASS_SECTION: 3; CLASS_CODE: 10019" role="graphics-symbol" aria-roledescription="circle" transform="translate(50,50)" d="M9.498,0A9.498,9.498,0,1,1,-9.498,0A9.498,9.498,0,1,1,9.498,0" fill="#4c78a8" stroke-width="2" opacity="0.7"/><path aria-label="CRS_CODE: CIS-420; CLASS_SECTION: 1; CLASS_CODE: 10020" role="graphics-symbol" aria-roledescription="circle" transform="translate(70,10)" d="M9.498,0A9.498,9.498,0,1,1,-9.498,0A9.498,9.498,0,1,1,9.498,0" fill="#4c78a8" stroke-width="2" opacity="0.7"/><path aria-label="CRS_CODE: QM-261; CLASS_SECTION: 1; CLASS_CODE: 10021" role="graphics-symbol" aria-roledescription="circle" transform="translate(90,10)" d="M9.499,0A9.499,9.499,0,1,1,-9.499,0A9.499,9.499,0,1,1,9.499,0" fill="#4c78a8" stroke-width="2" opacity="0.7"/><path aria-label="CRS_CODE: QM-261; CLASS_SECTION: 2; CLASS_CODE: 10022" role="graphics-symbol" aria-roledescription="circle" transform="translate(90,30)" d="M9.499,0A9.499,9.499,0,1,1,-9.499,0A9.499,9.499,0,1,1,9.499,0" fill="#4c78a8" stroke-width="2" opacity="0.7"/><path aria-label="CRS_CODE: QM-362; CLASS_SECTION: 1; CLASS_CODE: 10023" role="graphics-symbol" aria-roledescription="circle" transform="translate(110,10)" d="M9.5,0A9.5,9.5,0,1,1,-9.5,0A9.5,9.5,0,1,1,9.5,0" fill="#4c78a8" stroke-width="2" opacity="0.7"/><path aria-label="CRS_CODE: QM-362; CLASS_SECTION: 2; CLASS_CODE: 10024" role="graphics-symbol" aria-roledescription="circle" transform="translate(110,30)" d="M9.5,0A9.5,9.5,0,1,1,-9.5,0A9.5,9.5,0,1,1,9.5,0" fill="#4c78a8" stroke-width="2" opacity="0.7"/></g><g class="mark-group role-legend" role="graphics-symbol" aria-roledescription="legend" aria-label="Symbol legend titled 'CLASS_CODE' for size with values from 0 to 10,024"><g transform="translate(138,0)"><path class="background" aria-hidden="true" d="M0,0h76v114h-76Z" pointer-events="none"/><g><g class="mark-group role-legend-entry"><g transform="translate(0,16)"><path class="background" aria-hidden="true" d="M0,0h0v0h0Z" pointer-events="none"/><g><g class="mark-group role-scope" role="graphics-object" aria-roledescription="group mark container"><g transform="translate(0,0)"><path class="background" aria-hidden="true" d="M0,0h55.5859375v10.743440080768695h-55.5859375Z" pointer-events="none" opacity="1"/><g><g class="mark-symbol role-legend-symbol" pointer-events="none"><path transform="translate(10.5,5)" d="M4.243,0A4.243,4.243,0,1,1,-4.243,0A4.243,4.243,0,1,1,4.243,0" fill="#4c78a8" stroke-width="1.5" opacity="0.7"/></g><g class="mark-text role-legend-label" pointer-events="none"><text text-anchor="start" transform="translate(25,8)" font-family="sans-serif" font-size="10px" fill="#000" opacity="1">2,000</text></g></g><path class="foreground" aria-hidden="true" d="" pointer-events="none" display="none"/></g><g transform="translate(0,14)"><path class="background" aria-hidden="true" d="M0,0h55.5859375v14.50113051334067h-55.5859375Z" pointer-events="none" opacity="1"/><g><g class="mark-symbol role-legend-symbol" pointer-events="none"><path transform="translate(10.5,7)" d="M6.001,0A6.001,6.001,0,1,1,-6.001,0A6.001,6.001,0,1,1,6.001,0" fill="#4c78a8" stroke-width="1.5" opacity="0.7"/></g><g class="mark-text role-legend-label" pointer-events="none"><text text-anchor="start" transform="translate(25,10)" font-family="sans-serif" font-size="10px" fill="#000" opacity="1">4,000</text></g></g><path class="foreground" aria-hidden="true" d="" pointer-events="none" display="none"/></g><g transform="translate(0,32)"><path class="background" aria-hidden="true" d="M0,0h55.5859375v17.34985381876556h-55.5859375Z" pointer-events="none" opacity="1"/><g><g class="mark-symbol role-legend-symbol" pointer-events="none"><path transform="translate(10.5,8.5)" d="M7.35,0A7.35,7.35,0,1,1,-7.35,0A7.35,7.35,0,1,1,7.35,0" fill="#4c78a8" stroke-width="1.5" opacity="0.7"/></g><g class="mark-text role-legend-label" pointer-events="none"><text text-anchor="start" transform="translate(25,11.5)" font-family="sans-serif" font-size="10px" fill="#000" opacity="1">6,000</text></g></g><path class="foreground" aria-hidden="true" d="" pointer-events="none" display="none"/></g><g transform="translate(0,53)"><path class="background" aria-hidden="true" d="M0,0h55.5859375v19.486880161537385h-55.5859375Z" pointer-events="none" opacity="1"/><g><g class="mark-symbol role-legend-symbol" pointer-events="none"><path transform="translate(10.5,9.5)" d="M8.487,0A8.487,8.487,0,1,1,-8.487,0A8.487,8.487,0,1,1,8.487,0" fill="#4c78a8" stroke-width="1.5" opacity="0.7"/></g><g class="mark-text role-legend-label" pointer-events="none"><text text-anchor="start" transform="translate(25,12.5)" font-family="sans-serif" font-size="10px" fill="#000" opacity="1">8,000</text></g></g><path class="foreground" aria-hidden="true" d="" pointer-events="none" display="none"/></g><g transform="translate(0,76)"><path class="background" aria-hidden="true" d="M0,0h55.5859375v21.488620479046006h-55.5859375Z" pointer-events="none" opacity="1"/><g><g class="mark-symbol role-legend-symbol" pointer-events="none"><path transform="translate(10.5,10.5)" d="M9.489,0A9.489,9.489,0,1,1,-9.489,0A9.489,9.489,0,1,1,9.489,0" fill="#4c78a8" stroke-width="1.5" opacity="0.7"/></g><g class="mark-text role-legend-label" pointer-events="none"><text text-anchor="start" transform="translate(25,13.5)" font-family="sans-serif" font-size="10px" fill="#000" opacity="1">10,000</text></g></g><path class="foreground" aria-hidden="true" d="" pointer-events="none" display="none"/></g></g></g><path class="foreground" aria-hidden="true" d="" pointer-events="none" display="none"/></g></g><g class="mark-text role-legend-title" pointer-events="none"><text text-anchor="start" transform="translate(0,9)" font-family="sans-serif" font-size="11px" font-weight="bold" fill="#000" opacity="1">CLASS_CODE</text></g></g><path class="foreground" aria-hidden="true" d="" pointer-events="none" display="none"/></g></g></g><path class="foreground" aria-hidden="true" d="" display="none"/></g></g></g></svg>