<svg xmlns="http://www.w3.org/2000/svg" xmlns:xlink="http://www.w3.org/1999/xlink" version="1.1" class="marks" width="529" height="395" viewBox="0 0 529 395"><rect width="529" height="395" fill="white"/><g fill="none" stroke-miterlimit="10" transform="translate(39,15)"><g class="mark-group role-frame root" role="graphics-object" aria-roledescription="group mark container"><g transform="translate(0,0)"><path class="background" aria-hidden="true" d="M0.5,0.5h400v300h-400Z" stroke="#ddd"/><g><g class="mark-group role-axis" aria-hidden="true"><g transform="translate(0.5,0.5)"><path class="background" aria-hidden="true" d="M0,0h0v0h0Z" pointer-events="none"/><g><g class="mark-rule role-axis-grid" pointer-events="none"><line transform="translate(0,300)" x2="400" y2="0" stroke="#ddd" stroke-width="1" opacity="1"/><line transform="translate(0,270)" x2="400" y2="0" stroke="#ddd" stroke-width="1" opacity="1"/><line transform="translate(0,240)" x2="400" y2="0" stroke="#ddd" stroke-width="1" opacity="1"/><line transform="translate(0,210)" x2="400" y2="0" stroke="#ddd" stroke-width="1" opacity="1"/><line transform="translate(0,180)" x2="400" y2="0" stroke="#ddd" stroke-width="1" opacity="1"/><line transform="translate(0,150)" x2="400" y2="0" stroke="#ddd" stroke-width="1" opacity="1"/><line transform="translate(0,120)" x2="400" y2="0" stroke="#ddd" stroke-width="1" opacity="1"/><line transform="translate(0,90)" x2="400" y2="0" stroke="#ddd" stroke-width="1" opacity="1"/><line transform="translate(0,60)" x2="400" y2="0" stroke="#ddd" stroke-width="1" opacity="1"/><line transform="translate(0,30)" x2="400" y2="0" stroke="#ddd" stroke-width="1" opacity="1"/><line transform="translate(0,0)" x2="400" y2="0" stroke="#ddd" stroke-width="1" opacity="1"/></g></g><path class="foreground" aria-hidden="true" d="" pointer-events="none" display="none"/></g></g><g class="mark-group role-axis" role="graphics-symbol" aria-roledescription="axis" aria-label="X-axis titled 'dept_name' for a discrete scale with 20 values: Cybernetics, Finance, Psychology, Mech. Eng., Accounting, ending with Marketing"><g transform="translate(0.5,300.5)"><path class="background" aria-hidden="true" d="M0,0h0v0h0Z" pointer-events="none"/><g><g class="mark-rule role-axis-tick" pointer-events="none"><line transform="translate(10,0)" x2="0" y2="5" stroke="#888" stroke-width="1" opacity="1"/><line transform="translate(30,0)" x2="0" y2="5" stroke="#888" stroke-width="1" opacity="1"/><line transform="translate(50,0)" x2="0" y2="5" stroke="#888" stroke-width="1" opacity="1"/><line transform="translate(70,0)" x2="0" y2="5" stroke="#888" stroke-width="1" opacity="1"/><line transform="translate(90,0)" x2="0" y2="5" stroke="#888" stroke-width="1" opacity="1"/><line transform="translate(110,0)" x2="0" y2="5" stroke="#888" stroke-width="1" opacity="1"/><line transform="translate(130,0)" x2="0" y2="5" stroke="#888" stroke-width="1" opacity="1"/><line transform="translate(150,0)" x2="0" y2="5" stroke="#888" stroke-width="1" opacity="1"/><line transform="translate(170,0)" x2="0" y2="5" stroke="#888" stroke-width="1" opacity="1"/><line transform="translate(190,0)" x2="0" y2="5" stroke="#888" stroke-width="1" opacity="1"/><line transform="translate(210,0)" x2="0" y2="5" stroke="#888" stroke-width="1" opacity="1"/><line transform="translate(230,0)" x2="0" y2="5" stroke="#888" stroke-width="1" opacity="1"/><line transform="translate(250,0)" x2="0" y2="5" stroke="#888" stroke-width="1" opacity="1"/><line transform="translate(270,0)" x2="0" y2="5" stroke="#888" stroke-width="1" opacity="1"/><line transform="translate(290,0)" x2="0" y2="5" stroke="#888" stroke-width="1" opacity="1"/><line transform="translate(310,0)" x2="0" y2="5" stroke="#888" stroke-width="1" opacity="1"/><line transform="translate(330,0)" x2="0" y2="5" stroke="#888" stroke-width="1" opacity="1"/><line transform="translate(350,0)" x2="0" y2="5" stroke="#888" stroke-width="1" opacity="1"/><line transform="translate(370,0)" x2="0" y2="5" stroke="#888" stroke-width="1" opacity="1"/><line transform="translate(390,0)" x2="0" y2="5" stroke="#888" stroke-width="1" opacity="1"/></g><g class="mark-text role-axis-label" pointer-events="none"><text text-anchor="end" transform="translate(10,7) rotate(270) translate(0,3)" font-family="sans-serif" font-size="10px" fill="#000" opacity="1">Cybernetics</text><text text-anchor="end" transform="translate(30,7) rotate(270) translate(0,3)" font-family="sans-serif" font-size="10px" fill="#000" opacity="1">Finance</text><text text-anchor="end" transform="translate(50,7) rotate(270) translate(0,3)" font-family="sans-serif" font-size="10px" fill="#000" opacity="1">Psychology</text><text text-anchor="end" transform="translate(70,7) rotate(270) translate(0,3)" font-family="sans-serif" font-size="10px" fill="#000" opacity="1">Mech. Eng.</text><text text-anchor="end" transform="translate(90,7) rotate(270) translate(0,3)" font-family="sans-serif" font-size="10px" fill="#000" opacity="1">Accounting</text><text text-anchor="end" transform="translate(110,7) rotate(270) translate(0,3)" font-family="sans-serif" font-size="10px" fill="#000" opacity="1">Physics</text><text text-anchor="end" transform="translate(130,7) rotate(270) translate(0,3)" font-family="sans-serif" font-size="10px" fill="#000" opacity="1">Comp. Sci.</text><text text-anchor="end" transform="translate(150,7) rotate(270) translate(0,3)" font-family="sans-serif" font-size="10px" fill="#000" opacity="1">Languages</text><text text-anchor="end" transform="translate(170,7) rotate(270) translate(0,3)" font-family="sans-serif" font-size="10px" fill="#000" opacity="1">Astronomy</text><text text-anchor="end" transform="translate(190,7) rotate(270) translate(0,3)" font-family="sans-serif" font-size="10px" fill="#000" opacity="1">Math</text><text text-anchor="end" transform="translate(210,7) rotate(270) translate(0,3)" font-family="sans-serif" font-size="10px" fill="#000" opacity="1">Civil Eng.</text><text text-anchor="end" transform="translate(230,7) rotate(270) translate(0,3)" font-family="sans-serif" font-size="10px" fill="#000" opacity="1">Geology</text><text text-anchor="end" transform="translate(250,7) rotate(270) translate(0,3)" font-family="sans-serif" font-size="10px" fill="#000" opacity="1">Athletics</text><text text-anchor="end" transform="translate(270,7) rotate(270) translate(0,3)" font-family="sans-serif" font-size="10px" fill="#000" opacity="1">History</text><text text-anchor="end" transform="translate(290,7) rotate(270) translate(0,3)" font-family="sans-serif" font-size="10px" fill="#000" opacity="1">Elec. Eng.</text><text text-anchor="end" transform="translate(310,7) rotate(270) translate(0,3)" font-family="sans-serif" font-size="10px" fill="#000" opacity="1">English</text><text text-anchor="end" transform="translate(330,7) rotate(270) translate(0,3)" font-family="sans-serif" font-size="10px" fill="#000" opacity="1">Biology</text><text text-anchor="end" transform="translate(350,7) rotate(270) translate(0,3)" font-family="sans-serif" font-size="10px" fill="#000" opacity="1">Pol. Sci.</text><text text-anchor="end" transform="translate(370,7) rotate(270) translate(0,3)" font-family="sans-serif" font-size="10px" fill="#000" opacity="1">Statistics</text><text text-anchor="end" transform="translate(390,7) rotate(270) translate(0,3)" font-family="sans-serif" font-size="10px" fill="#000" opacity="1">Marketing</text></g><g class="mark-rule role-axis-domain" pointer-events="none"><line transform="translate(0,0)" x2="400" y2="0" stroke="#888" stroke-width="1" opacity="1"/></g><g class="mark-text role-axis-title" pointer-events="none"><text text-anchor="middle" transform="translate(200,72.7978515625)" font-family="sans-serif" font-size="11px" font-weight="bold" fill="#000" opacity="1">dept_name</text></g></g><path class="foreground" aria-hidden="true" d="" pointer-events="none" display="none"/></g></g><g class="mark-group role-axis" role="graphics-symbol" aria-roledescription="axis" aria-label="Y-axis titled 'Number of Courses' for a linear scale with values from 0 to 20"><g transform="translate(0.5,0.5)"><path class="background" aria-hidden="true" d="M0,0h0v0h0Z" pointer-events="none"/><g><g class="mark-rule role-axis-tick" pointer-events="none"><line transform="translate(0,300)" x2="-5" y2="0" stroke="#888" stroke-width="1" opacity="1"/><line transform="translate(0,270)" x2="-5" y2="0" stroke="#888" stroke-width="1" opacity="1"/><line transform="translate(0,240)" x2="-5" y2="0" stroke="#888" stroke-width="1" opacity="1"/><line transform="translate(0,210)" x2="-5" y2="0" stroke="#888" stroke-width="1" opacity="1"/><line transform="translate(0,180)" x2="-5" y2="0" stroke="#888" stroke-width="1" opacity="1"/><line transform="translate(0,150)" x2="-5" y2="0" stroke="#888" stroke-width="1" opacity="1"/><line transform="translate(0,120)" x2="-5" y2="0" stroke="#888" stroke-width="1" opacity="1"/><line transform="translate(0,90)" x2="-5" y2="0" stroke="#888" stroke-width="1" opacity="1"/><line transform="translate(0,60)" x2="-5" y2="0" stroke="#888" stroke-width="1" opacity="1"/><line transform="translate(0,30)" x2="-5" y2="0" stroke="#888" stroke-width="1" opacity="1"/><line transform="translate(0,0)" x2="-5" y2="0" stroke="#888" stroke-width="1" opacity="1"/></g><g class="mark-text role-axis-label" pointer-events="none"><text text-anchor="end" transform="translate(-7,303)" font-family="sans-serif" font-size="10px" fill="#000" opacity="1">0</text><text text-anchor="end" transform="translate(-7,273)" font-family="sans-serif" font-size="10px" fill="#000" opacity="1">2</text><text text-anchor="end" transform="translate(-7,243)" font-family="sans-serif" font-size="10px" fill="#000" opacity="1">4</text><text text-anchor="end" transform="translate(-7,213)" font-family="sans-serif" font-size="10px" fill="#000" opacity="1">6</text><text text-anchor="end" transform="translate(-7,183)" font-family="sans-serif" font-size="10px" fill="#000" opacity="1">8</text><text text-anchor="end" transform="translate(-7,153)" font-family="sans-serif" font-size="10px" fill="#000" opacity="1">10</text><text text-anchor="end" transform="translate(-7,123)" font-family="sans-serif" font-size="10px" fill="#000" opacity="1">12</text><text text-anchor="end" transform="translate(-7,93.00000000000001)" font-family="sans-serif" font-size="10px" fill="#000" opacity="1">14</text><text text-anchor="end" transform="translate(-7,62.999999999999986)" font-family="sans-serif" font-size="10px" fill="#000" opacity="1">16</text><text text-anchor="end" transform="translate(-7,32.99999999999999)" font-family="sans-serif" font-size="10px" fill="#000" opacity="1">18</text><text text-anchor="end" transform="translate(-7,3)" font-family="sans-serif" font-size="10px" fill="#000" opacity="1">20</text></g><g class="mark-rule role-axis-domain" pointer-events="none"><line transform="translate(0,300)" x2="0" y2="-300" stroke="#888" stroke-width="1" opacity="1"/></g><g class="mark-text role-axis-title" pointer-events="none"><text text-anchor="middle" transform="translate(-22.123046875,150) rotate(-90) translate(0,-2)" font-family="sans-serif" font-size="11px" font-weight="bold" fill="#000" opacity="1">Number of Courses</text></g></g><path class="foreground" aria-hidden="true" d="" pointer-events="none" display="none"/></g></g><g class="mark-symbol role-mark marks" role="graphics-object" aria-roledescription="symbol mark container"><path aria-label="dept_name: Mech. Eng.; Number of Courses: 12; Total Credits: 40" role="graphics-symbol" aria-roledescription="circle" transform="translate(70,120)" d="M7.34,0A7.34,7.34,0,1,1,-7.34,0A7.34,7.34,0,1,1,7.34,0" fill="#4c78a8" stroke-width="2" opacity="0.7"/><path aria-label="dept_name: Comp. Sci.; Number of Courses: 10; Total Credits: 37" role="graphics-symbol" aria-roledescription="circle" transform="translate(130,150)" d="M7.06,0A7.06,7.06,0,1,1,-7.06,0A7.06,7.06,0,1,1,7.06,0" fill="#4c78a8" stroke-width="2" opacity="0.7"/><path aria-label="dept_name: Statistics; Number of Courses: 6; Total Credits: 21" role="graphics-symbol" aria-roledescription="circle" transform="translate(370,210)" d="M5.319,0A5.319,5.319,0,1,1,-5.319,0A5.319,5.319,0,1,1,5.319,0" fill="#4c78a8" stroke-width="2" opacity="0.7"/><path aria-label="dept_name: Psychology; Number of Courses: 13; Total Credits: 44" role="graphics-symbol" aria-roledescription="circle" transform="translate(50,105)" d="M7.699,0A7.699,7.699,0,1,1,-7.699,0A7.699,7.699,0,1,1,7.699,0" fill="#4c78a8" stroke-width="2" opacity="0.7"/><path aria-label="dept_name: Biology; Number of Courses: 7; Total Credits: 23" role="graphics-symbol" aria-roledescription="circle" transform="translate(330,195)" d="M5.566,0A5.566,5.566,0,1,1,-5.566,0A5.566,5.566,0,1,1,5.566,0" fill="#4c78a8" stroke-width="2" opacity="0.7"/><path aria-label="dept_name: Elec. Eng.; Number of Courses: 8; Total Credits: 28" role="graphics-symbol" aria-roledescription="circle" transform="translate(290,180)" d="M6.141,0A6.141,6.141,0,1,1,-6.141,0A6.141,6.141,0,1,1,6.141,0" fill="#4c78a8" stroke-width="2" opacity="0.7"/><path aria-label="dept_name: Physics; Number of Courses: 10; Total Credits: 38" role="graphics-symbol" aria-roledescription="circle" transform="translate(110,150)" d="M7.154,0A7.154,7.154,0,1,1,-7.154,0A7.154,7.154,0,1,1,7.154,0" fill="#4c78a8" stroke-width="2" opacity="0.7"/><path aria-label="dept_name: Cybernetics; Number of Courses: 20; Total Credits: 67" role="graphics-symbol" aria-roledescription="circle" transform="translate(10,0)" d="M9.5,0A9.5,9.5,0,1,1,-9.5,0A9.5,9.5,0,1,1,9.5,0" fill="#4c78a8" stroke-width="2" opacity="0.7"/><path aria-label="dept_name: Marketing; Number of Courses: 6; Total Credits: 20" role="graphics-symbol" aria-roledescription="circle" transform="translate(390,210)" d="M5.19,0A5.19,5.19,0,1,1,-5.19,0A5.19,5.19,0,1,1,5.19,0" fill="#4c78a8" stroke-width="2" opacity="0.7"/><path aria-label="dept_name: History; Number of Courses: 9; Total Credits: 29" role="graphics-symbol" aria-roledescription="circle" transform="translate(270,165)" d="M6.25,0A6.25,6.25,0,1,1,-6.25,0A6.25,6.25,0,1,1,6.25,0" fill="#4c78a8" stroke-width="2" opacity="0.7"/><path aria-label="dept_name: Geology; Number of Courses: 10; Total Credits: 33" role="graphics-symbol" aria-roledescription="circle" transform="translate(230,150)" d="M6.667,0A6.667,6.667,0,1,1,-6.667,0A6.667,6.667,0,1,1,6.667,0" fill="#4c78a8" stroke-width="2" opacity="0.7"/><path aria-label="dept_name: Accounting; Number of Courses: 12; Total Credits: 40" role="graphics-symbol" aria-roledescription="circle" transform="translate(90,120)" d="M7.34,0A7.34,7.34,0,1,1,-7.34,0A7.34,7.34,0,1,1,7.34,0" fill="#4c78a8" stroke-width="2" opacity="0.7"/><path aria-label="dept_name: Pol. Sci.; Number of Courses: 6; Total Credits: 23" role="graphics-symbol" aria-roledescription="circle" transform="translate(350,210)" d="M5.566,0A5.566,5.566,0,1,1,-5.566,0A5.566,5.566,0,1,1,5.566,0" fill="#4c78a8" stroke-width="2" opacity="0.7"/><path aria-label="dept_name: Math; Number of Courses: 10; Total Credits: 34" role="graphics-symbol" aria-roledescription="circle" transform="translate(190,150)" d="M6.767,0A6.767,6.767,0,1,1,-6.767,0A6.767,6.767,0,1,1,6.767,0" fill="#4c78a8" stroke-width="2" opacity="0.7"/><path aria-label="dept_name: Finance; Number of Courses: 14; Total Credits: 49" role="graphics-symbol" aria-roledescription="circle" transform="translate(30,90.00000000000001)" d="M8.124,0A8.124,8.124,0,1,1,-8.124,0A8.124,8.124,0,1,1,8.124,0" fill="#4c78a8" stroke-width="2" opacity="0.7"/><path aria-label="dept_name: Civil Eng.; Number of Courses: 10; Total Credits: 34" role="graphics-symbol" aria-roledescription="circle" transform="translate(210,150)" d="M6.767,0A6.767,6.767,0,1,1,-6.767,0A6.767,6.767,0,1,1,6.767,0" fill="#4c78a8" stroke-width="2" opacity="0.7"/><path aria-label="dept_name: Athletics; Number of Courses: 9; Total Credits: 30" role="graphics-symbol" aria-roledescription="circle" transform="translate(250,165)" d="M6.357,0A6.357,6.357,0,1,1,-6.357,0A6.357,6.357,0,1,1,6.357,0" fill="#4c78a8" stroke-width="2" opacity="0.7"/><path aria-label="dept_name: English; Number of Courses: 8; Total Credits: 28" role="graphics-symbol" aria-roledescription="circle" transform="translate(310,180)" d="M6.141,0A6.141,6.141,0,1,1,-6.141,0A6.141,6.141,0,1,1,6.141,0" fill="#4c78a8" stroke-width="2" opacity="0.7"/><path aria-label="dept_name: Languages; Number of Courses: 10; Total Credits: 37" role="graphics-symbol" aria-roledescription="circle" transform="translate(150,150)" d="M7.06,0A7.06,7.06,0,1,1,-7.06,0A7.06,7.06,0,1,1,7.06,0" fill="#4c78a8" stroke-width="2" opacity="0.7"/><path aria-label="dept_name: Astronomy; Number of Courses: 10; Total Credits: 37" role="graphics-symbol" aria-roledescription="circle" transform="translate(170,150)" d="M7.06,0A7.06,7.06,0,1,1,-7.06,0A7.06,7.06,0,1,1,7.06,0" fill="#4c78a8" stroke-width="2" opacity="0.7"/></g><g class="mark-group role-legend" role="graphics-symbol" aria-roledescription="legend" aria-label="Symbol legend titled 'Total Credits' for size with values from 0 to 67"><g transform="translate(418,0)"><path class="background" aria-hidden="true" d="M0,0h67v129h-67Z" pointer-events="none"/><g><g class="mark-group role-legend-entry"><g transform="translate(0,16)"><path class="background" aria-hidden="true" d="M0,0h0v0h0Z" pointer-events="none"/><g><g class="mark-group role-scope" role="graphics-object" aria-roledescription="group mark container"><g transform="translate(0,0)"><path class="background" aria-hidden="true" d="M0,0h35.123046875v10.170170194109716h-35.123046875Z" pointer-events="none" opacity="1"/><g><g class="mark-symbol role-legend-symbol" pointer-events="none"><path transform="translate(10,5)" d="M3.67,0A3.67,3.67,0,1,1,-3.67,0A3.67,3.67,0,1,1,3.67,0" fill="#4c78a8" stroke-width="1.5" opacity="0.7"/></g><g class="mark-text role-legend-label" pointer-events="none"><text text-anchor="start" transform="translate(24,8)" font-family="sans-serif" font-size="10px" fill="#000" opacity="1">10</text></g></g><path class="foreground" aria-hidden="true" d="" pointer-events="none" display="none"/></g><g transform="translate(0,14)"><path class="background" aria-hidden="true" d="M0,0h35.123046875v12.690404464727454h-35.123046875Z" pointer-events="none" opacity="1"/><g><g class="mark-symbol role-legend-symbol" pointer-events="none"><path transform="translate(10,6)" d="M5.19,0A5.19,5.19,0,1,1,-5.19,0A5.19,5.19,0,1,1,5.19,0" fill="#4c78a8" stroke-width="1.5" opacity="0.7"/></g><g class="mark-text role-legend-label" pointer-events="none"><text text-anchor="start" transform="translate(24,9)" font-family="sans-serif" font-size="10px" fill="#000" opacity="1">20</text></g></g><path class="foreground" aria-hidden="true" d="" pointer-events="none" display="none"/></g><g transform="translate(0,30)"><path class="background" aria-hidden="true" d="M0,0h35.123046875v15.356921248622953h-35.123046875Z" pointer-events="none" opacity="1"/><g><g class="mark-symbol role-legend-symbol" pointer-events="none"><path transform="translate(10,7.5)" d="M6.357,0A6.357,6.357,0,1,1,-6.357,0A6.357,6.357,0,1,1,6.357,0" fill="#4c78a8" stroke-width="1.5" opacity="0.7"/></g><g class="mark-text role-legend-label" pointer-events="none"><text text-anchor="start" transform="translate(24,10.5)" font-family="sans-serif" font-size="10px" fill="#000" opacity="1">30</text></g></g><path class="foreground" aria-hidden="true" d="" pointer-events="none" display="none"/></g><g transform="translate(0,49)"><path class="background" aria-hidden="true" d="M0,0h35.123046875v17.34034038821943h-35.123046875Z" pointer-events="none" opacity="1"/><g><g class="mark-symbol role-legend-symbol" pointer-events="none"><path transform="translate(10,8.5)" d="M7.34,0A7.34,7.34,0,1,1,-7.34,0A7.34,7.34,0,1,1,7.34,0" fill="#4c78a8" stroke-width="1.5" opacity="0.7"/></g><g class="mark-text role-legend-label" pointer-events="none"><text text-anchor="start" transform="translate(24,11.5)" font-family="sans-serif" font-size="10px" fill="#000" opacity="1">40</text></g></g><path class="foreground" aria-hidden="true" d="" pointer-events="none" display="none"/></g><g transform="translate(0,70)"><path class="background" aria-hidden="true" d="M0,0h35.123046875v18.70675004302292h-35.123046875Z" pointer-events="none" opacity="1"/><g><g class="mark-symbol role-legend-symbol" pointer-events="none"><path transform="translate(10,9)" d="M8.207,0A8.207,8.207,0,1,1,-8.207,0A8.207,8.207,0,1,1,8.207,0" fill="#4c78a8" stroke-width="1.5" opacity="0.7"/></g><g class="mark-text role-legend-label" pointer-events="none"><text text-anchor="start" transform="translate(24,12)" font-family="sans-serif" font-size="10px" fill="#000" opacity="1">50</text></g></g><path class="foreground" aria-hidden="true" d="" pointer-events="none" display="none"/></g><g transform="translate(0,92)"><path class="background" aria-hidden="true" d="M0,0h35.123046875v20.49004424474029h-35.123046875Z" pointer-events="none" opacity="1"/><g><g class="mark-symbol role-legend-symbol" pointer-events="none"><path transform="translate(10,10)" d="M8.99,0A8.99,8.99,0,1,1,-8.99,0A8.99,8.99,0,1,1,8.99,0" fill="#4c78a8" stroke-width="1.5" opacity="0.7"/></g><g class="mark-text role-legend-label" pointer-events="none"><text text-anchor="start" transform="translate(24,13)" font-family="sans-serif" font-size="10px" fill="#000" opacity="1">60</text></g></g><path class="foreground" aria-hidden="true" d="" pointer-events="none" display="none"/></g></g></g><path class="foreground" aria-hidden="true" d="" pointer-events="none" display="none"/></g></g><g class="mark-text role-legend-title" pointer-events="none"><text text-anchor="start" transform="translate(0,9)" font-family="sans-serif" font-size="11px" font-weight="bold" fill="#000" opacity="1">Total Credits</text></g></g><path class="foreground" aria-hidden="true" d="" pointer-events="none" display="none"/></g></g></g><path class="foreground" aria-hidden="true" d="" display="none"/></g></g></g></svg>