<svg xmlns="http://www.w3.org/2000/svg" xmlns:xlink="http://www.w3.org/1999/xlink" version="1.1" class="marks" width="434" height="300" viewBox="0 0 434 300"><rect width="434" height="300" fill="white"/><g fill="none" stroke-miterlimit="10" transform="translate(135,5)"><g class="mark-group role-frame root" role="graphics-object" aria-roledescription="group mark container"><g transform="translate(0,0)"><path class="background" aria-hidden="true" d="M0.5,0.5h220v220h-220Z" stroke="#ddd"/><g><g class="mark-group role-axis" role="graphics-symbol" aria-roledescription="axis" aria-label="X-axis titled 'DEPT_CODE' for a discrete scale with 11 values: ACCT, ART, BIOL, CIS, ECON/FIN, ending with SOC"><g transform="translate(0.5,220.5)"><path class="background" aria-hidden="true" d="M0,0h0v0h0Z" pointer-events="none"/><g><g class="mark-rule role-axis-tick" pointer-events="none"><line transform="translate(10,0)" x2="0" y2="5" stroke="#888" stroke-width="1" opacity="1"/><line transform="translate(30,0)" x2="0" y2="5" stroke="#888" stroke-width="1" opacity="1"/><line transform="translate(50,0)" x2="0" y2="5" stroke="#888" stroke-width="1" opacity="1"/><line transform="translate(70,0)" x2="0" y2="5" stroke="#888" stroke-width="1" opacity="1"/><line transform="translate(90,0)" x2="0" y2="5" stroke="#888" stroke-width="1" opacity="1"/><line transform="translate(110,0)" x2="0" y2="5" stroke="#888" stroke-width="1" opacity="1"/><line transform="translate(130,0)" x2="0" y2="5" stroke="#888" stroke-width="1" opacity="1"/><line transform="translate(150,0)" x2="0" y2="5" stroke="#888" stroke-width="1" opacity="1"/><line transform="translate(170,0)" x2="0" y2="5" stroke="#888" stroke-width="1" opacity="1"/><line transform="translate(190,0)" x2="0" y2="5" stroke="#888" stroke-width="1" opacity="1"/><line transform="translate(210,0)" x2="0" y2="5" stroke="#888" stroke-width="1" opacity="1"/></g><g class="mark-text role-axis-label" pointer-events="none"><text text-anchor="end" transform="translate(10,7) rotate(270) translate(0,3)" font-family="sans-serif" font-size="10px" fill="#000" opacity="1">ACCT</text><text text-anchor="end" transform="translate(30,7) rotate(270) translate(0,3)" font-family="sans-serif" font-size="10px" fill="#000" opacity="1">ART</text><text text-anchor="end" transform="translate(50,7) rotate(270) translate(0,3)" font-family="sans-serif" font-size="10px" fill="#000" opacity="1">BIOL</text><text text-anchor="end" transform="translate(70,7) rotate(270) translate(0,3)" font-family="sans-serif" font-size="10px" fill="#000" opacity="1">CIS</text><text text-anchor="end" transform="translate(90,7) rotate(270) translate(0,3)" font-family="sans-serif" font-size="10px" fill="#000" opacity="1">ECON/FIN</text><text text-anchor="end" transform="translate(110,7) rotate(270) translate(0,3)" font-family="sans-serif" font-size="10px" fill="#000" opacity="1">ENG</text><text text-anchor="end" transform="translate(130,7) rotate(270) translate(0,3)" font-family="sans-serif" font-size="10px" fill="#000" opacity="1">HIST</text><text text-anchor="end" transform="translate(150,7) rotate(270) translate(0,3)" font-family="sans-serif" font-size="10px" fill="#000" opacity="1">MATH</text><text text-anchor="end" transform="translate(170,7) rotate(270) translate(0,3)" font-family="sans-serif" font-size="10px" fill="#000" opacity="1">MKT/MGT</text><text text-anchor="end" transform="translate(190,7) rotate(270) translate(0,3)" font-family="sans-serif" font-size="10px" fill="#000" opacity="1">PSYCH</text><text text-anchor="end" transform="translate(210,7) rotate(270) translate(0,3)" font-family="sans-serif" font-size="10px" fill="#000" opacity="1">SOC</text></g><g class="mark-rule role-axis-domain" pointer-events="none"><line transform="translate(0,0)" x2="220" y2="0" stroke="#888" stroke-width="1" opacity="1"/></g><g class="mark-text role-axis-title" pointer-events="none"><text text-anchor="middle" transform="translate(110,67.7783203125)" font-family="sans-serif" font-size="11px" font-weight="bold" fill="#000" opacity="1">DEPT_CODE</text></g></g><path class="foreground" aria-hidden="true" d="" pointer-events="none" display="none"/></g></g><g class="mark-group role-axis" role="graphics-symbol" aria-roledescription="axis" aria-label="Y-axis titled 'DEPT_NAME' for a discrete scale with 11 values: Accounting, Biology, Computer Info. Systems, Economics/Finance, English, ending with Sociology"><g transform="translate(0.5,0.5)"><path class="background" aria-hidden="true" d="M0,0h0v0h0Z" pointer-events="none"/><g><g class="mark-rule role-axis-tick" pointer-events="none"><line transform="translate(0,10)" x2="-5" y2="0" stroke="#888" stroke-width="1" opacity="1"/><line transform="translate(0,30)" x2="-5" y2="0" stroke="#888" stroke-width="1" opacity="1"/><line transform="translate(0,50)" x2="-5" y2="0" stroke="#888" stroke-width="1" opacity="1"/><line transform="translate(0,70)" x2="-5" y2="0" stroke="#888" stroke-width="1" opacity="1"/><line transform="translate(0,90)" x2="-5" y2="0" stroke="#888" stroke-width="1" opacity="1"/><line transform="translate(0,110)" x2="-5" y2="0" stroke="#888" stroke-width="1" opacity="1"/><line transform="translate(0,130)" x2="-5" y2="0" stroke="#888" stroke-width="1" opacity="1"/><line transform="translate(0,150)" x2="-5" y2="0" stroke="#888" stroke-width="1" opacity="1"/><line transform="translate(0,170)" x2="-5" y2="0" stroke="#888" stroke-width="1" opacity="1"/><line transform="translate(0,190)" x2="-5" y2="0" stroke="#888" stroke-width="1" opacity="1"/><line transform="translate(0,210)" x2="-5" y2="0" stroke="#888" stroke-width="1" opacity="1"/></g><g class="mark-text role-axis-label" pointer-events="none"><text text-anchor="end" transform="translate(-7,13)" font-family="sans-serif" font-size="10px" fill="#000" opacity="1">Accounting</text><text text-anchor="end" transform="translate(-7,33)" font-family="sans-serif" font-size="10px" fill="#000" opacity="1">Biology</text><text text-anchor="end" transform="translate(-7,53)" font-family="sans-serif" font-size="10px" fill="#000" opacity="1">Computer Info. Systems</text><text text-anchor="end" transform="translate(-7,73)" font-family="sans-serif" font-size="10px" fill="#000" opacity="1">Economics/Finance</text><text text-anchor="end" transform="translate(-7,93)" font-family="sans-serif" font-size="10px" fill="#000" opacity="1">English</text><text text-anchor="end" transform="translate(-7,113)" font-family="sans-serif" font-size="10px" fill="#000" opacity="1">Fine Arts</text><text text-anchor="end" transform="translate(-7,133)" font-family="sans-serif" font-size="10px" fill="#000" opacity="1">History</text><text text-anchor="end" transform="translate(-7,153)" font-family="sans-serif" font-size="10px" fill="#000" opacity="1">Marketing/Management</text><text text-anchor="end" transform="translate(-7,173)" font-family="sans-serif" font-size="10px" fill="#000" opacity="1">Mathematics</text><text text-anchor="end" transform="translate(-7,193)" font-family="sans-serif" font-size="10px" fill="#000" opacity="1">Psychology</text><text text-anchor="end" transform="translate(-7,213)" font-family="sans-serif" font-size="10px" fill="#000" opacity="1">Sociology</text></g><g class="mark-rule role-axis-domain" pointer-events="none"><line transform="translate(0,0)" x2="0" y2="220" stroke="#888" stroke-width="1" opacity="1"/></g><g class="mark-text role-axis-title" pointer-events="none"><text text-anchor="middle" transform="translate(-118.2607421875,110) rotate(-90) translate(0,-2)" font-family="sans-serif" font-size="11px" font-weight="bold" fill="#000" opacity="1">DEPT_NAME</text></g></g><path class="foreground" aria-hidden="true" d="" pointer-events="none" display="none"/></g></g><g class="mark-symbol role-mark marks" role="graphics-object" aria-roledescription="symbol mark container"><path aria-label="DEPT_CODE: ACCT; DEPT_NAME: Accounting; EMP_NUM: 114" role="graphics-symbol" aria-roledescription="circle" transform="translate(10,10)" d="M4.863,0A4.863,4.863,0,1,1,-4.863,0A4.863,4.863,0,1,1,4.863,0" fill="#4c78a8" stroke-width="2" opacity="0.7"/><path aria-label="DEPT_CODE: ART; DEPT_NAME: Fine Arts; EMP_NUM: 435" role="graphics-symbol" aria-roledescription="circle" transform="translate(30,110)" d="M9.5,0A9.5,9.5,0,1,1,-9.5,0A9.5,9.5,0,1,1,9.5,0" fill="#4c78a8" stroke-width="2" opacity="0.7"/><path aria-label="DEPT_CODE: BIOL; DEPT_NAME: Biology; EMP_NUM: 387" role="graphics-symbol" aria-roledescription="circle" transform="translate(50,30)" d="M8.961,0A8.961,8.961,0,1,1,-8.961,0A8.961,8.961,0,1,1,8.961,0" fill="#4c78a8" stroke-width="2" opacity="0.7"/><path aria-label="DEPT_CODE: CIS; DEPT_NAME: Computer Info. Systems; EMP_NUM: 209" role="graphics-symbol" aria-roledescription="circle" transform="translate(70,50)" d="M6.585,0A6.585,6.585,0,1,1,-6.585,0A6.585,6.585,0,1,1,6.585,0" fill="#4c78a8" stroke-width="2" opacity="0.7"/><path aria-label="DEPT_CODE: ECON/FIN; DEPT_NAME: Economics/Finance; EMP_NUM: 299" role="graphics-symbol" aria-roledescription="circle" transform="translate(90,70)" d="M7.876,0A7.876,7.876,0,1,1,-7.876,0A7.876,7.876,0,1,1,7.876,0" fill="#4c78a8" stroke-width="2" opacity="0.7"/><path aria-label="DEPT_CODE: ENG; DEPT_NAME: English; EMP_NUM: 160" role="graphics-symbol" aria-roledescription="circle" transform="translate(110,90)" d="M5.762,0A5.762,5.762,0,1,1,-5.762,0A5.762,5.762,0,1,1,5.762,0" fill="#4c78a8" stroke-width="2" opacity="0.7"/><path aria-label="DEPT_CODE: HIST; DEPT_NAME: History; EMP_NUM: 103" role="graphics-symbol" aria-roledescription="circle" transform="translate(130,130)" d="M4.623,0A4.623,4.623,0,1,1,-4.623,0A4.623,4.623,0,1,1,4.623,0" fill="#4c78a8" stroke-width="2" opacity="0.7"/><path aria-label="DEPT_CODE: MATH; DEPT_NAME: Mathematics; EMP_NUM: 297" role="graphics-symbol" aria-roledescription="circle" transform="translate(150,170)" d="M7.85,0A7.85,7.85,0,1,1,-7.85,0A7.85,7.85,0,1,1,7.85,0" fill="#4c78a8" stroke-width="2" opacity="0.7"/><path aria-label="DEPT_CODE: MKT/MGT; DEPT_NAME: Marketing/Management; EMP_NUM: 106" role="graphics-symbol" aria-roledescription="circle" transform="translate(170,150)" d="M4.69,0A4.69,4.69,0,1,1,-4.69,0A4.69,4.69,0,1,1,4.69,0" fill="#4c78a8" stroke-width="2" opacity="0.7"/><path aria-label="DEPT_CODE: PSYCH; DEPT_NAME: Psychology; EMP_NUM: 195" role="graphics-symbol" aria-roledescription="circle" transform="translate(190,190)" d="M6.361,0A6.361,6.361,0,1,1,-6.361,0A6.361,6.361,0,1,1,6.361,0" fill="#4c78a8" stroke-width="2" opacity="0.7"/><path aria-label="DEPT_CODE: SOC; DEPT_NAME: Sociology; EMP_NUM: 342" role="graphics-symbol" aria-roledescription="circle" transform="translate(210,210)" d="M8.423,0A8.423,8.423,0,1,1,-8.423,0A8.423,8.423,0,1,1,8.423,0" fill="#4c78a8" stroke-width="2" opacity="0.7"/></g><g class="mark-group role-legend" role="graphics-symbol" aria-roledescription="legend" aria-label="Symbol legend titled 'EMP_NUM' for size with values from 0 to 435"><g transform="translate(238,0)"><path class="background" aria-hidden="true" d="M0,0h56v93h-56Z" pointer-events="none"/><g><g class="mark-group role-legend-entry"><g transform="translate(0,16)"><path class="background" aria-hidden="true" d="M0,0h0v0h0Z" pointer-events="none"/><g><g class="mark-group role-scope" role="graphics-object" aria-roledescription="group mark container"><g transform="translate(0,0)"><path class="background" aria-hidden="true" d="M0,0h40.6845703125v11.55490136411115h-40.6845703125Z" pointer-events="none" opacity="1"/><g><g class="mark-symbol role-legend-symbol" pointer-events="none"><path transform="translate(10,5.5)" d="M4.555,0A4.555,4.555,0,1,1,-4.555,0A4.555,4.555,0,1,1,4.555,0" fill="#4c78a8" stroke-width="1.5" opacity="0.7"/></g><g class="mark-text role-legend-label" pointer-events="none"><text text-anchor="start" transform="translate(24,8.5)" font-family="sans-serif" font-size="10px" fill="#000" opacity="1">100</text></g></g><path class="foreground" aria-hidden="true" d="" pointer-events="none" display="none"/></g><g transform="translate(0,15)"><path class="background" aria-hidden="true" d="M0,0h40.6845703125v15.4416032843977h-40.6845703125Z" pointer-events="none" opacity="1"/><g><g class="mark-symbol role-legend-symbol" pointer-events="none"><path transform="translate(10,7.5)" d="M6.442,0A6.442,6.442,0,1,1,-6.442,0A6.442,6.442,0,1,1,6.442,0" fill="#4c78a8" stroke-width="1.5" opacity="0.7"/></g><g class="mark-text role-legend-label" pointer-events="none"><text text-anchor="start" transform="translate(24,10.5)" font-family="sans-serif" font-size="10px" fill="#000" opacity="1">200</text></g></g><path class="foreground" aria-hidden="true" d="" pointer-events="none" display="none"/></g><g transform="translate(0,34)"><path class="background" aria-hidden="true" d="M0,0h40.6845703125v18.3893205861053h-40.6845703125Z" pointer-events="none" opacity="1"/><g><g class="mark-symbol role-legend-symbol" pointer-events="none"><path transform="translate(10,9)" d="M7.889,0A7.889,7.889,0,1,1,-7.889,0A7.889,7.889,0,1,1,7.889,0" fill="#4c78a8" stroke-width="1.5" opacity="0.7"/></g><g class="mark-text role-legend-label" pointer-events="none"><text text-anchor="start" transform="translate(24,12)" font-family="sans-serif" font-size="10px" fill="#000" opacity="1">300</text></g></g><path class="foreground" aria-hidden="true" d="" pointer-events="none" display="none"/></g><g transform="translate(0,56)"><path class="background" aria-hidden="true" d="M0,0h40.6845703125v20.60980272822229h-40.6845703125Z" pointer-events="none" opacity="1"/><g><g class="mark-symbol role-legend-symbol" pointer-events="none"><path transform="translate(10,10)" d="M9.11,0A9.11,9.11,0,1,1,-9.11,0A9.11,9.11,0,1,1,9.11,0" fill="#4c78a8" stroke-width="1.5" opacity="0.7"/></g><g class="mark-text role-legend-label" pointer-events="none"><text text-anchor="start" transform="translate(24,13)" font-family="sans-serif" font-size="10px" fill="#000" opacity="1">400</text></g></g><path class="foreground" aria-hidden="true" d="" pointer-events="none" display="none"/></g></g></g><path class="foreground" aria-hidden="true" d="" pointer-events="none" display="none"/></g></g><g class="mark-text role-legend-title" pointer-events="none"><text text-anchor="start" transform="translate(0,9)" font-family="sans-serif" font-size="11px" font-weight="bold" fill="#000" opacity="1">EMP_NUM</text></g></g><path class="foreground" aria-hidden="true" d="" pointer-events="none" display="none"/></g></g></g><path class="foreground" aria-hidden="true" d="" display="none"/></g></g></g></svg>