<svg xmlns="http://www.w3.org/2000/svg" xmlns:xlink="http://www.w3.org/1999/xlink" version="1.1" class="marks" width="471" height="347" viewBox="0 0 471 347"><rect width="471" height="347" fill="white"/><g fill="none" stroke-miterlimit="10" transform="translate(39,10)"><g class="mark-group role-frame root" role="graphics-object" aria-roledescription="group mark container"><g transform="translate(0,0)"><path class="background" aria-hidden="true" d="M0.5,0.5h300v300h-300Z" stroke="#ddd"/><g><g class="mark-group role-axis" aria-hidden="true"><g transform="translate(0.5,300.5)"><path class="background" aria-hidden="true" d="M0,0h0v0h0Z" pointer-events="none"/><g><g class="mark-rule role-axis-grid" pointer-events="none"><line transform="translate(0,-300)" x2="0" y2="300" stroke="#ddd" stroke-width="1" opacity="1"/><line transform="translate(33,-300)" x2="0" y2="300" stroke="#ddd" stroke-width="1" opacity="1"/><line transform="translate(67,-300)" x2="0" y2="300" stroke="#ddd" stroke-width="1" opacity="1"/><line transform="translate(100,-300)" x2="0" y2="300" stroke="#ddd" stroke-width="1" opacity="1"/><line transform="translate(133,-300)" x2="0" y2="300" stroke="#ddd" stroke-width="1" opacity="1"/><line transform="translate(167,-300)" x2="0" y2="300" stroke="#ddd" stroke-width="1" opacity="1"/><line transform="translate(200,-300)" x2="0" y2="300" stroke="#ddd" stroke-width="1" opacity="1"/><line transform="translate(233,-300)" x2="0" y2="300" stroke="#ddd" stroke-width="1" opacity="1"/><line transform="translate(267,-300)" x2="0" y2="300" stroke="#ddd" stroke-width="1" opacity="1"/><line transform="translate(300,-300)" x2="0" y2="300" stroke="#ddd" stroke-width="1" opacity="1"/></g></g><path class="foreground" aria-hidden="true" d="" pointer-events="none" display="none"/></g></g><g class="mark-group role-axis" aria-hidden="true"><g transform="translate(0.5,0.5)"><path class="background" aria-hidden="true" d="M0,0h0v0h0Z" pointer-events="none"/><g><g class="mark-rule role-axis-grid" pointer-events="none"><line transform="translate(0,300)" x2="300" y2="0" stroke="#ddd" stroke-width="1" opacity="1"/><line transform="translate(0,257)" x2="300" y2="0" stroke="#ddd" stroke-width="1" opacity="1"/><line transform="translate(0,214)" x2="300" y2="0" stroke="#ddd" stroke-width="1" opacity="1"/><line transform="translate(0,171)" x2="300" y2="0" stroke="#ddd" stroke-width="1" opacity="1"/><line transform="translate(0,129)" x2="300" y2="0" stroke="#ddd" stroke-width="1" opacity="1"/><line transform="translate(0,86)" x2="300" y2="0" stroke="#ddd" stroke-width="1" opacity="1"/><line transform="translate(0,43)" x2="300" y2="0" stroke="#ddd" stroke-width="1" opacity="1"/><line transform="translate(0,0)" x2="300" y2="0" stroke="#ddd" stroke-width="1" opacity="1"/></g></g><path class="foreground" aria-hidden="true" d="" pointer-events="none" display="none"/></g></g><g class="mark-group role-axis" role="graphics-symbol" aria-roledescription="axis" aria-label="X-axis titled 'Sales_billion' for a linear scale with values from 0 to 450"><g transform="translate(0.5,300.5)"><path class="background" aria-hidden="true" d="M0,0h0v0h0Z" pointer-events="none"/><g><g class="mark-rule role-axis-tick" pointer-events="none"><line transform="translate(0,0)" x2="0" y2="5" stroke="#888" stroke-width="1" opacity="1"/><line transform="translate(33,0)" x2="0" y2="5" stroke="#888" stroke-width="1" opacity="1"/><line transform="translate(67,0)" x2="0" y2="5" stroke="#888" stroke-width="1" opacity="1"/><line transform="translate(100,0)" x2="0" y2="5" stroke="#888" stroke-width="1" opacity="1"/><line transform="translate(133,0)" x2="0" y2="5" stroke="#888" stroke-width="1" opacity="1"/><line transform="translate(167,0)" x2="0" y2="5" stroke="#888" stroke-width="1" opacity="1"/><line transform="translate(200,0)" x2="0" y2="5" stroke="#888" stroke-width="1" opacity="1"/><line transform="translate(233,0)" x2="0" y2="5" stroke="#888" stroke-width="1" opacity="1"/><line transform="translate(267,0)" x2="0" y2="5" stroke="#888" stroke-width="1" opacity="1"/><line transform="translate(300,0)" x2="0" y2="5" stroke="#888" stroke-width="1" opacity="1"/></g><g class="mark-text role-axis-label" pointer-events="none"><text text-anchor="start" transform="translate(0,15)" font-family="sans-serif" font-size="10px" fill="#000" opacity="1">0</text><text text-anchor="middle" transform="translate(33.33333333333333,15)" font-family="sans-serif" font-size="10px" fill="#000" opacity="1">50</text><text text-anchor="middle" transform="translate(66.66666666666666,15)" font-family="sans-serif" font-size="10px" fill="#000" opacity="1">100</text><text text-anchor="middle" transform="translate(100,15)" font-family="sans-serif" font-size="10px" fill="#000" opacity="1">150</text><text text-anchor="middle" transform="translate(133.33333333333331,15)" font-family="sans-serif" font-size="10px" fill="#000" opacity="1">200</text><text text-anchor="middle" transform="translate(166.66666666666669,15)" font-family="sans-serif" font-size="10px" fill="#000" opacity="1">250</text><text text-anchor="middle" transform="translate(200,15)" font-family="sans-serif" font-size="10px" fill="#000" opacity="1">300</text><text text-anchor="middle" transform="translate(233.33333333333334,15)" font-family="sans-serif" font-size="10px" fill="#000" opacity="1">350</text><text text-anchor="middle" transform="translate(266.66666666666663,15)" font-family="sans-serif" font-size="10px" fill="#000" opacity="1">400</text><text text-anchor="end" transform="translate(300,15)" font-family="sans-serif" font-size="10px" fill="#000" opacity="1">450</text></g><g class="mark-rule role-axis-domain" pointer-events="none"><line transform="translate(0,0)" x2="300" y2="0" stroke="#888" stroke-width="1" opacity="1"/></g><g class="mark-text role-axis-title" pointer-events="none"><text text-anchor="middle" transform="translate(150,30)" font-family="sans-serif" font-size="11px" font-weight="bold" fill="#000" opacity="1">Sales_billion</text></g></g><path class="foreground" aria-hidden="true" d="" pointer-events="none" display="none"/></g></g><g class="mark-group role-axis" role="graphics-symbol" aria-roledescription="axis" aria-label="Y-axis titled 'Profits_billion' for a linear scale with values from 0 to 35"><g transform="translate(0.5,0.5)"><path class="background" aria-hidden="true" d="M0,0h0v0h0Z" pointer-events="none"/><g><g class="mark-rule role-axis-tick" pointer-events="none"><line transform="translate(0,300)" x2="-5" y2="0" stroke="#888" stroke-width="1" opacity="1"/><line transform="translate(0,257)" x2="-5" y2="0" stroke="#888" stroke-width="1" opacity="1"/><line transform="translate(0,214)" x2="-5" y2="0" stroke="#888" stroke-width="1" opacity="1"/><line transform="translate(0,171)" x2="-5" y2="0" stroke="#888" stroke-width="1" opacity="1"/><line transform="translate(0,129)" x2="-5" y2="0" stroke="#888" stroke-width="1" opacity="1"/><line transform="translate(0,86)" x2="-5" y2="0" stroke="#888" stroke-width="1" opacity="1"/><line transform="translate(0,43)" x2="-5" y2="0" stroke="#888" stroke-width="1" opacity="1"/><line transform="translate(0,0)" x2="-5" y2="0" stroke="#888" stroke-width="1" opacity="1"/></g><g class="mark-text role-axis-label" pointer-events="none"><text text-anchor="end" transform="translate(-7,303)" font-family="sans-serif" font-size="10px" fill="#000" opacity="1">0</text><text text-anchor="end" transform="translate(-7,260.14285714285717)" font-family="sans-serif" font-size="10px" fill="#000" opacity="1">5</text><text text-anchor="end" transform="translate(-7,217.28571428571428)" font-family="sans-serif" font-size="10px" fill="#000" opacity="1">10</text><text text-anchor="end" transform="translate(-7,174.42857142857142)" font-family="sans-serif" font-size="10px" fill="#000" opacity="1">15</text><text text-anchor="end" transform="translate(-7,131.57142857142858)" font-family="sans-serif" font-size="10px" fill="#000" opacity="1">20</text><text text-anchor="end" transform="translate(-7,88.71428571428571)" font-family="sans-serif" font-size="10px" fill="#000" opacity="1">25</text><text text-anchor="end" transform="translate(-7,45.85714285714287)" font-family="sans-serif" font-size="10px" fill="#000" opacity="1">30</text><text text-anchor="end" transform="translate(-7,3)" font-family="sans-serif" font-size="10px" fill="#000" opacity="1">35</text></g><g class="mark-rule role-axis-domain" pointer-events="none"><line transform="translate(0,300)" x2="0" y2="-300" stroke="#888" stroke-width="1" opacity="1"/></g><g class="mark-text role-axis-title" pointer-events="none"><text text-anchor="middle" transform="translate(-22.123046875,150) rotate(-90) translate(0,-2)" font-family="sans-serif" font-size="11px" font-weight="bold" fill="#000" opacity="1">Profits_billion</text></g></g><path class="foreground" aria-hidden="true" d="" pointer-events="none" display="none"/></g></g><g class="mark-symbol role-mark marks" role="graphics-object" aria-roledescription="symbol mark container"><path aria-label="Sales_billion: 115.5; Profits_billion: 17.4; Market_Value_billion: 182.2" role="graphics-symbol" aria-roledescription="circle" transform="translate(77,150.85714285714286)" d="M6.355,0A6.355,6.355,0,1,1,-6.355,0A6.355,6.355,0,1,1,6.355,0" fill="#4c78a8" stroke-width="2" opacity="0.7"/><path aria-label="Sales_billion: 103.3; Profits_billion: 13.3; Market_Value_billion: 186.5" role="graphics-symbol" aria-roledescription="circle" transform="translate(68.86666666666666,186)" d="M6.429,0A6.429,6.429,0,1,1,-6.429,0A6.429,6.429,0,1,1,6.429,0" fill="#4c78a8" stroke-width="2" opacity="0.7"/><path aria-label="Sales_billion: 156.2; Profits_billion: 11.6; Market_Value_billion: 216.2" role="graphics-symbol" aria-roledescription="circle" transform="translate(104.13333333333333,200.57142857142858)" d="M6.922,0A6.922,6.922,0,1,1,-6.922,0A6.922,6.922,0,1,1,6.922,0" fill="#4c78a8" stroke-width="2" opacity="0.7"/><path aria-label="Sales_billion: 341.6; Profits_billion: 30.5; Market_Value_billion: 407.2" role="graphics-symbol" aria-roledescription="circle" transform="translate(227.73333333333335,38.57142857142857)" d="M9.5,0A9.5,9.5,0,1,1,-9.5,0A9.5,9.5,0,1,1,9.5,0" fill="#4c78a8" stroke-width="2" opacity="0.7"/><path aria-label="Sales_billion: 369.1; Profits_billion: 20.1; Market_Value_billion: 212.9" role="graphics-symbol" aria-roledescription="circle" transform="translate(246.0666666666667,127.71428571428571)" d="M6.869,0A6.869,6.869,0,1,1,-6.869,0A6.869,6.869,0,1,1,6.869,0" fill="#4c78a8" stroke-width="2" opacity="0.7"/><path aria-label="Sales_billion: 222.3; Profits_billion: 21.2; Market_Value_billion: 320.8" role="graphics-symbol" aria-roledescription="circle" transform="translate(148.20000000000002,118.2857142857143)" d="M8.432,0A8.432,8.432,0,1,1,-8.432,0A8.432,8.432,0,1,1,8.432,0" fill="#4c78a8" stroke-width="2" opacity="0.7"/><path aria-label="Sales_billion: 69.2; Profits_billion: 18.8; Market_Value_billion: 239.5" role="graphics-symbol" aria-roledescription="circle" transform="translate(46.13333333333334,138.85714285714286)" d="M7.286,0A7.286,7.286,0,1,1,-7.286,0A7.286,7.286,0,1,1,7.286,0" fill="#4c78a8" stroke-width="2" opacity="0.7"/><path aria-label="Sales_billion: 136.2; Profits_billion: 13; Market_Value_billion: 211" role="graphics-symbol" aria-roledescription="circle" transform="translate(90.8,188.57142857142856)" d="M6.839,0A6.839,6.839,0,1,1,-6.839,0A6.839,6.839,0,1,1,6.839,0" fill="#4c78a8" stroke-width="2" opacity="0.7"/><path aria-label="Sales_billion: 121.3; Profits_billion: 21.2; Market_Value_billion: 238.8" role="graphics-symbol" aria-roledescription="circle" transform="translate(80.86666666666666,118.2857142857143)" d="M7.275,0A7.275,7.275,0,1,1,-7.275,0A7.275,7.275,0,1,1,7.275,0" fill="#4c78a8" stroke-width="2" opacity="0.7"/><path aria-label="Sales_billion: 111.5; Profits_billion: 10.6; Market_Value_billion: 132.8" role="graphics-symbol" aria-roledescription="circle" transform="translate(74.33333333333334,209.14285714285714)" d="M5.425,0A5.425,5.425,0,1,1,-5.425,0A5.425,5.425,0,1,1,5.425,0" fill="#4c78a8" stroke-width="2" opacity="0.7"/><path aria-label="Sales_billion: 130.4; Profits_billion: 10.5; Market_Value_billion: 88" role="graphics-symbol" aria-roledescription="circle" transform="translate(86.93333333333334,210)" d="M4.416,0A4.416,4.416,0,1,1,-4.416,0A4.416,4.416,0,1,1,4.416,0" fill="#4c78a8" stroke-width="2" opacity="0.7"/><path aria-label="Sales_billion: 93.2; Profits_billion: 12.4; Market_Value_billion: 170.6" role="graphics-symbol" aria-roledescription="circle" transform="translate(62.13333333333333,193.7142857142857)" d="M6.149,0A6.149,6.149,0,1,1,-6.149,0A6.149,6.149,0,1,1,6.149,0" fill="#4c78a8" stroke-width="2" opacity="0.7"/><path aria-label="Sales_billion: 109.7; Profits_billion: 12.8; Market_Value_billion: 94.7" role="graphics-symbol" aria-roledescription="circle" transform="translate(73.13333333333334,190.2857142857143)" d="M4.581,0A4.581,4.581,0,1,1,-4.581,0A4.581,4.581,0,1,1,4.581,0" fill="#4c78a8" stroke-width="2" opacity="0.7"/><path aria-label="Sales_billion: 124.3; Profits_billion: 19.9; Market_Value_billion: 168.2" role="graphics-symbol" aria-roledescription="circle" transform="translate(82.86666666666666,129.42857142857144)" d="M6.106,0A6.106,6.106,0,1,1,-6.106,0A6.106,6.106,0,1,1,6.106,0" fill="#4c78a8" stroke-width="2" opacity="0.7"/><path aria-label="Sales_billion: 98.7; Profits_billion: 25.7; Market_Value_billion: 172.9" role="graphics-symbol" aria-roledescription="circle" transform="translate(65.80000000000001,79.71428571428571)" d="M6.19,0A6.19,6.19,0,1,1,-6.19,0A6.19,6.19,0,1,1,6.19,0" fill="#4c78a8" stroke-width="2" opacity="0.7"/><path aria-label="Sales_billion: 189.6; Profits_billion: 19; Market_Value_billion: 200.6" role="graphics-symbol" aria-roledescription="circle" transform="translate(126.4,137.14285714285717)" d="M6.668,0A6.668,6.668,0,1,1,-6.668,0A6.668,6.668,0,1,1,6.668,0" fill="#4c78a8" stroke-width="2" opacity="0.7"/><path aria-label="Sales_billion: 58.2; Profits_billion: 15.6; Market_Value_billion: 224.8" role="graphics-symbol" aria-roledescription="circle" transform="translate(38.8,166.28571428571428)" d="M7.059,0A7.059,7.059,0,1,1,-7.059,0A7.059,7.059,0,1,1,7.059,0" fill="#4c78a8" stroke-width="2" opacity="0.7"/><path aria-label="Sales_billion: 421.8; Profits_billion: 16.4; Market_Value_billion: 187.3" role="graphics-symbol" aria-roledescription="circle" transform="translate(281.2,159.42857142857144)" d="M6.443,0A6.443,6.443,0,1,1,-6.443,0A6.443,6.443,0,1,1,6.443,0" fill="#4c78a8" stroke-width="2" opacity="0.7"/><path aria-label="Sales_billion: 188.1; Profits_billion: 14.2; Market_Value_billion: 138" role="graphics-symbol" aria-roledescription="circle" transform="translate(125.39999999999999,178.28571428571428)" d="M5.53,0A5.53,5.53,0,1,1,-5.53,0A5.53,5.53,0,1,1,5.53,0" fill="#4c78a8" stroke-width="2" opacity="0.7"/></g><g class="mark-group role-legend" role="graphics-symbol" aria-roledescription="legend" aria-label="Symbol legend titled 'Market_Value_billion' for size with values from 0 to 407"><g transform="translate(318,0)"><path class="background" aria-hidden="true" d="M0,0h109v94h-109Z" pointer-events="none"/><g><g class="mark-group role-legend-entry"><g transform="translate(0,16)"><path class="background" aria-hidden="true" d="M0,0h0v0h0Z" pointer-events="none"/><g><g class="mark-group role-scope" role="graphics-object" aria-roledescription="group mark container"><g transform="translate(0,0)"><path class="background" aria-hidden="true" d="M0,0h41.6845703125v11.707818602297825h-41.6845703125Z" pointer-events="none" opacity="1"/><g><g class="mark-symbol role-legend-symbol" pointer-events="none"><path transform="translate(10.5,5.5)" d="M4.708,0A4.708,4.708,0,1,1,-4.708,0A4.708,4.708,0,1,1,4.708,0" fill="#4c78a8" stroke-width="1.5" opacity="0.7"/></g><g class="mark-text role-legend-label" pointer-events="none"><text text-anchor="start" transform="translate(25,8.5)" font-family="sans-serif" font-size="10px" fill="#000" opacity="1">100</text></g></g><path class="foreground" aria-hidden="true" d="" pointer-events="none" display="none"/></g><g transform="translate(0,15)"><path class="background" aria-hidden="true" d="M0,0h41.6845703125v15.657860916561933h-41.6845703125Z" pointer-events="none" opacity="1"/><g><g class="mark-symbol role-legend-symbol" pointer-events="none"><path transform="translate(10.5,7.5)" d="M6.658,0A6.658,6.658,0,1,1,-6.658,0A6.658,6.658,0,1,1,6.658,0" fill="#4c78a8" stroke-width="1.5" opacity="0.7"/></g><g class="mark-text role-legend-label" pointer-events="none"><text text-anchor="start" transform="translate(25,10.5)" font-family="sans-serif" font-size="10px" fill="#000" opacity="1">200</text></g></g><path class="foreground" aria-hidden="true" d="" pointer-events="none" display="none"/></g><g transform="translate(0,34)"><path class="background" aria-hidden="true" d="M0,0h41.6845703125v18.654181011997736h-41.6845703125Z" pointer-events="none" opacity="1"/><g><g class="mark-symbol role-legend-symbol" pointer-events="none"><path transform="translate(10.5,9)" d="M8.154,0A8.154,8.154,0,1,1,-8.154,0A8.154,8.154,0,1,1,8.154,0" fill="#4c78a8" stroke-width="1.5" opacity="0.7"/></g><g class="mark-text role-legend-label" pointer-events="none"><text text-anchor="start" transform="translate(25,12)" font-family="sans-serif" font-size="10px" fill="#000" opacity="1">300</text></g></g><path class="foreground" aria-hidden="true" d="" pointer-events="none" display="none"/></g><g transform="translate(0,56)"><path class="background" aria-hidden="true" d="M0,0h41.6845703125v21.415637204595654h-41.6845703125Z" pointer-events="none" opacity="1"/><g><g class="mark-symbol role-legend-symbol" pointer-events="none"><path transform="translate(10.5,10.5)" d="M9.416,0A9.416,9.416,0,1,1,-9.416,0A9.416,9.416,0,1,1,9.416,0" fill="#4c78a8" stroke-width="1.5" opacity="0.7"/></g><g class="mark-text role-legend-label" pointer-events="none"><text text-anchor="start" transform="translate(25,13.5)" font-family="sans-serif" font-size="10px" fill="#000" opacity="1">400</text></g></g><path class="foreground" aria-hidden="true" d="" pointer-events="none" display="none"/></g></g></g><path class="foreground" aria-hidden="true" d="" pointer-events="none" display="none"/></g></g><g class="mark-text role-legend-title" pointer-events="none"><text text-anchor="start" transform="translate(0,9)" font-family="sans-serif" font-size="11px" font-weight="bold" fill="#000" opacity="1">Market_Value_billion</text></g></g><path class="foreground" aria-hidden="true" d="" pointer-events="none" display="none"/></g></g></g><path class="foreground" aria-hidden="true" d="" display="none"/></g></g></g></svg>