<svg xmlns="http://www.w3.org/2000/svg" xmlns:xlink="http://www.w3.org/1999/xlink" version="1.1" class="marks" width="281" height="198" viewBox="0 0 281 198"><rect width="281" height="198" fill="white"/><g fill="none" stroke-miterlimit="10" transform="translate(75,16)"><g class="mark-group role-frame root" role="graphics-object" aria-roledescription="group mark container"><g transform="translate(0,0)"><path class="background" aria-hidden="true" d="M0.5,0.5h60v60h-60Z"/><g><g class="mark-group role-axis" role="graphics-symbol" aria-roledescription="axis" aria-label="X-axis titled 'Document Status' for a discrete scale with 3 values: done, overdue, working"><g transform="translate(0.5,60.5)"><path class="background" aria-hidden="true" d="M0,0h0v0h0Z" pointer-events="none"/><g><g class="mark-rule role-axis-tick" pointer-events="none"><line transform="translate(10,0)" x2="0" y2="5" stroke="#888" stroke-width="1" opacity="1"/><line transform="translate(30,0)" x2="0" y2="5" stroke="#888" stroke-width="1" opacity="1"/><line transform="translate(50,0)" x2="0" y2="5" stroke="#888" stroke-width="1" opacity="1"/></g><g class="mark-text role-axis-label" pointer-events="none"><text text-anchor="end" transform="translate(10,7) rotate(270) translate(0,3)" font-family="sans-serif" font-size="10px" fill="#000" opacity="1">done</text><text text-anchor="end" transform="translate(30,7) rotate(270) translate(0,3)" font-family="sans-serif" font-size="10px" fill="#000" opacity="1">overdue</text><text text-anchor="end" transform="translate(50,7) rotate(270) translate(0,3)" font-family="sans-serif" font-size="10px" fill="#000" opacity="1">working</text></g><g class="mark-rule role-axis-domain" pointer-events="none"><line transform="translate(0,0)" x2="60" y2="0" stroke="#888" stroke-width="1" opacity="1"/></g><g class="mark-text role-axis-title" pointer-events="none"><text text-anchor="middle" transform="translate(30,56.1376953125)" font-family="sans-serif" font-size="11px" font-weight="bold" fill="#000" opacity="1">Document Status</text></g></g><path class="foreground" aria-hidden="true" d="" pointer-events="none" display="none"/></g></g><g class="mark-group role-axis" role="graphics-symbol" aria-roledescription="axis" aria-label="Y-axis titled 'Document Type' for a discrete scale with 3 values: CD, Hard Drive, Paper"><g transform="translate(0.5,0.5)"><path class="background" aria-hidden="true" d="M0,0h0v0h0Z" pointer-events="none"/><g><g class="mark-rule role-axis-tick" pointer-events="none"><line transform="translate(0,10)" x2="-5" y2="0" stroke="#888" stroke-width="1" opacity="1"/><line transform="translate(0,30)" x2="-5" y2="0" stroke="#888" stroke-width="1" opacity="1"/><line transform="translate(0,50)" x2="-5" y2="0" stroke="#888" stroke-width="1" opacity="1"/></g><g class="mark-text role-axis-label" pointer-events="none"><text text-anchor="end" transform="translate(-7,13)" font-family="sans-serif" font-size="10px" fill="#000" opacity="1">CD</text><text text-anchor="end" transform="translate(-7,33)" font-family="sans-serif" font-size="10px" fill="#000" opacity="1">Hard Drive</text><text text-anchor="end" transform="translate(-7,53)" font-family="sans-serif" font-size="10px" fill="#000" opacity="1">Paper</text></g><g class="mark-rule role-axis-domain" pointer-events="none"><line transform="translate(0,0)" x2="0" y2="60" stroke="#888" stroke-width="1" opacity="1"/></g><g class="mark-text role-axis-title" pointer-events="none"><text text-anchor="middle" transform="translate(-58.7880859375,30) rotate(-90) translate(0,-2)" font-family="sans-serif" font-size="11px" font-weight="bold" fill="#000" opacity="1">Document Type</text></g></g><path class="foreground" aria-hidden="true" d="" pointer-events="none" display="none"/></g></g><g class="mark-symbol role-mark marks" role="graphics-object" aria-roledescription="symbol mark container"><path aria-label="document_status_code: working; document_type_code: CD; Sum of receipt_number: 276" role="graphics-symbol" aria-roledescription="circle" transform="translate(50,10)" d="M15.811,0A15.811,15.811,0,1,1,-15.811,0A15.811,15.811,0,1,1,15.811,0" fill="#4c78a8" stroke-width="2"/><path aria-label="document_status_code: done; document_type_code: Paper; Sum of receipt_number: 262" role="graphics-symbol" aria-roledescription="circle" transform="translate(10,50)" d="M15.446,0A15.446,15.446,0,1,1,-15.446,0A15.446,15.446,0,1,1,15.446,0" fill="#4c78a8" stroke-width="2"/><path aria-label="document_status_code: overdue; document_type_code: Paper; Sum of receipt_number: 8" role="graphics-symbol" aria-roledescription="circle" transform="translate(30,50)" d="M5.614,0A5.614,5.614,0,1,1,-5.614,0A5.614,5.614,0,1,1,5.614,0" fill="#4c78a8" stroke-width="2"/><path aria-label="document_status_code: overdue; document_type_code: Hard Drive; Sum of receipt_number: 152" role="graphics-symbol" aria-roledescription="circle" transform="translate(30,30)" d="M12.203,0A12.203,12.203,0,1,1,-12.203,0A12.203,12.203,0,1,1,12.203,0" fill="#4c78a8" stroke-width="2"/><path aria-label="document_status_code: overdue; document_type_code: CD; Sum of receipt_number: 37" role="graphics-symbol" aria-roledescription="circle" transform="translate(30,10)" d="M7.427,0A7.427,7.427,0,1,1,-7.427,0A7.427,7.427,0,1,1,7.427,0" fill="#4c78a8" stroke-width="2"/><path aria-label="document_status_code: working; document_type_code: Paper; Sum of receipt_number: 189" role="graphics-symbol" aria-roledescription="circle" transform="translate(50,50)" d="M13.382,0A13.382,13.382,0,1,1,-13.382,0A13.382,13.382,0,1,1,13.382,0" fill="#4c78a8" stroke-width="2"/><path aria-label="document_status_code: working; document_type_code: Hard Drive; Sum of receipt_number: 238" role="graphics-symbol" aria-roledescription="circle" transform="translate(50,30)" d="M14.799,0A14.799,14.799,0,1,1,-14.799,0A14.799,14.799,0,1,1,14.799,0" fill="#4c78a8" stroke-width="2"/></g><g class="mark-group role-legend" role="graphics-symbol" aria-roledescription="legend" aria-label="Symbol legend titled 'Sum of receipt_number' for size with values from 0 to 276"><g transform="translate(78,0)"><path class="background" aria-hidden="true" d="M0,0h123v177h-123Z" pointer-events="none"/><g><g class="mark-group role-legend-entry"><g transform="translate(0,16)"><path class="background" aria-hidden="true" d="M0,0h0v0h0Z" pointer-events="none"/><g><g class="mark-group role-scope" role="graphics-object" aria-roledescription="group mark container"><g transform="translate(0,0)"><path class="background" aria-hidden="true" d="M0,0h52.6845703125v12.5h-52.6845703125Z" pointer-events="none" opacity="1"/><g><g class="mark-symbol role-legend-symbol" pointer-events="none"><path transform="translate(16,6)" d="M5,0A5,5,0,1,1,-5,0A5,5,0,1,1,5,0" fill="#4c78a8" stroke-width="1.5" opacity="1"/></g><g class="mark-text role-legend-label" pointer-events="none"><text text-anchor="start" transform="translate(36,9)" font-family="sans-serif" font-size="10px" fill="#000" opacity="1">0</text></g></g><path class="foreground" aria-hidden="true" d="" pointer-events="none" display="none"/></g><g transform="translate(0,16)"><path class="background" aria-hidden="true" d="M0,0h52.6845703125v18.609307588519343h-52.6845703125Z" pointer-events="none" opacity="1"/><g><g class="mark-symbol role-legend-symbol" pointer-events="none"><path transform="translate(16,9)" d="M8.109,0A8.109,8.109,0,1,1,-8.109,0A8.109,8.109,0,1,1,8.109,0" fill="#4c78a8" stroke-width="1.5" opacity="1"/></g><g class="mark-text role-legend-label" pointer-events="none"><text text-anchor="start" transform="translate(36,12)" font-family="sans-serif" font-size="10px" fill="#000" opacity="1">50</text></g></g><path class="foreground" aria-hidden="true" d="" pointer-events="none" display="none"/></g><g transform="translate(0,38)"><path class="background" aria-hidden="true" d="M0,0h52.6845703125v23.320936930842798h-52.6845703125Z" pointer-events="none" opacity="1"/><g><g class="mark-symbol role-legend-symbol" pointer-events="none"><path transform="translate(16,11.5)" d="M10.321,0A10.321,10.321,0,1,1,-10.321,0A10.321,10.321,0,1,1,10.321,0" fill="#4c78a8" stroke-width="1.5" opacity="1"/></g><g class="mark-text role-legend-label" pointer-events="none"><text text-anchor="start" transform="translate(36,14.5)" font-family="sans-serif" font-size="10px" fill="#000" opacity="1">100</text></g></g><path class="foreground" aria-hidden="true" d="" pointer-events="none" display="none"/></g><g transform="translate(0,65)"><path class="background" aria-hidden="true" d="M0,0h52.6845703125v26.63600464303026h-52.6845703125Z" pointer-events="none" opacity="1"/><g><g class="mark-symbol role-legend-symbol" pointer-events="none"><path transform="translate(16,13)" d="M12.136,0A12.136,12.136,0,1,1,-12.136,0A12.136,12.136,0,1,1,12.136,0" fill="#4c78a8" stroke-width="1.5" opacity="1"/></g><g class="mark-text role-legend-label" pointer-events="none"><text text-anchor="start" transform="translate(36,16)" font-family="sans-serif" font-size="10px" fill="#000" opacity="1">150</text></g></g><path class="foreground" aria-hidden="true" d="" pointer-events="none" display="none"/></g><g transform="translate(0,95)"><path class="background" aria-hidden="true" d="M0,0h52.6845703125v29.712894598182743h-52.6845703125Z" pointer-events="none" opacity="1"/><g><g class="mark-symbol role-legend-symbol" pointer-events="none"><path transform="translate(16,14.5)" d="M13.713,0A13.713,13.713,0,1,1,-13.713,0A13.713,13.713,0,1,1,13.713,0" fill="#4c78a8" stroke-width="1.5" opacity="1"/></g><g class="mark-text role-legend-label" pointer-events="none"><text text-anchor="start" transform="translate(36,17.5)" font-family="sans-serif" font-size="10px" fill="#000" opacity="1">200</text></g></g><path class="foreground" aria-hidden="true" d="" pointer-events="none" display="none"/></g><g transform="translate(0,128)"><path class="background" aria-hidden="true" d="M0,0h52.6845703125v32.62628003925906h-52.6845703125Z" pointer-events="none" opacity="1"/><g><g class="mark-symbol role-legend-symbol" pointer-events="none"><path transform="translate(16,16)" d="M15.126,0A15.126,15.126,0,1,1,-15.126,0A15.126,15.126,0,1,1,15.126,0" fill="#4c78a8" stroke-width="1.5" opacity="1"/></g><g class="mark-text role-legend-label" pointer-events="none"><text text-anchor="start" transform="translate(36,19)" font-family="sans-serif" font-size="10px" fill="#000" opacity="1">250</text></g></g><path class="foreground" aria-hidden="true" d="" pointer-events="none" display="none"/></g></g></g><path class="foreground" aria-hidden="true" d="" pointer-events="none" display="none"/></g></g><g class="mark-text role-legend-title" pointer-events="none"><text text-anchor="start" transform="translate(0,9)" font-family="sans-serif" font-size="11px" font-weight="bold" fill="#000" opacity="1">Sum of receipt_numb…</text></g></g><path class="foreground" aria-hidden="true" d="" pointer-events="none" display="none"/></g></g></g><path class="foreground" aria-hidden="true" d="" display="none"/></g></g></g></svg>