<svg xmlns="http://www.w3.org/2000/svg" xmlns:xlink="http://www.w3.org/1999/xlink" version="1.1" class="marks" width="508" height="347" viewBox="0 0 508 347"><rect width="508" height="347" fill="white"/><g fill="none" stroke-miterlimit="10" transform="translate(83,10)"><g class="mark-group role-frame root" role="graphics-object" aria-roledescription="group mark container"><g transform="translate(0,0)"><path class="background" aria-hidden="true" d="M0.5,0.5h300v300h-300Z" stroke="#ddd"/><g><g class="mark-group role-axis" aria-hidden="true"><g transform="translate(0.5,300.5)"><path class="background" aria-hidden="true" d="M0,0h0v0h0Z" pointer-events="none"/><g><g class="mark-rule role-axis-grid" pointer-events="none"><line transform="translate(0,-300)" x2="0" y2="300" stroke="#ddd" stroke-width="1" opacity="1"/><line transform="translate(38,-300)" x2="0" y2="300" stroke="#ddd" stroke-width="1" opacity="1"/><line transform="translate(75,-300)" x2="0" y2="300" stroke="#ddd" stroke-width="1" opacity="1"/><line transform="translate(113,-300)" x2="0" y2="300" stroke="#ddd" stroke-width="1" opacity="1"/><line transform="translate(150,-300)" x2="0" y2="300" stroke="#ddd" stroke-width="1" opacity="1"/><line transform="translate(188,-300)" x2="0" y2="300" stroke="#ddd" stroke-width="1" opacity="1"/><line transform="translate(225,-300)" x2="0" y2="300" stroke="#ddd" stroke-width="1" opacity="1"/><line transform="translate(263,-300)" x2="0" y2="300" stroke="#ddd" stroke-width="1" opacity="1"/><line transform="translate(300,-300)" x2="0" y2="300" stroke="#ddd" stroke-width="1" opacity="1"/></g></g><path class="foreground" aria-hidden="true" d="" pointer-events="none" display="none"/></g></g><g class="mark-group role-axis" aria-hidden="true"><g transform="translate(0.5,0.5)"><path class="background" aria-hidden="true" d="M0,0h0v0h0Z" pointer-events="none"/><g><g class="mark-rule role-axis-grid" pointer-events="none"><line transform="translate(0,300)" x2="300" y2="0" stroke="#ddd" stroke-width="1" opacity="1"/><line transform="translate(0,257)" x2="300" y2="0" stroke="#ddd" stroke-width="1" opacity="1"/><line transform="translate(0,214)" x2="300" y2="0" stroke="#ddd" stroke-width="1" opacity="1"/><line transform="translate(0,171)" x2="300" y2="0" stroke="#ddd" stroke-width="1" opacity="1"/><line transform="translate(0,129)" x2="300" y2="0" stroke="#ddd" stroke-width="1" opacity="1"/><line transform="translate(0,86)" x2="300" y2="0" stroke="#ddd" stroke-width="1" opacity="1"/><line transform="translate(0,43)" x2="300" y2="0" stroke="#ddd" stroke-width="1" opacity="1"/><line transform="translate(0,0)" x2="300" y2="0" stroke="#ddd" stroke-width="1" opacity="1"/></g></g><path class="foreground" aria-hidden="true" d="" pointer-events="none" display="none"/></g></g><g class="mark-group role-axis" role="graphics-symbol" aria-roledescription="axis" aria-label="X-axis titled 'product_id' for a linear scale with values from 0 to 16"><g transform="translate(0.5,300.5)"><path class="background" aria-hidden="true" d="M0,0h0v0h0Z" pointer-events="none"/><g><g class="mark-rule role-axis-tick" pointer-events="none"><line transform="translate(0,0)" x2="0" y2="5" stroke="#888" stroke-width="1" opacity="1"/><line transform="translate(38,0)" x2="0" y2="5" stroke="#888" stroke-width="1" opacity="1"/><line transform="translate(75,0)" x2="0" y2="5" stroke="#888" stroke-width="1" opacity="1"/><line transform="translate(113,0)" x2="0" y2="5" stroke="#888" stroke-width="1" opacity="1"/><line transform="translate(150,0)" x2="0" y2="5" stroke="#888" stroke-width="1" opacity="1"/><line transform="translate(188,0)" x2="0" y2="5" stroke="#888" stroke-width="1" opacity="1"/><line transform="translate(225,0)" x2="0" y2="5" stroke="#888" stroke-width="1" opacity="1"/><line transform="translate(263,0)" x2="0" y2="5" stroke="#888" stroke-width="1" opacity="1"/><line transform="translate(300,0)" x2="0" y2="5" stroke="#888" stroke-width="1" opacity="1"/></g><g class="mark-text role-axis-label" pointer-events="none"><text text-anchor="start" transform="translate(0,15)" font-family="sans-serif" font-size="10px" fill="#000" opacity="1">0</text><text text-anchor="middle" transform="translate(37.5,15)" font-family="sans-serif" font-size="10px" fill="#000" opacity="1">2</text><text text-anchor="middle" transform="translate(75,15)" font-family="sans-serif" font-size="10px" fill="#000" opacity="1">4</text><text text-anchor="middle" transform="translate(112.5,15)" font-family="sans-serif" font-size="10px" fill="#000" opacity="1">6</text><text text-anchor="middle" transform="translate(150,15)" font-family="sans-serif" font-size="10px" fill="#000" opacity="1">8</text><text text-anchor="middle" transform="translate(187.5,15)" font-family="sans-serif" font-size="10px" fill="#000" opacity="1">10</text><text text-anchor="middle" transform="translate(225,15)" font-family="sans-serif" font-size="10px" fill="#000" opacity="1">12</text><text text-anchor="middle" transform="translate(262.5,15)" font-family="sans-serif" font-size="10px" fill="#000" opacity="1">14</text><text text-anchor="end" transform="translate(300,15)" font-family="sans-serif" font-size="10px" fill="#000" opacity="1">16</text></g><g class="mark-rule role-axis-domain" pointer-events="none"><line transform="translate(0,0)" x2="300" y2="0" stroke="#888" stroke-width="1" opacity="1"/></g><g class="mark-text role-axis-title" pointer-events="none"><text text-anchor="middle" transform="translate(150,30)" font-family="sans-serif" font-size="11px" font-weight="bold" fill="#000" opacity="1">product_id</text></g></g><path class="foreground" aria-hidden="true" d="" pointer-events="none" display="none"/></g></g><g class="mark-group role-axis" role="graphics-symbol" aria-roledescription="axis" aria-label="Y-axis titled 'product_price' for a linear scale with values from 0 to 350,000,000"><g transform="translate(0.5,0.5)"><path class="background" aria-hidden="true" d="M0,0h0v0h0Z" pointer-events="none"/><g><g class="mark-rule role-axis-tick" pointer-events="none"><line transform="translate(0,300)" x2="-5" y2="0" stroke="#888" stroke-width="1" opacity="1"/><line transform="translate(0,257)" x2="-5" y2="0" stroke="#888" stroke-width="1" opacity="1"/><line transform="translate(0,214)" x2="-5" y2="0" stroke="#888" stroke-width="1" opacity="1"/><line transform="translate(0,171)" x2="-5" y2="0" stroke="#888" stroke-width="1" opacity="1"/><line transform="translate(0,129)" x2="-5" y2="0" stroke="#888" stroke-width="1" opacity="1"/><line transform="translate(0,86)" x2="-5" y2="0" stroke="#888" stroke-width="1" opacity="1"/><line transform="translate(0,43)" x2="-5" y2="0" stroke="#888" stroke-width="1" opacity="1"/><line transform="translate(0,0)" x2="-5" y2="0" stroke="#888" stroke-width="1" opacity="1"/></g><g class="mark-text role-axis-label" pointer-events="none"><text text-anchor="end" transform="translate(-7,303)" font-family="sans-serif" font-size="10px" fill="#000" opacity="1">0</text><text text-anchor="end" transform="translate(-7,260.14285714285717)" font-family="sans-serif" font-size="10px" fill="#000" opacity="1">50,000,000</text><text text-anchor="end" transform="translate(-7,217.28571428571428)" font-family="sans-serif" font-size="10px" fill="#000" opacity="1">100,000,000</text><text text-anchor="end" transform="translate(-7,174.42857142857142)" font-family="sans-serif" font-size="10px" fill="#000" opacity="1">150,000,000</text><text text-anchor="end" transform="translate(-7,131.57142857142858)" font-family="sans-serif" font-size="10px" fill="#000" opacity="1">200,000,000</text><text text-anchor="end" transform="translate(-7,88.71428571428571)" font-family="sans-serif" font-size="10px" fill="#000" opacity="1">250,000,000</text><text text-anchor="end" transform="translate(-7,45.85714285714287)" font-family="sans-serif" font-size="10px" fill="#000" opacity="1">300,000,000</text><text text-anchor="end" transform="translate(-7,3)" font-family="sans-serif" font-size="10px" fill="#000" opacity="1">350,000,000</text></g><g class="mark-rule role-axis-domain" pointer-events="none"><line transform="translate(0,300)" x2="0" y2="-300" stroke="#888" stroke-width="1" opacity="1"/></g><g class="mark-text role-axis-title" pointer-events="none"><text text-anchor="middle" transform="translate(-66.6103515625,150) rotate(-90) translate(0,-2)" font-family="sans-serif" font-size="11px" font-weight="bold" fill="#000" opacity="1">product_price</text></g></g><path class="foreground" aria-hidden="true" d="" pointer-events="none" display="none"/></g></g><g class="mark-symbol role-mark marks" role="graphics-object" aria-roledescription="symbol mark container"><path aria-label="product_id: 1; product_price: 54753982.5745; product_type_code: Hardware" role="graphics-symbol" aria-roledescription="circle" transform="translate(18.75,253.068014936124)" d="M3.989,0A3.989,3.989,0,1,1,-3.989,0A3.989,3.989,0,1,1,3.989,0" fill="#f58518" stroke-width="2" opacity="0.7"/><path aria-label="product_id: 2; product_price: 30590929.5283; product_type_code: Clothes" role="graphics-symbol" aria-roledescription="circle" transform="translate(37.5,273.779203261452)" d="M2.982,0A2.982,2.982,0,1,1,-2.982,0A2.982,2.982,0,1,1,2.982,0" fill="#4c78a8" stroke-width="2" opacity="0.7"/><path aria-label="product_id: 3; product_price: 10268.8529707; product_type_code: Hardware" role="graphics-symbol" aria-roledescription="circle" transform="translate(56.25,299.99119812602515)" d="M0.055,0A0.055,0.055,0,1,1,-0.055,0A0.055,0.055,0,1,1,0.055,0" fill="#f58518" stroke-width="2" opacity="0.7"/><path aria-label="product_id: 4; product_price: 22956668.6995; product_type_code: Hardware" role="graphics-symbol" aria-roledescription="circle" transform="translate(75,280.322855400444)" d="M2.583,0A2.583,2.583,0,1,1,-2.583,0A2.583,2.583,0,1,1,2.583,0" fill="#f58518" stroke-width="2" opacity="0.7"/><path aria-label="product_id: 5; product_price: 5927021.8748; product_type_code: Clothes" role="graphics-symbol" aria-roledescription="circle" transform="translate(93.75,294.91969553588393)" d="M1.313,0A1.313,1.313,0,1,1,-1.313,0A1.313,1.313,0,1,1,1.313,0" fill="#4c78a8" stroke-width="2" opacity="0.7"/><path aria-label="product_id: 6; product_price: 77.1099611475; product_type_code: Hardware" role="graphics-symbol" aria-roledescription="circle" transform="translate(112.5,299.9999339057476)" d="M0.005,0A0.005,0.005,0,1,1,-0.005,0A0.005,0.005,0,1,1,0.005,0" fill="#f58518" stroke-width="2" opacity="0.7"/><path aria-label="product_id: 7; product_price: 450.392325205; product_type_code: Hardware" role="graphics-symbol" aria-roledescription="circle" transform="translate(131.25,299.99961394943557)" d="M0.011,0A0.011,0.011,0,1,1,-0.011,0A0.011,0.011,0,1,1,0.011,0" fill="#f58518" stroke-width="2" opacity="0.7"/><path aria-label="product_id: 8; product_price: 4446237.91776; product_type_code: Hardware" role="graphics-symbol" aria-roledescription="circle" transform="translate(150,296.1889389276382)" d="M1.137,0A1.137,1.137,0,1,1,-1.137,0A1.137,1.137,0,1,1,1.137,0" fill="#f58518" stroke-width="2" opacity="0.7"/><path aria-label="product_id: 9; product_price: 622.792759845; product_type_code: Clothes" role="graphics-symbol" aria-roledescription="circle" transform="translate(168.75,299.9994661776344)" d="M0.013,0A0.013,0.013,0,1,1,-0.013,0A0.013,0.013,0,1,1,0.013,0" fill="#4c78a8" stroke-width="2" opacity="0.7"/><path aria-label="product_id: 10; product_price: 7171.59333533; product_type_code: Hardware" role="graphics-symbol" aria-roledescription="circle" transform="translate(187.5,299.9938529199983)" d="M0.046,0A0.046,0.046,0,1,1,-0.046,0A0.046,0.046,0,1,1,0.046,0" fill="#f58518" stroke-width="2" opacity="0.7"/><path aria-label="product_id: 11; product_price: 149.955190769; product_type_code: Clothes" role="graphics-symbol" aria-roledescription="circle" transform="translate(206.25,299.99987146697936)" d="M0.007,0A0.007,0.007,0,1,1,-0.007,0A0.007,0.007,0,1,1,0.007,0" fill="#4c78a8" stroke-width="2" opacity="0.7"/><path aria-label="product_id: 12; product_price: 593.8051993; product_type_code: Clothes" role="graphics-symbol" aria-roledescription="circle" transform="translate(225,299.9994910241149)" d="M0.013,0A0.013,0.013,0,1,1,-0.013,0A0.013,0.013,0,1,1,0.013,0" fill="#4c78a8" stroke-width="2" opacity="0.7"/><path aria-label="product_id: 13; product_price: 11388.2628246; product_type_code: Clothes" role="graphics-symbol" aria-roledescription="circle" transform="translate(243.75,299.9902386318646)" d="M0.058,0A0.058,0.058,0,1,1,-0.058,0A0.058,0.058,0,1,1,0.058,0" fill="#4c78a8" stroke-width="2" opacity="0.7"/><path aria-label="product_id: 14; product_price: 389.915426443; product_type_code: Hardware" role="graphics-symbol" aria-roledescription="circle" transform="translate(262.5,299.9996657867773)" d="M0.011,0A0.011,0.011,0,1,1,-0.011,0A0.011,0.011,0,1,1,0.011,0" fill="#f58518" stroke-width="2" opacity="0.7"/><path aria-label="product_id: 15; product_price: 310488248.488; product_type_code: Clothes" role="graphics-symbol" aria-roledescription="circle" transform="translate(281.25,33.86721558181714)" d="M9.5,0A9.5,9.5,0,1,1,-9.5,0A9.5,9.5,0,1,1,9.5,0" fill="#4c78a8" stroke-width="2" opacity="0.7"/></g><g class="mark-group role-legend" role="graphics-symbol" aria-roledescription="legend" aria-label="Symbol legend titled 'product_type_code' for fill color with 2 values: Clothes, Hardware"><g transform="translate(318,0)"><path class="background" aria-hidden="true" d="M0,0h102v40h-102Z" pointer-events="none"/><g><g class="mark-group role-legend-entry"><g transform="translate(0,16)"><path class="background" aria-hidden="true" d="M0,0h0v0h0Z" pointer-events="none"/><g><g class="mark-group role-scope" role="graphics-object" aria-roledescription="group mark container"><g transform="translate(0,0)"><path class="background" aria-hidden="true" d="M0,0h59.349609375v11h-59.349609375Z" pointer-events="none" opacity="1"/><g><g class="mark-symbol role-legend-symbol" pointer-events="none"><path transform="translate(6,6)" d="M5,0A5,5,0,1,1,-5,0A5,5,0,1,1,5,0" fill="#4c78a8" stroke-width="1.5" opacity="0.7"/></g><g class="mark-text role-legend-label" pointer-events="none"><text text-anchor="start" transform="translate(16,9)" font-family="sans-serif" font-size="10px" fill="#000" opacity="1">Clothes</text></g></g><path class="foreground" aria-hidden="true" d="" pointer-events="none" display="none"/></g><g transform="translate(0,13)"><path class="background" aria-hidden="true" d="M0,0h59.349609375v11h-59.349609375Z" pointer-events="none" opacity="1"/><g><g class="mark-symbol role-legend-symbol" pointer-events="none"><path transform="translate(6,6)" d="M5,0A5,5,0,1,1,-5,0A5,5,0,1,1,5,0" fill="#f58518" stroke-width="1.5" opacity="0.7"/></g><g class="mark-text role-legend-label" pointer-events="none"><text text-anchor="start" transform="translate(16,9)" font-family="sans-serif" font-size="10px" fill="#000" opacity="1">Hardware</text></g></g><path class="foreground" aria-hidden="true" d="" pointer-events="none" display="none"/></g></g></g><path class="foreground" aria-hidden="true" d="" pointer-events="none" display="none"/></g></g><g class="mark-text role-legend-title" pointer-events="none"><text text-anchor="start" transform="translate(0,9)" font-family="sans-serif" font-size="11px" font-weight="bold" fill="#000" opacity="1">product_type_code</text></g></g><path class="foreground" aria-hidden="true" d="" pointer-events="none" display="none"/></g></g><g class="mark-group role-legend" role="graphics-symbol" aria-roledescription="legend" aria-label="Symbol legend titled 'product_price' for size with values from 0 to 310,488,248"><g transform="translate(318,48)"><path class="background" aria-hidden="true" d="M0,0h81v132h-81Z" pointer-events="none"/><g><g class="mark-group role-legend-entry"><g transform="translate(0,16)"><path class="background" aria-hidden="true" d="M0,0h0v0h0Z" pointer-events="none"/><g><g class="mark-group role-scope" role="graphics-object" aria-roledescription="group mark container"><g transform="translate(0,0)"><path class="background" aria-hidden="true" d="M0,0h80.6103515625v10.312290823731672h-80.6103515625Z" pointer-events="none" opacity="1"/><g><g class="mark-symbol role-legend-symbol" pointer-events="none"><path transform="translate(10.5,5)" d="M3.812,0A3.812,3.812,0,1,1,-3.812,0A3.812,3.812,0,1,1,3.812,0" fill="black" fill-opacity="0.7" stroke-width="1.5" opacity="0.7"/></g><g class="mark-text role-legend-label" pointer-events="none"><text text-anchor="start" transform="translate(25,8)" font-family="sans-serif" font-size="10px" fill="#000" opacity="1">50,000,000</text></g></g><path class="foreground" aria-hidden="true" d="" pointer-events="none" display="none"/></g><g transform="translate(0,14)"><path class="background" aria-hidden="true" d="M0,0h80.6103515625v13.39139338663183h-80.6103515625Z" pointer-events="none" opacity="1"/><g><g class="mark-symbol role-legend-symbol" pointer-events="none"><path transform="translate(10.5,6.5)" d="M5.391,0A5.391,5.391,0,1,1,-5.391,0A5.391,5.391,0,1,1,5.391,0" fill="black" fill-opacity="0.7" stroke-width="1.5" opacity="0.7"/></g><g class="mark-text role-legend-label" pointer-events="none"><text text-anchor="start" transform="translate(25,9.5)" font-family="sans-serif" font-size="10px" fill="#000" opacity="1">100,000,000</text></g></g><path class="foreground" aria-hidden="true" d="" pointer-events="none" display="none"/></g><g transform="translate(0,31)"><path class="background" aria-hidden="true" d="M0,0h80.6103515625v15.603081399931867h-80.6103515625Z" pointer-events="none" opacity="1"/><g><g class="mark-symbol role-legend-symbol" pointer-events="none"><path transform="translate(10.5,7.5)" d="M6.603,0A6.603,6.603,0,1,1,-6.603,0A6.603,6.603,0,1,1,6.603,0" fill="black" fill-opacity="0.7" stroke-width="1.5" opacity="0.7"/></g><g class="mark-text role-legend-label" pointer-events="none"><text text-anchor="start" transform="translate(25,10.5)" font-family="sans-serif" font-size="10px" fill="#000" opacity="1">150,000,000</text></g></g><path class="foreground" aria-hidden="true" d="" pointer-events="none" display="none"/></g><g transform="translate(0,50)"><path class="background" aria-hidden="true" d="M0,0h80.6103515625v17.624581647463344h-80.6103515625Z" pointer-events="none" opacity="1"/><g><g class="mark-symbol role-legend-symbol" pointer-events="none"><path transform="translate(10.5,8.5)" d="M7.625,0A7.625,7.625,0,1,1,-7.625,0A7.625,7.625,0,1,1,7.625,0" fill="black" fill-opacity="0.7" stroke-width="1.5" opacity="0.7"/></g><g class="mark-text role-legend-label" pointer-events="none"><text text-anchor="start" transform="translate(25,11.5)" font-family="sans-serif" font-size="10px" fill="#000" opacity="1">200,000,000</text></g></g><path class="foreground" aria-hidden="true" d="" pointer-events="none" display="none"/></g><g transform="translate(0,71)"><path class="background" aria-hidden="true" d="M0,0h80.6103515625v19.524541431862687h-80.6103515625Z" pointer-events="none" opacity="1"/><g><g class="mark-symbol role-legend-symbol" pointer-events="none"><path transform="translate(10.5,9.5)" d="M8.525,0A8.525,8.525,0,1,1,-8.525,0A8.525,8.525,0,1,1,8.525,0" fill="black" fill-opacity="0.7" stroke-width="1.5" opacity="0.7"/></g><g class="mark-text role-legend-label" pointer-events="none"><text text-anchor="start" transform="translate(25,12.5)" font-family="sans-serif" font-size="10px" fill="#000" opacity="1">250,000,000</text></g></g><path class="foreground" aria-hidden="true" d="" pointer-events="none" display="none"/></g><g transform="translate(0,94)"><path class="background" aria-hidden="true" d="M0,0h80.6103515625v21.33816726923716h-80.6103515625Z" pointer-events="none" opacity="1"/><g><g class="mark-symbol role-legend-symbol" pointer-events="none"><path transform="translate(10.5,10.5)" d="M9.338,0A9.338,9.338,0,1,1,-9.338,0A9.338,9.338,0,1,1,9.338,0" fill="black" fill-opacity="0.7" stroke-width="1.5" opacity="0.7"/></g><g class="mark-text role-legend-label" pointer-events="none"><text text-anchor="start" transform="translate(25,13.5)" font-family="sans-serif" font-size="10px" fill="#000" opacity="1">300,000,000</text></g></g><path class="foreground" aria-hidden="true" d="" pointer-events="none" display="none"/></g></g></g><path class="foreground" aria-hidden="true" d="" pointer-events="none" display="none"/></g></g><g class="mark-text role-legend-title" pointer-events="none"><text text-anchor="start" transform="translate(0,9)" font-family="sans-serif" font-size="11px" font-weight="bold" fill="#000" opacity="1">product_price</text></g></g><path class="foreground" aria-hidden="true" d="" pointer-events="none" display="none"/></g></g></g><path class="foreground" aria-hidden="true" d="" display="none"/></g></g></g></svg>