<svg xmlns="http://www.w3.org/2000/svg" xmlns:xlink="http://www.w3.org/1999/xlink" version="1.1" class="marks" width="399" height="135" viewBox="0 0 399 135"><rect width="399" height="135" fill="white"/><g fill="none" stroke-miterlimit="10" transform="translate(5,5)"><g class="mark-group role-frame root" role="graphics-object" aria-roledescription="group mark container"><g transform="translate(0,0)"><path class="background" aria-hidden="true" d="M0.5,0.5h300v20h-300Z" stroke="#ddd"/><g><g class="mark-group role-axis" role="graphics-symbol" aria-roledescription="axis" aria-label="X-axis titled 'city' for a discrete scale with 15 values: Agustinstad, East Rickey, Edgardoberg, Estaland, Gibsonfurt, ending with West Muriel"><g transform="translate(0.5,20.5)"><path class="background" aria-hidden="true" d="M0,0h0v0h0Z" pointer-events="none"/><g><g class="mark-rule role-axis-tick" pointer-events="none"><line transform="translate(10,0)" x2="0" y2="5" stroke="#888" stroke-width="1" opacity="1"/><line transform="translate(30,0)" x2="0" y2="5" stroke="#888" stroke-width="1" opacity="1"/><line transform="translate(50,0)" x2="0" y2="5" stroke="#888" stroke-width="1" opacity="1"/><line transform="translate(70,0)" x2="0" y2="5" stroke="#888" stroke-width="1" opacity="1"/><line transform="translate(90,0)" x2="0" y2="5" stroke="#888" stroke-width="1" opacity="1"/><line transform="translate(110,0)" x2="0" y2="5" stroke="#888" stroke-width="1" opacity="1"/><line transform="translate(130,0)" x2="0" y2="5" stroke="#888" stroke-width="1" opacity="1"/><line transform="translate(150,0)" x2="0" y2="5" stroke="#888" stroke-width="1" opacity="1"/><line transform="translate(170,0)" x2="0" y2="5" stroke="#888" stroke-width="1" opacity="1"/><line transform="translate(190,0)" x2="0" y2="5" stroke="#888" stroke-width="1" opacity="1"/><line transform="translate(210,0)" x2="0" y2="5" stroke="#888" stroke-width="1" opacity="1"/><line transform="translate(230,0)" x2="0" y2="5" stroke="#888" stroke-width="1" opacity="1"/><line transform="translate(250,0)" x2="0" y2="5" stroke="#888" stroke-width="1" opacity="1"/><line transform="translate(270,0)" x2="0" y2="5" stroke="#888" stroke-width="1" opacity="1"/><line transform="translate(290,0)" x2="0" y2="5" stroke="#888" stroke-width="1" opacity="1"/></g><g class="mark-text role-axis-label" pointer-events="none"><text text-anchor="end" transform="translate(10,7) rotate(270) translate(0,3)" font-family="sans-serif" font-size="10px" fill="#000" opacity="1">Agustinstad</text><text text-anchor="end" transform="translate(30,7) rotate(270) translate(0,3)" font-family="sans-serif" font-size="10px" fill="#000" opacity="1">East Rickey</text><text text-anchor="end" transform="translate(50,7) rotate(270) translate(0,3)" font-family="sans-serif" font-size="10px" fill="#000" opacity="1">Edgardoberg</text><text text-anchor="end" transform="translate(70,7) rotate(270) translate(0,3)" font-family="sans-serif" font-size="10px" fill="#000" opacity="1">Estaland</text><text text-anchor="end" transform="translate(90,7) rotate(270) translate(0,3)" font-family="sans-serif" font-size="10px" fill="#000" opacity="1">Gibsonfurt</text><text text-anchor="end" transform="translate(110,7) rotate(270) translate(0,3)" font-family="sans-serif" font-size="10px" fill="#000" opacity="1">Gilbertmouth</text><text text-anchor="end" transform="translate(130,7) rotate(270) translate(0,3)" font-family="sans-serif" font-size="10px" fill="#000" opacity="1">Gleasonland</text><text text-anchor="end" transform="translate(150,7) rotate(270) translate(0,3)" font-family="sans-serif" font-size="10px" fill="#000" opacity="1">Hertafurt</text><text text-anchor="end" transform="translate(170,7) rotate(270) translate(0,3)" font-family="sans-serif" font-size="10px" fill="#000" opacity="1">Lake Floyd</text><text text-anchor="end" transform="translate(190,7) rotate(270) translate(0,3)" font-family="sans-serif" font-size="10px" fill="#000" opacity="1">Lake Katheryn</text><text text-anchor="end" transform="translate(210,7) rotate(270) translate(0,3)" font-family="sans-serif" font-size="10px" fill="#000" opacity="1">North Jairo</text><text text-anchor="end" transform="translate(230,7) rotate(270) translate(0,3)" font-family="sans-serif" font-size="10px" fill="#000" opacity="1">North Lisandroport</text><text text-anchor="end" transform="translate(250,7) rotate(270) translate(0,3)" font-family="sans-serif" font-size="10px" fill="#000" opacity="1">Port Montytown</text><text text-anchor="end" transform="translate(270,7) rotate(270) translate(0,3)" font-family="sans-serif" font-size="10px" fill="#000" opacity="1">West Kaiatown</text><text text-anchor="end" transform="translate(290,7) rotate(270) translate(0,3)" font-family="sans-serif" font-size="10px" fill="#000" opacity="1">West Muriel</text></g><g class="mark-rule role-axis-domain" pointer-events="none"><line transform="translate(0,0)" x2="300" y2="0" stroke="#888" stroke-width="1" opacity="1"/></g><g class="mark-text role-axis-title" pointer-events="none"><text text-anchor="middle" transform="translate(150,102.822265625)" font-family="sans-serif" font-size="11px" font-weight="bold" fill="#000" opacity="1">city</text></g></g><path class="foreground" aria-hidden="true" d="" pointer-events="none" display="none"/></g></g><g class="mark-symbol role-mark marks" role="graphics-object" aria-roledescription="symbol mark container"><path aria-label="city: Hertafurt; zip_postcode: 740" role="graphics-symbol" aria-roledescription="circle" transform="translate(150,10)" d="M8.746,0A8.746,8.746,0,1,1,-8.746,0A8.746,8.746,0,1,1,8.746,0" fill="#4c78a8" stroke-width="2" opacity="0.7"/><path aria-label="city: Edgardoberg; zip_postcode: 282" role="graphics-symbol" aria-roledescription="circle" transform="translate(50,10)" d="M5.399,0A5.399,5.399,0,1,1,-5.399,0A5.399,5.399,0,1,1,5.399,0" fill="#4c78a8" stroke-width="2" opacity="0.7"/><path aria-label="city: Gilbertmouth; zip_postcode: 167" role="graphics-symbol" aria-roledescription="circle" transform="translate(110,10)" d="M4.155,0A4.155,4.155,0,1,1,-4.155,0A4.155,4.155,0,1,1,4.155,0" fill="#4c78a8" stroke-width="2" opacity="0.7"/><path aria-label="city: Lake Floyd; zip_postcode: 41" role="graphics-symbol" aria-roledescription="circle" transform="translate(170,10)" d="M2.059,0A2.059,2.059,0,1,1,-2.059,0A2.059,2.059,0,1,1,2.059,0" fill="#4c78a8" stroke-width="2" opacity="0.7"/><path aria-label="city: Gibsonfurt; zip_postcode: 873" role="graphics-symbol" aria-roledescription="circle" transform="translate(90,10)" d="M9.5,0A9.5,9.5,0,1,1,-9.5,0A9.5,9.5,0,1,1,9.5,0" fill="#4c78a8" stroke-width="2" opacity="0.7"/><path aria-label="city: North Jairo; zip_postcode: 126" role="graphics-symbol" aria-roledescription="circle" transform="translate(210,10)" d="M3.609,0A3.609,3.609,0,1,1,-3.609,0A3.609,3.609,0,1,1,3.609,0" fill="#4c78a8" stroke-width="2" opacity="0.7"/><path aria-label="city: East Rickey; zip_postcode: 564" role="graphics-symbol" aria-roledescription="circle" transform="translate(30,10)" d="M7.636,0A7.636,7.636,0,1,1,-7.636,0A7.636,7.636,0,1,1,7.636,0" fill="#4c78a8" stroke-width="2" opacity="0.7"/><path aria-label="city: West Kaiatown; zip_postcode: 770" role="graphics-symbol" aria-roledescription="circle" transform="translate(270,10)" d="M8.922,0A8.922,8.922,0,1,1,-8.922,0A8.922,8.922,0,1,1,8.922,0" fill="#4c78a8" stroke-width="2" opacity="0.7"/><path aria-label="city: Agustinstad; zip_postcode: 248" role="graphics-symbol" aria-roledescription="circle" transform="translate(10,10)" d="M5.063,0A5.063,5.063,0,1,1,-5.063,0A5.063,5.063,0,1,1,5.063,0" fill="#4c78a8" stroke-width="2" opacity="0.7"/><path aria-label="city: Gleasonland; zip_postcode: 116" role="graphics-symbol" aria-roledescription="circle" transform="translate(130,10)" d="M3.463,0A3.463,3.463,0,1,1,-3.463,0A3.463,3.463,0,1,1,3.463,0" fill="#4c78a8" stroke-width="2" opacity="0.7"/><path aria-label="city: Lake Katheryn; zip_postcode: 505" role="graphics-symbol" aria-roledescription="circle" transform="translate(190,10)" d="M7.225,0A7.225,7.225,0,1,1,-7.225,0A7.225,7.225,0,1,1,7.225,0" fill="#4c78a8" stroke-width="2" opacity="0.7"/><path aria-label="city: North Lisandroport; zip_postcode: 202" role="graphics-symbol" aria-roledescription="circle" transform="translate(230,10)" d="M4.57,0A4.57,4.57,0,1,1,-4.57,0A4.57,4.57,0,1,1,4.57,0" fill="#4c78a8" stroke-width="2" opacity="0.7"/><path aria-label="city: Estaland; zip_postcode: 381" role="graphics-symbol" aria-roledescription="circle" transform="translate(70,10)" d="M6.276,0A6.276,6.276,0,1,1,-6.276,0A6.276,6.276,0,1,1,6.276,0" fill="#4c78a8" stroke-width="2" opacity="0.7"/><path aria-label="city: West Muriel; zip_postcode: 571" role="graphics-symbol" aria-roledescription="circle" transform="translate(290,10)" d="M7.683,0A7.683,7.683,0,1,1,-7.683,0A7.683,7.683,0,1,1,7.683,0" fill="#4c78a8" stroke-width="2" opacity="0.7"/><path aria-label="city: Port Montytown; zip_postcode: 37" role="graphics-symbol" aria-roledescription="circle" transform="translate(250,10)" d="M1.956,0A1.956,1.956,0,1,1,-1.956,0A1.956,1.956,0,1,1,1.956,0" fill="#4c78a8" stroke-width="2" opacity="0.7"/></g><g class="mark-group role-legend" role="graphics-symbol" aria-roledescription="legend" aria-label="Symbol legend titled 'zip_postcode' for size with values from 0 to 873"><g transform="translate(318,0)"><path class="background" aria-hidden="true" d="M0,0h71v93h-71Z" pointer-events="none"/><g><g class="mark-group role-legend-entry"><g transform="translate(0,16)"><path class="background" aria-hidden="true" d="M0,0h0v0h0Z" pointer-events="none"/><g><g class="mark-group role-scope" role="graphics-object" aria-roledescription="group mark container"><g transform="translate(0,0)"><path class="background" aria-hidden="true" d="M0,0h40.6845703125v11.547068337912341h-40.6845703125Z" pointer-events="none" opacity="1"/><g><g class="mark-symbol role-legend-symbol" pointer-events="none"><path transform="translate(10,5.5)" d="M4.547,0A4.547,4.547,0,1,1,-4.547,0A4.547,4.547,0,1,1,4.547,0" fill="#4c78a8" stroke-width="1.5" opacity="0.7"/></g><g class="mark-text role-legend-label" pointer-events="none"><text text-anchor="start" transform="translate(24,8.5)" font-family="sans-serif" font-size="10px" fill="#000" opacity="1">200</text></g></g><path class="foreground" aria-hidden="true" d="" pointer-events="none" display="none"/></g><g transform="translate(0,15)"><path class="background" aria-hidden="true" d="M0,0h40.6845703125v15.430525712512921h-40.6845703125Z" pointer-events="none" opacity="1"/><g><g class="mark-symbol role-legend-symbol" pointer-events="none"><path transform="translate(10,7.5)" d="M6.431,0A6.431,6.431,0,1,1,-6.431,0A6.431,6.431,0,1,1,6.431,0" fill="#4c78a8" stroke-width="1.5" opacity="0.7"/></g><g class="mark-text role-legend-label" pointer-events="none"><text text-anchor="start" transform="translate(24,10.5)" font-family="sans-serif" font-size="10px" fill="#000" opacity="1">400</text></g></g><path class="foreground" aria-hidden="true" d="" pointer-events="none" display="none"/></g><g transform="translate(0,34)"><path class="background" aria-hidden="true" d="M0,0h40.6845703125v18.375753386751946h-40.6845703125Z" pointer-events="none" opacity="1"/><g><g class="mark-symbol role-legend-symbol" pointer-events="none"><path transform="translate(10,9)" d="M7.876,0A7.876,7.876,0,1,1,-7.876,0A7.876,7.876,0,1,1,7.876,0" fill="#4c78a8" stroke-width="1.5" opacity="0.7"/></g><g class="mark-text role-legend-label" pointer-events="none"><text text-anchor="start" transform="translate(24,12)" font-family="sans-serif" font-size="10px" fill="#000" opacity="1">600</text></g></g><path class="foreground" aria-hidden="true" d="" pointer-events="none" display="none"/></g><g transform="translate(0,56)"><path class="background" aria-hidden="true" d="M0,0h40.6845703125v20.594136675824686h-40.6845703125Z" pointer-events="none" opacity="1"/><g><g class="mark-symbol role-legend-symbol" pointer-events="none"><path transform="translate(10,10)" d="M9.094,0A9.094,9.094,0,1,1,-9.094,0A9.094,9.094,0,1,1,9.094,0" fill="#4c78a8" stroke-width="1.5" opacity="0.7"/></g><g class="mark-text role-legend-label" pointer-events="none"><text text-anchor="start" transform="translate(24,13)" font-family="sans-serif" font-size="10px" fill="#000" opacity="1">800</text></g></g><path class="foreground" aria-hidden="true" d="" pointer-events="none" display="none"/></g></g></g><path class="foreground" aria-hidden="true" d="" pointer-events="none" display="none"/></g></g><g class="mark-text role-legend-title" pointer-events="none"><text text-anchor="start" transform="translate(0,9)" font-family="sans-serif" font-size="11px" font-weight="bold" fill="#000" opacity="1">zip_postcode</text></g></g><path class="foreground" aria-hidden="true" d="" pointer-events="none" display="none"/></g></g></g><path class="foreground" aria-hidden="true" d="" display="none"/></g></g></g></svg>