<svg xmlns="http://www.w3.org/2000/svg" xmlns:xlink="http://www.w3.org/1999/xlink" version="1.1" class="marks" width="464" height="351" viewBox="0 0 464 351"><rect width="464" height="351" fill="white"/><g fill="none" stroke-miterlimit="10" transform="translate(44,14)"><g class="mark-group role-frame root" role="graphics-object" aria-roledescription="group mark container"><g transform="translate(0,0)"><path class="background" aria-hidden="true" d="M0.5,0.5h300v300h-300Z" stroke="#ddd"/><g><g class="mark-group role-axis" aria-hidden="true"><g transform="translate(0.5,300.5)"><path class="background" aria-hidden="true" d="M0,0h0v0h0Z" pointer-events="none"/><g><g class="mark-rule role-axis-grid" pointer-events="none"><line transform="translate(18,-300)" x2="0" y2="300" stroke="#ddd" stroke-width="1" opacity="1"/><line transform="translate(43,-300)" x2="0" y2="300" stroke="#ddd" stroke-width="1" opacity="1"/><line transform="translate(71,-300)" x2="0" y2="300" stroke="#ddd" stroke-width="1" opacity="1"/><line transform="translate(97,-300)" x2="0" y2="300" stroke="#ddd" stroke-width="1" opacity="1"/><line transform="translate(124,-300)" x2="0" y2="300" stroke="#ddd" stroke-width="1" opacity="1"/><line transform="translate(151,-300)" x2="0" y2="300" stroke="#ddd" stroke-width="1" opacity="1"/><line transform="translate(178,-300)" x2="0" y2="300" stroke="#ddd" stroke-width="1" opacity="1"/><line transform="translate(206,-300)" x2="0" y2="300" stroke="#ddd" stroke-width="1" opacity="1"/><line transform="translate(232,-300)" x2="0" y2="300" stroke="#ddd" stroke-width="1" opacity="1"/><line transform="translate(259,-300)" x2="0" y2="300" stroke="#ddd" stroke-width="1" opacity="1"/><line transform="translate(286,-300)" x2="0" y2="300" stroke="#ddd" stroke-width="1" opacity="1"/></g></g><path class="foreground" aria-hidden="true" d="" pointer-events="none" display="none"/></g></g><g class="mark-group role-axis" aria-hidden="true"><g transform="translate(0.5,0.5)"><path class="background" aria-hidden="true" d="M0,0h0v0h0Z" pointer-events="none"/><g><g class="mark-rule role-axis-grid" pointer-events="none"><line transform="translate(0,300)" x2="300" y2="0" stroke="#ddd" stroke-width="1" opacity="1"/><line transform="translate(0,257)" x2="300" y2="0" stroke="#ddd" stroke-width="1" opacity="1"/><line transform="translate(0,214)" x2="300" y2="0" stroke="#ddd" stroke-width="1" opacity="1"/><line transform="translate(0,171)" x2="300" y2="0" stroke="#ddd" stroke-width="1" opacity="1"/><line transform="translate(0,129)" x2="300" y2="0" stroke="#ddd" stroke-width="1" opacity="1"/><line transform="translate(0,86)" x2="300" y2="0" stroke="#ddd" stroke-width="1" opacity="1"/><line transform="translate(0,43)" x2="300" y2="0" stroke="#ddd" stroke-width="1" opacity="1"/><line transform="translate(0,0)" x2="300" y2="0" stroke="#ddd" stroke-width="1" opacity="1"/></g></g><path class="foreground" aria-hidden="true" d="" pointer-events="none" display="none"/></g></g><g class="mark-group role-axis" role="graphics-symbol" aria-roledescription="axis" aria-label="X-axis titled 'Debate Date' for a time scale with values from January 12 to December 17"><g transform="translate(0.5,300.5)"><path class="background" aria-hidden="true" d="M0,0h0v0h0Z" pointer-events="none"/><g><g class="mark-rule role-axis-tick" pointer-events="none"><line transform="translate(18,0)" x2="0" y2="5" stroke="#888" stroke-width="1" opacity="1"/><line transform="translate(43,0)" x2="0" y2="5" stroke="#888" stroke-width="1" opacity="1"/><line transform="translate(71,0)" x2="0" y2="5" stroke="#888" stroke-width="1" opacity="1"/><line transform="translate(97,0)" x2="0" y2="5" stroke="#888" stroke-width="1" opacity="1"/><line transform="translate(124,0)" x2="0" y2="5" stroke="#888" stroke-width="1" opacity="1"/><line transform="translate(151,0)" x2="0" y2="5" stroke="#888" stroke-width="1" opacity="1"/><line transform="translate(178,0)" x2="0" y2="5" stroke="#888" stroke-width="1" opacity="1"/><line transform="translate(206,0)" x2="0" y2="5" stroke="#888" stroke-width="1" opacity="1"/><line transform="translate(232,0)" x2="0" y2="5" stroke="#888" stroke-width="1" opacity="1"/><line transform="translate(259,0)" x2="0" y2="5" stroke="#888" stroke-width="1" opacity="1"/><line transform="translate(286,0)" x2="0" y2="5" stroke="#888" stroke-width="1" opacity="1"/></g><g class="mark-text role-axis-label" pointer-events="none"><text text-anchor="middle" transform="translate(17.647058823529413,15)" font-family="sans-serif" font-size="10px" fill="#000" opacity="1">Feb 01</text><text text-anchor="middle" transform="translate(43.23529411764706,15)" font-family="sans-serif" font-size="10px" fill="#000" opacity="0">Mar 01</text><text text-anchor="middle" transform="translate(70.58823529411765,15)" font-family="sans-serif" font-size="10px" fill="#000" opacity="1">Apr 01</text><text text-anchor="middle" transform="translate(97.05882352941177,15)" font-family="sans-serif" font-size="10px" fill="#000" opacity="0">May 01</text><text text-anchor="middle" transform="translate(124.41176470588236,15)" font-family="sans-serif" font-size="10px" fill="#000" opacity="1">Jun 01</text><text text-anchor="middle" transform="translate(150.88235294117646,15)" font-family="sans-serif" font-size="10px" fill="#000" opacity="0">Jul 01</text><text text-anchor="middle" transform="translate(178.23529411764707,15)" font-family="sans-serif" font-size="10px" fill="#000" opacity="1">Aug 01</text><text text-anchor="middle" transform="translate(205.58823529411765,15)" font-family="sans-serif" font-size="10px" fill="#000" opacity="0">Sep 01</text><text text-anchor="middle" transform="translate(232.05882352941177,15)" font-family="sans-serif" font-size="10px" fill="#000" opacity="1">Oct 01</text><text text-anchor="middle" transform="translate(259.4117647058824,15)" font-family="sans-serif" font-size="10px" fill="#000" opacity="0">Nov 01</text><text text-anchor="middle" transform="translate(285.88235294117646,15)" font-family="sans-serif" font-size="10px" fill="#000" opacity="1">Dec 01</text></g><g class="mark-rule role-axis-domain" pointer-events="none"><line transform="translate(0,0)" x2="300" y2="0" stroke="#888" stroke-width="1" opacity="1"/></g><g class="mark-text role-axis-title" pointer-events="none"><text text-anchor="middle" transform="translate(150,30)" font-family="sans-serif" font-size="11px" font-weight="bold" fill="#000" opacity="1">Debate Date</text></g></g><path class="foreground" aria-hidden="true" d="" pointer-events="none" display="none"/></g></g><g class="mark-group role-axis" role="graphics-symbol" aria-roledescription="axis" aria-label="Y-axis titled 'Number of Audience Members' for a linear scale with values from 0 to 350"><g transform="translate(0.5,0.5)"><path class="background" aria-hidden="true" d="M0,0h0v0h0Z" pointer-events="none"/><g><g class="mark-rule role-axis-tick" pointer-events="none"><line transform="translate(0,300)" x2="-5" y2="0" stroke="#888" stroke-width="1" opacity="1"/><line transform="translate(0,257)" x2="-5" y2="0" stroke="#888" stroke-width="1" opacity="1"/><line transform="translate(0,214)" x2="-5" y2="0" stroke="#888" stroke-width="1" opacity="1"/><line transform="translate(0,171)" x2="-5" y2="0" stroke="#888" stroke-width="1" opacity="1"/><line transform="translate(0,129)" x2="-5" y2="0" stroke="#888" stroke-width="1" opacity="1"/><line transform="translate(0,86)" x2="-5" y2="0" stroke="#888" stroke-width="1" opacity="1"/><line transform="translate(0,43)" x2="-5" y2="0" stroke="#888" stroke-width="1" opacity="1"/><line transform="translate(0,0)" x2="-5" y2="0" stroke="#888" stroke-width="1" opacity="1"/></g><g class="mark-text role-axis-label" pointer-events="none"><text text-anchor="end" transform="translate(-7,303)" font-family="sans-serif" font-size="10px" fill="#000" opacity="1">0</text><text text-anchor="end" transform="translate(-7,260.14285714285717)" font-family="sans-serif" font-size="10px" fill="#000" opacity="1">50</text><text text-anchor="end" transform="translate(-7,217.28571428571428)" font-family="sans-serif" font-size="10px" fill="#000" opacity="1">100</text><text text-anchor="end" transform="translate(-7,174.42857142857142)" font-family="sans-serif" font-size="10px" fill="#000" opacity="1">150</text><text text-anchor="end" transform="translate(-7,131.57142857142858)" font-family="sans-serif" font-size="10px" fill="#000" opacity="1">200</text><text text-anchor="end" transform="translate(-7,88.71428571428571)" font-family="sans-serif" font-size="10px" fill="#000" opacity="1">250</text><text text-anchor="end" transform="translate(-7,45.85714285714287)" font-family="sans-serif" font-size="10px" fill="#000" opacity="1">300</text><text text-anchor="end" transform="translate(-7,3)" font-family="sans-serif" font-size="10px" fill="#000" opacity="1">350</text></g><g class="mark-rule role-axis-domain" pointer-events="none"><line transform="translate(0,300)" x2="0" y2="-300" stroke="#888" stroke-width="1" opacity="1"/></g><g class="mark-text role-axis-title" pointer-events="none"><text text-anchor="middle" transform="translate(-27.6845703125,150) rotate(-90) translate(0,-2)" font-family="sans-serif" font-size="11px" font-weight="bold" fill="#000" opacity="1">Number of Audience Members</text></g></g><path class="foreground" aria-hidden="true" d="" pointer-events="none" display="none"/></g></g><g class="mark-symbol role-mark marks" role="graphics-object" aria-roledescription="symbol mark container"><path aria-label="Date (month-date): Oct 21; Num_of_Audience: 342" role="graphics-symbol" aria-roledescription="circle" transform="translate(249.7058823529412,6.857142857142873)" d="M15.811,0A15.811,15.811,0,1,1,-15.811,0A15.811,15.811,0,1,1,15.811,0" fill="#4c78a8" stroke-width="2" opacity="0.7"/><path aria-label="Date (month-date): Dec 17; Num_of_Audience: 134" role="graphics-symbol" aria-roledescription="circle" transform="translate(300,185.14285714285717)" d="M10.638,0A10.638,10.638,0,1,1,-10.638,0A10.638,10.638,0,1,1,10.638,0" fill="#4c78a8" stroke-width="2" opacity="0.7"/><path aria-label="Date (month-date): Aug 03; Num_of_Audience: 90" role="graphics-symbol" aria-roledescription="circle" transform="translate(180,222.85714285714286)" d="M9.177,0A9.177,9.177,0,1,1,-9.177,0A9.177,9.177,0,1,1,9.177,0" fill="#4c78a8" stroke-width="2" opacity="0.7"/><path aria-label="Date (month-date): Oct 27; Num_of_Audience: 209" role="graphics-symbol" aria-roledescription="circle" transform="translate(255,120.85714285714285)" d="M12.748,0A12.748,12.748,0,1,1,-12.748,0A12.748,12.748,0,1,1,12.748,0" fill="#4c78a8" stroke-width="2" opacity="0.7"/><path aria-label="Date (month-date): Jan 12; Num_of_Audience: 313" role="graphics-symbol" aria-roledescription="circle" transform="translate(0,31.71428571428573)" d="M15.196,0A15.196,15.196,0,1,1,-15.196,0A15.196,15.196,0,1,1,15.196,0" fill="#4c78a8" stroke-width="2" opacity="0.7"/><path aria-label="Date (month-date): Jan 21; Num_of_Audience: 159" role="graphics-symbol" aria-roledescription="circle" transform="translate(7.9411764705882355,163.71428571428572)" d="M11.384,0A11.384,11.384,0,1,1,-11.384,0A11.384,11.384,0,1,1,11.384,0" fill="#4c78a8" stroke-width="2" opacity="0.7"/></g><g class="mark-group role-legend" role="graphics-symbol" aria-roledescription="legend" aria-label="Symbol legend titled 'Num_of_Audience' for size with values from 0 to 342"><g transform="translate(318,0)"><path class="background" aria-hidden="true" d="M0,0h97v204h-97Z" pointer-events="none"/><g><g class="mark-group role-legend-entry"><g transform="translate(0,16)"><path class="background" aria-hidden="true" d="M0,0h0v0h0Z" pointer-events="none"/><g><g class="mark-group role-scope" role="graphics-object" aria-roledescription="group mark container"><g transform="translate(0,0)"><path class="background" aria-hidden="true" d="M0,0h52.6845703125v12.5h-52.6845703125Z" pointer-events="none" opacity="1"/><g><g class="mark-symbol role-legend-symbol" pointer-events="none"><path transform="translate(16,6)" d="M5,0A5,5,0,1,1,-5,0A5,5,0,1,1,5,0" fill="#4c78a8" stroke-width="1.5" opacity="0.7"/></g><g class="mark-text role-legend-label" pointer-events="none"><text text-anchor="start" transform="translate(36,9)" font-family="sans-serif" font-size="10px" fill="#000" opacity="1">0</text></g></g><path class="foreground" aria-hidden="true" d="" pointer-events="none" display="none"/></g><g transform="translate(0,16)"><path class="background" aria-hidden="true" d="M0,0h52.6845703125v17.60885910252682h-52.6845703125Z" pointer-events="none" opacity="1"/><g><g class="mark-symbol role-legend-symbol" pointer-events="none"><path transform="translate(16,8.5)" d="M7.609,0A7.609,7.609,0,1,1,-7.609,0A7.609,7.609,0,1,1,7.609,0" fill="#4c78a8" stroke-width="1.5" opacity="0.7"/></g><g class="mark-text role-legend-label" pointer-events="none"><text text-anchor="start" transform="translate(36,11.5)" font-family="sans-serif" font-size="10px" fill="#000" opacity="1">50</text></g></g><path class="foreground" aria-hidden="true" d="" pointer-events="none" display="none"/></g><g transform="translate(0,37)"><path class="background" aria-hidden="true" d="M0,0h52.6845703125v21.528351047490354h-52.6845703125Z" pointer-events="none" opacity="1"/><g><g class="mark-symbol role-legend-symbol" pointer-events="none"><path transform="translate(16,10.5)" d="M9.528,0A9.528,9.528,0,1,1,-9.528,0A9.528,9.528,0,1,1,9.528,0" fill="#4c78a8" stroke-width="1.5" opacity="0.7"/></g><g class="mark-text role-legend-label" pointer-events="none"><text text-anchor="start" transform="translate(36,13.5)" font-family="sans-serif" font-size="10px" fill="#000" opacity="1">100</text></g></g><path class="foreground" aria-hidden="true" d="" pointer-events="none" display="none"/></g><g transform="translate(0,62)"><path class="background" aria-hidden="true" d="M0,0h52.6845703125v24.62134032058708h-52.6845703125Z" pointer-events="none" opacity="1"/><g><g class="mark-symbol role-legend-symbol" pointer-events="none"><path transform="translate(16,12)" d="M11.121,0A11.121,11.121,0,1,1,-11.121,0A11.121,11.121,0,1,1,11.121,0" fill="#4c78a8" stroke-width="1.5" opacity="0.7"/></g><g class="mark-text role-legend-label" pointer-events="none"><text text-anchor="start" transform="translate(36,15)" font-family="sans-serif" font-size="10px" fill="#000" opacity="1">150</text></g></g><path class="foreground" aria-hidden="true" d="" pointer-events="none" display="none"/></g><g transform="translate(0,90)"><path class="background" aria-hidden="true" d="M0,0h52.6845703125v27.5131509768092h-52.6845703125Z" pointer-events="none" opacity="1"/><g><g class="mark-symbol role-legend-symbol" pointer-events="none"><path transform="translate(16,13.5)" d="M12.513,0A12.513,12.513,0,1,1,-12.513,0A12.513,12.513,0,1,1,12.513,0" fill="#4c78a8" stroke-width="1.5" opacity="0.7"/></g><g class="mark-text role-legend-label" pointer-events="none"><text text-anchor="start" transform="translate(36,16.5)" font-family="sans-serif" font-size="10px" fill="#000" opacity="1">200</text></g></g><path class="foreground" aria-hidden="true" d="" pointer-events="none" display="none"/></g><g transform="translate(0,121)"><path class="background" aria-hidden="true" d="M0,0h52.6845703125v30.2649440322337h-52.6845703125Z" pointer-events="none" opacity="1"/><g><g class="mark-symbol role-legend-symbol" pointer-events="none"><path transform="translate(16,15)" d="M13.765,0A13.765,13.765,0,1,1,-13.765,0A13.765,13.765,0,1,1,13.765,0" fill="#4c78a8" stroke-width="1.5" opacity="0.7"/></g><g class="mark-text role-legend-label" pointer-events="none"><text text-anchor="start" transform="translate(36,18)" font-family="sans-serif" font-size="10px" fill="#000" opacity="1">250</text></g></g><path class="foreground" aria-hidden="true" d="" pointer-events="none" display="none"/></g><g transform="translate(0,155)"><path class="background" aria-hidden="true" d="M0,0h52.6845703125v32.41202270158652h-52.6845703125Z" pointer-events="none" opacity="1"/><g><g class="mark-symbol role-legend-symbol" pointer-events="none"><path transform="translate(16,16)" d="M14.912,0A14.912,14.912,0,1,1,-14.912,0A14.912,14.912,0,1,1,14.912,0" fill="#4c78a8" stroke-width="1.5" opacity="0.7"/></g><g class="mark-text role-legend-label" pointer-events="none"><text text-anchor="start" transform="translate(36,19)" font-family="sans-serif" font-size="10px" fill="#000" opacity="1">300</text></g></g><path class="foreground" aria-hidden="true" d="" pointer-events="none" display="none"/></g></g></g><path class="foreground" aria-hidden="true" d="" pointer-events="none" display="none"/></g></g><g class="mark-text role-legend-title" pointer-events="none"><text text-anchor="start" transform="translate(0,9)" font-family="sans-serif" font-size="11px" font-weight="bold" fill="#000" opacity="1">Num_of_Audience</text></g></g><path class="foreground" aria-hidden="true" d="" pointer-events="none" display="none"/></g></g></g><path class="foreground" aria-hidden="true" d="" display="none"/></g></g></g></svg>