<svg xmlns="http://www.w3.org/2000/svg" xmlns:xlink="http://www.w3.org/1999/xlink" version="1.1" class="marks" width="343" height="255" viewBox="0 0 343 255"><rect width="343" height="255" fill="white"/><g fill="none" stroke-miterlimit="10" transform="translate(102,5)"><g class="mark-group role-frame root" role="graphics-object" aria-roledescription="group mark container"><g transform="translate(0,0)"><path class="background" aria-hidden="true" d="M0.5,0.5h120v120h-120Z" stroke="#ddd"/><g><g class="mark-group role-axis" role="graphics-symbol" aria-roledescription="axis" aria-label="X-axis titled 'Device' for a discrete scale with 6 values: Apple, BlackBerry Storm 9530, Galaxy, Huawei, Samsung, Xiaomi"><g transform="translate(0.5,120.5)"><path class="background" aria-hidden="true" d="M0,0h0v0h0Z" pointer-events="none"/><g><g class="mark-rule role-axis-tick" pointer-events="none"><line transform="translate(10,0)" x2="0" y2="5" stroke="#888" stroke-width="1" opacity="1"/><line transform="translate(30,0)" x2="0" y2="5" stroke="#888" stroke-width="1" opacity="1"/><line transform="translate(50,0)" x2="0" y2="5" stroke="#888" stroke-width="1" opacity="1"/><line transform="translate(70,0)" x2="0" y2="5" stroke="#888" stroke-width="1" opacity="1"/><line transform="translate(90,0)" x2="0" y2="5" stroke="#888" stroke-width="1" opacity="1"/><line transform="translate(110,0)" x2="0" y2="5" stroke="#888" stroke-width="1" opacity="1"/></g><g class="mark-text role-axis-label" pointer-events="none"><text text-anchor="end" transform="translate(10,7) rotate(270) translate(0,3)" font-family="sans-serif" font-size="10px" fill="#000" opacity="1">Apple</text><text text-anchor="end" transform="translate(30,7) rotate(270) translate(0,3)" font-family="sans-serif" font-size="10px" fill="#000" opacity="1">BlackBerry Storm 9530</text><text text-anchor="end" transform="translate(50,7) rotate(270) translate(0,3)" font-family="sans-serif" font-size="10px" fill="#000" opacity="1">Galaxy</text><text text-anchor="end" transform="translate(70,7) rotate(270) translate(0,3)" font-family="sans-serif" font-size="10px" fill="#000" opacity="1">Huawei</text><text text-anchor="end" transform="translate(90,7) rotate(270) translate(0,3)" font-family="sans-serif" font-size="10px" fill="#000" opacity="1">Samsung</text><text text-anchor="end" transform="translate(110,7) rotate(270) translate(0,3)" font-family="sans-serif" font-size="10px" fill="#000" opacity="1">Xiaomi</text></g><g class="mark-rule role-axis-domain" pointer-events="none"><line transform="translate(0,0)" x2="120" y2="0" stroke="#888" stroke-width="1" opacity="1"/></g><g class="mark-text role-axis-title" pointer-events="none"><text text-anchor="middle" transform="translate(60,122.8173828125)" font-family="sans-serif" font-size="11px" font-weight="bold" fill="#000" opacity="1">Device</text></g></g><path class="foreground" aria-hidden="true" d="" pointer-events="none" display="none"/></g></g><g class="mark-group role-axis" role="graphics-symbol" aria-roledescription="axis" aria-label="Y-axis titled 'Carrier' for a discrete scale with 6 values: Bell Mobility, Iusacell, MTS Mobility, Telus Mobility, Verizon Wireless, Vodafone AU"><g transform="translate(0.5,0.5)"><path class="background" aria-hidden="true" d="M0,0h0v0h0Z" pointer-events="none"/><g><g class="mark-rule role-axis-tick" pointer-events="none"><line transform="translate(0,10)" x2="-5" y2="0" stroke="#888" stroke-width="1" opacity="1"/><line transform="translate(0,30)" x2="-5" y2="0" stroke="#888" stroke-width="1" opacity="1"/><line transform="translate(0,50)" x2="-5" y2="0" stroke="#888" stroke-width="1" opacity="1"/><line transform="translate(0,70)" x2="-5" y2="0" stroke="#888" stroke-width="1" opacity="1"/><line transform="translate(0,90)" x2="-5" y2="0" stroke="#888" stroke-width="1" opacity="1"/><line transform="translate(0,110)" x2="-5" y2="0" stroke="#888" stroke-width="1" opacity="1"/></g><g class="mark-text role-axis-label" pointer-events="none"><text text-anchor="end" transform="translate(-7,13)" font-family="sans-serif" font-size="10px" fill="#000" opacity="1">Bell Mobility</text><text text-anchor="end" transform="translate(-7,33)" font-family="sans-serif" font-size="10px" fill="#000" opacity="1">Iusacell</text><text text-anchor="end" transform="translate(-7,53)" font-family="sans-serif" font-size="10px" fill="#000" opacity="1">MTS Mobility</text><text text-anchor="end" transform="translate(-7,73)" font-family="sans-serif" font-size="10px" fill="#000" opacity="1">Telus Mobility</text><text text-anchor="end" transform="translate(-7,93)" font-family="sans-serif" font-size="10px" fill="#000" opacity="1">Verizon Wireless</text><text text-anchor="end" transform="translate(-7,113)" font-family="sans-serif" font-size="10px" fill="#000" opacity="1">Vodafone AU</text></g><g class="mark-rule role-axis-domain" pointer-events="none"><line transform="translate(0,0)" x2="0" y2="120" stroke="#888" stroke-width="1" opacity="1"/></g><g class="mark-text role-axis-title" pointer-events="none"><text text-anchor="middle" transform="translate(-85.4677734375,60) rotate(-90) translate(0,-2)" font-family="sans-serif" font-size="11px" font-weight="bold" fill="#000" opacity="1">Carrier</text></g></g><path class="foreground" aria-hidden="true" d="" pointer-events="none" display="none"/></g></g><g class="mark-symbol role-mark marks" role="graphics-object" aria-roledescription="symbol mark container"><path aria-label="Device: BlackBerry Storm 9530; Carrier: MTS Mobility; Software_Platform: Android; Applications: 5.0.0.419" role="graphics-symbol" aria-roledescription="circle" transform="translate(30,50)" d="M7.805,0A7.805,7.805,0,1,1,-7.805,0A7.805,7.805,0,1,1,7.805,0" fill="#4c78a8" stroke-width="2" opacity="0.7"/><path aria-label="Device: Apple; Carrier: Verizon Wireless; Software_Platform: iOS; Applications: 5.0.0.328" role="graphics-symbol" aria-roledescription="circle" transform="translate(10,90)" d="M5.62,0A5.62,5.62,0,1,1,-5.62,0A5.62,5.62,0,1,1,5.62,0" fill="#f58518" stroke-width="2" opacity="0.7"/><path aria-label="Device: Huawei; Carrier: Telus Mobility; Software_Platform: Android; Applications: 5.0.0.419" role="graphics-symbol" aria-roledescription="circle" transform="translate(70,70)" d="M7.805,0A7.805,7.805,0,1,1,-7.805,0A7.805,7.805,0,1,1,7.805,0" fill="#4c78a8" stroke-width="2" opacity="0.7"/><path aria-label="Device: Xiaomi; Carrier: Bell Mobility; Software_Platform: Android; Applications: 5.0.0.419" role="graphics-symbol" aria-roledescription="circle" transform="translate(110,10)" d="M7.805,0A7.805,7.805,0,1,1,-7.805,0A7.805,7.805,0,1,1,7.805,0" fill="#4c78a8" stroke-width="2" opacity="0.7"/><path aria-label="Device: Samsung; Carrier: Iusacell; Software_Platform: Android; Applications: 4.7.0.151" role="graphics-symbol" aria-roledescription="circle" transform="translate(90,30)" d="M1.5,0A1.5,1.5,0,1,1,-1.5,0A1.5,1.5,0,1,1,1.5,0" fill="#4c78a8" stroke-width="2" opacity="0.7"/><path aria-label="Device: Galaxy; Carrier: Vodafone AU; Software_Platform: Android; Applications: 5.0.0.451" role="graphics-symbol" aria-roledescription="circle" transform="translate(50,110)" d="M9.5,0A9.5,9.5,0,1,1,-9.5,0A9.5,9.5,0,1,1,9.5,0" fill="#4c78a8" stroke-width="2" opacity="0.7"/></g><g class="mark-group role-legend" role="graphics-symbol" aria-roledescription="legend" aria-label="Symbol legend titled 'Software_Platform' for fill color with 2 values: Android, iOS"><g transform="translate(138,0)"><path class="background" aria-hidden="true" d="M0,0h98v40h-98Z" pointer-events="none"/><g><g class="mark-group role-legend-entry"><g transform="translate(0,16)"><path class="background" aria-hidden="true" d="M0,0h0v0h0Z" pointer-events="none"/><g><g class="mark-group role-scope" role="graphics-object" aria-roledescription="group mark container"><g transform="translate(0,0)"><path class="background" aria-hidden="true" d="M0,0h50.4677734375v11h-50.4677734375Z" pointer-events="none" opacity="1"/><g><g class="mark-symbol role-legend-symbol" pointer-events="none"><path transform="translate(6,6)" d="M5,0A5,5,0,1,1,-5,0A5,5,0,1,1,5,0" fill="#4c78a8" stroke-width="1.5" opacity="0.7"/></g><g class="mark-text role-legend-label" pointer-events="none"><text text-anchor="start" transform="translate(16,9)" font-family="sans-serif" font-size="10px" fill="#000" opacity="1">Android</text></g></g><path class="foreground" aria-hidden="true" d="" pointer-events="none" display="none"/></g><g transform="translate(0,13)"><path class="background" aria-hidden="true" d="M0,0h50.4677734375v11h-50.4677734375Z" pointer-events="none" opacity="1"/><g><g class="mark-symbol role-legend-symbol" pointer-events="none"><path transform="translate(6,6)" d="M5,0A5,5,0,1,1,-5,0A5,5,0,1,1,5,0" fill="#f58518" stroke-width="1.5" opacity="0.7"/></g><g class="mark-text role-legend-label" pointer-events="none"><text text-anchor="start" transform="translate(16,9)" font-family="sans-serif" font-size="10px" fill="#000" opacity="1">iOS</text></g></g><path class="foreground" aria-hidden="true" d="" pointer-events="none" display="none"/></g></g></g><path class="foreground" aria-hidden="true" d="" pointer-events="none" display="none"/></g></g><g class="mark-text role-legend-title" pointer-events="none"><text text-anchor="start" transform="translate(0,9)" font-family="sans-serif" font-size="11px" font-weight="bold" fill="#000" opacity="1">Software_Platform</text></g></g><path class="foreground" aria-hidden="true" d="" pointer-events="none" display="none"/></g></g><g class="mark-group role-legend" role="graphics-symbol" aria-roledescription="legend" aria-label="Symbol legend titled 'Applications' for size with 4 values: 4.7.0.151, 5.0.0.328, 5.0.0.419, 5.0.0.451"><g transform="translate(138,48)"><path class="background" aria-hidden="true" d="M0,0h67v90h-67Z" pointer-events="none"/><g><g class="mark-group role-legend-entry"><g transform="translate(0,16)"><path class="background" aria-hidden="true" d="M0,0h0v0h0Z" pointer-events="none"/><g><g class="mark-group role-scope" role="graphics-object" aria-roledescription="group mark container"><g transform="translate(0,0)"><path class="background" aria-hidden="true" d="M0,0h66.7041015625v10h-66.7041015625Z" pointer-events="none" opacity="1"/><g><g class="mark-symbol role-legend-symbol" pointer-events="none"><path transform="translate(10.5,5)" d="M1.5,0A1.5,1.5,0,1,1,-1.5,0A1.5,1.5,0,1,1,1.5,0" fill="black" fill-opacity="0.7" stroke-width="1.5" opacity="0.7"/></g><g class="mark-text role-legend-label" pointer-events="none"><text text-anchor="start" transform="translate(25,8)" font-family="sans-serif" font-size="10px" fill="#000" opacity="1">4.7.0.151</text></g></g><path class="foreground" aria-hidden="true" d="" pointer-events="none" display="none"/></g><g transform="translate(0,13)"><path class="background" aria-hidden="true" d="M0,0h66.7041015625v13.619905100029122h-66.7041015625Z" pointer-events="none" opacity="1"/><g><g class="mark-symbol role-legend-symbol" pointer-events="none"><path transform="translate(10.5,6.5)" d="M5.62,0A5.62,5.62,0,1,1,-5.62,0A5.62,5.62,0,1,1,5.62,0" fill="black" fill-opacity="0.7" stroke-width="1.5" opacity="0.7"/></g><g class="mark-text role-legend-label" pointer-events="none"><text text-anchor="start" transform="translate(25,9.5)" font-family="sans-serif" font-size="10px" fill="#000" opacity="1">5.0.0.328</text></g></g><path class="foreground" aria-hidden="true" d="" pointer-events="none" display="none"/></g><g transform="translate(0,30)"><path class="background" aria-hidden="true" d="M0,0h66.7041015625v18.304912982645398h-66.7041015625Z" pointer-events="none" opacity="1"/><g><g class="mark-symbol role-legend-symbol" pointer-events="none"><path transform="translate(10.5,9)" d="M7.805,0A7.805,7.805,0,1,1,-7.805,0A7.805,7.805,0,1,1,7.805,0" fill="black" fill-opacity="0.7" stroke-width="1.5" opacity="0.7"/></g><g class="mark-text role-legend-label" pointer-events="none"><text text-anchor="start" transform="translate(25,12)" font-family="sans-serif" font-size="10px" fill="#000" opacity="1">5.0.0.419</text></g></g><path class="foreground" aria-hidden="true" d="" pointer-events="none" display="none"/></g><g transform="translate(0,52)"><path class="background" aria-hidden="true" d="M0,0h66.7041015625v21.5h-66.7041015625Z" pointer-events="none" opacity="1"/><g><g class="mark-symbol role-legend-symbol" pointer-events="none"><path transform="translate(10.5,10.5)" d="M9.5,0A9.5,9.5,0,1,1,-9.5,0A9.5,9.5,0,1,1,9.5,0" fill="black" fill-opacity="0.7" stroke-width="1.5" opacity="0.7"/></g><g class="mark-text role-legend-label" pointer-events="none"><text text-anchor="start" transform="translate(25,13.5)" font-family="sans-serif" font-size="10px" fill="#000" opacity="1">5.0.0.451</text></g></g><path class="foreground" aria-hidden="true" d="" pointer-events="none" display="none"/></g></g></g><path class="foreground" aria-hidden="true" d="" pointer-events="none" display="none"/></g></g><g class="mark-text role-legend-title" pointer-events="none"><text text-anchor="start" transform="translate(0,9)" font-family="sans-serif" font-size="11px" font-weight="bold" fill="#000" opacity="1">Applications</text></g></g><path class="foreground" aria-hidden="true" d="" pointer-events="none" display="none"/></g></g></g><path class="foreground" aria-hidden="true" d="" display="none"/></g></g></g></svg>