<svg xmlns="http://www.w3.org/2000/svg" xmlns:xlink="http://www.w3.org/1999/xlink" version="1.1" class="marks" width="528" height="146" viewBox="0 0 528 146"><rect width="528" height="146" fill="white"/><g fill="none" stroke-miterlimit="10" transform="translate(91,22)"><g class="mark-group role-frame root" role="graphics-object" aria-roledescription="group mark container"><g transform="translate(0,0)"><path class="background" aria-hidden="true" d="M0.5,0.5h300v80h-300Z" stroke="#ddd"/><g><g class="mark-group role-axis" role="graphics-symbol" aria-roledescription="axis" aria-label="X-axis titled 'document_code' for a discrete scale with 15 values: 217, 349, 465, 510, 566, ending with 989"><g transform="translate(0.5,80.5)"><path class="background" aria-hidden="true" d="M0,0h0v0h0Z" pointer-events="none"/><g><g class="mark-rule role-axis-tick" pointer-events="none"><line transform="translate(10,0)" x2="0" y2="5" stroke="#888" stroke-width="1" opacity="1"/><line transform="translate(30,0)" x2="0" y2="5" stroke="#888" stroke-width="1" opacity="1"/><line transform="translate(50,0)" x2="0" y2="5" stroke="#888" stroke-width="1" opacity="1"/><line transform="translate(70,0)" x2="0" y2="5" stroke="#888" stroke-width="1" opacity="1"/><line transform="translate(90,0)" x2="0" y2="5" stroke="#888" stroke-width="1" opacity="1"/><line transform="translate(110,0)" x2="0" y2="5" stroke="#888" stroke-width="1" opacity="1"/><line transform="translate(130,0)" x2="0" y2="5" stroke="#888" stroke-width="1" opacity="1"/><line transform="translate(150,0)" x2="0" y2="5" stroke="#888" stroke-width="1" opacity="1"/><line transform="translate(170,0)" x2="0" y2="5" stroke="#888" stroke-width="1" opacity="1"/><line transform="translate(190,0)" x2="0" y2="5" stroke="#888" stroke-width="1" opacity="1"/><line transform="translate(210,0)" x2="0" y2="5" stroke="#888" stroke-width="1" opacity="1"/><line transform="translate(230,0)" x2="0" y2="5" stroke="#888" stroke-width="1" opacity="1"/><line transform="translate(250,0)" x2="0" y2="5" stroke="#888" stroke-width="1" opacity="1"/><line transform="translate(270,0)" x2="0" y2="5" stroke="#888" stroke-width="1" opacity="1"/><line transform="translate(290,0)" x2="0" y2="5" stroke="#888" stroke-width="1" opacity="1"/></g><g class="mark-text role-axis-label" pointer-events="none"><text text-anchor="end" transform="translate(10,7) rotate(270) translate(0,3)" font-family="sans-serif" font-size="10px" fill="#000" opacity="1">217</text><text text-anchor="end" transform="translate(30,7) rotate(270) translate(0,3)" font-family="sans-serif" font-size="10px" fill="#000" opacity="1">349</text><text text-anchor="end" transform="translate(50,7) rotate(270) translate(0,3)" font-family="sans-serif" font-size="10px" fill="#000" opacity="1">465</text><text text-anchor="end" transform="translate(70,7) rotate(270) translate(0,3)" font-family="sans-serif" font-size="10px" fill="#000" opacity="1">510</text><text text-anchor="end" transform="translate(90,7) rotate(270) translate(0,3)" font-family="sans-serif" font-size="10px" fill="#000" opacity="1">566</text><text text-anchor="end" transform="translate(110,7) rotate(270) translate(0,3)" font-family="sans-serif" font-size="10px" fill="#000" opacity="1">621</text><text text-anchor="end" transform="translate(130,7) rotate(270) translate(0,3)" font-family="sans-serif" font-size="10px" fill="#000" opacity="1">675</text><text text-anchor="end" transform="translate(150,7) rotate(270) translate(0,3)" font-family="sans-serif" font-size="10px" fill="#000" opacity="1">706</text><text text-anchor="end" transform="translate(170,7) rotate(270) translate(0,3)" font-family="sans-serif" font-size="10px" fill="#000" opacity="1">713</text><text text-anchor="end" transform="translate(190,7) rotate(270) translate(0,3)" font-family="sans-serif" font-size="10px" fill="#000" opacity="1">714</text><text text-anchor="end" transform="translate(210,7) rotate(270) translate(0,3)" font-family="sans-serif" font-size="10px" fill="#000" opacity="1">928</text><text text-anchor="end" transform="translate(230,7) rotate(270) translate(0,3)" font-family="sans-serif" font-size="10px" fill="#000" opacity="1">930</text><text text-anchor="end" transform="translate(250,7) rotate(270) translate(0,3)" font-family="sans-serif" font-size="10px" fill="#000" opacity="1">958</text><text text-anchor="end" transform="translate(270,7) rotate(270) translate(0,3)" font-family="sans-serif" font-size="10px" fill="#000" opacity="1">961</text><text text-anchor="end" transform="translate(290,7) rotate(270) translate(0,3)" font-family="sans-serif" font-size="10px" fill="#000" opacity="1">989</text></g><g class="mark-rule role-axis-domain" pointer-events="none"><line transform="translate(0,0)" x2="300" y2="0" stroke="#888" stroke-width="1" opacity="1"/></g><g class="mark-text role-axis-title" pointer-events="none"><text text-anchor="middle" transform="translate(150,36.6845703125)" font-family="sans-serif" font-size="11px" font-weight="bold" fill="#000" opacity="1">document_code</text></g></g><path class="foreground" aria-hidden="true" d="" pointer-events="none" display="none"/></g></g><g class="mark-group role-axis" role="graphics-symbol" aria-roledescription="axis" aria-label="Y-axis titled 'document_type_code' for a discrete scale with 4 values: Advertisement, Book, CV, Paper"><g transform="translate(0.5,0.5)"><path class="background" aria-hidden="true" d="M0,0h0v0h0Z" pointer-events="none"/><g><g class="mark-rule role-axis-tick" pointer-events="none"><line transform="translate(0,10)" x2="-5" y2="0" stroke="#888" stroke-width="1" opacity="1"/><line transform="translate(0,30)" x2="-5" y2="0" stroke="#888" stroke-width="1" opacity="1"/><line transform="translate(0,50)" x2="-5" y2="0" stroke="#888" stroke-width="1" opacity="1"/><line transform="translate(0,70)" x2="-5" y2="0" stroke="#888" stroke-width="1" opacity="1"/></g><g class="mark-text role-axis-label" pointer-events="none"><text text-anchor="end" transform="translate(-7,13)" font-family="sans-serif" font-size="10px" fill="#000" opacity="1">Advertisement</text><text text-anchor="end" transform="translate(-7,33)" font-family="sans-serif" font-size="10px" fill="#000" opacity="1">Book</text><text text-anchor="end" transform="translate(-7,53)" font-family="sans-serif" font-size="10px" fill="#000" opacity="1">CV</text><text text-anchor="end" transform="translate(-7,73)" font-family="sans-serif" font-size="10px" fill="#000" opacity="1">Paper</text></g><g class="mark-rule role-axis-domain" pointer-events="none"><line transform="translate(0,0)" x2="0" y2="80" stroke="#888" stroke-width="1" opacity="1"/></g><g class="mark-text role-axis-title" pointer-events="none"><text text-anchor="middle" transform="translate(-74.916015625,40) rotate(-90) translate(0,-2)" font-family="sans-serif" font-size="11px" font-weight="bold" fill="#000" opacity="1">document_type_code</text></g></g><path class="foreground" aria-hidden="true" d="" pointer-events="none" display="none"/></g></g><g class="mark-symbol role-mark marks" role="graphics-object" aria-roledescription="symbol mark container"><path aria-label="document_code: 217; document_type_code: Book; Sum of access_count: 1864" role="graphics-symbol" aria-roledescription="circle" transform="translate(10,30)" d="M4.112,0A4.112,4.112,0,1,1,-4.112,0A4.112,4.112,0,1,1,4.112,0" fill="#4c78a8" stroke-width="2"/><path aria-label="document_code: 621; document_type_code: Paper; Sum of access_count: 8208" role="graphics-symbol" aria-roledescription="circle" transform="translate(110,70)" d="M8.629,0A8.629,8.629,0,1,1,-8.629,0A8.629,8.629,0,1,1,8.629,0" fill="#4c78a8" stroke-width="2"/><path aria-label="document_code: 958; document_type_code: Book; Sum of access_count: 3769" role="graphics-symbol" aria-roledescription="circle" transform="translate(250,30)" d="M5.847,0A5.847,5.847,0,1,1,-5.847,0A5.847,5.847,0,1,1,5.847,0" fill="#4c78a8" stroke-width="2"/><path aria-label="document_code: 961; document_type_code: Advertisement; Sum of access_count: 6661" role="graphics-symbol" aria-roledescription="circle" transform="translate(270,10)" d="M7.774,0A7.774,7.774,0,1,1,-7.774,0A7.774,7.774,0,1,1,7.774,0" fill="#4c78a8" stroke-width="2"/><path aria-label="document_code: 989; document_type_code: Book; Sum of access_count: 2910" role="graphics-symbol" aria-roledescription="circle" transform="translate(290,30)" d="M5.138,0A5.138,5.138,0,1,1,-5.138,0A5.138,5.138,0,1,1,5.138,0" fill="#4c78a8" stroke-width="2"/><path aria-label="document_code: 930; document_type_code: CV; Sum of access_count: 6345" role="graphics-symbol" aria-roledescription="circle" transform="translate(230,50)" d="M7.587,0A7.587,7.587,0,1,1,-7.587,0A7.587,7.587,0,1,1,7.587,0" fill="#4c78a8" stroke-width="2"/><path aria-label="document_code: 928; document_type_code: Book; Sum of access_count: 2045" role="graphics-symbol" aria-roledescription="circle" transform="translate(210,30)" d="M4.307,0A4.307,4.307,0,1,1,-4.307,0A4.307,4.307,0,1,1,4.307,0" fill="#4c78a8" stroke-width="2"/><path aria-label="document_code: 510; document_type_code: Paper; Sum of access_count: 3479" role="graphics-symbol" aria-roledescription="circle" transform="translate(70,70)" d="M5.618,0A5.618,5.618,0,1,1,-5.618,0A5.618,5.618,0,1,1,5.618,0" fill="#4c78a8" stroke-width="2"/><path aria-label="document_code: 706; document_type_code: Advertisement; Sum of access_count: 8623" role="graphics-symbol" aria-roledescription="circle" transform="translate(150,10)" d="M8.845,0A8.845,8.845,0,1,1,-8.845,0A8.845,8.845,0,1,1,8.845,0" fill="#4c78a8" stroke-width="2"/><path aria-label="document_code: 465; document_type_code: CV; Sum of access_count: 5924" role="graphics-symbol" aria-roledescription="circle" transform="translate(50,50)" d="M7.331,0A7.331,7.331,0,1,1,-7.331,0A7.331,7.331,0,1,1,7.331,0" fill="#4c78a8" stroke-width="2"/><path aria-label="document_code: 713; document_type_code: CV; Sum of access_count: 2294" role="graphics-symbol" aria-roledescription="circle" transform="translate(170,50)" d="M4.562,0A4.562,4.562,0,1,1,-4.562,0A4.562,4.562,0,1,1,4.562,0" fill="#4c78a8" stroke-width="2"/><path aria-label="document_code: 566; document_type_code: Advertisement; Sum of access_count: 3289" role="graphics-symbol" aria-roledescription="circle" transform="translate(90,10)" d="M5.462,0A5.462,5.462,0,1,1,-5.462,0A5.462,5.462,0,1,1,5.462,0" fill="#4c78a8" stroke-width="2"/><path aria-label="document_code: 349; document_type_code: Book; Sum of access_count: 1219" role="graphics-symbol" aria-roledescription="circle" transform="translate(30,30)" d="M3.326,0A3.326,3.326,0,1,1,-3.326,0A3.326,3.326,0,1,1,3.326,0" fill="#4c78a8" stroke-width="2"/><path aria-label="document_code: 675; document_type_code: Advertisement; Sum of access_count: 7509" role="graphics-symbol" aria-roledescription="circle" transform="translate(130,10)" d="M8.254,0A8.254,8.254,0,1,1,-8.254,0A8.254,8.254,0,1,1,8.254,0" fill="#4c78a8" stroke-width="2"/><path aria-label="document_code: 714; document_type_code: Paper; Sum of access_count: 9948" role="graphics-symbol" aria-roledescription="circle" transform="translate(190,70)" d="M9.5,0A9.5,9.5,0,1,1,-9.5,0A9.5,9.5,0,1,1,9.5,0" fill="#4c78a8" stroke-width="2"/></g><g class="mark-group role-legend" role="graphics-symbol" aria-roledescription="legend" aria-label="Symbol legend titled 'Sum of access_count' for size with values from 0 to 9,948"><g transform="translate(318,0)"><path class="background" aria-hidden="true" d="M0,0h114v90h-114Z" pointer-events="none"/><g><g class="mark-group role-legend-entry"><g transform="translate(0,16)"><path class="background" aria-hidden="true" d="M0,0h0v0h0Z" pointer-events="none"/><g><g class="mark-group role-scope" role="graphics-object" aria-roledescription="group mark container"><g transform="translate(0,0)"><path class="background" aria-hidden="true" d="M0,0h48.0244140625v11.259618600677864h-48.0244140625Z" pointer-events="none" opacity="1"/><g><g class="mark-symbol role-legend-symbol" pointer-events="none"><path transform="translate(9.5,5.5)" d="M4.26,0A4.26,4.26,0,1,1,-4.26,0A4.26,4.26,0,1,1,4.26,0" fill="#4c78a8" stroke-width="1.5" opacity="1"/></g><g class="mark-text role-legend-label" pointer-events="none"><text text-anchor="start" transform="translate(23,8.5)" font-family="sans-serif" font-size="10px" fill="#000" opacity="1">2,000</text></g></g><path class="foreground" aria-hidden="true" d="" pointer-events="none" display="none"/></g><g transform="translate(0,15)"><path class="background" aria-hidden="true" d="M0,0h48.0244140625v14.524010395615342h-48.0244140625Z" pointer-events="none" opacity="1"/><g><g class="mark-symbol role-legend-symbol" pointer-events="none"><path transform="translate(9.5,7)" d="M6.024,0A6.024,6.024,0,1,1,-6.024,0A6.024,6.024,0,1,1,6.024,0" fill="#4c78a8" stroke-width="1.5" opacity="1"/></g><g class="mark-text role-legend-label" pointer-events="none"><text text-anchor="start" transform="translate(23,10)" font-family="sans-serif" font-size="10px" fill="#000" opacity="1">4,000</text></g></g><path class="foreground" aria-hidden="true" d="" pointer-events="none" display="none"/></g><g transform="translate(0,33)"><path class="background" aria-hidden="true" d="M0,0h48.0244140625v17.377875837239507h-48.0244140625Z" pointer-events="none" opacity="1"/><g><g class="mark-symbol role-legend-symbol" pointer-events="none"><path transform="translate(9.5,8.5)" d="M7.378,0A7.378,7.378,0,1,1,-7.378,0A7.378,7.378,0,1,1,7.378,0" fill="#4c78a8" stroke-width="1.5" opacity="1"/></g><g class="mark-text role-legend-label" pointer-events="none"><text text-anchor="start" transform="translate(23,11.5)" font-family="sans-serif" font-size="10px" fill="#000" opacity="1">6,000</text></g></g><path class="foreground" aria-hidden="true" d="" pointer-events="none" display="none"/></g><g transform="translate(0,54)"><path class="background" aria-hidden="true" d="M0,0h48.0244140625v19.519237201355736h-48.0244140625Z" pointer-events="none" opacity="1"/><g><g class="mark-symbol role-legend-symbol" pointer-events="none"><path transform="translate(9.5,9.5)" d="M8.519,0A8.519,8.519,0,1,1,-8.519,0A8.519,8.519,0,1,1,8.519,0" fill="#4c78a8" stroke-width="1.5" opacity="1"/></g><g class="mark-text role-legend-label" pointer-events="none"><text text-anchor="start" transform="translate(23,12.5)" font-family="sans-serif" font-size="10px" fill="#000" opacity="1">8,000</text></g></g><path class="foreground" aria-hidden="true" d="" pointer-events="none" display="none"/></g></g></g><path class="foreground" aria-hidden="true" d="" pointer-events="none" display="none"/></g></g><g class="mark-text role-legend-title" pointer-events="none"><text text-anchor="start" transform="translate(0,9)" font-family="sans-serif" font-size="11px" font-weight="bold" fill="#000" opacity="1">Sum of access_count</text></g></g><path class="foreground" aria-hidden="true" d="" pointer-events="none" display="none"/></g></g></g><path class="foreground" aria-hidden="true" d="" display="none"/></g></g></g></svg>