<svg xmlns="http://www.w3.org/2000/svg" xmlns:xlink="http://www.w3.org/1999/xlink" version="1.1" class="marks" width="628" height="501" viewBox="0 0 628 501"><rect width="628" height="501" fill="white"/><g fill="none" stroke-miterlimit="10" transform="translate(33,5)"><g class="mark-group role-frame root" role="graphics-object" aria-roledescription="group mark container"><g transform="translate(0,0)"><path class="background" aria-hidden="true" d="M0.5,0.5h500v80h-500Z" stroke="#ddd"/><g><g class="mark-group role-axis" role="graphics-symbol" aria-roledescription="axis" aria-label="X-axis titled 'COUNTRY_NAME' for a discrete scale with 25 values: Argentina, Australia, Belgium, Brazil, Canada, ending with Zimbabwe"><g transform="translate(0.5,80.5)"><path class="background" aria-hidden="true" d="M0,0h0v0h0Z" pointer-events="none"/><g><g class="mark-rule role-axis-tick" pointer-events="none"><line transform="translate(10,0)" x2="0" y2="5" stroke="#888" stroke-width="1" opacity="1"/><line transform="translate(30,0)" x2="0" y2="5" stroke="#888" stroke-width="1" opacity="1"/><line transform="translate(50,0)" x2="0" y2="5" stroke="#888" stroke-width="1" opacity="1"/><line transform="translate(70,0)" x2="0" y2="5" stroke="#888" stroke-width="1" opacity="1"/><line transform="translate(90,0)" x2="0" y2="5" stroke="#888" stroke-width="1" opacity="1"/><line transform="translate(110,0)" x2="0" y2="5" stroke="#888" stroke-width="1" opacity="1"/><line transform="translate(130,0)" x2="0" y2="5" stroke="#888" stroke-width="1" opacity="1"/><line transform="translate(150,0)" x2="0" y2="5" stroke="#888" stroke-width="1" opacity="1"/><line transform="translate(170,0)" x2="0" y2="5" stroke="#888" stroke-width="1" opacity="1"/><line transform="translate(190,0)" x2="0" y2="5" stroke="#888" stroke-width="1" opacity="1"/><line transform="translate(210,0)" x2="0" y2="5" stroke="#888" stroke-width="1" opacity="1"/><line transform="translate(230,0)" x2="0" y2="5" stroke="#888" stroke-width="1" opacity="1"/><line transform="translate(250,0)" x2="0" y2="5" stroke="#888" stroke-width="1" opacity="1"/><line transform="translate(270,0)" x2="0" y2="5" stroke="#888" stroke-width="1" opacity="1"/><line transform="translate(290,0)" x2="0" y2="5" stroke="#888" stroke-width="1" opacity="1"/><line transform="translate(310,0)" x2="0" y2="5" stroke="#888" stroke-width="1" opacity="1"/><line transform="translate(330,0)" x2="0" y2="5" stroke="#888" stroke-width="1" opacity="1"/><line transform="translate(350,0)" x2="0" y2="5" stroke="#888" stroke-width="1" opacity="1"/><line transform="translate(370,0)" x2="0" y2="5" stroke="#888" stroke-width="1" opacity="1"/><line transform="translate(390,0)" x2="0" y2="5" stroke="#888" stroke-width="1" opacity="1"/><line transform="translate(410,0)" x2="0" y2="5" stroke="#888" stroke-width="1" opacity="1"/><line transform="translate(430,0)" x2="0" y2="5" stroke="#888" stroke-width="1" opacity="1"/><line transform="translate(450,0)" x2="0" y2="5" stroke="#888" stroke-width="1" opacity="1"/><line transform="translate(470,0)" x2="0" y2="5" stroke="#888" stroke-width="1" opacity="1"/><line transform="translate(490,0)" x2="0" y2="5" stroke="#888" stroke-width="1" opacity="1"/></g><g class="mark-text role-axis-label" pointer-events="none"><text text-anchor="end" transform="translate(10,7) rotate(270) translate(0,3)" font-family="sans-serif" font-size="10px" fill="#000" opacity="1">Argentina</text><text text-anchor="end" transform="translate(30,7) rotate(270) translate(0,3)" font-family="sans-serif" font-size="10px" fill="#000" opacity="1">Australia</text><text text-anchor="end" transform="translate(50,7) rotate(270) translate(0,3)" font-family="sans-serif" font-size="10px" fill="#000" opacity="1">Belgium</text><text text-anchor="end" transform="translate(70,7) rotate(270) translate(0,3)" font-family="sans-serif" font-size="10px" fill="#000" opacity="1">Brazil</text><text text-anchor="end" transform="translate(90,7) rotate(270) translate(0,3)" font-family="sans-serif" font-size="10px" fill="#000" opacity="1">Canada</text><text text-anchor="end" transform="translate(110,7) rotate(270) translate(0,3)" font-family="sans-serif" font-size="10px" fill="#000" opacity="1">China</text><text text-anchor="end" transform="translate(130,7) rotate(270) translate(0,3)" font-family="sans-serif" font-size="10px" fill="#000" opacity="1">Denmark</text><text text-anchor="end" transform="translate(150,7) rotate(270) translate(0,3)" font-family="sans-serif" font-size="10px" fill="#000" opacity="1">Egypt</text><text text-anchor="end" transform="translate(170,7) rotate(270) translate(0,3)" font-family="sans-serif" font-size="10px" fill="#000" opacity="1">France</text><text text-anchor="end" transform="translate(190,7) rotate(270) translate(0,3)" font-family="sans-serif" font-size="10px" fill="#000" opacity="1">Germany</text><text text-anchor="end" transform="translate(210,7) rotate(270) translate(0,3)" font-family="sans-serif" font-size="10px" fill="#000" opacity="1">HongKong</text><text text-anchor="end" transform="translate(230,7) rotate(270) translate(0,3)" font-family="sans-serif" font-size="10px" fill="#000" opacity="1">India</text><text text-anchor="end" transform="translate(250,7) rotate(270) translate(0,3)" font-family="sans-serif" font-size="10px" fill="#000" opacity="1">Israel</text><text text-anchor="end" transform="translate(270,7) rotate(270) translate(0,3)" font-family="sans-serif" font-size="10px" fill="#000" opacity="1">Italy</text><text text-anchor="end" transform="translate(290,7) rotate(270) translate(0,3)" font-family="sans-serif" font-size="10px" fill="#000" opacity="1">Japan</text><text text-anchor="end" transform="translate(310,7) rotate(270) translate(0,3)" font-family="sans-serif" font-size="10px" fill="#000" opacity="1">Kuwait</text><text text-anchor="end" transform="translate(330,7) rotate(270) translate(0,3)" font-family="sans-serif" font-size="10px" fill="#000" opacity="1">Mexico</text><text text-anchor="end" transform="translate(350,7) rotate(270) translate(0,3)" font-family="sans-serif" font-size="10px" fill="#000" opacity="1">Netherlands</text><text text-anchor="end" transform="translate(370,7) rotate(270) translate(0,3)" font-family="sans-serif" font-size="10px" fill="#000" opacity="1">Nigeria</text><text text-anchor="end" transform="translate(390,7) rotate(270) translate(0,3)" font-family="sans-serif" font-size="10px" fill="#000" opacity="1">Singapore</text><text text-anchor="end" transform="translate(410,7) rotate(270) translate(0,3)" font-family="sans-serif" font-size="10px" fill="#000" opacity="1">Switzerland</text><text text-anchor="end" transform="translate(430,7) rotate(270) translate(0,3)" font-family="sans-serif" font-size="10px" fill="#000" opacity="1">United Kingdom</text><text text-anchor="end" transform="translate(450,7) rotate(270) translate(0,3)" font-family="sans-serif" font-size="10px" fill="#000" opacity="1">United States of Amer…</text><text text-anchor="end" transform="translate(470,7) rotate(270) translate(0,3)" font-family="sans-serif" font-size="10px" fill="#000" opacity="1">Zambia</text><text text-anchor="end" transform="translate(490,7) rotate(270) translate(0,3)" font-family="sans-serif" font-size="10px" fill="#000" opacity="1">Zimbabwe</text></g><g class="mark-rule role-axis-domain" pointer-events="none"><line transform="translate(0,0)" x2="500" y2="0" stroke="#888" stroke-width="1" opacity="1"/></g><g class="mark-text role-axis-title" pointer-events="none"><text text-anchor="middle" transform="translate(250,130.0537109375)" font-family="sans-serif" font-size="11px" font-weight="bold" fill="#000" opacity="1">COUNTRY_NAME</text></g></g><path class="foreground" aria-hidden="true" d="" pointer-events="none" display="none"/></g></g><g class="mark-group role-axis" role="graphics-symbol" aria-roledescription="axis" aria-label="Y-axis titled 'REGION_ID' for a discrete scale with 4 values: 1, 2, 3, 4"><g transform="translate(0.5,0.5)"><path class="background" aria-hidden="true" d="M0,0h0v0h0Z" pointer-events="none"/><g><g class="mark-rule role-axis-tick" pointer-events="none"><line transform="translate(0,10)" x2="-5" y2="0" stroke="#888" stroke-width="1" opacity="1"/><line transform="translate(0,30)" x2="-5" y2="0" stroke="#888" stroke-width="1" opacity="1"/><line transform="translate(0,50)" x2="-5" y2="0" stroke="#888" stroke-width="1" opacity="1"/><line transform="translate(0,70)" x2="-5" y2="0" stroke="#888" stroke-width="1" opacity="1"/></g><g class="mark-text role-axis-label" pointer-events="none"><text text-anchor="end" transform="translate(-7,13)" font-family="sans-serif" font-size="10px" fill="#000" opacity="1">1</text><text text-anchor="end" transform="translate(-7,33)" font-family="sans-serif" font-size="10px" fill="#000" opacity="1">2</text><text text-anchor="end" transform="translate(-7,53)" font-family="sans-serif" font-size="10px" fill="#000" opacity="1">3</text><text text-anchor="end" transform="translate(-7,73)" font-family="sans-serif" font-size="10px" fill="#000" opacity="1">4</text></g><g class="mark-rule role-axis-domain" pointer-events="none"><line transform="translate(0,0)" x2="0" y2="80" stroke="#888" stroke-width="1" opacity="1"/></g><g class="mark-text role-axis-title" pointer-events="none"><text text-anchor="middle" transform="translate(-16.5615234375,40) rotate(-90) translate(0,-2)" font-family="sans-serif" font-size="11px" font-weight="bold" fill="#000" opacity="1">REGION_ID</text></g></g><path class="foreground" aria-hidden="true" d="" pointer-events="none" display="none"/></g></g><g class="mark-symbol role-mark marks" role="graphics-object" aria-roledescription="symbol mark container"><path aria-label="COUNTRY_NAME: Argentina; REGION_ID: 2; COUNTRY_ID: AR" role="graphics-symbol" aria-roledescription="circle" transform="translate(10,30)" d="M1.5,0A1.5,1.5,0,1,1,-1.5,0A1.5,1.5,0,1,1,1.5,0" fill="#4c78a8" stroke-width="2" opacity="0.7"/><path aria-label="COUNTRY_NAME: Australia; REGION_ID: 3; COUNTRY_ID: AU" role="graphics-symbol" aria-roledescription="circle" transform="translate(30,50)" d="M2.432,0A2.432,2.432,0,1,1,-2.432,0A2.432,2.432,0,1,1,2.432,0" fill="#4c78a8" stroke-width="2" opacity="0.7"/><path aria-label="COUNTRY_NAME: Belgium; REGION_ID: 1; COUNTRY_ID: BE" role="graphics-symbol" aria-roledescription="circle" transform="translate(50,10)" d="M3.096,0A3.096,3.096,0,1,1,-3.096,0A3.096,3.096,0,1,1,3.096,0" fill="#4c78a8" stroke-width="2" opacity="0.7"/><path aria-label="COUNTRY_NAME: Brazil; REGION_ID: 2; COUNTRY_ID: BR" role="graphics-symbol" aria-roledescription="circle" transform="translate(70,30)" d="M3.64,0A3.64,3.64,0,1,1,-3.64,0A3.64,3.64,0,1,1,3.64,0" fill="#4c78a8" stroke-width="2" opacity="0.7"/><path aria-label="COUNTRY_NAME: Canada; REGION_ID: 2; COUNTRY_ID: CA" role="graphics-symbol" aria-roledescription="circle" transform="translate(90,30)" d="M4.113,0A4.113,4.113,0,1,1,-4.113,0A4.113,4.113,0,1,1,4.113,0" fill="#4c78a8" stroke-width="2" opacity="0.7"/><path aria-label="COUNTRY_NAME: Switzerland; REGION_ID: 1; COUNTRY_ID: CH" role="graphics-symbol" aria-roledescription="circle" transform="translate(410,10)" d="M4.537,0A4.537,4.537,0,1,1,-4.537,0A4.537,4.537,0,1,1,4.537,0" fill="#4c78a8" stroke-width="2" opacity="0.7"/><path aria-label="COUNTRY_NAME: China; REGION_ID: 3; COUNTRY_ID: CN" role="graphics-symbol" aria-roledescription="circle" transform="translate(110,50)" d="M4.924,0A4.924,4.924,0,1,1,-4.924,0A4.924,4.924,0,1,1,4.924,0" fill="#4c78a8" stroke-width="2" opacity="0.7"/><path aria-label="COUNTRY_NAME: Germany; REGION_ID: 1; COUNTRY_ID: DE" role="graphics-symbol" aria-roledescription="circle" transform="translate(190,10)" d="M5.284,0A5.284,5.284,0,1,1,-5.284,0A5.284,5.284,0,1,1,5.284,0" fill="#4c78a8" stroke-width="2" opacity="0.7"/><path aria-label="COUNTRY_NAME: Denmark; REGION_ID: 1; COUNTRY_ID: DK" role="graphics-symbol" aria-roledescription="circle" transform="translate(130,10)" d="M5.62,0A5.62,5.62,0,1,1,-5.62,0A5.62,5.62,0,1,1,5.62,0" fill="#4c78a8" stroke-width="2" opacity="0.7"/><path aria-label="COUNTRY_NAME: Egypt; REGION_ID: 4; COUNTRY_ID: EG" role="graphics-symbol" aria-roledescription="circle" transform="translate(150,70)" d="M5.937,0A5.937,5.937,0,1,1,-5.937,0A5.937,5.937,0,1,1,5.937,0" fill="#4c78a8" stroke-width="2" opacity="0.7"/><path aria-label="COUNTRY_NAME: France; REGION_ID: 1; COUNTRY_ID: FR" role="graphics-symbol" aria-roledescription="circle" transform="translate(170,10)" d="M6.238,0A6.238,6.238,0,1,1,-6.238,0A6.238,6.238,0,1,1,6.238,0" fill="#4c78a8" stroke-width="2" opacity="0.7"/><path aria-label="COUNTRY_NAME: HongKong; REGION_ID: 3; COUNTRY_ID: HK" role="graphics-symbol" aria-roledescription="circle" transform="translate(210,50)" d="M6.526,0A6.526,6.526,0,1,1,-6.526,0A6.526,6.526,0,1,1,6.526,0" fill="#4c78a8" stroke-width="2" opacity="0.7"/><path aria-label="COUNTRY_NAME: Israel; REGION_ID: 4; COUNTRY_ID: IL" role="graphics-symbol" aria-roledescription="circle" transform="translate(250,70)" d="M6.801,0A6.801,6.801,0,1,1,-6.801,0A6.801,6.801,0,1,1,6.801,0" fill="#4c78a8" stroke-width="2" opacity="0.7"/><path aria-label="COUNTRY_NAME: India; REGION_ID: 3; COUNTRY_ID: IN" role="graphics-symbol" aria-roledescription="circle" transform="translate(230,50)" d="M7.065,0A7.065,7.065,0,1,1,-7.065,0A7.065,7.065,0,1,1,7.065,0" fill="#4c78a8" stroke-width="2" opacity="0.7"/><path aria-label="COUNTRY_NAME: Italy; REGION_ID: 1; COUNTRY_ID: IT" role="graphics-symbol" aria-roledescription="circle" transform="translate(270,10)" d="M7.32,0A7.32,7.32,0,1,1,-7.32,0A7.32,7.32,0,1,1,7.32,0" fill="#4c78a8" stroke-width="2" opacity="0.7"/><path aria-label="COUNTRY_NAME: Japan; REGION_ID: 3; COUNTRY_ID: JP" role="graphics-symbol" aria-roledescription="circle" transform="translate(290,50)" d="M7.566,0A7.566,7.566,0,1,1,-7.566,0A7.566,7.566,0,1,1,7.566,0" fill="#4c78a8" stroke-width="2" opacity="0.7"/><path aria-label="COUNTRY_NAME: Kuwait; REGION_ID: 4; COUNTRY_ID: KW" role="graphics-symbol" aria-roledescription="circle" transform="translate(310,70)" d="M7.805,0A7.805,7.805,0,1,1,-7.805,0A7.805,7.805,0,1,1,7.805,0" fill="#4c78a8" stroke-width="2" opacity="0.7"/><path aria-label="COUNTRY_NAME: Mexico; REGION_ID: 2; COUNTRY_ID: MX" role="graphics-symbol" aria-roledescription="circle" transform="translate(330,30)" d="M8.036,0A8.036,8.036,0,1,1,-8.036,0A8.036,8.036,0,1,1,8.036,0" fill="#4c78a8" stroke-width="2" opacity="0.7"/><path aria-label="COUNTRY_NAME: Nigeria; REGION_ID: 4; COUNTRY_ID: NG" role="graphics-symbol" aria-roledescription="circle" transform="translate(370,70)" d="M8.261,0A8.261,8.261,0,1,1,-8.261,0A8.261,8.261,0,1,1,8.261,0" fill="#4c78a8" stroke-width="2" opacity="0.7"/><path aria-label="COUNTRY_NAME: Netherlands; REGION_ID: 1; COUNTRY_ID: NL" role="graphics-symbol" aria-roledescription="circle" transform="translate(350,10)" d="M8.48,0A8.48,8.48,0,1,1,-8.48,0A8.48,8.48,0,1,1,8.48,0" fill="#4c78a8" stroke-width="2" opacity="0.7"/><path aria-label="COUNTRY_NAME: Singapore; REGION_ID: 3; COUNTRY_ID: SG" role="graphics-symbol" aria-roledescription="circle" transform="translate(390,50)" d="M8.694,0A8.694,8.694,0,1,1,-8.694,0A8.694,8.694,0,1,1,8.694,0" fill="#4c78a8" stroke-width="2" opacity="0.7"/><path aria-label="COUNTRY_NAME: United Kingdom; REGION_ID: 1; COUNTRY_ID: UK" role="graphics-symbol" aria-roledescription="circle" transform="translate(430,10)" d="M8.902,0A8.902,8.902,0,1,1,-8.902,0A8.902,8.902,0,1,1,8.902,0" fill="#4c78a8" stroke-width="2" opacity="0.7"/><path aria-label="COUNTRY_NAME: United States of America; REGION_ID: 2; COUNTRY_ID: US" role="graphics-symbol" aria-roledescription="circle" transform="translate(450,30)" d="M9.106,0A9.106,9.106,0,1,1,-9.106,0A9.106,9.106,0,1,1,9.106,0" fill="#4c78a8" stroke-width="2" opacity="0.7"/><path aria-label="COUNTRY_NAME: Zambia; REGION_ID: 4; COUNTRY_ID: ZM" role="graphics-symbol" aria-roledescription="circle" transform="translate(470,70)" d="M9.305,0A9.305,9.305,0,1,1,-9.305,0A9.305,9.305,0,1,1,9.305,0" fill="#4c78a8" stroke-width="2" opacity="0.7"/><path aria-label="COUNTRY_NAME: Zimbabwe; REGION_ID: 4; COUNTRY_ID: ZW" role="graphics-symbol" aria-roledescription="circle" transform="translate(490,70)" d="M9.5,0A9.5,9.5,0,1,1,-9.5,0A9.5,9.5,0,1,1,9.5,0" fill="#4c78a8" stroke-width="2" opacity="0.7"/></g><g class="mark-group role-legend" role="graphics-symbol" aria-roledescription="legend" aria-label="Symbol legend titled 'COUNTRY_ID' for size with 25 values: AR, AU, BE, BR, CA, ending with ZW"><g transform="translate(518,0)"><path class="background" aria-hidden="true" d="M0,0h72v491h-72Z" pointer-events="none"/><g><g class="mark-group role-legend-entry"><g transform="translate(0,16)"><path class="background" aria-hidden="true" d="M0,0h0v0h0Z" pointer-events="none"/><g><g class="mark-group role-scope" role="graphics-object" aria-roledescription="group mark container"><g transform="translate(0,0)"><path class="background" aria-hidden="true" d="M0,0h41.1083984375v10h-41.1083984375Z" pointer-events="none" opacity="1"/><g><g class="mark-symbol role-legend-symbol" pointer-events="none"><path transform="translate(10.5,5)" d="M1.5,0A1.5,1.5,0,1,1,-1.5,0A1.5,1.5,0,1,1,1.5,0" fill="#4c78a8" stroke-width="1.5" opacity="0.7"/></g><g class="mark-text role-legend-label" pointer-events="none"><text text-anchor="start" transform="translate(25,8)" font-family="sans-serif" font-size="10px" fill="#000" opacity="1">AR</text></g></g><path class="foreground" aria-hidden="true" d="" pointer-events="none" display="none"/></g><g transform="translate(0,12)"><path class="background" aria-hidden="true" d="M0,0h41.1083984375v10h-41.1083984375Z" pointer-events="none" opacity="1"/><g><g class="mark-symbol role-legend-symbol" pointer-events="none"><path transform="translate(10.5,5)" d="M2.432,0A2.432,2.432,0,1,1,-2.432,0A2.432,2.432,0,1,1,2.432,0" fill="#4c78a8" stroke-width="1.5" opacity="0.7"/></g><g class="mark-text role-legend-label" pointer-events="none"><text text-anchor="start" transform="translate(25,8)" font-family="sans-serif" font-size="10px" fill="#000" opacity="1">AU</text></g></g><path class="foreground" aria-hidden="true" d="" pointer-events="none" display="none"/></g><g transform="translate(0,24)"><path class="background" aria-hidden="true" d="M0,0h41.1083984375v10h-41.1083984375Z" pointer-events="none" opacity="1"/><g><g class="mark-symbol role-legend-symbol" pointer-events="none"><path transform="translate(10.5,5)" d="M3.096,0A3.096,3.096,0,1,1,-3.096,0A3.096,3.096,0,1,1,3.096,0" fill="#4c78a8" stroke-width="1.5" opacity="0.7"/></g><g class="mark-text role-legend-label" pointer-events="none"><text text-anchor="start" transform="translate(25,8)" font-family="sans-serif" font-size="10px" fill="#000" opacity="1">BE</text></g></g><path class="foreground" aria-hidden="true" d="" pointer-events="none" display="none"/></g><g transform="translate(0,37)"><path class="background" aria-hidden="true" d="M0,0h41.1083984375v10.140054944640255h-41.1083984375Z" pointer-events="none" opacity="1"/><g><g class="mark-symbol role-legend-symbol" pointer-events="none"><path transform="translate(10.5,5)" d="M3.64,0A3.64,3.64,0,1,1,-3.64,0A3.64,3.64,0,1,1,3.64,0" fill="#4c78a8" stroke-width="1.5" opacity="0.7"/></g><g class="mark-text role-legend-label" pointer-events="none"><text text-anchor="start" transform="translate(25,8)" font-family="sans-serif" font-size="10px" fill="#000" opacity="1">BR</text></g></g><path class="foreground" aria-hidden="true" d="" pointer-events="none" display="none"/></g><g transform="translate(0,51)"><path class="background" aria-hidden="true" d="M0,0h41.1083984375v10.61298755975102h-41.1083984375Z" pointer-events="none" opacity="1"/><g><g class="mark-symbol role-legend-symbol" pointer-events="none"><path transform="translate(10.5,5)" d="M4.113,0A4.113,4.113,0,1,1,-4.113,0A4.113,4.113,0,1,1,4.113,0" fill="#4c78a8" stroke-width="1.5" opacity="0.7"/></g><g class="mark-text role-legend-label" pointer-events="none"><text text-anchor="start" transform="translate(25,8)" font-family="sans-serif" font-size="10px" fill="#000" opacity="1">CA</text></g></g><path class="foreground" aria-hidden="true" d="" pointer-events="none" display="none"/></g><g transform="translate(0,65)"><path class="background" aria-hidden="true" d="M0,0h41.1083984375v11.536885862938732h-41.1083984375Z" pointer-events="none" opacity="1"/><g><g class="mark-symbol role-legend-symbol" pointer-events="none"><path transform="translate(10.5,5.5)" d="M4.537,0A4.537,4.537,0,1,1,-4.537,0A4.537,4.537,0,1,1,4.537,0" fill="#4c78a8" stroke-width="1.5" opacity="0.7"/></g><g class="mark-text role-legend-label" pointer-events="none"><text text-anchor="start" transform="translate(25,8.5)" font-family="sans-serif" font-size="10px" fill="#000" opacity="1">CH</text></g></g><path class="foreground" aria-hidden="true" d="" pointer-events="none" display="none"/></g><g transform="translate(0,80)"><path class="background" aria-hidden="true" d="M0,0h41.1083984375v12.42442890089805h-41.1083984375Z" pointer-events="none" opacity="1"/><g><g class="mark-symbol role-legend-symbol" pointer-events="none"><path transform="translate(10.5,6)" d="M4.924,0A4.924,4.924,0,1,1,-4.924,0A4.924,4.924,0,1,1,4.924,0" fill="#4c78a8" stroke-width="1.5" opacity="0.7"/></g><g class="mark-text role-legend-label" pointer-events="none"><text text-anchor="start" transform="translate(25,9)" font-family="sans-serif" font-size="10px" fill="#000" opacity="1">CN</text></g></g><path class="foreground" aria-hidden="true" d="" pointer-events="none" display="none"/></g><g transform="translate(0,96)"><path class="background" aria-hidden="true" d="M0,0h41.1083984375v13.283622494715786h-41.1083984375Z" pointer-events="none" opacity="1"/><g><g class="mark-symbol role-legend-symbol" pointer-events="none"><path transform="translate(10.5,6.5)" d="M5.284,0A5.284,5.284,0,1,1,-5.284,0A5.284,5.284,0,1,1,5.284,0" fill="#4c78a8" stroke-width="1.5" opacity="0.7"/></g><g class="mark-text role-legend-label" pointer-events="none"><text text-anchor="start" transform="translate(25,9.5)" font-family="sans-serif" font-size="10px" fill="#000" opacity="1">DE</text></g></g><path class="foreground" aria-hidden="true" d="" pointer-events="none" display="none"/></g><g transform="translate(0,113)"><path class="background" aria-hidden="true" d="M0,0h41.1083984375v13.619905100029115h-41.1083984375Z" pointer-events="none" opacity="1"/><g><g class="mark-symbol role-legend-symbol" pointer-events="none"><path transform="translate(10.5,6.5)" d="M5.62,0A5.62,5.62,0,1,1,-5.62,0A5.62,5.62,0,1,1,5.62,0" fill="#4c78a8" stroke-width="1.5" opacity="0.7"/></g><g class="mark-text role-legend-label" pointer-events="none"><text text-anchor="start" transform="translate(25,9.5)" font-family="sans-serif" font-size="10px" fill="#000" opacity="1">DK</text></g></g><path class="foreground" aria-hidden="true" d="" pointer-events="none" display="none"/></g><g transform="translate(0,130)"><path class="background" aria-hidden="true" d="M0,0h41.1083984375v14.437171043518958h-41.1083984375Z" pointer-events="none" opacity="1"/><g><g class="mark-symbol role-legend-symbol" pointer-events="none"><path transform="translate(10.5,7)" d="M5.937,0A5.937,5.937,0,1,1,-5.937,0A5.937,5.937,0,1,1,5.937,0" fill="#4c78a8" stroke-width="1.5" opacity="0.7"/></g><g class="mark-text role-legend-label" pointer-events="none"><text text-anchor="start" transform="translate(25,10)" font-family="sans-serif" font-size="10px" fill="#000" opacity="1">EG</text></g></g><path class="foreground" aria-hidden="true" d="" pointer-events="none" display="none"/></g><g transform="translate(0,148)"><path class="background" aria-hidden="true" d="M0,0h41.1083984375v14.738322424070958h-41.1083984375Z" pointer-events="none" opacity="1"/><g><g class="mark-symbol role-legend-symbol" pointer-events="none"><path transform="translate(10.5,7)" d="M6.238,0A6.238,6.238,0,1,1,-6.238,0A6.238,6.238,0,1,1,6.238,0" fill="#4c78a8" stroke-width="1.5" opacity="0.7"/></g><g class="mark-text role-legend-label" pointer-events="none"><text text-anchor="start" transform="translate(25,10)" font-family="sans-serif" font-size="10px" fill="#000" opacity="1">FR</text></g></g><path class="foreground" aria-hidden="true" d="" pointer-events="none" display="none"/></g><g transform="translate(0,166)"><path class="background" aria-hidden="true" d="M0,0h41.1083984375v15.525590650150633h-41.1083984375Z" pointer-events="none" opacity="1"/><g><g class="mark-symbol role-legend-symbol" pointer-events="none"><path transform="translate(10.5,7.5)" d="M6.526,0A6.526,6.526,0,1,1,-6.526,0A6.526,6.526,0,1,1,6.526,0" fill="#4c78a8" stroke-width="1.5" opacity="0.7"/></g><g class="mark-text role-legend-label" pointer-events="none"><text text-anchor="start" transform="translate(25,10.5)" font-family="sans-serif" font-size="10px" fill="#000" opacity="1">HK</text></g></g><path class="foreground" aria-hidden="true" d="" pointer-events="none" display="none"/></g><g transform="translate(0,185)"><path class="background" aria-hidden="true" d="M0,0h41.1083984375v16.300735254367737h-41.1083984375Z" pointer-events="none" opacity="1"/><g><g class="mark-symbol role-legend-symbol" pointer-events="none"><path transform="translate(10.5,8)" d="M6.801,0A6.801,6.801,0,1,1,-6.801,0A6.801,6.801,0,1,1,6.801,0" fill="#4c78a8" stroke-width="1.5" opacity="0.7"/></g><g class="mark-text role-legend-label" pointer-events="none"><text text-anchor="start" transform="translate(25,11)" font-family="sans-serif" font-size="10px" fill="#000" opacity="1">IL</text></g></g><path class="foreground" aria-hidden="true" d="" pointer-events="none" display="none"/></g><g transform="translate(0,205)"><path class="background" aria-hidden="true" d="M0,0h41.1083984375v16.565172798075537h-41.1083984375Z" pointer-events="none" opacity="1"/><g><g class="mark-symbol role-legend-symbol" pointer-events="none"><path transform="translate(10.5,8)" d="M7.065,0A7.065,7.065,0,1,1,-7.065,0A7.065,7.065,0,1,1,7.065,0" fill="#4c78a8" stroke-width="1.5" opacity="0.7"/></g><g class="mark-text role-legend-label" pointer-events="none"><text text-anchor="start" transform="translate(25,11)" font-family="sans-serif" font-size="10px" fill="#000" opacity="1">IN</text></g></g><path class="foreground" aria-hidden="true" d="" pointer-events="none" display="none"/></g><g transform="translate(0,225)"><path class="background" aria-hidden="true" d="M0,0h41.1083984375v17.320063751999243h-41.1083984375Z" pointer-events="none" opacity="1"/><g><g class="mark-symbol role-legend-symbol" pointer-events="none"><path transform="translate(10.5,8.5)" d="M7.32,0A7.32,7.32,0,1,1,-7.32,0A7.32,7.32,0,1,1,7.32,0" fill="#4c78a8" stroke-width="1.5" opacity="0.7"/></g><g class="mark-text role-legend-label" pointer-events="none"><text text-anchor="start" transform="translate(25,11.5)" font-family="sans-serif" font-size="10px" fill="#000" opacity="1">IT</text></g></g><path class="foreground" aria-hidden="true" d="" pointer-events="none" display="none"/></g><g transform="translate(0,246)"><path class="background" aria-hidden="true" d="M0,0h41.1083984375v17.566372975210754h-41.1083984375Z" pointer-events="none" opacity="1"/><g><g class="mark-symbol role-legend-symbol" pointer-events="none"><path transform="translate(10.5,8.5)" d="M7.566,0A7.566,7.566,0,1,1,-7.566,0A7.566,7.566,0,1,1,7.566,0" fill="#4c78a8" stroke-width="1.5" opacity="0.7"/></g><g class="mark-text role-legend-label" pointer-events="none"><text text-anchor="start" transform="translate(25,11.5)" font-family="sans-serif" font-size="10px" fill="#000" opacity="1">JP</text></g></g><path class="foreground" aria-hidden="true" d="" pointer-events="none" display="none"/></g><g transform="translate(0,267)"><path class="background" aria-hidden="true" d="M0,0h41.1083984375v18.30491298264542h-41.1083984375Z" pointer-events="none" opacity="1"/><g><g class="mark-symbol role-legend-symbol" pointer-events="none"><path transform="translate(10.5,9)" d="M7.805,0A7.805,7.805,0,1,1,-7.805,0A7.805,7.805,0,1,1,7.805,0" fill="#4c78a8" stroke-width="1.5" opacity="0.7"/></g><g class="mark-text role-legend-label" pointer-events="none"><text text-anchor="start" transform="translate(25,12)" font-family="sans-serif" font-size="10px" fill="#000" opacity="1">KW</text></g></g><path class="foreground" aria-hidden="true" d="" pointer-events="none" display="none"/></g><g transform="translate(0,289)"><path class="background" aria-hidden="true" d="M0,0h41.1083984375v18.536375634160777h-41.1083984375Z" pointer-events="none" opacity="1"/><g><g class="mark-symbol role-legend-symbol" pointer-events="none"><path transform="translate(10.5,9)" d="M8.036,0A8.036,8.036,0,1,1,-8.036,0A8.036,8.036,0,1,1,8.036,0" fill="#4c78a8" stroke-width="1.5" opacity="0.7"/></g><g class="mark-text role-legend-label" pointer-events="none"><text text-anchor="start" transform="translate(25,12)" font-family="sans-serif" font-size="10px" fill="#000" opacity="1">MX</text></g></g><path class="foreground" aria-hidden="true" d="" pointer-events="none" display="none"/></g><g transform="translate(0,311)"><path class="background" aria-hidden="true" d="M0,0h41.1083984375v19.261355820929168h-41.1083984375Z" pointer-events="none" opacity="1"/><g><g class="mark-symbol role-legend-symbol" pointer-events="none"><path transform="translate(10.5,9.5)" d="M8.261,0A8.261,8.261,0,1,1,-8.261,0A8.261,8.261,0,1,1,8.261,0" fill="#4c78a8" stroke-width="1.5" opacity="0.7"/></g><g class="mark-text role-legend-label" pointer-events="none"><text text-anchor="start" transform="translate(25,12.5)" font-family="sans-serif" font-size="10px" fill="#000" opacity="1">NG</text></g></g><path class="foreground" aria-hidden="true" d="" pointer-events="none" display="none"/></g><g transform="translate(0,334)"><path class="background" aria-hidden="true" d="M0,0h41.1083984375v19.480369488805707h-41.1083984375Z" pointer-events="none" opacity="1"/><g><g class="mark-symbol role-legend-symbol" pointer-events="none"><path transform="translate(10.5,9.5)" d="M8.48,0A8.48,8.48,0,1,1,-8.48,0A8.48,8.48,0,1,1,8.48,0" fill="#4c78a8" stroke-width="1.5" opacity="0.7"/></g><g class="mark-text role-legend-label" pointer-events="none"><text text-anchor="start" transform="translate(25,12.5)" font-family="sans-serif" font-size="10px" fill="#000" opacity="1">NL</text></g></g><path class="foreground" aria-hidden="true" d="" pointer-events="none" display="none"/></g><g transform="translate(0,357)"><path class="background" aria-hidden="true" d="M0,0h41.1083984375v19.69386757049665h-41.1083984375Z" pointer-events="none" opacity="1"/><g><g class="mark-symbol role-legend-symbol" pointer-events="none"><path transform="translate(10.5,9.5)" d="M8.694,0A8.694,8.694,0,1,1,-8.694,0A8.694,8.694,0,1,1,8.694,0" fill="#4c78a8" stroke-width="1.5" opacity="0.7"/></g><g class="mark-text role-legend-label" pointer-events="none"><text text-anchor="start" transform="translate(25,12.5)" font-family="sans-serif" font-size="10px" fill="#000" opacity="1">SG</text></g></g><path class="foreground" aria-hidden="true" d="" pointer-events="none" display="none"/></g><g transform="translate(0,380)"><path class="background" aria-hidden="true" d="M0,0h41.1083984375v20.402246907382448h-41.1083984375Z" pointer-events="none" opacity="1"/><g><g class="mark-symbol role-legend-symbol" pointer-events="none"><path transform="translate(10.5,10)" d="M8.902,0A8.902,8.902,0,1,1,-8.902,0A8.902,8.902,0,1,1,8.902,0" fill="#4c78a8" stroke-width="1.5" opacity="0.7"/></g><g class="mark-text role-legend-label" pointer-events="none"><text text-anchor="start" transform="translate(25,13)" font-family="sans-serif" font-size="10px" fill="#000" opacity="1">UK</text></g></g><path class="foreground" aria-hidden="true" d="" pointer-events="none" display="none"/></g><g transform="translate(0,404)"><path class="background" aria-hidden="true" d="M0,0h41.1083984375v20.605858919765183h-41.1083984375Z" pointer-events="none" opacity="1"/><g><g class="mark-symbol role-legend-symbol" pointer-events="none"><path transform="translate(10.5,10)" d="M9.106,0A9.106,9.106,0,1,1,-9.106,0A9.106,9.106,0,1,1,9.106,0" fill="#4c78a8" stroke-width="1.5" opacity="0.7"/></g><g class="mark-text role-legend-label" pointer-events="none"><text text-anchor="start" transform="translate(25,13)" font-family="sans-serif" font-size="10px" fill="#000" opacity="1">US</text></g></g><path class="foreground" aria-hidden="true" d="" pointer-events="none" display="none"/></g><g transform="translate(0,428)"><path class="background" aria-hidden="true" d="M0,0h41.1083984375v21.30501656813857h-41.1083984375Z" pointer-events="none" opacity="1"/><g><g class="mark-symbol role-legend-symbol" pointer-events="none"><path transform="translate(10.5,10.5)" d="M9.305,0A9.305,9.305,0,1,1,-9.305,0A9.305,9.305,0,1,1,9.305,0" fill="#4c78a8" stroke-width="1.5" opacity="0.7"/></g><g class="mark-text role-legend-label" pointer-events="none"><text text-anchor="start" transform="translate(25,13.5)" font-family="sans-serif" font-size="10px" fill="#000" opacity="1">ZM</text></g></g><path class="foreground" aria-hidden="true" d="" pointer-events="none" display="none"/></g><g transform="translate(0,453)"><path class="background" aria-hidden="true" d="M0,0h41.1083984375v21.5h-41.1083984375Z" pointer-events="none" opacity="1"/><g><g class="mark-symbol role-legend-symbol" pointer-events="none"><path transform="translate(10.5,10.5)" d="M9.5,0A9.5,9.5,0,1,1,-9.5,0A9.5,9.5,0,1,1,9.5,0" fill="#4c78a8" stroke-width="1.5" opacity="0.7"/></g><g class="mark-text role-legend-label" pointer-events="none"><text text-anchor="start" transform="translate(25,13.5)" font-family="sans-serif" font-size="10px" fill="#000" opacity="1">ZW</text></g></g><path class="foreground" aria-hidden="true" d="" pointer-events="none" display="none"/></g></g></g><path class="foreground" aria-hidden="true" d="" pointer-events="none" display="none"/></g></g><g class="mark-text role-legend-title" pointer-events="none"><text text-anchor="start" transform="translate(0,9)" font-family="sans-serif" font-size="11px" font-weight="bold" fill="#000" opacity="1">COUNTRY_ID</text></g></g><path class="foreground" aria-hidden="true" d="" pointer-events="none" display="none"/></g></g></g><path class="foreground" aria-hidden="true" d="" display="none"/></g></g></g></svg>