<svg xmlns="http://www.w3.org/2000/svg" xmlns:xlink="http://www.w3.org/1999/xlink" version="1.1" class="marks" width="265" height="395" viewBox="0 0 265 395"><rect width="265" height="395" fill="white"/><g fill="none" stroke-miterlimit="10" transform="translate(69,17)"><g class="mark-group role-frame root" role="graphics-object" aria-roledescription="group mark container"><g transform="translate(0,0)"><path class="background" aria-hidden="true" d="M0.5,0.5h80v300h-80Z" stroke="#ddd"/><g><g class="mark-group role-axis" aria-hidden="true"><g transform="translate(0.5,0.5)"><path class="background" aria-hidden="true" d="M0,0h0v0h0Z" pointer-events="none"/><g><g class="mark-rule role-axis-grid" pointer-events="none"><line transform="translate(0,279)" x2="80" y2="0" stroke="#ddd" stroke-width="1" opacity="1"/><line transform="translate(0,246)" x2="80" y2="0" stroke="#ddd" stroke-width="1" opacity="1"/><line transform="translate(0,214)" x2="80" y2="0" stroke="#ddd" stroke-width="1" opacity="1"/><line transform="translate(0,182)" x2="80" y2="0" stroke="#ddd" stroke-width="1" opacity="1"/><line transform="translate(0,150)" x2="80" y2="0" stroke="#ddd" stroke-width="1" opacity="1"/><line transform="translate(0,118)" x2="80" y2="0" stroke="#ddd" stroke-width="1" opacity="1"/><line transform="translate(0,85)" x2="80" y2="0" stroke="#ddd" stroke-width="1" opacity="1"/><line transform="translate(0,54)" x2="80" y2="0" stroke="#ddd" stroke-width="1" opacity="1"/><line transform="translate(0,22)" x2="80" y2="0" stroke="#ddd" stroke-width="1" opacity="1"/></g></g><path class="foreground" aria-hidden="true" d="" pointer-events="none" display="none"/></g></g><g class="mark-group role-axis" role="graphics-symbol" aria-roledescription="axis" aria-label="X-axis titled 'Policy Type Code' for a discrete scale with 4 values: Deputy, Jurisdiction, Normal, Uniformed"><g transform="translate(0.5,300.5)"><path class="background" aria-hidden="true" d="M0,0h0v0h0Z" pointer-events="none"/><g><g class="mark-rule role-axis-tick" pointer-events="none"><line transform="translate(10,0)" x2="0" y2="5" stroke="#888" stroke-width="1" opacity="1"/><line transform="translate(30,0)" x2="0" y2="5" stroke="#888" stroke-width="1" opacity="1"/><line transform="translate(50,0)" x2="0" y2="5" stroke="#888" stroke-width="1" opacity="1"/><line transform="translate(70,0)" x2="0" y2="5" stroke="#888" stroke-width="1" opacity="1"/></g><g class="mark-text role-axis-label" pointer-events="none"><text text-anchor="end" transform="translate(10,7) rotate(270) translate(0,3)" font-family="sans-serif" font-size="10px" fill="#000" opacity="1">Deputy</text><text text-anchor="end" transform="translate(30,7) rotate(270) translate(0,3)" font-family="sans-serif" font-size="10px" fill="#000" opacity="1">Jurisdiction</text><text text-anchor="end" transform="translate(50,7) rotate(270) translate(0,3)" font-family="sans-serif" font-size="10px" fill="#000" opacity="1">Normal</text><text text-anchor="end" transform="translate(70,7) rotate(270) translate(0,3)" font-family="sans-serif" font-size="10px" fill="#000" opacity="1">Uniformed</text></g><g class="mark-rule role-axis-domain" pointer-events="none"><line transform="translate(0,0)" x2="80" y2="0" stroke="#888" stroke-width="1" opacity="1"/></g><g class="mark-text role-axis-title" pointer-events="none"><text text-anchor="middle" transform="translate(40,70.01953125)" font-family="sans-serif" font-size="11px" font-weight="bold" fill="#000" opacity="1">Policy Type Code</text></g></g><path class="foreground" aria-hidden="true" d="" pointer-events="none" display="none"/></g></g><g class="mark-group role-axis" role="graphics-symbol" aria-roledescription="axis" aria-label="Y-axis titled 'Start Date (Year-Month)' for a time scale with values from May 2016 to September 2018"><g transform="translate(0.5,0.5)"><path class="background" aria-hidden="true" d="M0,0h0v0h0Z" pointer-events="none"/><g><g class="mark-rule role-axis-tick" pointer-events="none"><line transform="translate(0,279)" x2="-5" y2="0" stroke="#888" stroke-width="1" opacity="1"/><line transform="translate(0,246)" x2="-5" y2="0" stroke="#888" stroke-width="1" opacity="1"/><line transform="translate(0,214)" x2="-5" y2="0" stroke="#888" stroke-width="1" opacity="1"/><line transform="translate(0,182)" x2="-5" y2="0" stroke="#888" stroke-width="1" opacity="1"/><line transform="translate(0,150)" x2="-5" y2="0" stroke="#888" stroke-width="1" opacity="1"/><line transform="translate(0,118)" x2="-5" y2="0" stroke="#888" stroke-width="1" opacity="1"/><line transform="translate(0,85)" x2="-5" y2="0" stroke="#888" stroke-width="1" opacity="1"/><line transform="translate(0,54)" x2="-5" y2="0" stroke="#888" stroke-width="1" opacity="1"/><line transform="translate(0,22)" x2="-5" y2="0" stroke="#888" stroke-width="1" opacity="1"/></g><g class="mark-text role-axis-label" pointer-events="none"><text text-anchor="end" transform="translate(-7,281.54630715123096)" font-family="sans-serif" font-size="10px" fill="#000" opacity="1">Jul 2016</text><text text-anchor="end" transform="translate(-7,249.189917936694)" font-family="sans-serif" font-size="10px" fill="#000" opacity="1">Oct 2016</text><text text-anchor="end" transform="translate(-7,216.8335287221571)" font-family="sans-serif" font-size="10px" fill="#000" opacity="1">Jan 2017</text><text text-anchor="end" transform="translate(-7,185.18053927315358)" font-family="sans-serif" font-size="10px" fill="#000" opacity="1">Apr 2017</text><text text-anchor="end" transform="translate(-7,153.17584994138335)" font-family="sans-serif" font-size="10px" fill="#000" opacity="1">Jul 2017</text><text text-anchor="end" transform="translate(-7,120.81946072684642)" font-family="sans-serif" font-size="10px" fill="#000" opacity="1">Oct 2017</text><text text-anchor="end" transform="translate(-7,88.46307151230951)" font-family="sans-serif" font-size="10px" fill="#000" opacity="1">Jan 2018</text><text text-anchor="end" transform="translate(-7,56.810082063305984)" font-family="sans-serif" font-size="10px" fill="#000" opacity="1">Apr 2018</text><text text-anchor="end" transform="translate(-7,24.805392731535754)" font-family="sans-serif" font-size="10px" fill="#000" opacity="1">Jul 2018</text></g><g class="mark-rule role-axis-domain" pointer-events="none"><line transform="translate(0,300)" x2="0" y2="-300" stroke="#888" stroke-width="1" opacity="1"/></g><g class="mark-text role-axis-title" pointer-events="none"><text text-anchor="middle" transform="translate(-52.1474609375,150) rotate(-90) translate(0,-2)" font-family="sans-serif" font-size="11px" font-weight="bold" fill="#000" opacity="1">Start Date (Year-Month)</text></g></g><path class="foreground" aria-hidden="true" d="" pointer-events="none" display="none"/></g></g><g class="mark-symbol role-mark marks" role="graphics-object" aria-roledescription="symbol mark container"><path aria-label="Policy_Type_Code: Deputy; Start_Date (year-month): Feb 2018; Count of Records: 1" role="graphics-symbol" aria-roledescription="circle" transform="translate(10,74.56037514654162)" d="M11.726,0A11.726,11.726,0,1,1,-11.726,0A11.726,11.726,0,1,1,11.726,0" fill="#4c78a8" stroke-width="2"/><path aria-label="Policy_Type_Code: Jurisdiction; Start_Date (year-month): Dec 2017; Count of Records: 1" role="graphics-symbol" aria-roledescription="circle" transform="translate(30,96.36576787807736)" d="M11.726,0A11.726,11.726,0,1,1,-11.726,0A11.726,11.726,0,1,1,11.726,0" fill="#4c78a8" stroke-width="2"/><path aria-label="Policy_Type_Code: Jurisdiction; Start_Date (year-month): Mar 2017; Count of Records: 1" role="graphics-symbol" aria-roledescription="circle" transform="translate(30,193.08323563892145)" d="M11.726,0A11.726,11.726,0,1,1,-11.726,0A11.726,11.726,0,1,1,11.726,0" fill="#4c78a8" stroke-width="2"/><path aria-label="Policy_Type_Code: Uniformed; Start_Date (year-month): Mar 2018; Count of Records: 1" role="graphics-symbol" aria-roledescription="circle" transform="translate(70,64.71277842907385)" d="M11.726,0A11.726,11.726,0,1,1,-11.726,0A11.726,11.726,0,1,1,11.726,0" fill="#4c78a8" stroke-width="2"/><path aria-label="Policy_Type_Code: Uniformed; Start_Date (year-month): Mar 2017; Count of Records: 1" role="graphics-symbol" aria-roledescription="circle" transform="translate(70,193.08323563892145)" d="M11.726,0A11.726,11.726,0,1,1,-11.726,0A11.726,11.726,0,1,1,11.726,0" fill="#4c78a8" stroke-width="2"/><path aria-label="Policy_Type_Code: Uniformed; Start_Date (year-month): May 2016; Count of Records: 2" role="graphics-symbol" aria-roledescription="circle" transform="translate(70,300)" d="M15.811,0A15.811,15.811,0,1,1,-15.811,0A15.811,15.811,0,1,1,15.811,0" fill="#4c78a8" stroke-width="2"/><path aria-label="Policy_Type_Code: Deputy; Start_Date (year-month): Sep 2018; Count of Records: 1" role="graphics-symbol" aria-roledescription="circle" transform="translate(10,0)" d="M11.726,0A11.726,11.726,0,1,1,-11.726,0A11.726,11.726,0,1,1,11.726,0" fill="#4c78a8" stroke-width="2"/><path aria-label="Policy_Type_Code: Deputy; Start_Date (year-month): Jun 2016; Count of Records: 1" role="graphics-symbol" aria-roledescription="circle" transform="translate(10,289.09730363423216)" d="M11.726,0A11.726,11.726,0,1,1,-11.726,0A11.726,11.726,0,1,1,11.726,0" fill="#4c78a8" stroke-width="2"/><path aria-label="Policy_Type_Code: Normal; Start_Date (year-month): Jul 2018; Count of Records: 1" role="graphics-symbol" aria-roledescription="circle" transform="translate(50,21.805392731535754)" d="M11.726,0A11.726,11.726,0,1,1,-11.726,0A11.726,11.726,0,1,1,11.726,0" fill="#4c78a8" stroke-width="2"/><path aria-label="Policy_Type_Code: Uniformed; Start_Date (year-month): Jan 2017; Count of Records: 1" role="graphics-symbol" aria-roledescription="circle" transform="translate(70,213.8335287221571)" d="M11.726,0A11.726,11.726,0,1,1,-11.726,0A11.726,11.726,0,1,1,11.726,0" fill="#4c78a8" stroke-width="2"/><path aria-label="Policy_Type_Code: Uniformed; Start_Date (year-month): Feb 2017; Count of Records: 1" role="graphics-symbol" aria-roledescription="circle" transform="translate(70,202.9308323563892)" d="M11.726,0A11.726,11.726,0,1,1,-11.726,0A11.726,11.726,0,1,1,11.726,0" fill="#4c78a8" stroke-width="2"/><path aria-label="Policy_Type_Code: Uniformed; Start_Date (year-month): Aug 2016; Count of Records: 1" role="graphics-symbol" aria-roledescription="circle" transform="translate(70,267.64361078546307)" d="M11.726,0A11.726,11.726,0,1,1,-11.726,0A11.726,11.726,0,1,1,11.726,0" fill="#4c78a8" stroke-width="2"/><path aria-label="Policy_Type_Code: Uniformed; Start_Date (year-month): Sep 2018; Count of Records: 1" role="graphics-symbol" aria-roledescription="circle" transform="translate(70,0)" d="M11.726,0A11.726,11.726,0,1,1,-11.726,0A11.726,11.726,0,1,1,11.726,0" fill="#4c78a8" stroke-width="2"/><path aria-label="Policy_Type_Code: Jurisdiction; Start_Date (year-month): Jul 2016; Count of Records: 1" role="graphics-symbol" aria-roledescription="circle" transform="translate(30,278.54630715123096)" d="M11.726,0A11.726,11.726,0,1,1,-11.726,0A11.726,11.726,0,1,1,11.726,0" fill="#4c78a8" stroke-width="2"/></g><g class="mark-group role-legend" role="graphics-symbol" aria-roledescription="legend" aria-label="Symbol legend titled 'Count of Records' for size with values from 0.0 to 2.0"><g transform="translate(98,0)"><path class="background" aria-hidden="true" d="M0,0h93v154h-93Z" pointer-events="none"/><g><g class="mark-group role-legend-entry"><g transform="translate(0,16)"><path class="background" aria-hidden="true" d="M0,0h0v0h0Z" pointer-events="none"/><g><g class="mark-group role-scope" role="graphics-object" aria-roledescription="group mark container"><g transform="translate(0,0)"><path class="background" aria-hidden="true" d="M0,0h51.9013671875v12.5h-51.9013671875Z" pointer-events="none" opacity="1"/><g><g class="mark-symbol role-legend-symbol" pointer-events="none"><path transform="translate(17,6)" d="M5,0A5,5,0,1,1,-5,0A5,5,0,1,1,5,0" fill="#4c78a8" stroke-width="1.5" opacity="1"/></g><g class="mark-text role-legend-label" pointer-events="none"><text text-anchor="start" transform="translate(38,9)" font-family="sans-serif" font-size="10px" fill="#000" opacity="1">0.0</text></g></g><path class="foreground" aria-hidden="true" d="" pointer-events="none" display="none"/></g><g transform="translate(0,16)"><path class="background" aria-hidden="true" d="M0,0h51.9013671875v20.513878188659973h-51.9013671875Z" pointer-events="none" opacity="1"/><g><g class="mark-symbol role-legend-symbol" pointer-events="none"><path transform="translate(17,10)" d="M9.014,0A9.014,9.014,0,1,1,-9.014,0A9.014,9.014,0,1,1,9.014,0" fill="#4c78a8" stroke-width="1.5" opacity="1"/></g><g class="mark-text role-legend-label" pointer-events="none"><text text-anchor="start" transform="translate(38,13)" font-family="sans-serif" font-size="10px" fill="#000" opacity="1">0.5</text></g></g><path class="foreground" aria-hidden="true" d="" pointer-events="none" display="none"/></g><g transform="translate(0,40)"><path class="background" aria-hidden="true" d="M0,0h51.9013671875v25.726039399558573h-51.9013671875Z" pointer-events="none" opacity="1"/><g><g class="mark-symbol role-legend-symbol" pointer-events="none"><path transform="translate(17,12.5)" d="M11.726,0A11.726,11.726,0,1,1,-11.726,0A11.726,11.726,0,1,1,11.726,0" fill="#4c78a8" stroke-width="1.5" opacity="1"/></g><g class="mark-text role-legend-label" pointer-events="none"><text text-anchor="start" transform="translate(38,15.5)" font-family="sans-serif" font-size="10px" fill="#000" opacity="1">1.0</text></g></g><path class="foreground" aria-hidden="true" d="" pointer-events="none" display="none"/></g><g transform="translate(0,69)"><path class="background" aria-hidden="true" d="M0,0h51.9013671875v30.419410907075047h-51.9013671875Z" pointer-events="none" opacity="1"/><g><g class="mark-symbol role-legend-symbol" pointer-events="none"><path transform="translate(17,15)" d="M13.919,0A13.919,13.919,0,1,1,-13.919,0A13.919,13.919,0,1,1,13.919,0" fill="#4c78a8" stroke-width="1.5" opacity="1"/></g><g class="mark-text role-legend-label" pointer-events="none"><text text-anchor="start" transform="translate(38,18)" font-family="sans-serif" font-size="10px" fill="#000" opacity="1">1.5</text></g></g><path class="foreground" aria-hidden="true" d="" pointer-events="none" display="none"/></g><g transform="translate(0,103)"><path class="background" aria-hidden="true" d="M0,0h51.9013671875v34.311388300841884h-51.9013671875Z" pointer-events="none" opacity="1"/><g><g class="mark-symbol role-legend-symbol" pointer-events="none"><path transform="translate(17,17)" d="M15.811,0A15.811,15.811,0,1,1,-15.811,0A15.811,15.811,0,1,1,15.811,0" fill="#4c78a8" stroke-width="1.5" opacity="1"/></g><g class="mark-text role-legend-label" pointer-events="none"><text text-anchor="start" transform="translate(38,20)" font-family="sans-serif" font-size="10px" fill="#000" opacity="1">2.0</text></g></g><path class="foreground" aria-hidden="true" d="" pointer-events="none" display="none"/></g></g></g><path class="foreground" aria-hidden="true" d="" pointer-events="none" display="none"/></g></g><g class="mark-text role-legend-title" pointer-events="none"><text text-anchor="start" transform="translate(0,9)" font-family="sans-serif" font-size="11px" font-weight="bold" fill="#000" opacity="1">Count of Records</text></g></g><path class="foreground" aria-hidden="true" d="" pointer-events="none" display="none"/></g></g></g><path class="foreground" aria-hidden="true" d="" display="none"/></g></g></g></svg>