<svg xmlns="http://www.w3.org/2000/svg" xmlns:xlink="http://www.w3.org/1999/xlink" version="1.1" class="marks" width="283" height="422" viewBox="0 0 283 422"><rect width="283" height="422" fill="white"/><g fill="none" stroke-miterlimit="10" transform="translate(46,13)"><g class="mark-group role-frame root" role="graphics-object" aria-roledescription="group mark container"><g transform="translate(0,0)"><path class="background" aria-hidden="true" d="M0.5,0.5h80v300h-80Z" stroke="#ddd"/><g><g class="mark-group role-axis" aria-hidden="true"><g transform="translate(0.5,0.5)"><path class="background" aria-hidden="true" d="M0,0h0v0h0Z" pointer-events="none"/><g><g class="mark-rule role-axis-grid" pointer-events="none"><line transform="translate(0,300)" x2="80" y2="0" stroke="#ddd" stroke-width="1" opacity="1"/><line transform="translate(0,272)" x2="80" y2="0" stroke="#ddd" stroke-width="1" opacity="1"/><line transform="translate(0,246)" x2="80" y2="0" stroke="#ddd" stroke-width="1" opacity="1"/><line transform="translate(0,219)" x2="80" y2="0" stroke="#ddd" stroke-width="1" opacity="1"/><line transform="translate(0,192)" x2="80" y2="0" stroke="#ddd" stroke-width="1" opacity="1"/><line transform="translate(0,164)" x2="80" y2="0" stroke="#ddd" stroke-width="1" opacity="1"/><line transform="translate(0,137)" x2="80" y2="0" stroke="#ddd" stroke-width="1" opacity="1"/><line transform="translate(0,109)" x2="80" y2="0" stroke="#ddd" stroke-width="1" opacity="1"/><line transform="translate(0,81)" x2="80" y2="0" stroke="#ddd" stroke-width="1" opacity="1"/><line transform="translate(0,55)" x2="80" y2="0" stroke="#ddd" stroke-width="1" opacity="1"/><line transform="translate(0,27)" x2="80" y2="0" stroke="#ddd" stroke-width="1" opacity="1"/><line transform="translate(0,0)" x2="80" y2="0" stroke="#ddd" stroke-width="1" opacity="1"/></g></g><path class="foreground" aria-hidden="true" d="" pointer-events="none" display="none"/></g></g><g class="mark-group role-axis" role="graphics-symbol" aria-roledescription="axis" aria-label="X-axis titled 'Payment_Method_Code' for a discrete scale with 4 values: American Express, Discover Card, MasterCard, Visa"><g transform="translate(0.5,300.5)"><path class="background" aria-hidden="true" d="M0,0h0v0h0Z" pointer-events="none"/><g><g class="mark-rule role-axis-tick" pointer-events="none"><line transform="translate(10,0)" x2="0" y2="5" stroke="#888" stroke-width="1" opacity="1"/><line transform="translate(30,0)" x2="0" y2="5" stroke="#888" stroke-width="1" opacity="1"/><line transform="translate(50,0)" x2="0" y2="5" stroke="#888" stroke-width="1" opacity="1"/><line transform="translate(70,0)" x2="0" y2="5" stroke="#888" stroke-width="1" opacity="1"/></g><g class="mark-text role-axis-label" pointer-events="none"><text text-anchor="end" transform="translate(10,7) rotate(270) translate(0,3)" font-family="sans-serif" font-size="10px" fill="#000" opacity="1">American Express</text><text text-anchor="end" transform="translate(30,7) rotate(270) translate(0,3)" font-family="sans-serif" font-size="10px" fill="#000" opacity="1">Discover Card</text><text text-anchor="end" transform="translate(50,7) rotate(270) translate(0,3)" font-family="sans-serif" font-size="10px" fill="#000" opacity="1">MasterCard</text><text text-anchor="end" transform="translate(70,7) rotate(270) translate(0,3)" font-family="sans-serif" font-size="10px" fill="#000" opacity="1">Visa</text></g><g class="mark-rule role-axis-domain" pointer-events="none"><line transform="translate(0,0)" x2="80" y2="0" stroke="#888" stroke-width="1" opacity="1"/></g><g class="mark-text role-axis-title" pointer-events="none"><text text-anchor="middle" transform="translate(40,101.1376953125)" font-family="sans-serif" font-size="11px" font-weight="bold" fill="#000" opacity="1">Payment_Method_Code</text></g></g><path class="foreground" aria-hidden="true" d="" pointer-events="none" display="none"/></g></g><g class="mark-group role-axis" role="graphics-symbol" aria-roledescription="axis" aria-label="Y-axis titled 'Date_Payment_Made (month)' for a time scale with values from January to December"><g transform="translate(0.5,0.5)"><path class="background" aria-hidden="true" d="M0,0h0v0h0Z" pointer-events="none"/><g><g class="mark-rule role-axis-tick" pointer-events="none"><line transform="translate(0,300)" x2="-5" y2="0" stroke="#888" stroke-width="1" opacity="1"/><line transform="translate(0,272)" x2="-5" y2="0" stroke="#888" stroke-width="1" opacity="1"/><line transform="translate(0,246)" x2="-5" y2="0" stroke="#888" stroke-width="1" opacity="1"/><line transform="translate(0,219)" x2="-5" y2="0" stroke="#888" stroke-width="1" opacity="1"/><line transform="translate(0,192)" x2="-5" y2="0" stroke="#888" stroke-width="1" opacity="1"/><line transform="translate(0,164)" x2="-5" y2="0" stroke="#888" stroke-width="1" opacity="1"/><line transform="translate(0,137)" x2="-5" y2="0" stroke="#888" stroke-width="1" opacity="1"/><line transform="translate(0,109)" x2="-5" y2="0" stroke="#888" stroke-width="1" opacity="1"/><line transform="translate(0,81)" x2="-5" y2="0" stroke="#888" stroke-width="1" opacity="1"/><line transform="translate(0,55)" x2="-5" y2="0" stroke="#888" stroke-width="1" opacity="1"/><line transform="translate(0,27)" x2="-5" y2="0" stroke="#888" stroke-width="1" opacity="1"/><line transform="translate(0,0)" x2="-5" y2="0" stroke="#888" stroke-width="1" opacity="1"/></g><g class="mark-text role-axis-label" pointer-events="none"><text text-anchor="end" transform="translate(-7,303)" font-family="sans-serif" font-size="10px" fill="#000" opacity="1">Jan</text><text text-anchor="end" transform="translate(-7,275.23880597014926)" font-family="sans-serif" font-size="10px" fill="#000" opacity="1">Feb</text><text text-anchor="end" transform="translate(-7,249.26865671641792)" font-family="sans-serif" font-size="10px" fill="#000" opacity="1">Mar</text><text text-anchor="end" transform="translate(-7,221.50746268656715)" font-family="sans-serif" font-size="10px" fill="#000" opacity="1">Apr</text><text text-anchor="end" transform="translate(-7,194.6417910447761)" font-family="sans-serif" font-size="10px" fill="#000" opacity="1">May</text><text text-anchor="end" transform="translate(-7,166.88059701492537)" font-family="sans-serif" font-size="10px" fill="#000" opacity="1">Jun</text><text text-anchor="end" transform="translate(-7,140.01492537313433)" font-family="sans-serif" font-size="10px" fill="#000" opacity="1">Jul</text><text text-anchor="end" transform="translate(-7,112.25373134328358)" font-family="sans-serif" font-size="10px" fill="#000" opacity="1">Aug</text><text text-anchor="end" transform="translate(-7,84.49253731343285)" font-family="sans-serif" font-size="10px" fill="#000" opacity="1">Sep</text><text text-anchor="end" transform="translate(-7,57.62686567164179)" font-family="sans-serif" font-size="10px" fill="#000" opacity="1">Oct</text><text text-anchor="end" transform="translate(-7,29.865671641791057)" font-family="sans-serif" font-size="10px" fill="#000" opacity="1">Nov</text><text text-anchor="end" transform="translate(-7,3)" font-family="sans-serif" font-size="10px" fill="#000" opacity="1">Dec</text></g><g class="mark-rule role-axis-domain" pointer-events="none"><line transform="translate(0,300)" x2="0" y2="-300" stroke="#888" stroke-width="1" opacity="1"/></g><g class="mark-text role-axis-title" pointer-events="none"><text text-anchor="middle" transform="translate(-29.8916015625,150) rotate(-90) translate(0,-2)" font-family="sans-serif" font-size="11px" font-weight="bold" fill="#000" opacity="1">Date_Payment_Made (month)</text></g></g><path class="foreground" aria-hidden="true" d="" pointer-events="none" display="none"/></g></g><g class="mark-symbol role-mark marks" role="graphics-object" aria-roledescription="symbol mark container"><path aria-label="Payment_Method_Code: MasterCard; Date_Payment_Made (month): Feb; Sum of Amount_Payment: 477623" role="graphics-symbol" aria-roledescription="circle" transform="translate(50,272.23880597014926)" d="M7.703,0A7.703,7.703,0,1,1,-7.703,0A7.703,7.703,0,1,1,7.703,0" fill="#4c78a8" stroke-width="2"/><path aria-label="Payment_Method_Code: MasterCard; Date_Payment_Made (month): May; Sum of Amount_Payment: 448613" role="graphics-symbol" aria-roledescription="circle" transform="translate(50,191.6417910447761)" d="M7.466,0A7.466,7.466,0,1,1,-7.466,0A7.466,7.466,0,1,1,7.466,0" fill="#4c78a8" stroke-width="2"/><path aria-label="Payment_Method_Code: MasterCard; Date_Payment_Made (month): Jun; Sum of Amount_Payment: 456098" role="graphics-symbol" aria-roledescription="circle" transform="translate(50,163.88059701492537)" d="M7.528,0A7.528,7.528,0,1,1,-7.528,0A7.528,7.528,0,1,1,7.528,0" fill="#4c78a8" stroke-width="2"/><path aria-label="Payment_Method_Code: Discover Card; Date_Payment_Made (month): Aug; Sum of Amount_Payment: 38324" role="graphics-symbol" aria-roledescription="circle" transform="translate(30,109.25373134328358)" d="M2.182,0A2.182,2.182,0,1,1,-2.182,0A2.182,2.182,0,1,1,2.182,0" fill="#4c78a8" stroke-width="2"/><path aria-label="Payment_Method_Code: MasterCard; Date_Payment_Made (month): Jan; Sum of Amount_Payment: 726377" role="graphics-symbol" aria-roledescription="circle" transform="translate(50,300)" d="M9.5,0A9.5,9.5,0,1,1,-9.5,0A9.5,9.5,0,1,1,9.5,0" fill="#4c78a8" stroke-width="2"/><path aria-label="Payment_Method_Code: Visa; Date_Payment_Made (month): Dec; Sum of Amount_Payment: 459407" role="graphics-symbol" aria-roledescription="circle" transform="translate(70,0)" d="M7.555,0A7.555,7.555,0,1,1,-7.555,0A7.555,7.555,0,1,1,7.555,0" fill="#4c78a8" stroke-width="2"/><path aria-label="Payment_Method_Code: Discover Card; Date_Payment_Made (month): Oct; Sum of Amount_Payment: 71246" role="graphics-symbol" aria-roledescription="circle" transform="translate(30,54.62686567164179)" d="M2.975,0A2.975,2.975,0,1,1,-2.975,0A2.975,2.975,0,1,1,2.975,0" fill="#4c78a8" stroke-width="2"/><path aria-label="Payment_Method_Code: Visa; Date_Payment_Made (month): Feb; Sum of Amount_Payment: 7343" role="graphics-symbol" aria-roledescription="circle" transform="translate(70,272.23880597014926)" d="M0.955,0A0.955,0.955,0,1,1,-0.955,0A0.955,0.955,0,1,1,0.955,0" fill="#4c78a8" stroke-width="2"/><path aria-label="Payment_Method_Code: Visa; Date_Payment_Made (month): May; Sum of Amount_Payment: 327963" role="graphics-symbol" aria-roledescription="circle" transform="translate(70,191.6417910447761)" d="M6.383,0A6.383,6.383,0,1,1,-6.383,0A6.383,6.383,0,1,1,6.383,0" fill="#4c78a8" stroke-width="2"/><path aria-label="Payment_Method_Code: MasterCard; Date_Payment_Made (month): Jul; Sum of Amount_Payment: 423154" role="graphics-symbol" aria-roledescription="circle" transform="translate(50,137.01492537313433)" d="M7.251,0A7.251,7.251,0,1,1,-7.251,0A7.251,7.251,0,1,1,7.251,0" fill="#4c78a8" stroke-width="2"/><path aria-label="Payment_Method_Code: Discover Card; Date_Payment_Made (month): May; Sum of Amount_Payment: 123255" role="graphics-symbol" aria-roledescription="circle" transform="translate(30,191.6417910447761)" d="M3.913,0A3.913,3.913,0,1,1,-3.913,0A3.913,3.913,0,1,1,3.913,0" fill="#4c78a8" stroke-width="2"/><path aria-label="Payment_Method_Code: American Express; Date_Payment_Made (month): Jan; Sum of Amount_Payment: 177130" role="graphics-symbol" aria-roledescription="circle" transform="translate(10,300)" d="M4.691,0A4.691,4.691,0,1,1,-4.691,0A4.691,4.691,0,1,1,4.691,0" fill="#4c78a8" stroke-width="2"/></g><g class="mark-group role-legend" role="graphics-symbol" aria-roledescription="legend" aria-label="Symbol legend titled 'Sum of Amount_Payment' for size with values from 0 to 726,377"><g transform="translate(98,0)"><path class="background" aria-hidden="true" d="M0,0h134v72h-134Z" pointer-events="none"/><g><g class="mark-group role-legend-entry"><g transform="translate(0,16)"><path class="background" aria-hidden="true" d="M0,0h0v0h0Z" pointer-events="none"/><g><g class="mark-group role-scope" role="graphics-object" aria-roledescription="group mark container"><g transform="translate(0,0)"><path class="background" aria-hidden="true" d="M0,0h59.1474609375v12.484912746173094h-59.1474609375Z" pointer-events="none" opacity="1"/><g><g class="mark-symbol role-legend-symbol" pointer-events="none"><path transform="translate(9.5,6)" d="M4.985,0A4.985,4.985,0,1,1,-4.985,0A4.985,4.985,0,1,1,4.985,0" fill="#4c78a8" stroke-width="1.5" opacity="1"/></g><g class="mark-text role-legend-label" pointer-events="none"><text text-anchor="start" transform="translate(23,9)" font-family="sans-serif" font-size="10px" fill="#000" opacity="1">200,000</text></g></g><path class="foreground" aria-hidden="true" d="" pointer-events="none" display="none"/></g><g transform="translate(0,16)"><path class="background" aria-hidden="true" d="M0,0h59.1474609375v16.549731212884495h-59.1474609375Z" pointer-events="none" opacity="1"/><g><g class="mark-symbol role-legend-symbol" pointer-events="none"><path transform="translate(9.5,8)" d="M7.05,0A7.05,7.05,0,1,1,-7.05,0A7.05,7.05,0,1,1,7.05,0" fill="#4c78a8" stroke-width="1.5" opacity="1"/></g><g class="mark-text role-legend-label" pointer-events="none"><text text-anchor="start" transform="translate(23,11)" font-family="sans-serif" font-size="10px" fill="#000" opacity="1">400,000</text></g></g><path class="foreground" aria-hidden="true" d="" pointer-events="none" display="none"/></g><g transform="translate(0,36)"><path class="background" aria-hidden="true" d="M0,0h59.1474609375v19.6341221476695h-59.1474609375Z" pointer-events="none" opacity="1"/><g><g class="mark-symbol role-legend-symbol" pointer-events="none"><path transform="translate(9.5,9.5)" d="M8.634,0A8.634,8.634,0,1,1,-8.634,0A8.634,8.634,0,1,1,8.634,0" fill="#4c78a8" stroke-width="1.5" opacity="1"/></g><g class="mark-text role-legend-label" pointer-events="none"><text text-anchor="start" transform="translate(23,12.5)" font-family="sans-serif" font-size="10px" fill="#000" opacity="1">600,000</text></g></g><path class="foreground" aria-hidden="true" d="" pointer-events="none" display="none"/></g></g></g><path class="foreground" aria-hidden="true" d="" pointer-events="none" display="none"/></g></g><g class="mark-text role-legend-title" pointer-events="none"><text text-anchor="start" transform="translate(0,9)" font-family="sans-serif" font-size="11px" font-weight="bold" fill="#000" opacity="1">Sum of Amount_Payme…</text></g></g><path class="foreground" aria-hidden="true" d="" pointer-events="none" display="none"/></g></g></g><path class="foreground" aria-hidden="true" d="" display="none"/></g></g></g></svg>