<svg xmlns="http://www.w3.org/2000/svg" xmlns:xlink="http://www.w3.org/1999/xlink" version="1.1" class="marks" width="435" height="256" viewBox="0 0 435 256"><rect width="435" height="256" fill="white"/><g fill="none" stroke-miterlimit="10" transform="translate(21,11)"><g class="mark-group role-frame root" role="graphics-object" aria-roledescription="group mark container"><g transform="translate(0,0)"><path class="background" aria-hidden="true" d="M0.5,0.5h300v20h-300Z" stroke="#ddd"/><g><g class="mark-group role-axis" aria-hidden="true"><g transform="translate(0.5,20.5)"><path class="background" aria-hidden="true" d="M0,0h0v0h0Z" pointer-events="none"/><g><g class="mark-rule role-axis-grid" pointer-events="none"><line transform="translate(20,0)" x2="0" y2="-20" stroke="#ddd" stroke-width="1" opacity="1"/><line transform="translate(50,0)" x2="0" y2="-20" stroke="#ddd" stroke-width="1" opacity="1"/><line transform="translate(80,0)" x2="0" y2="-20" stroke="#ddd" stroke-width="1" opacity="1"/><line transform="translate(110,0)" x2="0" y2="-20" stroke="#ddd" stroke-width="1" opacity="1"/><line transform="translate(140,0)" x2="0" y2="-20" stroke="#ddd" stroke-width="1" opacity="1"/><line transform="translate(170,0)" x2="0" y2="-20" stroke="#ddd" stroke-width="1" opacity="1"/><line transform="translate(200,0)" x2="0" y2="-20" stroke="#ddd" stroke-width="1" opacity="1"/><line transform="translate(230,0)" x2="0" y2="-20" stroke="#ddd" stroke-width="1" opacity="1"/><line transform="translate(260,0)" x2="0" y2="-20" stroke="#ddd" stroke-width="1" opacity="1"/><line transform="translate(290,0)" x2="0" y2="-20" stroke="#ddd" stroke-width="1" opacity="1"/></g></g><path class="foreground" aria-hidden="true" d="" pointer-events="none" display="none"/></g></g><g class="mark-group role-axis" role="graphics-symbol" aria-roledescription="axis" aria-label="X-axis titled 'Date_Claim_Made (year-month)' for a time scale with values from May 2016 to November 2018"><g transform="translate(0.5,20.5)"><path class="background" aria-hidden="true" d="M0,0h0v0h0Z" pointer-events="none"/><g><g class="mark-rule role-axis-tick" pointer-events="none"><line transform="translate(20,0)" x2="0" y2="5" stroke="#888" stroke-width="1" opacity="1"/><line transform="translate(50,0)" x2="0" y2="5" stroke="#888" stroke-width="1" opacity="1"/><line transform="translate(80,0)" x2="0" y2="5" stroke="#888" stroke-width="1" opacity="1"/><line transform="translate(110,0)" x2="0" y2="5" stroke="#888" stroke-width="1" opacity="1"/><line transform="translate(140,0)" x2="0" y2="5" stroke="#888" stroke-width="1" opacity="1"/><line transform="translate(170,0)" x2="0" y2="5" stroke="#888" stroke-width="1" opacity="1"/><line transform="translate(200,0)" x2="0" y2="5" stroke="#888" stroke-width="1" opacity="1"/><line transform="translate(230,0)" x2="0" y2="5" stroke="#888" stroke-width="1" opacity="1"/><line transform="translate(260,0)" x2="0" y2="5" stroke="#888" stroke-width="1" opacity="1"/><line transform="translate(290,0)" x2="0" y2="5" stroke="#888" stroke-width="1" opacity="1"/></g><g class="mark-text role-axis-label" pointer-events="none"><text text-anchor="middle" transform="translate(20.0218818380744,15)" font-family="sans-serif" font-size="10px" fill="#000" opacity="1">Jul 2016</text><text text-anchor="middle" transform="translate(50.21881838074398,15)" font-family="sans-serif" font-size="10px" fill="#000" opacity="0">Oct 2016</text><text text-anchor="middle" transform="translate(80.41575492341357,15)" font-family="sans-serif" font-size="10px" fill="#000" opacity="1">Jan 2017</text><text text-anchor="middle" transform="translate(109.95623632385121,15)" font-family="sans-serif" font-size="10px" fill="#000" opacity="0">Apr 2017</text><text text-anchor="middle" transform="translate(139.82494529540483,15)" font-family="sans-serif" font-size="10px" fill="#000" opacity="1">Jul 2017</text><text text-anchor="middle" transform="translate(170.0218818380744,15)" font-family="sans-serif" font-size="10px" fill="#000" opacity="0">Oct 2017</text><text text-anchor="middle" transform="translate(200.21881838074398,15)" font-family="sans-serif" font-size="10px" fill="#000" opacity="1">Jan 2018</text><text text-anchor="middle" transform="translate(229.75929978118162,15)" font-family="sans-serif" font-size="10px" fill="#000" opacity="0">Apr 2018</text><text text-anchor="middle" transform="translate(259.62800875273524,15)" font-family="sans-serif" font-size="10px" fill="#000" opacity="1">Jul 2018</text><text text-anchor="middle" transform="translate(289.8249452954048,15)" font-family="sans-serif" font-size="10px" fill="#000" opacity="0">Oct 2018</text></g><g class="mark-rule role-axis-domain" pointer-events="none"><line transform="translate(0,0)" x2="300" y2="0" stroke="#888" stroke-width="1" opacity="1"/></g><g class="mark-text role-axis-title" pointer-events="none"><text text-anchor="middle" transform="translate(150,30)" font-family="sans-serif" font-size="11px" font-weight="bold" fill="#000" opacity="1">Date_Claim_Made (year-month)</text></g></g><path class="foreground" aria-hidden="true" d="" pointer-events="none" display="none"/></g></g><g class="mark-symbol role-mark marks" role="graphics-object" aria-roledescription="symbol mark container"><path aria-label="Date_Claim_Made (year-month): Aug 2018; Amount_Settled: 1181; Amount_Claimed: 38543" role="graphics-symbol" aria-roledescription="circle" transform="translate(269.8030634573304,10)" d="M11.407,0A11.407,11.407,0,1,1,-11.407,0A11.407,11.407,0,1,1,11.407,0" fill="rgb(248, 149, 88)" stroke-width="2" opacity="0.7"/><path aria-label="Date_Claim_Made (year-month): Aug 2017; Amount_Settled: 1427; Amount_Claimed: 57669" role="graphics-symbol" aria-roledescription="circle" transform="translate(150,10)" d="M13.501,0A13.501,13.501,0,1,1,-13.501,0A13.501,13.501,0,1,1,13.501,0" fill="rgb(244, 247, 202)" stroke-width="2" opacity="0.7"/><path aria-label="Date_Claim_Made (year-month): Sep 2016; Amount_Settled: 1805; Amount_Claimed: 30954" role="graphics-symbol" aria-roledescription="circle" transform="translate(40.371991247264766,10)" d="M10.46,0A10.46,10.46,0,1,1,-10.46,0A10.46,10.46,0,1,1,10.46,0" fill="rgb(70, 106, 175)" stroke-width="2" opacity="0.7"/><path aria-label="Date_Claim_Made (year-month): May 2016; Amount_Settled: 1737; Amount_Claimed: 82506" role="graphics-symbol" aria-roledescription="circle" transform="translate(0,10)" d="M15.811,0A15.811,15.811,0,1,1,-15.811,0A15.811,15.811,0,1,1,15.811,0" fill="rgb(98, 146, 195)" stroke-width="2" opacity="0.7"/><path aria-label="Date_Claim_Made (year-month): May 2017; Amount_Settled: 1767; Amount_Claimed: 37302" role="graphics-symbol" aria-roledescription="circle" transform="translate(119.80306345733042,10)" d="M11.257,0A11.257,11.257,0,1,1,-11.257,0A11.257,11.257,0,1,1,11.257,0" fill="rgb(84, 129, 187)" stroke-width="2" opacity="0.7"/><path aria-label="Date_Claim_Made (year-month): Nov 2018; Amount_Settled: 930; Amount_Claimed: 25078" role="graphics-symbol" aria-roledescription="circle" transform="translate(300,10)" d="M9.664,0A9.664,9.664,0,1,1,-9.664,0A9.664,9.664,0,1,1,9.664,0" fill="rgb(165, 0, 38)" stroke-width="2" opacity="0.7"/><path aria-label="Date_Claim_Made (year-month): May 2018; Amount_Settled: 1516; Amount_Claimed: 16603" role="graphics-symbol" aria-roledescription="circle" transform="translate(239.60612691466085,10)" d="M8.383,0A8.383,8.383,0,1,1,-8.383,0A8.383,8.383,0,1,1,8.383,0" fill="rgb(213, 237, 235)" stroke-width="2" opacity="0.7"/><path aria-label="Date_Claim_Made (year-month): Jul 2016; Amount_Settled: 1676; Amount_Claimed: 62680" role="graphics-symbol" aria-roledescription="circle" transform="translate(20.0218818380744,10)" d="M13.998,0A13.998,13.998,0,1,1,-13.998,0A13.998,13.998,0,1,1,13.998,0" fill="rgb(127, 179, 213)" stroke-width="2" opacity="0.7"/><path aria-label="Date_Claim_Made (year-month): Apr 2017; Amount_Settled: 1698; Amount_Claimed: 4456" role="graphics-symbol" aria-roledescription="circle" transform="translate(109.95623632385121,10)" d="M6.095,0A6.095,6.095,0,1,1,-6.095,0A6.095,6.095,0,1,1,6.095,0" fill="rgb(115, 169, 207)" stroke-width="2" opacity="0.7"/><path aria-label="Date_Claim_Made (year-month): Jul 2017; Amount_Settled: 1262; Amount_Claimed: 24055" role="graphics-symbol" aria-roledescription="circle" transform="translate(139.82494529540483,10)" d="M9.518,0A9.518,9.518,0,1,1,-9.518,0A9.518,9.518,0,1,1,9.518,0" fill="rgb(253, 195, 121)" stroke-width="2" opacity="0.7"/><path aria-label="Date_Claim_Made (year-month): Sep 2017; Amount_Settled: 1266; Amount_Claimed: 32079" role="graphics-symbol" aria-roledescription="circle" transform="translate(160.1750547045952,10)" d="M10.606,0A10.606,10.606,0,1,1,-10.606,0A10.606,10.606,0,1,1,10.606,0" fill="rgb(253, 197, 123)" stroke-width="2" opacity="0.7"/><path aria-label="Date_Claim_Made (year-month): Mar 2017; Amount_Settled: 1508; Amount_Claimed: 56850" role="graphics-symbol" aria-roledescription="circle" transform="translate(99.781181619256,10)" d="M13.418,0A13.418,13.418,0,1,1,-13.418,0A13.418,13.418,0,1,1,13.418,0" fill="rgb(217, 240, 236)" stroke-width="2" opacity="0.7"/><path aria-label="Date_Claim_Made (year-month): Apr 2017; Amount_Settled: 1293; Amount_Claimed: 8634" role="graphics-symbol" aria-roledescription="circle" transform="translate(109.95623632385121,10)" d="M6.967,0A6.967,6.967,0,1,1,-6.967,0A6.967,6.967,0,1,1,6.967,0" fill="rgb(254, 211, 135)" stroke-width="2" opacity="0.7"/><path aria-label="Date_Claim_Made (year-month): Mar 2017; Amount_Settled: 1885; Amount_Claimed: 20569" role="graphics-symbol" aria-roledescription="circle" transform="translate(99.781181619256,10)" d="M9.005,0A9.005,9.005,0,1,1,-9.005,0A9.005,9.005,0,1,1,9.005,0" fill="rgb(49, 54, 149)" stroke-width="2" opacity="0.7"/><path aria-label="Date_Claim_Made (year-month): Jul 2016; Amount_Settled: 1042; Amount_Claimed: 3864" role="graphics-symbol" aria-roledescription="circle" transform="translate(20.0218818380744,10)" d="M5.961,0A5.961,5.961,0,1,1,-5.961,0A5.961,5.961,0,1,1,5.961,0" fill="rgb(217, 60, 48)" stroke-width="2" opacity="0.7"/></g><g class="mark-group role-legend" role="graphics-symbol" aria-roledescription="legend" aria-label="Gradient legend titled 'Amount_Settled' for fill color with values from 930 to 1,885"><g transform="translate(318,0)"><path class="background" aria-hidden="true" d="M0,0h85v80h-85Z" pointer-events="none"/><g><g class="mark-group role-legend-entry"><g transform="translate(0,16)"><path class="background" aria-hidden="true" d="M0,0h0v0h0Z" pointer-events="none"/><g><g class="mark-rect role-legend-gradient" pointer-events="none"><path d="M0,0h16v64h-16Z" fill="url(#gradient_0)" stroke="#ddd" stroke-width="0" opacity="0.7"/></g><g class="mark-text role-legend-label" pointer-events="none"><text text-anchor="start" transform="translate(18,62)" font-family="sans-serif" font-size="10px" fill="#000" opacity="1">930</text><text text-anchor="start" transform="translate(18,8)" font-family="sans-serif" font-size="10px" fill="#000" opacity="1">1,885</text></g></g><path class="foreground" aria-hidden="true" d="" pointer-events="none" display="none"/></g></g><g class="mark-text role-legend-title" pointer-events="none"><text text-anchor="start" transform="translate(0,9)" font-family="sans-serif" font-size="11px" font-weight="bold" fill="#000" opacity="1">Amount_Settled</text></g></g><path class="foreground" aria-hidden="true" d="" pointer-events="none" display="none"/></g></g><g class="mark-group role-legend" role="graphics-symbol" aria-roledescription="legend" aria-label="Symbol legend titled 'Amount_Claimed' for size with values from 0 to 82,506"><g transform="translate(318,88)"><path class="background" aria-hidden="true" d="M0,0h91v152h-91Z" pointer-events="none"/><g><g class="mark-group role-legend-entry"><g transform="translate(0,16)"><path class="background" aria-hidden="true" d="M0,0h0v0h0Z" pointer-events="none"/><g><g class="mark-group role-scope" role="graphics-object" aria-roledescription="group mark container"><g transform="translate(0,0)"><path class="background" aria-hidden="true" d="M0,0h67.5859375v12.5h-67.5859375Z" pointer-events="none" opacity="1"/><g><g class="mark-symbol role-legend-symbol" pointer-events="none"><path transform="translate(16.5,6)" d="M5,0A5,5,0,1,1,-5,0A5,5,0,1,1,5,0" fill="black" fill-opacity="0.7" stroke-width="1.5" opacity="0.7"/></g><g class="mark-text role-legend-label" pointer-events="none"><text text-anchor="start" transform="translate(37,9)" font-family="sans-serif" font-size="10px" fill="#000" opacity="1">0</text></g></g><path class="foreground" aria-hidden="true" d="" pointer-events="none" display="none"/></g><g transform="translate(0,16)"><path class="background" aria-hidden="true" d="M0,0h67.5859375v20.418603472057143h-67.5859375Z" pointer-events="none" opacity="1"/><g><g class="mark-symbol role-legend-symbol" pointer-events="none"><path transform="translate(16.5,10)" d="M8.919,0A8.919,8.919,0,1,1,-8.919,0A8.919,8.919,0,1,1,8.919,0" fill="black" fill-opacity="0.7" stroke-width="1.5" opacity="0.7"/></g><g class="mark-text role-legend-label" pointer-events="none"><text text-anchor="start" transform="translate(37,13)" font-family="sans-serif" font-size="10px" fill="#000" opacity="1">20,000</text></g></g><path class="foreground" aria-hidden="true" d="" pointer-events="none" display="none"/></g><g transform="translate(0,40)"><path class="background" aria-hidden="true" d="M0,0h67.5859375v25.57942035611366h-67.5859375Z" pointer-events="none" opacity="1"/><g><g class="mark-symbol role-legend-symbol" pointer-events="none"><path transform="translate(16.5,12.5)" d="M11.579,0A11.579,11.579,0,1,1,-11.579,0A11.579,11.579,0,1,1,11.579,0" fill="black" fill-opacity="0.7" stroke-width="1.5" opacity="0.7"/></g><g class="mark-text role-legend-label" pointer-events="none"><text text-anchor="start" transform="translate(37,15.5)" font-family="sans-serif" font-size="10px" fill="#000" opacity="1">40,000</text></g></g><path class="foreground" aria-hidden="true" d="" pointer-events="none" display="none"/></g><g transform="translate(0,69)"><path class="background" aria-hidden="true" d="M0,0h67.5859375v29.734062169488283h-67.5859375Z" pointer-events="none" opacity="1"/><g><g class="mark-symbol role-legend-symbol" pointer-events="none"><path transform="translate(16.5,14.5)" d="M13.734,0A13.734,13.734,0,1,1,-13.734,0A13.734,13.734,0,1,1,13.734,0" fill="black" fill-opacity="0.7" stroke-width="1.5" opacity="0.7"/></g><g class="mark-text role-legend-label" pointer-events="none"><text text-anchor="start" transform="translate(37,17.5)" font-family="sans-serif" font-size="10px" fill="#000" opacity="1">60,000</text></g></g><path class="foreground" aria-hidden="true" d="" pointer-events="none" display="none"/></g><g transform="translate(0,102)"><path class="background" aria-hidden="true" d="M0,0h67.5859375v33.59377925863896h-67.5859375Z" pointer-events="none" opacity="1"/><g><g class="mark-symbol role-legend-symbol" pointer-events="none"><path transform="translate(16.5,16.5)" d="M15.594,0A15.594,15.594,0,1,1,-15.594,0A15.594,15.594,0,1,1,15.594,0" fill="black" fill-opacity="0.7" stroke-width="1.5" opacity="0.7"/></g><g class="mark-text role-legend-label" pointer-events="none"><text text-anchor="start" transform="translate(37,19.5)" font-family="sans-serif" font-size="10px" fill="#000" opacity="1">80,000</text></g></g><path class="foreground" aria-hidden="true" d="" pointer-events="none" display="none"/></g></g></g><path class="foreground" aria-hidden="true" d="" pointer-events="none" display="none"/></g></g><g class="mark-text role-legend-title" pointer-events="none"><text text-anchor="start" transform="translate(0,9)" font-family="sans-serif" font-size="11px" font-weight="bold" fill="#000" opacity="1">Amount_Claimed</text></g></g><path class="foreground" aria-hidden="true" d="" pointer-events="none" display="none"/></g></g></g><path class="foreground" aria-hidden="true" d="" display="none"/></g></g></g><defs><linearGradient id="gradient_0" x1="0" x2="0" y1="1" y2="0"><stop offset="0" stop-color="rgb(165, 0, 38)"/><stop offset="0.020942408376963352" stop-color="rgb(175, 10, 39)"/><stop offset="0.07329842931937172" stop-color="rgb(199, 37, 42)"/><stop offset="0.1256544502617801" stop-color="rgb(219, 65, 50)"/><stop offset="0.17801047120418848" stop-color="rgb(235, 97, 62)"/><stop offset="0.23036649214659685" stop-color="rgb(244, 129, 77)"/><stop offset="0.28272251308900526" stop-color="rgb(250, 161, 94)"/><stop offset="0.33507853403141363" stop-color="rgb(253, 189, 115)"/><stop offset="0.387434554973822" stop-color="rgb(254, 215, 138)"/><stop offset="0.4397905759162304" stop-color="rgb(252, 232, 163)"/><stop offset="0.49214659685863876" stop-color="rgb(250, 246, 189)"/><stop offset="0.5445026178010471" stop-color="rgb(237, 245, 212)"/><stop offset="0.5968586387434555" stop-color="rgb(221, 241, 235)"/><stop offset="0.6492146596858639" stop-color="rgb(196, 228, 234)"/><stop offset="0.7015706806282722" stop-color="rgb(170, 213, 232)"/><stop offset="0.7539267015706806" stop-color="rgb(142, 191, 219)"/><stop offset="0.806282722513089" stop-color="rgb(114, 168, 206)"/><stop offset="0.8586387434554974" stop-color="rgb(92, 139, 192)"/><stop offset="0.9109947643979057" stop-color="rgb(71, 109, 177)"/><stop offset="0.9633507853403142" stop-color="rgb(58, 77, 160)"/><stop offset="1" stop-color="rgb(49, 54, 149)"/></linearGradient></defs></svg>