<svg xmlns="http://www.w3.org/2000/svg" xmlns:xlink="http://www.w3.org/1999/xlink" version="1.1" class="marks" width="224" height="343" viewBox="0 0 224 343"><rect width="224" height="343" fill="white"/><g fill="none" stroke-miterlimit="10" transform="translate(39,10)"><g class="mark-group role-frame root" role="graphics-object" aria-roledescription="group mark container"><g transform="translate(0,0)"><path class="background" aria-hidden="true" d="M0.5,0.5h180v300h-180Z" stroke="#ddd"/><g><g class="mark-group role-axis" aria-hidden="true"><g transform="translate(0.5,0.5)"><path class="background" aria-hidden="true" d="M0,0h0v0h0Z" pointer-events="none"/><g><g class="mark-rule role-axis-grid" pointer-events="none"><line transform="translate(0,300)" x2="180" y2="0" stroke="#ddd" stroke-width="1" opacity="1"/><line transform="translate(0,273)" x2="180" y2="0" stroke="#ddd" stroke-width="1" opacity="1"/><line transform="translate(0,245)" x2="180" y2="0" stroke="#ddd" stroke-width="1" opacity="1"/><line transform="translate(0,218)" x2="180" y2="0" stroke="#ddd" stroke-width="1" opacity="1"/><line transform="translate(0,191)" x2="180" y2="0" stroke="#ddd" stroke-width="1" opacity="1"/><line transform="translate(0,164)" x2="180" y2="0" stroke="#ddd" stroke-width="1" opacity="1"/><line transform="translate(0,136)" x2="180" y2="0" stroke="#ddd" stroke-width="1" opacity="1"/><line transform="translate(0,109)" x2="180" y2="0" stroke="#ddd" stroke-width="1" opacity="1"/><line transform="translate(0,82)" x2="180" y2="0" stroke="#ddd" stroke-width="1" opacity="1"/><line transform="translate(0,55)" x2="180" y2="0" stroke="#ddd" stroke-width="1" opacity="1"/><line transform="translate(0,27)" x2="180" y2="0" stroke="#ddd" stroke-width="1" opacity="1"/><line transform="translate(0,0)" x2="180" y2="0" stroke="#ddd" stroke-width="1" opacity="1"/></g></g><path class="foreground" aria-hidden="true" d="" pointer-events="none" display="none"/></g></g><g class="mark-group role-axis" role="graphics-symbol" aria-roledescription="axis" aria-label="X-axis titled 'Editor_ID' for a discrete scale with 9 values: 1, 2, 3, 4, 5, ending with 9"><g transform="translate(0.5,300.5)"><path class="background" aria-hidden="true" d="M0,0h0v0h0Z" pointer-events="none"/><g><g class="mark-rule role-axis-tick" pointer-events="none"><line transform="translate(10,0)" x2="0" y2="5" stroke="#888" stroke-width="1" opacity="1"/><line transform="translate(30,0)" x2="0" y2="5" stroke="#888" stroke-width="1" opacity="1"/><line transform="translate(50,0)" x2="0" y2="5" stroke="#888" stroke-width="1" opacity="1"/><line transform="translate(70,0)" x2="0" y2="5" stroke="#888" stroke-width="1" opacity="1"/><line transform="translate(90,0)" x2="0" y2="5" stroke="#888" stroke-width="1" opacity="1"/><line transform="translate(110,0)" x2="0" y2="5" stroke="#888" stroke-width="1" opacity="1"/><line transform="translate(130,0)" x2="0" y2="5" stroke="#888" stroke-width="1" opacity="1"/><line transform="translate(150,0)" x2="0" y2="5" stroke="#888" stroke-width="1" opacity="1"/><line transform="translate(170,0)" x2="0" y2="5" stroke="#888" stroke-width="1" opacity="1"/></g><g class="mark-text role-axis-label" pointer-events="none"><text text-anchor="end" transform="translate(10,7) rotate(270) translate(0,3)" font-family="sans-serif" font-size="10px" fill="#000" opacity="1">1</text><text text-anchor="end" transform="translate(30,7) rotate(270) translate(0,3)" font-family="sans-serif" font-size="10px" fill="#000" opacity="1">2</text><text text-anchor="end" transform="translate(50,7) rotate(270) translate(0,3)" font-family="sans-serif" font-size="10px" fill="#000" opacity="1">3</text><text text-anchor="end" transform="translate(70,7) rotate(270) translate(0,3)" font-family="sans-serif" font-size="10px" fill="#000" opacity="1">4</text><text text-anchor="end" transform="translate(90,7) rotate(270) translate(0,3)" font-family="sans-serif" font-size="10px" fill="#000" opacity="1">5</text><text text-anchor="end" transform="translate(110,7) rotate(270) translate(0,3)" font-family="sans-serif" font-size="10px" fill="#000" opacity="1">6</text><text text-anchor="end" transform="translate(130,7) rotate(270) translate(0,3)" font-family="sans-serif" font-size="10px" fill="#000" opacity="1">7</text><text text-anchor="end" transform="translate(150,7) rotate(270) translate(0,3)" font-family="sans-serif" font-size="10px" fill="#000" opacity="1">8</text><text text-anchor="end" transform="translate(170,7) rotate(270) translate(0,3)" font-family="sans-serif" font-size="10px" fill="#000" opacity="1">9</text></g><g class="mark-rule role-axis-domain" pointer-events="none"><line transform="translate(0,0)" x2="180" y2="0" stroke="#888" stroke-width="1" opacity="1"/></g><g class="mark-text role-axis-title" pointer-events="none"><text text-anchor="middle" transform="translate(90,25.5615234375)" font-family="sans-serif" font-size="11px" font-weight="bold" fill="#000" opacity="1">Editor_ID</text></g></g><path class="foreground" aria-hidden="true" d="" pointer-events="none" display="none"/></g></g><g class="mark-group role-axis" role="graphics-symbol" aria-roledescription="axis" aria-label="Y-axis titled 'Age' for a linear scale with values from 0 to 55"><g transform="translate(0.5,0.5)"><path class="background" aria-hidden="true" d="M0,0h0v0h0Z" pointer-events="none"/><g><g class="mark-rule role-axis-tick" pointer-events="none"><line transform="translate(0,300)" x2="-5" y2="0" stroke="#888" stroke-width="1" opacity="1"/><line transform="translate(0,273)" x2="-5" y2="0" stroke="#888" stroke-width="1" opacity="1"/><line transform="translate(0,245)" x2="-5" y2="0" stroke="#888" stroke-width="1" opacity="1"/><line transform="translate(0,218)" x2="-5" y2="0" stroke="#888" stroke-width="1" opacity="1"/><line transform="translate(0,191)" x2="-5" y2="0" stroke="#888" stroke-width="1" opacity="1"/><line transform="translate(0,164)" x2="-5" y2="0" stroke="#888" stroke-width="1" opacity="1"/><line transform="translate(0,136)" x2="-5" y2="0" stroke="#888" stroke-width="1" opacity="1"/><line transform="translate(0,109)" x2="-5" y2="0" stroke="#888" stroke-width="1" opacity="1"/><line transform="translate(0,82)" x2="-5" y2="0" stroke="#888" stroke-width="1" opacity="1"/><line transform="translate(0,55)" x2="-5" y2="0" stroke="#888" stroke-width="1" opacity="1"/><line transform="translate(0,27)" x2="-5" y2="0" stroke="#888" stroke-width="1" opacity="1"/><line transform="translate(0,0)" x2="-5" y2="0" stroke="#888" stroke-width="1" opacity="1"/></g><g class="mark-text role-axis-label" pointer-events="none"><text text-anchor="end" transform="translate(-7,303)" font-family="sans-serif" font-size="10px" fill="#000" opacity="1">0</text><text text-anchor="end" transform="translate(-7,275.7272727272727)" font-family="sans-serif" font-size="10px" fill="#000" opacity="1">5</text><text text-anchor="end" transform="translate(-7,248.45454545454544)" font-family="sans-serif" font-size="10px" fill="#000" opacity="1">10</text><text text-anchor="end" transform="translate(-7,221.1818181818182)" font-family="sans-serif" font-size="10px" fill="#000" opacity="1">15</text><text text-anchor="end" transform="translate(-7,193.9090909090909)" font-family="sans-serif" font-size="10px" fill="#000" opacity="1">20</text><text text-anchor="end" transform="translate(-7,166.63636363636363)" font-family="sans-serif" font-size="10px" fill="#000" opacity="1">25</text><text text-anchor="end" transform="translate(-7,139.36363636363637)" font-family="sans-serif" font-size="10px" fill="#000" opacity="1">30</text><text text-anchor="end" transform="translate(-7,112.0909090909091)" font-family="sans-serif" font-size="10px" fill="#000" opacity="1">35</text><text text-anchor="end" transform="translate(-7,84.81818181818181)" font-family="sans-serif" font-size="10px" fill="#000" opacity="1">40</text><text text-anchor="end" transform="translate(-7,57.54545454545453)" font-family="sans-serif" font-size="10px" fill="#000" opacity="1">45</text><text text-anchor="end" transform="translate(-7,30.27272727272728)" font-family="sans-serif" font-size="10px" fill="#000" opacity="1">50</text><text text-anchor="end" transform="translate(-7,3)" font-family="sans-serif" font-size="10px" fill="#000" opacity="1">55</text></g><g class="mark-rule role-axis-domain" pointer-events="none"><line transform="translate(0,300)" x2="0" y2="-300" stroke="#888" stroke-width="1" opacity="1"/></g><g class="mark-text role-axis-title" pointer-events="none"><text text-anchor="middle" transform="translate(-22.123046875,150) rotate(-90) translate(0,-2)" font-family="sans-serif" font-size="11px" font-weight="bold" fill="#000" opacity="1">Age</text></g></g><path class="foreground" aria-hidden="true" d="" pointer-events="none" display="none"/></g></g><g class="mark-symbol role-mark marks" role="graphics-object" aria-roledescription="symbol mark container"><path aria-label="Editor_ID: 1; Age: 34; Name: Kamila Porczyk" role="graphics-symbol" aria-roledescription="circle" transform="translate(10,114.54545454545455)" d="M2.739,0A2.739,2.739,0,1,1,-2.739,0A2.739,2.739,0,1,1,2.739,0" fill="#4c78a8" stroke-width="2" opacity="0.7"/><path aria-label="Editor_ID: 2; Age: 35; Name: Anna Powierza" role="graphics-symbol" aria-roledescription="circle" transform="translate(30,109.0909090909091)" d="M2.739,0A2.739,2.739,0,1,1,-2.739,0A2.739,2.739,0,1,1,2.739,0" fill="#4c78a8" stroke-width="2" opacity="0.7"/><path aria-label="Editor_ID: 3; Age: 21; Name: Marek Siudym" role="graphics-symbol" aria-roledescription="circle" transform="translate(50,185.45454545454544)" d="M2.739,0A2.739,2.739,0,1,1,-2.739,0A2.739,2.739,0,1,1,2.739,0" fill="#4c78a8" stroke-width="2" opacity="0.7"/><path aria-label="Editor_ID: 4; Age: 43; Name: Piotr Pręgowski" role="graphics-symbol" aria-roledescription="circle" transform="translate(70,65.45454545454544)" d="M2.739,0A2.739,2.739,0,1,1,-2.739,0A2.739,2.739,0,1,1,2.739,0" fill="#4c78a8" stroke-width="2" opacity="0.7"/><path aria-label="Editor_ID: 5; Age: 20; Name: Szymon Wydra" role="graphics-symbol" aria-roledescription="circle" transform="translate(90,190.9090909090909)" d="M2.739,0A2.739,2.739,0,1,1,-2.739,0A2.739,2.739,0,1,1,2.739,0" fill="#4c78a8" stroke-width="2" opacity="0.7"/><path aria-label="Editor_ID: 6; Age: 24; Name: Władysław Grzywna" role="graphics-symbol" aria-roledescription="circle" transform="translate(110,169.09090909090912)" d="M2.739,0A2.739,2.739,0,1,1,-2.739,0A2.739,2.739,0,1,1,2.739,0" fill="#4c78a8" stroke-width="2" opacity="0.7"/><path aria-label="Editor_ID: 7; Age: 25; Name: Mariusz Zalejski" role="graphics-symbol" aria-roledescription="circle" transform="translate(130,163.63636363636363)" d="M2.739,0A2.739,2.739,0,1,1,-2.739,0A2.739,2.739,0,1,1,2.739,0" fill="#4c78a8" stroke-width="2" opacity="0.7"/><path aria-label="Editor_ID: 8; Age: 54; Name: Grażyna Wolszczak" role="graphics-symbol" aria-roledescription="circle" transform="translate(150,5.454545454545457)" d="M2.739,0A2.739,2.739,0,1,1,-2.739,0A2.739,2.739,0,1,1,2.739,0" fill="#4c78a8" stroke-width="2" opacity="0.7"/><path aria-label="Editor_ID: 9; Age: 38; Name: Maria Góralczyk" role="graphics-symbol" aria-roledescription="circle" transform="translate(170,92.72727272727272)" d="M2.739,0A2.739,2.739,0,1,1,-2.739,0A2.739,2.739,0,1,1,2.739,0" fill="#4c78a8" stroke-width="2" opacity="0.7"/></g></g><path class="foreground" aria-hidden="true" d="" display="none"/></g></g></g></svg>