<svg xmlns="http://www.w3.org/2000/svg" xmlns:xlink="http://www.w3.org/1999/xlink" version="1.1" class="marks" width="347" height="228" viewBox="0 0 347 228"><rect width="347" height="228" fill="white"/><g fill="none" stroke-miterlimit="10" transform="translate(105,5)"><g class="mark-group role-frame root" role="graphics-object" aria-roledescription="group mark container"><g transform="translate(0,0)"><path class="background" aria-hidden="true" d="M0.5,0.5h180v60h-180Z" stroke="#ddd"/><g><g class="mark-group role-axis" role="graphics-symbol" aria-roledescription="axis" aria-label="X-axis titled 'Music_Festival' for a discrete scale with 9 values: 34th England Academy Prize, 34th European Academy Prize, 34th Japan Academy Prize, 34th USA Academy Prize, 35th China Academy Prize, ending with 40th Japan Academy Prize"><g transform="translate(0.5,60.5)"><path class="background" aria-hidden="true" d="M0,0h0v0h0Z" pointer-events="none"/><g><g class="mark-rule role-axis-tick" pointer-events="none"><line transform="translate(10,0)" x2="0" y2="5" stroke="#888" stroke-width="1" opacity="1"/><line transform="translate(30,0)" x2="0" y2="5" stroke="#888" stroke-width="1" opacity="1"/><line transform="translate(50,0)" x2="0" y2="5" stroke="#888" stroke-width="1" opacity="1"/><line transform="translate(70,0)" x2="0" y2="5" stroke="#888" stroke-width="1" opacity="1"/><line transform="translate(90,0)" x2="0" y2="5" stroke="#888" stroke-width="1" opacity="1"/><line transform="translate(110,0)" x2="0" y2="5" stroke="#888" stroke-width="1" opacity="1"/><line transform="translate(130,0)" x2="0" y2="5" stroke="#888" stroke-width="1" opacity="1"/><line transform="translate(150,0)" x2="0" y2="5" stroke="#888" stroke-width="1" opacity="1"/><line transform="translate(170,0)" x2="0" y2="5" stroke="#888" stroke-width="1" opacity="1"/></g><g class="mark-text role-axis-label" pointer-events="none"><text text-anchor="end" transform="translate(10,7) rotate(270) translate(0,3)" font-family="sans-serif" font-size="10px" fill="#000" opacity="1">34th England Academy …</text><text text-anchor="end" transform="translate(30,7) rotate(270) translate(0,3)" font-family="sans-serif" font-size="10px" fill="#000" opacity="1">34th European Academy…</text><text text-anchor="end" transform="translate(50,7) rotate(270) translate(0,3)" font-family="sans-serif" font-size="10px" fill="#000" opacity="1">34th Japan Academy Pr…</text><text text-anchor="end" transform="translate(70,7) rotate(270) translate(0,3)" font-family="sans-serif" font-size="10px" fill="#000" opacity="1">34th USA Academy Prize</text><text text-anchor="end" transform="translate(90,7) rotate(270) translate(0,3)" font-family="sans-serif" font-size="10px" fill="#000" opacity="1">35th China Academy Pr…</text><text text-anchor="end" transform="translate(110,7) rotate(270) translate(0,3)" font-family="sans-serif" font-size="10px" fill="#000" opacity="1">36th Japan Academy Pr…</text><text text-anchor="end" transform="translate(130,7) rotate(270) translate(0,3)" font-family="sans-serif" font-size="10px" fill="#000" opacity="1">37th Canadian Academy…</text><text text-anchor="end" transform="translate(150,7) rotate(270) translate(0,3)" font-family="sans-serif" font-size="10px" fill="#000" opacity="1">37th Sweden Academy P…</text><text text-anchor="end" transform="translate(170,7) rotate(270) translate(0,3)" font-family="sans-serif" font-size="10px" fill="#000" opacity="1">40th Japan Academy Pr…</text></g><g class="mark-rule role-axis-domain" pointer-events="none"><line transform="translate(0,0)" x2="180" y2="0" stroke="#888" stroke-width="1" opacity="1"/></g><g class="mark-text role-axis-title" pointer-events="none"><text text-anchor="middle" transform="translate(90,155.0830078125)" font-family="sans-serif" font-size="11px" font-weight="bold" fill="#000" opacity="1">Music_Festival</text></g></g><path class="foreground" aria-hidden="true" d="" pointer-events="none" display="none"/></g></g><g class="mark-group role-axis" role="graphics-symbol" aria-roledescription="axis" aria-label="Y-axis titled 'Category' for a discrete scale with 3 values: Best Lyrics, Best Song, Best Sound Song"><g transform="translate(0.5,0.5)"><path class="background" aria-hidden="true" d="M0,0h0v0h0Z" pointer-events="none"/><g><g class="mark-rule role-axis-tick" pointer-events="none"><line transform="translate(0,10)" x2="-5" y2="0" stroke="#888" stroke-width="1" opacity="1"/><line transform="translate(0,30)" x2="-5" y2="0" stroke="#888" stroke-width="1" opacity="1"/><line transform="translate(0,50)" x2="-5" y2="0" stroke="#888" stroke-width="1" opacity="1"/></g><g class="mark-text role-axis-label" pointer-events="none"><text text-anchor="end" transform="translate(-7,13)" font-family="sans-serif" font-size="10px" fill="#000" opacity="1">Best Lyrics</text><text text-anchor="end" transform="translate(-7,33)" font-family="sans-serif" font-size="10px" fill="#000" opacity="1">Best Song</text><text text-anchor="end" transform="translate(-7,53)" font-family="sans-serif" font-size="10px" fill="#000" opacity="1">Best Sound Song</text></g><g class="mark-rule role-axis-domain" pointer-events="none"><line transform="translate(0,0)" x2="0" y2="60" stroke="#888" stroke-width="1" opacity="1"/></g><g class="mark-text role-axis-title" pointer-events="none"><text text-anchor="middle" transform="translate(-88.8369140625,30) rotate(-90) translate(0,-2)" font-family="sans-serif" font-size="11px" font-weight="bold" fill="#000" opacity="1">Category</text></g></g><path class="foreground" aria-hidden="true" d="" pointer-events="none" display="none"/></g></g><g class="mark-symbol role-mark marks" role="graphics-object" aria-roledescription="symbol mark container"><path aria-label="Music_Festival: 34th England Academy Prize; Category: Best Song; Volume: 1" role="graphics-symbol" aria-roledescription="circle" transform="translate(10,30)" d="M3.167,0A3.167,3.167,0,1,1,-3.167,0A3.167,3.167,0,1,1,3.167,0" fill="#4c78a8" stroke-width="2" opacity="0.7"/><path aria-label="Music_Festival: 34th Japan Academy Prize; Category: Best Lyrics; Volume: 2" role="graphics-symbol" aria-roledescription="circle" transform="translate(50,10)" d="M4.478,0A4.478,4.478,0,1,1,-4.478,0A4.478,4.478,0,1,1,4.478,0" fill="#4c78a8" stroke-width="2" opacity="0.7"/><path aria-label="Music_Festival: 34th European Academy Prize; Category: Best Song; Volume: 3" role="graphics-symbol" aria-roledescription="circle" transform="translate(30,30)" d="M5.485,0A5.485,5.485,0,1,1,-5.485,0A5.485,5.485,0,1,1,5.485,0" fill="#4c78a8" stroke-width="2" opacity="0.7"/><path aria-label="Music_Festival: 36th Japan Academy Prize; Category: Best Song; Volume: 4" role="graphics-symbol" aria-roledescription="circle" transform="translate(110,30)" d="M6.333,0A6.333,6.333,0,1,1,-6.333,0A6.333,6.333,0,1,1,6.333,0" fill="#4c78a8" stroke-width="2" opacity="0.7"/><path aria-label="Music_Festival: 34th USA Academy Prize; Category: Best Song; Volume: 5" role="graphics-symbol" aria-roledescription="circle" transform="translate(70,30)" d="M7.081,0A7.081,7.081,0,1,1,-7.081,0A7.081,7.081,0,1,1,7.081,0" fill="#4c78a8" stroke-width="2" opacity="0.7"/><path aria-label="Music_Festival: 40th Japan Academy Prize; Category: Best Song; Volume: 6" role="graphics-symbol" aria-roledescription="circle" transform="translate(170,30)" d="M7.757,0A7.757,7.757,0,1,1,-7.757,0A7.757,7.757,0,1,1,7.757,0" fill="#4c78a8" stroke-width="2" opacity="0.7"/><path aria-label="Music_Festival: 37th Sweden Academy Prize; Category: Best Lyrics; Volume: 7" role="graphics-symbol" aria-roledescription="circle" transform="translate(150,10)" d="M8.378,0A8.378,8.378,0,1,1,-8.378,0A8.378,8.378,0,1,1,8.378,0" fill="#4c78a8" stroke-width="2" opacity="0.7"/><path aria-label="Music_Festival: 37th Canadian Academy Prize; Category: Best Lyrics; Volume: 8" role="graphics-symbol" aria-roledescription="circle" transform="translate(130,10)" d="M8.957,0A8.957,8.957,0,1,1,-8.957,0A8.957,8.957,0,1,1,8.957,0" fill="#4c78a8" stroke-width="2" opacity="0.7"/><path aria-label="Music_Festival: 35th China Academy Prize; Category: Best Sound Song; Volume: 9" role="graphics-symbol" aria-roledescription="circle" transform="translate(90,50)" d="M9.5,0A9.5,9.5,0,1,1,-9.5,0A9.5,9.5,0,1,1,9.5,0" fill="#4c78a8" stroke-width="2" opacity="0.7"/></g><g class="mark-group role-legend" role="graphics-symbol" aria-roledescription="legend" aria-label="Symbol legend titled 'Volume' for size with values from 0 to 9"><g transform="translate(198,0)"><path class="background" aria-hidden="true" d="M0,0h39v93h-39Z" pointer-events="none"/><g><g class="mark-group role-legend-entry"><g transform="translate(0,16)"><path class="background" aria-hidden="true" d="M0,0h0v0h0Z" pointer-events="none"/><g><g class="mark-group role-scope" role="graphics-object" aria-roledescription="group mark container"><g transform="translate(0,0)"><path class="background" aria-hidden="true" d="M0,0h29.5615234375v11.4783429475148h-29.5615234375Z" pointer-events="none" opacity="1"/><g><g class="mark-symbol role-legend-symbol" pointer-events="none"><path transform="translate(10,5.5)" d="M4.478,0A4.478,4.478,0,1,1,-4.478,0A4.478,4.478,0,1,1,4.478,0" fill="#4c78a8" stroke-width="1.5" opacity="0.7"/></g><g class="mark-text role-legend-label" pointer-events="none"><text text-anchor="start" transform="translate(24,8.5)" font-family="sans-serif" font-size="10px" fill="#000" opacity="1">2</text></g></g><path class="foreground" aria-hidden="true" d="" pointer-events="none" display="none"/></g><g transform="translate(0,15)"><path class="background" aria-hidden="true" d="M0,0h29.5615234375v15.333333333333332h-29.5615234375Z" pointer-events="none" opacity="1"/><g><g class="mark-symbol role-legend-symbol" pointer-events="none"><path transform="translate(10,7.5)" d="M6.333,0A6.333,6.333,0,1,1,-6.333,0A6.333,6.333,0,1,1,6.333,0" fill="#4c78a8" stroke-width="1.5" opacity="0.7"/></g><g class="mark-text role-legend-label" pointer-events="none"><text text-anchor="start" transform="translate(24,10.5)" font-family="sans-serif" font-size="10px" fill="#000" opacity="1">4</text></g></g><path class="foreground" aria-hidden="true" d="" pointer-events="none" display="none"/></g><g transform="translate(0,34)"><path class="background" aria-hidden="true" d="M0,0h29.5615234375v18.256717518813396h-29.5615234375Z" pointer-events="none" opacity="1"/><g><g class="mark-symbol role-legend-symbol" pointer-events="none"><path transform="translate(10,9)" d="M7.757,0A7.757,7.757,0,1,1,-7.757,0A7.757,7.757,0,1,1,7.757,0" fill="#4c78a8" stroke-width="1.5" opacity="0.7"/></g><g class="mark-text role-legend-label" pointer-events="none"><text text-anchor="start" transform="translate(24,12)" font-family="sans-serif" font-size="10px" fill="#000" opacity="1">6</text></g></g><path class="foreground" aria-hidden="true" d="" pointer-events="none" display="none"/></g><g transform="translate(0,56)"><path class="background" aria-hidden="true" d="M0,0h29.5615234375v20.456685895029608h-29.5615234375Z" pointer-events="none" opacity="1"/><g><g class="mark-symbol role-legend-symbol" pointer-events="none"><path transform="translate(10,10)" d="M8.957,0A8.957,8.957,0,1,1,-8.957,0A8.957,8.957,0,1,1,8.957,0" fill="#4c78a8" stroke-width="1.5" opacity="0.7"/></g><g class="mark-text role-legend-label" pointer-events="none"><text text-anchor="start" transform="translate(24,13)" font-family="sans-serif" font-size="10px" fill="#000" opacity="1">8</text></g></g><path class="foreground" aria-hidden="true" d="" pointer-events="none" display="none"/></g></g></g><path class="foreground" aria-hidden="true" d="" pointer-events="none" display="none"/></g></g><g class="mark-text role-legend-title" pointer-events="none"><text text-anchor="start" transform="translate(0,9)" font-family="sans-serif" font-size="11px" font-weight="bold" fill="#000" opacity="1">Volume</text></g></g><path class="foreground" aria-hidden="true" d="" pointer-events="none" display="none"/></g></g></g><path class="foreground" aria-hidden="true" d="" display="none"/></g></g></g></svg>