<svg xmlns="http://www.w3.org/2000/svg" xmlns:xlink="http://www.w3.org/1999/xlink" version="1.1" class="marks" width="202" height="403" viewBox="0 0 202 403"><rect width="202" height="403" fill="white"/><g fill="none" stroke-miterlimit="10" transform="translate(39,15)"><g class="mark-group role-frame root" role="graphics-object" aria-roledescription="group mark container"><g transform="translate(0,0)"><path class="background" aria-hidden="true" d="M0.5,0.5h60v300h-60Z" stroke="#ddd"/><g><g class="mark-group role-axis" aria-hidden="true"><g transform="translate(0.5,0.5)"><path class="background" aria-hidden="true" d="M0,0h0v0h0Z" pointer-events="none"/><g><g class="mark-rule role-axis-grid" pointer-events="none"><line transform="translate(0,300)" x2="60" y2="0" stroke="#ddd" stroke-width="1" opacity="1"/><line transform="translate(0,250)" x2="60" y2="0" stroke="#ddd" stroke-width="1" opacity="1"/><line transform="translate(0,200)" x2="60" y2="0" stroke="#ddd" stroke-width="1" opacity="1"/><line transform="translate(0,150)" x2="60" y2="0" stroke="#ddd" stroke-width="1" opacity="1"/><line transform="translate(0,100)" x2="60" y2="0" stroke="#ddd" stroke-width="1" opacity="1"/><line transform="translate(0,50)" x2="60" y2="0" stroke="#ddd" stroke-width="1" opacity="1"/><line transform="translate(0,0)" x2="60" y2="0" stroke="#ddd" stroke-width="1" opacity="1"/></g></g><path class="foreground" aria-hidden="true" d="" pointer-events="none" display="none"/></g></g><g class="mark-group role-axis" role="graphics-symbol" aria-roledescription="axis" aria-label="X-axis titled 'Nationality' for a discrete scale with 3 values: Argentina, Hungary, United States"><g transform="translate(0.5,300.5)"><path class="background" aria-hidden="true" d="M0,0h0v0h0Z" pointer-events="none"/><g><g class="mark-rule role-axis-tick" pointer-events="none"><line transform="translate(10,0)" x2="0" y2="5" stroke="#888" stroke-width="1" opacity="1"/><line transform="translate(30,0)" x2="0" y2="5" stroke="#888" stroke-width="1" opacity="1"/><line transform="translate(50,0)" x2="0" y2="5" stroke="#888" stroke-width="1" opacity="1"/></g><g class="mark-text role-axis-label" pointer-events="none"><text text-anchor="end" transform="translate(10,7) rotate(270) translate(0,3)" font-family="sans-serif" font-size="10px" fill="#000" opacity="1">Argentina</text><text text-anchor="end" transform="translate(30,7) rotate(270) translate(0,3)" font-family="sans-serif" font-size="10px" fill="#000" opacity="1">Hungary</text><text text-anchor="end" transform="translate(50,7) rotate(270) translate(0,3)" font-family="sans-serif" font-size="10px" fill="#000" opacity="1">United States</text></g><g class="mark-rule role-axis-domain" pointer-events="none"><line transform="translate(0,0)" x2="60" y2="0" stroke="#888" stroke-width="1" opacity="1"/></g><g class="mark-text role-axis-title" pointer-events="none"><text text-anchor="middle" transform="translate(30,80.0341796875)" font-family="sans-serif" font-size="11px" font-weight="bold" fill="#000" opacity="1">Nationality</text></g></g><path class="foreground" aria-hidden="true" d="" pointer-events="none" display="none"/></g></g><g class="mark-group role-axis" role="graphics-symbol" aria-roledescription="axis" aria-label="Y-axis titled 'Age' for a linear scale with values from 0 to 60"><g transform="translate(0.5,0.5)"><path class="background" aria-hidden="true" d="M0,0h0v0h0Z" pointer-events="none"/><g><g class="mark-rule role-axis-tick" pointer-events="none"><line transform="translate(0,300)" x2="-5" y2="0" stroke="#888" stroke-width="1" opacity="1"/><line transform="translate(0,250)" x2="-5" y2="0" stroke="#888" stroke-width="1" opacity="1"/><line transform="translate(0,200)" x2="-5" y2="0" stroke="#888" stroke-width="1" opacity="1"/><line transform="translate(0,150)" x2="-5" y2="0" stroke="#888" stroke-width="1" opacity="1"/><line transform="translate(0,100)" x2="-5" y2="0" stroke="#888" stroke-width="1" opacity="1"/><line transform="translate(0,50)" x2="-5" y2="0" stroke="#888" stroke-width="1" opacity="1"/><line transform="translate(0,0)" x2="-5" y2="0" stroke="#888" stroke-width="1" opacity="1"/></g><g class="mark-text role-axis-label" pointer-events="none"><text text-anchor="end" transform="translate(-7,303)" font-family="sans-serif" font-size="10px" fill="#000" opacity="1">0</text><text text-anchor="end" transform="translate(-7,253)" font-family="sans-serif" font-size="10px" fill="#000" opacity="1">10</text><text text-anchor="end" transform="translate(-7,203.00000000000003)" font-family="sans-serif" font-size="10px" fill="#000" opacity="1">20</text><text text-anchor="end" transform="translate(-7,153)" font-family="sans-serif" font-size="10px" fill="#000" opacity="1">30</text><text text-anchor="end" transform="translate(-7,103.00000000000001)" font-family="sans-serif" font-size="10px" fill="#000" opacity="1">40</text><text text-anchor="end" transform="translate(-7,52.999999999999986)" font-family="sans-serif" font-size="10px" fill="#000" opacity="1">50</text><text text-anchor="end" transform="translate(-7,3)" font-family="sans-serif" font-size="10px" fill="#000" opacity="1">60</text></g><g class="mark-rule role-axis-domain" pointer-events="none"><line transform="translate(0,300)" x2="0" y2="-300" stroke="#888" stroke-width="1" opacity="1"/></g><g class="mark-text role-axis-title" pointer-events="none"><text text-anchor="middle" transform="translate(-22.123046875,150) rotate(-90) translate(0,-2)" font-family="sans-serif" font-size="11px" font-weight="bold" fill="#000" opacity="1">Age</text></g></g><path class="foreground" aria-hidden="true" d="" pointer-events="none" display="none"/></g></g><g class="mark-symbol role-mark marks" role="graphics-object" aria-roledescription="symbol mark container"><path aria-label="Nationality: United States; Age: 43; Average of Age: 43" role="graphics-symbol" aria-roledescription="circle" transform="translate(50,85)" d="M8.042,0A8.042,8.042,0,1,1,-8.042,0A8.042,8.042,0,1,1,8.042,0" fill="#e45756" stroke-width="2"/><path aria-label="Nationality: United States; Age: 37; Average of Age: 37" role="graphics-symbol" aria-roledescription="circle" transform="translate(50,114.99999999999999)" d="M7.46,0A7.46,7.46,0,1,1,-7.46,0A7.46,7.46,0,1,1,7.46,0" fill="#e45756" stroke-width="2"/><path aria-label="Nationality: Hungary; Age: 31; Average of Age: 31" role="graphics-symbol" aria-roledescription="circle" transform="translate(30,144.99999999999997)" d="M6.829,0A6.829,6.829,0,1,1,-6.829,0A6.829,6.829,0,1,1,6.829,0" fill="#f58518" stroke-width="2"/><path aria-label="Nationality: United States; Age: 26; Average of Age: 26" role="graphics-symbol" aria-roledescription="circle" transform="translate(50,170)" d="M6.254,0A6.254,6.254,0,1,1,-6.254,0A6.254,6.254,0,1,1,6.254,0" fill="#e45756" stroke-width="2"/><path aria-label="Nationality: United States; Age: 45; Average of Age: 45" role="graphics-symbol" aria-roledescription="circle" transform="translate(50,75)" d="M8.227,0A8.227,8.227,0,1,1,-8.227,0A8.227,8.227,0,1,1,8.227,0" fill="#e45756" stroke-width="2"/><path aria-label="Nationality: United States; Age: 47; Average of Age: 47" role="graphics-symbol" aria-roledescription="circle" transform="translate(50,65)" d="M8.408,0A8.408,8.408,0,1,1,-8.408,0A8.408,8.408,0,1,1,8.408,0" fill="#e45756" stroke-width="2"/><path aria-label="Nationality: Argentina; Age: 30; Average of Age: 30" role="graphics-symbol" aria-roledescription="circle" transform="translate(10,150)" d="M6.718,0A6.718,6.718,0,1,1,-6.718,0A6.718,6.718,0,1,1,6.718,0" fill="#4c78a8" stroke-width="2"/><path aria-label="Nationality: United States; Age: 40; Average of Age: 40" role="graphics-symbol" aria-roledescription="circle" transform="translate(50,100.00000000000001)" d="M7.757,0A7.757,7.757,0,1,1,-7.757,0A7.757,7.757,0,1,1,7.757,0" fill="#e45756" stroke-width="2"/><path aria-label="Nationality: United States; Age: 31; Average of Age: 31" role="graphics-symbol" aria-roledescription="circle" transform="translate(50,144.99999999999997)" d="M6.829,0A6.829,6.829,0,1,1,-6.829,0A6.829,6.829,0,1,1,6.829,0" fill="#e45756" stroke-width="2"/><path aria-label="Nationality: United States; Age: 60; Average of Age: 60" role="graphics-symbol" aria-roledescription="circle" transform="translate(50,0)" d="M9.5,0A9.5,9.5,0,1,1,-9.5,0A9.5,9.5,0,1,1,9.5,0" fill="#e45756" stroke-width="2"/></g><g class="mark-group role-legend" role="graphics-symbol" aria-roledescription="legend" aria-label="Symbol legend titled 'Nationality' for fill color with 3 values: Argentina, Hungary, United States"><g transform="translate(78,0)"><path class="background" aria-hidden="true" d="M0,0h77v53h-77Z" pointer-events="none"/><g><g class="mark-group role-legend-entry"><g transform="translate(0,16)"><path class="background" aria-hidden="true" d="M0,0h0v0h0Z" pointer-events="none"/><g><g class="mark-group role-scope" role="graphics-object" aria-roledescription="group mark container"><g transform="translate(0,0)"><path class="background" aria-hidden="true" d="M0,0h76.0341796875v11h-76.0341796875Z" pointer-events="none" opacity="1"/><g><g class="mark-symbol role-legend-symbol" pointer-events="none"><path transform="translate(6,6)" d="M5,0A5,5,0,1,1,-5,0A5,5,0,1,1,5,0" fill="#4c78a8" stroke-width="1.5" opacity="1"/></g><g class="mark-text role-legend-label" pointer-events="none"><text text-anchor="start" transform="translate(16,9)" font-family="sans-serif" font-size="10px" fill="#000" opacity="1">Argentina</text></g></g><path class="foreground" aria-hidden="true" d="" pointer-events="none" display="none"/></g><g transform="translate(0,13)"><path class="background" aria-hidden="true" d="M0,0h76.0341796875v11h-76.0341796875Z" pointer-events="none" opacity="1"/><g><g class="mark-symbol role-legend-symbol" pointer-events="none"><path transform="translate(6,6)" d="M5,0A5,5,0,1,1,-5,0A5,5,0,1,1,5,0" fill="#f58518" stroke-width="1.5" opacity="1"/></g><g class="mark-text role-legend-label" pointer-events="none"><text text-anchor="start" transform="translate(16,9)" font-family="sans-serif" font-size="10px" fill="#000" opacity="1">Hungary</text></g></g><path class="foreground" aria-hidden="true" d="" pointer-events="none" display="none"/></g><g transform="translate(0,26)"><path class="background" aria-hidden="true" d="M0,0h76.0341796875v11h-76.0341796875Z" pointer-events="none" opacity="1"/><g><g class="mark-symbol role-legend-symbol" pointer-events="none"><path transform="translate(6,6)" d="M5,0A5,5,0,1,1,-5,0A5,5,0,1,1,5,0" fill="#e45756" stroke-width="1.5" opacity="1"/></g><g class="mark-text role-legend-label" pointer-events="none"><text text-anchor="start" transform="translate(16,9)" font-family="sans-serif" font-size="10px" fill="#000" opacity="1">United States</text></g></g><path class="foreground" aria-hidden="true" d="" pointer-events="none" display="none"/></g></g></g><path class="foreground" aria-hidden="true" d="" pointer-events="none" display="none"/></g></g><g class="mark-text role-legend-title" pointer-events="none"><text text-anchor="start" transform="translate(0,9)" font-family="sans-serif" font-size="11px" font-weight="bold" fill="#000" opacity="1">Nationality</text></g></g><path class="foreground" aria-hidden="true" d="" pointer-events="none" display="none"/></g></g><g class="mark-group role-legend" role="graphics-symbol" aria-roledescription="legend" aria-label="Symbol legend titled 'Average of Age' for size with values from 0 to 60"><g transform="translate(78,61)"><path class="background" aria-hidden="true" d="M0,0h80v133h-80Z" pointer-events="none"/><g><g class="mark-group role-legend-entry"><g transform="translate(0,16)"><path class="background" aria-hidden="true" d="M0,0h0v0h0Z" pointer-events="none"/><g><g class="mark-group role-scope" role="graphics-object" aria-roledescription="group mark container"><g transform="translate(0,0)"><path class="background" aria-hidden="true" d="M0,0h36.123046875v10.378358759406698h-36.123046875Z" pointer-events="none" opacity="1"/><g><g class="mark-symbol role-legend-symbol" pointer-events="none"><path transform="translate(10.5,5)" d="M3.878,0A3.878,3.878,0,1,1,-3.878,0A3.878,3.878,0,1,1,3.878,0" fill="black" fill-opacity="1" stroke-width="1.5" opacity="1"/></g><g class="mark-text role-legend-label" pointer-events="none"><text text-anchor="start" transform="translate(25,8)" font-family="sans-serif" font-size="10px" fill="#000" opacity="1">10</text></g></g><path class="foreground" aria-hidden="true" d="" pointer-events="none" display="none"/></g><g transform="translate(0,14)"><path class="background" aria-hidden="true" d="M0,0h36.123046875v13.484827557301443h-36.123046875Z" pointer-events="none" opacity="1"/><g><g class="mark-symbol role-legend-symbol" pointer-events="none"><path transform="translate(10.5,6.5)" d="M5.485,0A5.485,5.485,0,1,1,-5.485,0A5.485,5.485,0,1,1,5.485,0" fill="black" fill-opacity="1" stroke-width="1.5" opacity="1"/></g><g class="mark-text role-legend-label" pointer-events="none"><text text-anchor="start" transform="translate(25,9.5)" font-family="sans-serif" font-size="10px" fill="#000" opacity="1">20</text></g></g><path class="foreground" aria-hidden="true" d="" pointer-events="none" display="none"/></g><g transform="translate(0,31)"><path class="background" aria-hidden="true" d="M0,0h36.123046875v15.717514421272199h-36.123046875Z" pointer-events="none" opacity="1"/><g><g class="mark-symbol role-legend-symbol" pointer-events="none"><path transform="translate(10.5,7.5)" d="M6.718,0A6.718,6.718,0,1,1,-6.718,0A6.718,6.718,0,1,1,6.718,0" fill="black" fill-opacity="1" stroke-width="1.5" opacity="1"/></g><g class="mark-text role-legend-label" pointer-events="none"><text text-anchor="start" transform="translate(25,10.5)" font-family="sans-serif" font-size="10px" fill="#000" opacity="1">30</text></g></g><path class="foreground" aria-hidden="true" d="" pointer-events="none" display="none"/></g><g transform="translate(0,50)"><path class="background" aria-hidden="true" d="M0,0h36.123046875v18.25671751881339h-36.123046875Z" pointer-events="none" opacity="1"/><g><g class="mark-symbol role-legend-symbol" pointer-events="none"><path transform="translate(10.5,9)" d="M7.757,0A7.757,7.757,0,1,1,-7.757,0A7.757,7.757,0,1,1,7.757,0" fill="black" fill-opacity="1" stroke-width="1.5" opacity="1"/></g><g class="mark-text role-legend-label" pointer-events="none"><text text-anchor="start" transform="translate(25,12)" font-family="sans-serif" font-size="10px" fill="#000" opacity="1">40</text></g></g><path class="foreground" aria-hidden="true" d="" pointer-events="none" display="none"/></g><g transform="translate(0,72)"><path class="background" aria-hidden="true" d="M0,0h36.123046875v19.672273827165128h-36.123046875Z" pointer-events="none" opacity="1"/><g><g class="mark-symbol role-legend-symbol" pointer-events="none"><path transform="translate(10.5,9.5)" d="M8.672,0A8.672,8.672,0,1,1,-8.672,0A8.672,8.672,0,1,1,8.672,0" fill="black" fill-opacity="1" stroke-width="1.5" opacity="1"/></g><g class="mark-text role-legend-label" pointer-events="none"><text text-anchor="start" transform="translate(25,12.5)" font-family="sans-serif" font-size="10px" fill="#000" opacity="1">50</text></g></g><path class="foreground" aria-hidden="true" d="" pointer-events="none" display="none"/></g><g transform="translate(0,95)"><path class="background" aria-hidden="true" d="M0,0h36.123046875v21.5h-36.123046875Z" pointer-events="none" opacity="1"/><g><g class="mark-symbol role-legend-symbol" pointer-events="none"><path transform="translate(10.5,10.5)" d="M9.5,0A9.5,9.5,0,1,1,-9.5,0A9.5,9.5,0,1,1,9.5,0" fill="black" fill-opacity="1" stroke-width="1.5" opacity="1"/></g><g class="mark-text role-legend-label" pointer-events="none"><text text-anchor="start" transform="translate(25,13.5)" font-family="sans-serif" font-size="10px" fill="#000" opacity="1">60</text></g></g><path class="foreground" aria-hidden="true" d="" pointer-events="none" display="none"/></g></g></g><path class="foreground" aria-hidden="true" d="" pointer-events="none" display="none"/></g></g><g class="mark-text role-legend-title" pointer-events="none"><text text-anchor="start" transform="translate(0,9)" font-family="sans-serif" font-size="11px" font-weight="bold" fill="#000" opacity="1">Average of Age</text></g></g><path class="foreground" aria-hidden="true" d="" pointer-events="none" display="none"/></g></g></g><path class="foreground" aria-hidden="true" d="" display="none"/></g></g></g></svg>