<svg xmlns="http://www.w3.org/2000/svg" xmlns:xlink="http://www.w3.org/1999/xlink" version="1.1" class="marks" width="365" height="208" viewBox="0 0 365 208"><rect width="365" height="208" fill="white"/><g fill="none" stroke-miterlimit="10" transform="translate(5,5)"><g class="mark-group role-frame root" role="graphics-object" aria-roledescription="group mark container"><g transform="translate(0,0)"><path class="background" aria-hidden="true" d="M0.5,0.5h300v20h-300Z" stroke="#ddd"/><g><g class="mark-group role-axis" aria-hidden="true"><g transform="translate(0.5,20.5)"><path class="background" aria-hidden="true" d="M0,0h0v0h0Z" pointer-events="none"/><g><g class="mark-rule role-axis-grid" pointer-events="none"><line transform="translate(150,0)" x2="0" y2="-20" stroke="#ddd" stroke-width="1" opacity="1"/></g></g><path class="foreground" aria-hidden="true" d="" pointer-events="none" display="none"/></g></g><g class="mark-group role-axis" role="graphics-symbol" aria-roledescription="axis" aria-label="X-axis for a time scale with values from 1970 to 1970"><g transform="translate(0.5,20.5)"><path class="background" aria-hidden="true" d="M0,0h0v0h0Z" pointer-events="none"/><g><g class="mark-rule role-axis-tick" pointer-events="none"><line transform="translate(150,0)" x2="0" y2="5" stroke="#888" stroke-width="1" opacity="1"/></g><g class="mark-text role-axis-label" pointer-events="none"><text text-anchor="middle" transform="translate(150,15)" font-family="sans-serif" font-size="10px" fill="#000" opacity="1">1970</text></g><g class="mark-rule role-axis-domain" pointer-events="none"><line transform="translate(0,0)" x2="300" y2="0" stroke="#888" stroke-width="1" opacity="1"/></g></g><path class="foreground" aria-hidden="true" d="" pointer-events="none" display="none"/></g></g><g class="mark-symbol role-mark marks" role="graphics-object" aria-roledescription="symbol mark container"><path aria-label="Year (year): 1970; Injured: 37; Killed: 56" role="graphics-symbol" aria-roledescription="circle" transform="translate(150,10)" d="M9.5,0A9.5,9.5,0,1,1,-9.5,0A9.5,9.5,0,1,1,9.5,0" fill="rgb(253, 178, 114)" stroke-width="2" opacity="0.7"/><path aria-label="Year (year): 1970; Injured: 16; Killed: 32" role="graphics-symbol" aria-roledescription="circle" transform="translate(150,10)" d="M7.181,0A7.181,7.181,0,1,1,-7.181,0A7.181,7.181,0,1,1,7.181,0" fill="rgb(254, 208, 165)" stroke-width="2" opacity="0.7"/><path aria-label="Year (year): 1970; Injured: 3; Killed: 30" role="graphics-symbol" aria-roledescription="circle" transform="translate(150,10)" d="M6.953,0A6.953,6.953,0,1,1,-6.953,0A6.953,6.953,0,1,1,6.953,0" fill="rgb(254, 226, 198)" stroke-width="2" opacity="0.7"/><path aria-label="Year (year): 1970; Injured: 80; Killed: 23" role="graphics-symbol" aria-roledescription="circle" transform="translate(150,10)" d="M6.088,0A6.088,6.088,0,1,1,-6.088,0A6.088,6.088,0,1,1,6.088,0" fill="rgb(230, 85, 13)" stroke-width="2" opacity="0.7"/><path aria-label="Year (year): 1970; Injured: 0; Killed: 22" role="graphics-symbol" aria-roledescription="circle" transform="translate(150,10)" d="M5.954,0A5.954,5.954,0,1,1,-5.954,0A5.954,5.954,0,1,1,5.954,0" fill="rgb(254, 230, 206)" stroke-width="2" opacity="0.7"/></g><g class="mark-group role-legend" role="graphics-symbol" aria-roledescription="legend" aria-label="Gradient legend titled 'Injured' for fill color with values from 0 to 80"><g transform="translate(318,0)"><path class="background" aria-hidden="true" d="M0,0h37v80h-37Z" pointer-events="none"/><g><g class="mark-group role-legend-entry"><g transform="translate(0,16)"><path class="background" aria-hidden="true" d="M0,0h0v0h0Z" pointer-events="none"/><g><g class="mark-rect role-legend-gradient" pointer-events="none"><path d="M0,0h16v64h-16Z" fill="url(#gradient_1)" stroke="#ddd" stroke-width="0" opacity="0.7"/></g><g class="mark-text role-legend-label" pointer-events="none"><text text-anchor="start" transform="translate(18,62)" font-family="sans-serif" font-size="10px" fill="#000" opacity="1">0</text><text text-anchor="start" transform="translate(18,8)" font-family="sans-serif" font-size="10px" fill="#000" opacity="1">80</text></g></g><path class="foreground" aria-hidden="true" d="" pointer-events="none" display="none"/></g></g><g class="mark-text role-legend-title" pointer-events="none"><text text-anchor="start" transform="translate(0,9)" font-family="sans-serif" font-size="11px" font-weight="bold" fill="#000" opacity="1">Injured</text></g></g><path class="foreground" aria-hidden="true" d="" pointer-events="none" display="none"/></g></g><g class="mark-group role-legend" role="graphics-symbol" aria-roledescription="legend" aria-label="Symbol legend titled 'Killed' for size with values from 0 to 56"><g transform="translate(318,88)"><path class="background" aria-hidden="true" d="M0,0h36v110h-36Z" pointer-events="none"/><g><g class="mark-group role-legend-entry"><g transform="translate(0,16)"><path class="background" aria-hidden="true" d="M0,0h0v0h0Z" pointer-events="none"/><g><g class="mark-group role-scope" role="graphics-object" aria-roledescription="group mark container"><g transform="translate(0,0)"><path class="background" aria-hidden="true" d="M0,0h35.123046875v10.514482709960454h-35.123046875Z" pointer-events="none" opacity="1"/><g><g class="mark-symbol role-legend-symbol" pointer-events="none"><path transform="translate(10,5)" d="M4.014,0A4.014,4.014,0,1,1,-4.014,0A4.014,4.014,0,1,1,4.014,0" fill="black" fill-opacity="0.7" stroke-width="1.5" opacity="0.7"/></g><g class="mark-text role-legend-label" pointer-events="none"><text text-anchor="start" transform="translate(24,8)" font-family="sans-serif" font-size="10px" fill="#000" opacity="1">10</text></g></g><path class="foreground" aria-hidden="true" d="" pointer-events="none" display="none"/></g><g transform="translate(0,14)"><path class="background" aria-hidden="true" d="M0,0h35.123046875v13.67733589433837h-35.123046875Z" pointer-events="none" opacity="1"/><g><g class="mark-symbol role-legend-symbol" pointer-events="none"><path transform="translate(10,6.5)" d="M5.677,0A5.677,5.677,0,1,1,-5.677,0A5.677,5.677,0,1,1,5.677,0" fill="black" fill-opacity="0.7" stroke-width="1.5" opacity="0.7"/></g><g class="mark-text role-legend-label" pointer-events="none"><text text-anchor="start" transform="translate(24,9.5)" font-family="sans-serif" font-size="10px" fill="#000" opacity="1">20</text></g></g><path class="foreground" aria-hidden="true" d="" pointer-events="none" display="none"/></g><g transform="translate(0,31)"><path class="background" aria-hidden="true" d="M0,0h35.123046875v16.453288019758297h-35.123046875Z" pointer-events="none" opacity="1"/><g><g class="mark-symbol role-legend-symbol" pointer-events="none"><path transform="translate(10,8)" d="M6.953,0A6.953,6.953,0,1,1,-6.953,0A6.953,6.953,0,1,1,6.953,0" fill="black" fill-opacity="0.7" stroke-width="1.5" opacity="0.7"/></g><g class="mark-text role-legend-label" pointer-events="none"><text text-anchor="start" transform="translate(24,11)" font-family="sans-serif" font-size="10px" fill="#000" opacity="1">30</text></g></g><path class="foreground" aria-hidden="true" d="" pointer-events="none" display="none"/></g><g transform="translate(0,51)"><path class="background" aria-hidden="true" d="M0,0h35.123046875v18.528965419920908h-35.123046875Z" pointer-events="none" opacity="1"/><g><g class="mark-symbol role-legend-symbol" pointer-events="none"><path transform="translate(10,9)" d="M8.029,0A8.029,8.029,0,1,1,-8.029,0A8.029,8.029,0,1,1,8.029,0" fill="black" fill-opacity="0.7" stroke-width="1.5" opacity="0.7"/></g><g class="mark-text role-legend-label" pointer-events="none"><text text-anchor="start" transform="translate(24,12)" font-family="sans-serif" font-size="10px" fill="#000" opacity="1">40</text></g></g><path class="foreground" aria-hidden="true" d="" pointer-events="none" display="none"/></g><g transform="translate(0,73)"><path class="background" aria-hidden="true" d="M0,0h35.123046875v20.476656233969152h-35.123046875Z" pointer-events="none" opacity="1"/><g><g class="mark-symbol role-legend-symbol" pointer-events="none"><path transform="translate(10,10)" d="M8.977,0A8.977,8.977,0,1,1,-8.977,0A8.977,8.977,0,1,1,8.977,0" fill="black" fill-opacity="0.7" stroke-width="1.5" opacity="0.7"/></g><g class="mark-text role-legend-label" pointer-events="none"><text text-anchor="start" transform="translate(24,13)" font-family="sans-serif" font-size="10px" fill="#000" opacity="1">50</text></g></g><path class="foreground" aria-hidden="true" d="" pointer-events="none" display="none"/></g></g></g><path class="foreground" aria-hidden="true" d="" pointer-events="none" display="none"/></g></g><g class="mark-text role-legend-title" pointer-events="none"><text text-anchor="start" transform="translate(0,9)" font-family="sans-serif" font-size="11px" font-weight="bold" fill="#000" opacity="1">Killed</text></g></g><path class="foreground" aria-hidden="true" d="" pointer-events="none" display="none"/></g></g></g><path class="foreground" aria-hidden="true" d="" display="none"/></g></g></g><defs><linearGradient id="gradient_1" x1="0" x2="0" y1="1" y2="0"><stop offset="0" stop-color="rgb(254, 230, 206)"/><stop offset="0.0625" stop-color="rgb(254, 223, 193)"/><stop offset="0.125" stop-color="rgb(254, 216, 180)"/><stop offset="0.1875" stop-color="rgb(254, 210, 167)"/><stop offset="0.25" stop-color="rgb(254, 203, 155)"/><stop offset="0.3125" stop-color="rgb(254, 196, 143)"/><stop offset="0.375" stop-color="rgb(254, 189, 131)"/><stop offset="0.4375" stop-color="rgb(253, 181, 119)"/><stop offset="0.5" stop-color="rgb(253, 174, 107)"/><stop offset="0.5625" stop-color="rgb(250, 164, 95)"/><stop offset="0.625" stop-color="rgb(247, 154, 83)"/><stop offset="0.6875" stop-color="rgb(245, 143, 71)"/><stop offset="0.75" stop-color="rgb(242, 133, 60)"/><stop offset="0.8125" stop-color="rgb(239, 122, 49)"/><stop offset="0.875" stop-color="rgb(236, 110, 38)"/><stop offset="0.9375" stop-color="rgb(233, 98, 26)"/><stop offset="1" stop-color="rgb(230, 85, 13)"/></linearGradient></defs></svg>