<svg xmlns="http://www.w3.org/2000/svg" xmlns:xlink="http://www.w3.org/1999/xlink" version="1.1" class="marks" width="238" height="344" viewBox="0 0 238 344"><rect width="238" height="344" fill="white"/><g fill="none" stroke-miterlimit="10" transform="translate(50,5)"><g class="mark-group role-frame root" role="graphics-object" aria-roledescription="group mark container"><g transform="translate(0,0)"><path class="background" aria-hidden="true" d="M0.5,0.5h80v300h-80Z" stroke="#ddd"/><g><g class="mark-group role-axis" aria-hidden="true"><g transform="translate(0.5,0.5)"><path class="background" aria-hidden="true" d="M0,0h0v0h0Z" pointer-events="none"/><g><g class="mark-rule role-axis-grid" pointer-events="none"><line transform="translate(0,150)" x2="80" y2="0" stroke="#ddd" stroke-width="1" opacity="1"/></g></g><path class="foreground" aria-hidden="true" d="" pointer-events="none" display="none"/></g></g><g class="mark-group role-axis" role="graphics-symbol" aria-roledescription="axis" aria-label="X-axis titled 'Rank' for a discrete scale with 4 values: 6, 13, 34, 45"><g transform="translate(0.5,300.5)"><path class="background" aria-hidden="true" d="M0,0h0v0h0Z" pointer-events="none"/><g><g class="mark-rule role-axis-tick" pointer-events="none"><line transform="translate(10,0)" x2="0" y2="5" stroke="#888" stroke-width="1" opacity="1"/><line transform="translate(30,0)" x2="0" y2="5" stroke="#888" stroke-width="1" opacity="1"/><line transform="translate(50,0)" x2="0" y2="5" stroke="#888" stroke-width="1" opacity="1"/><line transform="translate(70,0)" x2="0" y2="5" stroke="#888" stroke-width="1" opacity="1"/></g><g class="mark-text role-axis-label" pointer-events="none"><text text-anchor="end" transform="translate(10,7) rotate(270) translate(0,3)" font-family="sans-serif" font-size="10px" fill="#000" opacity="1">6</text><text text-anchor="end" transform="translate(30,7) rotate(270) translate(0,3)" font-family="sans-serif" font-size="10px" fill="#000" opacity="1">13</text><text text-anchor="end" transform="translate(50,7) rotate(270) translate(0,3)" font-family="sans-serif" font-size="10px" fill="#000" opacity="1">34</text><text text-anchor="end" transform="translate(70,7) rotate(270) translate(0,3)" font-family="sans-serif" font-size="10px" fill="#000" opacity="1">45</text></g><g class="mark-rule role-axis-domain" pointer-events="none"><line transform="translate(0,0)" x2="80" y2="0" stroke="#888" stroke-width="1" opacity="1"/></g><g class="mark-text role-axis-title" pointer-events="none"><text text-anchor="middle" transform="translate(40,31.123046875)" font-family="sans-serif" font-size="11px" font-weight="bold" fill="#000" opacity="1">Rank</text></g></g><path class="foreground" aria-hidden="true" d="" pointer-events="none" display="none"/></g></g><g class="mark-group role-axis" role="graphics-symbol" aria-roledescription="axis" aria-label="Y-axis titled 'Join_Year (year)' for a time scale with values from 1970 to 1970"><g transform="translate(0.5,0.5)"><path class="background" aria-hidden="true" d="M0,0h0v0h0Z" pointer-events="none"/><g><g class="mark-rule role-axis-tick" pointer-events="none"><line transform="translate(0,150)" x2="-5" y2="0" stroke="#888" stroke-width="1" opacity="1"/></g><g class="mark-text role-axis-label" pointer-events="none"><text text-anchor="end" transform="translate(-7,153)" font-family="sans-serif" font-size="10px" fill="#000" opacity="1">1970</text></g><g class="mark-rule role-axis-domain" pointer-events="none"><line transform="translate(0,300)" x2="0" y2="-300" stroke="#888" stroke-width="1" opacity="1"/></g><g class="mark-text role-axis-title" pointer-events="none"><text text-anchor="middle" transform="translate(-33.24609375,150) rotate(-90) translate(0,-2)" font-family="sans-serif" font-size="11px" font-weight="bold" fill="#000" opacity="1">Join_Year (year)</text></g></g><path class="foreground" aria-hidden="true" d="" pointer-events="none" display="none"/></g></g><g class="mark-symbol role-mark marks" role="graphics-object" aria-roledescription="symbol mark container"><path aria-label="Rank: 13; Join_Year (year): 1970; Age: 33" role="graphics-symbol" aria-roledescription="circle" transform="translate(30,150)" d="M8.629,0A8.629,8.629,0,1,1,-8.629,0A8.629,8.629,0,1,1,8.629,0" fill="rgb(96, 161, 206)" stroke-width="2" opacity="0.7"/><path aria-label="Rank: 6; Join_Year (year): 1970; Age: 40" role="graphics-symbol" aria-roledescription="circle" transform="translate(10,150)" d="M9.5,0A9.5,9.5,0,1,1,-9.5,0A9.5,9.5,0,1,1,9.5,0" fill="rgb(96, 161, 206)" stroke-width="2" opacity="0.7"/><path aria-label="Rank: 45; Join_Year (year): 1970; Age: 37" role="graphics-symbol" aria-roledescription="circle" transform="translate(70,150)" d="M9.137,0A9.137,9.137,0,1,1,-9.137,0A9.137,9.137,0,1,1,9.137,0" fill="rgb(96, 161, 206)" stroke-width="2" opacity="0.7"/><path aria-label="Rank: 34; Join_Year (year): 1970; Age: 22" role="graphics-symbol" aria-roledescription="circle" transform="translate(50,150)" d="M7.045,0A7.045,7.045,0,1,1,-7.045,0A7.045,7.045,0,1,1,7.045,0" fill="rgb(96, 161, 206)" stroke-width="2" opacity="0.7"/><path aria-label="Rank: 34; Join_Year (year): 1970; Age: 32" role="graphics-symbol" aria-roledescription="circle" transform="translate(50,150)" d="M8.497,0A8.497,8.497,0,1,1,-8.497,0A8.497,8.497,0,1,1,8.497,0" fill="rgb(96, 161, 206)" stroke-width="2" opacity="0.7"/></g><g class="mark-group role-legend" role="graphics-symbol" aria-roledescription="legend" aria-label="Gradient legend titled 'Join_Year (year)' for fill color with values from 1970 to 1970"><g transform="translate(98,0)"><path class="background" aria-hidden="true" d="M0,0h85v216h-85Z" pointer-events="none"/><g><g class="mark-group role-legend-entry"><g transform="translate(0,16)"><path class="background" aria-hidden="true" d="M0,0h0v0h0Z" pointer-events="none"/><g><g class="mark-rect role-legend-gradient" pointer-events="none"><path d="M0,0h16v200h-16Z" fill="url(#gradient_2)" stroke="#ddd" stroke-width="0" opacity="0.7"/></g><g class="mark-text role-legend-label" pointer-events="none"><text text-anchor="start" transform="translate(18,103)" font-family="sans-serif" font-size="10px" fill="#000" opacity="1">1970</text></g></g><path class="foreground" aria-hidden="true" d="" pointer-events="none" display="none"/></g></g><g class="mark-text role-legend-title" pointer-events="none"><text text-anchor="start" transform="translate(0,9)" font-family="sans-serif" font-size="11px" font-weight="bold" fill="#000" opacity="1">Join_Year (year)</text></g></g><path class="foreground" aria-hidden="true" d="" pointer-events="none" display="none"/></g></g><g class="mark-group role-legend" role="graphics-symbol" aria-roledescription="legend" aria-label="Symbol legend titled 'Age' for size with values from 0 to 40"><g transform="translate(98,224)"><path class="background" aria-hidden="true" d="M0,0h37v94h-37Z" pointer-events="none"/><g><g class="mark-group role-legend-entry"><g transform="translate(0,16)"><path class="background" aria-hidden="true" d="M0,0h0v0h0Z" pointer-events="none"/><g><g class="mark-group role-scope" role="graphics-object" aria-roledescription="group mark container"><g transform="translate(0,0)"><path class="background" aria-hidden="true" d="M0,0h36.123046875v11.75h-36.123046875Z" pointer-events="none" opacity="1"/><g><g class="mark-symbol role-legend-symbol" pointer-events="none"><path transform="translate(10.5,5.5)" d="M4.75,0A4.75,4.75,0,1,1,-4.75,0A4.75,4.75,0,1,1,4.75,0" fill="black" fill-opacity="0.7" stroke-width="1.5" opacity="0.7"/></g><g class="mark-text role-legend-label" pointer-events="none"><text text-anchor="start" transform="translate(25,8.5)" font-family="sans-serif" font-size="10px" fill="#000" opacity="1">10</text></g></g><path class="foreground" aria-hidden="true" d="" pointer-events="none" display="none"/></g><g transform="translate(0,15)"><path class="background" aria-hidden="true" d="M0,0h36.123046875v15.717514421272202h-36.123046875Z" pointer-events="none" opacity="1"/><g><g class="mark-symbol role-legend-symbol" pointer-events="none"><path transform="translate(10.5,7.5)" d="M6.718,0A6.718,6.718,0,1,1,-6.718,0A6.718,6.718,0,1,1,6.718,0" fill="black" fill-opacity="0.7" stroke-width="1.5" opacity="0.7"/></g><g class="mark-text role-legend-label" pointer-events="none"><text text-anchor="start" transform="translate(25,10.5)" font-family="sans-serif" font-size="10px" fill="#000" opacity="1">20</text></g></g><path class="foreground" aria-hidden="true" d="" pointer-events="none" display="none"/></g><g transform="translate(0,34)"><path class="background" aria-hidden="true" d="M0,0h36.123046875v18.727241335952165h-36.123046875Z" pointer-events="none" opacity="1"/><g><g class="mark-symbol role-legend-symbol" pointer-events="none"><path transform="translate(10.5,9)" d="M8.227,0A8.227,8.227,0,1,1,-8.227,0A8.227,8.227,0,1,1,8.227,0" fill="black" fill-opacity="0.7" stroke-width="1.5" opacity="0.7"/></g><g class="mark-text role-legend-label" pointer-events="none"><text text-anchor="start" transform="translate(25,12)" font-family="sans-serif" font-size="10px" fill="#000" opacity="1">30</text></g></g><path class="foreground" aria-hidden="true" d="" pointer-events="none" display="none"/></g><g transform="translate(0,56)"><path class="background" aria-hidden="true" d="M0,0h36.123046875v21.5h-36.123046875Z" pointer-events="none" opacity="1"/><g><g class="mark-symbol role-legend-symbol" pointer-events="none"><path transform="translate(10.5,10.5)" d="M9.5,0A9.5,9.5,0,1,1,-9.5,0A9.5,9.5,0,1,1,9.5,0" fill="black" fill-opacity="0.7" stroke-width="1.5" opacity="0.7"/></g><g class="mark-text role-legend-label" pointer-events="none"><text text-anchor="start" transform="translate(25,13.5)" font-family="sans-serif" font-size="10px" fill="#000" opacity="1">40</text></g></g><path class="foreground" aria-hidden="true" d="" pointer-events="none" display="none"/></g></g></g><path class="foreground" aria-hidden="true" d="" pointer-events="none" display="none"/></g></g><g class="mark-text role-legend-title" pointer-events="none"><text text-anchor="start" transform="translate(0,9)" font-family="sans-serif" font-size="11px" font-weight="bold" fill="#000" opacity="1">Age</text></g></g><path class="foreground" aria-hidden="true" d="" pointer-events="none" display="none"/></g></g></g><path class="foreground" aria-hidden="true" d="" display="none"/></g></g></g><defs><linearGradient id="gradient_2" x1="0" x2="0" y1="1" y2="0"><stop offset="0" stop-color="rgb(134, 188, 220)"/><stop offset="0.05" stop-color="rgb(130, 185, 219)"/><stop offset="0.1" stop-color="rgb(126, 183, 217)"/><stop offset="0.15" stop-color="rgb(123, 180, 216)"/><stop offset="0.2" stop-color="rgb(119, 177, 214)"/><stop offset="0.25" stop-color="rgb(115, 175, 213)"/><stop offset="0.3" stop-color="rgb(111, 172, 211)"/><stop offset="0.35" stop-color="rgb(107, 169, 210)"/><stop offset="0.4" stop-color="rgb(104, 167, 209)"/><stop offset="0.45" stop-color="rgb(100, 164, 207)"/><stop offset="0.5" stop-color="rgb(96, 161, 206)"/><stop offset="0.55" stop-color="rgb(92, 159, 204)"/><stop offset="0.6" stop-color="rgb(88, 156, 203)"/><stop offset="0.65" stop-color="rgb(85, 154, 202)"/><stop offset="0.7" stop-color="rgb(81, 151, 200)"/><stop offset="0.75" stop-color="rgb(77, 148, 199)"/><stop offset="0.8" stop-color="rgb(73, 146, 198)"/><stop offset="0.85" stop-color="rgb(69, 143, 196)"/><stop offset="0.9" stop-color="rgb(65, 140, 195)"/><stop offset="0.95" stop-color="rgb(60, 138, 193)"/><stop offset="1" stop-color="rgb(56, 135, 192)"/></linearGradient></defs></svg>