<svg xmlns="http://www.w3.org/2000/svg" xmlns:xlink="http://www.w3.org/1999/xlink" version="1.1" class="marks" width="416" height="120" viewBox="0 0 416 120"><rect width="416" height="120" fill="white"/><g fill="none" stroke-miterlimit="10" transform="translate(33,7)"><g class="mark-group role-frame root" role="graphics-object" aria-roledescription="group mark container"><g transform="translate(0,0)"><path class="background" aria-hidden="true" d="M0.5,0.5h300v60h-300Z" stroke="#ddd"/><g><g class="mark-group role-axis" aria-hidden="true"><g transform="translate(0.5,60.5)"><path class="background" aria-hidden="true" d="M0,0h0v0h0Z" pointer-events="none"/><g><g class="mark-rule role-axis-grid" pointer-events="none"><line transform="translate(0,0)" x2="0" y2="-60" stroke="#ddd" stroke-width="1" opacity="1"/><line transform="translate(33,0)" x2="0" y2="-60" stroke="#ddd" stroke-width="1" opacity="1"/><line transform="translate(67,0)" x2="0" y2="-60" stroke="#ddd" stroke-width="1" opacity="1"/><line transform="translate(100,0)" x2="0" y2="-60" stroke="#ddd" stroke-width="1" opacity="1"/><line transform="translate(133,0)" x2="0" y2="-60" stroke="#ddd" stroke-width="1" opacity="1"/><line transform="translate(167,0)" x2="0" y2="-60" stroke="#ddd" stroke-width="1" opacity="1"/><line transform="translate(200,0)" x2="0" y2="-60" stroke="#ddd" stroke-width="1" opacity="1"/><line transform="translate(233,0)" x2="0" y2="-60" stroke="#ddd" stroke-width="1" opacity="1"/><line transform="translate(267,0)" x2="0" y2="-60" stroke="#ddd" stroke-width="1" opacity="1"/><line transform="translate(300,0)" x2="0" y2="-60" stroke="#ddd" stroke-width="1" opacity="1"/></g></g><path class="foreground" aria-hidden="true" d="" pointer-events="none" display="none"/></g></g><g class="mark-group role-axis" role="graphics-symbol" aria-roledescription="axis" aria-label="X-axis titled 'Final_Table_Made' for a linear scale with values from 0 to 45"><g transform="translate(0.5,60.5)"><path class="background" aria-hidden="true" d="M0,0h0v0h0Z" pointer-events="none"/><g><g class="mark-rule role-axis-tick" pointer-events="none"><line transform="translate(0,0)" x2="0" y2="5" stroke="#888" stroke-width="1" opacity="1"/><line transform="translate(33,0)" x2="0" y2="5" stroke="#888" stroke-width="1" opacity="1"/><line transform="translate(67,0)" x2="0" y2="5" stroke="#888" stroke-width="1" opacity="1"/><line transform="translate(100,0)" x2="0" y2="5" stroke="#888" stroke-width="1" opacity="1"/><line transform="translate(133,0)" x2="0" y2="5" stroke="#888" stroke-width="1" opacity="1"/><line transform="translate(167,0)" x2="0" y2="5" stroke="#888" stroke-width="1" opacity="1"/><line transform="translate(200,0)" x2="0" y2="5" stroke="#888" stroke-width="1" opacity="1"/><line transform="translate(233,0)" x2="0" y2="5" stroke="#888" stroke-width="1" opacity="1"/><line transform="translate(267,0)" x2="0" y2="5" stroke="#888" stroke-width="1" opacity="1"/><line transform="translate(300,0)" x2="0" y2="5" stroke="#888" stroke-width="1" opacity="1"/></g><g class="mark-text role-axis-label" pointer-events="none"><text text-anchor="start" transform="translate(0,15)" font-family="sans-serif" font-size="10px" fill="#000" opacity="1">0</text><text text-anchor="middle" transform="translate(33.33333333333333,15)" font-family="sans-serif" font-size="10px" fill="#000" opacity="1">5</text><text text-anchor="middle" transform="translate(66.66666666666666,15)" font-family="sans-serif" font-size="10px" fill="#000" opacity="1">10</text><text text-anchor="middle" transform="translate(100,15)" font-family="sans-serif" font-size="10px" fill="#000" opacity="1">15</text><text text-anchor="middle" transform="translate(133.33333333333331,15)" font-family="sans-serif" font-size="10px" fill="#000" opacity="1">20</text><text text-anchor="middle" transform="translate(166.66666666666669,15)" font-family="sans-serif" font-size="10px" fill="#000" opacity="1">25</text><text text-anchor="middle" transform="translate(200,15)" font-family="sans-serif" font-size="10px" fill="#000" opacity="1">30</text><text text-anchor="middle" transform="translate(233.33333333333334,15)" font-family="sans-serif" font-size="10px" fill="#000" opacity="1">35</text><text text-anchor="middle" transform="translate(266.66666666666663,15)" font-family="sans-serif" font-size="10px" fill="#000" opacity="1">40</text><text text-anchor="end" transform="translate(300,15)" font-family="sans-serif" font-size="10px" fill="#000" opacity="1">45</text></g><g class="mark-rule role-axis-domain" pointer-events="none"><line transform="translate(0,0)" x2="300" y2="0" stroke="#888" stroke-width="1" opacity="1"/></g><g class="mark-text role-axis-title" pointer-events="none"><text text-anchor="middle" transform="translate(150,30)" font-family="sans-serif" font-size="11px" font-weight="bold" fill="#000" opacity="1">Final_Table_Made</text></g></g><path class="foreground" aria-hidden="true" d="" pointer-events="none" display="none"/></g></g><g class="mark-group role-axis" role="graphics-symbol" aria-roledescription="axis" aria-label="Y-axis titled 'Best_Finish' for a discrete scale with 3 values: 1, 2, 3"><g transform="translate(0.5,0.5)"><path class="background" aria-hidden="true" d="M0,0h0v0h0Z" pointer-events="none"/><g><g class="mark-rule role-axis-tick" pointer-events="none"><line transform="translate(0,10)" x2="-5" y2="0" stroke="#888" stroke-width="1" opacity="1"/><line transform="translate(0,30)" x2="-5" y2="0" stroke="#888" stroke-width="1" opacity="1"/><line transform="translate(0,50)" x2="-5" y2="0" stroke="#888" stroke-width="1" opacity="1"/></g><g class="mark-text role-axis-label" pointer-events="none"><text text-anchor="end" transform="translate(-7,13)" font-family="sans-serif" font-size="10px" fill="#000" opacity="1">1</text><text text-anchor="end" transform="translate(-7,33)" font-family="sans-serif" font-size="10px" fill="#000" opacity="1">2</text><text text-anchor="end" transform="translate(-7,53)" font-family="sans-serif" font-size="10px" fill="#000" opacity="1">3</text></g><g class="mark-rule role-axis-domain" pointer-events="none"><line transform="translate(0,0)" x2="0" y2="60" stroke="#888" stroke-width="1" opacity="1"/></g><g class="mark-text role-axis-title" pointer-events="none"><text text-anchor="middle" transform="translate(-16.5615234375,30) rotate(-90) translate(0,-2)" font-family="sans-serif" font-size="11px" font-weight="bold" fill="#000" opacity="1">Best_Finish</text></g></g><path class="foreground" aria-hidden="true" d="" pointer-events="none" display="none"/></g></g><g class="mark-symbol role-mark marks" role="graphics-object" aria-roledescription="symbol mark container"><path aria-label="Final_Table_Made: 42; Best_Finish: 1; Earnings: 476090" role="graphics-symbol" aria-roledescription="circle" transform="translate(280,10)" d="M8.487,0A8.487,8.487,0,1,1,-8.487,0A8.487,8.487,0,1,1,8.487,0" fill="#4c78a8" stroke-width="2" opacity="0.7"/><path aria-label="Final_Table_Made: 10; Best_Finish: 2; Earnings: 189233" role="graphics-symbol" aria-roledescription="circle" transform="translate(66.66666666666666,30)" d="M5.351,0A5.351,5.351,0,1,1,-5.351,0A5.351,5.351,0,1,1,5.351,0" fill="#4c78a8" stroke-width="2" opacity="0.7"/><path aria-label="Final_Table_Made: 21; Best_Finish: 1; Earnings: 104871" role="graphics-symbol" aria-roledescription="circle" transform="translate(140,10)" d="M3.983,0A3.983,3.983,0,1,1,-3.983,0A3.983,3.983,0,1,1,3.983,0" fill="#4c78a8" stroke-width="2" opacity="0.7"/><path aria-label="Final_Table_Made: 19; Best_Finish: 2; Earnings: 596462" role="graphics-symbol" aria-roledescription="circle" transform="translate(126.66666666666667,30)" d="M9.5,0A9.5,9.5,0,1,1,-9.5,0A9.5,9.5,0,1,1,9.5,0" fill="#4c78a8" stroke-width="2" opacity="0.7"/><path aria-label="Final_Table_Made: 26; Best_Finish: 3; Earnings: 142800" role="graphics-symbol" aria-roledescription="circle" transform="translate(173.33333333333331,50)" d="M4.648,0A4.648,4.648,0,1,1,-4.648,0A4.648,4.648,0,1,1,4.648,0" fill="#4c78a8" stroke-width="2" opacity="0.7"/></g><g class="mark-group role-legend" role="graphics-symbol" aria-roledescription="legend" aria-label="Symbol legend titled 'Earnings' for size with values from 0 to 596,462"><g transform="translate(318,0)"><path class="background" aria-hidden="true" d="M0,0h60v108h-60Z" pointer-events="none"/><g><g class="mark-group role-legend-entry"><g transform="translate(0,16)"><path class="background" aria-hidden="true" d="M0,0h0v0h0Z" pointer-events="none"/><g><g class="mark-group role-scope" role="graphics-object" aria-roledescription="group mark container"><g transform="translate(0,0)"><path class="background" aria-hidden="true" d="M0,0h59.1474609375v10.389844273535726h-59.1474609375Z" pointer-events="none" opacity="1"/><g><g class="mark-symbol role-legend-symbol" pointer-events="none"><path transform="translate(9.5,5)" d="M3.89,0A3.89,3.89,0,1,1,-3.89,0A3.89,3.89,0,1,1,3.89,0" fill="#4c78a8" stroke-width="1.5" opacity="0.7"/></g><g class="mark-text role-legend-label" pointer-events="none"><text text-anchor="start" transform="translate(23,8)" font-family="sans-serif" font-size="10px" fill="#000" opacity="1">100,000</text></g></g><path class="foreground" aria-hidden="true" d="" pointer-events="none" display="none"/></g><g transform="translate(0,14)"><path class="background" aria-hidden="true" d="M0,0h59.1474609375v13.50107052715354h-59.1474609375Z" pointer-events="none" opacity="1"/><g><g class="mark-symbol role-legend-symbol" pointer-events="none"><path transform="translate(9.5,6.5)" d="M5.501,0A5.501,5.501,0,1,1,-5.501,0A5.501,5.501,0,1,1,5.501,0" fill="#4c78a8" stroke-width="1.5" opacity="0.7"/></g><g class="mark-text role-legend-label" pointer-events="none"><text text-anchor="start" transform="translate(23,9.5)" font-family="sans-serif" font-size="10px" fill="#000" opacity="1">200,000</text></g></g><path class="foreground" aria-hidden="true" d="" pointer-events="none" display="none"/></g><g transform="translate(0,31)"><path class="background" aria-hidden="true" d="M0,0h59.1474609375v15.737407915294725h-59.1474609375Z" pointer-events="none" opacity="1"/><g><g class="mark-symbol role-legend-symbol" pointer-events="none"><path transform="translate(9.5,7.5)" d="M6.737,0A6.737,6.737,0,1,1,-6.737,0A6.737,6.737,0,1,1,6.737,0" fill="#4c78a8" stroke-width="1.5" opacity="0.7"/></g><g class="mark-text role-legend-label" pointer-events="none"><text text-anchor="start" transform="translate(23,10.5)" font-family="sans-serif" font-size="10px" fill="#000" opacity="1">300,000</text></g></g><path class="foreground" aria-hidden="true" d="" pointer-events="none" display="none"/></g><g transform="translate(0,50)"><path class="background" aria-hidden="true" d="M0,0h59.1474609375v18.27968854707146h-59.1474609375Z" pointer-events="none" opacity="1"/><g><g class="mark-symbol role-legend-symbol" pointer-events="none"><path transform="translate(9.5,9)" d="M7.78,0A7.78,7.78,0,1,1,-7.78,0A7.78,7.78,0,1,1,7.78,0" fill="#4c78a8" stroke-width="1.5" opacity="0.7"/></g><g class="mark-text role-legend-label" pointer-events="none"><text text-anchor="start" transform="translate(23,12)" font-family="sans-serif" font-size="10px" fill="#000" opacity="1">400,000</text></g></g><path class="foreground" aria-hidden="true" d="" pointer-events="none" display="none"/></g><g transform="translate(0,72)"><path class="background" aria-hidden="true" d="M0,0h59.1474609375v19.69795621751416h-59.1474609375Z" pointer-events="none" opacity="1"/><g><g class="mark-symbol role-legend-symbol" pointer-events="none"><path transform="translate(9.5,9.5)" d="M8.698,0A8.698,8.698,0,1,1,-8.698,0A8.698,8.698,0,1,1,8.698,0" fill="#4c78a8" stroke-width="1.5" opacity="0.7"/></g><g class="mark-text role-legend-label" pointer-events="none"><text text-anchor="start" transform="translate(23,12.5)" font-family="sans-serif" font-size="10px" fill="#000" opacity="1">500,000</text></g></g><path class="foreground" aria-hidden="true" d="" pointer-events="none" display="none"/></g></g></g><path class="foreground" aria-hidden="true" d="" pointer-events="none" display="none"/></g></g><g class="mark-text role-legend-title" pointer-events="none"><text text-anchor="start" transform="translate(0,9)" font-family="sans-serif" font-size="11px" font-weight="bold" fill="#000" opacity="1">Earnings</text></g></g><path class="foreground" aria-hidden="true" d="" pointer-events="none" display="none"/></g></g></g><path class="foreground" aria-hidden="true" d="" display="none"/></g></g></g></svg>