<svg xmlns="http://www.w3.org/2000/svg" xmlns:xlink="http://www.w3.org/1999/xlink" version="1.1" class="marks" width="518" height="352" viewBox="0 0 518 352"><rect width="518" height="352" fill="white"/><g fill="none" stroke-miterlimit="10" transform="translate(69,15)"><g class="mark-group role-frame root" role="graphics-object" aria-roledescription="group mark container"><g transform="translate(0,0)"><path class="background" aria-hidden="true" d="M0.5,0.5h300v300h-300Z" stroke="#ddd"/><g><g class="mark-group role-axis" aria-hidden="true"><g transform="translate(0.5,300.5)"><path class="background" aria-hidden="true" d="M0,0h0v0h0Z" pointer-events="none"/><g><g class="mark-rule role-axis-grid" pointer-events="none"><line transform="translate(0,-300)" x2="0" y2="300" stroke="#ddd" stroke-width="1" opacity="1"/><line transform="translate(30,-300)" x2="0" y2="300" stroke="#ddd" stroke-width="1" opacity="1"/><line transform="translate(60,-300)" x2="0" y2="300" stroke="#ddd" stroke-width="1" opacity="1"/><line transform="translate(90,-300)" x2="0" y2="300" stroke="#ddd" stroke-width="1" opacity="1"/><line transform="translate(120,-300)" x2="0" y2="300" stroke="#ddd" stroke-width="1" opacity="1"/><line transform="translate(150,-300)" x2="0" y2="300" stroke="#ddd" stroke-width="1" opacity="1"/><line transform="translate(180,-300)" x2="0" y2="300" stroke="#ddd" stroke-width="1" opacity="1"/><line transform="translate(210,-300)" x2="0" y2="300" stroke="#ddd" stroke-width="1" opacity="1"/><line transform="translate(240,-300)" x2="0" y2="300" stroke="#ddd" stroke-width="1" opacity="1"/><line transform="translate(270,-300)" x2="0" y2="300" stroke="#ddd" stroke-width="1" opacity="1"/><line transform="translate(300,-300)" x2="0" y2="300" stroke="#ddd" stroke-width="1" opacity="1"/></g></g><path class="foreground" aria-hidden="true" d="" pointer-events="none" display="none"/></g></g><g class="mark-group role-axis" aria-hidden="true"><g transform="translate(0.5,0.5)"><path class="background" aria-hidden="true" d="M0,0h0v0h0Z" pointer-events="none"/><g><g class="mark-rule role-axis-grid" pointer-events="none"><line transform="translate(0,300)" x2="300" y2="0" stroke="#ddd" stroke-width="1" opacity="1"/></g></g><path class="foreground" aria-hidden="true" d="" pointer-events="none" display="none"/></g></g><g class="mark-group role-axis" role="graphics-symbol" aria-roledescription="axis" aria-label="X-axis titled 'date_became_customer (year-month)' for a time scale with values from April 2015 to October 2017"><g transform="translate(0.5,300.5)"><path class="background" aria-hidden="true" d="M0,0h0v0h0Z" pointer-events="none"/><g><g class="mark-rule role-axis-tick" pointer-events="none"><line transform="translate(0,0)" x2="0" y2="5" stroke="#888" stroke-width="1" opacity="1"/><line transform="translate(30,0)" x2="0" y2="5" stroke="#888" stroke-width="1" opacity="1"/><line transform="translate(60,0)" x2="0" y2="5" stroke="#888" stroke-width="1" opacity="1"/><line transform="translate(90,0)" x2="0" y2="5" stroke="#888" stroke-width="1" opacity="1"/><line transform="translate(120,0)" x2="0" y2="5" stroke="#888" stroke-width="1" opacity="1"/><line transform="translate(150,0)" x2="0" y2="5" stroke="#888" stroke-width="1" opacity="1"/><line transform="translate(180,0)" x2="0" y2="5" stroke="#888" stroke-width="1" opacity="1"/><line transform="translate(210,0)" x2="0" y2="5" stroke="#888" stroke-width="1" opacity="1"/><line transform="translate(240,0)" x2="0" y2="5" stroke="#888" stroke-width="1" opacity="1"/><line transform="translate(270,0)" x2="0" y2="5" stroke="#888" stroke-width="1" opacity="1"/><line transform="translate(300,0)" x2="0" y2="5" stroke="#888" stroke-width="1" opacity="1"/></g><g class="mark-text role-axis-label" pointer-events="none"><text text-anchor="start" transform="translate(0,15)" font-family="sans-serif" font-size="10px" fill="#000" opacity="1">Apr 2015</text><text text-anchor="middle" transform="translate(29.86870897155361,15)" font-family="sans-serif" font-size="10px" fill="#000" opacity="0">Jul 2015</text><text text-anchor="middle" transform="translate(60.06564551422319,15)" font-family="sans-serif" font-size="10px" fill="#000" opacity="0">Oct 2015</text><text text-anchor="middle" transform="translate(90.26258205689278,15)" font-family="sans-serif" font-size="10px" fill="#000" opacity="0">Jan 2016</text><text text-anchor="middle" transform="translate(120.13129102844638,15)" font-family="sans-serif" font-size="10px" fill="#000" opacity="1">Apr 2016</text><text text-anchor="middle" transform="translate(150,15)" font-family="sans-serif" font-size="10px" fill="#000" opacity="0">Jul 2016</text><text text-anchor="middle" transform="translate(180.1969365426696,15)" font-family="sans-serif" font-size="10px" fill="#000" opacity="0">Oct 2016</text><text text-anchor="middle" transform="translate(210.39387308533915,15)" font-family="sans-serif" font-size="10px" fill="#000" opacity="0">Jan 2017</text><text text-anchor="middle" transform="translate(239.93435448577682,15)" font-family="sans-serif" font-size="10px" fill="#000" opacity="1">Apr 2017</text><text text-anchor="middle" transform="translate(269.8030634573304,15)" font-family="sans-serif" font-size="10px" fill="#000" opacity="0">Jul 2017</text><text text-anchor="end" transform="translate(300,15)" font-family="sans-serif" font-size="10px" fill="#000" opacity="0">Oct 2017</text></g><g class="mark-rule role-axis-domain" pointer-events="none"><line transform="translate(0,0)" x2="300" y2="0" stroke="#888" stroke-width="1" opacity="1"/></g><g class="mark-text role-axis-title" pointer-events="none"><text text-anchor="middle" transform="translate(150,30)" font-family="sans-serif" font-size="11px" font-weight="bold" fill="#000" opacity="1">date_became_customer (year-month)</text></g></g><path class="foreground" aria-hidden="true" d="" pointer-events="none" display="none"/></g></g><g class="mark-group role-axis" role="graphics-symbol" aria-roledescription="axis" aria-label="Y-axis titled 'date_last_hire (year-month)' for a time scale with values from January 2018 to March 2018"><g transform="translate(0.5,0.5)"><path class="background" aria-hidden="true" d="M0,0h0v0h0Z" pointer-events="none"/><g><g class="mark-rule role-axis-tick" pointer-events="none"><line transform="translate(0,300)" x2="-5" y2="0" stroke="#888" stroke-width="1" opacity="1"/></g><g class="mark-text role-axis-label" pointer-events="none"><text text-anchor="end" transform="translate(-7,303)" font-family="sans-serif" font-size="10px" fill="#000" opacity="1">Jan 2018</text></g><g class="mark-rule role-axis-domain" pointer-events="none"><line transform="translate(0,300)" x2="0" y2="-300" stroke="#888" stroke-width="1" opacity="1"/></g><g class="mark-text role-axis-title" pointer-events="none"><text text-anchor="middle" transform="translate(-52.1474609375,150) rotate(-90) translate(0,-2)" font-family="sans-serif" font-size="11px" font-weight="bold" fill="#000" opacity="1">date_last_hire (year-month)</text></g></g><path class="foreground" aria-hidden="true" d="" pointer-events="none" display="none"/></g></g><g class="mark-symbol role-mark marks" role="graphics-object" aria-roledescription="symbol mark container"><path aria-label="date_became_customer (year-month): Oct 2017; date_last_hire (year-month): Feb 2018; good_or_bad_customer: good; customer_id: 1" role="graphics-symbol" aria-roledescription="circle" transform="translate(300,142.37288135593218)" d="M2.453,0A2.453,2.453,0,1,1,-2.453,0A2.453,2.453,0,1,1,2.453,0" fill="#f58518" stroke-width="2" opacity="0.7"/><path aria-label="date_became_customer (year-month): Apr 2015; date_last_hire (year-month): Jan 2018; good_or_bad_customer: good; customer_id: 2" role="graphics-symbol" aria-roledescription="circle" transform="translate(0,300)" d="M3.469,0A3.469,3.469,0,1,1,-3.469,0A3.469,3.469,0,1,1,3.469,0" fill="#f58518" stroke-width="2" opacity="0.7"/><path aria-label="date_became_customer (year-month): Feb 2016; date_last_hire (year-month): Mar 2018; good_or_bad_customer: good; customer_id: 3" role="graphics-symbol" aria-roledescription="circle" transform="translate(100.43763676148797,0)" d="M4.249,0A4.249,4.249,0,1,1,-4.249,0A4.249,4.249,0,1,1,4.249,0" fill="#f58518" stroke-width="2" opacity="0.7"/><path aria-label="date_became_customer (year-month): Jun 2016; date_last_hire (year-month): Feb 2018; good_or_bad_customer: bad; customer_id: 4" role="graphics-symbol" aria-roledescription="circle" transform="translate(140.15317286652078,142.37288135593218)" d="M4.906,0A4.906,4.906,0,1,1,-4.906,0A4.906,4.906,0,1,1,4.906,0" fill="#4c78a8" stroke-width="2" opacity="0.7"/><path aria-label="date_became_customer (year-month): Aug 2016; date_last_hire (year-month): Feb 2018; good_or_bad_customer: good; customer_id: 5" role="graphics-symbol" aria-roledescription="circle" transform="translate(160.1750547045952,142.37288135593218)" d="M5.485,0A5.485,5.485,0,1,1,-5.485,0A5.485,5.485,0,1,1,5.485,0" fill="#f58518" stroke-width="2" opacity="0.7"/><path aria-label="date_became_customer (year-month): Apr 2015; date_last_hire (year-month): Feb 2018; good_or_bad_customer: bad; customer_id: 6" role="graphics-symbol" aria-roledescription="circle" transform="translate(0,142.37288135593218)" d="M6.008,0A6.008,6.008,0,1,1,-6.008,0A6.008,6.008,0,1,1,6.008,0" fill="#4c78a8" stroke-width="2" opacity="0.7"/><path aria-label="date_became_customer (year-month): Dec 2015; date_last_hire (year-month): Feb 2018; good_or_bad_customer: good; customer_id: 7" role="graphics-symbol" aria-roledescription="circle" transform="translate(80.0875273522976,142.37288135593218)" d="M6.49,0A6.49,6.49,0,1,1,-6.49,0A6.49,6.49,0,1,1,6.49,0" fill="#f58518" stroke-width="2" opacity="0.7"/><path aria-label="date_became_customer (year-month): Jul 2017; date_last_hire (year-month): Mar 2018; good_or_bad_customer: good; customer_id: 8" role="graphics-symbol" aria-roledescription="circle" transform="translate(269.8030634573304,0)" d="M6.938,0A6.938,6.938,0,1,1,-6.938,0A6.938,6.938,0,1,1,6.938,0" fill="#f58518" stroke-width="2" opacity="0.7"/><path aria-label="date_became_customer (year-month): Feb 2017; date_last_hire (year-month): Mar 2018; good_or_bad_customer: good; customer_id: 9" role="graphics-symbol" aria-roledescription="circle" transform="translate(220.56892778993435,0)" d="M7.359,0A7.359,7.359,0,1,1,-7.359,0A7.359,7.359,0,1,1,7.359,0" fill="#f58518" stroke-width="2" opacity="0.7"/><path aria-label="date_became_customer (year-month): May 2015; date_last_hire (year-month): Feb 2018; good_or_bad_customer: bad; customer_id: 10" role="graphics-symbol" aria-roledescription="circle" transform="translate(9.846827133479211,142.37288135593218)" d="M7.757,0A7.757,7.757,0,1,1,-7.757,0A7.757,7.757,0,1,1,7.757,0" fill="#4c78a8" stroke-width="2" opacity="0.7"/><path aria-label="date_became_customer (year-month): Jul 2015; date_last_hire (year-month): Mar 2018; good_or_bad_customer: good; customer_id: 11" role="graphics-symbol" aria-roledescription="circle" transform="translate(29.86870897155361,0)" d="M8.135,0A8.135,8.135,0,1,1,-8.135,0A8.135,8.135,0,1,1,8.135,0" fill="#f58518" stroke-width="2" opacity="0.7"/><path aria-label="date_became_customer (year-month): Feb 2016; date_last_hire (year-month): Mar 2018; good_or_bad_customer: good; customer_id: 12" role="graphics-symbol" aria-roledescription="circle" transform="translate(100.43763676148797,0)" d="M8.497,0A8.497,8.497,0,1,1,-8.497,0A8.497,8.497,0,1,1,8.497,0" fill="#f58518" stroke-width="2" opacity="0.7"/><path aria-label="date_became_customer (year-month): Mar 2017; date_last_hire (year-month): Mar 2018; good_or_bad_customer: good; customer_id: 13" role="graphics-symbol" aria-roledescription="circle" transform="translate(229.75929978118162,0)" d="M8.844,0A8.844,8.844,0,1,1,-8.844,0A8.844,8.844,0,1,1,8.844,0" fill="#f58518" stroke-width="2" opacity="0.7"/><path aria-label="date_became_customer (year-month): Apr 2016; date_last_hire (year-month): Mar 2018; good_or_bad_customer: good; customer_id: 14" role="graphics-symbol" aria-roledescription="circle" transform="translate(120.13129102844638,0)" d="M9.178,0A9.178,9.178,0,1,1,-9.178,0A9.178,9.178,0,1,1,9.178,0" fill="#f58518" stroke-width="2" opacity="0.7"/><path aria-label="date_became_customer (year-month): May 2016; date_last_hire (year-month): Feb 2018; good_or_bad_customer: bad; customer_id: 15" role="graphics-symbol" aria-roledescription="circle" transform="translate(129.9781181619256,142.37288135593218)" d="M9.5,0A9.5,9.5,0,1,1,-9.5,0A9.5,9.5,0,1,1,9.5,0" fill="#4c78a8" stroke-width="2" opacity="0.7"/></g><g class="mark-group role-legend" role="graphics-symbol" aria-roledescription="legend" aria-label="Symbol legend titled 'good_or_bad_customer' for fill color with 2 values: bad, good"><g transform="translate(318,0)"><path class="background" aria-hidden="true" d="M0,0h126v40h-126Z" pointer-events="none"/><g><g class="mark-group role-legend-entry"><g transform="translate(0,16)"><path class="background" aria-hidden="true" d="M0,0h0v0h0Z" pointer-events="none"/><g><g class="mark-group role-scope" role="graphics-object" aria-roledescription="group mark container"><g transform="translate(0,0)"><path class="background" aria-hidden="true" d="M0,0h38.24609375v11h-38.24609375Z" pointer-events="none" opacity="1"/><g><g class="mark-symbol role-legend-symbol" pointer-events="none"><path transform="translate(6,6)" d="M5,0A5,5,0,1,1,-5,0A5,5,0,1,1,5,0" fill="#4c78a8" stroke-width="1.5" opacity="0.7"/></g><g class="mark-text role-legend-label" pointer-events="none"><text text-anchor="start" transform="translate(16,9)" font-family="sans-serif" font-size="10px" fill="#000" opacity="1">bad</text></g></g><path class="foreground" aria-hidden="true" d="" pointer-events="none" display="none"/></g><g transform="translate(0,13)"><path class="background" aria-hidden="true" d="M0,0h38.24609375v11h-38.24609375Z" pointer-events="none" opacity="1"/><g><g class="mark-symbol role-legend-symbol" pointer-events="none"><path transform="translate(6,6)" d="M5,0A5,5,0,1,1,-5,0A5,5,0,1,1,5,0" fill="#f58518" stroke-width="1.5" opacity="0.7"/></g><g class="mark-text role-legend-label" pointer-events="none"><text text-anchor="start" transform="translate(16,9)" font-family="sans-serif" font-size="10px" fill="#000" opacity="1">good</text></g></g><path class="foreground" aria-hidden="true" d="" pointer-events="none" display="none"/></g></g></g><path class="foreground" aria-hidden="true" d="" pointer-events="none" display="none"/></g></g><g class="mark-text role-legend-title" pointer-events="none"><text text-anchor="start" transform="translate(0,9)" font-family="sans-serif" font-size="11px" font-weight="bold" fill="#000" opacity="1">good_or_bad_customer</text></g></g><path class="foreground" aria-hidden="true" d="" pointer-events="none" display="none"/></g></g><g class="mark-group role-legend" role="graphics-symbol" aria-roledescription="legend" aria-label="Symbol legend titled 'customer_id' for size with values from 0 to 15"><g transform="translate(318,48)"><path class="background" aria-hidden="true" d="M0,0h66v149h-66Z" pointer-events="none"/><g><g class="mark-group role-legend-entry"><g transform="translate(0,16)"><path class="background" aria-hidden="true" d="M0,0h0v0h0Z" pointer-events="none"/><g><g class="mark-group role-scope" role="graphics-object" aria-roledescription="group mark container"><g transform="translate(0,0)"><path class="background" aria-hidden="true" d="M0,0h35.123046875v10h-35.123046875Z" pointer-events="none" opacity="1"/><g><g class="mark-symbol role-legend-symbol" pointer-events="none"><path transform="translate(10,5)" d="M3.469,0A3.469,3.469,0,1,1,-3.469,0A3.469,3.469,0,1,1,3.469,0" fill="black" fill-opacity="0.7" stroke-width="1.5" opacity="0.7"/></g><g class="mark-text role-legend-label" pointer-events="none"><text text-anchor="start" transform="translate(24,8)" font-family="sans-serif" font-size="10px" fill="#000" opacity="1">2</text></g></g><path class="foreground" aria-hidden="true" d="" pointer-events="none" display="none"/></g><g transform="translate(0,13)"><path class="background" aria-hidden="true" d="M0,0h35.123046875v12.405778905196062h-35.123046875Z" pointer-events="none" opacity="1"/><g><g class="mark-symbol role-legend-symbol" pointer-events="none"><path transform="translate(10,6)" d="M4.906,0A4.906,4.906,0,1,1,-4.906,0A4.906,4.906,0,1,1,4.906,0" fill="black" fill-opacity="0.7" stroke-width="1.5" opacity="0.7"/></g><g class="mark-text role-legend-label" pointer-events="none"><text text-anchor="start" transform="translate(24,9)" font-family="sans-serif" font-size="10px" fill="#000" opacity="1">4</text></g></g><path class="foreground" aria-hidden="true" d="" pointer-events="none" display="none"/></g><g transform="translate(0,29)"><path class="background" aria-hidden="true" d="M0,0h35.123046875v14.50832755431992h-35.123046875Z" pointer-events="none" opacity="1"/><g><g class="mark-symbol role-legend-symbol" pointer-events="none"><path transform="translate(10,7)" d="M6.008,0A6.008,6.008,0,1,1,-6.008,0A6.008,6.008,0,1,1,6.008,0" fill="black" fill-opacity="0.7" stroke-width="1.5" opacity="0.7"/></g><g class="mark-text role-legend-label" pointer-events="none"><text text-anchor="start" transform="translate(24,10)" font-family="sans-serif" font-size="10px" fill="#000" opacity="1">6</text></g></g><path class="foreground" aria-hidden="true" d="" pointer-events="none" display="none"/></g><g transform="translate(0,47)"><path class="background" aria-hidden="true" d="M0,0h35.123046875v16.4378190617321h-35.123046875Z" pointer-events="none" opacity="1"/><g><g class="mark-symbol role-legend-symbol" pointer-events="none"><path transform="translate(10,8)" d="M6.938,0A6.938,6.938,0,1,1,-6.938,0A6.938,6.938,0,1,1,6.938,0" fill="black" fill-opacity="0.7" stroke-width="1.5" opacity="0.7"/></g><g class="mark-text role-legend-label" pointer-events="none"><text text-anchor="start" transform="translate(24,11)" font-family="sans-serif" font-size="10px" fill="#000" opacity="1">8</text></g></g><path class="foreground" aria-hidden="true" d="" pointer-events="none" display="none"/></g><g transform="translate(0,67)"><path class="background" aria-hidden="true" d="M0,0h35.123046875v18.25671751881339h-35.123046875Z" pointer-events="none" opacity="1"/><g><g class="mark-symbol role-legend-symbol" pointer-events="none"><path transform="translate(10,9)" d="M7.757,0A7.757,7.757,0,1,1,-7.757,0A7.757,7.757,0,1,1,7.757,0" fill="black" fill-opacity="0.7" stroke-width="1.5" opacity="0.7"/></g><g class="mark-text role-legend-label" pointer-events="none"><text text-anchor="start" transform="translate(24,12)" font-family="sans-serif" font-size="10px" fill="#000" opacity="1">10</text></g></g><path class="foreground" aria-hidden="true" d="" pointer-events="none" display="none"/></g><g transform="translate(0,89)"><path class="background" aria-hidden="true" d="M0,0h35.123046875v19.4970583144992h-35.123046875Z" pointer-events="none" opacity="1"/><g><g class="mark-symbol role-legend-symbol" pointer-events="none"><path transform="translate(10,9.5)" d="M8.497,0A8.497,8.497,0,1,1,-8.497,0A8.497,8.497,0,1,1,8.497,0" fill="black" fill-opacity="0.7" stroke-width="1.5" opacity="0.7"/></g><g class="mark-text role-legend-label" pointer-events="none"><text text-anchor="start" transform="translate(24,12.5)" font-family="sans-serif" font-size="10px" fill="#000" opacity="1">12</text></g></g><path class="foreground" aria-hidden="true" d="" pointer-events="none" display="none"/></g><g transform="translate(0,112)"><path class="background" aria-hidden="true" d="M0,0h35.123046875v20.677871939253322h-35.123046875Z" pointer-events="none" opacity="1"/><g><g class="mark-symbol role-legend-symbol" pointer-events="none"><path transform="translate(10,10)" d="M9.178,0A9.178,9.178,0,1,1,-9.178,0A9.178,9.178,0,1,1,9.178,0" fill="black" fill-opacity="0.7" stroke-width="1.5" opacity="0.7"/></g><g class="mark-text role-legend-label" pointer-events="none"><text text-anchor="start" transform="translate(24,13)" font-family="sans-serif" font-size="10px" fill="#000" opacity="1">14</text></g></g><path class="foreground" aria-hidden="true" d="" pointer-events="none" display="none"/></g></g></g><path class="foreground" aria-hidden="true" d="" pointer-events="none" display="none"/></g></g><g class="mark-text role-legend-title" pointer-events="none"><text text-anchor="start" transform="translate(0,9)" font-family="sans-serif" font-size="11px" font-weight="bold" fill="#000" opacity="1">customer_id</text></g></g><path class="foreground" aria-hidden="true" d="" pointer-events="none" display="none"/></g></g></g><path class="foreground" aria-hidden="true" d="" display="none"/></g></g></g></svg>