<svg xmlns="http://www.w3.org/2000/svg" xmlns:xlink="http://www.w3.org/1999/xlink" version="1.1" class="marks" width="386" height="203" viewBox="0 0 386 203"><rect width="386" height="203" fill="white"/><g fill="none" stroke-miterlimit="10" transform="translate(5,5)"><g class="mark-group role-frame root" role="graphics-object" aria-roledescription="group mark container"><g transform="translate(0,0)"><path class="background" aria-hidden="true" d="M0.5,0.5h300v20h-300Z" stroke="#ddd"/><g><g class="mark-group role-axis" aria-hidden="true"><g transform="translate(0.5,20.5)"><path class="background" aria-hidden="true" d="M0,0h0v0h0Z" pointer-events="none"/><g><g class="mark-rule role-axis-grid" pointer-events="none"><line transform="translate(150,0)" x2="0" y2="-20" stroke="#ddd" stroke-width="1" opacity="1"/></g></g><path class="foreground" aria-hidden="true" d="" pointer-events="none" display="none"/></g></g><g class="mark-group role-axis" role="graphics-symbol" aria-roledescription="axis" aria-label="X-axis titled 'Founded (year)' for a time scale with values from 1970 to 1970"><g transform="translate(0.5,20.5)"><path class="background" aria-hidden="true" d="M0,0h0v0h0Z" pointer-events="none"/><g><g class="mark-rule role-axis-tick" pointer-events="none"><line transform="translate(150,0)" x2="0" y2="5" stroke="#888" stroke-width="1" opacity="1"/></g><g class="mark-text role-axis-label" pointer-events="none"><text text-anchor="middle" transform="translate(150,15)" font-family="sans-serif" font-size="10px" fill="#000" opacity="1">1970</text></g><g class="mark-rule role-axis-domain" pointer-events="none"><line transform="translate(0,0)" x2="300" y2="0" stroke="#888" stroke-width="1" opacity="1"/></g><g class="mark-text role-axis-title" pointer-events="none"><text text-anchor="middle" transform="translate(150,30)" font-family="sans-serif" font-size="11px" font-weight="bold" fill="#000" opacity="1">Founded (year)</text></g></g><path class="foreground" aria-hidden="true" d="" pointer-events="none" display="none"/></g></g><g class="mark-symbol role-mark marks" role="graphics-object" aria-roledescription="symbol mark container"><path aria-label="Founded (year): 1970; Type: Private; Enrollment: 1200" role="graphics-symbol" aria-roledescription="circle" transform="translate(150,10)" d="M5.909,0A5.909,5.909,0,1,1,-5.909,0A5.909,5.909,0,1,1,5.909,0" fill="#4c78a8" stroke-width="2" opacity="0.7"/><path aria-label="Founded (year): 1970; Type: Public; Enrollment: 3102" role="graphics-symbol" aria-roledescription="circle" transform="translate(150,10)" d="M9.5,0A9.5,9.5,0,1,1,-9.5,0A9.5,9.5,0,1,1,9.5,0" fill="#f58518" stroke-width="2" opacity="0.7"/><path aria-label="Founded (year): 1970; Type: Private; Enrollment: 800" role="graphics-symbol" aria-roledescription="circle" transform="translate(150,10)" d="M4.824,0A4.824,4.824,0,1,1,-4.824,0A4.824,4.824,0,1,1,4.824,0" fill="#4c78a8" stroke-width="2" opacity="0.7"/><path aria-label="Founded (year): 1970; Type: Tribal; Enrollment: 1000" role="graphics-symbol" aria-roledescription="circle" transform="translate(150,10)" d="M5.394,0A5.394,5.394,0,1,1,-5.394,0A5.394,5.394,0,1,1,5.394,0" fill="#e45756" stroke-width="2" opacity="0.7"/><path aria-label="Founded (year): 1970; Type: Private; Enrollment: 967" role="graphics-symbol" aria-roledescription="circle" transform="translate(150,10)" d="M5.304,0A5.304,5.304,0,1,1,-5.304,0A5.304,5.304,0,1,1,5.304,0" fill="#4c78a8" stroke-width="2" opacity="0.7"/><path aria-label="Founded (year): 1970; Type: Private; Enrollment: 2600" role="graphics-symbol" aria-roledescription="circle" transform="translate(150,10)" d="M8.697,0A8.697,8.697,0,1,1,-8.697,0A8.697,8.697,0,1,1,8.697,0" fill="#4c78a8" stroke-width="2" opacity="0.7"/><path aria-label="Founded (year): 1970; Type: Public; Enrollment: 825" role="graphics-symbol" aria-roledescription="circle" transform="translate(150,10)" d="M4.899,0A4.899,4.899,0,1,1,-4.899,0A4.899,4.899,0,1,1,4.899,0" fill="#f58518" stroke-width="2" opacity="0.7"/><path aria-label="Founded (year): 1970; Type: Private; Enrollment: 650" role="graphics-symbol" aria-roledescription="circle" transform="translate(150,10)" d="M4.349,0A4.349,4.349,0,1,1,-4.349,0A4.349,4.349,0,1,1,4.349,0" fill="#4c78a8" stroke-width="2" opacity="0.7"/><path aria-label="Founded (year): 1970; Type: Private; Enrollment: 1035" role="graphics-symbol" aria-roledescription="circle" transform="translate(150,10)" d="M5.487,0A5.487,5.487,0,1,1,-5.487,0A5.487,5.487,0,1,1,5.487,0" fill="#4c78a8" stroke-width="2" opacity="0.7"/><path aria-label="Founded (year): 1970; Type: Public; Enrollment: 1340" role="graphics-symbol" aria-roledescription="circle" transform="translate(150,10)" d="M6.244,0A6.244,6.244,0,1,1,-6.244,0A6.244,6.244,0,1,1,6.244,0" fill="#f58518" stroke-width="2" opacity="0.7"/><path aria-label="Founded (year): 1970; Type: Private; Enrollment: 616" role="graphics-symbol" aria-roledescription="circle" transform="translate(150,10)" d="M4.233,0A4.233,4.233,0,1,1,-4.233,0A4.233,4.233,0,1,1,4.233,0" fill="#4c78a8" stroke-width="2" opacity="0.7"/></g><g class="mark-group role-legend" role="graphics-symbol" aria-roledescription="legend" aria-label="Symbol legend titled 'Type' for fill color with 3 values: Private, Public, Tribal"><g transform="translate(318,0)"><path class="background" aria-hidden="true" d="M0,0h48v53h-48Z" pointer-events="none"/><g><g class="mark-group role-legend-entry"><g transform="translate(0,16)"><path class="background" aria-hidden="true" d="M0,0h0v0h0Z" pointer-events="none"/><g><g class="mark-group role-scope" role="graphics-object" aria-roledescription="group mark container"><g transform="translate(0,0)"><path class="background" aria-hidden="true" d="M0,0h47.123046875v11h-47.123046875Z" pointer-events="none" opacity="1"/><g><g class="mark-symbol role-legend-symbol" pointer-events="none"><path transform="translate(6,6)" d="M5,0A5,5,0,1,1,-5,0A5,5,0,1,1,5,0" fill="#4c78a8" stroke-width="1.5" opacity="0.7"/></g><g class="mark-text role-legend-label" pointer-events="none"><text text-anchor="start" transform="translate(16,9)" font-family="sans-serif" font-size="10px" fill="#000" opacity="1">Private</text></g></g><path class="foreground" aria-hidden="true" d="" pointer-events="none" display="none"/></g><g transform="translate(0,13)"><path class="background" aria-hidden="true" d="M0,0h47.123046875v11h-47.123046875Z" pointer-events="none" opacity="1"/><g><g class="mark-symbol role-legend-symbol" pointer-events="none"><path transform="translate(6,6)" d="M5,0A5,5,0,1,1,-5,0A5,5,0,1,1,5,0" fill="#f58518" stroke-width="1.5" opacity="0.7"/></g><g class="mark-text role-legend-label" pointer-events="none"><text text-anchor="start" transform="translate(16,9)" font-family="sans-serif" font-size="10px" fill="#000" opacity="1">Public</text></g></g><path class="foreground" aria-hidden="true" d="" pointer-events="none" display="none"/></g><g transform="translate(0,26)"><path class="background" aria-hidden="true" d="M0,0h47.123046875v11h-47.123046875Z" pointer-events="none" opacity="1"/><g><g class="mark-symbol role-legend-symbol" pointer-events="none"><path transform="translate(6,6)" d="M5,0A5,5,0,1,1,-5,0A5,5,0,1,1,5,0" fill="#e45756" stroke-width="1.5" opacity="0.7"/></g><g class="mark-text role-legend-label" pointer-events="none"><text text-anchor="start" transform="translate(16,9)" font-family="sans-serif" font-size="10px" fill="#000" opacity="1">Tribal</text></g></g><path class="foreground" aria-hidden="true" d="" pointer-events="none" display="none"/></g></g></g><path class="foreground" aria-hidden="true" d="" pointer-events="none" display="none"/></g></g><g class="mark-text role-legend-title" pointer-events="none"><text text-anchor="start" transform="translate(0,9)" font-family="sans-serif" font-size="11px" font-weight="bold" fill="#000" opacity="1">Type</text></g></g><path class="foreground" aria-hidden="true" d="" pointer-events="none" display="none"/></g></g><g class="mark-group role-legend" role="graphics-symbol" aria-roledescription="legend" aria-label="Symbol legend titled 'Enrollment' for size with values from 0 to 3,102"><g transform="translate(318,61)"><path class="background" aria-hidden="true" d="M0,0h58v132h-58Z" pointer-events="none"/><g><g class="mark-group role-legend-entry"><g transform="translate(0,16)"><path class="background" aria-hidden="true" d="M0,0h0v0h0Z" pointer-events="none"/><g><g class="mark-group role-scope" role="graphics-object" aria-roledescription="group mark container"><g transform="translate(0,0)"><path class="background" aria-hidden="true" d="M0,0h50.0244140625v10.314061668191606h-50.0244140625Z" pointer-events="none" opacity="1"/><g><g class="mark-symbol role-legend-symbol" pointer-events="none"><path transform="translate(10.5,5)" d="M3.814,0A3.814,3.814,0,1,1,-3.814,0A3.814,3.814,0,1,1,3.814,0" fill="black" fill-opacity="0.7" stroke-width="1.5" opacity="0.7"/></g><g class="mark-text role-legend-label" pointer-events="none"><text text-anchor="start" transform="translate(25,8)" font-family="sans-serif" font-size="10px" fill="#000" opacity="1">500</text></g></g><path class="foreground" aria-hidden="true" d="" pointer-events="none" display="none"/></g><g transform="translate(0,14)"><path class="background" aria-hidden="true" d="M0,0h50.0244140625v13.393897738883922h-50.0244140625Z" pointer-events="none" opacity="1"/><g><g class="mark-symbol role-legend-symbol" pointer-events="none"><path transform="translate(10.5,6.5)" d="M5.394,0A5.394,5.394,0,1,1,-5.394,0A5.394,5.394,0,1,1,5.394,0" fill="black" fill-opacity="0.7" stroke-width="1.5" opacity="0.7"/></g><g class="mark-text role-legend-label" pointer-events="none"><text text-anchor="start" transform="translate(25,9.5)" font-family="sans-serif" font-size="10px" fill="#000" opacity="1">1,000</text></g></g><path class="foreground" aria-hidden="true" d="" pointer-events="none" display="none"/></g><g transform="translate(0,31)"><path class="background" aria-hidden="true" d="M0,0h50.0244140625v15.606148592508774h-50.0244140625Z" pointer-events="none" opacity="1"/><g><g class="mark-symbol role-legend-symbol" pointer-events="none"><path transform="translate(10.5,7.5)" d="M6.606,0A6.606,6.606,0,1,1,-6.606,0A6.606,6.606,0,1,1,6.606,0" fill="black" fill-opacity="0.7" stroke-width="1.5" opacity="0.7"/></g><g class="mark-text role-legend-label" pointer-events="none"><text text-anchor="start" transform="translate(25,10.5)" font-family="sans-serif" font-size="10px" fill="#000" opacity="1">1,500</text></g></g><path class="foreground" aria-hidden="true" d="" pointer-events="none" display="none"/></g><g transform="translate(0,50)"><path class="background" aria-hidden="true" d="M0,0h50.0244140625v17.62812333638321h-50.0244140625Z" pointer-events="none" opacity="1"/><g><g class="mark-symbol role-legend-symbol" pointer-events="none"><path transform="translate(10.5,8.5)" d="M7.628,0A7.628,7.628,0,1,1,-7.628,0A7.628,7.628,0,1,1,7.628,0" fill="black" fill-opacity="0.7" stroke-width="1.5" opacity="0.7"/></g><g class="mark-text role-legend-label" pointer-events="none"><text text-anchor="start" transform="translate(25,11.5)" font-family="sans-serif" font-size="10px" fill="#000" opacity="1">2,000</text></g></g><path class="foreground" aria-hidden="true" d="" pointer-events="none" display="none"/></g><g transform="translate(0,71)"><path class="background" aria-hidden="true" d="M0,0h50.0244140625v19.528501160452677h-50.0244140625Z" pointer-events="none" opacity="1"/><g><g class="mark-symbol role-legend-symbol" pointer-events="none"><path transform="translate(10.5,9.5)" d="M8.529,0A8.529,8.529,0,1,1,-8.529,0A8.529,8.529,0,1,1,8.529,0" fill="black" fill-opacity="0.7" stroke-width="1.5" opacity="0.7"/></g><g class="mark-text role-legend-label" pointer-events="none"><text text-anchor="start" transform="translate(25,12.5)" font-family="sans-serif" font-size="10px" fill="#000" opacity="1">2,500</text></g></g><path class="foreground" aria-hidden="true" d="" pointer-events="none" display="none"/></g><g transform="translate(0,94)"><path class="background" aria-hidden="true" d="M0,0h50.0244140625v21.342504934577832h-50.0244140625Z" pointer-events="none" opacity="1"/><g><g class="mark-symbol role-legend-symbol" pointer-events="none"><path transform="translate(10.5,10.5)" d="M9.343,0A9.343,9.343,0,1,1,-9.343,0A9.343,9.343,0,1,1,9.343,0" fill="black" fill-opacity="0.7" stroke-width="1.5" opacity="0.7"/></g><g class="mark-text role-legend-label" pointer-events="none"><text text-anchor="start" transform="translate(25,13.5)" font-family="sans-serif" font-size="10px" fill="#000" opacity="1">3,000</text></g></g><path class="foreground" aria-hidden="true" d="" pointer-events="none" display="none"/></g></g></g><path class="foreground" aria-hidden="true" d="" pointer-events="none" display="none"/></g></g><g class="mark-text role-legend-title" pointer-events="none"><text text-anchor="start" transform="translate(0,9)" font-family="sans-serif" font-size="11px" font-weight="bold" fill="#000" opacity="1">Enrollment</text></g></g><path class="foreground" aria-hidden="true" d="" pointer-events="none" display="none"/></g></g></g><path class="foreground" aria-hidden="true" d="" display="none"/></g></g></g></svg>