<svg xmlns="http://www.w3.org/2000/svg" xmlns:xlink="http://www.w3.org/1999/xlink" version="1.1" class="marks" width="108" height="208" viewBox="0 0 108 208"><rect width="108" height="208" fill="white"/><g fill="none" stroke-miterlimit="10" transform="translate(5,5)"><g class="mark-group role-frame root" role="graphics-object" aria-roledescription="group mark container"><g transform="translate(0,0)"><path class="background" aria-hidden="true" d="M0,0h20v20h-20Z"/><g><g class="mark-symbol role-mark marks" role="graphics-object" aria-roledescription="symbol mark container"><path aria-label="Floors: 12; Height_feet: 145" role="graphics-symbol" aria-roledescription="circle" transform="translate(10,10)" d="M4.754,0A4.754,4.754,0,1,1,-4.754,0A4.754,4.754,0,1,1,4.754,0" fill="rgb(196, 219, 238)" stroke-width="2" opacity="0.7"/><path aria-label="Floors: 10; Height_feet: 160" role="graphics-symbol" aria-roledescription="circle" transform="translate(10,10)" d="M4.994,0A4.994,4.994,0,1,1,-4.994,0A4.994,4.994,0,1,1,4.994,0" fill="rgb(207, 225, 242)" stroke-width="2" opacity="0.7"/><path aria-label="Floors: 17; Height_feet: 204" role="graphics-symbol" aria-roledescription="circle" transform="translate(10,10)" d="M5.639,0A5.639,5.639,0,1,1,-5.639,0A5.639,5.639,0,1,1,5.639,0" fill="rgb(163, 204, 228)" stroke-width="2" opacity="0.7"/><path aria-label="Floors: 22; Height_feet: 280" role="graphics-symbol" aria-roledescription="circle" transform="translate(10,10)" d="M6.606,0A6.606,6.606,0,1,1,-6.606,0A6.606,6.606,0,1,1,6.606,0" fill="rgb(123, 182, 217)" stroke-width="2" opacity="0.7"/><path aria-label="Floors: 36; Height_feet: 458" role="graphics-symbol" aria-roledescription="circle" transform="translate(10,10)" d="M8.449,0A8.449,8.449,0,1,1,-8.449,0A8.449,8.449,0,1,1,8.449,0" fill="rgb(30, 109, 176)" stroke-width="2" opacity="0.7"/><path aria-label="Floors: 39; Height_feet: 537" role="graphics-symbol" aria-roledescription="circle" transform="translate(10,10)" d="M9.149,0A9.149,9.149,0,1,1,-9.149,0A9.149,9.149,0,1,1,9.149,0" fill="rgb(18, 91, 163)" stroke-width="2" opacity="0.7"/><path aria-label="Floors: 42; Height_feet: 577" role="graphics-symbol" aria-roledescription="circle" transform="translate(10,10)" d="M9.484,0A9.484,9.484,0,1,1,-9.484,0A9.484,9.484,0,1,1,9.484,0" fill="rgb(10, 74, 144)" stroke-width="2" opacity="0.7"/><path aria-label="Floors: 42; Height_feet: 579" role="graphics-symbol" aria-roledescription="circle" transform="translate(10,10)" d="M9.5,0A9.5,9.5,0,1,1,-9.5,0A9.5,9.5,0,1,1,9.5,0" fill="rgb(10, 74, 144)" stroke-width="2" opacity="0.7"/></g><g class="mark-group role-legend" role="graphics-symbol" aria-roledescription="legend" aria-label="Gradient legend titled 'Floors' for fill color with values from 10 to 42"><g transform="translate(38,0)"><path class="background" aria-hidden="true" d="M0,0h34v80h-34Z" pointer-events="none"/><g><g class="mark-group role-legend-entry"><g transform="translate(0,16)"><path class="background" aria-hidden="true" d="M0,0h0v0h0Z" pointer-events="none"/><g><g class="mark-rect role-legend-gradient" pointer-events="none"><path d="M0,0h16v64h-16Z" fill="url(#gradient_3)" stroke="#ddd" stroke-width="0" opacity="0.7"/></g><g class="mark-text role-legend-label" pointer-events="none"><text text-anchor="start" transform="translate(18,62)" font-family="sans-serif" font-size="10px" fill="#000" opacity="1">10</text><text text-anchor="start" transform="translate(18,8)" font-family="sans-serif" font-size="10px" fill="#000" opacity="1">42</text></g></g><path class="foreground" aria-hidden="true" d="" pointer-events="none" display="none"/></g></g><g class="mark-text role-legend-title" pointer-events="none"><text text-anchor="start" transform="translate(0,9)" font-family="sans-serif" font-size="11px" font-weight="bold" fill="#000" opacity="1">Floors</text></g></g><path class="foreground" aria-hidden="true" d="" pointer-events="none" display="none"/></g></g><g class="mark-group role-legend" role="graphics-symbol" aria-roledescription="legend" aria-label="Symbol legend titled 'Height_feet' for size with values from 0 to 579"><g transform="translate(38,88)"><path class="background" aria-hidden="true" d="M0,0h60v110h-60Z" pointer-events="none"/><g><g class="mark-group role-legend-entry"><g transform="translate(0,16)"><path class="background" aria-hidden="true" d="M0,0h0v0h0Z" pointer-events="none"/><g><g class="mark-group role-scope" role="graphics-object" aria-roledescription="group mark container"><g transform="translate(0,0)"><path class="background" aria-hidden="true" d="M0,0h40.6845703125v10.448065265886068h-40.6845703125Z" pointer-events="none" opacity="1"/><g><g class="mark-symbol role-legend-symbol" pointer-events="none"><path transform="translate(10,5)" d="M3.948,0A3.948,3.948,0,1,1,-3.948,0A3.948,3.948,0,1,1,3.948,0" fill="black" fill-opacity="0.7" stroke-width="1.5" opacity="0.7"/></g><g class="mark-text role-legend-label" pointer-events="none"><text text-anchor="start" transform="translate(24,8)" font-family="sans-serif" font-size="10px" fill="#000" opacity="1">100</text></g></g><path class="foreground" aria-hidden="true" d="" pointer-events="none" display="none"/></g><g transform="translate(0,14)"><path class="background" aria-hidden="true" d="M0,0h40.6845703125v13.583407444150218h-40.6845703125Z" pointer-events="none" opacity="1"/><g><g class="mark-symbol role-legend-symbol" pointer-events="none"><path transform="translate(10,6.5)" d="M5.583,0A5.583,5.583,0,1,1,-5.583,0A5.583,5.583,0,1,1,5.583,0" fill="black" fill-opacity="0.7" stroke-width="1.5" opacity="0.7"/></g><g class="mark-text role-legend-label" pointer-events="none"><text text-anchor="start" transform="translate(24,9.5)" font-family="sans-serif" font-size="10px" fill="#000" opacity="1">200</text></g></g><path class="foreground" aria-hidden="true" d="" pointer-events="none" display="none"/></g><g transform="translate(0,31)"><path class="background" aria-hidden="true" d="M0,0h40.6845703125v16.3382496321126h-40.6845703125Z" pointer-events="none" opacity="1"/><g><g class="mark-symbol role-legend-symbol" pointer-events="none"><path transform="translate(10,8)" d="M6.838,0A6.838,6.838,0,1,1,-6.838,0A6.838,6.838,0,1,1,6.838,0" fill="black" fill-opacity="0.7" stroke-width="1.5" opacity="0.7"/></g><g class="mark-text role-legend-label" pointer-events="none"><text text-anchor="start" transform="translate(24,11)" font-family="sans-serif" font-size="10px" fill="#000" opacity="1">300</text></g></g><path class="foreground" aria-hidden="true" d="" pointer-events="none" display="none"/></g><g transform="translate(0,51)"><path class="background" aria-hidden="true" d="M0,0h40.6845703125v18.396130531772144h-40.6845703125Z" pointer-events="none" opacity="1"/><g><g class="mark-symbol role-legend-symbol" pointer-events="none"><path transform="translate(10,9)" d="M7.896,0A7.896,7.896,0,1,1,-7.896,0A7.896,7.896,0,1,1,7.896,0" fill="black" fill-opacity="0.7" stroke-width="1.5" opacity="0.7"/></g><g class="mark-text role-legend-label" pointer-events="none"><text text-anchor="start" transform="translate(24,12)" font-family="sans-serif" font-size="10px" fill="#000" opacity="1">400</text></g></g><path class="foreground" aria-hidden="true" d="" pointer-events="none" display="none"/></g><g transform="translate(0,73)"><path class="background" aria-hidden="true" d="M0,0h40.6845703125v20.328142314127035h-40.6845703125Z" pointer-events="none" opacity="1"/><g><g class="mark-symbol role-legend-symbol" pointer-events="none"><path transform="translate(10,10)" d="M8.828,0A8.828,8.828,0,1,1,-8.828,0A8.828,8.828,0,1,1,8.828,0" fill="black" fill-opacity="0.7" stroke-width="1.5" opacity="0.7"/></g><g class="mark-text role-legend-label" pointer-events="none"><text text-anchor="start" transform="translate(24,13)" font-family="sans-serif" font-size="10px" fill="#000" opacity="1">500</text></g></g><path class="foreground" aria-hidden="true" d="" pointer-events="none" display="none"/></g></g></g><path class="foreground" aria-hidden="true" d="" pointer-events="none" display="none"/></g></g><g class="mark-text role-legend-title" pointer-events="none"><text text-anchor="start" transform="translate(0,9)" font-family="sans-serif" font-size="11px" font-weight="bold" fill="#000" opacity="1">Height_feet</text></g></g><path class="foreground" aria-hidden="true" d="" pointer-events="none" display="none"/></g></g></g><path class="foreground" aria-hidden="true" d="" display="none"/></g></g></g><defs><linearGradient id="gradient_3" x1="0" x2="0" y1="1" y2="0"><stop offset="0" stop-color="rgb(207, 225, 242)"/><stop offset="0.0625" stop-color="rgb(196, 219, 238)"/><stop offset="0.125" stop-color="rgb(185, 214, 234)"/><stop offset="0.1875" stop-color="rgb(171, 207, 230)"/><stop offset="0.25" stop-color="rgb(156, 200, 226)"/><stop offset="0.3125" stop-color="rgb(140, 191, 221)"/><stop offset="0.375" stop-color="rgb(123, 182, 217)"/><stop offset="0.4375" stop-color="rgb(107, 172, 212)"/><stop offset="0.5" stop-color="rgb(91, 163, 207)"/><stop offset="0.5625" stop-color="rgb(77, 152, 201)"/><stop offset="0.625" stop-color="rgb(64, 142, 196)"/><stop offset="0.6875" stop-color="rgb(52, 131, 190)"/><stop offset="0.75" stop-color="rgb(41, 120, 184)"/><stop offset="0.8125" stop-color="rgb(30, 109, 176)"/><stop offset="0.875" stop-color="rgb(22, 97, 168)"/><stop offset="0.9375" stop-color="rgb(15, 85, 157)"/><stop offset="1" stop-color="rgb(10, 74, 144)"/></linearGradient></defs></svg>