<svg xmlns="http://www.w3.org/2000/svg" xmlns:xlink="http://www.w3.org/1999/xlink" version="1.1" class="marks" width="152" height="172" viewBox="0 0 152 172"><rect width="152" height="172" fill="white"/><g fill="none" stroke-miterlimit="10" transform="translate(5,5)"><g class="mark-group role-frame root" role="graphics-object" aria-roledescription="group mark container"><g transform="translate(0,0)"><path class="background" aria-hidden="true" d="M0,0h20v20h-20Z"/><g><g class="mark-symbol role-mark marks" role="graphics-object" aria-roledescription="symbol mark container"><path aria-label="Year_Opened (year): 1970; Seating: 92000; Name: Auto Club Speedway" role="graphics-symbol" aria-roledescription="circle" transform="translate(10,10)" d="M7.03,0A7.03,7.03,0,1,1,-7.03,0A7.03,7.03,0,1,1,7.03,0" fill="rgb(96, 161, 206)" stroke-width="2" opacity="0.7"/><path aria-label="Year_Opened (year): 1970; Seating: 75000; Name: Chicagoland Speedway" role="graphics-symbol" aria-roledescription="circle" transform="translate(10,10)" d="M6.347,0A6.347,6.347,0,1,1,-6.347,0A6.347,6.347,0,1,1,6.347,0" fill="rgb(96, 161, 206)" stroke-width="2" opacity="0.7"/><path aria-label="Year_Opened (year): 1970; Seating: 63000; Name: Darlington Raceway" role="graphics-symbol" aria-roledescription="circle" transform="translate(10,10)" d="M5.818,0A5.818,5.818,0,1,1,-5.818,0A5.818,5.818,0,1,1,5.818,0" fill="rgb(96, 161, 206)" stroke-width="2" opacity="0.7"/><path aria-label="Year_Opened (year): 1970; Seating: 168000; Name: Daytona International Speedway" role="graphics-symbol" aria-roledescription="circle" transform="translate(10,10)" d="M9.5,0A9.5,9.5,0,1,1,-9.5,0A9.5,9.5,0,1,1,9.5,0" fill="rgb(96, 161, 206)" stroke-width="2" opacity="0.7"/><path aria-label="Year_Opened (year): 1970; Seating: 65000; Name: Homestead-Miami Speedway" role="graphics-symbol" aria-roledescription="circle" transform="translate(10,10)" d="M5.909,0A5.909,5.909,0,1,1,-5.909,0A5.909,5.909,0,1,1,5.909,0" fill="rgb(96, 161, 206)" stroke-width="2" opacity="0.7"/><path aria-label="Year_Opened (year): 1970; Seating: 81687; Name: Kansas Speedway" role="graphics-symbol" aria-roledescription="circle" transform="translate(10,10)" d="M6.624,0A6.624,6.624,0,1,1,-6.624,0A6.624,6.624,0,1,1,6.624,0" fill="rgb(96, 161, 206)" stroke-width="2" opacity="0.7"/><path aria-label="Year_Opened (year): 1970; Seating: 65000; Name: Martinsville Speedway" role="graphics-symbol" aria-roledescription="circle" transform="translate(10,10)" d="M5.909,0A5.909,5.909,0,1,1,-5.909,0A5.909,5.909,0,1,1,5.909,0" fill="rgb(96, 161, 206)" stroke-width="2" opacity="0.7"/><path aria-label="Year_Opened (year): 1970; Seating: 137243; Name: Michigan International Speedway" role="graphics-symbol" aria-roledescription="circle" transform="translate(10,10)" d="M8.586,0A8.586,8.586,0,1,1,-8.586,0A8.586,8.586,0,1,1,8.586,0" fill="rgb(96, 161, 206)" stroke-width="2" opacity="0.7"/><path aria-label="Year_Opened (year): 1970; Seating: 76812; Name: Phoenix International Raceway" role="graphics-symbol" aria-roledescription="circle" transform="translate(10,10)" d="M6.424,0A6.424,6.424,0,1,1,-6.424,0A6.424,6.424,0,1,1,6.424,0" fill="rgb(96, 161, 206)" stroke-width="2" opacity="0.7"/></g><g class="mark-group role-legend" role="graphics-symbol" aria-roledescription="legend" aria-label="Gradient legend titled 'Year_Opened (year)' for fill color with values from 1970 to 1970"><g transform="translate(38,0)"><path class="background" aria-hidden="true" d="M0,0h104v80h-104Z" pointer-events="none"/><g><g class="mark-group role-legend-entry"><g transform="translate(0,16)"><path class="background" aria-hidden="true" d="M0,0h0v0h0Z" pointer-events="none"/><g><g class="mark-rect role-legend-gradient" pointer-events="none"><path d="M0,0h16v64h-16Z" fill="url(#gradient_4)" stroke="#ddd" stroke-width="0" opacity="0.7"/></g><g class="mark-text role-legend-label" pointer-events="none"><text text-anchor="start" transform="translate(18,35)" font-family="sans-serif" font-size="10px" fill="#000" opacity="1">1970</text></g></g><path class="foreground" aria-hidden="true" d="" pointer-events="none" display="none"/></g></g><g class="mark-text role-legend-title" pointer-events="none"><text text-anchor="start" transform="translate(0,9)" font-family="sans-serif" font-size="11px" font-weight="bold" fill="#000" opacity="1">Year_Opened (year)</text></g></g><path class="foreground" aria-hidden="true" d="" pointer-events="none" display="none"/></g></g><g class="mark-group role-legend" role="graphics-symbol" aria-roledescription="legend" aria-label="Symbol legend titled 'Seating' for size with values from 0 to 168,000"><g transform="translate(38,88)"><path class="background" aria-hidden="true" d="M0,0h61v74h-61Z" pointer-events="none"/><g><g class="mark-group role-legend-entry"><g transform="translate(0,16)"><path class="background" aria-hidden="true" d="M0,0h0v0h0Z" pointer-events="none"/><g><g class="mark-group role-scope" role="graphics-object" aria-roledescription="group mark container"><g transform="translate(0,0)"><path class="background" aria-hidden="true" d="M0,0h60.1474609375v12.682674893104819h-60.1474609375Z" pointer-events="none" opacity="1"/><g><g class="mark-symbol role-legend-symbol" pointer-events="none"><path transform="translate(10,6)" d="M5.183,0A5.183,5.183,0,1,1,-5.183,0A5.183,5.183,0,1,1,5.183,0" fill="black" fill-opacity="0.7" stroke-width="1.5" opacity="0.7"/></g><g class="mark-text role-legend-label" pointer-events="none"><text text-anchor="start" transform="translate(24,9)" font-family="sans-serif" font-size="10px" fill="#000" opacity="1">50,000</text></g></g><path class="foreground" aria-hidden="true" d="" pointer-events="none" display="none"/></g><g transform="translate(0,16)"><path class="background" aria-hidden="true" d="M0,0h60.1474609375v17.32940912319937h-60.1474609375Z" pointer-events="none" opacity="1"/><g><g class="mark-symbol role-legend-symbol" pointer-events="none"><path transform="translate(10,8.5)" d="M7.329,0A7.329,7.329,0,1,1,-7.329,0A7.329,7.329,0,1,1,7.329,0" fill="black" fill-opacity="0.7" stroke-width="1.5" opacity="0.7"/></g><g class="mark-text role-legend-label" pointer-events="none"><text text-anchor="start" transform="translate(24,11.5)" font-family="sans-serif" font-size="10px" fill="#000" opacity="1">100,000</text></g></g><path class="foreground" aria-hidden="true" d="" pointer-events="none" display="none"/></g><g transform="translate(0,37)"><path class="background" aria-hidden="true" d="M0,0h60.1474609375v20.476656233969145h-60.1474609375Z" pointer-events="none" opacity="1"/><g><g class="mark-symbol role-legend-symbol" pointer-events="none"><path transform="translate(10,10)" d="M8.977,0A8.977,8.977,0,1,1,-8.977,0A8.977,8.977,0,1,1,8.977,0" fill="black" fill-opacity="0.7" stroke-width="1.5" opacity="0.7"/></g><g class="mark-text role-legend-label" pointer-events="none"><text text-anchor="start" transform="translate(24,13)" font-family="sans-serif" font-size="10px" fill="#000" opacity="1">150,000</text></g></g><path class="foreground" aria-hidden="true" d="" pointer-events="none" display="none"/></g></g></g><path class="foreground" aria-hidden="true" d="" pointer-events="none" display="none"/></g></g><g class="mark-text role-legend-title" pointer-events="none"><text text-anchor="start" transform="translate(0,9)" font-family="sans-serif" font-size="11px" font-weight="bold" fill="#000" opacity="1">Seating</text></g></g><path class="foreground" aria-hidden="true" d="" pointer-events="none" display="none"/></g></g></g><path class="foreground" aria-hidden="true" d="" display="none"/></g></g></g><defs><linearGradient id="gradient_4" x1="0" x2="0" y1="1" y2="0"><stop offset="0" stop-color="rgb(134, 188, 220)"/><stop offset="0.05" stop-color="rgb(130, 185, 219)"/><stop offset="0.1" stop-color="rgb(126, 183, 217)"/><stop offset="0.15" stop-color="rgb(123, 180, 216)"/><stop offset="0.2" stop-color="rgb(119, 177, 214)"/><stop offset="0.25" stop-color="rgb(115, 175, 213)"/><stop offset="0.3" stop-color="rgb(111, 172, 211)"/><stop offset="0.35" stop-color="rgb(107, 169, 210)"/><stop offset="0.4" stop-color="rgb(104, 167, 209)"/><stop offset="0.45" stop-color="rgb(100, 164, 207)"/><stop offset="0.5" stop-color="rgb(96, 161, 206)"/><stop offset="0.55" stop-color="rgb(92, 159, 204)"/><stop offset="0.6" stop-color="rgb(88, 156, 203)"/><stop offset="0.65" stop-color="rgb(85, 154, 202)"/><stop offset="0.7" stop-color="rgb(81, 151, 200)"/><stop offset="0.75" stop-color="rgb(77, 148, 199)"/><stop offset="0.8" stop-color="rgb(73, 146, 198)"/><stop offset="0.85" stop-color="rgb(69, 143, 196)"/><stop offset="0.9" stop-color="rgb(65, 140, 195)"/><stop offset="0.95" stop-color="rgb(60, 138, 193)"/><stop offset="1" stop-color="rgb(56, 135, 192)"/></linearGradient></defs></svg>