<svg xmlns="http://www.w3.org/2000/svg" xmlns:xlink="http://www.w3.org/1999/xlink" version="1.1" class="marks" width="275" height="349" viewBox="0 0 275 349"><rect width="275" height="349" fill="white"/><g fill="none" stroke-miterlimit="10" transform="translate(39,5)"><g class="mark-group role-frame root" role="graphics-object" aria-roledescription="group mark container"><g transform="translate(0,0)"><path class="background" aria-hidden="true" d="M0.5,0.5h120v300h-120Z" stroke="#ddd"/><g><g class="mark-group role-axis" aria-hidden="true"><g transform="translate(0.5,0.5)"><path class="background" aria-hidden="true" d="M0,0h0v0h0Z" pointer-events="none"/><g><g class="mark-rule role-axis-grid" pointer-events="none"><line transform="translate(0,300)" x2="120" y2="0" stroke="#ddd" stroke-width="1" opacity="1"/><line transform="translate(0,246)" x2="120" y2="0" stroke="#ddd" stroke-width="1" opacity="1"/><line transform="translate(0,193)" x2="120" y2="0" stroke="#ddd" stroke-width="1" opacity="1"/><line transform="translate(0,139)" x2="120" y2="0" stroke="#ddd" stroke-width="1" opacity="1"/><line transform="translate(0,86)" x2="120" y2="0" stroke="#ddd" stroke-width="1" opacity="1"/><line transform="translate(0,32)" x2="120" y2="0" stroke="#ddd" stroke-width="1" opacity="1"/></g></g><path class="foreground" aria-hidden="true" d="" pointer-events="none" display="none"/></g></g><g class="mark-group role-axis" role="graphics-symbol" aria-roledescription="axis" aria-label="X-axis titled 'Major' for a discrete scale with 6 values: 50, 100, 520, 540, 550, 600"><g transform="translate(0.5,300.5)"><path class="background" aria-hidden="true" d="M0,0h0v0h0Z" pointer-events="none"/><g><g class="mark-rule role-axis-tick" pointer-events="none"><line transform="translate(10,0)" x2="0" y2="5" stroke="#888" stroke-width="1" opacity="1"/><line transform="translate(30,0)" x2="0" y2="5" stroke="#888" stroke-width="1" opacity="1"/><line transform="translate(50,0)" x2="0" y2="5" stroke="#888" stroke-width="1" opacity="1"/><line transform="translate(70,0)" x2="0" y2="5" stroke="#888" stroke-width="1" opacity="1"/><line transform="translate(90,0)" x2="0" y2="5" stroke="#888" stroke-width="1" opacity="1"/><line transform="translate(110,0)" x2="0" y2="5" stroke="#888" stroke-width="1" opacity="1"/></g><g class="mark-text role-axis-label" pointer-events="none"><text text-anchor="end" transform="translate(10,7) rotate(270) translate(0,3)" font-family="sans-serif" font-size="10px" fill="#000" opacity="1">50</text><text text-anchor="end" transform="translate(30,7) rotate(270) translate(0,3)" font-family="sans-serif" font-size="10px" fill="#000" opacity="1">100</text><text text-anchor="end" transform="translate(50,7) rotate(270) translate(0,3)" font-family="sans-serif" font-size="10px" fill="#000" opacity="1">520</text><text text-anchor="end" transform="translate(70,7) rotate(270) translate(0,3)" font-family="sans-serif" font-size="10px" fill="#000" opacity="1">540</text><text text-anchor="end" transform="translate(90,7) rotate(270) translate(0,3)" font-family="sans-serif" font-size="10px" fill="#000" opacity="1">550</text><text text-anchor="end" transform="translate(110,7) rotate(270) translate(0,3)" font-family="sans-serif" font-size="10px" fill="#000" opacity="1">600</text></g><g class="mark-rule role-axis-domain" pointer-events="none"><line transform="translate(0,0)" x2="120" y2="0" stroke="#888" stroke-width="1" opacity="1"/></g><g class="mark-text role-axis-title" pointer-events="none"><text text-anchor="middle" transform="translate(60,36.6845703125)" font-family="sans-serif" font-size="11px" font-weight="bold" fill="#000" opacity="1">Major</text></g></g><path class="foreground" aria-hidden="true" d="" pointer-events="none" display="none"/></g></g><g class="mark-group role-axis" role="graphics-symbol" aria-roledescription="axis" aria-label="Y-axis titled 'Age' for a linear scale with values from 0 to 28"><g transform="translate(0.5,0.5)"><path class="background" aria-hidden="true" d="M0,0h0v0h0Z" pointer-events="none"/><g><g class="mark-rule role-axis-tick" pointer-events="none"><line transform="translate(0,300)" x2="-5" y2="0" stroke="#888" stroke-width="1" opacity="1"/><line transform="translate(0,246)" x2="-5" y2="0" stroke="#888" stroke-width="1" opacity="1"/><line transform="translate(0,193)" x2="-5" y2="0" stroke="#888" stroke-width="1" opacity="1"/><line transform="translate(0,139)" x2="-5" y2="0" stroke="#888" stroke-width="1" opacity="1"/><line transform="translate(0,86)" x2="-5" y2="0" stroke="#888" stroke-width="1" opacity="1"/><line transform="translate(0,32)" x2="-5" y2="0" stroke="#888" stroke-width="1" opacity="1"/></g><g class="mark-text role-axis-label" pointer-events="none"><text text-anchor="end" transform="translate(-7,303)" font-family="sans-serif" font-size="10px" fill="#000" opacity="1">0</text><text text-anchor="end" transform="translate(-7,249.42857142857142)" font-family="sans-serif" font-size="10px" fill="#000" opacity="1">5</text><text text-anchor="end" transform="translate(-7,195.85714285714283)" font-family="sans-serif" font-size="10px" fill="#000" opacity="1">10</text><text text-anchor="end" transform="translate(-7,142.28571428571428)" font-family="sans-serif" font-size="10px" fill="#000" opacity="1">15</text><text text-anchor="end" transform="translate(-7,88.71428571428571)" font-family="sans-serif" font-size="10px" fill="#000" opacity="1">20</text><text text-anchor="end" transform="translate(-7,35.14285714285713)" font-family="sans-serif" font-size="10px" fill="#000" opacity="1">25</text></g><g class="mark-rule role-axis-domain" pointer-events="none"><line transform="translate(0,300)" x2="0" y2="-300" stroke="#888" stroke-width="1" opacity="1"/></g><g class="mark-text role-axis-title" pointer-events="none"><text text-anchor="middle" transform="translate(-22.123046875,150) rotate(-90) translate(0,-2)" font-family="sans-serif" font-size="11px" font-weight="bold" fill="#000" opacity="1">Age</text></g></g><path class="foreground" aria-hidden="true" d="" pointer-events="none" display="none"/></g></g><g class="mark-symbol role-mark marks" role="graphics-object" aria-roledescription="symbol mark container"><path aria-label="Major: 600; Age: 18; Sex: F; Count of Records: 2" role="graphics-symbol" aria-roledescription="circle" transform="translate(110,107.14285714285712)" d="M7.757,0A7.757,7.757,0,1,1,-7.757,0A7.757,7.757,0,1,1,7.757,0" fill="#4c78a8" stroke-width="2"/><path aria-label="Major: 600; Age: 19; Sex: F; Count of Records: 1" role="graphics-symbol" aria-roledescription="circle" transform="translate(110,96.42857142857142)" d="M5.485,0A5.485,5.485,0,1,1,-5.485,0A5.485,5.485,0,1,1,5.485,0" fill="#4c78a8" stroke-width="2"/><path aria-label="Major: 600; Age: 21; Sex: F; Count of Records: 1" role="graphics-symbol" aria-roledescription="circle" transform="translate(110,75)" d="M5.485,0A5.485,5.485,0,1,1,-5.485,0A5.485,5.485,0,1,1,5.485,0" fill="#4c78a8" stroke-width="2"/><path aria-label="Major: 600; Age: 20; Sex: M; Count of Records: 3" role="graphics-symbol" aria-roledescription="circle" transform="translate(110,85.71428571428571)" d="M9.5,0A9.5,9.5,0,1,1,-9.5,0A9.5,9.5,0,1,1,9.5,0" fill="#f58518" stroke-width="2"/><path aria-label="Major: 600; Age: 26; Sex: M; Count of Records: 1" role="graphics-symbol" aria-roledescription="circle" transform="translate(110,21.42857142857142)" d="M5.485,0A5.485,5.485,0,1,1,-5.485,0A5.485,5.485,0,1,1,5.485,0" fill="#f58518" stroke-width="2"/><path aria-label="Major: 600; Age: 18; Sex: M; Count of Records: 3" role="graphics-symbol" aria-roledescription="circle" transform="translate(110,107.14285714285712)" d="M9.5,0A9.5,9.5,0,1,1,-9.5,0A9.5,9.5,0,1,1,9.5,0" fill="#f58518" stroke-width="2"/><path aria-label="Major: 600; Age: 20; Sex: F; Count of Records: 1" role="graphics-symbol" aria-roledescription="circle" transform="translate(110,85.71428571428571)" d="M5.485,0A5.485,5.485,0,1,1,-5.485,0A5.485,5.485,0,1,1,5.485,0" fill="#4c78a8" stroke-width="2"/><path aria-label="Major: 600; Age: 19; Sex: M; Count of Records: 1" role="graphics-symbol" aria-roledescription="circle" transform="translate(110,96.42857142857142)" d="M5.485,0A5.485,5.485,0,1,1,-5.485,0A5.485,5.485,0,1,1,5.485,0" fill="#f58518" stroke-width="2"/><path aria-label="Major: 600; Age: 17; Sex: M; Count of Records: 2" role="graphics-symbol" aria-roledescription="circle" transform="translate(110,117.85714285714288)" d="M7.757,0A7.757,7.757,0,1,1,-7.757,0A7.757,7.757,0,1,1,7.757,0" fill="#f58518" stroke-width="2"/><path aria-label="Major: 600; Age: 22; Sex: M; Count of Records: 1" role="graphics-symbol" aria-roledescription="circle" transform="translate(110,64.28571428571429)" d="M5.485,0A5.485,5.485,0,1,1,-5.485,0A5.485,5.485,0,1,1,5.485,0" fill="#f58518" stroke-width="2"/><path aria-label="Major: 600; Age: 16; Sex: F; Count of Records: 1" role="graphics-symbol" aria-roledescription="circle" transform="translate(110,128.57142857142858)" d="M5.485,0A5.485,5.485,0,1,1,-5.485,0A5.485,5.485,0,1,1,5.485,0" fill="#4c78a8" stroke-width="2"/><path aria-label="Major: 600; Age: 27; Sex: M; Count of Records: 1" role="graphics-symbol" aria-roledescription="circle" transform="translate(110,10.71428571428571)" d="M5.485,0A5.485,5.485,0,1,1,-5.485,0A5.485,5.485,0,1,1,5.485,0" fill="#f58518" stroke-width="2"/><path aria-label="Major: 520; Age: 22; Sex: M; Count of Records: 1" role="graphics-symbol" aria-roledescription="circle" transform="translate(50,64.28571428571429)" d="M5.485,0A5.485,5.485,0,1,1,-5.485,0A5.485,5.485,0,1,1,5.485,0" fill="#f58518" stroke-width="2"/><path aria-label="Major: 520; Age: 19; Sex: M; Count of Records: 2" role="graphics-symbol" aria-roledescription="circle" transform="translate(50,96.42857142857142)" d="M7.757,0A7.757,7.757,0,1,1,-7.757,0A7.757,7.757,0,1,1,7.757,0" fill="#f58518" stroke-width="2"/><path aria-label="Major: 540; Age: 17; Sex: M; Count of Records: 1" role="graphics-symbol" aria-roledescription="circle" transform="translate(70,117.85714285714288)" d="M5.485,0A5.485,5.485,0,1,1,-5.485,0A5.485,5.485,0,1,1,5.485,0" fill="#f58518" stroke-width="2"/><path aria-label="Major: 520; Age: 20; Sex: M; Count of Records: 1" role="graphics-symbol" aria-roledescription="circle" transform="translate(50,85.71428571428571)" d="M5.485,0A5.485,5.485,0,1,1,-5.485,0A5.485,5.485,0,1,1,5.485,0" fill="#f58518" stroke-width="2"/><path aria-label="Major: 540; Age: 18; Sex: F; Count of Records: 1" role="graphics-symbol" aria-roledescription="circle" transform="translate(70,107.14285714285712)" d="M5.485,0A5.485,5.485,0,1,1,-5.485,0A5.485,5.485,0,1,1,5.485,0" fill="#4c78a8" stroke-width="2"/><path aria-label="Major: 520; Age: 18; Sex: M; Count of Records: 2" role="graphics-symbol" aria-roledescription="circle" transform="translate(50,107.14285714285712)" d="M7.757,0A7.757,7.757,0,1,1,-7.757,0A7.757,7.757,0,1,1,7.757,0" fill="#f58518" stroke-width="2"/><path aria-label="Major: 550; Age: 20; Sex: M; Count of Records: 2" role="graphics-symbol" aria-roledescription="circle" transform="translate(90,85.71428571428571)" d="M7.757,0A7.757,7.757,0,1,1,-7.757,0A7.757,7.757,0,1,1,7.757,0" fill="#f58518" stroke-width="2"/><path aria-label="Major: 100; Age: 17; Sex: M; Count of Records: 1" role="graphics-symbol" aria-roledescription="circle" transform="translate(30,117.85714285714288)" d="M5.485,0A5.485,5.485,0,1,1,-5.485,0A5.485,5.485,0,1,1,5.485,0" fill="#f58518" stroke-width="2"/><path aria-label="Major: 550; Age: 21; Sex: F; Count of Records: 1" role="graphics-symbol" aria-roledescription="circle" transform="translate(90,75)" d="M5.485,0A5.485,5.485,0,1,1,-5.485,0A5.485,5.485,0,1,1,5.485,0" fill="#4c78a8" stroke-width="2"/><path aria-label="Major: 550; Age: 20; Sex: F; Count of Records: 1" role="graphics-symbol" aria-roledescription="circle" transform="translate(90,85.71428571428571)" d="M5.485,0A5.485,5.485,0,1,1,-5.485,0A5.485,5.485,0,1,1,5.485,0" fill="#4c78a8" stroke-width="2"/><path aria-label="Major: 550; Age: 18; Sex: M; Count of Records: 1" role="graphics-symbol" aria-roledescription="circle" transform="translate(90,107.14285714285712)" d="M5.485,0A5.485,5.485,0,1,1,-5.485,0A5.485,5.485,0,1,1,5.485,0" fill="#f58518" stroke-width="2"/><path aria-label="Major: 50; Age: 18; Sex: M; Count of Records: 1" role="graphics-symbol" aria-roledescription="circle" transform="translate(10,107.14285714285712)" d="M5.485,0A5.485,5.485,0,1,1,-5.485,0A5.485,5.485,0,1,1,5.485,0" fill="#f58518" stroke-width="2"/><path aria-label="Major: 50; Age: 26; Sex: F; Count of Records: 1" role="graphics-symbol" aria-roledescription="circle" transform="translate(10,21.42857142857142)" d="M5.485,0A5.485,5.485,0,1,1,-5.485,0A5.485,5.485,0,1,1,5.485,0" fill="#4c78a8" stroke-width="2"/></g><g class="mark-group role-legend" role="graphics-symbol" aria-roledescription="legend" aria-label="Symbol legend titled 'Sex' for fill color with 2 values: F, M"><g transform="translate(138,0)"><path class="background" aria-hidden="true" d="M0,0h25v40h-25Z" pointer-events="none"/><g><g class="mark-group role-legend-entry"><g transform="translate(0,16)"><path class="background" aria-hidden="true" d="M0,0h0v0h0Z" pointer-events="none"/><g><g class="mark-group role-scope" role="graphics-object" aria-roledescription="group mark container"><g transform="translate(0,0)"><path class="background" aria-hidden="true" d="M0,0h24.330078125v11h-24.330078125Z" pointer-events="none" opacity="1"/><g><g class="mark-symbol role-legend-symbol" pointer-events="none"><path transform="translate(6,6)" d="M5,0A5,5,0,1,1,-5,0A5,5,0,1,1,5,0" fill="#4c78a8" stroke-width="1.5" opacity="1"/></g><g class="mark-text role-legend-label" pointer-events="none"><text text-anchor="start" transform="translate(16,9)" font-family="sans-serif" font-size="10px" fill="#000" opacity="1">F</text></g></g><path class="foreground" aria-hidden="true" d="" pointer-events="none" display="none"/></g><g transform="translate(0,13)"><path class="background" aria-hidden="true" d="M0,0h24.330078125v11h-24.330078125Z" pointer-events="none" opacity="1"/><g><g class="mark-symbol role-legend-symbol" pointer-events="none"><path transform="translate(6,6)" d="M5,0A5,5,0,1,1,-5,0A5,5,0,1,1,5,0" fill="#f58518" stroke-width="1.5" opacity="1"/></g><g class="mark-text role-legend-label" pointer-events="none"><text text-anchor="start" transform="translate(16,9)" font-family="sans-serif" font-size="10px" fill="#000" opacity="1">M</text></g></g><path class="foreground" aria-hidden="true" d="" pointer-events="none" display="none"/></g></g></g><path class="foreground" aria-hidden="true" d="" pointer-events="none" display="none"/></g></g><g class="mark-text role-legend-title" pointer-events="none"><text text-anchor="start" transform="translate(0,9)" font-family="sans-serif" font-size="11px" font-weight="bold" fill="#000" opacity="1">Sex</text></g></g><path class="foreground" aria-hidden="true" d="" pointer-events="none" display="none"/></g></g><g class="mark-group role-legend" role="graphics-symbol" aria-roledescription="legend" aria-label="Symbol legend titled 'Count of Records' for size with values from 0.0 to 3.0"><g transform="translate(138,48)"><path class="background" aria-hidden="true" d="M0,0h93v133h-93Z" pointer-events="none"/><g><g class="mark-group role-legend-entry"><g transform="translate(0,16)"><path class="background" aria-hidden="true" d="M0,0h0v0h0Z" pointer-events="none"/><g><g class="mark-group role-scope" role="graphics-object" aria-roledescription="group mark container"><g transform="translate(0,0)"><path class="background" aria-hidden="true" d="M0,0h38.9013671875v10.378358759406698h-38.9013671875Z" pointer-events="none" opacity="1"/><g><g class="mark-symbol role-legend-symbol" pointer-events="none"><path transform="translate(10.5,5)" d="M3.878,0A3.878,3.878,0,1,1,-3.878,0A3.878,3.878,0,1,1,3.878,0" fill="black" fill-opacity="1" stroke-width="1.5" opacity="1"/></g><g class="mark-text role-legend-label" pointer-events="none"><text text-anchor="start" transform="translate(25,8)" font-family="sans-serif" font-size="10px" fill="#000" opacity="1">0.5</text></g></g><path class="foreground" aria-hidden="true" d="" pointer-events="none" display="none"/></g><g transform="translate(0,14)"><path class="background" aria-hidden="true" d="M0,0h38.9013671875v13.484827557301443h-38.9013671875Z" pointer-events="none" opacity="1"/><g><g class="mark-symbol role-legend-symbol" pointer-events="none"><path transform="translate(10.5,6.5)" d="M5.485,0A5.485,5.485,0,1,1,-5.485,0A5.485,5.485,0,1,1,5.485,0" fill="black" fill-opacity="1" stroke-width="1.5" opacity="1"/></g><g class="mark-text role-legend-label" pointer-events="none"><text text-anchor="start" transform="translate(25,9.5)" font-family="sans-serif" font-size="10px" fill="#000" opacity="1">1.0</text></g></g><path class="foreground" aria-hidden="true" d="" pointer-events="none" display="none"/></g><g transform="translate(0,31)"><path class="background" aria-hidden="true" d="M0,0h38.9013671875v15.717514421272199h-38.9013671875Z" pointer-events="none" opacity="1"/><g><g class="mark-symbol role-legend-symbol" pointer-events="none"><path transform="translate(10.5,7.5)" d="M6.718,0A6.718,6.718,0,1,1,-6.718,0A6.718,6.718,0,1,1,6.718,0" fill="black" fill-opacity="1" stroke-width="1.5" opacity="1"/></g><g class="mark-text role-legend-label" pointer-events="none"><text text-anchor="start" transform="translate(25,10.5)" font-family="sans-serif" font-size="10px" fill="#000" opacity="1">1.5</text></g></g><path class="foreground" aria-hidden="true" d="" pointer-events="none" display="none"/></g><g transform="translate(0,50)"><path class="background" aria-hidden="true" d="M0,0h38.9013671875v18.25671751881339h-38.9013671875Z" pointer-events="none" opacity="1"/><g><g class="mark-symbol role-legend-symbol" pointer-events="none"><path transform="translate(10.5,9)" d="M7.757,0A7.757,7.757,0,1,1,-7.757,0A7.757,7.757,0,1,1,7.757,0" fill="black" fill-opacity="1" stroke-width="1.5" opacity="1"/></g><g class="mark-text role-legend-label" pointer-events="none"><text text-anchor="start" transform="translate(25,12)" font-family="sans-serif" font-size="10px" fill="#000" opacity="1">2.0</text></g></g><path class="foreground" aria-hidden="true" d="" pointer-events="none" display="none"/></g><g transform="translate(0,72)"><path class="background" aria-hidden="true" d="M0,0h38.9013671875v19.672273827165128h-38.9013671875Z" pointer-events="none" opacity="1"/><g><g class="mark-symbol role-legend-symbol" pointer-events="none"><path transform="translate(10.5,9.5)" d="M8.672,0A8.672,8.672,0,1,1,-8.672,0A8.672,8.672,0,1,1,8.672,0" fill="black" fill-opacity="1" stroke-width="1.5" opacity="1"/></g><g class="mark-text role-legend-label" pointer-events="none"><text text-anchor="start" transform="translate(25,12.5)" font-family="sans-serif" font-size="10px" fill="#000" opacity="1">2.5</text></g></g><path class="foreground" aria-hidden="true" d="" pointer-events="none" display="none"/></g><g transform="translate(0,95)"><path class="background" aria-hidden="true" d="M0,0h38.9013671875v21.5h-38.9013671875Z" pointer-events="none" opacity="1"/><g><g class="mark-symbol role-legend-symbol" pointer-events="none"><path transform="translate(10.5,10.5)" d="M9.5,0A9.5,9.5,0,1,1,-9.5,0A9.5,9.5,0,1,1,9.5,0" fill="black" fill-opacity="1" stroke-width="1.5" opacity="1"/></g><g class="mark-text role-legend-label" pointer-events="none"><text text-anchor="start" transform="translate(25,13.5)" font-family="sans-serif" font-size="10px" fill="#000" opacity="1">3.0</text></g></g><path class="foreground" aria-hidden="true" d="" pointer-events="none" display="none"/></g></g></g><path class="foreground" aria-hidden="true" d="" pointer-events="none" display="none"/></g></g><g class="mark-text role-legend-title" pointer-events="none"><text text-anchor="start" transform="translate(0,9)" font-family="sans-serif" font-size="11px" font-weight="bold" fill="#000" opacity="1">Count of Records</text></g></g><path class="foreground" aria-hidden="true" d="" pointer-events="none" display="none"/></g></g></g><path class="foreground" aria-hidden="true" d="" display="none"/></g></g></g></svg>