<svg xmlns="http://www.w3.org/2000/svg" xmlns:xlink="http://www.w3.org/1999/xlink" version="1.1" class="marks" width="211" height="130" viewBox="0 0 211 130"><rect width="211" height="130" fill="white"/><g fill="none" stroke-miterlimit="10" transform="translate(99,14)"><g class="mark-group role-frame root" role="graphics-object" aria-roledescription="group mark container"><g transform="translate(0,0)"><path class="background" aria-hidden="true" d="M0.5,0.5h40v40h-40Z" stroke="#ddd"/><g><g class="mark-group role-axis" role="graphics-symbol" aria-roledescription="axis" aria-label="X-axis titled 'Type' for a discrete scale with 2 values: Battle ship, Cargo ship"><g transform="translate(0.5,40.5)"><path class="background" aria-hidden="true" d="M0,0h0v0h0Z" pointer-events="none"/><g><g class="mark-rule role-axis-tick" pointer-events="none"><line transform="translate(10,0)" x2="0" y2="5" stroke="#888" stroke-width="1" opacity="1"/><line transform="translate(30,0)" x2="0" y2="5" stroke="#888" stroke-width="1" opacity="1"/></g><g class="mark-text role-axis-label" pointer-events="none"><text text-anchor="end" transform="translate(10,7) rotate(270) translate(0,3)" font-family="sans-serif" font-size="10px" fill="#000" opacity="1">Battle ship</text><text text-anchor="end" transform="translate(30,7) rotate(270) translate(0,3)" font-family="sans-serif" font-size="10px" fill="#000" opacity="1">Cargo ship</text></g><g class="mark-rule role-axis-domain" pointer-events="none"><line transform="translate(0,0)" x2="40" y2="0" stroke="#888" stroke-width="1" opacity="1"/></g><g class="mark-text role-axis-title" pointer-events="none"><text text-anchor="middle" transform="translate(20,68.359375)" font-family="sans-serif" font-size="11px" font-weight="bold" fill="#000" opacity="1">Type</text></g></g><path class="foreground" aria-hidden="true" d="" pointer-events="none" display="none"/></g></g><g class="mark-group role-axis" role="graphics-symbol" aria-roledescription="axis" aria-label="Y-axis titled 'Nationality' for a discrete scale with 2 values: United Kingdom, United States"><g transform="translate(0.5,0.5)"><path class="background" aria-hidden="true" d="M0,0h0v0h0Z" pointer-events="none"/><g><g class="mark-rule role-axis-tick" pointer-events="none"><line transform="translate(0,10)" x2="-5" y2="0" stroke="#888" stroke-width="1" opacity="1"/><line transform="translate(0,30)" x2="-5" y2="0" stroke="#888" stroke-width="1" opacity="1"/></g><g class="mark-text role-axis-label" pointer-events="none"><text text-anchor="end" transform="translate(-7,13)" font-family="sans-serif" font-size="10px" fill="#000" opacity="1">United Kingdom</text><text text-anchor="end" transform="translate(-7,33)" font-family="sans-serif" font-size="10px" fill="#000" opacity="1">United States</text></g><g class="mark-rule role-axis-domain" pointer-events="none"><line transform="translate(0,0)" x2="0" y2="40" stroke="#888" stroke-width="1" opacity="1"/></g><g class="mark-text role-axis-title" pointer-events="none"><text text-anchor="middle" transform="translate(-82.15234375,20) rotate(-90) translate(0,-2)" font-family="sans-serif" font-size="11px" font-weight="bold" fill="#000" opacity="1">Nationality</text></g></g><path class="foreground" aria-hidden="true" d="" pointer-events="none" display="none"/></g></g><g class="mark-symbol role-mark marks" role="graphics-object" aria-roledescription="symbol mark container"><path aria-label="Type: Cargo ship; Nationality: United Kingdom; Tonnage: 3687" role="graphics-symbol" aria-roledescription="circle" transform="translate(30,10)" d="M6.539,0A6.539,6.539,0,1,1,-6.539,0A6.539,6.539,0,1,1,6.539,0" fill="#4c78a8" stroke-width="2" opacity="0.7"/><path aria-label="Type: Battle ship; Nationality: United States; Tonnage: 3146" role="graphics-symbol" aria-roledescription="circle" transform="translate(10,30)" d="M6.041,0A6.041,6.041,0,1,1,-6.041,0A6.041,6.041,0,1,1,6.041,0" fill="#4c78a8" stroke-width="2" opacity="0.7"/><path aria-label="Type: Cargo ship; Nationality: United Kingdom; Tonnage: 3627" role="graphics-symbol" aria-roledescription="circle" transform="translate(30,10)" d="M6.486,0A6.486,6.486,0,1,1,-6.486,0A6.486,6.486,0,1,1,6.486,0" fill="#4c78a8" stroke-width="2" opacity="0.7"/><path aria-label="Type: Cargo ship; Nationality: United Kingdom; Tonnage: 3496" role="graphics-symbol" aria-roledescription="circle" transform="translate(30,10)" d="M6.368,0A6.368,6.368,0,1,1,-6.368,0A6.368,6.368,0,1,1,6.368,0" fill="#4c78a8" stroke-width="2" opacity="0.7"/><path aria-label="Type: Battle ship; Nationality: United Kingdom; Tonnage: 3608" role="graphics-symbol" aria-roledescription="circle" transform="translate(10,10)" d="M6.469,0A6.469,6.469,0,1,1,-6.469,0A6.469,6.469,0,1,1,6.469,0" fill="#4c78a8" stroke-width="2" opacity="0.7"/><path aria-label="Type: Cargo ship; Nationality: United States; Tonnage: 3035" role="graphics-symbol" aria-roledescription="circle" transform="translate(30,30)" d="M5.933,0A5.933,5.933,0,1,1,-5.933,0A5.933,5.933,0,1,1,5.933,0" fill="#4c78a8" stroke-width="2" opacity="0.7"/><path aria-label="Type: Battle ship; Nationality: United Kingdom; Tonnage: 7781" role="graphics-symbol" aria-roledescription="circle" transform="translate(10,10)" d="M9.5,0A9.5,9.5,0,1,1,-9.5,0A9.5,9.5,0,1,1,9.5,0" fill="#4c78a8" stroke-width="2" opacity="0.7"/><path aria-label="Type: Cargo ship; Nationality: United States; Tonnage: 5816" role="graphics-symbol" aria-roledescription="circle" transform="translate(30,30)" d="M8.213,0A8.213,8.213,0,1,1,-8.213,0A8.213,8.213,0,1,1,8.213,0" fill="#4c78a8" stroke-width="2" opacity="0.7"/></g><g class="mark-group role-legend" role="graphics-symbol" aria-roledescription="legend" aria-label="Symbol legend titled 'Tonnage' for size with values from 0 to 7,781"><g transform="translate(58,0)"><path class="background" aria-hidden="true" d="M0,0h49v72h-49Z" pointer-events="none"/><g><g class="mark-group role-legend-entry"><g transform="translate(0,16)"><path class="background" aria-hidden="true" d="M0,0h0v0h0Z" pointer-events="none"/><g><g class="mark-group role-scope" role="graphics-object" aria-roledescription="group mark container"><g transform="translate(0,0)"><path class="background" aria-hidden="true" d="M0,0h48.0244140625v12.316381676200692h-48.0244140625Z" pointer-events="none" opacity="1"/><g><g class="mark-symbol role-legend-symbol" pointer-events="none"><path transform="translate(9.5,6)" d="M4.816,0A4.816,4.816,0,1,1,-4.816,0A4.816,4.816,0,1,1,4.816,0" fill="#4c78a8" stroke-width="1.5" opacity="0.7"/></g><g class="mark-text role-legend-label" pointer-events="none"><text text-anchor="start" transform="translate(23,9)" font-family="sans-serif" font-size="10px" fill="#000" opacity="1">2,000</text></g></g><path class="foreground" aria-hidden="true" d="" pointer-events="none" display="none"/></g><g transform="translate(0,16)"><path class="background" aria-hidden="true" d="M0,0h48.0244140625v16.311392288048282h-48.0244140625Z" pointer-events="none" opacity="1"/><g><g class="mark-symbol role-legend-symbol" pointer-events="none"><path transform="translate(9.5,8)" d="M6.811,0A6.811,6.811,0,1,1,-6.811,0A6.811,6.811,0,1,1,6.811,0" fill="#4c78a8" stroke-width="1.5" opacity="0.7"/></g><g class="mark-text role-legend-label" pointer-events="none"><text text-anchor="start" transform="translate(23,11)" font-family="sans-serif" font-size="10px" fill="#000" opacity="1">4,000</text></g></g><path class="foreground" aria-hidden="true" d="" pointer-events="none" display="none"/></g><g transform="translate(0,36)"><path class="background" aria-hidden="true" d="M0,0h48.0244140625v19.34221777182335h-48.0244140625Z" pointer-events="none" opacity="1"/><g><g class="mark-symbol role-legend-symbol" pointer-events="none"><path transform="translate(9.5,9.5)" d="M8.342,0A8.342,8.342,0,1,1,-8.342,0A8.342,8.342,0,1,1,8.342,0" fill="#4c78a8" stroke-width="1.5" opacity="0.7"/></g><g class="mark-text role-legend-label" pointer-events="none"><text text-anchor="start" transform="translate(23,12.5)" font-family="sans-serif" font-size="10px" fill="#000" opacity="1">6,000</text></g></g><path class="foreground" aria-hidden="true" d="" pointer-events="none" display="none"/></g></g></g><path class="foreground" aria-hidden="true" d="" pointer-events="none" display="none"/></g></g><g class="mark-text role-legend-title" pointer-events="none"><text text-anchor="start" transform="translate(0,9)" font-family="sans-serif" font-size="11px" font-weight="bold" fill="#000" opacity="1">Tonnage</text></g></g><path class="foreground" aria-hidden="true" d="" pointer-events="none" display="none"/></g></g></g><path class="foreground" aria-hidden="true" d="" display="none"/></g></g></g></svg>