<svg xmlns="http://www.w3.org/2000/svg" xmlns:xlink="http://www.w3.org/1999/xlink" version="1.1" class="marks" width="361" height="347" viewBox="0 0 361 347"><rect width="361" height="347" fill="white"/><g fill="none" stroke-miterlimit="10" transform="translate(53,10)"><g class="mark-group role-frame root" role="graphics-object" aria-roledescription="group mark container"><g transform="translate(0,0)"><path class="background" aria-hidden="true" d="M0.5,0.5h300v300h-300Z" stroke="#ddd"/><g><g class="mark-group role-axis" aria-hidden="true"><g transform="translate(0.5,300.5)"><path class="background" aria-hidden="true" d="M0,0h0v0h0Z" pointer-events="none"/><g><g class="mark-rule role-axis-grid" pointer-events="none"><line transform="translate(21,-300)" x2="0" y2="300" stroke="#ddd" stroke-width="1" opacity="1"/><line transform="translate(64,-300)" x2="0" y2="300" stroke="#ddd" stroke-width="1" opacity="1"/><line transform="translate(107,-300)" x2="0" y2="300" stroke="#ddd" stroke-width="1" opacity="1"/><line transform="translate(150,-300)" x2="0" y2="300" stroke="#ddd" stroke-width="1" opacity="1"/><line transform="translate(193,-300)" x2="0" y2="300" stroke="#ddd" stroke-width="1" opacity="1"/><line transform="translate(236,-300)" x2="0" y2="300" stroke="#ddd" stroke-width="1" opacity="1"/><line transform="translate(279,-300)" x2="0" y2="300" stroke="#ddd" stroke-width="1" opacity="1"/></g></g><path class="foreground" aria-hidden="true" d="" pointer-events="none" display="none"/></g></g><g class="mark-group role-axis" aria-hidden="true"><g transform="translate(0.5,0.5)"><path class="background" aria-hidden="true" d="M0,0h0v0h0Z" pointer-events="none"/><g><g class="mark-rule role-axis-grid" pointer-events="none"><line transform="translate(0,300)" x2="300" y2="0" stroke="#ddd" stroke-width="1" opacity="1"/><line transform="translate(0,263)" x2="300" y2="0" stroke="#ddd" stroke-width="1" opacity="1"/><line transform="translate(0,225)" x2="300" y2="0" stroke="#ddd" stroke-width="1" opacity="1"/><line transform="translate(0,188)" x2="300" y2="0" stroke="#ddd" stroke-width="1" opacity="1"/><line transform="translate(0,150)" x2="300" y2="0" stroke="#ddd" stroke-width="1" opacity="1"/><line transform="translate(0,113)" x2="300" y2="0" stroke="#ddd" stroke-width="1" opacity="1"/><line transform="translate(0,75)" x2="300" y2="0" stroke="#ddd" stroke-width="1" opacity="1"/><line transform="translate(0,38)" x2="300" y2="0" stroke="#ddd" stroke-width="1" opacity="1"/><line transform="translate(0,0)" x2="300" y2="0" stroke="#ddd" stroke-width="1" opacity="1"/></g></g><path class="foreground" aria-hidden="true" d="" pointer-events="none" display="none"/></g></g><g class="mark-group role-axis" role="graphics-symbol" aria-roledescription="axis" aria-label="X-axis titled 'Open_year (year)' for a time scale with values from 2001 to 2015"><g transform="translate(0.5,300.5)"><path class="background" aria-hidden="true" d="M0,0h0v0h0Z" pointer-events="none"/><g><g class="mark-rule role-axis-tick" pointer-events="none"><line transform="translate(21,0)" x2="0" y2="5" stroke="#888" stroke-width="1" opacity="1"/><line transform="translate(64,0)" x2="0" y2="5" stroke="#888" stroke-width="1" opacity="1"/><line transform="translate(107,0)" x2="0" y2="5" stroke="#888" stroke-width="1" opacity="1"/><line transform="translate(150,0)" x2="0" y2="5" stroke="#888" stroke-width="1" opacity="1"/><line transform="translate(193,0)" x2="0" y2="5" stroke="#888" stroke-width="1" opacity="1"/><line transform="translate(236,0)" x2="0" y2="5" stroke="#888" stroke-width="1" opacity="1"/><line transform="translate(279,0)" x2="0" y2="5" stroke="#888" stroke-width="1" opacity="1"/></g><g class="mark-text role-axis-label" pointer-events="none"><text text-anchor="middle" transform="translate(21.415998435360844,15)" font-family="sans-serif" font-size="10px" fill="#000" opacity="1">2002</text><text text-anchor="middle" transform="translate(64.24799530608253,15)" font-family="sans-serif" font-size="10px" fill="#000" opacity="1">2004</text><text text-anchor="middle" transform="translate(107.13866614512028,15)" font-family="sans-serif" font-size="10px" fill="#000" opacity="1">2006</text><text text-anchor="middle" transform="translate(149.97066301584198,15)" font-family="sans-serif" font-size="10px" fill="#000" opacity="1">2008</text><text text-anchor="middle" transform="translate(192.86133385487972,15)" font-family="sans-serif" font-size="10px" fill="#000" opacity="1">2010</text><text text-anchor="middle" transform="translate(235.6933307256014,15)" font-family="sans-serif" font-size="10px" fill="#000" opacity="1">2012</text><text text-anchor="middle" transform="translate(278.58400156463915,15)" font-family="sans-serif" font-size="10px" fill="#000" opacity="1">2014</text></g><g class="mark-rule role-axis-domain" pointer-events="none"><line transform="translate(0,0)" x2="300" y2="0" stroke="#888" stroke-width="1" opacity="1"/></g><g class="mark-text role-axis-title" pointer-events="none"><text text-anchor="middle" transform="translate(150,30)" font-family="sans-serif" font-size="11px" font-weight="bold" fill="#000" opacity="1">Open_year (year)</text></g></g><path class="foreground" aria-hidden="true" d="" pointer-events="none" display="none"/></g></g><g class="mark-group role-axis" role="graphics-symbol" aria-roledescription="axis" aria-label="Y-axis titled 'membership_amount' for a linear scale with values from 0 to 1,600"><g transform="translate(0.5,0.5)"><path class="background" aria-hidden="true" d="M0,0h0v0h0Z" pointer-events="none"/><g><g class="mark-rule role-axis-tick" pointer-events="none"><line transform="translate(0,300)" x2="-5" y2="0" stroke="#888" stroke-width="1" opacity="1"/><line transform="translate(0,263)" x2="-5" y2="0" stroke="#888" stroke-width="1" opacity="1"/><line transform="translate(0,225)" x2="-5" y2="0" stroke="#888" stroke-width="1" opacity="1"/><line transform="translate(0,188)" x2="-5" y2="0" stroke="#888" stroke-width="1" opacity="1"/><line transform="translate(0,150)" x2="-5" y2="0" stroke="#888" stroke-width="1" opacity="1"/><line transform="translate(0,113)" x2="-5" y2="0" stroke="#888" stroke-width="1" opacity="1"/><line transform="translate(0,75)" x2="-5" y2="0" stroke="#888" stroke-width="1" opacity="1"/><line transform="translate(0,38)" x2="-5" y2="0" stroke="#888" stroke-width="1" opacity="1"/><line transform="translate(0,0)" x2="-5" y2="0" stroke="#888" stroke-width="1" opacity="1"/></g><g class="mark-text role-axis-label" pointer-events="none"><text text-anchor="end" transform="translate(-7,303)" font-family="sans-serif" font-size="10px" fill="#000" opacity="1">0</text><text text-anchor="end" transform="translate(-7,265.5)" font-family="sans-serif" font-size="10px" fill="#000" opacity="1">200</text><text text-anchor="end" transform="translate(-7,228)" font-family="sans-serif" font-size="10px" fill="#000" opacity="1">400</text><text text-anchor="end" transform="translate(-7,190.5)" font-family="sans-serif" font-size="10px" fill="#000" opacity="1">600</text><text text-anchor="end" transform="translate(-7,153)" font-family="sans-serif" font-size="10px" fill="#000" opacity="1">800</text><text text-anchor="end" transform="translate(-7,115.5)" font-family="sans-serif" font-size="10px" fill="#000" opacity="1">1,000</text><text text-anchor="end" transform="translate(-7,78)" font-family="sans-serif" font-size="10px" fill="#000" opacity="1">1,200</text><text text-anchor="end" transform="translate(-7,40.5)" font-family="sans-serif" font-size="10px" fill="#000" opacity="1">1,400</text><text text-anchor="end" transform="translate(-7,3)" font-family="sans-serif" font-size="10px" fill="#000" opacity="1">1,600</text></g><g class="mark-rule role-axis-domain" pointer-events="none"><line transform="translate(0,300)" x2="0" y2="-300" stroke="#888" stroke-width="1" opacity="1"/></g><g class="mark-text role-axis-title" pointer-events="none"><text text-anchor="middle" transform="translate(-36.0244140625,150) rotate(-90) translate(0,-2)" font-family="sans-serif" font-size="11px" font-weight="bold" fill="#000" opacity="1">membership_amount</text></g></g><path class="foreground" aria-hidden="true" d="" pointer-events="none" display="none"/></g></g><g class="mark-symbol role-mark marks" role="graphics-object" aria-roledescription="symbol mark container"><path aria-label="Open_year (year): 2001; membership_amount: 112; Name: Alexandre" role="graphics-symbol" aria-roledescription="circle" transform="translate(0,279)" d="M2.739,0A2.739,2.739,0,1,1,-2.739,0A2.739,2.739,0,1,1,2.739,0" fill="#4c78a8" stroke-width="2" opacity="0.7"/><path aria-label="Open_year (year): 2009; membership_amount: 11; Name: Popert" role="graphics-symbol" aria-roledescription="circle" transform="translate(171.44533541951887,297.9375)" d="M2.739,0A2.739,2.739,0,1,1,-2.739,0A2.739,2.739,0,1,1,2.739,0" fill="#4c78a8" stroke-width="2" opacity="0.7"/><path aria-label="Open_year (year): 2013; membership_amount: 6; Name: Stanley" role="graphics-symbol" aria-roledescription="circle" transform="translate(257.1680031292783,298.875)" d="M2.739,0A2.739,2.739,0,1,1,-2.739,0A2.739,2.739,0,1,1,2.739,0" fill="#4c78a8" stroke-width="2" opacity="0.7"/><path aria-label="Open_year (year): 2009; membership_amount: 7; Name: Zytogorski" role="graphics-symbol" aria-roledescription="circle" transform="translate(171.44533541951887,298.6875)" d="M2.739,0A2.739,2.739,0,1,1,-2.739,0A2.739,2.739,0,1,1,2.739,0" fill="#4c78a8" stroke-width="2" opacity="0.7"/><path aria-label="Open_year (year): 2012; membership_amount: 1418; Name: Cochrane" role="graphics-symbol" aria-roledescription="circle" transform="translate(235.6933307256014,34.12500000000001)" d="M2.739,0A2.739,2.739,0,1,1,-2.739,0A2.739,2.739,0,1,1,2.739,0" fill="#4c78a8" stroke-width="2" opacity="0.7"/><path aria-label="Open_year (year): 2014; membership_amount: 56; Name: Taverner" role="graphics-symbol" aria-roledescription="circle" transform="translate(278.58400156463915,289.5)" d="M2.739,0A2.739,2.739,0,1,1,-2.739,0A2.739,2.739,0,1,1,2.739,0" fill="#4c78a8" stroke-width="2" opacity="0.7"/><path aria-label="Open_year (year): 2015; membership_amount: 91; Name: Saint Amant" role="graphics-symbol" aria-roledescription="circle" transform="translate(300,282.9375)" d="M2.739,0A2.739,2.739,0,1,1,-2.739,0A2.739,2.739,0,1,1,2.739,0" fill="#4c78a8" stroke-width="2" opacity="0.7"/><path aria-label="Open_year (year): 2009; membership_amount: 31; Name: Brooke Greville" role="graphics-symbol" aria-roledescription="circle" transform="translate(171.44533541951887,294.1875)" d="M2.739,0A2.739,2.739,0,1,1,-2.739,0A2.739,2.739,0,1,1,2.739,0" fill="#4c78a8" stroke-width="2" opacity="0.7"/></g></g><path class="foreground" aria-hidden="true" d="" display="none"/></g></g></g></svg>