<svg xmlns="http://www.w3.org/2000/svg" xmlns:xlink="http://www.w3.org/1999/xlink" version="1.1" class="marks" width="412" height="347" viewBox="0 0 412 347"><rect width="412" height="347" fill="white"/><g fill="none" stroke-miterlimit="10" transform="translate(33,10)"><g class="mark-group role-frame root" role="graphics-object" aria-roledescription="group mark container"><g transform="translate(0,0)"><path class="background" aria-hidden="true" d="M0.5,0.5h300v300h-300Z" stroke="#ddd"/><g><g class="mark-group role-axis" aria-hidden="true"><g transform="translate(0.5,300.5)"><path class="background" aria-hidden="true" d="M0,0h0v0h0Z" pointer-events="none"/><g><g class="mark-rule role-axis-grid" pointer-events="none"><line transform="translate(0,-300)" x2="0" y2="300" stroke="#ddd" stroke-width="1" opacity="1"/><line transform="translate(50,-300)" x2="0" y2="300" stroke="#ddd" stroke-width="1" opacity="1"/><line transform="translate(100,-300)" x2="0" y2="300" stroke="#ddd" stroke-width="1" opacity="1"/><line transform="translate(150,-300)" x2="0" y2="300" stroke="#ddd" stroke-width="1" opacity="1"/><line transform="translate(200,-300)" x2="0" y2="300" stroke="#ddd" stroke-width="1" opacity="1"/><line transform="translate(250,-300)" x2="0" y2="300" stroke="#ddd" stroke-width="1" opacity="1"/><line transform="translate(300,-300)" x2="0" y2="300" stroke="#ddd" stroke-width="1" opacity="1"/></g></g><path class="foreground" aria-hidden="true" d="" pointer-events="none" display="none"/></g></g><g class="mark-group role-axis" aria-hidden="true"><g transform="translate(0.5,0.5)"><path class="background" aria-hidden="true" d="M0,0h0v0h0Z" pointer-events="none"/><g><g class="mark-rule role-axis-grid" pointer-events="none"><line transform="translate(0,300)" x2="300" y2="0" stroke="#ddd" stroke-width="1" opacity="1"/><line transform="translate(0,267)" x2="300" y2="0" stroke="#ddd" stroke-width="1" opacity="1"/><line transform="translate(0,233)" x2="300" y2="0" stroke="#ddd" stroke-width="1" opacity="1"/><line transform="translate(0,200)" x2="300" y2="0" stroke="#ddd" stroke-width="1" opacity="1"/><line transform="translate(0,167)" x2="300" y2="0" stroke="#ddd" stroke-width="1" opacity="1"/><line transform="translate(0,133)" x2="300" y2="0" stroke="#ddd" stroke-width="1" opacity="1"/><line transform="translate(0,100)" x2="300" y2="0" stroke="#ddd" stroke-width="1" opacity="1"/><line transform="translate(0,67)" x2="300" y2="0" stroke="#ddd" stroke-width="1" opacity="1"/><line transform="translate(0,33)" x2="300" y2="0" stroke="#ddd" stroke-width="1" opacity="1"/><line transform="translate(0,0)" x2="300" y2="0" stroke="#ddd" stroke-width="1" opacity="1"/></g></g><path class="foreground" aria-hidden="true" d="" pointer-events="none" display="none"/></g></g><g class="mark-group role-axis" role="graphics-symbol" aria-roledescription="axis" aria-label="X-axis titled 'Apps' for a linear scale with values from 0 to 30"><g transform="translate(0.5,300.5)"><path class="background" aria-hidden="true" d="M0,0h0v0h0Z" pointer-events="none"/><g><g class="mark-rule role-axis-tick" pointer-events="none"><line transform="translate(0,0)" x2="0" y2="5" stroke="#888" stroke-width="1" opacity="1"/><line transform="translate(50,0)" x2="0" y2="5" stroke="#888" stroke-width="1" opacity="1"/><line transform="translate(100,0)" x2="0" y2="5" stroke="#888" stroke-width="1" opacity="1"/><line transform="translate(150,0)" x2="0" y2="5" stroke="#888" stroke-width="1" opacity="1"/><line transform="translate(200,0)" x2="0" y2="5" stroke="#888" stroke-width="1" opacity="1"/><line transform="translate(250,0)" x2="0" y2="5" stroke="#888" stroke-width="1" opacity="1"/><line transform="translate(300,0)" x2="0" y2="5" stroke="#888" stroke-width="1" opacity="1"/></g><g class="mark-text role-axis-label" pointer-events="none"><text text-anchor="start" transform="translate(0,15)" font-family="sans-serif" font-size="10px" fill="#000" opacity="1">0</text><text text-anchor="middle" transform="translate(50,15)" font-family="sans-serif" font-size="10px" fill="#000" opacity="1">5</text><text text-anchor="middle" transform="translate(100,15)" font-family="sans-serif" font-size="10px" fill="#000" opacity="1">10</text><text text-anchor="middle" transform="translate(150,15)" font-family="sans-serif" font-size="10px" fill="#000" opacity="1">15</text><text text-anchor="middle" transform="translate(200,15)" font-family="sans-serif" font-size="10px" fill="#000" opacity="1">20</text><text text-anchor="middle" transform="translate(250,15)" font-family="sans-serif" font-size="10px" fill="#000" opacity="1">25</text><text text-anchor="end" transform="translate(300,15)" font-family="sans-serif" font-size="10px" fill="#000" opacity="1">30</text></g><g class="mark-rule role-axis-domain" pointer-events="none"><line transform="translate(0,0)" x2="300" y2="0" stroke="#888" stroke-width="1" opacity="1"/></g><g class="mark-text role-axis-title" pointer-events="none"><text text-anchor="middle" transform="translate(150,30)" font-family="sans-serif" font-size="11px" font-weight="bold" fill="#000" opacity="1">Apps</text></g></g><path class="foreground" aria-hidden="true" d="" pointer-events="none" display="none"/></g></g><g class="mark-group role-axis" role="graphics-symbol" aria-roledescription="axis" aria-label="Y-axis titled 'Tries' for a linear scale with values from 0 to 9"><g transform="translate(0.5,0.5)"><path class="background" aria-hidden="true" d="M0,0h0v0h0Z" pointer-events="none"/><g><g class="mark-rule role-axis-tick" pointer-events="none"><line transform="translate(0,300)" x2="-5" y2="0" stroke="#888" stroke-width="1" opacity="1"/><line transform="translate(0,267)" x2="-5" y2="0" stroke="#888" stroke-width="1" opacity="1"/><line transform="translate(0,233)" x2="-5" y2="0" stroke="#888" stroke-width="1" opacity="1"/><line transform="translate(0,200)" x2="-5" y2="0" stroke="#888" stroke-width="1" opacity="1"/><line transform="translate(0,167)" x2="-5" y2="0" stroke="#888" stroke-width="1" opacity="1"/><line transform="translate(0,133)" x2="-5" y2="0" stroke="#888" stroke-width="1" opacity="1"/><line transform="translate(0,100)" x2="-5" y2="0" stroke="#888" stroke-width="1" opacity="1"/><line transform="translate(0,67)" x2="-5" y2="0" stroke="#888" stroke-width="1" opacity="1"/><line transform="translate(0,33)" x2="-5" y2="0" stroke="#888" stroke-width="1" opacity="1"/><line transform="translate(0,0)" x2="-5" y2="0" stroke="#888" stroke-width="1" opacity="1"/></g><g class="mark-text role-axis-label" pointer-events="none"><text text-anchor="end" transform="translate(-7,303)" font-family="sans-serif" font-size="10px" fill="#000" opacity="1">0</text><text text-anchor="end" transform="translate(-7,269.66666666666663)" font-family="sans-serif" font-size="10px" fill="#000" opacity="1">1</text><text text-anchor="end" transform="translate(-7,236.33333333333334)" font-family="sans-serif" font-size="10px" fill="#000" opacity="1">2</text><text text-anchor="end" transform="translate(-7,203.00000000000003)" font-family="sans-serif" font-size="10px" fill="#000" opacity="1">3</text><text text-anchor="end" transform="translate(-7,169.66666666666669)" font-family="sans-serif" font-size="10px" fill="#000" opacity="1">4</text><text text-anchor="end" transform="translate(-7,136.33333333333331)" font-family="sans-serif" font-size="10px" fill="#000" opacity="1">5</text><text text-anchor="end" transform="translate(-7,103.00000000000001)" font-family="sans-serif" font-size="10px" fill="#000" opacity="1">6</text><text text-anchor="end" transform="translate(-7,69.66666666666666)" font-family="sans-serif" font-size="10px" fill="#000" opacity="1">7</text><text text-anchor="end" transform="translate(-7,36.33333333333335)" font-family="sans-serif" font-size="10px" fill="#000" opacity="1">8</text><text text-anchor="end" transform="translate(-7,3)" font-family="sans-serif" font-size="10px" fill="#000" opacity="1">9</text></g><g class="mark-rule role-axis-domain" pointer-events="none"><line transform="translate(0,300)" x2="0" y2="-300" stroke="#888" stroke-width="1" opacity="1"/></g><g class="mark-text role-axis-title" pointer-events="none"><text text-anchor="middle" transform="translate(-16.5615234375,150) rotate(-90) translate(0,-2)" font-family="sans-serif" font-size="11px" font-weight="bold" fill="#000" opacity="1">Tries</text></g></g><path class="foreground" aria-hidden="true" d="" pointer-events="none" display="none"/></g></g><g class="mark-symbol role-mark marks" role="graphics-object" aria-roledescription="symbol mark container"><path aria-label="Apps: 20; Tries: 5; Points: 20; Goals: 0; name: Michael Platt; Position: Full Back" role="graphics-symbol" aria-roledescription="circle" transform="translate(200,133.33333333333331)" d="M1.5,0A1.5,1.5,0,1,1,-1.5,0A1.5,1.5,0,1,1,1.5,0" fill="rgb(192, 217, 237)" stroke-width="2" opacity="0.7"/><path aria-label="Apps: 23; Tries: 9; Points: 36; Goals: 0; name: Dave Halley; Position: Right Wing" role="graphics-symbol" aria-roledescription="circle" transform="translate(230.00000000000003,0)" d="M1.5,0A1.5,1.5,0,1,1,-1.5,0A1.5,1.5,0,1,1,1.5,0" fill="rgb(174, 209, 231)" stroke-width="2" opacity="0.7"/><path aria-label="Apps: 30; Tries: 9; Points: 36; Goals: 0; name: James Evans; Position: Right Centre" role="graphics-symbol" aria-roledescription="circle" transform="translate(300,0)" d="M1.5,0A1.5,1.5,0,1,1,-1.5,0A1.5,1.5,0,1,1,1.5,0" fill="rgb(174, 209, 231)" stroke-width="2" opacity="0.7"/><path aria-label="Apps: 10; Tries: 3; Points: 12; Goals: 0; name: Tame Tupou; Position: Left Wing" role="graphics-symbol" aria-roledescription="circle" transform="translate(100,200.00000000000003)" d="M1.5,0A1.5,1.5,0,1,1,-1.5,0A1.5,1.5,0,1,1,1.5,0" fill="rgb(200, 221, 239)" stroke-width="2" opacity="0.7"/><path aria-label="Apps: 27; Tries: 3; Points: 110; Goals: 50/60; name: Iestyn Harris; Position: Stand Off" role="graphics-symbol" aria-roledescription="circle" transform="translate(270,200.00000000000003)" d="M7.805,0A7.805,7.805,0,1,1,-7.805,0A7.805,7.805,0,1,1,7.805,0" fill="rgb(74, 150, 200)" stroke-width="2" opacity="0.7"/><path aria-label="Apps: 20; Tries: 3; Points: 188; Goals: 90/106; name: Paul Deacon (c); Position: Scrum Half" role="graphics-symbol" aria-roledescription="circle" transform="translate(200,200.00000000000003)" d="M9.5,0A9.5,9.5,0,1,1,-9.5,0A9.5,9.5,0,1,1,9.5,0" fill="rgb(10, 74, 144)" stroke-width="2" opacity="0.7"/><path aria-label="Apps: 19; Tries: 1; Points: 4; Goals: 0/1; name: Joe Vagana; Position: Prop" role="graphics-symbol" aria-roledescription="circle" transform="translate(190,266.66666666666663)" d="M5.62,0A5.62,5.62,0,1,1,-5.62,0A5.62,5.62,0,1,1,5.62,0" fill="rgb(207, 225, 242)" stroke-width="2" opacity="0.7"/><path aria-label="Apps: 26; Tries: 9; Points: 36; Goals: 0; name: Terry Newton; Position: Hooker" role="graphics-symbol" aria-roledescription="circle" transform="translate(260,0)" d="M1.5,0A1.5,1.5,0,1,1,-1.5,0A1.5,1.5,0,1,1,1.5,0" fill="rgb(174, 209, 231)" stroke-width="2" opacity="0.7"/><path aria-label="Apps: 29; Tries: 5; Points: 20; Goals: 0; name: Andy Lynch; Position: Prop" role="graphics-symbol" aria-roledescription="circle" transform="translate(290,133.33333333333331)" d="M1.5,0A1.5,1.5,0,1,1,-1.5,0A1.5,1.5,0,1,1,1.5,0" fill="rgb(192, 217, 237)" stroke-width="2" opacity="0.7"/><path aria-label="Apps: 24; Tries: 5; Points: 20; Goals: 0; name: David Solomona; Position: Second Row" role="graphics-symbol" aria-roledescription="circle" transform="translate(240,133.33333333333331)" d="M1.5,0A1.5,1.5,0,1,1,-1.5,0A1.5,1.5,0,1,1,1.5,0" fill="rgb(192, 217, 237)" stroke-width="2" opacity="0.7"/><path aria-label="Apps: 14; Tries: 6; Points: 24; Goals: 0; name: Glenn Morrison (vc); Position: Second Row" role="graphics-symbol" aria-roledescription="circle" transform="translate(140,100.00000000000001)" d="M1.5,0A1.5,1.5,0,1,1,-1.5,0A1.5,1.5,0,1,1,1.5,0" fill="rgb(188, 215, 235)" stroke-width="2" opacity="0.7"/><path aria-label="Apps: 28; Tries: 2; Points: 8; Goals: 0; name: Jamie Langley (vc); Position: Loose Forward" role="graphics-symbol" aria-roledescription="circle" transform="translate(280,233.33333333333334)" d="M1.5,0A1.5,1.5,0,1,1,-1.5,0A1.5,1.5,0,1,1,1.5,0" fill="rgb(203, 223, 241)" stroke-width="2" opacity="0.7"/><path aria-label="Apps: 13; Tries: 1; Points: 4; Goals: 0; name: Chris Feather; Position: Prop" role="graphics-symbol" aria-roledescription="circle" transform="translate(130,266.66666666666663)" d="M1.5,0A1.5,1.5,0,1,1,-1.5,0A1.5,1.5,0,1,1,1.5,0" fill="rgb(207, 225, 242)" stroke-width="2" opacity="0.7"/><path aria-label="Apps: 17; Tries: 4; Points: 16; Goals: 0; name: Matt Cook; Position: Second Row" role="graphics-symbol" aria-roledescription="circle" transform="translate(170,166.66666666666669)" d="M1.5,0A1.5,1.5,0,1,1,-1.5,0A1.5,1.5,0,1,1,1.5,0" fill="rgb(196, 219, 238)" stroke-width="2" opacity="0.7"/><path aria-label="Apps: 23; Tries: 8; Points: 32; Goals: 0; name: Sam Burgess; Position: Loose Forward" role="graphics-symbol" aria-roledescription="circle" transform="translate(230.00000000000003,33.33333333333335)" d="M1.5,0A1.5,1.5,0,1,1,-1.5,0A1.5,1.5,0,1,1,1.5,0" fill="rgb(179, 211, 232)" stroke-width="2" opacity="0.7"/></g><g class="mark-group role-legend" role="graphics-symbol" aria-roledescription="legend" aria-label="Gradient legend titled 'Points' for fill color with values from 4 to 188"><g transform="translate(318,0)"><path class="background" aria-hidden="true" d="M0,0h35v216h-35Z" pointer-events="none"/><g><g class="mark-group role-legend-entry"><g transform="translate(0,16)"><path class="background" aria-hidden="true" d="M0,0h0v0h0Z" pointer-events="none"/><g><g class="mark-rect role-legend-gradient" pointer-events="none"><path d="M0,0h16v200h-16Z" fill="url(#gradient_5)" stroke="#ddd" stroke-width="0" opacity="0.7"/></g><g class="mark-text role-legend-label" pointer-events="none"><text text-anchor="start" transform="translate(18,153)" font-family="sans-serif" font-size="10px" fill="#000" opacity="1">50</text><text text-anchor="start" transform="translate(18,98.65217391304348)" font-family="sans-serif" font-size="10px" fill="#000" opacity="1">100</text><text text-anchor="start" transform="translate(18,44.30434782608696)" font-family="sans-serif" font-size="10px" fill="#000" opacity="1">150</text></g></g><path class="foreground" aria-hidden="true" d="" pointer-events="none" display="none"/></g></g><g class="mark-text role-legend-title" pointer-events="none"><text text-anchor="start" transform="translate(0,9)" font-family="sans-serif" font-size="11px" font-weight="bold" fill="#000" opacity="1">Points</text></g></g><path class="foreground" aria-hidden="true" d="" pointer-events="none" display="none"/></g></g><g class="mark-group role-legend" role="graphics-symbol" aria-roledescription="legend" aria-label="Symbol legend titled 'Goals' for size with 4 values: 0, 0/1, 50/60, 90/106"><g transform="translate(318,224)"><path class="background" aria-hidden="true" d="M0,0h56v90h-56Z" pointer-events="none"/><g><g class="mark-group role-legend-entry"><g transform="translate(0,16)"><path class="background" aria-hidden="true" d="M0,0h0v0h0Z" pointer-events="none"/><g><g class="mark-group role-scope" role="graphics-object" aria-roledescription="group mark container"><g transform="translate(0,0)"><path class="background" aria-hidden="true" d="M0,0h55.5859375v10h-55.5859375Z" pointer-events="none" opacity="1"/><g><g class="mark-symbol role-legend-symbol" pointer-events="none"><path transform="translate(10.5,5)" d="M1.5,0A1.5,1.5,0,1,1,-1.5,0A1.5,1.5,0,1,1,1.5,0" fill="black" fill-opacity="0.7" stroke-width="1.5" opacity="0.7"/></g><g class="mark-text role-legend-label" pointer-events="none"><text text-anchor="start" transform="translate(25,8)" font-family="sans-serif" font-size="10px" fill="#000" opacity="1">0</text></g></g><path class="foreground" aria-hidden="true" d="" pointer-events="none" display="none"/></g><g transform="translate(0,13)"><path class="background" aria-hidden="true" d="M0,0h55.5859375v13.619905100029122h-55.5859375Z" pointer-events="none" opacity="1"/><g><g class="mark-symbol role-legend-symbol" pointer-events="none"><path transform="translate(10.5,6.5)" d="M5.62,0A5.62,5.62,0,1,1,-5.62,0A5.62,5.62,0,1,1,5.62,0" fill="black" fill-opacity="0.7" stroke-width="1.5" opacity="0.7"/></g><g class="mark-text role-legend-label" pointer-events="none"><text text-anchor="start" transform="translate(25,9.5)" font-family="sans-serif" font-size="10px" fill="#000" opacity="1">0/1</text></g></g><path class="foreground" aria-hidden="true" d="" pointer-events="none" display="none"/></g><g transform="translate(0,30)"><path class="background" aria-hidden="true" d="M0,0h55.5859375v18.304912982645398h-55.5859375Z" pointer-events="none" opacity="1"/><g><g class="mark-symbol role-legend-symbol" pointer-events="none"><path transform="translate(10.5,9)" d="M7.805,0A7.805,7.805,0,1,1,-7.805,0A7.805,7.805,0,1,1,7.805,0" fill="black" fill-opacity="0.7" stroke-width="1.5" opacity="0.7"/></g><g class="mark-text role-legend-label" pointer-events="none"><text text-anchor="start" transform="translate(25,12)" font-family="sans-serif" font-size="10px" fill="#000" opacity="1">50/60</text></g></g><path class="foreground" aria-hidden="true" d="" pointer-events="none" display="none"/></g><g transform="translate(0,52)"><path class="background" aria-hidden="true" d="M0,0h55.5859375v21.5h-55.5859375Z" pointer-events="none" opacity="1"/><g><g class="mark-symbol role-legend-symbol" pointer-events="none"><path transform="translate(10.5,10.5)" d="M9.5,0A9.5,9.5,0,1,1,-9.5,0A9.5,9.5,0,1,1,9.5,0" fill="black" fill-opacity="0.7" stroke-width="1.5" opacity="0.7"/></g><g class="mark-text role-legend-label" pointer-events="none"><text text-anchor="start" transform="translate(25,13.5)" font-family="sans-serif" font-size="10px" fill="#000" opacity="1">90/106</text></g></g><path class="foreground" aria-hidden="true" d="" pointer-events="none" display="none"/></g></g></g><path class="foreground" aria-hidden="true" d="" pointer-events="none" display="none"/></g></g><g class="mark-text role-legend-title" pointer-events="none"><text text-anchor="start" transform="translate(0,9)" font-family="sans-serif" font-size="11px" font-weight="bold" fill="#000" opacity="1">Goals</text></g></g><path class="foreground" aria-hidden="true" d="" pointer-events="none" display="none"/></g></g></g><path class="foreground" aria-hidden="true" d="" display="none"/></g></g></g><defs><linearGradient id="gradient_5" x1="0" x2="0" y1="1" y2="0"><stop offset="0" stop-color="rgb(207, 225, 242)"/><stop offset="0.03260869565217391" stop-color="rgb(201, 222, 240)"/><stop offset="0.08695652173913043" stop-color="rgb(192, 217, 237)"/><stop offset="0.14130434782608695" stop-color="rgb(181, 212, 233)"/><stop offset="0.1956521739130435" stop-color="rgb(169, 206, 229)"/><stop offset="0.25" stop-color="rgb(156, 200, 226)"/><stop offset="0.30434782608695654" stop-color="rgb(142, 192, 222)"/><stop offset="0.358695652173913" stop-color="rgb(127, 184, 218)"/><stop offset="0.41304347826086957" stop-color="rgb(113, 176, 214)"/><stop offset="0.4673913043478261" stop-color="rgb(99, 168, 210)"/><stop offset="0.5217391304347826" stop-color="rgb(86, 159, 205)"/><stop offset="0.5760869565217391" stop-color="rgb(74, 150, 200)"/><stop offset="0.6304347826086957" stop-color="rgb(63, 141, 195)"/><stop offset="0.6847826086956522" stop-color="rgb(52, 132, 190)"/><stop offset="0.7391304347826086" stop-color="rgb(42, 122, 185)"/><stop offset="0.7934782608695652" stop-color="rgb(33, 112, 179)"/><stop offset="0.8478260869565217" stop-color="rgb(25, 102, 171)"/><stop offset="0.9021739130434783" stop-color="rgb(18, 92, 164)"/><stop offset="0.9565217391304348" stop-color="rgb(13, 82, 153)"/><stop offset="1" stop-color="rgb(10, 74, 144)"/></linearGradient></defs></svg>