<svg xmlns="http://www.w3.org/2000/svg" xmlns:xlink="http://www.w3.org/1999/xlink" version="1.1" class="marks" width="183" height="150" viewBox="0 0 183 150"><rect width="183" height="150" fill="white"/><g fill="none" stroke-miterlimit="10" transform="translate(60,11)"><g class="mark-group role-frame root" role="graphics-object" aria-roledescription="group mark container"><g transform="translate(0,0)"><path class="background" aria-hidden="true" d="M0.5,0.5h60v40h-60Z" stroke="#ddd"/><g><g class="mark-group role-axis" role="graphics-symbol" aria-roledescription="axis" aria-label="X-axis titled 'Country' for a discrete scale with 3 values: Italy, Poland, United Kingdom"><g transform="translate(0.5,40.5)"><path class="background" aria-hidden="true" d="M0,0h0v0h0Z" pointer-events="none"/><g><g class="mark-rule role-axis-tick" pointer-events="none"><line transform="translate(10,0)" x2="0" y2="5" stroke="#888" stroke-width="1" opacity="1"/><line transform="translate(30,0)" x2="0" y2="5" stroke="#888" stroke-width="1" opacity="1"/><line transform="translate(50,0)" x2="0" y2="5" stroke="#888" stroke-width="1" opacity="1"/></g><g class="mark-text role-axis-label" pointer-events="none"><text text-anchor="end" transform="translate(10,7) rotate(270) translate(0,3)" font-family="sans-serif" font-size="10px" fill="#000" opacity="1">Italy</text><text text-anchor="end" transform="translate(30,7) rotate(270) translate(0,3)" font-family="sans-serif" font-size="10px" fill="#000" opacity="1">Poland</text><text text-anchor="end" transform="translate(50,7) rotate(270) translate(0,3)" font-family="sans-serif" font-size="10px" fill="#000" opacity="1">United Kingdom</text></g><g class="mark-rule role-axis-domain" pointer-events="none"><line transform="translate(0,0)" x2="60" y2="0" stroke="#888" stroke-width="1" opacity="1"/></g><g class="mark-text role-axis-title" pointer-events="none"><text text-anchor="middle" transform="translate(30,91.15234375)" font-family="sans-serif" font-size="11px" font-weight="bold" fill="#000" opacity="1">Country</text></g></g><path class="foreground" aria-hidden="true" d="" pointer-events="none" display="none"/></g></g><g class="mark-group role-axis" role="graphics-symbol" aria-roledescription="axis" aria-label="Y-axis titled 'Language' for a discrete scale with 2 values: English, Italian"><g transform="translate(0.5,0.5)"><path class="background" aria-hidden="true" d="M0,0h0v0h0Z" pointer-events="none"/><g><g class="mark-rule role-axis-tick" pointer-events="none"><line transform="translate(0,10)" x2="-5" y2="0" stroke="#888" stroke-width="1" opacity="1"/><line transform="translate(0,30)" x2="-5" y2="0" stroke="#888" stroke-width="1" opacity="1"/></g><g class="mark-text role-axis-label" pointer-events="none"><text text-anchor="end" transform="translate(-7,13)" font-family="sans-serif" font-size="10px" fill="#000" opacity="1">English</text><text text-anchor="end" transform="translate(-7,33)" font-family="sans-serif" font-size="10px" fill="#000" opacity="1">Italian</text></g><g class="mark-rule role-axis-domain" pointer-events="none"><line transform="translate(0,0)" x2="0" y2="40" stroke="#888" stroke-width="1" opacity="1"/></g><g class="mark-text role-axis-title" pointer-events="none"><text text-anchor="middle" transform="translate(-43.7978515625,20) rotate(-90) translate(0,-2)" font-family="sans-serif" font-size="11px" font-weight="bold" fill="#000" opacity="1">Language</text></g></g><path class="foreground" aria-hidden="true" d="" pointer-events="none" display="none"/></g></g><g class="mark-symbol role-mark marks" role="graphics-object" aria-roledescription="symbol mark container"><path aria-label="Country: Italy; Language: Italian; id: 700; series_name: Sky Radio" role="graphics-symbol" aria-roledescription="circle" transform="translate(10,30)" d="M9.316,0A9.316,9.316,0,1,1,-9.316,0A9.316,9.316,0,1,1,9.316,0" fill="#4c78a8" stroke-width="2" opacity="0.7"/><path aria-label="Country: Italy; Language: Italian; id: 701; series_name: Sky Music" role="graphics-symbol" aria-roledescription="circle" transform="translate(10,30)" d="M9.322,0A9.322,9.322,0,1,1,-9.322,0A9.322,9.322,0,1,1,9.322,0" fill="#4c78a8" stroke-width="2" opacity="0.7"/><path aria-label="Country: Italy; Language: Italian; id: 703; series_name: Music Box Italia" role="graphics-symbol" aria-roledescription="circle" transform="translate(10,30)" d="M9.335,0A9.335,9.335,0,1,1,-9.335,0A9.335,9.335,0,1,1,9.335,0" fill="#4c78a8" stroke-width="2" opacity="0.7"/><path aria-label="Country: Italy; Language: Italian; id: 704; series_name: MTV Hits" role="graphics-symbol" aria-roledescription="circle" transform="translate(10,30)" d="M9.342,0A9.342,9.342,0,1,1,-9.342,0A9.342,9.342,0,1,1,9.342,0" fill="#4c78a8" stroke-width="2" opacity="0.7"/><path aria-label="Country: Italy; Language: Italian; id: 705; series_name: MTV Classic" role="graphics-symbol" aria-roledescription="circle" transform="translate(10,30)" d="M9.349,0A9.349,9.349,0,1,1,-9.349,0A9.349,9.349,0,1,1,9.349,0" fill="#4c78a8" stroke-width="2" opacity="0.7"/><path aria-label="Country: United Kingdom; Language: English; id: 706; series_name: MTV Rocks" role="graphics-symbol" aria-roledescription="circle" transform="translate(50,10)" d="M9.355,0A9.355,9.355,0,1,1,-9.355,0A9.355,9.355,0,1,1,9.355,0" fill="#4c78a8" stroke-width="2" opacity="0.7"/><path aria-label="Country: United Kingdom; Language: English; id: 707; series_name: MTV Dance" role="graphics-symbol" aria-roledescription="circle" transform="translate(50,10)" d="M9.362,0A9.362,9.362,0,1,1,-9.362,0A9.362,9.362,0,1,1,9.362,0" fill="#4c78a8" stroke-width="2" opacity="0.7"/><path aria-label="Country: Italy; Language: Italian; id: 708; series_name: MTV Music" role="graphics-symbol" aria-roledescription="circle" transform="translate(10,30)" d="M9.369,0A9.369,9.369,0,1,1,-9.369,0A9.369,9.369,0,1,1,9.369,0" fill="#4c78a8" stroke-width="2" opacity="0.7"/><path aria-label="Country: Poland; Language: English; id: 709; series_name: MTV Live HD" role="graphics-symbol" aria-roledescription="circle" transform="translate(30,10)" d="M9.375,0A9.375,9.375,0,1,1,-9.375,0A9.375,9.375,0,1,1,9.375,0" fill="#4c78a8" stroke-width="2" opacity="0.7"/><path aria-label="Country: Italy; Language: Italian; id: 713; series_name: Radio Capital TiVù" role="graphics-symbol" aria-roledescription="circle" transform="translate(10,30)" d="M9.402,0A9.402,9.402,0,1,1,-9.402,0A9.402,9.402,0,1,1,9.402,0" fill="#4c78a8" stroke-width="2" opacity="0.7"/><path aria-label="Country: Italy; Language: Italian; id: 714; series_name: myDeejay" role="graphics-symbol" aria-roledescription="circle" transform="translate(10,30)" d="M9.408,0A9.408,9.408,0,1,1,-9.408,0A9.408,9.408,0,1,1,9.408,0" fill="#4c78a8" stroke-width="2" opacity="0.7"/><path aria-label="Country: Italy; Language: Italian; id: 715; series_name: Match Music" role="graphics-symbol" aria-roledescription="circle" transform="translate(10,30)" d="M9.415,0A9.415,9.415,0,1,1,-9.415,0A9.415,9.415,0,1,1,9.415,0" fill="#4c78a8" stroke-width="2" opacity="0.7"/><path aria-label="Country: Italy; Language: Italian; id: 717; series_name: Rock TV" role="graphics-symbol" aria-roledescription="circle" transform="translate(10,30)" d="M9.428,0A9.428,9.428,0,1,1,-9.428,0A9.428,9.428,0,1,1,9.428,0" fill="#4c78a8" stroke-width="2" opacity="0.7"/><path aria-label="Country: Italy; Language: Italian; id: 719; series_name: Hip Hop TV" role="graphics-symbol" aria-roledescription="circle" transform="translate(10,30)" d="M9.441,0A9.441,9.441,0,1,1,-9.441,0A9.441,9.441,0,1,1,9.441,0" fill="#4c78a8" stroke-width="2" opacity="0.7"/><path aria-label="Country: Italy; Language: Italian; id: 728; series_name: Classica" role="graphics-symbol" aria-roledescription="circle" transform="translate(10,30)" d="M9.5,0A9.5,9.5,0,1,1,-9.5,0A9.5,9.5,0,1,1,9.5,0" fill="#4c78a8" stroke-width="2" opacity="0.7"/></g><g class="mark-group role-legend" role="graphics-symbol" aria-roledescription="legend" aria-label="Symbol legend titled 'id' for size with values from 0 to 728"><g transform="translate(78,0)"><path class="background" aria-hidden="true" d="M0,0h40v72h-40Z" pointer-events="none"/><g><g class="mark-group role-legend-entry"><g transform="translate(0,16)"><path class="background" aria-hidden="true" d="M0,0h0v0h0Z" pointer-events="none"/><g><g class="mark-group role-scope" role="graphics-object" aria-roledescription="group mark container"><g transform="translate(0,0)"><path class="background" aria-hidden="true" d="M0,0h39.6845703125v12.479352974429112h-39.6845703125Z" pointer-events="none" opacity="1"/><g><g class="mark-symbol role-legend-symbol" pointer-events="none"><path transform="translate(9.5,6)" d="M4.979,0A4.979,4.979,0,1,1,-4.979,0A4.979,4.979,0,1,1,4.979,0" fill="#4c78a8" stroke-width="1.5" opacity="0.7"/></g><g class="mark-text role-legend-label" pointer-events="none"><text text-anchor="start" transform="translate(23,9)" font-family="sans-serif" font-size="10px" fill="#000" opacity="1">200</text></g></g><path class="foreground" aria-hidden="true" d="" pointer-events="none" display="none"/></g><g transform="translate(0,16)"><path class="background" aria-hidden="true" d="M0,0h39.6845703125v16.54186850828046h-39.6845703125Z" pointer-events="none" opacity="1"/><g><g class="mark-symbol role-legend-symbol" pointer-events="none"><path transform="translate(9.5,8)" d="M7.042,0A7.042,7.042,0,1,1,-7.042,0A7.042,7.042,0,1,1,7.042,0" fill="#4c78a8" stroke-width="1.5" opacity="0.7"/></g><g class="mark-text role-legend-label" pointer-events="none"><text text-anchor="start" transform="translate(23,11)" font-family="sans-serif" font-size="10px" fill="#000" opacity="1">400</text></g></g><path class="foreground" aria-hidden="true" d="" pointer-events="none" display="none"/></g><g transform="translate(0,36)"><path class="background" aria-hidden="true" d="M0,0h39.6845703125v19.624492340530438h-39.6845703125Z" pointer-events="none" opacity="1"/><g><g class="mark-symbol role-legend-symbol" pointer-events="none"><path transform="translate(9.5,9.5)" d="M8.624,0A8.624,8.624,0,1,1,-8.624,0A8.624,8.624,0,1,1,8.624,0" fill="#4c78a8" stroke-width="1.5" opacity="0.7"/></g><g class="mark-text role-legend-label" pointer-events="none"><text text-anchor="start" transform="translate(23,12.5)" font-family="sans-serif" font-size="10px" fill="#000" opacity="1">600</text></g></g><path class="foreground" aria-hidden="true" d="" pointer-events="none" display="none"/></g></g></g><path class="foreground" aria-hidden="true" d="" pointer-events="none" display="none"/></g></g><g class="mark-text role-legend-title" pointer-events="none"><text text-anchor="start" transform="translate(0,9)" font-family="sans-serif" font-size="11px" font-weight="bold" fill="#000" opacity="1">id</text></g></g><path class="foreground" aria-hidden="true" d="" pointer-events="none" display="none"/></g></g></g><path class="foreground" aria-hidden="true" d="" display="none"/></g></g></g></svg>