<svg xmlns="http://www.w3.org/2000/svg" xmlns:xlink="http://www.w3.org/1999/xlink" version="1.1" class="marks" width="416" height="243" viewBox="0 0 416 243"><rect width="416" height="243" fill="white"/><g fill="none" stroke-miterlimit="10" transform="translate(44,11)"><g class="mark-group role-frame root" role="graphics-object" aria-roledescription="group mark container"><g transform="translate(0,0)"><path class="background" aria-hidden="true" d="M0.5,0.5h300v120h-300Z" stroke="#ddd"/><g><g class="mark-group role-axis" aria-hidden="true"><g transform="translate(0.5,120.5)"><path class="background" aria-hidden="true" d="M0,0h0v0h0Z" pointer-events="none"/><g><g class="mark-rule role-axis-grid" pointer-events="none"><line transform="translate(0,0)" x2="0" y2="-120" stroke="#ddd" stroke-width="1" opacity="1"/><line transform="translate(54,0)" x2="0" y2="-120" stroke="#ddd" stroke-width="1" opacity="1"/><line transform="translate(107,0)" x2="0" y2="-120" stroke="#ddd" stroke-width="1" opacity="1"/><line transform="translate(161,0)" x2="0" y2="-120" stroke="#ddd" stroke-width="1" opacity="1"/><line transform="translate(214,0)" x2="0" y2="-120" stroke="#ddd" stroke-width="1" opacity="1"/><line transform="translate(268,0)" x2="0" y2="-120" stroke="#ddd" stroke-width="1" opacity="1"/></g></g><path class="foreground" aria-hidden="true" d="" pointer-events="none" display="none"/></g></g><g class="mark-group role-axis" role="graphics-symbol" aria-roledescription="axis" aria-label="X-axis titled 'Age' for a linear scale with values from 0 to 28"><g transform="translate(0.5,120.5)"><path class="background" aria-hidden="true" d="M0,0h0v0h0Z" pointer-events="none"/><g><g class="mark-rule role-axis-tick" pointer-events="none"><line transform="translate(0,0)" x2="0" y2="5" stroke="#888" stroke-width="1" opacity="1"/><line transform="translate(54,0)" x2="0" y2="5" stroke="#888" stroke-width="1" opacity="1"/><line transform="translate(107,0)" x2="0" y2="5" stroke="#888" stroke-width="1" opacity="1"/><line transform="translate(161,0)" x2="0" y2="5" stroke="#888" stroke-width="1" opacity="1"/><line transform="translate(214,0)" x2="0" y2="5" stroke="#888" stroke-width="1" opacity="1"/><line transform="translate(268,0)" x2="0" y2="5" stroke="#888" stroke-width="1" opacity="1"/></g><g class="mark-text role-axis-label" pointer-events="none"><text text-anchor="start" transform="translate(0,15)" font-family="sans-serif" font-size="10px" fill="#000" opacity="1">0</text><text text-anchor="middle" transform="translate(53.57142857142857,15)" font-family="sans-serif" font-size="10px" fill="#000" opacity="1">5</text><text text-anchor="middle" transform="translate(107.14285714285714,15)" font-family="sans-serif" font-size="10px" fill="#000" opacity="1">10</text><text text-anchor="middle" transform="translate(160.71428571428572,15)" font-family="sans-serif" font-size="10px" fill="#000" opacity="1">15</text><text text-anchor="middle" transform="translate(214.28571428571428,15)" font-family="sans-serif" font-size="10px" fill="#000" opacity="1">20</text><text text-anchor="middle" transform="translate(267.8571428571429,15)" font-family="sans-serif" font-size="10px" fill="#000" opacity="1">25</text></g><g class="mark-rule role-axis-domain" pointer-events="none"><line transform="translate(0,0)" x2="300" y2="0" stroke="#888" stroke-width="1" opacity="1"/></g><g class="mark-text role-axis-title" pointer-events="none"><text text-anchor="middle" transform="translate(150,30)" font-family="sans-serif" font-size="11px" font-weight="bold" fill="#000" opacity="1">Age</text></g></g><path class="foreground" aria-hidden="true" d="" pointer-events="none" display="none"/></g></g><g class="mark-group role-axis" role="graphics-symbol" aria-roledescription="axis" aria-label="Y-axis titled 'Major' for a discrete scale with 6 values: 50, 100, 520, 540, 550, 600"><g transform="translate(0.5,0.5)"><path class="background" aria-hidden="true" d="M0,0h0v0h0Z" pointer-events="none"/><g><g class="mark-rule role-axis-tick" pointer-events="none"><line transform="translate(0,10)" x2="-5" y2="0" stroke="#888" stroke-width="1" opacity="1"/><line transform="translate(0,30)" x2="-5" y2="0" stroke="#888" stroke-width="1" opacity="1"/><line transform="translate(0,50)" x2="-5" y2="0" stroke="#888" stroke-width="1" opacity="1"/><line transform="translate(0,70)" x2="-5" y2="0" stroke="#888" stroke-width="1" opacity="1"/><line transform="translate(0,90)" x2="-5" y2="0" stroke="#888" stroke-width="1" opacity="1"/><line transform="translate(0,110)" x2="-5" y2="0" stroke="#888" stroke-width="1" opacity="1"/></g><g class="mark-text role-axis-label" pointer-events="none"><text text-anchor="end" transform="translate(-7,13)" font-family="sans-serif" font-size="10px" fill="#000" opacity="1">50</text><text text-anchor="end" transform="translate(-7,33)" font-family="sans-serif" font-size="10px" fill="#000" opacity="1">100</text><text text-anchor="end" transform="translate(-7,53)" font-family="sans-serif" font-size="10px" fill="#000" opacity="1">520</text><text text-anchor="end" transform="translate(-7,73)" font-family="sans-serif" font-size="10px" fill="#000" opacity="1">540</text><text text-anchor="end" transform="translate(-7,93)" font-family="sans-serif" font-size="10px" fill="#000" opacity="1">550</text><text text-anchor="end" transform="translate(-7,113)" font-family="sans-serif" font-size="10px" fill="#000" opacity="1">600</text></g><g class="mark-rule role-axis-domain" pointer-events="none"><line transform="translate(0,0)" x2="0" y2="120" stroke="#888" stroke-width="1" opacity="1"/></g><g class="mark-text role-axis-title" pointer-events="none"><text text-anchor="middle" transform="translate(-27.6845703125,60) rotate(-90) translate(0,-2)" font-family="sans-serif" font-size="11px" font-weight="bold" fill="#000" opacity="1">Major</text></g></g><path class="foreground" aria-hidden="true" d="" pointer-events="none" display="none"/></g></g><g class="mark-symbol role-mark marks" role="graphics-object" aria-roledescription="symbol mark container"><path aria-label="Age: 18; Major: 600; Sex: F" role="graphics-symbol" aria-roledescription="circle" transform="translate(192.85714285714286,110)" d="M13.229,0A13.229,13.229,0,1,1,-13.229,0A13.229,13.229,0,1,1,13.229,0" fill="#4c78a8" stroke-width="2" opacity="0.7"/><path aria-label="Age: 19; Major: 600; Sex: F" role="graphics-symbol" aria-roledescription="circle" transform="translate(203.57142857142858,110)" d="M13.54,0A13.54,13.54,0,1,1,-13.54,0A13.54,13.54,0,1,1,13.54,0" fill="#4c78a8" stroke-width="2" opacity="0.7"/><path aria-label="Age: 21; Major: 600; Sex: F" role="graphics-symbol" aria-roledescription="circle" transform="translate(225,110)" d="M14.142,0A14.142,14.142,0,1,1,-14.142,0A14.142,14.142,0,1,1,14.142,0" fill="#4c78a8" stroke-width="2" opacity="0.7"/><path aria-label="Age: 20; Major: 600; Sex: M" role="graphics-symbol" aria-roledescription="circle" transform="translate(214.28571428571428,110)" d="M13.844,0A13.844,13.844,0,1,1,-13.844,0A13.844,13.844,0,1,1,13.844,0" fill="#f58518" stroke-width="2" opacity="0.7"/><path aria-label="Age: 26; Major: 600; Sex: M" role="graphics-symbol" aria-roledescription="circle" transform="translate(278.57142857142856,110)" d="M15.546,0A15.546,15.546,0,1,1,-15.546,0A15.546,15.546,0,1,1,15.546,0" fill="#f58518" stroke-width="2" opacity="0.7"/><path aria-label="Age: 18; Major: 600; Sex: M" role="graphics-symbol" aria-roledescription="circle" transform="translate(192.85714285714286,110)" d="M13.229,0A13.229,13.229,0,1,1,-13.229,0A13.229,13.229,0,1,1,13.229,0" fill="#f58518" stroke-width="2" opacity="0.7"/><path aria-label="Age: 18; Major: 600; Sex: F" role="graphics-symbol" aria-roledescription="circle" transform="translate(192.85714285714286,110)" d="M13.229,0A13.229,13.229,0,1,1,-13.229,0A13.229,13.229,0,1,1,13.229,0" fill="#4c78a8" stroke-width="2" opacity="0.7"/><path aria-label="Age: 20; Major: 600; Sex: F" role="graphics-symbol" aria-roledescription="circle" transform="translate(214.28571428571428,110)" d="M13.844,0A13.844,13.844,0,1,1,-13.844,0A13.844,13.844,0,1,1,13.844,0" fill="#4c78a8" stroke-width="2" opacity="0.7"/><path aria-label="Age: 19; Major: 600; Sex: M" role="graphics-symbol" aria-roledescription="circle" transform="translate(203.57142857142858,110)" d="M13.54,0A13.54,13.54,0,1,1,-13.54,0A13.54,13.54,0,1,1,13.54,0" fill="#f58518" stroke-width="2" opacity="0.7"/><path aria-label="Age: 17; Major: 600; Sex: M" role="graphics-symbol" aria-roledescription="circle" transform="translate(182.14285714285714,110)" d="M12.91,0A12.91,12.91,0,1,1,-12.91,0A12.91,12.91,0,1,1,12.91,0" fill="#f58518" stroke-width="2" opacity="0.7"/><path aria-label="Age: 22; Major: 600; Sex: M" role="graphics-symbol" aria-roledescription="circle" transform="translate(235.71428571428572,110)" d="M14.434,0A14.434,14.434,0,1,1,-14.434,0A14.434,14.434,0,1,1,14.434,0" fill="#f58518" stroke-width="2" opacity="0.7"/><path aria-label="Age: 20; Major: 600; Sex: M" role="graphics-symbol" aria-roledescription="circle" transform="translate(214.28571428571428,110)" d="M13.844,0A13.844,13.844,0,1,1,-13.844,0A13.844,13.844,0,1,1,13.844,0" fill="#f58518" stroke-width="2" opacity="0.7"/><path aria-label="Age: 18; Major: 600; Sex: M" role="graphics-symbol" aria-roledescription="circle" transform="translate(192.85714285714286,110)" d="M13.229,0A13.229,13.229,0,1,1,-13.229,0A13.229,13.229,0,1,1,13.229,0" fill="#f58518" stroke-width="2" opacity="0.7"/><path aria-label="Age: 16; Major: 600; Sex: F" role="graphics-symbol" aria-roledescription="circle" transform="translate(171.42857142857142,110)" d="M12.583,0A12.583,12.583,0,1,1,-12.583,0A12.583,12.583,0,1,1,12.583,0" fill="#4c78a8" stroke-width="2" opacity="0.7"/><path aria-label="Age: 17; Major: 600; Sex: M" role="graphics-symbol" aria-roledescription="circle" transform="translate(182.14285714285714,110)" d="M12.91,0A12.91,12.91,0,1,1,-12.91,0A12.91,12.91,0,1,1,12.91,0" fill="#f58518" stroke-width="2" opacity="0.7"/><path aria-label="Age: 27; Major: 600; Sex: M" role="graphics-symbol" aria-roledescription="circle" transform="translate(289.2857142857143,110)" d="M15.811,0A15.811,15.811,0,1,1,-15.811,0A15.811,15.811,0,1,1,15.811,0" fill="#f58518" stroke-width="2" opacity="0.7"/><path aria-label="Age: 20; Major: 600; Sex: M" role="graphics-symbol" aria-roledescription="circle" transform="translate(214.28571428571428,110)" d="M13.844,0A13.844,13.844,0,1,1,-13.844,0A13.844,13.844,0,1,1,13.844,0" fill="#f58518" stroke-width="2" opacity="0.7"/><path aria-label="Age: 18; Major: 600; Sex: M" role="graphics-symbol" aria-roledescription="circle" transform="translate(192.85714285714286,110)" d="M13.229,0A13.229,13.229,0,1,1,-13.229,0A13.229,13.229,0,1,1,13.229,0" fill="#f58518" stroke-width="2" opacity="0.7"/><path aria-label="Age: 22; Major: 520; Sex: M" role="graphics-symbol" aria-roledescription="circle" transform="translate(235.71428571428572,50)" d="M14.434,0A14.434,14.434,0,1,1,-14.434,0A14.434,14.434,0,1,1,14.434,0" fill="#f58518" stroke-width="2" opacity="0.7"/><path aria-label="Age: 19; Major: 520; Sex: M" role="graphics-symbol" aria-roledescription="circle" transform="translate(203.57142857142858,50)" d="M13.54,0A13.54,13.54,0,1,1,-13.54,0A13.54,13.54,0,1,1,13.54,0" fill="#f58518" stroke-width="2" opacity="0.7"/><path aria-label="Age: 17; Major: 540; Sex: M" role="graphics-symbol" aria-roledescription="circle" transform="translate(182.14285714285714,70)" d="M12.91,0A12.91,12.91,0,1,1,-12.91,0A12.91,12.91,0,1,1,12.91,0" fill="#f58518" stroke-width="2" opacity="0.7"/><path aria-label="Age: 20; Major: 520; Sex: M" role="graphics-symbol" aria-roledescription="circle" transform="translate(214.28571428571428,50)" d="M13.844,0A13.844,13.844,0,1,1,-13.844,0A13.844,13.844,0,1,1,13.844,0" fill="#f58518" stroke-width="2" opacity="0.7"/><path aria-label="Age: 18; Major: 540; Sex: F" role="graphics-symbol" aria-roledescription="circle" transform="translate(192.85714285714286,70)" d="M13.229,0A13.229,13.229,0,1,1,-13.229,0A13.229,13.229,0,1,1,13.229,0" fill="#4c78a8" stroke-width="2" opacity="0.7"/><path aria-label="Age: 18; Major: 520; Sex: M" role="graphics-symbol" aria-roledescription="circle" transform="translate(192.85714285714286,50)" d="M13.229,0A13.229,13.229,0,1,1,-13.229,0A13.229,13.229,0,1,1,13.229,0" fill="#f58518" stroke-width="2" opacity="0.7"/><path aria-label="Age: 19; Major: 520; Sex: M" role="graphics-symbol" aria-roledescription="circle" transform="translate(203.57142857142858,50)" d="M13.54,0A13.54,13.54,0,1,1,-13.54,0A13.54,13.54,0,1,1,13.54,0" fill="#f58518" stroke-width="2" opacity="0.7"/><path aria-label="Age: 18; Major: 520; Sex: M" role="graphics-symbol" aria-roledescription="circle" transform="translate(192.85714285714286,50)" d="M13.229,0A13.229,13.229,0,1,1,-13.229,0A13.229,13.229,0,1,1,13.229,0" fill="#f58518" stroke-width="2" opacity="0.7"/><path aria-label="Age: 20; Major: 550; Sex: M" role="graphics-symbol" aria-roledescription="circle" transform="translate(214.28571428571428,90)" d="M13.844,0A13.844,13.844,0,1,1,-13.844,0A13.844,13.844,0,1,1,13.844,0" fill="#f58518" stroke-width="2" opacity="0.7"/><path aria-label="Age: 17; Major: 100; Sex: M" role="graphics-symbol" aria-roledescription="circle" transform="translate(182.14285714285714,30)" d="M12.91,0A12.91,12.91,0,1,1,-12.91,0A12.91,12.91,0,1,1,12.91,0" fill="#f58518" stroke-width="2" opacity="0.7"/><path aria-label="Age: 21; Major: 550; Sex: F" role="graphics-symbol" aria-roledescription="circle" transform="translate(225,90)" d="M14.142,0A14.142,14.142,0,1,1,-14.142,0A14.142,14.142,0,1,1,14.142,0" fill="#4c78a8" stroke-width="2" opacity="0.7"/><path aria-label="Age: 20; Major: 550; Sex: F" role="graphics-symbol" aria-roledescription="circle" transform="translate(214.28571428571428,90)" d="M13.844,0A13.844,13.844,0,1,1,-13.844,0A13.844,13.844,0,1,1,13.844,0" fill="#4c78a8" stroke-width="2" opacity="0.7"/><path aria-label="Age: 20; Major: 550; Sex: M" role="graphics-symbol" aria-roledescription="circle" transform="translate(214.28571428571428,90)" d="M13.844,0A13.844,13.844,0,1,1,-13.844,0A13.844,13.844,0,1,1,13.844,0" fill="#f58518" stroke-width="2" opacity="0.7"/><path aria-label="Age: 18; Major: 550; Sex: M" role="graphics-symbol" aria-roledescription="circle" transform="translate(192.85714285714286,90)" d="M13.229,0A13.229,13.229,0,1,1,-13.229,0A13.229,13.229,0,1,1,13.229,0" fill="#f58518" stroke-width="2" opacity="0.7"/><path aria-label="Age: 18; Major: 50; Sex: M" role="graphics-symbol" aria-roledescription="circle" transform="translate(192.85714285714286,10)" d="M13.229,0A13.229,13.229,0,1,1,-13.229,0A13.229,13.229,0,1,1,13.229,0" fill="#f58518" stroke-width="2" opacity="0.7"/><path aria-label="Age: 26; Major: 50; Sex: F" role="graphics-symbol" aria-roledescription="circle" transform="translate(278.57142857142856,10)" d="M15.546,0A15.546,15.546,0,1,1,-15.546,0A15.546,15.546,0,1,1,15.546,0" fill="#4c78a8" stroke-width="2" opacity="0.7"/></g><g class="mark-group role-legend" role="graphics-symbol" aria-roledescription="legend" aria-label="Symbol legend titled 'Sex' for fill color with 2 values: F, M"><g transform="translate(318,0)"><path class="background" aria-hidden="true" d="M0,0h25v40h-25Z" pointer-events="none"/><g><g class="mark-group role-legend-entry"><g transform="translate(0,16)"><path class="background" aria-hidden="true" d="M0,0h0v0h0Z" pointer-events="none"/><g><g class="mark-group role-scope" role="graphics-object" aria-roledescription="group mark container"><g transform="translate(0,0)"><path class="background" aria-hidden="true" d="M0,0h24.330078125v11h-24.330078125Z" pointer-events="none" opacity="1"/><g><g class="mark-symbol role-legend-symbol" pointer-events="none"><path transform="translate(6,6)" d="M5,0A5,5,0,1,1,-5,0A5,5,0,1,1,5,0" fill="#4c78a8" stroke-width="1.5" opacity="0.7"/></g><g class="mark-text role-legend-label" pointer-events="none"><text text-anchor="start" transform="translate(16,9)" font-family="sans-serif" font-size="10px" fill="#000" opacity="1">F</text></g></g><path class="foreground" aria-hidden="true" d="" pointer-events="none" display="none"/></g><g transform="translate(0,13)"><path class="background" aria-hidden="true" d="M0,0h24.330078125v11h-24.330078125Z" pointer-events="none" opacity="1"/><g><g class="mark-symbol role-legend-symbol" pointer-events="none"><path transform="translate(6,6)" d="M5,0A5,5,0,1,1,-5,0A5,5,0,1,1,5,0" fill="#f58518" stroke-width="1.5" opacity="0.7"/></g><g class="mark-text role-legend-label" pointer-events="none"><text text-anchor="start" transform="translate(16,9)" font-family="sans-serif" font-size="10px" fill="#000" opacity="1">M</text></g></g><path class="foreground" aria-hidden="true" d="" pointer-events="none" display="none"/></g></g></g><path class="foreground" aria-hidden="true" d="" pointer-events="none" display="none"/></g></g><g class="mark-text role-legend-title" pointer-events="none"><text text-anchor="start" transform="translate(0,9)" font-family="sans-serif" font-size="11px" font-weight="bold" fill="#000" opacity="1">Sex</text></g></g><path class="foreground" aria-hidden="true" d="" pointer-events="none" display="none"/></g></g><g class="mark-group role-legend" role="graphics-symbol" aria-roledescription="legend" aria-label="Symbol legend titled 'Age' for size with values from 0 to 27"><g transform="translate(318,48)"><path class="background" aria-hidden="true" d="M0,0h49v179h-49Z" pointer-events="none"/><g><g class="mark-group role-legend-entry"><g transform="translate(0,16)"><path class="background" aria-hidden="true" d="M0,0h0v0h0Z" pointer-events="none"/><g><g class="mark-group role-scope" role="graphics-object" aria-roledescription="group mark container"><g transform="translate(0,0)"><path class="background" aria-hidden="true" d="M0,0h48.123046875v12.5h-48.123046875Z" pointer-events="none" opacity="1"/><g><g class="mark-symbol role-legend-symbol" pointer-events="none"><path transform="translate(16.5,6)" d="M5,0A5,5,0,1,1,-5,0A5,5,0,1,1,5,0" fill="black" fill-opacity="0.7" stroke-width="1.5" opacity="0.7"/></g><g class="mark-text role-legend-label" pointer-events="none"><text text-anchor="start" transform="translate(37,9)" font-family="sans-serif" font-size="10px" fill="#000" opacity="1">0</text></g></g><path class="foreground" aria-hidden="true" d="" pointer-events="none" display="none"/></g><g transform="translate(0,16)"><path class="background" aria-hidden="true" d="M0,0h48.123046875v18.664965809277263h-48.123046875Z" pointer-events="none" opacity="1"/><g><g class="mark-symbol role-legend-symbol" pointer-events="none"><path transform="translate(16.5,9)" d="M8.165,0A8.165,8.165,0,1,1,-8.165,0A8.165,8.165,0,1,1,8.165,0" fill="black" fill-opacity="0.7" stroke-width="1.5" opacity="0.7"/></g><g class="mark-text role-legend-label" pointer-events="none"><text text-anchor="start" transform="translate(37,12)" font-family="sans-serif" font-size="10px" fill="#000" opacity="1">5</text></g></g><path class="foreground" aria-hidden="true" d="" pointer-events="none" display="none"/></g><g transform="translate(0,38)"><path class="background" aria-hidden="true" d="M0,0h48.123046875v23.40832999733066h-48.123046875Z" pointer-events="none" opacity="1"/><g><g class="mark-symbol role-legend-symbol" pointer-events="none"><path transform="translate(16.5,11.5)" d="M10.408,0A10.408,10.408,0,1,1,-10.408,0A10.408,10.408,0,1,1,10.408,0" fill="black" fill-opacity="0.7" stroke-width="1.5" opacity="0.7"/></g><g class="mark-text role-legend-label" pointer-events="none"><text text-anchor="start" transform="translate(37,14.5)" font-family="sans-serif" font-size="10px" fill="#000" opacity="1">10</text></g></g><path class="foreground" aria-hidden="true" d="" pointer-events="none" display="none"/></g><g transform="translate(0,65)"><path class="background" aria-hidden="true" d="M0,0h48.123046875v26.747448713915887h-48.123046875Z" pointer-events="none" opacity="1"/><g><g class="mark-symbol role-legend-symbol" pointer-events="none"><path transform="translate(16.5,13)" d="M12.247,0A12.247,12.247,0,1,1,-12.247,0A12.247,12.247,0,1,1,12.247,0" fill="black" fill-opacity="0.7" stroke-width="1.5" opacity="0.7"/></g><g class="mark-text role-legend-label" pointer-events="none"><text text-anchor="start" transform="translate(37,16)" font-family="sans-serif" font-size="10px" fill="#000" opacity="1">15</text></g></g><path class="foreground" aria-hidden="true" d="" pointer-events="none" display="none"/></g><g transform="translate(0,95)"><path class="background" aria-hidden="true" d="M0,0h48.123046875v30.34437310486345h-48.123046875Z" pointer-events="none" opacity="1"/><g><g class="mark-symbol role-legend-symbol" pointer-events="none"><path transform="translate(16.5,15)" d="M13.844,0A13.844,13.844,0,1,1,-13.844,0A13.844,13.844,0,1,1,13.844,0" fill="black" fill-opacity="0.7" stroke-width="1.5" opacity="0.7"/></g><g class="mark-text role-legend-label" pointer-events="none"><text text-anchor="start" transform="translate(37,18)" font-family="sans-serif" font-size="10px" fill="#000" opacity="1">20</text></g></g><path class="foreground" aria-hidden="true" d="" pointer-events="none" display="none"/></g><g transform="translate(0,129)"><path class="background" aria-hidden="true" d="M0,0h48.123046875v33.27525231651947h-48.123046875Z" pointer-events="none" opacity="1"/><g><g class="mark-symbol role-legend-symbol" pointer-events="none"><path transform="translate(16.5,16.5)" d="M15.275,0A15.275,15.275,0,1,1,-15.275,0A15.275,15.275,0,1,1,15.275,0" fill="black" fill-opacity="0.7" stroke-width="1.5" opacity="0.7"/></g><g class="mark-text role-legend-label" pointer-events="none"><text text-anchor="start" transform="translate(37,19.5)" font-family="sans-serif" font-size="10px" fill="#000" opacity="1">25</text></g></g><path class="foreground" aria-hidden="true" d="" pointer-events="none" display="none"/></g></g></g><path class="foreground" aria-hidden="true" d="" pointer-events="none" display="none"/></g></g><g class="mark-text role-legend-title" pointer-events="none"><text text-anchor="start" transform="translate(0,9)" font-family="sans-serif" font-size="11px" font-weight="bold" fill="#000" opacity="1">Age</text></g></g><path class="foreground" aria-hidden="true" d="" pointer-events="none" display="none"/></g></g></g><path class="foreground" aria-hidden="true" d="" display="none"/></g></g></g></svg>