<svg xmlns="http://www.w3.org/2000/svg" xmlns:xlink="http://www.w3.org/1999/xlink" version="1.1" class="marks" width="384" height="103" viewBox="0 0 384 103"><rect width="384" height="103" fill="white"/><g fill="none" stroke-miterlimit="10" transform="translate(5,5)"><g class="mark-group role-frame root" role="graphics-object" aria-roledescription="group mark container"><g transform="translate(0,0)"><path class="background" aria-hidden="true" d="M0.5,0.5h300v20h-300Z" stroke="#ddd"/><g><g class="mark-group role-axis" aria-hidden="true"><g transform="translate(0.5,20.5)"><path class="background" aria-hidden="true" d="M0,0h0v0h0Z" pointer-events="none"/><g><g class="mark-rule role-axis-grid" pointer-events="none"><line transform="translate(150,0)" x2="0" y2="-20" stroke="#ddd" stroke-width="1" opacity="1"/></g></g><path class="foreground" aria-hidden="true" d="" pointer-events="none" display="none"/></g></g><g class="mark-group role-axis" role="graphics-symbol" aria-roledescription="axis" aria-label="X-axis titled 'Open_Date (year)' for a time scale with values from 1970 to 1970"><g transform="translate(0.5,20.5)"><path class="background" aria-hidden="true" d="M0,0h0v0h0Z" pointer-events="none"/><g><g class="mark-rule role-axis-tick" pointer-events="none"><line transform="translate(150,0)" x2="0" y2="5" stroke="#888" stroke-width="1" opacity="1"/></g><g class="mark-text role-axis-label" pointer-events="none"><text text-anchor="middle" transform="translate(150,15)" font-family="sans-serif" font-size="10px" fill="#000" opacity="1">1970</text></g><g class="mark-rule role-axis-domain" pointer-events="none"><line transform="translate(0,0)" x2="300" y2="0" stroke="#888" stroke-width="1" opacity="1"/></g><g class="mark-text role-axis-title" pointer-events="none"><text text-anchor="middle" transform="translate(150,30)" font-family="sans-serif" font-size="11px" font-weight="bold" fill="#000" opacity="1">Open_Date (year)</text></g></g><path class="foreground" aria-hidden="true" d="" pointer-events="none" display="none"/></g></g><g class="mark-symbol role-mark marks" role="graphics-object" aria-roledescription="symbol mark container"><path aria-label="Open_Date (year): 1970; Church_ID: 1; Name: Pure Church of Christ" role="graphics-symbol" aria-roledescription="circle" transform="translate(150,10)" d="M3.167,0A3.167,3.167,0,1,1,-3.167,0A3.167,3.167,0,1,1,3.167,0" fill="#4c78a8" stroke-width="2" opacity="0.7"/><path aria-label="Open_Date (year): 1970; Church_ID: 2; Name: Independent Church" role="graphics-symbol" aria-roledescription="circle" transform="translate(150,10)" d="M4.478,0A4.478,4.478,0,1,1,-4.478,0A4.478,4.478,0,1,1,4.478,0" fill="#4c78a8" stroke-width="2" opacity="0.7"/><path aria-label="Open_Date (year): 1970; Church_ID: 3; Name: Church of Christ" role="graphics-symbol" aria-roledescription="circle" transform="translate(150,10)" d="M5.485,0A5.485,5.485,0,1,1,-5.485,0A5.485,5.485,0,1,1,5.485,0" fill="#4c78a8" stroke-width="2" opacity="0.7"/><path aria-label="Open_Date (year): 1970; Church_ID: 4; Name: Church of Christ (Parrishite)" role="graphics-symbol" aria-roledescription="circle" transform="translate(150,10)" d="M6.333,0A6.333,6.333,0,1,1,-6.333,0A6.333,6.333,0,1,1,6.333,0" fill="#4c78a8" stroke-width="2" opacity="0.7"/><path aria-label="Open_Date (year): 1970; Church_ID: 5; Name: Alston Church" role="graphics-symbol" aria-roledescription="circle" transform="translate(150,10)" d="M7.081,0A7.081,7.081,0,1,1,-7.081,0A7.081,7.081,0,1,1,7.081,0" fill="#4c78a8" stroke-width="2" opacity="0.7"/><path aria-label="Open_Date (year): 1970; Church_ID: 6; Name: Church of Christ" role="graphics-symbol" aria-roledescription="circle" transform="translate(150,10)" d="M7.757,0A7.757,7.757,0,1,1,-7.757,0A7.757,7.757,0,1,1,7.757,0" fill="#4c78a8" stroke-width="2" opacity="0.7"/><path aria-label="Open_Date (year): 1970; Church_ID: 7; Name: Church of Jesus Christ, the Bride, the Lamb's Wife" role="graphics-symbol" aria-roledescription="circle" transform="translate(150,10)" d="M8.378,0A8.378,8.378,0,1,1,-8.378,0A8.378,8.378,0,1,1,8.378,0" fill="#4c78a8" stroke-width="2" opacity="0.7"/><path aria-label="Open_Date (year): 1970; Church_ID: 8; Name: Church of Christ" role="graphics-symbol" aria-roledescription="circle" transform="translate(150,10)" d="M8.957,0A8.957,8.957,0,1,1,-8.957,0A8.957,8.957,0,1,1,8.957,0" fill="#4c78a8" stroke-width="2" opacity="0.7"/><path aria-label="Open_Date (year): 1970; Church_ID: 9; Name: True Church of Jesus Christ of Latter Day Saints" role="graphics-symbol" aria-roledescription="circle" transform="translate(150,10)" d="M9.5,0A9.5,9.5,0,1,1,-9.5,0A9.5,9.5,0,1,1,9.5,0" fill="#4c78a8" stroke-width="2" opacity="0.7"/></g><g class="mark-group role-legend" role="graphics-symbol" aria-roledescription="legend" aria-label="Symbol legend titled 'Church_ID' for size with values from 0 to 9"><g transform="translate(318,0)"><path class="background" aria-hidden="true" d="M0,0h56v93h-56Z" pointer-events="none"/><g><g class="mark-group role-legend-entry"><g transform="translate(0,16)"><path class="background" aria-hidden="true" d="M0,0h0v0h0Z" pointer-events="none"/><g><g class="mark-group role-scope" role="graphics-object" aria-roledescription="group mark container"><g transform="translate(0,0)"><path class="background" aria-hidden="true" d="M0,0h29.5615234375v11.4783429475148h-29.5615234375Z" pointer-events="none" opacity="1"/><g><g class="mark-symbol role-legend-symbol" pointer-events="none"><path transform="translate(10,5.5)" d="M4.478,0A4.478,4.478,0,1,1,-4.478,0A4.478,4.478,0,1,1,4.478,0" fill="#4c78a8" stroke-width="1.5" opacity="0.7"/></g><g class="mark-text role-legend-label" pointer-events="none"><text text-anchor="start" transform="translate(24,8.5)" font-family="sans-serif" font-size="10px" fill="#000" opacity="1">2</text></g></g><path class="foreground" aria-hidden="true" d="" pointer-events="none" display="none"/></g><g transform="translate(0,15)"><path class="background" aria-hidden="true" d="M0,0h29.5615234375v15.333333333333332h-29.5615234375Z" pointer-events="none" opacity="1"/><g><g class="mark-symbol role-legend-symbol" pointer-events="none"><path transform="translate(10,7.5)" d="M6.333,0A6.333,6.333,0,1,1,-6.333,0A6.333,6.333,0,1,1,6.333,0" fill="#4c78a8" stroke-width="1.5" opacity="0.7"/></g><g class="mark-text role-legend-label" pointer-events="none"><text text-anchor="start" transform="translate(24,10.5)" font-family="sans-serif" font-size="10px" fill="#000" opacity="1">4</text></g></g><path class="foreground" aria-hidden="true" d="" pointer-events="none" display="none"/></g><g transform="translate(0,34)"><path class="background" aria-hidden="true" d="M0,0h29.5615234375v18.256717518813396h-29.5615234375Z" pointer-events="none" opacity="1"/><g><g class="mark-symbol role-legend-symbol" pointer-events="none"><path transform="translate(10,9)" d="M7.757,0A7.757,7.757,0,1,1,-7.757,0A7.757,7.757,0,1,1,7.757,0" fill="#4c78a8" stroke-width="1.5" opacity="0.7"/></g><g class="mark-text role-legend-label" pointer-events="none"><text text-anchor="start" transform="translate(24,12)" font-family="sans-serif" font-size="10px" fill="#000" opacity="1">6</text></g></g><path class="foreground" aria-hidden="true" d="" pointer-events="none" display="none"/></g><g transform="translate(0,56)"><path class="background" aria-hidden="true" d="M0,0h29.5615234375v20.456685895029608h-29.5615234375Z" pointer-events="none" opacity="1"/><g><g class="mark-symbol role-legend-symbol" pointer-events="none"><path transform="translate(10,10)" d="M8.957,0A8.957,8.957,0,1,1,-8.957,0A8.957,8.957,0,1,1,8.957,0" fill="#4c78a8" stroke-width="1.5" opacity="0.7"/></g><g class="mark-text role-legend-label" pointer-events="none"><text text-anchor="start" transform="translate(24,13)" font-family="sans-serif" font-size="10px" fill="#000" opacity="1">8</text></g></g><path class="foreground" aria-hidden="true" d="" pointer-events="none" display="none"/></g></g></g><path class="foreground" aria-hidden="true" d="" pointer-events="none" display="none"/></g></g><g class="mark-text role-legend-title" pointer-events="none"><text text-anchor="start" transform="translate(0,9)" font-family="sans-serif" font-size="11px" font-weight="bold" fill="#000" opacity="1">Church_ID</text></g></g><path class="foreground" aria-hidden="true" d="" pointer-events="none" display="none"/></g></g></g><path class="foreground" aria-hidden="true" d="" display="none"/></g></g></g></svg>