<svg xmlns="http://www.w3.org/2000/svg" xmlns:xlink="http://www.w3.org/1999/xlink" version="1.1" class="marks" width="300" height="171" viewBox="0 0 300 171"><rect width="300" height="171" fill="white"/><g fill="none" stroke-miterlimit="10" transform="translate(44,5)"><g class="mark-group role-frame root" role="graphics-object" aria-roledescription="group mark container"><g transform="translate(0,0)"><path class="background" aria-hidden="true" d="M0.5,0.5h140v40h-140Z" stroke="#ddd"/><g><g class="mark-group role-axis" role="graphics-symbol" aria-roledescription="axis" aria-label="X-axis titled 'Area' for a discrete scale with 7 values: N/A, California, Central Valley, Santa Cruz Mountains, Sierra Foothills, Central Coast, North Coast"><g transform="translate(0.5,40.5)"><path class="background" aria-hidden="true" d="M0,0h0v0h0Z" pointer-events="none"/><g><g class="mark-rule role-axis-tick" pointer-events="none"><line transform="translate(10,0)" x2="0" y2="5" stroke="#888" stroke-width="1" opacity="1"/><line transform="translate(30,0)" x2="0" y2="5" stroke="#888" stroke-width="1" opacity="1"/><line transform="translate(50,0)" x2="0" y2="5" stroke="#888" stroke-width="1" opacity="1"/><line transform="translate(70,0)" x2="0" y2="5" stroke="#888" stroke-width="1" opacity="1"/><line transform="translate(90,0)" x2="0" y2="5" stroke="#888" stroke-width="1" opacity="1"/><line transform="translate(110,0)" x2="0" y2="5" stroke="#888" stroke-width="1" opacity="1"/><line transform="translate(130,0)" x2="0" y2="5" stroke="#888" stroke-width="1" opacity="1"/></g><g class="mark-text role-axis-label" pointer-events="none"><text text-anchor="end" transform="translate(10,7) rotate(270) translate(0,3)" font-family="sans-serif" font-size="10px" fill="#000" opacity="1">N/A</text><text text-anchor="end" transform="translate(30,7) rotate(270) translate(0,3)" font-family="sans-serif" font-size="10px" fill="#000" opacity="1">California</text><text text-anchor="end" transform="translate(50,7) rotate(270) translate(0,3)" font-family="sans-serif" font-size="10px" fill="#000" opacity="1">Central Valley</text><text text-anchor="end" transform="translate(70,7) rotate(270) translate(0,3)" font-family="sans-serif" font-size="10px" fill="#000" opacity="1">Santa Cruz Mountains</text><text text-anchor="end" transform="translate(90,7) rotate(270) translate(0,3)" font-family="sans-serif" font-size="10px" fill="#000" opacity="1">Sierra Foothills</text><text text-anchor="end" transform="translate(110,7) rotate(270) translate(0,3)" font-family="sans-serif" font-size="10px" fill="#000" opacity="1">Central Coast</text><text text-anchor="end" transform="translate(130,7) rotate(270) translate(0,3)" font-family="sans-serif" font-size="10px" fill="#000" opacity="1">North Coast</text></g><g class="mark-rule role-axis-domain" pointer-events="none"><line transform="translate(0,0)" x2="140" y2="0" stroke="#888" stroke-width="1" opacity="1"/></g><g class="mark-text role-axis-title" pointer-events="none"><text text-anchor="middle" transform="translate(70,118.9404296875)" font-family="sans-serif" font-size="11px" font-weight="bold" fill="#000" opacity="1">Area</text></g></g><path class="foreground" aria-hidden="true" d="" pointer-events="none" display="none"/></g></g><g class="mark-group role-axis" role="graphics-symbol" aria-roledescription="axis" aria-label="Y-axis titled 'isAVA' for a discrete scale with 2 values: No, Yes"><g transform="translate(0.5,0.5)"><path class="background" aria-hidden="true" d="M0,0h0v0h0Z" pointer-events="none"/><g><g class="mark-rule role-axis-tick" pointer-events="none"><line transform="translate(0,10)" x2="-5" y2="0" stroke="#888" stroke-width="1" opacity="1"/><line transform="translate(0,30)" x2="-5" y2="0" stroke="#888" stroke-width="1" opacity="1"/></g><g class="mark-text role-axis-label" pointer-events="none"><text text-anchor="end" transform="translate(-7,13)" font-family="sans-serif" font-size="10px" fill="#000" opacity="1">No</text><text text-anchor="end" transform="translate(-7,33)" font-family="sans-serif" font-size="10px" fill="#000" opacity="1">Yes</text></g><g class="mark-rule role-axis-domain" pointer-events="none"><line transform="translate(0,0)" x2="0" y2="40" stroke="#888" stroke-width="1" opacity="1"/></g><g class="mark-text role-axis-title" pointer-events="none"><text text-anchor="middle" transform="translate(-27.3134765625,20) rotate(-90) translate(0,-2)" font-family="sans-serif" font-size="11px" font-weight="bold" fill="#000" opacity="1">isAVA</text></g></g><path class="foreground" aria-hidden="true" d="" pointer-events="none" display="none"/></g></g><g class="mark-symbol role-mark marks" role="graphics-object" aria-roledescription="symbol mark container"><path aria-label="Area: North Coast; isAVA: Yes; Count of Records: 26" role="graphics-symbol" aria-roledescription="circle" transform="translate(130,30)" d="M9.5,0A9.5,9.5,0,1,1,-9.5,0A9.5,9.5,0,1,1,9.5,0" fill="#4c78a8" stroke-width="2"/><path aria-label="Area: Sierra Foothills; isAVA: No; Count of Records: 2" role="graphics-symbol" aria-roledescription="circle" transform="translate(90,10)" d="M2.635,0A2.635,2.635,0,1,1,-2.635,0A2.635,2.635,0,1,1,2.635,0" fill="#4c78a8" stroke-width="2"/><path aria-label="Area: N/A; isAVA: No; Count of Records: 1" role="graphics-symbol" aria-roledescription="circle" transform="translate(10,10)" d="M1.863,0A1.863,1.863,0,1,1,-1.863,0A1.863,1.863,0,1,1,1.863,0" fill="#4c78a8" stroke-width="2"/><path aria-label="Area: Central Coast; isAVA: Yes; Count of Records: 11" role="graphics-symbol" aria-roledescription="circle" transform="translate(110,30)" d="M6.179,0A6.179,6.179,0,1,1,-6.179,0A6.179,6.179,0,1,1,6.179,0" fill="#4c78a8" stroke-width="2"/><path aria-label="Area: California; isAVA: No; Count of Records: 1" role="graphics-symbol" aria-roledescription="circle" transform="translate(30,10)" d="M1.863,0A1.863,1.863,0,1,1,-1.863,0A1.863,1.863,0,1,1,1.863,0" fill="#4c78a8" stroke-width="2"/><path aria-label="Area: Santa Cruz Mountains; isAVA: No; Count of Records: 1" role="graphics-symbol" aria-roledescription="circle" transform="translate(70,10)" d="M1.863,0A1.863,1.863,0,1,1,-1.863,0A1.863,1.863,0,1,1,1.863,0" fill="#4c78a8" stroke-width="2"/><path aria-label="Area: Sierra Foothills; isAVA: Yes; Count of Records: 3" role="graphics-symbol" aria-roledescription="circle" transform="translate(90,30)" d="M3.227,0A3.227,3.227,0,1,1,-3.227,0A3.227,3.227,0,1,1,3.227,0" fill="#4c78a8" stroke-width="2"/><path aria-label="Area: North Coast; isAVA: No; Count of Records: 5" role="graphics-symbol" aria-roledescription="circle" transform="translate(130,10)" d="M4.166,0A4.166,4.166,0,1,1,-4.166,0A4.166,4.166,0,1,1,4.166,0" fill="#4c78a8" stroke-width="2"/><path aria-label="Area: Santa Cruz Mountains; isAVA: Yes; Count of Records: 2" role="graphics-symbol" aria-roledescription="circle" transform="translate(70,30)" d="M2.635,0A2.635,2.635,0,1,1,-2.635,0A2.635,2.635,0,1,1,2.635,0" fill="#4c78a8" stroke-width="2"/><path aria-label="Area: Central Valley; isAVA: Yes; Count of Records: 1" role="graphics-symbol" aria-roledescription="circle" transform="translate(50,30)" d="M1.863,0A1.863,1.863,0,1,1,-1.863,0A1.863,1.863,0,1,1,1.863,0" fill="#4c78a8" stroke-width="2"/><path aria-label="Area: Central Coast; isAVA: No; Count of Records: 3" role="graphics-symbol" aria-roledescription="circle" transform="translate(110,10)" d="M3.227,0A3.227,3.227,0,1,1,-3.227,0A3.227,3.227,0,1,1,3.227,0" fill="#4c78a8" stroke-width="2"/><path aria-label="Area: Central Valley; isAVA: No; Count of Records: 1" role="graphics-symbol" aria-roledescription="circle" transform="translate(50,10)" d="M1.863,0A1.863,1.863,0,1,1,-1.863,0A1.863,1.863,0,1,1,1.863,0" fill="#4c78a8" stroke-width="2"/></g><g class="mark-group role-legend" role="graphics-symbol" aria-roledescription="legend" aria-label="Symbol legend titled 'Count of Records' for size with values from 0 to 26"><g transform="translate(158,0)"><path class="background" aria-hidden="true" d="M0,0h93v113h-93Z" pointer-events="none"/><g><g class="mark-group role-legend-entry"><g transform="translate(0,16)"><path class="background" aria-hidden="true" d="M0,0h0v0h0Z" pointer-events="none"/><g><g class="mark-group role-scope" role="graphics-object" aria-roledescription="group mark container"><g transform="translate(0,0)"><path class="background" aria-hidden="true" d="M0,0h36.123046875v10.66602559170839h-36.123046875Z" pointer-events="none" opacity="1"/><g><g class="mark-symbol role-legend-symbol" pointer-events="none"><path transform="translate(10.5,5)" d="M4.166,0A4.166,4.166,0,1,1,-4.166,0A4.166,4.166,0,1,1,4.166,0" fill="#4c78a8" stroke-width="1.5" opacity="1"/></g><g class="mark-text role-legend-label" pointer-events="none"><text text-anchor="start" transform="translate(25,8)" font-family="sans-serif" font-size="10px" fill="#000" opacity="1">5</text></g></g><path class="foreground" aria-hidden="true" d="" pointer-events="none" display="none"/></g><g transform="translate(0,14)"><path class="background" aria-hidden="true" d="M0,0h36.123046875v14.391649892987402h-36.123046875Z" pointer-events="none" opacity="1"/><g><g class="mark-symbol role-legend-symbol" pointer-events="none"><path transform="translate(10.5,7)" d="M5.892,0A5.892,5.892,0,1,1,-5.892,0A5.892,5.892,0,1,1,5.892,0" fill="#4c78a8" stroke-width="1.5" opacity="1"/></g><g class="mark-text role-legend-label" pointer-events="none"><text text-anchor="start" transform="translate(25,10)" font-family="sans-serif" font-size="10px" fill="#000" opacity="1">10</text></g></g><path class="foreground" aria-hidden="true" d="" pointer-events="none" display="none"/></g><g transform="translate(0,32)"><path class="background" aria-hidden="true" d="M0,0h36.123046875v16.71576799047112h-36.123046875Z" pointer-events="none" opacity="1"/><g><g class="mark-symbol role-legend-symbol" pointer-events="none"><path transform="translate(10.5,8)" d="M7.216,0A7.216,7.216,0,1,1,-7.216,0A7.216,7.216,0,1,1,7.216,0" fill="#4c78a8" stroke-width="1.5" opacity="1"/></g><g class="mark-text role-legend-label" pointer-events="none"><text text-anchor="start" transform="translate(25,11)" font-family="sans-serif" font-size="10px" fill="#000" opacity="1">15</text></g></g><path class="foreground" aria-hidden="true" d="" pointer-events="none" display="none"/></g><g transform="translate(0,52)"><path class="background" aria-hidden="true" d="M0,0h36.123046875v19.33205118341678h-36.123046875Z" pointer-events="none" opacity="1"/><g><g class="mark-symbol role-legend-symbol" pointer-events="none"><path transform="translate(10.5,9.5)" d="M8.332,0A8.332,8.332,0,1,1,-8.332,0A8.332,8.332,0,1,1,8.332,0" fill="#4c78a8" stroke-width="1.5" opacity="1"/></g><g class="mark-text role-legend-label" pointer-events="none"><text text-anchor="start" transform="translate(25,12.5)" font-family="sans-serif" font-size="10px" fill="#000" opacity="1">20</text></g></g><path class="foreground" aria-hidden="true" d="" pointer-events="none" display="none"/></g><g transform="translate(0,75)"><path class="background" aria-hidden="true" d="M0,0h36.123046875v21.31551641906374h-36.123046875Z" pointer-events="none" opacity="1"/><g><g class="mark-symbol role-legend-symbol" pointer-events="none"><path transform="translate(10.5,10.5)" d="M9.316,0A9.316,9.316,0,1,1,-9.316,0A9.316,9.316,0,1,1,9.316,0" fill="#4c78a8" stroke-width="1.5" opacity="1"/></g><g class="mark-text role-legend-label" pointer-events="none"><text text-anchor="start" transform="translate(25,13.5)" font-family="sans-serif" font-size="10px" fill="#000" opacity="1">25</text></g></g><path class="foreground" aria-hidden="true" d="" pointer-events="none" display="none"/></g></g></g><path class="foreground" aria-hidden="true" d="" pointer-events="none" display="none"/></g></g><g class="mark-text role-legend-title" pointer-events="none"><text text-anchor="start" transform="translate(0,9)" font-family="sans-serif" font-size="11px" font-weight="bold" fill="#000" opacity="1">Count of Records</text></g></g><path class="foreground" aria-hidden="true" d="" pointer-events="none" display="none"/></g></g></g><path class="foreground" aria-hidden="true" d="" display="none"/></g></g></g></svg>