<svg xmlns="http://www.w3.org/2000/svg" xmlns:xlink="http://www.w3.org/1999/xlink" version="1.1" class="marks" width="142" height="253" viewBox="0 0 142 253"><rect width="142" height="253" fill="white"/><g fill="none" stroke-miterlimit="10" transform="translate(5,5)"><g class="mark-group role-frame root" role="graphics-object" aria-roledescription="group mark container"><g transform="translate(0,0)"><path class="background" aria-hidden="true" d="M0,0h20v20h-20Z"/><g><g class="mark-symbol role-mark marks" role="graphics-object" aria-roledescription="symbol mark container"><path aria-label="College: Notre Dame; Scores: 72; Author: Steve Niehaus; Submission_ID: 1" role="graphics-symbol" aria-roledescription="circle" transform="translate(10,10)" d="M8.359,0A8.359,8.359,0,1,1,-8.359,0A8.359,8.359,0,1,1,8.359,0" fill="#b279a2" stroke-width="2" opacity="0.7"/><path aria-label="College: Florida; Scores: 79; Author: Sammy Green; Submission_ID: 2" role="graphics-symbol" aria-roledescription="circle" transform="translate(10,10)" d="M8.756,0A8.756,8.756,0,1,1,-8.756,0A8.756,8.756,0,1,1,8.756,0" fill="#f58518" stroke-width="2" opacity="0.7"/><path aria-label="College: Miami (OH); Scores: 78; Author: Sherman Smith; Submission_ID: 3" role="graphics-symbol" aria-roledescription="circle" transform="translate(10,10)" d="M8.7,0A8.7,8.7,0,1,1,-8.7,0A8.7,8.7,0,1,1,8.7,0" fill="#54a24b" stroke-width="2" opacity="0.7"/><path aria-label="College: Georgia Tech; Scores: 79; Author: Steve Raible; Submission_ID: 4" role="graphics-symbol" aria-roledescription="circle" transform="translate(10,10)" d="M8.756,0A8.756,8.756,0,1,1,-8.756,0A8.756,8.756,0,1,1,8.756,0" fill="#72b7b2" stroke-width="2" opacity="0.7"/><path aria-label="College: West Texas State; Scores: 82; Author: Jeff Lloyd; Submission_ID: 5" role="graphics-symbol" aria-roledescription="circle" transform="translate(10,10)" d="M8.92,0A8.92,8.92,0,1,1,-8.92,0A8.92,8.92,0,1,1,8.92,0" fill="#bab0ac" stroke-width="2" opacity="0.7"/><path aria-label="College: Tulsa; Scores: 89; Author: Rick Engles; Submission_ID: 6" role="graphics-symbol" aria-roledescription="circle" transform="translate(10,10)" d="M9.293,0A9.293,9.293,0,1,1,-9.293,0A9.293,9.293,0,1,1,9.293,0" fill="#9d755d" stroke-width="2" opacity="0.7"/><path aria-label="College: Temple; Scores: 92; Author: Don Bitterlich; Submission_ID: 7" role="graphics-symbol" aria-roledescription="circle" transform="translate(10,10)" d="M9.449,0A9.449,9.449,0,1,1,-9.449,0A9.449,9.449,0,1,1,9.449,0" fill="#ff9da6" stroke-width="2" opacity="0.7"/><path aria-label="College: New Mexico; Scores: 93; Author: Steve Myer; Submission_ID: 8" role="graphics-symbol" aria-roledescription="circle" transform="translate(10,10)" d="M9.5,0A9.5,9.5,0,1,1,-9.5,0A9.5,9.5,0,1,1,9.5,0" fill="#eeca3b" stroke-width="2" opacity="0.7"/><path aria-label="College: Georgia; Scores: 82; Author: Randy Johnson; Submission_ID: 9" role="graphics-symbol" aria-roledescription="circle" transform="translate(10,10)" d="M8.92,0A8.92,8.92,0,1,1,-8.92,0A8.92,8.92,0,1,1,8.92,0" fill="#e45756" stroke-width="2" opacity="0.7"/><path aria-label="College: Fisk; Scores: 83; Author: Andy Bolton; Submission_ID: 10" role="graphics-symbol" aria-roledescription="circle" transform="translate(10,10)" d="M8.975,0A8.975,8.975,0,1,1,-8.975,0A8.975,8.975,0,1,1,8.975,0" fill="#4c78a8" stroke-width="2" opacity="0.7"/></g><g class="mark-group role-legend" role="graphics-symbol" aria-roledescription="legend" aria-label="Symbol legend titled 'College' for fill color with 10 values: Fisk, Florida, Georgia, Georgia Tech, Miami (OH), ending with West Texas State"><g transform="translate(38,0)"><path class="background" aria-hidden="true" d="M0,0h94v144h-94Z" pointer-events="none"/><g><g class="mark-group role-legend-entry"><g transform="translate(0,16)"><path class="background" aria-hidden="true" d="M0,0h0v0h0Z" pointer-events="none"/><g><g class="mark-group role-scope" role="graphics-object" aria-roledescription="group mark container"><g transform="translate(0,0)"><path class="background" aria-hidden="true" d="M0,0h93.4462890625v11h-93.4462890625Z" pointer-events="none" opacity="1"/><g><g class="mark-symbol role-legend-symbol" pointer-events="none"><path transform="translate(6,6)" d="M5,0A5,5,0,1,1,-5,0A5,5,0,1,1,5,0" fill="#4c78a8" stroke-width="1.5" opacity="0.7"/></g><g class="mark-text role-legend-label" pointer-events="none"><text text-anchor="start" transform="translate(16,9)" font-family="sans-serif" font-size="10px" fill="#000" opacity="1">Fisk</text></g></g><path class="foreground" aria-hidden="true" d="" pointer-events="none" display="none"/></g><g transform="translate(0,13)"><path class="background" aria-hidden="true" d="M0,0h93.4462890625v11h-93.4462890625Z" pointer-events="none" opacity="1"/><g><g class="mark-symbol role-legend-symbol" pointer-events="none"><path transform="translate(6,6)" d="M5,0A5,5,0,1,1,-5,0A5,5,0,1,1,5,0" fill="#f58518" stroke-width="1.5" opacity="0.7"/></g><g class="mark-text role-legend-label" pointer-events="none"><text text-anchor="start" transform="translate(16,9)" font-family="sans-serif" font-size="10px" fill="#000" opacity="1">Florida</text></g></g><path class="foreground" aria-hidden="true" d="" pointer-events="none" display="none"/></g><g transform="translate(0,26)"><path class="background" aria-hidden="true" d="M0,0h93.4462890625v11h-93.4462890625Z" pointer-events="none" opacity="1"/><g><g class="mark-symbol role-legend-symbol" pointer-events="none"><path transform="translate(6,6)" d="M5,0A5,5,0,1,1,-5,0A5,5,0,1,1,5,0" fill="#e45756" stroke-width="1.5" opacity="0.7"/></g><g class="mark-text role-legend-label" pointer-events="none"><text text-anchor="start" transform="translate(16,9)" font-family="sans-serif" font-size="10px" fill="#000" opacity="1">Georgia</text></g></g><path class="foreground" aria-hidden="true" d="" pointer-events="none" display="none"/></g><g transform="translate(0,39)"><path class="background" aria-hidden="true" d="M0,0h93.4462890625v11h-93.4462890625Z" pointer-events="none" opacity="1"/><g><g class="mark-symbol role-legend-symbol" pointer-events="none"><path transform="translate(6,6)" d="M5,0A5,5,0,1,1,-5,0A5,5,0,1,1,5,0" fill="#72b7b2" stroke-width="1.5" opacity="0.7"/></g><g class="mark-text role-legend-label" pointer-events="none"><text text-anchor="start" transform="translate(16,9)" font-family="sans-serif" font-size="10px" fill="#000" opacity="1">Georgia Tech</text></g></g><path class="foreground" aria-hidden="true" d="" pointer-events="none" display="none"/></g><g transform="translate(0,52)"><path class="background" aria-hidden="true" d="M0,0h93.4462890625v11h-93.4462890625Z" pointer-events="none" opacity="1"/><g><g class="mark-symbol role-legend-symbol" pointer-events="none"><path transform="translate(6,6)" d="M5,0A5,5,0,1,1,-5,0A5,5,0,1,1,5,0" fill="#54a24b" stroke-width="1.5" opacity="0.7"/></g><g class="mark-text role-legend-label" pointer-events="none"><text text-anchor="start" transform="translate(16,9)" font-family="sans-serif" font-size="10px" fill="#000" opacity="1">Miami (OH)</text></g></g><path class="foreground" aria-hidden="true" d="" pointer-events="none" display="none"/></g><g transform="translate(0,65)"><path class="background" aria-hidden="true" d="M0,0h93.4462890625v11h-93.4462890625Z" pointer-events="none" opacity="1"/><g><g class="mark-symbol role-legend-symbol" pointer-events="none"><path transform="translate(6,6)" d="M5,0A5,5,0,1,1,-5,0A5,5,0,1,1,5,0" fill="#eeca3b" stroke-width="1.5" opacity="0.7"/></g><g class="mark-text role-legend-label" pointer-events="none"><text text-anchor="start" transform="translate(16,9)" font-family="sans-serif" font-size="10px" fill="#000" opacity="1">New Mexico</text></g></g><path class="foreground" aria-hidden="true" d="" pointer-events="none" display="none"/></g><g transform="translate(0,78)"><path class="background" aria-hidden="true" d="M0,0h93.4462890625v11h-93.4462890625Z" pointer-events="none" opacity="1"/><g><g class="mark-symbol role-legend-symbol" pointer-events="none"><path transform="translate(6,6)" d="M5,0A5,5,0,1,1,-5,0A5,5,0,1,1,5,0" fill="#b279a2" stroke-width="1.5" opacity="0.7"/></g><g class="mark-text role-legend-label" pointer-events="none"><text text-anchor="start" transform="translate(16,9)" font-family="sans-serif" font-size="10px" fill="#000" opacity="1">Notre Dame</text></g></g><path class="foreground" aria-hidden="true" d="" pointer-events="none" display="none"/></g><g transform="translate(0,91)"><path class="background" aria-hidden="true" d="M0,0h93.4462890625v11h-93.4462890625Z" pointer-events="none" opacity="1"/><g><g class="mark-symbol role-legend-symbol" pointer-events="none"><path transform="translate(6,6)" d="M5,0A5,5,0,1,1,-5,0A5,5,0,1,1,5,0" fill="#ff9da6" stroke-width="1.5" opacity="0.7"/></g><g class="mark-text role-legend-label" pointer-events="none"><text text-anchor="start" transform="translate(16,9)" font-family="sans-serif" font-size="10px" fill="#000" opacity="1">Temple</text></g></g><path class="foreground" aria-hidden="true" d="" pointer-events="none" display="none"/></g><g transform="translate(0,104)"><path class="background" aria-hidden="true" d="M0,0h93.4462890625v11h-93.4462890625Z" pointer-events="none" opacity="1"/><g><g class="mark-symbol role-legend-symbol" pointer-events="none"><path transform="translate(6,6)" d="M5,0A5,5,0,1,1,-5,0A5,5,0,1,1,5,0" fill="#9d755d" stroke-width="1.5" opacity="0.7"/></g><g class="mark-text role-legend-label" pointer-events="none"><text text-anchor="start" transform="translate(16,9)" font-family="sans-serif" font-size="10px" fill="#000" opacity="1">Tulsa</text></g></g><path class="foreground" aria-hidden="true" d="" pointer-events="none" display="none"/></g><g transform="translate(0,117)"><path class="background" aria-hidden="true" d="M0,0h93.4462890625v11h-93.4462890625Z" pointer-events="none" opacity="1"/><g><g class="mark-symbol role-legend-symbol" pointer-events="none"><path transform="translate(6,6)" d="M5,0A5,5,0,1,1,-5,0A5,5,0,1,1,5,0" fill="#bab0ac" stroke-width="1.5" opacity="0.7"/></g><g class="mark-text role-legend-label" pointer-events="none"><text text-anchor="start" transform="translate(16,9)" font-family="sans-serif" font-size="10px" fill="#000" opacity="1">West Texas State</text></g></g><path class="foreground" aria-hidden="true" d="" pointer-events="none" display="none"/></g></g></g><path class="foreground" aria-hidden="true" d="" pointer-events="none" display="none"/></g></g><g class="mark-text role-legend-title" pointer-events="none"><text text-anchor="start" transform="translate(0,9)" font-family="sans-serif" font-size="11px" font-weight="bold" fill="#000" opacity="1">College</text></g></g><path class="foreground" aria-hidden="true" d="" pointer-events="none" display="none"/></g></g><g class="mark-group role-legend" role="graphics-symbol" aria-roledescription="legend" aria-label="Symbol legend titled 'Scores' for size with values from 0 to 93"><g transform="translate(38,152)"><path class="background" aria-hidden="true" d="M0,0h37v91h-37Z" pointer-events="none"/><g><g class="mark-group role-legend-entry"><g transform="translate(0,16)"><path class="background" aria-hidden="true" d="M0,0h0v0h0Z" pointer-events="none"/><g><g class="mark-group role-scope" role="graphics-object" aria-roledescription="group mark container"><g transform="translate(0,0)"><path class="background" aria-hidden="true" d="M0,0h35.123046875v11.4055195097216h-35.123046875Z" pointer-events="none" opacity="1"/><g><g class="mark-symbol role-legend-symbol" pointer-events="none"><path transform="translate(10,5.5)" d="M4.406,0A4.406,4.406,0,1,1,-4.406,0A4.406,4.406,0,1,1,4.406,0" fill="black" fill-opacity="0.7" stroke-width="1.5" opacity="0.7"/></g><g class="mark-text role-legend-label" pointer-events="none"><text text-anchor="start" transform="translate(24,8.5)" font-family="sans-serif" font-size="10px" fill="#000" opacity="1">20</text></g></g><path class="foreground" aria-hidden="true" d="" pointer-events="none" display="none"/></g><g transform="translate(0,15)"><path class="background" aria-hidden="true" d="M0,0h35.123046875v14.730345439947556h-35.123046875Z" pointer-events="none" opacity="1"/><g><g class="mark-symbol role-legend-symbol" pointer-events="none"><path transform="translate(10,7)" d="M6.23,0A6.23,6.23,0,1,1,-6.23,0A6.23,6.23,0,1,1,6.23,0" fill="black" fill-opacity="0.7" stroke-width="1.5" opacity="0.7"/></g><g class="mark-text role-legend-label" pointer-events="none"><text text-anchor="start" transform="translate(24,10)" font-family="sans-serif" font-size="10px" fill="#000" opacity="1">40</text></g></g><path class="foreground" aria-hidden="true" d="" pointer-events="none" display="none"/></g><g transform="translate(0,33)"><path class="background" aria-hidden="true" d="M0,0h35.123046875v17.630583624573738h-35.123046875Z" pointer-events="none" opacity="1"/><g><g class="mark-symbol role-legend-symbol" pointer-events="none"><path transform="translate(10,8.5)" d="M7.631,0A7.631,7.631,0,1,1,-7.631,0A7.631,7.631,0,1,1,7.631,0" fill="black" fill-opacity="0.7" stroke-width="1.5" opacity="0.7"/></g><g class="mark-text role-legend-label" pointer-events="none"><text text-anchor="start" transform="translate(24,11.5)" font-family="sans-serif" font-size="10px" fill="#000" opacity="1">60</text></g></g><path class="foreground" aria-hidden="true" d="" pointer-events="none" display="none"/></g><g transform="translate(0,54)"><path class="background" aria-hidden="true" d="M0,0h35.123046875v20.3110390194432h-35.123046875Z" pointer-events="none" opacity="1"/><g><g class="mark-symbol role-legend-symbol" pointer-events="none"><path transform="translate(10,10)" d="M8.811,0A8.811,8.811,0,1,1,-8.811,0A8.811,8.811,0,1,1,8.811,0" fill="black" fill-opacity="0.7" stroke-width="1.5" opacity="0.7"/></g><g class="mark-text role-legend-label" pointer-events="none"><text text-anchor="start" transform="translate(24,13)" font-family="sans-serif" font-size="10px" fill="#000" opacity="1">80</text></g></g><path class="foreground" aria-hidden="true" d="" pointer-events="none" display="none"/></g></g></g><path class="foreground" aria-hidden="true" d="" pointer-events="none" display="none"/></g></g><g class="mark-text role-legend-title" pointer-events="none"><text text-anchor="start" transform="translate(0,9)" font-family="sans-serif" font-size="11px" font-weight="bold" fill="#000" opacity="1">Scores</text></g></g><path class="foreground" aria-hidden="true" d="" pointer-events="none" display="none"/></g></g></g><path class="foreground" aria-hidden="true" d="" display="none"/></g></g></g></svg>