<svg xmlns="http://www.w3.org/2000/svg" xmlns:xlink="http://www.w3.org/1999/xlink" version="1.1" class="marks" width="312" height="62" viewBox="0 0 312 62"><rect width="312" height="62" fill="white"/><g fill="none" stroke-miterlimit="10" transform="translate(6,5)"><g class="mark-group role-frame root" role="graphics-object" aria-roledescription="group mark container"><g transform="translate(0,0)"><path class="background" aria-hidden="true" d="M0.5,0.5h300v20h-300Z" stroke="#ddd"/><g><g class="mark-group role-axis" role="graphics-symbol" aria-roledescription="axis" aria-label="X-axis titled 'PROF_EXTENSION (binned)' for a linear scale with values from 1,000 to 9,000"><g transform="translate(0.5,20.5)"><path class="background" aria-hidden="true" d="M0,0h0v0h0Z" pointer-events="none"/><g><g class="mark-rule role-axis-tick" pointer-events="none"><line transform="translate(0,0)" x2="0" y2="5" stroke="#888" stroke-width="1" opacity="1"/><line transform="translate(38,0)" x2="0" y2="5" stroke="#888" stroke-width="1" opacity="1"/><line transform="translate(75,0)" x2="0" y2="5" stroke="#888" stroke-width="1" opacity="1"/><line transform="translate(113,0)" x2="0" y2="5" stroke="#888" stroke-width="1" opacity="1"/><line transform="translate(150,0)" x2="0" y2="5" stroke="#888" stroke-width="1" opacity="1"/><line transform="translate(188,0)" x2="0" y2="5" stroke="#888" stroke-width="1" opacity="1"/><line transform="translate(225,0)" x2="0" y2="5" stroke="#888" stroke-width="1" opacity="1"/><line transform="translate(263,0)" x2="0" y2="5" stroke="#888" stroke-width="1" opacity="1"/><line transform="translate(300,0)" x2="0" y2="5" stroke="#888" stroke-width="1" opacity="1"/></g><g class="mark-text role-axis-label" pointer-events="none"><text text-anchor="start" transform="translate(0,15)" font-family="sans-serif" font-size="10px" fill="#000" opacity="1">1,000</text><text text-anchor="middle" transform="translate(37.5,15)" font-family="sans-serif" font-size="10px" fill="#000" opacity="0">2,000</text><text text-anchor="middle" transform="translate(75,15)" font-family="sans-serif" font-size="10px" fill="#000" opacity="1">3,000</text><text text-anchor="middle" transform="translate(112.5,15)" font-family="sans-serif" font-size="10px" fill="#000" opacity="0">4,000</text><text text-anchor="middle" transform="translate(150,15)" font-family="sans-serif" font-size="10px" fill="#000" opacity="1">5,000</text><text text-anchor="middle" transform="translate(187.5,15)" font-family="sans-serif" font-size="10px" fill="#000" opacity="0">6,000</text><text text-anchor="middle" transform="translate(225,15)" font-family="sans-serif" font-size="10px" fill="#000" opacity="1">7,000</text><text text-anchor="middle" transform="translate(262.5,15)" font-family="sans-serif" font-size="10px" fill="#000" opacity="0">8,000</text><text text-anchor="end" transform="translate(300,15)" font-family="sans-serif" font-size="10px" fill="#000" opacity="1">9,000</text></g><g class="mark-rule role-axis-domain" pointer-events="none"><line transform="translate(0,0)" x2="300" y2="0" stroke="#888" stroke-width="1" opacity="1"/></g><g class="mark-text role-axis-title" pointer-events="none"><text text-anchor="middle" transform="translate(150,30)" font-family="sans-serif" font-size="11px" font-weight="bold" fill="#000" opacity="1">PROF_EXTENSION (binned)</text></g></g><path class="foreground" aria-hidden="true" d="" pointer-events="none" display="none"/></g></g><g class="mark-rect role-mark marks" role="graphics-object" aria-roledescription="rect mark container"><path aria-label="PROF_EXTENSION (binned): 6000 – 7000" role="graphics-symbol" aria-roledescription="bar" d="M188.5,0h36.5v20h-36.5Z" fill="#4c78a8"/><path aria-label="PROF_EXTENSION (binned): 5000 – 6000" role="graphics-symbol" aria-roledescription="bar" d="M151,0h36.5v20h-36.5Z" fill="#4c78a8"/><path aria-label="PROF_EXTENSION (binned): 8000 – 9000" role="graphics-symbol" aria-roledescription="bar" d="M263.5,0h36.5v20h-36.5Z" fill="#4c78a8"/><path aria-label="PROF_EXTENSION (binned): 3000 – 4000" role="graphics-symbol" aria-roledescription="bar" d="M76,0h36.5v20h-36.5Z" fill="#4c78a8"/><path aria-label="PROF_EXTENSION (binned): 3000 – 4000" role="graphics-symbol" aria-roledescription="bar" d="M76,0h36.5v20h-36.5Z" fill="#4c78a8"/><path aria-label="PROF_EXTENSION (binned): 4000 – 5000" role="graphics-symbol" aria-roledescription="bar" d="M113.5,0h36.5v20h-36.5Z" fill="#4c78a8"/><path aria-label="PROF_EXTENSION (binned): 4000 – 5000" role="graphics-symbol" aria-roledescription="bar" d="M113.5,0h36.5v20h-36.5Z" fill="#4c78a8"/><path aria-label="PROF_EXTENSION (binned): 2000 – 3000" role="graphics-symbol" aria-roledescription="bar" d="M38.5,0h36.5v20h-36.5Z" fill="#4c78a8"/><path aria-label="PROF_EXTENSION (binned): 2000 – 3000" role="graphics-symbol" aria-roledescription="bar" d="M38.5,0h36.5v20h-36.5Z" fill="#4c78a8"/><path aria-label="PROF_EXTENSION (binned): 4000 – 5000" role="graphics-symbol" aria-roledescription="bar" d="M113.5,0h36.5v20h-36.5Z" fill="#4c78a8"/><path aria-label="PROF_EXTENSION (binned): 3000 – 4000" role="graphics-symbol" aria-roledescription="bar" d="M76,0h36.5v20h-36.5Z" fill="#4c78a8"/><path aria-label="PROF_EXTENSION (binned): 3000 – 4000" role="graphics-symbol" aria-roledescription="bar" d="M76,0h36.5v20h-36.5Z" fill="#4c78a8"/><path aria-label="PROF_EXTENSION (binned): 3000 – 4000" role="graphics-symbol" aria-roledescription="bar" d="M76,0h36.5v20h-36.5Z" fill="#4c78a8"/><path aria-label="PROF_EXTENSION (binned): 1000 – 2000" role="graphics-symbol" aria-roledescription="bar" d="M1,0h36.5v20h-36.5Z" fill="#4c78a8"/><path aria-label="PROF_EXTENSION (binned): 2000 – 3000" role="graphics-symbol" aria-roledescription="bar" d="M38.5,0h36.5v20h-36.5Z" fill="#4c78a8"/><path aria-label="PROF_EXTENSION (binned): 4000 – 5000" role="graphics-symbol" aria-roledescription="bar" d="M113.5,0h36.5v20h-36.5Z" fill="#4c78a8"/><path aria-label="PROF_EXTENSION (binned): 2000 – 3000" role="graphics-symbol" aria-roledescription="bar" d="M38.5,0h36.5v20h-36.5Z" fill="#4c78a8"/><path aria-label="PROF_EXTENSION (binned): 5000 – 6000" role="graphics-symbol" aria-roledescription="bar" d="M151,0h36.5v20h-36.5Z" fill="#4c78a8"/><path aria-label="PROF_EXTENSION (binned): 8000 – 9000" role="graphics-symbol" aria-roledescription="bar" d="M263.5,0h36.5v20h-36.5Z" fill="#4c78a8"/><path aria-label="PROF_EXTENSION (binned): 6000 – 7000" role="graphics-symbol" aria-roledescription="bar" d="M188.5,0h36.5v20h-36.5Z" fill="#4c78a8"/><path aria-label="PROF_EXTENSION (binned): 2000 – 3000" role="graphics-symbol" aria-roledescription="bar" d="M38.5,0h36.5v20h-36.5Z" fill="#4c78a8"/><path aria-label="PROF_EXTENSION (binned): 2000 – 3000" role="graphics-symbol" aria-roledescription="bar" d="M38.5,0h36.5v20h-36.5Z" fill="#4c78a8"/></g></g><path class="foreground" aria-hidden="true" d="" display="none"/></g></g></g></svg>