<svg xmlns="http://www.w3.org/2000/svg" xmlns:xlink="http://www.w3.org/1999/xlink" version="1.1" class="marks" width="347" height="347" viewBox="0 0 347 347"><rect width="347" height="347" fill="white"/><g fill="none" stroke-miterlimit="10" transform="translate(41,10)"><g class="mark-group role-frame root" role="graphics-object" aria-roledescription="group mark container"><g transform="translate(0,0)"><path class="background" aria-hidden="true" d="M0.5,0.5h300v300h-300Z" stroke="#ddd"/><g><g class="mark-group role-axis" aria-hidden="true"><g transform="translate(0.5,300.5)"><path class="background" aria-hidden="true" d="M0,0h0v0h0Z" pointer-events="none"/><g><g class="mark-rule role-axis-grid" pointer-events="none"><line transform="translate(21,-300)" x2="0" y2="300" stroke="#ddd" stroke-width="1" opacity="1"/><line transform="translate(52,-300)" x2="0" y2="300" stroke="#ddd" stroke-width="1" opacity="1"/><line transform="translate(83,-300)" x2="0" y2="300" stroke="#ddd" stroke-width="1" opacity="1"/><line transform="translate(114,-300)" x2="0" y2="300" stroke="#ddd" stroke-width="1" opacity="1"/><line transform="translate(145,-300)" x2="0" y2="300" stroke="#ddd" stroke-width="1" opacity="1"/><line transform="translate(176,-300)" x2="0" y2="300" stroke="#ddd" stroke-width="1" opacity="1"/><line transform="translate(207,-300)" x2="0" y2="300" stroke="#ddd" stroke-width="1" opacity="1"/><line transform="translate(238,-300)" x2="0" y2="300" stroke="#ddd" stroke-width="1" opacity="1"/><line transform="translate(269,-300)" x2="0" y2="300" stroke="#ddd" stroke-width="1" opacity="1"/><line transform="translate(300,-300)" x2="0" y2="300" stroke="#ddd" stroke-width="1" opacity="1"/></g></g><path class="foreground" aria-hidden="true" d="" pointer-events="none" display="none"/></g></g><g class="mark-group role-axis" aria-hidden="true"><g transform="translate(0.5,0.5)"><path class="background" aria-hidden="true" d="M0,0h0v0h0Z" pointer-events="none"/><g><g class="mark-rule role-axis-grid" pointer-events="none"><line transform="translate(0,300)" x2="300" y2="0" stroke="#ddd" stroke-width="1" opacity="1"/><line transform="translate(0,270)" x2="300" y2="0" stroke="#ddd" stroke-width="1" opacity="1"/><line transform="translate(0,240)" x2="300" y2="0" stroke="#ddd" stroke-width="1" opacity="1"/><line transform="translate(0,210)" x2="300" y2="0" stroke="#ddd" stroke-width="1" opacity="1"/><line transform="translate(0,180)" x2="300" y2="0" stroke="#ddd" stroke-width="1" opacity="1"/><line transform="translate(0,150)" x2="300" y2="0" stroke="#ddd" stroke-width="1" opacity="1"/><line transform="translate(0,120)" x2="300" y2="0" stroke="#ddd" stroke-width="1" opacity="1"/><line transform="translate(0,90)" x2="300" y2="0" stroke="#ddd" stroke-width="1" opacity="1"/><line transform="translate(0,60)" x2="300" y2="0" stroke="#ddd" stroke-width="1" opacity="1"/><line transform="translate(0,30)" x2="300" y2="0" stroke="#ddd" stroke-width="1" opacity="1"/><line transform="translate(0,0)" x2="300" y2="0" stroke="#ddd" stroke-width="1" opacity="1"/></g></g><path class="foreground" aria-hidden="true" d="" pointer-events="none" display="none"/></g></g><g class="mark-group role-axis" role="graphics-symbol" aria-roledescription="axis" aria-label="X-axis titled 'Policy Start Date (Month-Year)' for a time scale with values from May 2016 to October 2018"><g transform="translate(0.5,300.5)"><path class="background" aria-hidden="true" d="M0,0h0v0h0Z" pointer-events="none"/><g><g class="mark-rule role-axis-tick" pointer-events="none"><line transform="translate(21,0)" x2="0" y2="5" stroke="#888" stroke-width="1" opacity="1"/><line transform="translate(52,0)" x2="0" y2="5" stroke="#888" stroke-width="1" opacity="1"/><line transform="translate(83,0)" x2="0" y2="5" stroke="#888" stroke-width="1" opacity="1"/><line transform="translate(114,0)" x2="0" y2="5" stroke="#888" stroke-width="1" opacity="1"/><line transform="translate(145,0)" x2="0" y2="5" stroke="#888" stroke-width="1" opacity="1"/><line transform="translate(176,0)" x2="0" y2="5" stroke="#888" stroke-width="1" opacity="1"/><line transform="translate(207,0)" x2="0" y2="5" stroke="#888" stroke-width="1" opacity="1"/><line transform="translate(238,0)" x2="0" y2="5" stroke="#888" stroke-width="1" opacity="1"/><line transform="translate(269,0)" x2="0" y2="5" stroke="#888" stroke-width="1" opacity="1"/><line transform="translate(300,0)" x2="0" y2="5" stroke="#888" stroke-width="1" opacity="1"/></g><g class="mark-text role-axis-label" pointer-events="none"><text text-anchor="middle" transform="translate(20.72480181200453,15)" font-family="sans-serif" font-size="10px" fill="#000" opacity="1">Jul 2016</text><text text-anchor="middle" transform="translate(51.981879954699885,15)" font-family="sans-serif" font-size="10px" fill="#000" opacity="0">Oct 2016</text><text text-anchor="middle" transform="translate(83.23895809739525,15)" font-family="sans-serif" font-size="10px" fill="#000" opacity="1">Jan 2017</text><text text-anchor="middle" transform="translate(113.81653454133635,15)" font-family="sans-serif" font-size="10px" fill="#000" opacity="0">Apr 2017</text><text text-anchor="middle" transform="translate(144.7338618346546,15)" font-family="sans-serif" font-size="10px" fill="#000" opacity="1">Jul 2017</text><text text-anchor="middle" transform="translate(175.99093997734997,15)" font-family="sans-serif" font-size="10px" fill="#000" opacity="0">Oct 2017</text><text text-anchor="middle" transform="translate(207.24801812004532,15)" font-family="sans-serif" font-size="10px" fill="#000" opacity="1">Jan 2018</text><text text-anchor="middle" transform="translate(237.82559456398639,15)" font-family="sans-serif" font-size="10px" fill="#000" opacity="0">Apr 2018</text><text text-anchor="middle" transform="translate(268.7429218573046,15)" font-family="sans-serif" font-size="10px" fill="#000" opacity="1">Jul 2018</text><text text-anchor="end" transform="translate(300,15)" font-family="sans-serif" font-size="10px" fill="#000" opacity="0">Oct 2018</text></g><g class="mark-rule role-axis-domain" pointer-events="none"><line transform="translate(0,0)" x2="300" y2="0" stroke="#888" stroke-width="1" opacity="1"/></g><g class="mark-text role-axis-title" pointer-events="none"><text text-anchor="middle" transform="translate(150,30)" font-family="sans-serif" font-size="11px" font-weight="bold" fill="#000" opacity="1">Policy Start Date (Month-Year)</text></g></g><path class="foreground" aria-hidden="true" d="" pointer-events="none" display="none"/></g></g><g class="mark-group role-axis" role="graphics-symbol" aria-roledescription="axis" aria-label="Y-axis titled 'Number of Policies' for a linear scale with values from 0.0 to 2.0"><g transform="translate(0.5,0.5)"><path class="background" aria-hidden="true" d="M0,0h0v0h0Z" pointer-events="none"/><g><g class="mark-rule role-axis-tick" pointer-events="none"><line transform="translate(0,300)" x2="-5" y2="0" stroke="#888" stroke-width="1" opacity="1"/><line transform="translate(0,270)" x2="-5" y2="0" stroke="#888" stroke-width="1" opacity="1"/><line transform="translate(0,240)" x2="-5" y2="0" stroke="#888" stroke-width="1" opacity="1"/><line transform="translate(0,210)" x2="-5" y2="0" stroke="#888" stroke-width="1" opacity="1"/><line transform="translate(0,180)" x2="-5" y2="0" stroke="#888" stroke-width="1" opacity="1"/><line transform="translate(0,150)" x2="-5" y2="0" stroke="#888" stroke-width="1" opacity="1"/><line transform="translate(0,120)" x2="-5" y2="0" stroke="#888" stroke-width="1" opacity="1"/><line transform="translate(0,90)" x2="-5" y2="0" stroke="#888" stroke-width="1" opacity="1"/><line transform="translate(0,60)" x2="-5" y2="0" stroke="#888" stroke-width="1" opacity="1"/><line transform="translate(0,30)" x2="-5" y2="0" stroke="#888" stroke-width="1" opacity="1"/><line transform="translate(0,0)" x2="-5" y2="0" stroke="#888" stroke-width="1" opacity="1"/></g><g class="mark-text role-axis-label" pointer-events="none"><text text-anchor="end" transform="translate(-7,303)" font-family="sans-serif" font-size="10px" fill="#000" opacity="1">0.0</text><text text-anchor="end" transform="translate(-7,273)" font-family="sans-serif" font-size="10px" fill="#000" opacity="1">0.2</text><text text-anchor="end" transform="translate(-7,243)" font-family="sans-serif" font-size="10px" fill="#000" opacity="1">0.4</text><text text-anchor="end" transform="translate(-7,213)" font-family="sans-serif" font-size="10px" fill="#000" opacity="1">0.6</text><text text-anchor="end" transform="translate(-7,183)" font-family="sans-serif" font-size="10px" fill="#000" opacity="1">0.8</text><text text-anchor="end" transform="translate(-7,153)" font-family="sans-serif" font-size="10px" fill="#000" opacity="1">1.0</text><text text-anchor="end" transform="translate(-7,123)" font-family="sans-serif" font-size="10px" fill="#000" opacity="1">1.2</text><text text-anchor="end" transform="translate(-7,93.00000000000001)" font-family="sans-serif" font-size="10px" fill="#000" opacity="1">1.4</text><text text-anchor="end" transform="translate(-7,62.999999999999986)" font-family="sans-serif" font-size="10px" fill="#000" opacity="1">1.6</text><text text-anchor="end" transform="translate(-7,32.99999999999999)" font-family="sans-serif" font-size="10px" fill="#000" opacity="1">1.8</text><text text-anchor="end" transform="translate(-7,3)" font-family="sans-serif" font-size="10px" fill="#000" opacity="1">2.0</text></g><g class="mark-rule role-axis-domain" pointer-events="none"><line transform="translate(0,300)" x2="0" y2="-300" stroke="#888" stroke-width="1" opacity="1"/></g><g class="mark-text role-axis-title" pointer-events="none"><text text-anchor="middle" transform="translate(-24.9013671875,150) rotate(-90) translate(0,-2)" font-family="sans-serif" font-size="11px" font-weight="bold" fill="#000" opacity="1">Number of Policies</text></g></g><path class="foreground" aria-hidden="true" d="" pointer-events="none" display="none"/></g></g><g class="mark-rect role-mark marks" role="graphics-object" aria-roledescription="rect mark container"><path aria-label="Start_Date (year-month): Feb 2018; Count of Records: 1" role="graphics-symbol" aria-roledescription="bar" d="M218.78029445073614,150h8.513023782559458v150h-8.513023782559458Z" fill="#4c78a8"/><path aria-label="Start_Date (year-month): Dec 2017; Count of Records: 1" role="graphics-symbol" aria-roledescription="bar" d="M197.71574178935447,150h9.532276330690848v150h-9.532276330690848Z" fill="#4c78a8"/><path aria-label="Start_Date (year-month): Mar 2017; Count of Records: 2" role="graphics-symbol" aria-roledescription="bar" d="M104.28425821064552,0h9.532276330690834v300h-9.532276330690834Z" fill="#4c78a8"/><path aria-label="Start_Date (year-month): Mar 2018; Count of Records: 1" role="graphics-symbol" aria-roledescription="bar" d="M228.2933182332956,150h9.532276330690792v150h-9.532276330690792Z" fill="#4c78a8"/><path aria-label="Start_Date (year-month): May 2016; Count of Records: 2" role="graphics-symbol" aria-roledescription="bar" d="M1,0h9.532276330690827v300h-9.532276330690827Z" fill="#4c78a8"/><path aria-label="Start_Date (year-month): Sep 2018; Count of Records: 2" role="graphics-symbol" aria-roledescription="bar" d="M290.80747451868626,0h9.192525481313737v300h-9.192525481313737Z" fill="#4c78a8"/><path aria-label="Start_Date (year-month): Jun 2016; Count of Records: 1" role="graphics-symbol" aria-roledescription="bar" d="M11.532276330690827,150h9.192525481313702v150h-9.192525481313702Z" fill="#4c78a8"/><path aria-label="Start_Date (year-month): Jul 2018; Count of Records: 1" role="graphics-symbol" aria-roledescription="bar" d="M269.7429218573046,150h9.53227633069082v150h-9.53227633069082Z" fill="#4c78a8"/><path aria-label="Start_Date (year-month): Jan 2017; Count of Records: 1" role="graphics-symbol" aria-roledescription="bar" d="M84.23895809739525,150h9.532276330690806v150h-9.532276330690806Z" fill="#4c78a8"/><path aria-label="Start_Date (year-month): Feb 2017; Count of Records: 1" role="graphics-symbol" aria-roledescription="bar" d="M94.77123442808606,150h8.513023782559458v150h-8.513023782559458Z" fill="#4c78a8"/><path aria-label="Start_Date (year-month): Aug 2016; Count of Records: 1" role="graphics-symbol" aria-roledescription="bar" d="M32.257078142695356,150h9.532276330690827v150h-9.532276330690827Z" fill="#4c78a8"/><path aria-label="Start_Date (year-month): Jul 2016; Count of Records: 1" role="graphics-symbol" aria-roledescription="bar" d="M21.72480181200453,150h9.532276330690827v150h-9.532276330690827Z" fill="#4c78a8"/></g></g><path class="foreground" aria-hidden="true" d="" display="none"/></g></g></g></svg>