<svg xmlns="http://www.w3.org/2000/svg" xmlns:xlink="http://www.w3.org/1999/xlink" version="1.1" class="marks" width="345" height="347" viewBox="0 0 345 347"><rect width="345" height="347" fill="white"/><g fill="none" stroke-miterlimit="10" transform="translate(39,10)"><g class="mark-group role-frame root" role="graphics-object" aria-roledescription="group mark container"><g transform="translate(0,0)"><path class="background" aria-hidden="true" d="M0.5,0.5h300v300h-300Z" stroke="#ddd"/><g><g class="mark-group role-axis" aria-hidden="true"><g transform="translate(0.5,0.5)"><path class="background" aria-hidden="true" d="M0,0h0v0h0Z" pointer-events="none"/><g><g class="mark-rule role-axis-grid" pointer-events="none"><line transform="translate(0,300)" x2="300" y2="0" stroke="#ddd" stroke-width="1" opacity="1"/><line transform="translate(0,270)" x2="300" y2="0" stroke="#ddd" stroke-width="1" opacity="1"/><line transform="translate(0,240)" x2="300" y2="0" stroke="#ddd" stroke-width="1" opacity="1"/><line transform="translate(0,210)" x2="300" y2="0" stroke="#ddd" stroke-width="1" opacity="1"/><line transform="translate(0,180)" x2="300" y2="0" stroke="#ddd" stroke-width="1" opacity="1"/><line transform="translate(0,150)" x2="300" y2="0" stroke="#ddd" stroke-width="1" opacity="1"/><line transform="translate(0,120)" x2="300" y2="0" stroke="#ddd" stroke-width="1" opacity="1"/><line transform="translate(0,90)" x2="300" y2="0" stroke="#ddd" stroke-width="1" opacity="1"/><line transform="translate(0,60)" x2="300" y2="0" stroke="#ddd" stroke-width="1" opacity="1"/><line transform="translate(0,30)" x2="300" y2="0" stroke="#ddd" stroke-width="1" opacity="1"/><line transform="translate(0,0)" x2="300" y2="0" stroke="#ddd" stroke-width="1" opacity="1"/></g></g><path class="foreground" aria-hidden="true" d="" pointer-events="none" display="none"/></g></g><g class="mark-group role-axis" role="graphics-symbol" aria-roledescription="axis" aria-label="X-axis titled 'Draft_Pick_Number (binned)' for a linear scale with values from 0 to 90"><g transform="translate(0.5,300.5)"><path class="background" aria-hidden="true" d="M0,0h0v0h0Z" pointer-events="none"/><g><g class="mark-rule role-axis-tick" pointer-events="none"><line transform="translate(0,0)" x2="0" y2="5" stroke="#888" stroke-width="1" opacity="1"/><line transform="translate(33,0)" x2="0" y2="5" stroke="#888" stroke-width="1" opacity="1"/><line transform="translate(67,0)" x2="0" y2="5" stroke="#888" stroke-width="1" opacity="1"/><line transform="translate(100,0)" x2="0" y2="5" stroke="#888" stroke-width="1" opacity="1"/><line transform="translate(133,0)" x2="0" y2="5" stroke="#888" stroke-width="1" opacity="1"/><line transform="translate(167,0)" x2="0" y2="5" stroke="#888" stroke-width="1" opacity="1"/><line transform="translate(200,0)" x2="0" y2="5" stroke="#888" stroke-width="1" opacity="1"/><line transform="translate(233,0)" x2="0" y2="5" stroke="#888" stroke-width="1" opacity="1"/><line transform="translate(267,0)" x2="0" y2="5" stroke="#888" stroke-width="1" opacity="1"/><line transform="translate(300,0)" x2="0" y2="5" stroke="#888" stroke-width="1" opacity="1"/></g><g class="mark-text role-axis-label" pointer-events="none"><text text-anchor="start" transform="translate(0,15)" font-family="sans-serif" font-size="10px" fill="#000" opacity="1">0</text><text text-anchor="middle" transform="translate(33.33333333333333,15)" font-family="sans-serif" font-size="10px" fill="#000" opacity="1">10</text><text text-anchor="middle" transform="translate(66.66666666666666,15)" font-family="sans-serif" font-size="10px" fill="#000" opacity="1">20</text><text text-anchor="middle" transform="translate(100,15)" font-family="sans-serif" font-size="10px" fill="#000" opacity="1">30</text><text text-anchor="middle" transform="translate(133.33333333333331,15)" font-family="sans-serif" font-size="10px" fill="#000" opacity="1">40</text><text text-anchor="middle" transform="translate(166.66666666666669,15)" font-family="sans-serif" font-size="10px" fill="#000" opacity="1">50</text><text text-anchor="middle" transform="translate(200,15)" font-family="sans-serif" font-size="10px" fill="#000" opacity="1">60</text><text text-anchor="middle" transform="translate(233.33333333333334,15)" font-family="sans-serif" font-size="10px" fill="#000" opacity="1">70</text><text text-anchor="middle" transform="translate(266.66666666666663,15)" font-family="sans-serif" font-size="10px" fill="#000" opacity="1">80</text><text text-anchor="end" transform="translate(300,15)" font-family="sans-serif" font-size="10px" fill="#000" opacity="1">90</text></g><g class="mark-rule role-axis-domain" pointer-events="none"><line transform="translate(0,0)" x2="300" y2="0" stroke="#888" stroke-width="1" opacity="1"/></g><g class="mark-text role-axis-title" pointer-events="none"><text text-anchor="middle" transform="translate(150,30)" font-family="sans-serif" font-size="11px" font-weight="bold" fill="#000" opacity="1">Draft_Pick_Number (binned)</text></g></g><path class="foreground" aria-hidden="true" d="" pointer-events="none" display="none"/></g></g><g class="mark-group role-axis" role="graphics-symbol" aria-roledescription="axis" aria-label="Y-axis titled 'Count of Records' for a linear scale with values from 0 to 10"><g transform="translate(0.5,0.5)"><path class="background" aria-hidden="true" d="M0,0h0v0h0Z" pointer-events="none"/><g><g class="mark-rule role-axis-tick" pointer-events="none"><line transform="translate(0,300)" x2="-5" y2="0" stroke="#888" stroke-width="1" opacity="1"/><line transform="translate(0,270)" x2="-5" y2="0" stroke="#888" stroke-width="1" opacity="1"/><line transform="translate(0,240)" x2="-5" y2="0" stroke="#888" stroke-width="1" opacity="1"/><line transform="translate(0,210)" x2="-5" y2="0" stroke="#888" stroke-width="1" opacity="1"/><line transform="translate(0,180)" x2="-5" y2="0" stroke="#888" stroke-width="1" opacity="1"/><line transform="translate(0,150)" x2="-5" y2="0" stroke="#888" stroke-width="1" opacity="1"/><line transform="translate(0,120)" x2="-5" y2="0" stroke="#888" stroke-width="1" opacity="1"/><line transform="translate(0,90)" x2="-5" y2="0" stroke="#888" stroke-width="1" opacity="1"/><line transform="translate(0,60)" x2="-5" y2="0" stroke="#888" stroke-width="1" opacity="1"/><line transform="translate(0,30)" x2="-5" y2="0" stroke="#888" stroke-width="1" opacity="1"/><line transform="translate(0,0)" x2="-5" y2="0" stroke="#888" stroke-width="1" opacity="1"/></g><g class="mark-text role-axis-label" pointer-events="none"><text text-anchor="end" transform="translate(-7,303)" font-family="sans-serif" font-size="10px" fill="#000" opacity="1">0</text><text text-anchor="end" transform="translate(-7,273)" font-family="sans-serif" font-size="10px" fill="#000" opacity="1">1</text><text text-anchor="end" transform="translate(-7,243)" font-family="sans-serif" font-size="10px" fill="#000" opacity="1">2</text><text text-anchor="end" transform="translate(-7,213)" font-family="sans-serif" font-size="10px" fill="#000" opacity="1">3</text><text text-anchor="end" transform="translate(-7,183)" font-family="sans-serif" font-size="10px" fill="#000" opacity="1">4</text><text text-anchor="end" transform="translate(-7,153)" font-family="sans-serif" font-size="10px" fill="#000" opacity="1">5</text><text text-anchor="end" transform="translate(-7,123)" font-family="sans-serif" font-size="10px" fill="#000" opacity="1">6</text><text text-anchor="end" transform="translate(-7,93.00000000000001)" font-family="sans-serif" font-size="10px" fill="#000" opacity="1">7</text><text text-anchor="end" transform="translate(-7,62.999999999999986)" font-family="sans-serif" font-size="10px" fill="#000" opacity="1">8</text><text text-anchor="end" transform="translate(-7,32.99999999999999)" font-family="sans-serif" font-size="10px" fill="#000" opacity="1">9</text><text text-anchor="end" transform="translate(-7,3)" font-family="sans-serif" font-size="10px" fill="#000" opacity="1">10</text></g><g class="mark-rule role-axis-domain" pointer-events="none"><line transform="translate(0,300)" x2="0" y2="-300" stroke="#888" stroke-width="1" opacity="1"/></g><g class="mark-text role-axis-title" pointer-events="none"><text text-anchor="middle" transform="translate(-22.123046875,150) rotate(-90) translate(0,-2)" font-family="sans-serif" font-size="11px" font-weight="bold" fill="#000" opacity="1">Count of Records</text></g></g><path class="foreground" aria-hidden="true" d="" pointer-events="none" display="none"/></g></g><g class="mark-rect role-mark marks" role="graphics-object" aria-roledescription="rect mark container"><path aria-label="Draft_Pick_Number (binned): 10 – 20; Count of Records: 4" role="graphics-symbol" aria-roledescription="bar" d="M34.33333333333333,180h32.33333333333333v120h-32.33333333333333Z" fill="#4c78a8"/><path aria-label="Draft_Pick_Number (binned): 80 – 90; Count of Records: 1" role="graphics-symbol" aria-roledescription="bar" d="M267.66666666666663,270h32.33333333333337v30h-32.33333333333337Z" fill="#4c78a8"/><path aria-label="Draft_Pick_Number (binned): 0 – 10; Count of Records: 10" role="graphics-symbol" aria-roledescription="bar" d="M1,0h32.33333333333333v300h-32.33333333333333Z" fill="#4c78a8"/><path aria-label="Draft_Pick_Number (binned): 30 – 40; Count of Records: 1" role="graphics-symbol" aria-roledescription="bar" d="M101,270h32.333333333333314v30h-32.333333333333314Z" fill="#4c78a8"/></g></g><path class="foreground" aria-hidden="true" d="" display="none"/></g></g></g></svg>