<svg xmlns="http://www.w3.org/2000/svg" xmlns:xlink="http://www.w3.org/1999/xlink" version="1.1" class="marks" width="90" height="94" viewBox="0 0 90 94"><rect width="90" height="94" fill="white"/><g fill="none" stroke-miterlimit="10" transform="translate(5,5)"><g class="mark-group role-frame root" role="graphics-object" aria-roledescription="group mark container"><g transform="translate(0,0)"><path class="background" aria-hidden="true" d="M0.5,0.5h80v20h-80Z" stroke="#ddd"/><g><g class="mark-group role-axis" role="graphics-symbol" aria-roledescription="axis" aria-label="X-axis titled 'grade (binned)' for a discrete scale with 4 values: 9 – 9.5, 10 – 10.5, 11 – 11.5, 11.5 – 12"><g transform="translate(0.5,20.5)"><path class="background" aria-hidden="true" d="M0,0h0v0h0Z" pointer-events="none"/><g><g class="mark-rule role-axis-tick" pointer-events="none"><line transform="translate(10,0)" x2="0" y2="5" stroke="#888" stroke-width="1" opacity="1"/><line transform="translate(30,0)" x2="0" y2="5" stroke="#888" stroke-width="1" opacity="1"/><line transform="translate(50,0)" x2="0" y2="5" stroke="#888" stroke-width="1" opacity="1"/><line transform="translate(70,0)" x2="0" y2="5" stroke="#888" stroke-width="1" opacity="1"/></g><g class="mark-text role-axis-label" pointer-events="none"><text text-anchor="end" transform="translate(9.5,7) rotate(270) translate(0,3)" font-family="sans-serif" font-size="10px" fill="#000" opacity="1">9 – 9.5</text><text text-anchor="end" transform="translate(29.5,7) rotate(270) translate(0,3)" font-family="sans-serif" font-size="10px" fill="#000" opacity="1">10 – 10.5</text><text text-anchor="end" transform="translate(49.5,7) rotate(270) translate(0,3)" font-family="sans-serif" font-size="10px" fill="#000" opacity="1">11 – 11.5</text><text text-anchor="end" transform="translate(69.5,7) rotate(270) translate(0,3)" font-family="sans-serif" font-size="10px" fill="#000" opacity="1">11.5 – 12</text></g><g class="mark-rule role-axis-domain" pointer-events="none"><line transform="translate(0,0)" x2="80" y2="0" stroke="#888" stroke-width="1" opacity="1"/></g><g class="mark-text role-axis-title" pointer-events="none"><text text-anchor="middle" transform="translate(40,61.7041015625)" font-family="sans-serif" font-size="11px" font-weight="bold" fill="#000" opacity="1">grade (binned)</text></g></g><path class="foreground" aria-hidden="true" d="" pointer-events="none" display="none"/></g></g><g class="mark-rect role-mark marks" role="graphics-object" aria-roledescription="rect mark container"><path aria-label="grade (binned): 9 – 9.5" role="graphics-symbol" aria-roledescription="bar" d="M1,0h18v20h-18Z" fill="#4c78a8"/><path aria-label="grade (binned): 9 – 9.5" role="graphics-symbol" aria-roledescription="bar" d="M1,0h18v20h-18Z" fill="#4c78a8"/><path aria-label="grade (binned): 9 – 9.5" role="graphics-symbol" aria-roledescription="bar" d="M1,0h18v20h-18Z" fill="#4c78a8"/><path aria-label="grade (binned): 9 – 9.5" role="graphics-symbol" aria-roledescription="bar" d="M1,0h18v20h-18Z" fill="#4c78a8"/><path aria-label="grade (binned): 10 – 10.5" role="graphics-symbol" aria-roledescription="bar" d="M21,0h18v20h-18Z" fill="#4c78a8"/><path aria-label="grade (binned): 10 – 10.5" role="graphics-symbol" aria-roledescription="bar" d="M21,0h18v20h-18Z" fill="#4c78a8"/><path aria-label="grade (binned): 10 – 10.5" role="graphics-symbol" aria-roledescription="bar" d="M21,0h18v20h-18Z" fill="#4c78a8"/><path aria-label="grade (binned): 10 – 10.5" role="graphics-symbol" aria-roledescription="bar" d="M21,0h18v20h-18Z" fill="#4c78a8"/><path aria-label="grade (binned): 11 – 11.5" role="graphics-symbol" aria-roledescription="bar" d="M41,0h18v20h-18Z" fill="#4c78a8"/><path aria-label="grade (binned): 11 – 11.5" role="graphics-symbol" aria-roledescription="bar" d="M41,0h18v20h-18Z" fill="#4c78a8"/><path aria-label="grade (binned): 11 – 11.5" role="graphics-symbol" aria-roledescription="bar" d="M41,0h18v20h-18Z" fill="#4c78a8"/><path aria-label="grade (binned): 11 – 11.5" role="graphics-symbol" aria-roledescription="bar" d="M41,0h18v20h-18Z" fill="#4c78a8"/><path aria-label="grade (binned): 11.5 – 12" role="graphics-symbol" aria-roledescription="bar" d="M61,0h18v20h-18Z" fill="#4c78a8"/><path aria-label="grade (binned): 11.5 – 12" role="graphics-symbol" aria-roledescription="bar" d="M61,0h18v20h-18Z" fill="#4c78a8"/><path aria-label="grade (binned): 11.5 – 12" role="graphics-symbol" aria-roledescription="bar" d="M61,0h18v20h-18Z" fill="#4c78a8"/><path aria-label="grade (binned): 11.5 – 12" role="graphics-symbol" aria-roledescription="bar" d="M61,0h18v20h-18Z" fill="#4c78a8"/></g></g><path class="foreground" aria-hidden="true" d="" display="none"/></g></g></g></svg>