<svg xmlns="http://www.w3.org/2000/svg" xmlns:xlink="http://www.w3.org/1999/xlink" version="1.1" class="marks" width="347" height="347" viewBox="0 0 347 347"><rect width="347" height="347" fill="white"/><g fill="none" stroke-miterlimit="10" transform="translate(41,10)"><g class="mark-group role-frame root" role="graphics-object" aria-roledescription="group mark container"><g transform="translate(0,0)"><path class="background" aria-hidden="true" d="M0.5,0.5h300v300h-300Z" stroke="#ddd"/><g><g class="mark-group role-axis" aria-hidden="true"><g transform="translate(0.5,0.5)"><path class="background" aria-hidden="true" d="M0,0h0v0h0Z" pointer-events="none"/><g><g class="mark-rule role-axis-grid" pointer-events="none"><line transform="translate(0,300)" x2="300" y2="0" stroke="#ddd" stroke-width="1" opacity="1"/><line transform="translate(0,270)" x2="300" y2="0" stroke="#ddd" stroke-width="1" opacity="1"/><line transform="translate(0,240)" x2="300" y2="0" stroke="#ddd" stroke-width="1" opacity="1"/><line transform="translate(0,210)" x2="300" y2="0" stroke="#ddd" stroke-width="1" opacity="1"/><line transform="translate(0,180)" x2="300" y2="0" stroke="#ddd" stroke-width="1" opacity="1"/><line transform="translate(0,150)" x2="300" y2="0" stroke="#ddd" stroke-width="1" opacity="1"/><line transform="translate(0,120)" x2="300" y2="0" stroke="#ddd" stroke-width="1" opacity="1"/><line transform="translate(0,90)" x2="300" y2="0" stroke="#ddd" stroke-width="1" opacity="1"/><line transform="translate(0,60)" x2="300" y2="0" stroke="#ddd" stroke-width="1" opacity="1"/><line transform="translate(0,30)" x2="300" y2="0" stroke="#ddd" stroke-width="1" opacity="1"/><line transform="translate(0,0)" x2="300" y2="0" stroke="#ddd" stroke-width="1" opacity="1"/></g></g><path class="foreground" aria-hidden="true" d="" pointer-events="none" display="none"/></g></g><g class="mark-group role-axis" role="graphics-symbol" aria-roledescription="axis" aria-label="X-axis titled 'Height_feet (binned)' for a linear scale with values from 100 to 600"><g transform="translate(0.5,300.5)"><path class="background" aria-hidden="true" d="M0,0h0v0h0Z" pointer-events="none"/><g><g class="mark-rule role-axis-tick" pointer-events="none"><line transform="translate(0,0)" x2="0" y2="5" stroke="#888" stroke-width="1" opacity="1"/><line transform="translate(30,0)" x2="0" y2="5" stroke="#888" stroke-width="1" opacity="1"/><line transform="translate(60,0)" x2="0" y2="5" stroke="#888" stroke-width="1" opacity="1"/><line transform="translate(90,0)" x2="0" y2="5" stroke="#888" stroke-width="1" opacity="1"/><line transform="translate(120,0)" x2="0" y2="5" stroke="#888" stroke-width="1" opacity="1"/><line transform="translate(150,0)" x2="0" y2="5" stroke="#888" stroke-width="1" opacity="1"/><line transform="translate(180,0)" x2="0" y2="5" stroke="#888" stroke-width="1" opacity="1"/><line transform="translate(210,0)" x2="0" y2="5" stroke="#888" stroke-width="1" opacity="1"/><line transform="translate(240,0)" x2="0" y2="5" stroke="#888" stroke-width="1" opacity="1"/><line transform="translate(270,0)" x2="0" y2="5" stroke="#888" stroke-width="1" opacity="1"/><line transform="translate(300,0)" x2="0" y2="5" stroke="#888" stroke-width="1" opacity="1"/></g><g class="mark-text role-axis-label" pointer-events="none"><text text-anchor="start" transform="translate(0,15)" font-family="sans-serif" font-size="10px" fill="#000" opacity="1">100</text><text text-anchor="middle" transform="translate(30,15)" font-family="sans-serif" font-size="10px" fill="#000" opacity="1">150</text><text text-anchor="middle" transform="translate(60,15)" font-family="sans-serif" font-size="10px" fill="#000" opacity="1">200</text><text text-anchor="middle" transform="translate(90,15)" font-family="sans-serif" font-size="10px" fill="#000" opacity="1">250</text><text text-anchor="middle" transform="translate(120,15)" font-family="sans-serif" font-size="10px" fill="#000" opacity="1">300</text><text text-anchor="middle" transform="translate(150,15)" font-family="sans-serif" font-size="10px" fill="#000" opacity="1">350</text><text text-anchor="middle" transform="translate(180,15)" font-family="sans-serif" font-size="10px" fill="#000" opacity="1">400</text><text text-anchor="middle" transform="translate(210,15)" font-family="sans-serif" font-size="10px" fill="#000" opacity="1">450</text><text text-anchor="middle" transform="translate(240,15)" font-family="sans-serif" font-size="10px" fill="#000" opacity="1">500</text><text text-anchor="middle" transform="translate(270,15)" font-family="sans-serif" font-size="10px" fill="#000" opacity="1">550</text><text text-anchor="end" transform="translate(300,15)" font-family="sans-serif" font-size="10px" fill="#000" opacity="1">600</text></g><g class="mark-rule role-axis-domain" pointer-events="none"><line transform="translate(0,0)" x2="300" y2="0" stroke="#888" stroke-width="1" opacity="1"/></g><g class="mark-text role-axis-title" pointer-events="none"><text text-anchor="middle" transform="translate(150,30)" font-family="sans-serif" font-size="11px" font-weight="bold" fill="#000" opacity="1">Height_feet (binned)</text></g></g><path class="foreground" aria-hidden="true" d="" pointer-events="none" display="none"/></g></g><g class="mark-group role-axis" role="graphics-symbol" aria-roledescription="axis" aria-label="Y-axis titled 'Count of Records' for a linear scale with values from 0.0 to 2.0"><g transform="translate(0.5,0.5)"><path class="background" aria-hidden="true" d="M0,0h0v0h0Z" pointer-events="none"/><g><g class="mark-rule role-axis-tick" pointer-events="none"><line transform="translate(0,300)" x2="-5" y2="0" stroke="#888" stroke-width="1" opacity="1"/><line transform="translate(0,270)" x2="-5" y2="0" stroke="#888" stroke-width="1" opacity="1"/><line transform="translate(0,240)" x2="-5" y2="0" stroke="#888" stroke-width="1" opacity="1"/><line transform="translate(0,210)" x2="-5" y2="0" stroke="#888" stroke-width="1" opacity="1"/><line transform="translate(0,180)" x2="-5" y2="0" stroke="#888" stroke-width="1" opacity="1"/><line transform="translate(0,150)" x2="-5" y2="0" stroke="#888" stroke-width="1" opacity="1"/><line transform="translate(0,120)" x2="-5" y2="0" stroke="#888" stroke-width="1" opacity="1"/><line transform="translate(0,90)" x2="-5" y2="0" stroke="#888" stroke-width="1" opacity="1"/><line transform="translate(0,60)" x2="-5" y2="0" stroke="#888" stroke-width="1" opacity="1"/><line transform="translate(0,30)" x2="-5" y2="0" stroke="#888" stroke-width="1" opacity="1"/><line transform="translate(0,0)" x2="-5" y2="0" stroke="#888" stroke-width="1" opacity="1"/></g><g class="mark-text role-axis-label" pointer-events="none"><text text-anchor="end" transform="translate(-7,303)" font-family="sans-serif" font-size="10px" fill="#000" opacity="1">0.0</text><text text-anchor="end" transform="translate(-7,273)" font-family="sans-serif" font-size="10px" fill="#000" opacity="1">0.2</text><text text-anchor="end" transform="translate(-7,243)" font-family="sans-serif" font-size="10px" fill="#000" opacity="1">0.4</text><text text-anchor="end" transform="translate(-7,213)" font-family="sans-serif" font-size="10px" fill="#000" opacity="1">0.6</text><text text-anchor="end" transform="translate(-7,183)" font-family="sans-serif" font-size="10px" fill="#000" opacity="1">0.8</text><text text-anchor="end" transform="translate(-7,153)" font-family="sans-serif" font-size="10px" fill="#000" opacity="1">1.0</text><text text-anchor="end" transform="translate(-7,123)" font-family="sans-serif" font-size="10px" fill="#000" opacity="1">1.2</text><text text-anchor="end" transform="translate(-7,93.00000000000001)" font-family="sans-serif" font-size="10px" fill="#000" opacity="1">1.4</text><text text-anchor="end" transform="translate(-7,62.999999999999986)" font-family="sans-serif" font-size="10px" fill="#000" opacity="1">1.6</text><text text-anchor="end" transform="translate(-7,32.99999999999999)" font-family="sans-serif" font-size="10px" fill="#000" opacity="1">1.8</text><text text-anchor="end" transform="translate(-7,3)" font-family="sans-serif" font-size="10px" fill="#000" opacity="1">2.0</text></g><g class="mark-rule role-axis-domain" pointer-events="none"><line transform="translate(0,300)" x2="0" y2="-300" stroke="#888" stroke-width="1" opacity="1"/></g><g class="mark-text role-axis-title" pointer-events="none"><text text-anchor="middle" transform="translate(-24.9013671875,150) rotate(-90) translate(0,-2)" font-family="sans-serif" font-size="11px" font-weight="bold" fill="#000" opacity="1">Count of Records</text></g></g><path class="foreground" aria-hidden="true" d="" pointer-events="none" display="none"/></g></g><g class="mark-rect role-mark marks" role="graphics-object" aria-roledescription="rect mark container"><path aria-label="Height_feet (binned): 100 – 150; Count of Records: 1" role="graphics-symbol" aria-roledescription="bar" d="M1,150h29v150h-29Z" fill="#4c78a8"/><path aria-label="Height_feet (binned): 150 – 200; Count of Records: 1" role="graphics-symbol" aria-roledescription="bar" d="M31,150h29v150h-29Z" fill="#4c78a8"/><path aria-label="Height_feet (binned): 200 – 250; Count of Records: 1" role="graphics-symbol" aria-roledescription="bar" d="M61,150h29v150h-29Z" fill="#4c78a8"/><path aria-label="Height_feet (binned): 250 – 300; Count of Records: 1" role="graphics-symbol" aria-roledescription="bar" d="M91,150h29v150h-29Z" fill="#4c78a8"/><path aria-label="Height_feet (binned): 450 – 500; Count of Records: 1" role="graphics-symbol" aria-roledescription="bar" d="M211,150h29v150h-29Z" fill="#4c78a8"/><path aria-label="Height_feet (binned): 500 – 550; Count of Records: 1" role="graphics-symbol" aria-roledescription="bar" d="M241,150h29v150h-29Z" fill="#4c78a8"/><path aria-label="Height_feet (binned): 550 – 600; Count of Records: 2" role="graphics-symbol" aria-roledescription="bar" d="M271,0h29v300h-29Z" fill="#4c78a8"/></g></g><path class="foreground" aria-hidden="true" d="" display="none"/></g></g></g></svg>