<svg xmlns="http://www.w3.org/2000/svg" xmlns:xlink="http://www.w3.org/1999/xlink" version="1.1" class="marks" width="312" height="62" viewBox="0 0 312 62"><rect width="312" height="62" fill="white"/><g fill="none" stroke-miterlimit="10" transform="translate(6,5)"><g class="mark-group role-frame root" role="graphics-object" aria-roledescription="group mark container"><g transform="translate(0,0)"><path class="background" aria-hidden="true" d="M0.5,0.5h300v20h-300Z" stroke="#ddd"/><g><g class="mark-group role-axis" role="graphics-symbol" aria-roledescription="axis" aria-label="X-axis titled 'Age (binned)' for a linear scale with values from 16 to 28"><g transform="translate(0.5,20.5)"><path class="background" aria-hidden="true" d="M0,0h0v0h0Z" pointer-events="none"/><g><g class="mark-rule role-axis-tick" pointer-events="none"><line transform="translate(0,0)" x2="0" y2="5" stroke="#888" stroke-width="1" opacity="1"/><line transform="translate(50,0)" x2="0" y2="5" stroke="#888" stroke-width="1" opacity="1"/><line transform="translate(100,0)" x2="0" y2="5" stroke="#888" stroke-width="1" opacity="1"/><line transform="translate(150,0)" x2="0" y2="5" stroke="#888" stroke-width="1" opacity="1"/><line transform="translate(200,0)" x2="0" y2="5" stroke="#888" stroke-width="1" opacity="1"/><line transform="translate(250,0)" x2="0" y2="5" stroke="#888" stroke-width="1" opacity="1"/><line transform="translate(300,0)" x2="0" y2="5" stroke="#888" stroke-width="1" opacity="1"/></g><g class="mark-text role-axis-label" pointer-events="none"><text text-anchor="start" transform="translate(0,15)" font-family="sans-serif" font-size="10px" fill="#000" opacity="1">16.0</text><text text-anchor="middle" transform="translate(50,15)" font-family="sans-serif" font-size="10px" fill="#000" opacity="1">18.0</text><text text-anchor="middle" transform="translate(100,15)" font-family="sans-serif" font-size="10px" fill="#000" opacity="1">20.0</text><text text-anchor="middle" transform="translate(150,15)" font-family="sans-serif" font-size="10px" fill="#000" opacity="1">22.0</text><text text-anchor="middle" transform="translate(200,15)" font-family="sans-serif" font-size="10px" fill="#000" opacity="1">24.0</text><text text-anchor="middle" transform="translate(250,15)" font-family="sans-serif" font-size="10px" fill="#000" opacity="1">26.0</text><text text-anchor="end" transform="translate(300,15)" font-family="sans-serif" font-size="10px" fill="#000" opacity="1">28.0</text></g><g class="mark-rule role-axis-domain" pointer-events="none"><line transform="translate(0,0)" x2="300" y2="0" stroke="#888" stroke-width="1" opacity="1"/></g><g class="mark-text role-axis-title" pointer-events="none"><text text-anchor="middle" transform="translate(150,30)" font-family="sans-serif" font-size="11px" font-weight="bold" fill="#000" opacity="1">Age (binned)</text></g></g><path class="foreground" aria-hidden="true" d="" pointer-events="none" display="none"/></g></g><g class="mark-rect role-mark marks" role="graphics-object" aria-roledescription="rect mark container"><path aria-label="Age (binned): 18 – 20" role="graphics-symbol" aria-roledescription="bar" d="M51,0h49v20h-49Z" fill="#4c78a8"/><path aria-label="Age (binned): 18 – 20" role="graphics-symbol" aria-roledescription="bar" d="M51,0h49v20h-49Z" fill="#4c78a8"/><path aria-label="Age (binned): 20 – 22" role="graphics-symbol" aria-roledescription="bar" d="M101,0h49v20h-49Z" fill="#4c78a8"/><path aria-label="Age (binned): 20 – 22" role="graphics-symbol" aria-roledescription="bar" d="M101,0h49v20h-49Z" fill="#4c78a8"/><path aria-label="Age (binned): 26 – 28" role="graphics-symbol" aria-roledescription="bar" d="M251,0h49v20h-49Z" fill="#4c78a8"/><path aria-label="Age (binned): 18 – 20" role="graphics-symbol" aria-roledescription="bar" d="M51,0h49v20h-49Z" fill="#4c78a8"/><path aria-label="Age (binned): 18 – 20" role="graphics-symbol" aria-roledescription="bar" d="M51,0h49v20h-49Z" fill="#4c78a8"/><path aria-label="Age (binned): 20 – 22" role="graphics-symbol" aria-roledescription="bar" d="M101,0h49v20h-49Z" fill="#4c78a8"/><path aria-label="Age (binned): 18 – 20" role="graphics-symbol" aria-roledescription="bar" d="M51,0h49v20h-49Z" fill="#4c78a8"/><path aria-label="Age (binned): 16 – 18" role="graphics-symbol" aria-roledescription="bar" d="M1,0h49v20h-49Z" fill="#4c78a8"/><path aria-label="Age (binned): 22 – 24" role="graphics-symbol" aria-roledescription="bar" d="M151,0h49v20h-49Z" fill="#4c78a8"/><path aria-label="Age (binned): 20 – 22" role="graphics-symbol" aria-roledescription="bar" d="M101,0h49v20h-49Z" fill="#4c78a8"/><path aria-label="Age (binned): 18 – 20" role="graphics-symbol" aria-roledescription="bar" d="M51,0h49v20h-49Z" fill="#4c78a8"/><path aria-label="Age (binned): 16 – 18" role="graphics-symbol" aria-roledescription="bar" d="M1,0h49v20h-49Z" fill="#4c78a8"/><path aria-label="Age (binned): 16 – 18" role="graphics-symbol" aria-roledescription="bar" d="M1,0h49v20h-49Z" fill="#4c78a8"/><path aria-label="Age (binned): 26 – 28" role="graphics-symbol" aria-roledescription="bar" d="M251,0h49v20h-49Z" fill="#4c78a8"/><path aria-label="Age (binned): 20 – 22" role="graphics-symbol" aria-roledescription="bar" d="M101,0h49v20h-49Z" fill="#4c78a8"/><path aria-label="Age (binned): 18 – 20" role="graphics-symbol" aria-roledescription="bar" d="M51,0h49v20h-49Z" fill="#4c78a8"/><path aria-label="Age (binned): 22 – 24" role="graphics-symbol" aria-roledescription="bar" d="M151,0h49v20h-49Z" fill="#4c78a8"/><path aria-label="Age (binned): 18 – 20" role="graphics-symbol" aria-roledescription="bar" d="M51,0h49v20h-49Z" fill="#4c78a8"/><path aria-label="Age (binned): 16 – 18" role="graphics-symbol" aria-roledescription="bar" d="M1,0h49v20h-49Z" fill="#4c78a8"/><path aria-label="Age (binned): 20 – 22" role="graphics-symbol" aria-roledescription="bar" d="M101,0h49v20h-49Z" fill="#4c78a8"/><path aria-label="Age (binned): 18 – 20" role="graphics-symbol" aria-roledescription="bar" d="M51,0h49v20h-49Z" fill="#4c78a8"/><path aria-label="Age (binned): 18 – 20" role="graphics-symbol" aria-roledescription="bar" d="M51,0h49v20h-49Z" fill="#4c78a8"/><path aria-label="Age (binned): 18 – 20" role="graphics-symbol" aria-roledescription="bar" d="M51,0h49v20h-49Z" fill="#4c78a8"/><path aria-label="Age (binned): 18 – 20" role="graphics-symbol" aria-roledescription="bar" d="M51,0h49v20h-49Z" fill="#4c78a8"/><path aria-label="Age (binned): 20 – 22" role="graphics-symbol" aria-roledescription="bar" d="M101,0h49v20h-49Z" fill="#4c78a8"/><path aria-label="Age (binned): 16 – 18" role="graphics-symbol" aria-roledescription="bar" d="M1,0h49v20h-49Z" fill="#4c78a8"/><path aria-label="Age (binned): 20 – 22" role="graphics-symbol" aria-roledescription="bar" d="M101,0h49v20h-49Z" fill="#4c78a8"/><path aria-label="Age (binned): 20 – 22" role="graphics-symbol" aria-roledescription="bar" d="M101,0h49v20h-49Z" fill="#4c78a8"/><path aria-label="Age (binned): 20 – 22" role="graphics-symbol" aria-roledescription="bar" d="M101,0h49v20h-49Z" fill="#4c78a8"/><path aria-label="Age (binned): 18 – 20" role="graphics-symbol" aria-roledescription="bar" d="M51,0h49v20h-49Z" fill="#4c78a8"/><path aria-label="Age (binned): 18 – 20" role="graphics-symbol" aria-roledescription="bar" d="M51,0h49v20h-49Z" fill="#4c78a8"/><path aria-label="Age (binned): 26 – 28" role="graphics-symbol" aria-roledescription="bar" d="M251,0h49v20h-49Z" fill="#4c78a8"/></g></g><path class="foreground" aria-hidden="true" d="" display="none"/></g></g></g></svg>