<svg xmlns="http://www.w3.org/2000/svg" xmlns:xlink="http://www.w3.org/1999/xlink" version="1.1" class="marks" width="312" height="62" viewBox="0 0 312 62"><rect width="312" height="62" fill="white"/><g fill="none" stroke-miterlimit="10" transform="translate(6,5)"><g class="mark-group role-frame root" role="graphics-object" aria-roledescription="group mark container"><g transform="translate(0,0)"><path class="background" aria-hidden="true" d="M0.5,0.5h300v20h-300Z" stroke="#ddd"/><g><g class="mark-group role-axis" role="graphics-symbol" aria-roledescription="axis" aria-label="X-axis titled 'Scores (binned)' for a linear scale with values from 70 to 95"><g transform="translate(0.5,20.5)"><path class="background" aria-hidden="true" d="M0,0h0v0h0Z" pointer-events="none"/><g><g class="mark-rule role-axis-tick" pointer-events="none"><line transform="translate(0,0)" x2="0" y2="5" stroke="#888" stroke-width="1" opacity="1"/><line transform="translate(60,0)" x2="0" y2="5" stroke="#888" stroke-width="1" opacity="1"/><line transform="translate(120,0)" x2="0" y2="5" stroke="#888" stroke-width="1" opacity="1"/><line transform="translate(180,0)" x2="0" y2="5" stroke="#888" stroke-width="1" opacity="1"/><line transform="translate(240,0)" x2="0" y2="5" stroke="#888" stroke-width="1" opacity="1"/><line transform="translate(300,0)" x2="0" y2="5" stroke="#888" stroke-width="1" opacity="1"/></g><g class="mark-text role-axis-label" pointer-events="none"><text text-anchor="start" transform="translate(0,15)" font-family="sans-serif" font-size="10px" fill="#000" opacity="1">70</text><text text-anchor="middle" transform="translate(60,15)" font-family="sans-serif" font-size="10px" fill="#000" opacity="1">75</text><text text-anchor="middle" transform="translate(120,15)" font-family="sans-serif" font-size="10px" fill="#000" opacity="1">80</text><text text-anchor="middle" transform="translate(180,15)" font-family="sans-serif" font-size="10px" fill="#000" opacity="1">85</text><text text-anchor="middle" transform="translate(240,15)" font-family="sans-serif" font-size="10px" fill="#000" opacity="1">90</text><text text-anchor="end" transform="translate(300,15)" font-family="sans-serif" font-size="10px" fill="#000" opacity="1">95</text></g><g class="mark-rule role-axis-domain" pointer-events="none"><line transform="translate(0,0)" x2="300" y2="0" stroke="#888" stroke-width="1" opacity="1"/></g><g class="mark-text role-axis-title" pointer-events="none"><text text-anchor="middle" transform="translate(150,30)" font-family="sans-serif" font-size="11px" font-weight="bold" fill="#000" opacity="1">Scores (binned)</text></g></g><path class="foreground" aria-hidden="true" d="" pointer-events="none" display="none"/></g></g><g class="mark-rect role-mark marks" role="graphics-object" aria-roledescription="rect mark container"><path aria-label="Scores (binned): 70 – 75" role="graphics-symbol" aria-roledescription="bar" d="M1,0h59v20h-59Z" fill="#4c78a8"/><path aria-label="Scores (binned): 75 – 80" role="graphics-symbol" aria-roledescription="bar" d="M61,0h59v20h-59Z" fill="#4c78a8"/><path aria-label="Scores (binned): 75 – 80" role="graphics-symbol" aria-roledescription="bar" d="M61,0h59v20h-59Z" fill="#4c78a8"/><path aria-label="Scores (binned): 75 – 80" role="graphics-symbol" aria-roledescription="bar" d="M61,0h59v20h-59Z" fill="#4c78a8"/><path aria-label="Scores (binned): 80 – 85" role="graphics-symbol" aria-roledescription="bar" d="M121,0h59v20h-59Z" fill="#4c78a8"/><path aria-label="Scores (binned): 85 – 90" role="graphics-symbol" aria-roledescription="bar" d="M181,0h59v20h-59Z" fill="#4c78a8"/><path aria-label="Scores (binned): 90 – 95" role="graphics-symbol" aria-roledescription="bar" d="M241,0h59v20h-59Z" fill="#4c78a8"/><path aria-label="Scores (binned): 90 – 95" role="graphics-symbol" aria-roledescription="bar" d="M241,0h59v20h-59Z" fill="#4c78a8"/><path aria-label="Scores (binned): 80 – 85" role="graphics-symbol" aria-roledescription="bar" d="M121,0h59v20h-59Z" fill="#4c78a8"/><path aria-label="Scores (binned): 80 – 85" role="graphics-symbol" aria-roledescription="bar" d="M121,0h59v20h-59Z" fill="#4c78a8"/></g></g><path class="foreground" aria-hidden="true" d="" display="none"/></g></g></g></svg>